<svg xmlns="http://www.w3.org/2000/svg" xmlns:xlink="http://www.w3.org/1999/xlink" viewBox="0 0 152 140"><defs><style>.cls-1{fill:none;}.cls-2{clip-path:url(#clip-path);}.cls-3{fill:#00a19b;}</style><clipPath id="clip-path" transform="translate(-20 -20)"><rect class="cls-1" width="192" height="192"/></clipPath></defs><g id="圖層_2" data-name="圖層 2"><g id="轉外框"><g class="cls-2"><path class="cls-3" d="M160,160H32a12,12,0,0,1-12-12V44A12,12,0,0,1,32,32H160a12,12,0,0,1,12,12V148A12,12,0,0,1,160,160ZM32,40a4,4,0,0,0-4,4V148a4,4,0,0,0,4,4H160a4,4,0,0,0,4-4V44a4,4,0,0,0-4-4Z" transform="translate(-20 -20)"/><path class="cls-3" d="M68,52a4,4,0,0,1-4-4V24a4,4,0,0,1,8,0V48A4,4,0,0,1,68,52Z" transform="translate(-20 -20)"/><path class="cls-3" d="M123.84,52a4,4,0,0,1-4-4V24a4,4,0,0,1,8,0V48A4,4,0,0,1,123.84,52Z" transform="translate(-20 -20)"/><path class="cls-3" d="M164,72H24a4,4,0,0,1,0-8H164a4,4,0,0,1,0,8Z" transform="translate(-20 -20)"/><path class="cls-3" d="M147.88,104h-108a4,4,0,1,1,0-8h108a4,4,0,0,1,0,8Z" transform="translate(-20 -20)"/><path class="cls-3" d="M108,124H40a4,4,0,0,1,0-8h68a4,4,0,0,1,0,8Z" transform="translate(-20 -20)"/></g></g></g></svg>