<?xml version="1.0" encoding="UTF-8"?>
<svg id="_圖層_1" data-name="圖層_1" xmlns="http://www.w3.org/2000/svg" version="1.1" viewBox="0 0 30 30">
  <!-- Generator: Adobe Illustrator 29.7.1, SVG Export Plug-In . SVG Version: 2.1.1 Build 8)  -->
  <defs>
    <style>
      .st0 {
        fill: #009e96;
      }

      .st1 {
        fill: #fff;
      }
    </style>
  </defs>
  <path id="Path_531" class="st0" d="M29,9.5c2.9,7.9-1.1,16.6-9,19.5-3.2,1.2-6.7,1.3-9.9.2C2.3,26.6-1.9,17.9.8,10.1,2.1,6.5,4.5,3.6,7.8,1.8c5.1-2.7,11.3-2.3,16,1,2.4,1.7,4.2,4.1,5.3,6.8Z"/>
  <path id="Path_532" class="st1" d="M27.9,16.8h.5c0-.3-.5-.2-.7-.5.2,0,.4,0,.6.1h0c0,0-.3,0-.2-.2-1.4-.5-2.7-1.2-3.8-2.1-1-.6-1.5-1.9-2.6-2.2-.2-.2-.3-.5-.4-.8h-.1c-.2-.3-.3-.5-.4-.8-.2-.2-.4-.3-.7-.3-.3.2-.8-.1-1,0h.2c0,.2-.1.3-.2.3,0,0,0,0,0,0-.7-.6-1.2-1.2-1.7-1.9.3-.8-.7-1-1.1-1.5s-1.2,0-1.7.2c-.8-.3-1.7-.4-2.6-.5-.4,0-.6.5-.8.7-.4.9-.8,1.8-1.3,2.6-.2.3-.6.2-.9.4-.5,0-1.1.2-1.5.5,0,0,0,.1-.1.1,0,0,0,0,0,0-.1.3-.3.5-.5.7-.4.6-1.3.8-1.9,1.2-.8.4-1.5,1-2.1,1.6h0c-.3.5-.8.8-1.1,1.2.3,0,.3-.5.7-.4,0,.2-.2.3-.2.5s.3-.2.4-.1c.1,0-.2.3-.4.4.2,0,.1,0,.2.1s.4-.2.6-.1l-.5.5h0c.1,0,.2,0,.3,0,.2-.2.4-.3.6-.4l-.3.5.4-.3c0,.1-.2.2,0,.3.3-.1.3-.4.6-.5,0,.2-.3.4-.4.6.1-.1.5-.2.4-.5.3-.2.5-.4.8-.7.7-.7,1.1-1.5,2.1-1.7h0c.5-.5,1.4-.5,1.9-1,0-.1.2-.4.4-.3h0c0-.1.2-.2.3-.2h0c.4-.4,1.1-.2,1.5-.6h0c.4-.2.8-.6,1.1-1,.1-.3.3-.5.5-.8.1-.3.2-.5.4-.8.3,0,.6,0,.9,0,.3.5,1,.2,1.5.3,0,.3.3,0,.3.3.5.2.6.9,1,1.3-.3.2-.5.4-.6.7-.4,0,0,.5-.4.5.1-.1.3-.2.4,0,0,0,0,0,0,0h0c-.5.3-.9.6-1.4.9h0c-.1,0-.2.2-.3.3h.2s0,0,0,.1h0v.2h0c.2,0,.3-.2.4-.1s0,0,0,.1c.2-.2.3,0,.4,0-.2.2-.5.4-.7.6h.2c0,.3-.4.2-.6.4.2,0,0,.2,0,.3s.2-.2.4,0c0,.2-.4.2-.4.5.2-.1.3-.5.6-.4,0,0-.2.1,0,.3s.2-.2.4-.1c0,0,0,0,0,0,.1-.2.3,0,.5-.1.4-.6,1.2-.5,1.8-.8h0c0-.5.6-.4.9-.5,0-.4.6,0,.7-.4s.3,0,.5,0c.3,0,.5,0,.8-.2.6-.1,1,.6,1.4.9.8.9,1.7,1.6,2.8,2.1-.5-.4-1-.6-1.5-1,0,0,.1,0,.2,0,.4.3.9.6,1.4.9.9.7,2,1.2,3,1.6h-.2v-.2h.2s.2,0,.3,0c-.2-.3-.5-.4-.8-.5-.9-.4-1.7-.8-2.4-1.4h0c.9.5,1.8,1,2.8,1.4.2.3.4.1.6.2,0,0-.1,0-.1-.1Z"/>
  <path id="Path_533" class="st1" d="M15,12.6h-.2c0,.3-.2.2-.3.3v-.2l-.2.2c0,.3-.4,0-.4.3.2,0,.4-.3.7-.3,0-.2.3-.3.5-.4Z"/>
  <path id="Path_534" class="st1" d="M14,12.8c-.2,0-.3,0-.3.3.1,0,.3-.1.3-.3Z"/>
</svg>