<?xml version="1.0" encoding="utf-8"?>
<!-- Generator: Adobe Illustrator 25.2.1, SVG Export Plug-In . SVG Version: 6.00 Build 0)  -->
<svg version="1.1" id="圖層_1" xmlns="http://www.w3.org/2000/svg" xmlns:xlink="http://www.w3.org/1999/xlink" x="0px" y="0px"
	 viewBox="0 0 425.3 111.4" style="enable-background:new 0 0 425.3 111.4;" xml:space="preserve">
<style type="text/css">
	.st0{fill:none;stroke:#00A19B;stroke-miterlimit:10;}
	.st1{fill:#00A19B;}
	.st2{fill:#D32432;}
	.st3{fill:none;stroke:#D32432;stroke-miterlimit:10;}
</style>
<g>
	<path class="st0" d="M389.8,65.1h-297c-12.4,0-22.5-10.1-22.5-22.5l0,0c0-12.4,10.1-22.5,22.5-22.5h297c12.4,0,22.5,10.1,22.5,22.5
		l0,0C412.3,55,402.1,65.1,389.8,65.1z"/>
	<g>
		<path class="st1" d="M218.6,41.9c-0.7,2.8-1.9,5-3.5,6.7c1.4,0.9,3.1,1.6,5.1,2c-0.5,0.5-1.1,1.4-1.4,2c-2.2-0.5-3.9-1.4-5.4-2.5
			c-1.5,1.1-3.2,1.9-5.1,2.5c-0.3-0.6-0.8-1.5-1.2-2c1.7-0.4,3.3-1.1,4.6-2c-1.3-1.4-2.3-3.1-3-5.2H208c-0.1,3-0.7,6.7-2.4,9.1
			c-0.4-0.4-1.3-1-1.8-1.3c2-2.7,2.1-6.7,2.1-9.6v-5h13.6v2.1H208v2.5h8.7l0.4-0.1L218.6,41.9z M210.9,43.4c0.6,1.4,1.4,2.7,2.5,3.7
			c1-1,1.9-2.3,2.4-3.7H210.9z"/>
		<path class="st1" d="M239.7,50.1c0,1.2-0.3,1.8-1,2.1c-0.8,0.3-1.9,0.4-3.5,0.4c-0.1-0.6-0.4-1.6-0.7-2.2c1.1,0.1,2.3,0.1,2.6,0
			c0.3,0,0.5-0.1,0.5-0.4v-9.2H227v11.7h-2.1V38.8h5c0.4-1,0.7-2.1,1-3l2.7,0.4c-0.4,0.9-0.8,1.8-1.3,2.6h7.5L239.7,50.1L239.7,50.1
			z M230.7,48.8V50h-1.9v-7.4h7v6.1h-5.1V48.8z M230.7,44.5v2.4h3.1v-2.4H230.7z"/>
		<path class="st1" d="M259,44.9c-0.4,1.5-0.9,2.8-1.6,3.9c1.3,0.8,2.6,1.5,3.4,2.1l-1.4,1.7c-0.8-0.7-2-1.5-3.4-2.3
			c-1.3,1.1-3.1,1.9-5.5,2.4c-0.1-0.5-0.6-1.5-1-2c1.9-0.3,3.4-0.8,4.5-1.6c-1.1-0.6-2.2-1.2-3.1-1.6c0.4-0.7,0.8-1.6,1.3-2.6h-1.9
			l0.2,1c-0.6,0.2-1.3,0.4-2,0.6v3.9c0,1-0.2,1.5-0.8,1.9c-0.6,0.3-1.4,0.4-2.7,0.4c-0.1-0.6-0.3-1.4-0.6-1.9c0.7,0,1.4,0,1.7,0
			s0.3-0.1,0.3-0.3v-3.3l-2,0.6l-0.5-2.1c0.7-0.1,1.5-0.4,2.4-0.6v-3.8h-2.1v-2h2.1v-3.4h2.1v3.4h1.7v2h-1.7v3.3l1.4-0.4V43h3
			c0.3-0.9,0.6-1.8,0.8-2.7l2.2,0.3c-0.2,0.8-0.5,1.6-0.8,2.4h1.9c0-0.4,0.1-0.8,0.1-1.2h2.4c0,0.4-0.1,0.8-0.1,1.1h1.6v1.9H259
			V44.9z M252.4,41.7h-2v-3.8h3.9c-0.1-0.6-0.3-1.3-0.4-1.8l2.2-0.3c0.2,0.7,0.4,1.5,0.6,2.2h4v3.8h-2.1v-1.9h-6.1v1.8H252.4z
			 M254.4,44.9c-0.3,0.7-0.6,1.3-0.8,1.9c0.6,0.3,1.2,0.6,1.9,0.9c0.6-0.8,1-1.7,1.2-2.8C256.7,44.9,254.4,44.9,254.4,44.9z"/>
		<path class="st1" d="M281.2,50v2h-10.1v-1.3c-2.2,0.5-4.4,1-6.2,1.4l-0.4-1.9c0.7-0.1,1.6-0.3,2.5-0.4v-4.5h-2.3v-1.8h2.3v-1.3
			h-1.2v-0.8c-0.3,0.3-0.6,0.5-0.9,0.8c-0.1-0.5-0.5-1.7-0.7-2.2c1.3-1,2.7-2.5,3.5-4.2l1.6,0.7c-0.1,0.2-0.2,0.4-0.3,0.6
			c1.2,0.7,2.3,1.5,3,2.2l-1,1.7c-0.2-0.2-0.3-0.3-0.6-0.5v1.7h-1.6v1.3h2.2v1.8h-2.2v4.2l2.2-0.4l0.1,1h1.9
			c0.2-1.4,0.4-3.1,0.5-4.9h-1.7v-2h1.9c0.1-1.5,0.3-2.9,0.3-4.3h-1.8v-2h7.6c0,2-0.1,4.2-0.2,6.3h1.4v2h-1.5
			c-0.1,1.8-0.2,3.5-0.3,4.9L281.2,50L281.2,50z M266.2,45.9c0.3,1,0.6,2.3,0.6,3.1l-1.4,0.4c-0.1-0.8-0.3-2.1-0.6-3.1L266.2,45.9z
			 M270.3,40.3c-0.7-0.6-1.5-1.2-2.3-1.7c-0.4,0.6-0.8,1.2-1.3,1.7H270.3z M269,48.7c0.2-0.8,0.5-2.1,0.6-3l1.5,0.4
			c-0.3,1.1-0.6,2.2-0.9,3L269,48.7z M275.5,45.1c-0.2,1.8-0.4,3.5-0.5,4.9h2.3c0.1-1.4,0.2-3.1,0.3-4.9H275.5z M276.1,38.8
			c-0.1,1.4-0.2,2.8-0.4,4.3h2c0.1-1.4,0.1-2.9,0.1-4.3H276.1z"/>
	</g>
	<g>
		<path class="st2" d="M227.3,94.3c0.5,0.4,0.7,1,0.7,1.7c0,1-0.5,1.6-1.4,1.9c0.5,0.2,0.9,0.4,1.2,0.7c0.3,0.3,0.4,0.8,0.4,1.3
			c0,0.8-0.3,1.4-0.8,1.9c-0.6,0.5-1.3,0.8-2.2,0.8c-0.8,0-1.5-0.2-2-0.6c-0.6-0.5-0.9-1.2-1-2.2h1c0,0.7,0.3,1.2,0.7,1.5
			s0.8,0.4,1.3,0.4c0.6,0,1.1-0.2,1.5-0.5c0.3-0.3,0.5-0.8,0.5-1.3s-0.2-0.9-0.5-1.2c-0.3-0.3-0.8-0.4-1.4-0.4h-0.7v-0.8h0.7
			c0.6,0,1-0.1,1.3-0.4s0.5-0.6,0.5-1.1s-0.2-0.9-0.4-1.1c-0.3-0.3-0.8-0.4-1.3-0.4c-0.6,0-1,0.1-1.3,0.5c-0.3,0.3-0.5,0.8-0.6,1.3
			h-1c0.1-0.8,0.4-1.5,0.9-1.9c0.5-0.5,1.2-0.7,2-0.7S226.8,93.9,227.3,94.3z"/>
		<path class="st2" d="M235.9,93.8v5.8h1.4v0.8h-1.4v1.9H235v-1.9h-4.3v-0.9l4.3-5.7C235,93.8,235.9,93.8,235.9,93.8z M231.4,99.7
			h3.5v-4.5l0,0L231.4,99.7z"/>
		<path class="st2" d="M244.7,94.4c0.5,0.5,0.8,1.1,0.8,1.8s-0.3,1.4-0.8,2c-0.3,0.3-0.9,0.8-1.8,1.4c-1.1,0.7-1.7,1.4-1.9,2h4.5
			v0.9h-5.7c0-0.8,0.3-1.5,0.9-2.1c0.3-0.4,0.9-0.9,1.9-1.5c0.7-0.5,1.1-0.8,1.3-1.1c0.4-0.5,0.7-1,0.7-1.5s-0.2-0.9-0.5-1.2
			c-0.3-0.3-0.8-0.4-1.3-0.4c-0.6,0-1,0.2-1.4,0.6c-0.3,0.4-0.5,1-0.5,1.7h-1c0-1,0.3-1.7,0.8-2.3c0.5-0.6,1.2-0.9,2.1-0.9
			C243.5,93.7,244.2,93.9,244.7,94.4z"/>
		<path class="st2" d="M253.6,97c0.5,0.6,0.7,1.4,0.7,2.3s-0.2,1.7-0.7,2.3c-0.5,0.6-1.2,1-2.1,1s-1.6-0.4-2.1-1.3v3.5h-1v-8.6h0.9
			v1c0.4-0.8,1.1-1.2,2.1-1.2C252.3,96,253,96.4,253.6,97z M249.9,97.6c-0.3,0.4-0.5,1-0.5,1.7v0.1c0,0.7,0.2,1.3,0.5,1.7
			c0.3,0.4,0.8,0.7,1.4,0.7c0.7,0,1.2-0.2,1.5-0.7c0.3-0.4,0.5-1,0.5-1.8c0-0.7-0.2-1.3-0.4-1.8c-0.3-0.5-0.9-0.7-1.5-0.7
			C250.7,96.8,250.2,97.1,249.9,97.6z"/>
		<path class="st2" d="M257.7,96.2l1.6,2.2l1.6-2.2h1.1l-2.2,2.9l2.5,3.3h-1.1l-1.8-2.6l-1.9,2.6h-1.1l2.5-3.3l-2.2-2.9H257.7z"/>
	</g>
	<g>
		<path class="st2" d="M20.1,42.5v5.8h1.4v0.8h-1.4V51h-0.9v-1.9h-4.3v-0.9l4.3-5.7C19.2,42.5,20.1,42.5,20.1,42.5z M15.7,48.3h3.5
			v-4.5l0,0L15.7,48.3z"/>
		<path class="st2" d="M29.5,42.5v0.9h-4.2L25,46.2l0,0c0.2-0.3,0.6-0.5,0.9-0.6s0.7-0.2,1.1-0.2c0.8,0,1.5,0.3,2,0.8
			s0.8,1.2,0.8,2.2c0,0.9-0.3,1.6-0.9,2.1s-1.3,0.8-2.1,0.8c-0.8,0-1.4-0.2-1.9-0.6c-0.6-0.5-0.9-1.1-1-1.9h1c0,0.5,0.3,1,0.6,1.2
			c0.3,0.3,0.8,0.4,1.3,0.4c0.6,0,1.1-0.2,1.5-0.6c0.4-0.4,0.6-0.9,0.6-1.5c0-0.7-0.2-1.2-0.6-1.6c-0.3-0.4-0.8-0.6-1.5-0.6
			c-0.4,0-0.8,0.1-1.1,0.3c-0.3,0.2-0.6,0.4-0.8,0.8H24l0.5-4.7C24.5,42.5,29.5,42.5,29.5,42.5z"/>
		<path class="st2" d="M37.8,45.7c0.5,0.6,0.7,1.4,0.7,2.3c0,0.9-0.2,1.7-0.7,2.3s-1.2,1-2.1,1s-1.6-0.4-2.1-1.3v3.5h-1v-8.6h0.9v1
			c0.4-0.8,1.1-1.2,2.1-1.2C36.5,44.7,37.2,45,37.8,45.7z M34.1,46.2c-0.3,0.4-0.5,1-0.5,1.7V48c0,0.7,0.2,1.3,0.5,1.7
			s0.8,0.7,1.4,0.7c0.7,0,1.2-0.2,1.5-0.7c0.3-0.4,0.5-1,0.5-1.8c0-0.7-0.2-1.3-0.4-1.8c-0.3-0.5-0.9-0.7-1.5-0.7
			C34.9,45.5,34.4,45.7,34.1,46.2z"/>
		<path class="st2" d="M41.9,44.8l1.6,2.2l1.6-2.2h1.1L44,47.7l2.5,3.3h-1.1l-1.8-2.6L41.7,51h-1.1l2.5-3.3l-2.2-2.9H41.9z"/>
	</g>
	<g>
		<g>
			<line class="st3" x1="76.3" y1="82.7" x2="406.2" y2="82.7"/>
			<g>
				<path class="st2" d="M70.3,82.7c2.8,1.1,6.4,2.9,8.5,4.8l-1.7-4.8l1.7-4.8C76.6,79.8,73.1,81.6,70.3,82.7z"/>
			</g>
			<g>
				<path class="st2" d="M412.3,82.7c-2.8,1.1-6.4,2.9-8.5,4.8l1.7-4.8l-1.7-4.8C405.9,79.8,409.4,81.6,412.3,82.7z"/>
			</g>
		</g>
	</g>
	<g>
		<g>
			<line class="st3" x1="59.3" y1="26.1" x2="59.3" y2="59.1"/>
			<g>
				<path class="st2" d="M59.3,20.1c-1.1,2.8-2.9,6.4-4.8,8.5l4.8-1.7l4.8,1.7C62.1,26.5,60.3,22.9,59.3,20.1z"/>
			</g>
			<g>
				<path class="st2" d="M59.3,65.1c-1.1-2.8-2.9-6.4-4.8-8.5l4.8,1.7l4.8-1.7C62.1,58.7,60.3,62.3,59.3,65.1z"/>
			</g>
		</g>
	</g>
</g>
</svg>
