<?xml version="1.0" encoding="utf-8"?>
<!-- Generator: Adobe Illustrator 25.2.1, SVG Export Plug-In . SVG Version: 6.00 Build 0)  -->
<svg version="1.1" id="圖層_1" xmlns="http://www.w3.org/2000/svg" xmlns:xlink="http://www.w3.org/1999/xlink" x="0px" y="0px"
	 viewBox="0 0 281.3 111.4" style="enable-background:new 0 0 281.3 111.4;" xml:space="preserve">
<style type="text/css">
	.st0{fill:none;stroke:#007A7A;stroke-miterlimit:10;}
	.st1{fill:#007A7A;}
</style>
<g>
	<path class="st0" d="M248.4,65H32.9c-12.4,0-22.5-10.1-22.5-22.5l0,0C10.4,30.1,20.6,20,32.9,20h215.4c12.4,0,22.5,10.1,22.5,22.5
		l0,0C270.9,54.8,260.7,65,248.4,65z"/>
	<g>
		<path class="st1" d="M93.3,37.6h4.4c3,0,5.2,1,5.2,4.2c0,3-2.3,4.4-5.1,4.4H96v4.7h-2.7V37.6z M97.5,44.1c1.8,0,2.7-0.8,2.7-2.3
			s-1-2.1-2.8-2.1h-1.5v4.4C95.9,44.1,97.5,44.1,97.5,44.1z"/>
		<path class="st1" d="M107.3,40.8h2.2l0.2,1.8h0.1c0.7-1.3,1.8-2,2.9-2c0.6,0,0.9,0.1,1.2,0.2l-0.5,2.3c-0.3-0.1-0.6-0.2-1-0.2
			c-0.8,0-1.7,0.5-2.3,2v6h-2.6V40.8H107.3z"/>
		<path class="st1" d="M116.6,45.9c0-3.3,2.3-5.3,4.7-5.3c2.8,0,4.2,2,4.2,4.8c0,0.5-0.1,1-0.1,1.2h-6.2c0.2,1.7,1.3,2.5,2.8,2.5
			c0.8,0,1.5-0.3,2.3-0.7l0.9,1.6c-1,0.7-2.3,1.1-3.5,1.1C118.7,51.2,116.6,49.2,116.6,45.9z M123.2,44.9c0-1.4-0.6-2.2-1.9-2.2
			c-1.1,0-2,0.8-2.2,2.2H123.2z"/>
		<path class="st1" d="M128.9,49.7l1.2-1.7c0.9,0.7,1.8,1.1,2.7,1.1c1,0,1.5-0.4,1.5-1.1c0-0.8-1-1.1-2.1-1.5
			c-1.3-0.5-2.8-1.3-2.8-2.9c0-1.8,1.5-3.1,3.7-3.1c1.5,0,2.6,0.6,3.4,1.2l-1.2,1.6c-0.7-0.5-1.4-0.9-2.2-0.9c-0.9,0-1.3,0.4-1.3,1
			c0,0.7,1,1,2.1,1.4c1.3,0.5,2.8,1.2,2.8,3s-1.4,3.2-4,3.2C131.4,51.2,129.9,50.6,128.9,49.7z"/>
		<path class="st1" d="M140.1,49.7l1.2-1.7c0.9,0.7,1.8,1.1,2.7,1.1c1,0,1.5-0.4,1.5-1.1c0-0.8-1-1.1-2.1-1.5
			c-1.3-0.5-2.8-1.3-2.8-2.9c0-1.8,1.5-3.1,3.7-3.1c1.5,0,2.6,0.6,3.4,1.2l-1.2,1.6c-0.7-0.5-1.4-0.9-2.2-0.9c-0.9,0-1.3,0.4-1.3,1
			c0,0.7,1,1,2.1,1.4c1.3,0.5,2.8,1.2,2.8,3s-1.4,3.2-4,3.2C142.6,51.2,141.1,50.6,140.1,49.7z"/>
		<path class="st1" d="M156.7,45.3c-0.8,2.1-2.2,4.3-3.5,5.7c-0.5-0.4-1.4-1-2-1.3c1.3-1.2,2.5-3.1,3.2-5L156.7,45.3z M160.9,43.3
			v9.1h-2.3v-9.1h-6.7v-2.1h16v2.1C167.9,43.3,160.9,43.3,160.9,43.3z M166.2,38.9h-12.7v-2.1h12.7V38.9z M165.2,44.5
			c1.2,1.6,2.5,3.8,3,5.4l-2.3,1c-0.4-1.5-1.7-3.8-2.8-5.5L165.2,44.5z"/>
		<path class="st1" d="M171.8,51c0.9-0.8,1.7-2,2.2-3.1l1.8,0.8c-0.5,1.1-1.3,2.4-2.2,3.3L171.8,51z M187.9,41.2h-15.6v-1.7h3.8
			c-0.1-0.3-0.2-0.7-0.4-1l1.4-0.3h-3.9v-1.7h5.8c-0.1-0.3-0.2-0.6-0.3-0.8l2.1-0.4c0.2,0.4,0.4,0.8,0.5,1.2h5.6v1.7h-3.7l1.4,0.3
			c-0.2,0.4-0.4,0.7-0.6,1h3.8L187.9,41.2L187.9,41.2z M185.9,47.4h-5.5c0.7,0.4,1.4,0.8,1.9,1.2l-1.3,1.3c-0.6-0.6-1.8-1.3-2.8-1.8
			l0.7-0.7h-4.6v-5.5h11.6L185.9,47.4L185.9,47.4z M181.7,50.6c0.7,0,0.8-0.2,0.9-1.5c0.4,0.3,1.3,0.6,1.8,0.7
			c-0.2,2-0.8,2.5-2.5,2.5H179c-2.3,0-2.8-0.5-2.8-2.2v-1.9h2.1V50c0,0.5,0.1,0.5,1,0.5L181.7,50.6L181.7,50.6z M183.8,43.2h-7.5V44
			h7.5V43.2z M183.8,45.3h-7.5V46h7.5V45.3z M177.7,38.3c0.2,0.4,0.4,0.9,0.5,1.3h3.7c0.2-0.4,0.4-0.9,0.5-1.3H177.7z M185.9,47.8
			c0.9,1,1.8,2.3,2.2,3.2l-1.9,0.8c-0.3-0.9-1.2-2.3-2.1-3.3L185.9,47.8z"/>
	</g>
</g>
</svg>
