<?xml version="1.0" encoding="utf-8"?>
<!-- Generator: Adobe Illustrator 25.2.1, SVG Export Plug-In . SVG Version: 6.00 Build 0)  -->
<svg version="1.1" id="圖層_1" xmlns="http://www.w3.org/2000/svg" xmlns:xlink="http://www.w3.org/1999/xlink" x="0px" y="0px"
	 viewBox="0 0 243.9 111.4" style="enable-background:new 0 0 243.9 111.4;" xml:space="preserve">
<style type="text/css">
	.st0{fill:#FFFFFF;}
	.st1{fill:#E40028;}
	.st2{fill:none;stroke:#E40028;stroke-miterlimit:10;}
	.st3{fill:#00A39B;}
</style>
<rect x="158" y="30.1" class="st0" width="18" height="24.5"/>
<g>
	<g>
		<path class="st1" d="M73,90.8v8.6h-1V92c-0.5,0.6-1.2,0.9-2,1.2v-1c0.4-0.1,0.8-0.3,1.2-0.5c0.4-0.3,0.7-0.6,1-0.9H73z"/>
		<path class="st1" d="M81.5,91.3c0.5,0.4,0.7,0.9,0.7,1.6c0,0.5-0.1,0.8-0.3,1.2c-0.2,0.3-0.6,0.6-1,0.7v0c0.4,0.1,0.8,0.4,1.1,0.7
			c0.3,0.4,0.5,0.9,0.5,1.4c0,0.8-0.3,1.4-0.8,1.8c-0.6,0.5-1.3,0.7-2.3,0.7c-1,0-1.8-0.2-2.3-0.7c-0.5-0.5-0.8-1.1-0.8-1.8
			c0-0.6,0.2-1,0.5-1.4c0.3-0.4,0.7-0.6,1.1-0.7v0c-0.5-0.2-0.8-0.4-1-0.7c-0.2-0.3-0.3-0.7-0.3-1.2c0-0.6,0.2-1.2,0.7-1.6
			c0.5-0.5,1.2-0.7,2.1-0.7C80.3,90.6,81,90.9,81.5,91.3z M77.8,95.7c-0.4,0.3-0.5,0.7-0.5,1.2c0,0.5,0.2,0.9,0.5,1.2
			c0.4,0.3,0.9,0.5,1.6,0.5s1.2-0.2,1.6-0.5c0.3-0.3,0.5-0.7,0.5-1.2c0-0.5-0.2-0.9-0.5-1.2c-0.4-0.3-0.9-0.5-1.6-0.5
			C78.7,95.2,78.1,95.4,77.8,95.7z M77.9,91.9c-0.3,0.3-0.4,0.6-0.4,1c0,0.4,0.1,0.8,0.4,1.1c0.3,0.3,0.8,0.5,1.5,0.5
			c0.7,0,1.2-0.2,1.5-0.5c0.3-0.3,0.4-0.6,0.4-1.1c0-0.4-0.2-0.8-0.4-1c-0.3-0.3-0.8-0.5-1.4-0.5C78.8,91.4,78.3,91.6,77.9,91.9z"/>
		<path class="st1" d="M90.3,94c0.5,0.6,0.7,1.4,0.7,2.3c0,0.9-0.2,1.7-0.7,2.3c-0.5,0.6-1.2,1-2.1,1s-1.6-0.4-2.1-1.3v3.5h-1v-8.6
			h0.9v1c0.4-0.8,1.1-1.2,2.1-1.2C89.1,93,89.8,93.3,90.3,94z M86.6,94.5c-0.3,0.4-0.5,1-0.5,1.7v0.1c0,0.7,0.2,1.3,0.5,1.7
			c0.3,0.4,0.8,0.7,1.4,0.7c0.7,0,1.2-0.2,1.5-0.7c0.3-0.4,0.5-1,0.5-1.8c0-0.7-0.2-1.3-0.4-1.8c-0.3-0.5-0.9-0.7-1.5-0.7
			C87.4,93.8,86.9,94,86.6,94.5z"/>
		<path class="st1" d="M94.5,93.2l1.6,2.2l1.6-2.2h1.1l-2.2,2.9l2.5,3.3h-1.1l-1.8-2.6l-1.9,2.6h-1.1l2.5-3.3l-2.2-2.9H94.5z"/>
	</g>
	<g>
		<g>
			<line class="st2" x1="79.1" y1="79.6" x2="90.7" y2="79.6"/>
			<g>
				<path class="st1" d="M73.1,79.6c2.8,1.1,6.4,2.9,8.5,4.8l-1.7-4.8l1.7-4.8C79.5,76.8,75.9,78.5,73.1,79.6z"/>
			</g>
			<g>
				<path class="st1" d="M96.7,79.6c-2.8,1.1-6.4,2.9-8.5,4.8l1.7-4.8l-1.7-4.8C90.3,76.8,93.9,78.5,96.7,79.6z"/>
			</g>
		</g>
	</g>
	<g>
		<path class="st1" d="M158.3,90.8v8.6h-1V92c-0.5,0.6-1.2,0.9-2,1.2v-1c0.4-0.1,0.8-0.3,1.2-0.5c0.4-0.3,0.7-0.6,1-0.9H158.3z"/>
		<path class="st1" d="M166.8,91.3c0.5,0.4,0.7,0.9,0.7,1.6c0,0.5-0.1,0.8-0.3,1.2c-0.2,0.3-0.6,0.6-1,0.7v0
			c0.4,0.1,0.8,0.4,1.1,0.7c0.3,0.4,0.5,0.9,0.5,1.4c0,0.8-0.3,1.4-0.8,1.8c-0.6,0.5-1.3,0.7-2.3,0.7c-1,0-1.8-0.2-2.3-0.7
			c-0.5-0.5-0.8-1.1-0.8-1.8c0-0.6,0.2-1,0.5-1.4c0.3-0.4,0.7-0.6,1.1-0.7v0c-0.5-0.2-0.8-0.4-1-0.7c-0.2-0.3-0.3-0.7-0.3-1.2
			c0-0.6,0.2-1.2,0.7-1.6c0.5-0.5,1.2-0.7,2.1-0.7C165.6,90.6,166.3,90.9,166.8,91.3z M163.1,95.7c-0.4,0.3-0.5,0.7-0.5,1.2
			c0,0.5,0.2,0.9,0.5,1.2c0.4,0.3,0.9,0.5,1.6,0.5c0.7,0,1.2-0.2,1.6-0.5c0.3-0.3,0.5-0.7,0.5-1.2c0-0.5-0.2-0.9-0.5-1.2
			c-0.4-0.3-0.9-0.5-1.6-0.5C164,95.2,163.5,95.4,163.1,95.7z M163.3,91.9c-0.3,0.3-0.4,0.6-0.4,1c0,0.4,0.1,0.8,0.4,1.1
			c0.3,0.3,0.8,0.5,1.5,0.5c0.7,0,1.2-0.2,1.5-0.5c0.3-0.3,0.4-0.6,0.4-1.1c0-0.4-0.2-0.8-0.4-1c-0.3-0.3-0.8-0.5-1.4-0.5
			C164.1,91.4,163.6,91.6,163.3,91.9z"/>
		<path class="st1" d="M175.6,94c0.5,0.6,0.7,1.4,0.7,2.3c0,0.9-0.2,1.7-0.7,2.3c-0.5,0.6-1.2,1-2.1,1s-1.6-0.4-2.1-1.3v3.5h-1v-8.6
			h0.9v1c0.4-0.8,1.1-1.2,2.1-1.2C174.4,93,175.1,93.3,175.6,94z M171.9,94.5c-0.3,0.4-0.5,1-0.5,1.7v0.1c0,0.7,0.2,1.3,0.5,1.7
			c0.3,0.4,0.8,0.7,1.4,0.7c0.7,0,1.2-0.2,1.5-0.7c0.3-0.4,0.5-1,0.5-1.8c0-0.7-0.2-1.3-0.4-1.8c-0.3-0.5-0.9-0.7-1.5-0.7
			C172.7,93.8,172.3,94,171.9,94.5z"/>
		<path class="st1" d="M179.8,93.2l1.6,2.2l1.6-2.2h1.1l-2.2,2.9l2.5,3.3h-1.1l-1.8-2.6l-1.9,2.6h-1.1l2.5-3.3l-2.2-2.9H179.8z"/>
	</g>
	<g>
		<g>
			<line class="st2" x1="164.4" y1="79.6" x2="176" y2="79.6"/>
			<g>
				<path class="st1" d="M158.4,79.6c2.8,1.1,6.4,2.9,8.5,4.8l-1.7-4.8l1.7-4.8C164.8,76.8,161.2,78.5,158.4,79.6z"/>
			</g>
			<g>
				<path class="st1" d="M182,79.6c-2.8,1.1-6.4,2.9-8.5,4.8l1.7-4.8l-1.7-4.8C175.7,76.8,179.2,78.5,182,79.6z"/>
			</g>
		</g>
	</g>
	<g>
		<path class="st1" d="M20.2,39.5v5.8h1.4v0.8h-1.4V48h-0.9v-1.9h-4.3v-0.9l4.3-5.7H20.2z M15.8,45.3h3.5v-4.5h0L15.8,45.3z"/>
		<path class="st1" d="M29,40c0.5,0.5,0.8,1.1,0.8,1.8c0,0.7-0.3,1.4-0.8,2c-0.3,0.3-0.9,0.8-1.8,1.4c-1.1,0.7-1.7,1.4-1.9,2h4.5V48
			h-5.7c0-0.8,0.3-1.5,0.9-2.1c0.3-0.4,0.9-0.9,1.9-1.5c0.7-0.5,1.1-0.8,1.3-1.1c0.4-0.5,0.7-1,0.7-1.5c0-0.5-0.2-0.9-0.5-1.2
			c-0.3-0.3-0.8-0.4-1.3-0.4c-0.6,0-1,0.2-1.4,0.6c-0.3,0.4-0.5,1-0.5,1.7h-1c0-1,0.3-1.7,0.8-2.3c0.5-0.6,1.2-0.9,2.1-0.9
			C27.8,39.3,28.5,39.5,29,40z"/>
		<path class="st1" d="M37.9,42.6c0.5,0.6,0.7,1.4,0.7,2.3c0,0.9-0.2,1.7-0.7,2.3c-0.5,0.6-1.2,1-2.1,1s-1.6-0.4-2.1-1.3v3.5h-1
			v-8.6h0.9v1c0.4-0.8,1.1-1.2,2.1-1.2C36.6,41.6,37.3,42,37.9,42.6z M34.2,43.2c-0.3,0.4-0.5,1-0.5,1.7V45c0,0.7,0.2,1.3,0.5,1.7
			c0.3,0.4,0.8,0.7,1.4,0.7c0.7,0,1.2-0.2,1.5-0.7c0.3-0.4,0.5-1,0.5-1.8c0-0.7-0.2-1.3-0.4-1.8c-0.3-0.5-0.9-0.7-1.5-0.7
			C35,42.4,34.5,42.7,34.2,43.2z"/>
		<path class="st1" d="M42,41.8l1.6,2.2l1.6-2.2h1.1l-2.2,2.9l2.5,3.3h-1.1l-1.8-2.6L41.8,48h-1.1l2.5-3.3l-2.2-2.9H42z"/>
	</g>
	<g>
		<g>
			<line class="st2" x1="59.4" y1="26.2" x2="59.4" y2="59.1"/>
			<g>
				<path class="st1" d="M59.4,20.1c-1.1,2.8-2.9,6.4-4.8,8.5l4.8-1.7l4.8,1.7C62.2,26.5,60.4,23,59.4,20.1z"/>
			</g>
			<g>
				<path class="st1" d="M59.4,65.1c-1.1-2.8-2.9-6.4-4.8-8.5l4.8,1.7l4.8-1.7C62.2,58.8,60.4,62.3,59.4,65.1z"/>
			</g>
		</g>
	</g>
	<path class="st3" d="M172.2,64.9H77.1c-2.2,0-4-1.8-4-4v-32c0-2.2,1.8-4,4-4h95.1c2.2,0,4,1.8,4,4v32
		C176.2,63.1,174.4,64.9,172.2,64.9z"/>
	<g>
		<path class="st0" d="M98.4,41.6c0,0,0,0.6,0,0.9c-0.2,6.8-0.5,9.3-1,10c-0.4,0.6-0.7,0.8-1.2,0.8c-0.4,0.1-1.1,0.1-1.8,0.1
			c0-0.6-0.2-1.4-0.5-2c0.6,0,1.1,0.1,1.4,0.1c0.2,0,0.4-0.1,0.6-0.3c0.4-0.5,0.6-2.4,0.8-7.7h-1.6c-0.2,4-0.8,7.7-2.7,10.3
			c-0.3-0.5-1-1.1-1.5-1.4c1.7-2.2,2.2-5.4,2.3-8.9h-1.9v-1.9H93c0-0.9,0-1.9,0-2.8h1.9c0,0.9,0,1.9,0,2.8L98.4,41.6z M105.1,40.6
			v12.7h-2v-1H101v1.1h-1.9V40.6H105.1z M103.1,50.4v-8H101v8H103.1z"/>
		<path class="st0" d="M117.5,39.6c0,3,0.4,8.9,6.3,12.3c-0.4,0.3-1.2,1.2-1.5,1.7c-3.3-2-5-5-5.9-7.9c-1.2,3.6-3.1,6.2-5.9,7.9
			c-0.4-0.4-1.2-1.2-1.7-1.6c3.3-1.7,5.2-4.8,6.1-9l1,0.2c-0.1-0.6-0.2-1.2-0.2-1.7H112v-1.9H117.5z"/>
		<path class="st0" d="M141.2,40.9v3.9h-1.9v-2.2h-10v2.2h-1.8v-3.9h2.2c-0.2-0.5-0.6-1-0.9-1.4l1.7-0.7c0.5,0.5,1,1.2,1.2,1.7
			l-0.9,0.4h2.5v-2.2h2v2.2h2.5l-0.9-0.3c0.4-0.5,0.9-1.2,1.2-1.7l2,0.6c-0.5,0.6-0.9,1.1-1.3,1.5H141.2z M140.2,51.3
			c0,0.9-0.2,1.3-0.8,1.6c-0.6,0.3-1.5,0.3-2.6,0.3c-0.1-0.5-0.4-1.2-0.6-1.7c0.7,0,1.6,0,1.8,0c0.2,0,0.3-0.1,0.3-0.2v-1.6h-2.9v4
			h-2v-4h-3V53h-1.9v-5h4.9v-1H130v-3.7h8.5V47h-3.1v1h4.8V51.3z M131.8,45.7h4.8v-1h-4.8V45.7z"/>
		<path class="st0" d="M158.6,51.4c0,1-0.2,1.5-0.9,1.8c-0.7,0.3-1.6,0.4-3.1,0.3c-0.1-0.5-0.4-1.3-0.6-1.8c0.9,0,2,0,2.2,0
			c0.3,0,0.4-0.1,0.4-0.4V49h-3.4v4.5h-1.9V49h-3.3c-0.3,1.7-0.9,3.5-2,4.8c-0.3-0.4-1.1-1-1.5-1.2c1.7-1.9,1.9-4.8,1.9-7v-5.7h12.1
			V51.4z M151.5,47.2v-2h-3v0.3c0,0.5,0,1.1,0,1.7H151.5z M148.5,41.6v1.9h3v-1.9H148.5z M156.8,41.6h-3.4v1.9h3.4V41.6z
			 M156.8,47.2v-2h-3.4v2H156.8z"/>
	</g>
</g>
</svg>
