<?xml version="1.0" encoding="utf-8"?>
<!-- Generator: Adobe Illustrator 25.2.1, SVG Export Plug-In . SVG Version: 6.00 Build 0)  -->
<svg version="1.1" id="圖層_1" xmlns="http://www.w3.org/2000/svg" xmlns:xlink="http://www.w3.org/1999/xlink" x="0px" y="0px"
	 viewBox="0 0 281.3 111.4" style="enable-background:new 0 0 281.3 111.4;" xml:space="preserve">
<style type="text/css">
	.st0{fill:#00A19B;}
	.st1{fill:none;stroke:#D32432;stroke-miterlimit:10;}
	.st2{fill:#D32432;}
	.st3{fill:none;stroke:#00A19B;stroke-miterlimit:10;}
	.st4{fill:none;stroke:#3CBAAD;stroke-miterlimit:10;}
	.st5{fill:#007A7A;}
	.st6{fill:#ACACAC;}
	.st7{fill:#639896;}
	.st8{fill:#FFFFFF;}
	.st9{fill:#3CBAAD;}
	.st10{clip-path:url(#SVGID_2_);fill:#00A19B;}
	.st11{clip-path:url(#SVGID_4_);fill:#ACACAC;}
	.st12{clip-path:url(#SVGID_6_);}
</style>
<g>
	<path class="st6" d="M248.5,65H32.8c-12.4,0-22.5-10.1-22.5-22.5v0C10.3,30.1,20.4,20,32.8,20h215.7c12.4,0,22.5,10.1,22.5,22.5v0
		C271,54.8,260.9,65,248.5,65z"/>
	<g>
		<path class="st8" d="M82.2,37.6h3.7c4.1,0,6.6,2.1,6.6,6.6c0,4.5-2.5,6.7-6.4,6.7h-3.8V37.6z M85.7,48.8c2.5,0,4-1.3,4-4.6
			c0-3.3-1.5-4.5-4-4.5h-0.8v9.1H85.7z"/>
		<path class="st8" d="M96.8,37.8c0-0.9,0.7-1.4,1.6-1.4c0.9,0,1.6,0.6,1.6,1.4c0,0.8-0.7,1.4-1.6,1.4
			C97.5,39.2,96.8,38.6,96.8,37.8z M97.1,40.8h2.6v10.1h-2.6V40.8z"/>
		<path class="st8" d="M103.8,49.7l1.2-1.7c0.9,0.7,1.8,1.1,2.7,1.1c1,0,1.5-0.4,1.5-1.1c0-0.8-1-1.1-2.1-1.5
			c-1.3-0.5-2.8-1.3-2.8-2.9c0-1.8,1.5-3.1,3.7-3.1c1.5,0,2.6,0.6,3.4,1.2l-1.2,1.6c-0.7-0.5-1.4-0.9-2.2-0.9c-0.9,0-1.3,0.4-1.3,1
			c0,0.7,1,1,2.1,1.4c1.3,0.5,2.8,1.2,2.8,3c0,1.8-1.4,3.2-4,3.2C106.3,51.2,104.8,50.6,103.8,49.7z"/>
		<path class="st8" d="M115.4,48.2c0-2.2,1.7-3.3,5.8-3.7c0-1-0.5-1.7-1.7-1.7c-0.9,0-1.8,0.4-2.8,1l-1-1.7c1.2-0.7,2.6-1.3,4.2-1.3
			c2.6,0,3.9,1.5,3.9,4.4v5.9h-2.2l-0.2-1.1h-0.1c-0.9,0.8-1.9,1.3-3,1.3C116.6,51.2,115.4,49.9,115.4,48.2z M121.2,48.1v-2
			c-2.4,0.3-3.3,1-3.3,1.9c0,0.8,0.6,1.1,1.3,1.1C120,49.1,120.6,48.7,121.2,48.1z"/>
		<path class="st8" d="M131.2,49.8L131.2,49.8l-0.3,1.1h-2.1V36.5h2.6v3.6l-0.1,1.6c0.8-0.7,1.8-1.2,2.8-1.2c2.5,0,4,2,4,5.1
			c0,3.5-2.1,5.5-4.3,5.5C133,51.2,132,50.7,131.2,49.8z M135.5,45.7c0-1.9-0.6-3-2-3c-0.7,0-1.3,0.3-2,1v4.4
			c0.6,0.6,1.3,0.8,1.8,0.8C134.5,49,135.5,47.9,135.5,45.7z"/>
		<path class="st8" d="M142.7,48.1V36.5h2.6v11.7c0,0.6,0.3,0.8,0.5,0.8c0.1,0,0.2,0,0.4,0l0.3,2c-0.3,0.1-0.8,0.2-1.4,0.2
			C143.3,51.2,142.7,50,142.7,48.1z"/>
		<path class="st8" d="M150,45.9c0-3.3,2.3-5.3,4.7-5.3c2.8,0,4.2,2,4.2,4.8c0,0.5-0.1,1-0.1,1.2h-6.2c0.2,1.7,1.3,2.5,2.8,2.5
			c0.8,0,1.5-0.3,2.3-0.7l0.9,1.6c-1,0.7-2.3,1.1-3.5,1.1C152.2,51.2,150,49.2,150,45.9z M156.6,44.9c0-1.4-0.6-2.2-1.9-2.2
			c-1.1,0-2,0.8-2.2,2.2H156.6z"/>
		<path class="st8" d="M167.8,45.3c-0.8,2.1-2.2,4.3-3.5,5.7c-0.5-0.4-1.4-1-2-1.3c1.3-1.2,2.5-3.1,3.2-5L167.8,45.3z M171.9,43.3
			v9.1h-2.3v-9.1h-6.7v-2.1h16v2.1H171.9z M177.3,38.9h-12.7v-2.1h12.7V38.9z M176.2,44.6c1.2,1.6,2.5,3.8,3,5.4l-2.2,1
			c-0.4-1.5-1.7-3.8-2.8-5.5L176.2,44.6z"/>
		<path class="st8" d="M182.9,51c0.9-0.8,1.7-2,2.2-3.1l1.8,0.8c-0.5,1.1-1.3,2.4-2.2,3.3L182.9,51z M198.9,41.2h-15.6v-1.7h3.8
			c-0.1-0.3-0.2-0.7-0.4-1l1.3-0.3h-3.9v-1.7h5.8c-0.1-0.3-0.2-0.6-0.3-0.8l2.1-0.4c0.2,0.4,0.4,0.8,0.5,1.2h5.6v1.7h-3.7l1.4,0.3
			c-0.2,0.4-0.4,0.7-0.6,1h3.8V41.2z M197,47.4h-5.5c0.7,0.4,1.4,0.8,1.9,1.2l-1.3,1.3c-0.6-0.6-1.8-1.3-2.8-1.8l0.7-0.7h-4.6v-5.5
			H197V47.4z M192.8,50.6c0.7,0,0.8-0.2,0.9-1.5c0.4,0.3,1.3,0.6,1.8,0.7c-0.2,2-0.8,2.5-2.5,2.5h-2.9c-2.3,0-2.8-0.5-2.8-2.2v-1.9
			h2.1V50c0,0.5,0.1,0.5,1,0.5H192.8z M194.9,43.2h-7.5V44h7.5V43.2z M194.9,45.3h-7.5V46h7.5V45.3z M188.8,38.3
			c0.2,0.4,0.4,0.9,0.5,1.3h3.7c0.2-0.4,0.4-0.9,0.5-1.3H188.8z M196.9,47.8c0.9,1,1.8,2.3,2.2,3.2l-1.9,0.8
			c-0.3-0.9-1.2-2.2-2.1-3.3L196.9,47.8z"/>
	</g>
</g>
</svg>
