<?xml version="1.0" encoding="utf-8"?>
<!-- Generator: Adobe Illustrator 25.2.1, SVG Export Plug-In . SVG Version: 6.00 Build 0)  -->
<svg version="1.1" id="圖層_1" xmlns="http://www.w3.org/2000/svg" xmlns:xlink="http://www.w3.org/1999/xlink" x="0px" y="0px"
	 viewBox="0 0 243.9 111.4" style="enable-background:new 0 0 243.9 111.4;" xml:space="preserve">
<style type="text/css">
	.st0{fill:#E40028;}
	.st1{fill:none;stroke:#E40028;stroke-miterlimit:10;}
	.st2{fill:none;stroke:#00A39B;stroke-miterlimit:10;}
	.st3{fill:#00A39B;}
</style>
<g>
	<g>
		<path class="st0" d="M72.7,90.2v8.6h-1v-7.4c-0.5,0.6-1.2,0.9-2,1.2v-1c0.4-0.1,0.8-0.3,1.2-0.5c0.4-0.3,0.7-0.6,1-0.9H72.7z"/>
		<path class="st0" d="M81.2,90.7c0.5,0.4,0.7,0.9,0.7,1.6c0,0.5-0.1,0.8-0.3,1.2c-0.2,0.3-0.6,0.6-1,0.7v0c0.4,0.1,0.8,0.4,1.1,0.7
			c0.3,0.4,0.5,0.9,0.5,1.4c0,0.8-0.3,1.4-0.8,1.8c-0.6,0.5-1.3,0.7-2.3,0.7c-1,0-1.8-0.2-2.3-0.7c-0.5-0.5-0.8-1.1-0.8-1.8
			c0-0.6,0.2-1,0.5-1.4c0.3-0.4,0.7-0.6,1.1-0.7v0c-0.5-0.2-0.8-0.4-1-0.7c-0.2-0.3-0.3-0.7-0.3-1.2c0-0.6,0.2-1.2,0.7-1.6
			c0.5-0.5,1.2-0.7,2.1-0.7C79.9,90,80.7,90.3,81.2,90.7z M77.5,95.2c-0.4,0.3-0.5,0.7-0.5,1.2c0,0.5,0.2,0.9,0.5,1.2
			c0.4,0.3,0.9,0.5,1.6,0.5c0.7,0,1.2-0.2,1.6-0.5c0.3-0.3,0.5-0.7,0.5-1.2c0-0.5-0.2-0.9-0.5-1.2c-0.4-0.3-0.9-0.5-1.6-0.5
			C78.4,94.7,77.8,94.8,77.5,95.2z M77.6,91.3c-0.3,0.3-0.4,0.6-0.4,1c0,0.4,0.1,0.8,0.4,1.1c0.3,0.3,0.8,0.5,1.5,0.5
			c0.7,0,1.2-0.2,1.5-0.5c0.3-0.3,0.4-0.6,0.4-1.1c0-0.4-0.2-0.8-0.4-1c-0.3-0.3-0.8-0.5-1.4-0.5C78.4,90.9,78,91,77.6,91.3z"/>
		<path class="st0" d="M90,93.4c0.5,0.6,0.7,1.4,0.7,2.3c0,0.9-0.2,1.7-0.7,2.3c-0.5,0.6-1.2,1-2.1,1s-1.6-0.4-2.1-1.3v3.5h-1v-8.6
			h0.9v1c0.4-0.8,1.1-1.2,2.1-1.2C88.8,92.4,89.5,92.7,90,93.4z M86.3,93.9c-0.3,0.4-0.5,1-0.5,1.7v0.1c0,0.7,0.2,1.3,0.5,1.7
			c0.3,0.4,0.8,0.7,1.4,0.7c0.7,0,1.2-0.2,1.5-0.7c0.3-0.4,0.5-1,0.5-1.8c0-0.7-0.2-1.3-0.4-1.8c-0.3-0.5-0.9-0.7-1.5-0.7
			C87.1,93.2,86.6,93.4,86.3,93.9z"/>
		<path class="st0" d="M94.1,92.6l1.6,2.2l1.6-2.2h1.1l-2.2,2.9l2.5,3.3h-1.1l-1.8-2.6l-1.9,2.6h-1.1l2.5-3.3L93,92.6H94.1z"/>
	</g>
	<g>
		<g>
			<line class="st1" x1="78.8" y1="79" x2="90.4" y2="79"/>
			<g>
				<path class="st0" d="M72.8,79c2.8,1.1,6.4,2.9,8.5,4.8L79.6,79l1.7-4.8C79.1,76.2,75.6,78,72.8,79z"/>
			</g>
			<g>
				<path class="st0" d="M96.4,79c-2.8,1.1-6.4,2.9-8.5,4.8l1.7-4.8l-1.7-4.8C90,76.2,93.5,78,96.4,79z"/>
			</g>
		</g>
	</g>
	<g>
		<path class="st0" d="M158,90.2v8.6h-1v-7.4c-0.5,0.6-1.2,0.9-2,1.2v-1c0.4-0.1,0.8-0.3,1.2-0.5c0.4-0.3,0.7-0.6,1-0.9H158z"/>
		<path class="st0" d="M166.5,90.7c0.5,0.4,0.7,0.9,0.7,1.6c0,0.5-0.1,0.8-0.3,1.2c-0.2,0.3-0.6,0.6-1,0.7v0
			c0.4,0.1,0.8,0.4,1.1,0.7c0.3,0.4,0.5,0.9,0.5,1.4c0,0.8-0.3,1.4-0.8,1.8c-0.6,0.5-1.3,0.7-2.3,0.7c-1,0-1.8-0.2-2.3-0.7
			c-0.5-0.5-0.8-1.1-0.8-1.8c0-0.6,0.2-1,0.5-1.4c0.3-0.4,0.7-0.6,1.1-0.7v0c-0.5-0.2-0.8-0.4-1-0.7c-0.2-0.3-0.3-0.7-0.3-1.2
			c0-0.6,0.2-1.2,0.7-1.6c0.5-0.5,1.2-0.7,2.1-0.7C165.3,90,166,90.3,166.5,90.7z M162.8,95.2c-0.4,0.3-0.5,0.7-0.5,1.2
			c0,0.5,0.2,0.9,0.5,1.2c0.4,0.3,0.9,0.5,1.6,0.5c0.7,0,1.2-0.2,1.6-0.5c0.3-0.3,0.5-0.7,0.5-1.2c0-0.5-0.2-0.9-0.5-1.2
			c-0.4-0.3-0.9-0.5-1.6-0.5C163.7,94.7,163.1,94.8,162.8,95.2z M162.9,91.3c-0.3,0.3-0.4,0.6-0.4,1c0,0.4,0.1,0.8,0.4,1.1
			c0.3,0.3,0.8,0.5,1.5,0.5c0.7,0,1.2-0.2,1.5-0.5c0.3-0.3,0.4-0.6,0.4-1.1c0-0.4-0.2-0.8-0.4-1c-0.3-0.3-0.8-0.5-1.4-0.5
			C163.8,90.9,163.3,91,162.9,91.3z"/>
		<path class="st0" d="M175.3,93.4c0.5,0.6,0.7,1.4,0.7,2.3c0,0.9-0.2,1.7-0.7,2.3c-0.5,0.6-1.2,1-2.1,1s-1.6-0.4-2.1-1.3v3.5h-1
			v-8.6h0.9v1c0.4-0.8,1.1-1.2,2.1-1.2C174.1,92.4,174.8,92.7,175.3,93.4z M171.6,93.9c-0.3,0.4-0.5,1-0.5,1.7v0.1
			c0,0.7,0.2,1.3,0.5,1.7c0.3,0.4,0.8,0.7,1.4,0.7c0.7,0,1.2-0.2,1.5-0.7c0.3-0.4,0.5-1,0.5-1.8c0-0.7-0.2-1.3-0.4-1.8
			c-0.3-0.5-0.9-0.7-1.5-0.7C172.4,93.2,171.9,93.4,171.6,93.9z"/>
		<path class="st0" d="M179.4,92.6l1.6,2.2l1.6-2.2h1.1l-2.2,2.9l2.5,3.3h-1.1l-1.8-2.6l-1.9,2.6h-1.1l2.5-3.3l-2.2-2.9H179.4z"/>
	</g>
	<g>
		<g>
			<line class="st1" x1="164.1" y1="79" x2="175.7" y2="79"/>
			<g>
				<path class="st0" d="M158.1,79c2.8,1.1,6.4,2.9,8.5,4.8l-1.7-4.8l1.7-4.8C164.4,76.2,160.9,78,158.1,79z"/>
			</g>
			<g>
				<path class="st0" d="M181.7,79c-2.8,1.1-6.4,2.9-8.5,4.8l1.7-4.8l-1.7-4.8C175.3,76.2,178.9,78,181.7,79z"/>
			</g>
		</g>
	</g>
	<g>
		<path class="st0" d="M20,39.3c0.5,0.4,0.7,1,0.7,1.7c0,1-0.5,1.6-1.4,1.9c0.5,0.2,0.9,0.4,1.2,0.7c0.3,0.3,0.4,0.8,0.4,1.3
			c0,0.8-0.3,1.4-0.8,1.9c-0.6,0.5-1.3,0.8-2.2,0.8c-0.8,0-1.5-0.2-2-0.6c-0.6-0.5-0.9-1.2-1-2.2h1c0,0.7,0.3,1.2,0.7,1.5
			c0.4,0.3,0.8,0.4,1.3,0.4c0.6,0,1.1-0.2,1.5-0.5c0.3-0.3,0.5-0.8,0.5-1.3c0-0.5-0.2-0.9-0.5-1.2c-0.3-0.3-0.8-0.4-1.4-0.4h-0.7
			v-0.8H18c0.6,0,1-0.1,1.3-0.4c0.3-0.3,0.5-0.6,0.5-1.1c0-0.5-0.2-0.9-0.4-1.1c-0.3-0.3-0.8-0.4-1.3-0.4c-0.6,0-1,0.1-1.3,0.5
			c-0.3,0.3-0.5,0.8-0.6,1.3h-1c0.1-0.8,0.4-1.5,0.9-1.9c0.5-0.5,1.2-0.7,2-0.7C18.8,38.7,19.5,38.9,20,39.3z"/>
		<path class="st0" d="M28.7,39.4c0.5,0.5,0.8,1.1,0.8,1.8c0,0.7-0.3,1.4-0.8,2c-0.3,0.3-0.9,0.8-1.8,1.4c-1.1,0.7-1.7,1.4-1.9,2
			h4.5v0.9h-5.7c0-0.8,0.3-1.5,0.9-2.1c0.3-0.4,0.9-0.9,1.9-1.5c0.7-0.5,1.1-0.8,1.3-1.1c0.4-0.5,0.7-1,0.7-1.5
			c0-0.5-0.2-0.9-0.5-1.2c-0.3-0.3-0.8-0.4-1.3-0.4c-0.6,0-1,0.2-1.4,0.6c-0.3,0.4-0.5,1-0.5,1.7h-1c0-1,0.3-1.7,0.8-2.3
			c0.5-0.6,1.2-0.9,2.1-0.9C27.5,38.7,28.2,38.9,28.7,39.4z"/>
		<path class="st0" d="M37.5,42.1c0.5,0.6,0.7,1.4,0.7,2.3c0,0.9-0.2,1.7-0.7,2.3c-0.5,0.6-1.2,1-2.1,1s-1.6-0.4-2.1-1.3v3.5h-1
			v-8.6h0.9v1c0.4-0.8,1.1-1.2,2.1-1.2C36.3,41.1,37,41.4,37.5,42.1z M33.9,42.6c-0.3,0.4-0.5,1-0.5,1.7v0.1c0,0.7,0.2,1.3,0.5,1.7
			c0.3,0.4,0.8,0.7,1.4,0.7c0.7,0,1.2-0.2,1.5-0.7c0.3-0.4,0.5-1,0.5-1.8c0-0.7-0.2-1.3-0.4-1.8c-0.3-0.5-0.9-0.7-1.5-0.7
			C34.7,41.9,34.2,42.1,33.9,42.6z"/>
		<path class="st0" d="M41.7,41.2l1.6,2.2l1.6-2.2H46l-2.2,2.9l2.5,3.3h-1.1l-1.8-2.6l-1.9,2.6h-1.1l2.5-3.3l-2.2-2.9H41.7z"/>
	</g>
	<g>
		<g>
			<line class="st1" x1="59.1" y1="32.1" x2="59.1" y2="54.3"/>
			<g>
				<path class="st0" d="M59.1,26.1c-1.1,2.8-2.9,6.4-4.8,8.5l4.8-1.7l4.8,1.7C61.9,32.5,60.1,28.9,59.1,26.1z"/>
			</g>
			<g>
				<path class="st0" d="M59.1,60.3c-1.1-2.8-2.9-6.4-4.8-8.5l4.8,1.7l4.8-1.7C61.9,53.9,60.1,57.5,59.1,60.3z"/>
			</g>
		</g>
	</g>
	<path class="st2" d="M171.9,60.3H76.8c-2.2,0-4-1.8-4-4v-24c0-2.2,1.8-4,4-4h95.1c2.2,0,4,1.8,4,4v24
		C175.9,58.5,174.1,60.3,171.9,60.3z"/>
	<g>
		<path class="st3" d="M98.1,40.1c0,0,0,0.6,0,0.9c-0.2,6.8-0.5,9.3-1,10c-0.4,0.6-0.7,0.8-1.2,0.8c-0.4,0.1-1.1,0.1-1.8,0.1
			c0-0.6-0.2-1.4-0.5-2c0.6,0,1.1,0.1,1.4,0.1c0.2,0,0.4-0.1,0.6-0.3c0.4-0.5,0.6-2.4,0.8-7.7h-1.6c-0.2,4-0.8,7.7-2.7,10.3
			c-0.3-0.5-1-1.1-1.5-1.4c1.7-2.2,2.2-5.4,2.3-8.9h-1.9v-1.9h1.9c0-0.9,0-1.9,0-2.8h1.9c0,0.9,0,1.9,0,2.8L98.1,40.1z M104.8,39.1
			v12.7h-2v-1h-2.1v1.1h-1.9V39.1H104.8z M102.8,48.9v-8h-2.1v8H102.8z"/>
		<path class="st3" d="M117.2,38.2c0,3,0.4,8.9,6.3,12.3c-0.4,0.3-1.2,1.2-1.5,1.7c-3.3-2-5-5-5.9-7.9c-1.2,3.6-3.1,6.2-5.9,7.9
			c-0.4-0.4-1.2-1.2-1.7-1.6c3.3-1.7,5.2-4.8,6.1-9l1,0.2c-0.1-0.6-0.2-1.2-0.2-1.7h-3.6v-1.9H117.2z"/>
		<path class="st3" d="M140.9,39.4v3.9H139v-2.2h-10v2.2h-1.8v-3.9h2.2c-0.2-0.5-0.6-1-0.9-1.4l1.7-0.7c0.5,0.5,1,1.2,1.2,1.7
			l-0.9,0.4h2.5v-2.2h2v2.2h2.5l-0.9-0.3c0.4-0.5,0.9-1.2,1.2-1.7l2,0.6c-0.5,0.6-0.9,1.1-1.3,1.5H140.9z M139.9,49.8
			c0,0.9-0.2,1.3-0.8,1.6c-0.6,0.3-1.5,0.3-2.6,0.3c-0.1-0.5-0.4-1.2-0.6-1.7c0.7,0,1.6,0,1.8,0c0.2,0,0.3-0.1,0.3-0.2v-1.6h-2.9v4
			h-2v-4h-3v3.3h-1.9v-5h4.9v-1h-3.4v-3.7h8.5v3.7h-3.1v1h4.8V49.8z M131.5,44.2h4.8v-1h-4.8V44.2z"/>
		<path class="st3" d="M158.3,50c0,1-0.2,1.5-0.9,1.8c-0.7,0.3-1.6,0.4-3.1,0.3c-0.1-0.5-0.4-1.3-0.6-1.8c0.9,0,2,0,2.2,0
			c0.3,0,0.4-0.1,0.4-0.4v-2.4h-3.4V52h-1.9v-4.5h-3.3c-0.3,1.7-0.9,3.5-2,4.8c-0.3-0.4-1.1-1-1.5-1.2c1.7-1.9,1.9-4.8,1.9-7v-5.7
			h12.1V50z M151.1,45.7v-2h-3v0.3c0,0.5,0,1.1,0,1.7H151.1z M148.1,40.1V42h3v-1.9H148.1z M156.4,40.1h-3.4V42h3.4V40.1z
			 M156.4,45.7v-2h-3.4v2H156.4z"/>
	</g>
</g>
</svg>
