<svg width="381" height="230" viewBox="0 0 381 230" fill="none" xmlns="http://www.w3.org/2000/svg">
<rect width="381" height="230" fill="white"/>
<g filter="url(#filter0_d_2_6540)">
<rect x="10" y="7" width="361" height="216" rx="14" fill="white"/>
</g>
<path d="M35.76 37.578V38.73C35.76 39.702 35.976 39.954 36.93 39.954H38.028C38.73 39.954 39.018 39.648 39.108 38.532C38.82 38.442 38.424 38.316 38.226 38.154C38.19 38.964 38.136 39.054 37.866 39.054H37.074C36.786 39.054 36.768 39.018 36.768 38.73V37.578H38.928V36.57H35.688V35.22H38.352V34.23H35.688V33.024H34.464V34.23H31.854V35.22H34.464V36.57H31.17V37.578H33.258C33.06 38.694 32.466 39.306 30.846 39.666C31.062 39.846 31.35 40.242 31.458 40.494C33.384 39.99 34.086 39.09 34.338 37.578H35.76ZM32.196 49.386C33.096 48.594 33.924 47.28 34.392 46.074L33.168 45.732C32.682 46.92 31.836 48.162 30.954 48.864L32.196 49.386ZM36.174 46.182C36.39 47.172 36.516 48.432 36.534 49.206L37.83 49.044C37.812 48.288 37.65 47.046 37.416 46.074L36.174 46.182ZM39.846 46.164C40.278 47.136 40.692 48.396 40.836 49.188L42.15 48.918C42.006 48.144 41.538 46.884 41.106 45.93L39.846 46.164ZM43.554 46.092C44.4 47.118 45.354 48.504 45.768 49.386L47.1 48.918C46.632 48.018 45.642 46.668 44.796 45.678L43.554 46.092ZM45.696 43.896C45.606 43.896 45.516 43.896 45.462 43.842C45.408 43.752 45.39 43.464 45.39 43.014V35.49H42.492C42.528 34.68 42.528 33.834 42.546 32.934H41.322C41.322 33.834 41.304 34.68 41.286 35.49H39.288V36.696H41.232C41.196 37.524 41.124 38.298 41.034 39.018C40.584 38.712 40.134 38.442 39.72 38.19L39.126 39.144C39.666 39.468 40.242 39.864 40.8 40.278C40.476 41.754 39.9 42.978 38.928 43.932L38.91 43.194C37.83 43.302 36.732 43.428 35.688 43.518V42.006H38.496V40.98H35.688V39.684H34.464V40.98H31.602V42.006H34.464V43.644C33.15 43.77 31.944 43.878 30.99 43.932L31.116 45.084C33.06 44.886 35.814 44.598 38.514 44.31L38.334 44.436C38.604 44.634 39.018 45.03 39.198 45.318C40.566 44.256 41.376 42.834 41.844 41.052C42.438 41.52 42.96 41.988 43.32 42.366L43.95 41.268C43.518 40.836 42.852 40.296 42.114 39.774C42.276 38.82 42.384 37.794 42.438 36.696H44.166V42.942C44.166 44.148 44.256 44.436 44.49 44.67C44.724 44.886 45.066 44.994 45.39 44.994H46.092C46.398 44.994 46.668 44.922 46.866 44.778C47.082 44.634 47.226 44.382 47.298 43.968C47.37 43.608 47.424 42.474 47.442 41.538C47.136 41.448 46.758 41.268 46.524 41.052C46.524 42.078 46.506 42.87 46.488 43.212C46.452 43.554 46.416 43.734 46.344 43.806C46.272 43.878 46.164 43.896 46.038 43.896H45.696ZM54.84 34.914V36.48H51.024V34.914H54.84ZM51.024 39.234V37.506H54.84V39.234H51.024ZM56.1 33.78H49.71V49.368H51.024V40.35H56.1V33.78ZM59.052 39.252V37.506H63.048V39.252H59.052ZM63.048 34.914V36.48H59.052V34.914H63.048ZM64.398 33.78H57.774V40.368H63.048V47.532C63.048 47.892 62.922 47.982 62.598 48C62.22 48.018 60.996 48.036 59.772 47.964C59.97 48.342 60.186 48.972 60.258 49.35C61.878 49.35 62.94 49.314 63.57 49.098C64.164 48.882 64.398 48.45 64.398 47.532V33.78ZM83.028 40.836V39.522H75.36V36.804H81.084V35.526H75.36V32.934H73.956V39.522H67.008V40.836H73.956V49.368H75.36V43.5C77.34 44.076 79.752 44.994 81.03 45.624L81.714 44.418C80.292 43.752 77.574 42.852 75.612 42.33L75.36 42.726V40.836H83.028ZM88.662 38.928H100.2V37.578H95.16V32.97H93.756V37.578H88.662V33.42H87.294V39.378C87.294 42.51 87.042 45.822 84.774 48.36C85.08 48.594 85.584 49.08 85.8 49.404C87.456 47.586 88.158 45.408 88.446 43.158H96.006V49.368H97.428V41.79H88.59C88.644 40.98 88.662 40.17 88.662 39.36V38.928ZM108.3 40.818L106.572 41.322V37.776H108.318V36.552H106.572V32.952H105.276V36.552H102.864V37.776H105.276V41.7C104.25 42.006 103.296 42.276 102.558 42.456L102.864 43.752L105.276 43.014V47.748C105.276 48.018 105.204 48.09 104.97 48.09C104.736 48.108 103.998 48.108 103.188 48.072C103.368 48.432 103.53 49.026 103.584 49.35C104.772 49.368 105.492 49.332 105.96 49.116C106.41 48.882 106.572 48.504 106.572 47.748V42.618L108.462 42.024L108.3 40.818ZM111.09 44.706H114.024V47.208H111.09V44.706ZM114.024 39.936H111.09V37.524H114.024V39.936ZM114.024 43.536H111.09V41.088H114.024V43.536ZM119.226 47.208H115.248V44.706H118.488V43.536H115.248V41.088H118.488V39.936H115.248V37.524H118.92V36.318H115.338C115.77 35.4 116.256 34.302 116.652 33.312L115.248 32.988C114.978 33.96 114.492 35.292 114.024 36.318H111.27C111.72 35.328 112.098 34.302 112.422 33.24L111.144 32.916C110.406 35.508 109.146 37.974 107.58 39.558C107.85 39.828 108.3 40.404 108.48 40.674C108.948 40.17 109.398 39.594 109.812 38.964V49.35H111.09V48.432H119.226V47.208ZM123.546 49.368C124.41 48.702 124.986 47.604 125.346 46.614L124.356 46.218C124.032 47.136 123.402 48.18 122.61 48.756L123.546 49.368ZM126.48 46.47C126.714 47.316 126.876 48.414 126.858 49.134L127.956 48.954C127.938 48.27 127.758 47.172 127.506 46.326L126.48 46.47ZM128.82 46.416C129.27 47.136 129.684 48.126 129.846 48.792L130.872 48.414C130.692 47.784 130.26 46.812 129.792 46.11L128.82 46.416ZM131.25 46.2C131.772 46.722 132.33 47.442 132.582 47.946L133.5 47.442C133.23 46.974 132.672 46.29 132.114 45.786L131.25 46.2ZM130.386 38.802H127.47V37.812H130.386V38.802ZM134.616 39.648V40.998H131.556V39.648H134.616ZM127.47 39.648H130.386V40.998H127.47V39.648ZM126.318 40.998H123.402V39.648H126.318V40.998ZM126.318 37.812V38.802H123.402V37.812H126.318ZM129.54 35.67H128.298V36.84H122.16V41.016C122.16 43.248 122.016 46.38 120.612 48.63C120.936 48.756 121.476 49.116 121.692 49.296C123.024 47.208 123.33 44.202 123.384 41.862H125.238C124.95 43.212 124.572 44.814 124.23 45.84L125.454 46.02L125.562 45.66H135.192C135.048 47.334 134.886 48.018 134.688 48.252C134.562 48.36 134.418 48.378 134.166 48.378C133.914 48.378 133.338 48.378 132.708 48.306C132.87 48.594 132.96 49.044 132.978 49.332C133.698 49.386 134.364 49.386 134.724 49.35C135.138 49.314 135.444 49.224 135.696 48.972C136.074 48.558 136.272 47.586 136.47 45.192C136.488 45.03 136.506 44.706 136.506 44.706H125.832C125.904 44.382 125.994 44.058 126.066 43.716H136.65V42.762H126.3L126.516 41.862H135.912V38.802H131.556V37.812H136.65V36.84H129.54V35.67ZM132.762 34.158V32.934H131.43V34.158H126.588V32.934H125.274V34.158H121.116V35.238H125.274V36.372H126.588V35.238H131.43V36.372H132.762V35.238H136.956V34.158H132.762ZM36.768 75.564H31.656V76.644H36.768V75.564ZM37.416 77.922H30.756V79.02H37.416V77.922ZM36.804 80.352H31.584V81.414H36.804V80.352ZM31.584 83.808H36.804V82.728H31.584V83.808ZM39.666 80.982H44.76V83.844H39.666V80.982ZM35.67 89.262H32.736V86.238H35.67V89.262ZM44.544 90.072C44.148 90.072 44.094 90 44.094 89.568V85.014H46.074V80.64C46.164 80.748 46.272 80.856 46.362 80.946C46.614 80.658 47.136 80.28 47.46 80.082C46.362 79.074 45.192 77.274 44.598 75.492H40.008V76.734H43.698C44.148 77.832 44.742 78.912 45.408 79.812H39.09C39.666 78.984 40.152 78.066 40.476 77.202L39.18 76.878C38.784 78.084 37.884 79.56 36.858 80.496C37.164 80.658 37.632 81 37.866 81.234C38.064 81.054 38.262 80.856 38.442 80.64V85.014H39.936C39.738 87.516 39.216 89.226 36.822 90.216V85.14H31.566V91.17H32.736V90.342H36.516C36.786 90.576 37.164 91.08 37.308 91.368C40.26 90.18 40.998 88.092 41.232 85.014H42.834V89.568C42.834 90.882 43.122 91.26 44.364 91.26H45.858C46.938 91.26 47.28 90.666 47.37 88.254C47.028 88.164 46.506 87.948 46.254 87.714C46.2 89.784 46.128 90.072 45.732 90.072H44.544ZM54.12 77.256V80.658H50.754V77.256H54.12ZM50.754 85.464V81.882H54.12V85.464H50.754ZM55.362 86.706V76.05H49.494V88.362H50.754V86.706H55.362ZM58.206 84.42C58.296 83.61 58.314 82.818 58.314 82.08V81.27H63.336V84.42H58.206ZM63.336 76.968V80.046H58.314V76.968H63.336ZM64.632 75.708H57.018V82.08C57.018 84.87 56.712 88.254 53.688 90.576C53.958 90.756 54.462 91.206 54.678 91.494C56.712 89.928 57.63 87.786 58.026 85.644H63.336V89.604C63.336 89.928 63.21 90.036 62.868 90.054C62.58 90.054 61.446 90.072 60.276 90.036C60.492 90.378 60.708 90.972 60.78 91.332C62.31 91.332 63.3 91.296 63.876 91.098C64.452 90.864 64.632 90.45 64.632 89.604V75.708ZM78.798 79.29C77.88 81.828 76.62 83.898 74.964 85.572C73.254 83.826 71.976 81.702 71.094 79.29H78.798ZM83.118 79.29V77.976H75.648V74.934H74.298V77.976H66.972V79.29H69.618C70.644 82.152 72.048 84.582 73.902 86.544C71.976 88.128 69.618 89.28 66.756 90.108C67.044 90.414 67.476 91.062 67.602 91.386C70.5 90.45 72.93 89.208 74.91 87.516C76.89 89.298 79.338 90.594 82.344 91.368C82.542 90.99 82.974 90.378 83.298 90.072C80.382 89.388 77.952 88.164 75.99 86.508C77.862 84.618 79.284 82.242 80.346 79.29H83.118ZM86.808 78.138H99.12V81.09H100.488V76.896H93.666V74.916H92.28V76.896H85.494V81.09H86.808V78.138ZM100.722 84.582H93.72V84.024C95.25 83.178 96.852 81.918 97.932 80.694L97.05 80.028L96.762 80.1H88.23V81.342H95.52C94.8 82.026 93.882 82.728 92.982 83.25H92.316V84.582H85.332V85.86H92.316V89.694C92.316 89.946 92.226 90.018 91.902 90.036C91.596 90.054 90.426 90.054 89.202 90.018C89.436 90.378 89.706 90.954 89.814 91.332C91.308 91.332 92.262 91.314 92.874 91.116C93.504 90.9 93.72 90.504 93.72 89.712V85.86H100.722V84.582ZM36.768 96.564H31.656V97.644H36.768V96.564ZM37.416 98.922H30.756V100.02H37.416V98.922ZM36.804 101.352H31.584V102.414H36.804V101.352ZM31.584 104.808H36.804V103.728H31.584V104.808ZM39.666 101.982H44.76V104.844H39.666V101.982ZM35.67 110.262H32.736V107.238H35.67V110.262ZM44.544 111.072C44.148 111.072 44.094 111 44.094 110.568V106.014H46.074V101.64C46.164 101.748 46.272 101.856 46.362 101.946C46.614 101.658 47.136 101.28 47.46 101.082C46.362 100.074 45.192 98.274 44.598 96.492H40.008V97.734H43.698C44.148 98.832 44.742 99.912 45.408 100.812H39.09C39.666 99.984 40.152 99.066 40.476 98.202L39.18 97.878C38.784 99.084 37.884 100.56 36.858 101.496C37.164 101.658 37.632 102 37.866 102.234C38.064 102.054 38.262 101.856 38.442 101.64V106.014H39.936C39.738 108.516 39.216 110.226 36.822 111.216V106.14H31.566V112.17H32.736V111.342H36.516C36.786 111.576 37.164 112.08 37.308 112.368C40.26 111.18 40.998 109.092 41.232 106.014H42.834V110.568C42.834 111.882 43.122 112.26 44.364 112.26H45.858C46.938 112.26 47.28 111.666 47.37 109.254C47.028 109.164 46.506 108.948 46.254 108.714C46.2 110.784 46.128 111.072 45.732 111.072H44.544ZM54.12 98.256V101.658H50.754V98.256H54.12ZM50.754 106.464V102.882H54.12V106.464H50.754ZM55.362 107.706V97.05H49.494V109.362H50.754V107.706H55.362ZM58.206 105.42C58.296 104.61 58.314 103.818 58.314 103.08V102.27H63.336V105.42H58.206ZM63.336 97.968V101.046H58.314V97.968H63.336ZM64.632 96.708H57.018V103.08C57.018 105.87 56.712 109.254 53.688 111.576C53.958 111.756 54.462 112.206 54.678 112.494C56.712 110.928 57.63 108.786 58.026 106.644H63.336V110.604C63.336 110.928 63.21 111.036 62.868 111.054C62.58 111.054 61.446 111.072 60.276 111.036C60.492 111.378 60.708 111.972 60.78 112.332C62.31 112.332 63.3 112.296 63.876 112.098C64.452 111.864 64.632 111.45 64.632 110.604V96.708ZM78.798 100.29C77.88 102.828 76.62 104.898 74.964 106.572C73.254 104.826 71.976 102.702 71.094 100.29H78.798ZM83.118 100.29V98.976H75.648V95.934H74.298V98.976H66.972V100.29H69.618C70.644 103.152 72.048 105.582 73.902 107.544C71.976 109.128 69.618 110.28 66.756 111.108C67.044 111.414 67.476 112.062 67.602 112.386C70.5 111.45 72.93 110.208 74.91 108.516C76.89 110.298 79.338 111.594 82.344 112.368C82.542 111.99 82.974 111.378 83.298 111.072C80.382 110.388 77.952 109.164 75.99 107.508C77.862 105.618 79.284 103.242 80.346 100.29H83.118ZM86.808 99.138H99.12V102.09H100.488V97.896H93.666V95.916H92.28V97.896H85.494V102.09H86.808V99.138ZM100.722 105.582H93.72V105.024C95.25 104.178 96.852 102.918 97.932 101.694L97.05 101.028L96.762 101.1H88.23V102.342H95.52C94.8 103.026 93.882 103.728 92.982 104.25H92.316V105.582H85.332V106.86H92.316V110.694C92.316 110.946 92.226 111.018 91.902 111.036C91.596 111.054 90.426 111.054 89.202 111.018C89.436 111.378 89.706 111.954 89.814 112.332C91.308 112.332 92.262 112.314 92.874 112.116C93.504 111.9 93.72 111.504 93.72 110.712V106.86H100.722V105.582ZM36.768 117.564H31.656V118.644H36.768V117.564ZM37.416 119.922H30.756V121.02H37.416V119.922ZM36.804 122.352H31.584V123.414H36.804V122.352ZM31.584 125.808H36.804V124.728H31.584V125.808ZM39.666 122.982H44.76V125.844H39.666V122.982ZM35.67 131.262H32.736V128.238H35.67V131.262ZM44.544 132.072C44.148 132.072 44.094 132 44.094 131.568V127.014H46.074V122.64C46.164 122.748 46.272 122.856 46.362 122.946C46.614 122.658 47.136 122.28 47.46 122.082C46.362 121.074 45.192 119.274 44.598 117.492H40.008V118.734H43.698C44.148 119.832 44.742 120.912 45.408 121.812H39.09C39.666 120.984 40.152 120.066 40.476 119.202L39.18 118.878C38.784 120.084 37.884 121.56 36.858 122.496C37.164 122.658 37.632 123 37.866 123.234C38.064 123.054 38.262 122.856 38.442 122.64V127.014H39.936C39.738 129.516 39.216 131.226 36.822 132.216V127.14H31.566V133.17H32.736V132.342H36.516C36.786 132.576 37.164 133.08 37.308 133.368C40.26 132.18 40.998 130.092 41.232 127.014H42.834V131.568C42.834 132.882 43.122 133.26 44.364 133.26H45.858C46.938 133.26 47.28 132.666 47.37 130.254C47.028 130.164 46.506 129.948 46.254 129.714C46.2 131.784 46.128 132.072 45.732 132.072H44.544ZM54.12 119.256V122.658H50.754V119.256H54.12ZM50.754 127.464V123.882H54.12V127.464H50.754ZM55.362 128.706V118.05H49.494V130.362H50.754V128.706H55.362ZM58.206 126.42C58.296 125.61 58.314 124.818 58.314 124.08V123.27H63.336V126.42H58.206ZM63.336 118.968V122.046H58.314V118.968H63.336ZM64.632 117.708H57.018V124.08C57.018 126.87 56.712 130.254 53.688 132.576C53.958 132.756 54.462 133.206 54.678 133.494C56.712 131.928 57.63 129.786 58.026 127.644H63.336V131.604C63.336 131.928 63.21 132.036 62.868 132.054C62.58 132.054 61.446 132.072 60.276 132.036C60.492 132.378 60.708 132.972 60.78 133.332C62.31 133.332 63.3 133.296 63.876 133.098C64.452 132.864 64.632 132.45 64.632 131.604V117.708ZM78.798 121.29C77.88 123.828 76.62 125.898 74.964 127.572C73.254 125.826 71.976 123.702 71.094 121.29H78.798ZM83.118 121.29V119.976H75.648V116.934H74.298V119.976H66.972V121.29H69.618C70.644 124.152 72.048 126.582 73.902 128.544C71.976 130.128 69.618 131.28 66.756 132.108C67.044 132.414 67.476 133.062 67.602 133.386C70.5 132.45 72.93 131.208 74.91 129.516C76.89 131.298 79.338 132.594 82.344 133.368C82.542 132.99 82.974 132.378 83.298 132.072C80.382 131.388 77.952 130.164 75.99 128.508C77.862 126.618 79.284 124.242 80.346 121.29H83.118ZM86.808 120.138H99.12V123.09H100.488V118.896H93.666V116.916H92.28V118.896H85.494V123.09H86.808V120.138ZM100.722 126.582H93.72V126.024C95.25 125.178 96.852 123.918 97.932 122.694L97.05 122.028L96.762 122.1H88.23V123.342H95.52C94.8 124.026 93.882 124.728 92.982 125.25H92.316V126.582H85.332V127.86H92.316V131.694C92.316 131.946 92.226 132.018 91.902 132.036C91.596 132.054 90.426 132.054 89.202 132.018C89.436 132.378 89.706 132.954 89.814 133.332C91.308 133.332 92.262 133.314 92.874 133.116C93.504 132.9 93.72 132.504 93.72 131.712V127.86H100.722V126.582ZM36.768 138.564H31.656V139.644H36.768V138.564ZM37.416 140.922H30.756V142.02H37.416V140.922ZM36.804 143.352H31.584V144.414H36.804V143.352ZM31.584 146.808H36.804V145.728H31.584V146.808ZM39.666 143.982H44.76V146.844H39.666V143.982ZM35.67 152.262H32.736V149.238H35.67V152.262ZM44.544 153.072C44.148 153.072 44.094 153 44.094 152.568V148.014H46.074V143.64C46.164 143.748 46.272 143.856 46.362 143.946C46.614 143.658 47.136 143.28 47.46 143.082C46.362 142.074 45.192 140.274 44.598 138.492H40.008V139.734H43.698C44.148 140.832 44.742 141.912 45.408 142.812H39.09C39.666 141.984 40.152 141.066 40.476 140.202L39.18 139.878C38.784 141.084 37.884 142.56 36.858 143.496C37.164 143.658 37.632 144 37.866 144.234C38.064 144.054 38.262 143.856 38.442 143.64V148.014H39.936C39.738 150.516 39.216 152.226 36.822 153.216V148.14H31.566V154.17H32.736V153.342H36.516C36.786 153.576 37.164 154.08 37.308 154.368C40.26 153.18 40.998 151.092 41.232 148.014H42.834V152.568C42.834 153.882 43.122 154.26 44.364 154.26H45.858C46.938 154.26 47.28 153.666 47.37 151.254C47.028 151.164 46.506 150.948 46.254 150.714C46.2 152.784 46.128 153.072 45.732 153.072H44.544ZM54.12 140.256V143.658H50.754V140.256H54.12ZM50.754 148.464V144.882H54.12V148.464H50.754ZM55.362 149.706V139.05H49.494V151.362H50.754V149.706H55.362ZM58.206 147.42C58.296 146.61 58.314 145.818 58.314 145.08V144.27H63.336V147.42H58.206ZM63.336 139.968V143.046H58.314V139.968H63.336ZM64.632 138.708H57.018V145.08C57.018 147.87 56.712 151.254 53.688 153.576C53.958 153.756 54.462 154.206 54.678 154.494C56.712 152.928 57.63 150.786 58.026 148.644H63.336V152.604C63.336 152.928 63.21 153.036 62.868 153.054C62.58 153.054 61.446 153.072 60.276 153.036C60.492 153.378 60.708 153.972 60.78 154.332C62.31 154.332 63.3 154.296 63.876 154.098C64.452 153.864 64.632 153.45 64.632 152.604V138.708ZM78.798 142.29C77.88 144.828 76.62 146.898 74.964 148.572C73.254 146.826 71.976 144.702 71.094 142.29H78.798ZM83.118 142.29V140.976H75.648V137.934H74.298V140.976H66.972V142.29H69.618C70.644 145.152 72.048 147.582 73.902 149.544C71.976 151.128 69.618 152.28 66.756 153.108C67.044 153.414 67.476 154.062 67.602 154.386C70.5 153.45 72.93 152.208 74.91 150.516C76.89 152.298 79.338 153.594 82.344 154.368C82.542 153.99 82.974 153.378 83.298 153.072C80.382 152.388 77.952 151.164 75.99 149.508C77.862 147.618 79.284 145.242 80.346 142.29H83.118ZM86.808 141.138H99.12V144.09H100.488V139.896H93.666V137.916H92.28V139.896H85.494V144.09H86.808V141.138ZM100.722 147.582H93.72V147.024C95.25 146.178 96.852 144.918 97.932 143.694L97.05 143.028L96.762 143.1H88.23V144.342H95.52C94.8 145.026 93.882 145.728 92.982 146.25H92.316V147.582H85.332V148.86H92.316V152.694C92.316 152.946 92.226 153.018 91.902 153.036C91.596 153.054 90.426 153.054 89.202 153.018C89.436 153.378 89.706 153.954 89.814 154.332C91.308 154.332 92.262 154.314 92.874 154.116C93.504 153.9 93.72 153.504 93.72 152.712V148.86H100.722V147.582Z" fill="black"/>
<circle cx="166" cy="193" r="3" fill="#00A19B"/>
<circle cx="180" cy="193" r="3" fill="#D9D9D9"/>
<circle cx="194" cy="193" r="3" fill="#D9D9D9"/>
<circle cx="208" cy="193" r="3" fill="#D9D9D9"/>
<defs>
<filter id="filter0_d_2_6540" x="6" y="3" width="369" height="224" filterUnits="userSpaceOnUse" color-interpolation-filters="sRGB">
<feFlood flood-opacity="0" result="BackgroundImageFix"/>
<feColorMatrix in="SourceAlpha" type="matrix" values="0 0 0 0 0 0 0 0 0 0 0 0 0 0 0 0 0 0 127 0" result="hardAlpha"/>
<feOffset/>
<feGaussianBlur stdDeviation="2"/>
<feComposite in2="hardAlpha" operator="out"/>
<feColorMatrix type="matrix" values="0 0 0 0 0 0 0 0 0 0 0 0 0 0 0 0 0 0 0.25 0"/>
<feBlend mode="normal" in2="BackgroundImageFix" result="effect1_dropShadow_2_6540"/>
<feBlend mode="normal" in="SourceGraphic" in2="effect1_dropShadow_2_6540" result="shape"/>
</filter>
</defs>
</svg>
