<svg width="280" height="110" viewBox="0 0 280 110" fill="none" xmlns="http://www.w3.org/2000/svg">
<rect width="280" height="110" fill="white"/>
<circle cx="112.5" cy="53.5" r="5.25" fill="#00A19B"/>
<circle cx="137" cy="53.5" r="5.25" fill="#D9D9D9"/>
<circle cx="161.5" cy="53.5" r="5.25" fill="#D9D9D9"/>
<circle cx="186" cy="53.5" r="5.25" fill="#D9D9D9"/>
<path d="M114.25 67.5L119.25 70.3868V64.6132L114.25 67.5ZM137 67.5L132 64.6132V70.3868L137 67.5ZM118.75 68H132.5V67H118.75V68Z" fill="#E73525"/>
<path d="M127.883 75.6953C127.883 76.1211 127.77 76.5 127.543 76.832C127.32 77.1641 127.018 77.4238 126.635 77.6113C127.08 77.8027 127.432 78.082 127.689 78.4492C127.951 78.8164 128.082 79.2324 128.082 79.6973C128.082 80.4355 127.832 81.0234 127.332 81.4609C126.836 81.8984 126.182 82.1172 125.369 82.1172C124.549 82.1172 123.891 81.8984 123.395 81.4609C122.902 81.0195 122.656 80.4316 122.656 79.6973C122.656 79.2363 122.781 78.8203 123.031 78.4492C123.285 78.0781 123.635 77.7969 124.08 77.6055C123.701 77.418 123.402 77.1582 123.184 76.8262C122.965 76.4941 122.855 76.1172 122.855 75.6953C122.855 74.9766 123.086 74.4062 123.547 73.9844C124.008 73.5625 124.615 73.3516 125.369 73.3516C126.119 73.3516 126.725 73.5625 127.186 73.9844C127.65 74.4062 127.883 74.9766 127.883 75.6953ZM126.998 79.6738C126.998 79.1973 126.846 78.8086 126.541 78.5078C126.24 78.207 125.846 78.0566 125.357 78.0566C124.869 78.0566 124.477 78.2051 124.18 78.502C123.887 78.7988 123.74 79.1895 123.74 79.6738C123.74 80.1582 123.883 80.5391 124.168 80.8164C124.457 81.0938 124.857 81.2324 125.369 81.2324C125.877 81.2324 126.275 81.0938 126.564 80.8164C126.854 80.5352 126.998 80.1543 126.998 79.6738ZM125.369 74.2422C124.943 74.2422 124.598 74.375 124.332 74.6406C124.07 74.9023 123.939 75.2598 123.939 75.7129C123.939 76.1465 124.068 76.498 124.326 76.7676C124.588 77.0332 124.936 77.166 125.369 77.166C125.803 77.166 126.148 77.0332 126.406 76.7676C126.668 76.498 126.799 76.1465 126.799 75.7129C126.799 75.2793 126.664 74.9258 126.395 74.6523C126.125 74.3789 125.783 74.2422 125.369 74.2422Z" fill="black"/>
<line y1="-0.5" x2="5.24816" y2="-0.5" transform="matrix(-0.999802 0.0199063 0.0338497 -0.999427 107.253 48.3414)" stroke="#E73525"/>
<line y1="-0.5" x2="5.24859" y2="-0.5" transform="matrix(-0.999771 0.0213988 0.0338776 -0.999426 107.243 57.1538)" stroke="#E73525"/>
<path d="M94.4236 47.6346L94.3915 48.554L94.1924 48.547C93.3486 48.5332 92.6684 48.7596 92.1518 49.2262C91.6352 49.6928 91.3225 50.364 91.2138 51.2396C91.6807 50.74 92.3026 50.5037 93.0795 50.5309C93.8212 50.5568 94.4035 50.839 94.8264 51.3775C95.2532 51.9162 95.4521 52.5993 95.4232 53.4269C95.3925 54.3053 95.1279 54.9996 94.6293 55.5099C94.1346 56.0202 93.4852 56.2614 92.681 56.2333C91.8651 56.2048 91.2143 55.8694 90.7286 55.2271C90.2431 54.5808 90.0175 53.7639 90.052 52.7762L90.0665 52.3604C90.1213 50.7911 90.497 49.6042 91.1934 48.7999C91.8939 47.9918 92.9062 47.6011 94.2303 47.6278L94.4236 47.6346ZM92.8665 51.4263C92.4956 51.4134 92.1501 51.5127 91.83 51.7243C91.51 51.9359 91.2835 52.2075 91.1508 52.539L91.1369 52.9372C91.1124 53.6399 91.2507 54.2115 91.5519 54.6519C91.8531 55.0924 92.2399 55.3209 92.7123 55.3374C93.2003 55.3544 93.5891 55.1882 93.8788 54.8387C94.1725 54.4894 94.3294 54.0239 94.3497 53.4422C94.3702 52.8566 94.2442 52.3793 93.9718 52.0102C93.7034 51.6373 93.3349 51.4427 92.8665 51.4263Z" fill="#4D4D4D"/>
<line y1="-0.5" x2="5.24816" y2="-0.5" transform="matrix(0.0199063 0.999802 -0.999427 -0.0338497 107.342 43.0005)" stroke="#E73525"/>
<line y1="-0.5" x2="5.24859" y2="-0.5" transform="matrix(0.0213988 0.999771 -0.999426 -0.0338776 116.155 43.0107)" stroke="#E73525"/>
<path d="M113.963 28.4629V29.3828H113.764C112.92 29.3984 112.248 29.6484 111.748 30.1328C111.248 30.6172 110.959 31.2988 110.881 32.1777C111.33 31.6621 111.943 31.4043 112.721 31.4043C113.463 31.4043 114.055 31.666 114.496 32.1895C114.941 32.7129 115.164 33.3887 115.164 34.2168C115.164 35.0957 114.924 35.7988 114.443 36.3262C113.967 36.8535 113.326 37.1172 112.522 37.1172C111.705 37.1172 111.043 36.8047 110.535 36.1797C110.027 35.5508 109.773 34.7422 109.773 33.7539V33.3379C109.773 31.7676 110.107 30.5684 110.775 29.7402C111.447 28.9082 112.445 28.4824 113.77 28.4629H113.963ZM112.539 32.3066C112.168 32.3066 111.826 32.418 111.514 32.6406C111.201 32.8633 110.984 33.1426 110.863 33.4785V33.877C110.863 34.5801 111.022 35.1465 111.338 35.5762C111.654 36.0059 112.049 36.2207 112.522 36.2207C113.01 36.2207 113.393 36.041 113.67 35.6816C113.951 35.3223 114.092 34.8516 114.092 34.2695C114.092 33.6836 113.949 33.2109 113.664 32.8516C113.383 32.4883 113.008 32.3066 112.539 32.3066Z" fill="#4D4D4D"/>
</svg>
