<svg width="457" height="178" viewBox="0 0 457 178" fill="none" xmlns="http://www.w3.org/2000/svg">
<rect width="457" height="178" fill="white"/>
<rect x="5" y="3" width="406" height="132" fill="#F5F5F5"/>
<rect x="20" y="35.8184" width="378" height="61.3636" fill="white"/>
<path d="M171.444 59.3618C169.923 61.368 168.085 63.1172 166.002 64.5417L164.577 61.6212C166.21 60.5172 167.657 59.1625 168.862 57.6077C169.713 58.1863 170.564 58.7832 171.444 59.3618Z" fill="#009D95"/>
<path d="M183.634 58.1218H172.464V61.1067H183.634V58.1218Z" fill="#009D95"/>
<path d="M184.452 64.3029V67.1959H181.481L181.417 75.4617C181.345 75.7906 181.198 76.0988 180.988 76.363C180.778 76.6272 180.51 76.8404 180.204 76.9863C178.835 77.5557 177.104 77.3445 175.577 77.3445L174.392 74.3321L178.039 74.2678C178.193 74.1833 178.311 74.0463 178.372 73.8821V67.2511L171.44 67.1684C171.44 66.4428 171.44 65.6897 171.375 65.0285C171.076 65.5518 170.742 66.0549 170.376 66.5347V77.5006H167.331C167.331 75.1219 167.331 72.7065 167.331 70.3278C166.813 70.7227 166.331 71.2003 165.85 71.6227L164.48 68.3715C166.447 66.823 168.088 64.9072 169.311 62.7324L171.44 64.2754L184.452 64.3029Z" fill="#009D95"/>
<path d="M156.788 73.5697C156.547 73.634 156.668 73.3585 156.455 73.3585C156.39 73.1472 156.186 73.0921 156.038 72.936C155.89 72.7798 155.724 72.7339 155.761 72.4308C155.844 72.4308 155.761 72.1278 155.974 72.2472V72.1553C156.215 72.0215 156.447 71.8711 156.668 71.7053C156.732 71.6135 156.881 71.6135 156.918 71.4941C156.955 71.3747 157.001 71.4941 157.066 71.4941V71.4298C157.066 71.3655 157.186 71.4298 157.214 71.4298V71.3471C157.214 71.2828 157.306 71.3471 157.334 71.3471V71.2828C157.334 71.2185 157.454 71.2828 157.491 71.2828V71.191C157.547 71.1267 157.612 71.191 157.667 71.191V71.0991C157.667 71.0991 157.732 71.0991 157.76 71.0991V71.044C157.76 70.9797 157.852 71.044 157.889 71.044V70.5573C157.639 70.5022 157.76 70.1348 157.491 70.0797C157.399 70.0797 157.491 69.896 157.371 69.9603C157.241 69.8409 157.278 69.6572 157.121 69.5929C156.964 69.5286 157.029 69.3541 156.945 69.299C156.862 69.2439 156.825 68.996 156.668 68.9592C156.596 68.7041 156.436 68.4826 156.214 68.3347C156.159 68.3898 156.122 68.4816 156.001 68.4541C155.881 68.4265 156.001 68.5367 156.001 68.5367C155.631 68.6929 155.391 69.1153 154.993 69.2623C154.872 69.446 154.659 69.5011 154.484 69.6297C154.308 69.7582 154.234 69.4735 154.141 69.3817C154.086 68.996 153.752 68.4633 154.141 68.1786H157.177V57.929H147.552L147.496 61.0057C146.151 60.1646 145.06 58.9776 144.34 57.5708H141.629C140.69 59.283 139.412 60.7888 137.871 61.9976C138.205 63.0538 138.565 64.1651 138.991 65.2212L139.778 64.7437C139.935 64.8906 139.843 65.1937 139.87 65.4049H141.416C141.416 65.6529 141.416 65.9192 141.416 66.158H138.38V68.8123L141.444 68.8766V73.7258L140.898 73.9646L138.316 74.1758L138.473 77.1883C141.083 76.8301 143.665 76.3433 146.182 75.8015C146.673 76.0127 146.395 76.7199 146.487 77.124C146.763 77.2206 147.063 77.2206 147.339 77.124C147.792 77.1883 147.913 76.8576 148.366 76.977C148.496 76.7382 148.94 76.977 149.097 76.8025C149.66 76.7266 150.216 76.613 150.763 76.4627C151.117 76.4223 151.464 76.3422 151.8 76.2239C152.133 76.1321 152.623 76.2239 152.864 75.9576V74.0289L153.012 73.9371C153.099 73.978 153.173 74.0414 153.227 74.1206C153.281 74.1998 153.312 74.2918 153.317 74.3871C153.503 74.4514 153.53 74.6902 153.715 74.782C153.901 74.8738 153.715 74.9932 153.836 74.929C153.836 75.232 154.197 75.1402 154.197 75.4433C154.474 75.4984 154.474 75.8382 154.715 75.8933C154.807 76.1321 155.02 76.1964 155.168 76.3433C155.316 76.4903 155.511 76.527 155.511 76.7658C155.732 76.8744 155.936 77.0169 156.112 77.1883C156.325 77.1883 156.233 77.2526 156.446 77.1883C156.587 76.988 156.711 76.776 156.816 76.5546C156.936 76.4627 156.992 76.2882 157.112 76.2239C157.232 76.1596 157.269 76.0402 157.269 75.8933C157.417 75.8933 157.417 75.7096 157.482 75.627C157.645 75.4173 157.787 75.1928 157.908 74.9565C158.028 74.9565 158.028 74.8096 158.121 74.6902V74.5065C157.667 74.2667 157.255 73.9566 156.899 73.5881L156.788 73.5697ZM143.017 61.1159C143.549 61.5484 143.992 62.0785 144.322 62.6772H141.953C142.257 62.1134 142.614 61.5784 143.017 61.0792V61.1159ZM147.543 74.0656H146.876C146.876 73.6707 146.876 73.285 146.876 72.9176C146.756 72.9176 146.728 72.7982 146.7 72.7431C146.996 71.742 147.117 70.7226 147.33 69.7307C146.607 69.4952 145.868 69.3141 145.118 69.1888L144.479 72.2563L144.544 72.4125L146.238 72.7982C145.601 73.0142 144.938 73.147 144.266 73.1931V68.9041H147.089V66.1489L144.313 66.0937V65.4233C144.942 65.3682 145.618 65.4233 146.284 65.4233C146.334 65.0458 146.356 64.6651 146.349 64.2845C146.497 64.1283 146.645 64.4039 146.802 64.4039C147.126 63.9814 147.283 63.4303 147.561 63.017L147.543 74.0656ZM150.643 61.0149L150.791 60.8955H154.067C154.215 61.1343 154.132 61.5292 154.16 61.8598L154.067 61.9241H150.791C150.486 61.8047 150.698 61.318 150.643 61.0057V61.0149ZM150.486 73.5421V68.3622C150.671 68.2061 151.309 68.0867 151.244 68.5643C151.456 70.112 151.873 71.6252 152.485 73.0646C151.84 73.3101 151.17 73.4797 150.486 73.5697V73.5421ZM150.726 65.5519C150.623 65.2291 150.623 64.8827 150.726 64.56H154.067C154.28 64.7712 154.16 65.1937 154.187 65.4784C153.045 65.5567 151.899 65.5751 150.754 65.5335" fill="#009D95"/>
<path d="M138.941 73.6341C139.432 73.5423 139.913 73.4229 140.394 73.331C140.58 73.2392 140.885 73.2667 140.95 73.0922C140.95 71.8524 140.672 70.6768 140.617 69.5288C140.311 69.3267 139.941 69.5288 139.608 69.5288C139.275 69.5288 138.784 69.74 138.368 69.8318L138.571 73.5974L138.673 73.6525C138.784 73.6525 138.914 73.7168 138.941 73.5974" fill="#009D95"/>
<path d="M71.944 61.2523C73.0005 63.9611 73.2051 66.9239 72.5311 69.7504C71.857 72.5769 70.3359 75.1344 68.1681 77.0859C66.2261 78.8037 63.8636 79.9853 61.3169 80.5123C58.7702 81.0394 56.1287 80.8935 53.6567 80.0891C50.9716 79.2175 48.6039 77.5818 46.8481 75.3854C45.0922 73.1891 44.0257 70.529 43.7812 67.7359C43.5366 64.9428 44.1248 62.14 45.4725 59.6761C46.8203 57.2121 48.8682 55.1956 51.3615 53.8774C53.7876 52.6187 56.5142 52.0424 59.2465 52.2108C61.9788 52.3791 64.6127 53.2857 66.8632 54.8326C69.1486 56.4486 70.9211 58.6792 71.9718 61.2615" fill="#009D95"/>
<path d="M57.6103 58.8564C58.1286 58.7095 58.7857 58.3145 59.304 58.7095C59.6649 59.2513 60.6644 59.4258 60.3868 60.1789C60.8968 60.8587 61.4872 61.4754 62.1452 62.0158C62.2932 62.0158 62.3488 61.9515 62.4136 61.8597L62.2377 61.7678C62.4413 61.5841 62.9596 61.8872 63.2927 61.7035C63.4166 61.6977 63.5403 61.7184 63.6553 61.7644C63.7703 61.8104 63.8739 61.8805 63.9591 61.9699C64.0622 62.2452 64.1924 62.5098 64.3478 62.7597L64.4681 62.6954C64.5828 62.9537 64.7126 63.2052 64.8568 63.4485C65.9489 63.8067 66.4671 65.0925 67.4296 65.6344C68.5894 66.5561 69.8727 67.3133 71.2426 67.8845C71.1778 68.059 71.3906 68.059 71.4832 68.1233C71.2996 68.0147 71.0838 67.9725 70.8724 68.0039C71.0575 68.2702 71.5109 68.1508 71.6035 68.4539H71.1222C71.1222 68.5458 71.2426 68.5458 71.2981 68.5733C71.0575 68.4815 70.8168 68.6652 70.6595 68.3621C69.6963 67.9143 68.7682 67.3954 67.8831 66.8099V66.8099C68.6352 67.4328 69.4584 67.9661 70.3356 68.3988C70.604 68.5458 70.9927 68.6376 71.15 68.9039C71.0575 68.9039 70.9001 68.9039 70.8724 69.0601L70.6595 68.9407C70.604 68.9407 70.6595 69.0233 70.6595 69.0601L70.8076 69.1795C69.6915 68.7108 68.6453 68.0927 67.698 67.3426C67.2445 67.0395 66.7725 66.8008 66.3376 66.4242C66.282 66.4242 66.1895 66.4242 66.1525 66.4885C66.6707 66.8742 67.2168 67.113 67.7258 67.4712C66.6755 66.9934 65.7317 66.3128 64.9493 65.469C64.6254 65.1384 64.1349 64.4496 63.5611 64.5506C63.3575 64.6792 63.0244 64.6425 62.7837 64.7619C62.5431 64.8813 62.4413 64.5506 62.2655 64.7068C62.1174 65.0374 61.6362 64.7619 61.5436 65.1292C61.2382 65.2486 60.6922 65.1292 60.6181 65.515V65.6619C60.0073 65.9374 59.1929 65.8456 58.7672 66.415C58.6376 66.5344 58.397 66.415 58.2767 66.5344C58.2767 66.4793 58.2767 66.415 58.1934 66.415C58.1101 66.415 57.9435 66.5069 57.8232 66.5344C57.7307 66.3875 57.9435 66.3507 57.9158 66.2681C57.6474 66.1487 57.5271 66.5069 57.3142 66.6263C57.3142 66.3875 57.6196 66.3507 57.7029 66.1487C57.5548 66.0568 57.4345 66.2038 57.3142 66.2313C57.3697 66.2313 57.4993 66.0017 57.3142 66.0017C57.4623 65.7538 57.7954 65.8456 57.888 65.5793H57.6103L58.3322 65.0098C58.2397 65.0098 58.0638 64.7619 57.9065 65.0098C57.9065 65.0098 57.9713 64.9547 57.9065 64.9272C57.8417 64.8996 57.6289 65.0098 57.4808 65.0098C57.4808 65.0098 57.4808 64.9272 57.4253 64.8904H57.3327C57.4253 64.8353 57.5456 64.6792 57.6566 64.5874L57.6103 64.6425C58.0638 64.3761 58.5358 64.073 58.9708 63.8618L59.0633 63.77C59.0329 63.735 58.9953 63.7069 58.953 63.6877C58.9106 63.6685 58.8646 63.6585 58.8181 63.6585C58.7715 63.6585 58.7255 63.6685 58.6832 63.6877C58.6409 63.7069 58.6032 63.735 58.5728 63.77C58.9708 63.77 58.5728 63.3199 58.9986 63.2648C59.0453 63.1115 59.1226 62.969 59.2259 62.846C59.3293 62.7229 59.4565 62.6217 59.6001 62.5485C59.2114 62.1811 59.0633 61.5198 58.6099 61.3178C58.6099 61.0423 58.3045 61.3178 58.2767 61.0423C57.7307 61.0423 57.0921 61.281 56.7312 60.8035C56.4259 60.7411 56.111 60.7411 55.8057 60.8035C55.6071 61.025 55.4447 61.276 55.3244 61.5474C55.1258 61.7707 54.9606 62.0213 54.8339 62.2913C54.5721 62.6967 54.1954 63.0162 53.7511 63.2097V63.2097C53.418 63.6598 52.6961 63.4853 52.2704 63.9628V63.8434C52.2388 63.8338 52.2055 63.8307 52.1726 63.8343C52.1398 63.838 52.108 63.8483 52.0794 63.8647C52.0507 63.8811 52.0258 63.9031 52.0061 63.9295C51.9864 63.9559 51.9724 63.986 51.965 64.0179V64.0822C51.7521 64.0179 51.604 64.2567 51.5115 64.3761C50.9932 64.918 50.151 64.918 49.605 65.368C49.5495 65.368 49.605 65.368 49.605 65.368C48.6055 65.5793 48.1243 66.2864 47.4579 67.0487C47.2483 67.3164 47.0058 67.5571 46.7361 67.7651C46.8008 68.0039 46.4306 68.0957 46.3103 68.2151C46.4306 68.0039 46.7083 67.8294 46.7361 67.5906C46.4954 67.71 46.4306 67.9763 46.1623 68.0957C46.0142 67.9763 46.3103 67.8845 46.2178 67.7651L45.8569 68.0406L46.19 67.5906C46.0142 67.5906 45.8291 67.9212 45.6162 67.9488C45.5607 68.0406 45.4682 68.0406 45.3478 68.0406C45.5297 67.8948 45.6999 67.7351 45.8569 67.563C45.644 67.4437 45.4034 67.71 45.2553 67.6824C45.1072 67.6549 45.2553 67.4988 45.0795 67.563C45.2351 67.4722 45.3606 67.3381 45.4404 67.1773C45.3201 67.1773 45.1628 67.2324 45.0424 67.2967C45.0424 67.1406 45.3756 67.0487 45.2831 66.8099C44.8944 66.7548 44.9499 67.1406 44.626 67.2324C44.9499 66.7824 45.4404 66.516 45.7643 66.0385C46.4154 65.4072 47.1617 64.8804 47.9762 64.4772C48.6055 64.119 49.4477 63.9445 49.9104 63.3383C50.0914 63.1236 50.2525 62.893 50.3917 62.6495C50.4842 62.6495 50.512 62.5944 50.5397 62.5301C50.9824 62.2482 51.4947 62.0925 52.0205 62.0801C52.2611 61.8413 52.7146 61.9882 52.946 61.6576C53.5753 60.9137 53.8252 59.9861 54.3619 59.233C54.547 58.9942 54.7599 58.5993 55.1208 58.5166C55.9591 58.5573 56.7921 58.671 57.6103 58.8564" fill="white"/>
<path d="M64.3543 62.4199L64.2363 62.0342L64.3543 62.3648V62.4199Z" fill="white"/>
<path d="M64.5704 63.0264C64.4501 63.0264 64.4779 62.907 64.4224 62.8152C64.4952 62.8662 64.5476 62.9409 64.5704 63.0264Z" fill="white"/>
<path d="M50.1481 63.21C50.0648 63.0355 50.3054 62.9804 50.398 62.8242C50.3637 62.9783 50.2751 63.1151 50.1481 63.21" fill="#00A28D"/>
<path d="M53.0581 63.2945V63.2651H53.1497L53.0581 63.2945Z" fill="#00A28D"/>
<path d="M52.4166 63.4763C52.3611 63.5314 52.3333 63.6233 52.2408 63.5957C52.1482 63.5682 52.3611 63.412 52.4166 63.4763Z" fill="#00A28D"/>
<path d="M58.2233 63.9814C58.0752 64.1008 57.7698 64.1926 57.742 64.3763C57.4736 64.3763 57.2885 64.6151 57.0757 64.6151C57.0757 64.3763 57.4736 64.5232 57.5014 64.2845L57.742 64.1008V64.1926C57.8346 64.1008 58.14 64.1926 58.0474 63.9263L58.2233 63.9814Z" fill="white"/>
<path d="M57.2607 64.1284C57.2263 64.1902 57.1787 64.2436 57.1211 64.2849C57.0634 64.3262 56.9973 64.3543 56.9275 64.3672C56.983 64.2203 57.1033 64.2203 57.2607 64.1284Z" fill="white"/>
<path d="M51.0259 64.5232C51.0894 64.615 50.9714 64.5232 50.9351 64.5875C50.8988 64.6518 50.9986 64.5232 51.0259 64.5232Z" fill="#00A28D"/>
<path d="M57.9243 64.6702H57.834V64.7615H57.9243V64.6702Z" fill="white"/>
<path d="M57.7088 64.8814C57.7088 64.9456 57.644 64.9456 57.6162 65.0007H57.5237C57.5237 64.9089 57.5885 64.8814 57.644 64.8538C57.6995 64.8262 57.644 64.8538 57.7088 64.8538" fill="white"/>
<path d="M58.2853 65.4509C58.2853 65.5703 58.1002 65.5703 58.0447 65.5978C57.9892 65.6254 58.0447 65.5427 58.0447 65.4784C58.0447 65.4141 58.165 65.4233 58.2576 65.4784" fill="white"/>
<path d="M58.3429 65.6348C58.3429 65.7542 58.1022 65.7542 57.9819 65.846C57.9819 65.7266 58.13 65.6624 58.2226 65.6073C58.3151 65.5521 58.3429 65.6073 58.3429 65.6073" fill="#00A28D"/>
<path d="M65.5984 65.9652C65.7188 66.0203 65.7835 66.1672 65.8761 66.2591L65.7835 66.3509C65.5888 66.1508 65.4321 65.9174 65.3208 65.6621C65.4133 65.754 65.4781 65.9009 65.5984 65.9652Z" fill="#00A28D"/>
<path d="M69.9485 67.5264C69.8559 67.5815 69.7356 67.4621 69.6523 67.4346L69.9485 67.5264Z" fill="white"/>
<path d="M70.7975 67.9766C70.5476 67.8205 70.2237 67.8205 70.0386 67.646C70.3163 67.6886 70.5779 67.8026 70.7975 67.9766" fill="white"/>
<path d="M68.1378 67.9399L67.7676 67.6736L68.0082 67.793L68.1378 67.9399Z" fill="white"/>
<path d="M70.7068 68.84L70.734 68.7849L70.8248 68.84H70.7068Z" fill="white"/>
<path d="M70.5597 68.9959H70.4417V68.9316C70.4417 68.9316 70.5233 68.9316 70.5597 68.9959Z" fill="white"/>
<path d="M123.112 72.752H127.518V60.0319H130.674V76.9768H127.518V75.8379L115.385 75.8012L115.357 76.8941H112.109V59.885H115.357V72.752L119.827 72.7245V57.1113H123.112V72.752Z" fill="#009D95"/>
<path d="M103.475 60.6291L96.3028 60.6475L96.2473 60.7026V65.0375L102.994 65.1018V68.1693H96.2195L96.1825 73.6339L104.354 73.6615V76.8025H84.7622V73.689L92.9064 73.6615V68.2061L86.2152 68.1693V65.0743H92.9064V60.6199L85.7617 60.5464V57.4697H103.475V60.6291Z" fill="#009D95"/>
<path d="M101.475 69.8959C101.619 70.1302 101.714 70.3905 101.755 70.6617C101.797 70.9329 101.783 71.2096 101.716 71.4756C101.626 71.781 101.463 72.0603 101.241 72.2891C101.018 72.518 100.743 72.6895 100.438 72.7889C100.063 72.9002 99.6626 72.8995 99.2874 72.7868C98.9123 72.6741 98.5787 72.4545 98.3284 72.1552C98.1641 71.9586 98.041 71.7314 97.9663 71.4869C97.8916 71.2425 97.8668 70.9857 97.8934 70.7317C97.9395 70.3599 98.0923 70.009 98.3334 69.7209C98.5746 69.4327 98.894 69.2193 99.2538 69.106C99.6602 68.9793 100.097 68.9878 100.498 69.1304C100.899 69.273 101.242 69.5418 101.475 69.8959" fill="#009D95"/>
<g clip-path="url(#clip0_4_1421)">
<path opacity="0.2" d="M195.091 77.5524C194.874 77.5524 194.666 77.4662 194.513 77.3128C194.359 77.1594 194.273 76.9513 194.273 76.7343V57.9161C194.273 57.6991 194.359 57.491 194.513 57.3375C194.666 57.1841 194.874 57.0979 195.091 57.0979C195.308 57.0979 195.516 57.1841 195.67 57.3375C195.823 57.491 195.909 57.6991 195.909 57.9161V76.7343C195.909 76.9513 195.823 77.1594 195.67 77.3128C195.516 77.4662 195.308 77.5524 195.091 77.5524V77.5524Z" fill="#54565A"/>
</g>
<path d="M250.484 60.4167V61.335C250.503 61.2789 250.533 61.227 250.573 61.182C250.613 61.1402 250.658 61.1041 250.708 61.0748C250.758 61.0435 250.813 61.0202 250.871 61.006C250.929 60.9985 250.987 60.9985 251.045 61.006C251.156 61.0037 251.266 61.026 251.367 61.071C251.457 61.1149 251.535 61.1791 251.595 61.2585C251.658 61.3381 251.704 61.4291 251.731 61.5263C251.787 61.7395 251.787 61.9636 251.731 62.1768C251.703 62.2737 251.657 62.3646 251.595 62.4446C251.535 62.5228 251.456 62.5857 251.367 62.6283C251.267 62.6765 251.156 62.7001 251.045 62.6971C250.921 62.6991 250.799 62.6673 250.693 62.6053C250.591 62.547 250.512 62.4568 250.468 62.3489V62.3489V62.6512H250.286V60.4167H250.484ZM251.552 61.5837C251.534 61.5063 251.503 61.4325 251.459 61.3656C251.416 61.3032 251.361 61.2499 251.297 61.2088C251.222 61.1693 251.138 61.1495 251.053 61.1514C250.962 61.1483 250.871 61.168 250.79 61.2088C250.72 61.2485 250.659 61.3019 250.611 61.3656C250.567 61.4323 250.534 61.5061 250.515 61.5837C250.495 61.6652 250.484 61.7486 250.484 61.8324C250.484 61.915 250.495 61.9972 250.515 62.0773C250.533 62.1563 250.566 62.2315 250.611 62.2992C250.659 62.363 250.72 62.4164 250.79 62.4561C250.871 62.4968 250.962 62.5166 251.053 62.5135C251.138 62.5153 251.222 62.4956 251.297 62.4561C251.363 62.4105 251.418 62.3519 251.459 62.2839C251.504 62.216 251.535 62.1408 251.552 62.062C251.574 61.9822 251.585 61.8998 251.583 61.8171C251.583 61.7383 251.573 61.6599 251.552 61.5837V61.5837Z" fill="#54565A"/>
<path d="M252.117 61.0327L252.651 62.3986L253.151 61.0327H253.356L252.651 62.8731C252.633 62.9334 252.609 62.9923 252.581 63.0491C252.561 63.0879 252.533 63.1228 252.5 63.1524C252.469 63.1796 252.432 63.1992 252.392 63.2098C252.34 63.2167 252.288 63.2167 252.237 63.2098H252.144C252.125 63.2142 252.105 63.2142 252.086 63.2098V63.0491H252.152H252.194C252.23 63.0577 252.267 63.0577 252.303 63.0491C252.331 63.0384 252.356 63.0214 252.376 62.9994C252.397 62.9747 252.416 62.9478 252.43 62.919C252.43 62.8884 252.461 62.854 252.477 62.8195L252.547 62.6397L251.9 61.0442L252.117 61.0327Z" fill="#54565A"/>
<path d="M256.001 60.4167V60.5966H254.669V61.3962H255.916V61.5761H254.669V62.4523H256.017V62.6321H254.468V60.4167H256.001Z" fill="#54565A"/>
<path d="M256.396 62.3032H256.659V62.6323H256.396V62.3032Z" fill="#54565A"/>
<path d="M257.34 62.1883C257.377 62.2617 257.432 62.3248 257.499 62.372C257.57 62.4187 257.649 62.4524 257.732 62.4714C257.827 62.4906 257.924 62.4995 258.022 62.4982C258.086 62.4975 258.15 62.4898 258.212 62.4753C258.281 62.4605 258.346 62.4333 258.405 62.3949C258.464 62.3604 258.514 62.3133 258.552 62.2572C258.595 62.1968 258.617 62.1243 258.614 62.0506C258.616 61.9941 258.601 61.9385 258.572 61.8899C258.544 61.8446 258.507 61.8055 258.463 61.7751C258.417 61.7421 258.366 61.7163 258.312 61.6986C258.26 61.6791 258.207 61.6625 258.154 61.6488L257.654 61.5187C257.589 61.5041 257.526 61.4836 257.464 61.4575C257.404 61.435 257.349 61.4012 257.302 61.358C257.254 61.3169 257.216 61.266 257.189 61.2088C257.16 61.1386 257.145 61.063 257.147 60.9869C257.149 60.9233 257.159 60.8603 257.178 60.7994C257.203 60.7229 257.243 60.6525 257.298 60.5928C257.364 60.5222 257.444 60.4661 257.534 60.4283C257.657 60.3814 257.789 60.3593 257.921 60.3632C258.029 60.3635 258.135 60.3777 258.239 60.4053C258.334 60.433 258.423 60.4771 258.502 60.5354C258.577 60.5945 258.638 60.6689 258.68 60.7535C258.729 60.8456 258.753 60.9483 258.75 61.0519H258.537C258.535 60.9746 258.515 60.8987 258.479 60.83C258.445 60.7695 258.398 60.7162 258.343 60.6732C258.286 60.6293 258.22 60.5969 258.15 60.5775C258.076 60.554 257.999 60.5424 257.921 60.5431C257.851 60.5429 257.781 60.5506 257.712 60.566C257.648 60.5798 257.588 60.6058 257.534 60.6426C257.481 60.6763 257.437 60.7222 257.406 60.7765C257.373 60.8404 257.357 60.9114 257.36 60.9831C257.36 61.029 257.369 61.0746 257.387 61.117C257.405 61.1546 257.43 61.1884 257.46 61.2165C257.493 61.2439 257.529 61.2659 257.569 61.2815L257.701 61.3236L258.247 61.4537C258.328 61.4766 258.401 61.5034 258.471 61.5302C258.538 61.5596 258.601 61.5982 258.657 61.645C258.711 61.688 258.753 61.7431 258.781 61.8057C258.814 61.8791 258.83 61.9588 258.827 62.0391C258.827 62.062 258.827 62.0965 258.827 62.1386C258.819 62.1895 258.802 62.2387 258.777 62.284C258.757 62.3355 258.728 62.3834 258.692 62.4255C258.652 62.4792 258.6 62.5236 258.541 62.5556C258.468 62.5989 258.388 62.6299 258.305 62.6474C258.073 62.7034 257.831 62.7034 257.6 62.6474C257.495 62.6204 257.396 62.5736 257.309 62.5097C257.23 62.4449 257.168 62.3622 257.127 62.2687C257.082 62.1583 257.064 62.0391 257.073 61.9205H257.286C257.284 62.0126 257.303 62.104 257.34 62.1883V62.1883Z" fill="#54565A"/>
<path d="M259.36 60.4167V61.7903C259.358 61.9002 259.372 62.0097 259.402 62.1156C259.428 62.1988 259.473 62.2748 259.534 62.3375C259.591 62.3948 259.661 62.4369 259.739 62.4599C259.921 62.511 260.114 62.511 260.297 62.4599C260.374 62.4369 260.445 62.3948 260.502 62.3375C260.563 62.2748 260.608 62.1988 260.634 62.1156C260.663 62.0097 260.678 61.9002 260.676 61.7903V60.4167H260.889V61.8362C260.89 61.9466 260.873 62.0565 260.839 62.1615C260.809 62.2605 260.757 62.3519 260.688 62.4293C260.611 62.5076 260.519 62.5689 260.417 62.6091C260.159 62.7022 259.877 62.7022 259.619 62.6091C259.517 62.5689 259.424 62.5076 259.348 62.4293C259.278 62.3519 259.227 62.2605 259.197 62.1615C259.162 62.0565 259.145 61.9466 259.147 61.8362V60.4167H259.36Z" fill="#54565A"/>
<path d="M261.554 60.4167L262.859 62.2839V60.4167H263.072V62.6321H262.832L261.534 60.7534V62.6283H261.321V60.4167H261.554Z" fill="#54565A"/>
<path d="M265.362 60.4168C265.454 60.4159 265.546 60.4249 265.637 60.4436C265.718 60.4608 265.795 60.4919 265.865 60.5354C265.93 60.5774 265.985 60.6337 266.024 60.7C266.065 60.7805 266.085 60.87 266.082 60.9601C266.083 61.0174 266.074 61.0743 266.055 61.1285C266.037 61.1827 266.01 61.2333 265.974 61.2777C265.941 61.3225 265.9 61.3613 265.854 61.3925C265.805 61.4235 265.751 61.4455 265.695 61.4575V61.4575C265.828 61.4722 265.951 61.5349 266.04 61.6335C266.13 61.7406 266.175 61.8772 266.167 62.0161C266.167 62.0506 266.167 62.0888 266.167 62.1348C266.159 62.1806 266.146 62.2255 266.129 62.2687C266.108 62.3194 266.081 62.367 266.047 62.4102C266.007 62.4574 265.958 62.4975 265.904 62.5288C265.834 62.5663 265.76 62.5946 265.683 62.613C265.58 62.6346 265.475 62.6449 265.37 62.6436H264.421V60.4168H265.362ZM265.362 61.3887C265.438 61.3898 265.514 61.3795 265.586 61.358C265.644 61.3415 265.698 61.3142 265.745 61.2777C265.784 61.2446 265.815 61.2043 265.838 61.1591C265.858 61.1131 265.869 61.0637 265.869 61.0137C265.869 60.7344 265.699 60.5966 265.362 60.5966H264.63V61.3887H265.362ZM265.362 62.4523C265.438 62.452 265.515 62.4456 265.59 62.4332C265.647 62.4172 265.7 62.3927 265.749 62.3605C265.805 62.3261 265.851 62.2772 265.881 62.2189C265.914 62.1497 265.93 62.0736 265.927 61.997C265.93 61.9354 265.918 61.874 265.892 61.818C265.865 61.762 265.826 61.7132 265.776 61.6756C265.652 61.6009 265.508 61.5637 265.362 61.5685H264.63V62.4523H265.362Z" fill="#54565A"/>
<path d="M266.5 61.2814C266.532 61.2161 266.578 61.1586 266.635 61.113C266.696 61.0669 266.766 61.0343 266.84 61.0174C266.924 60.995 267.01 60.9847 267.096 60.9868C267.167 60.979 267.238 60.979 267.309 60.9868C267.378 60.9978 267.445 61.024 267.503 61.0633C267.563 61.1018 267.611 61.1561 267.642 61.2202C267.683 61.314 267.698 61.4171 267.685 61.5186V62.3489C267.685 62.4292 267.723 62.4675 267.801 62.4675C267.822 62.4714 267.845 62.4714 267.867 62.4675V62.632H267.805H267.735C267.695 62.6391 267.655 62.6391 267.615 62.632C267.587 62.6193 267.563 62.5995 267.545 62.5746C267.529 62.5473 267.517 62.5176 267.51 62.4866C267.508 62.4484 267.508 62.4101 267.51 62.3718V62.3718C267.478 62.4206 267.442 62.4666 267.402 62.5096C267.366 62.5502 267.324 62.585 267.278 62.6129C267.229 62.6401 267.177 62.6607 267.123 62.6741C267.052 62.6812 266.98 62.6787 266.91 62.6664C266.84 62.6655 266.769 62.6566 266.701 62.6397C266.638 62.6234 266.579 62.5948 266.527 62.5555C266.477 62.5171 266.437 62.4672 266.411 62.4101C266.382 62.3437 266.367 62.272 266.368 62.1996C266.362 62.106 266.388 62.0132 266.442 61.9356C266.495 61.8719 266.564 61.8231 266.643 61.7941C266.732 61.7581 266.826 61.7337 266.922 61.7214L267.239 61.6831H267.348C267.376 61.6801 267.403 61.6695 267.425 61.6525C267.448 61.6362 267.466 61.6136 267.475 61.5875C267.482 61.5534 267.482 61.5183 267.475 61.4842C267.478 61.4277 267.467 61.3715 267.444 61.3196C267.423 61.2788 267.391 61.2445 267.352 61.2202C267.311 61.1932 267.264 61.175 267.216 61.1666C267.162 61.1625 267.107 61.1625 267.053 61.1666C266.943 61.1607 266.834 61.1917 266.744 61.2546C266.702 61.2892 266.67 61.3328 266.648 61.3819C266.627 61.431 266.617 61.4843 266.62 61.5377H266.422C266.429 61.4478 266.456 61.3605 266.5 61.2814V61.2814ZM267.491 61.7596C267.473 61.783 267.447 61.7992 267.417 61.8056L267.324 61.8285L267.065 61.8668C266.982 61.8775 266.901 61.8954 266.821 61.9203C266.754 61.9388 266.692 61.9715 266.639 62.016C266.615 62.0399 266.596 62.0687 266.584 62.1004C266.572 62.132 266.567 62.1659 266.569 62.1996C266.569 62.2448 266.58 62.2894 266.6 62.3297C266.619 62.3675 266.646 62.4013 266.678 62.4292C266.713 62.4567 266.752 62.4787 266.794 62.4943C266.839 62.4998 266.884 62.4998 266.929 62.4943C267.003 62.4946 267.076 62.483 267.146 62.4598C267.213 62.4412 267.275 62.4086 267.328 62.3642C267.379 62.3185 267.421 62.264 267.452 62.2035C267.481 62.137 267.496 62.0654 267.495 61.993V61.7596H267.491Z" fill="#54565A"/>
<path d="M268.285 61.0329V61.3084C268.324 61.2105 268.395 61.1284 268.487 61.075C268.582 61.0159 268.692 60.9854 268.804 60.987C268.901 60.9831 268.999 60.9973 269.091 61.029C269.16 61.0553 269.223 61.0972 269.273 61.1515C269.32 61.2081 269.353 61.275 269.37 61.3466C269.391 61.4305 269.401 61.5166 269.4 61.603V62.6322H269.199V61.6336C269.205 61.5699 269.205 61.5059 269.199 61.4423C269.187 61.3877 269.164 61.3359 269.133 61.2892C269.099 61.2461 269.055 61.2109 269.006 61.1859C268.941 61.1611 268.873 61.1493 268.804 61.1515C268.731 61.1491 268.658 61.1635 268.591 61.1936C268.532 61.2204 268.479 61.2595 268.436 61.3084C268.391 61.3581 268.356 61.4168 268.336 61.4805C268.311 61.5506 268.297 61.6243 268.297 61.6986V62.6322H268.072V61.0329H268.285Z" fill="#54565A"/>
<path d="M269.974 60.4167V61.8056L270.872 61.0404H271.135L270.446 61.6335L271.17 62.6321H270.922L270.284 61.7597L269.962 62.0237V62.6321H269.765V60.4167H269.974Z" fill="#54565A"/>
<path d="M231.931 65.8H227.218C226.929 65.8 226.695 66.0313 226.695 66.3166V67.87C226.695 68.1553 226.929 68.3865 227.218 68.3865H231.931C232.219 68.3865 232.454 68.1553 232.454 67.87V66.3166C232.454 66.0313 232.219 65.8 231.931 65.8Z" fill="#00A4EF"/>
<path d="M248.284 69.4197C248.282 68.2202 247.799 67.0705 246.94 66.2227C246.081 65.3749 244.917 64.8982 243.703 64.8972C243.023 64.8987 242.352 65.0517 241.74 65.3449C241.72 65.2225 241.658 65.111 241.562 65.0303C241.467 64.9497 241.346 64.9052 241.221 64.9049H239.649C239.58 64.9044 239.512 64.9174 239.448 64.9432C239.384 64.9689 239.327 65.007 239.278 65.055C239.229 65.1031 239.191 65.1602 239.165 65.2231C239.139 65.286 239.125 65.3534 239.126 65.4214V74.0761C239.126 74.2131 239.181 74.3445 239.279 74.4414C239.377 74.5382 239.51 74.5927 239.649 74.5927H241.217C241.355 74.5917 241.488 74.5369 241.586 74.4403C241.683 74.3436 241.739 74.2128 241.74 74.0761V69.4197C241.728 69.158 241.77 68.8966 241.863 68.6513C241.957 68.4061 242.099 68.182 242.282 67.9927C242.466 67.8034 242.686 67.6527 242.93 67.5497C243.174 67.4468 243.436 67.3937 243.701 67.3937C243.966 67.3937 244.229 67.4468 244.473 67.5497C244.716 67.6527 244.937 67.8034 245.12 67.9927C245.303 68.182 245.446 68.4061 245.539 68.6513C245.632 68.8966 245.674 69.158 245.663 69.4197V74.0876C245.663 74.2246 245.718 74.356 245.816 74.4529C245.914 74.5497 246.047 74.6041 246.185 74.6041H247.757C247.826 74.6046 247.894 74.5916 247.958 74.5659C248.022 74.5401 248.08 74.5021 248.128 74.454C248.177 74.4059 248.215 74.3488 248.242 74.2859C248.268 74.223 248.281 74.1556 248.28 74.0876V69.4197H248.284Z" fill="#FFC517"/>
<path d="M266.275 64.8972C265.304 64.895 264.355 65.1773 263.546 65.7086C262.738 66.2399 262.107 66.9962 261.734 67.8818C261.361 68.7674 261.262 69.7425 261.45 70.6836C261.638 71.6248 262.105 72.4896 262.79 73.1687C263.476 73.8478 264.35 74.3107 265.302 74.4987C266.254 74.6866 267.241 74.5913 268.139 74.2247C269.036 73.8582 269.803 73.2368 270.342 72.4394C270.882 71.6419 271.17 70.7042 271.17 69.745C271.168 68.4619 270.652 67.2317 269.735 66.3234C268.818 65.415 267.574 64.9023 266.275 64.8972V64.8972ZM266.275 72.0062C265.822 72.0062 265.378 71.8733 265.001 71.6242C264.624 71.3751 264.33 71.0212 264.157 70.607C263.984 70.1929 263.938 69.7373 264.027 69.2978C264.116 68.8583 264.335 68.4547 264.656 68.1381C264.977 67.8215 265.386 67.6061 265.83 67.5191C266.275 67.4321 266.736 67.4775 267.155 67.6496C267.574 67.8216 267.932 68.1125 268.183 68.4855C268.435 68.8585 268.569 69.2968 268.568 69.745C268.567 70.345 268.325 70.9202 267.895 71.3441C267.465 71.7681 266.883 72.0062 266.275 72.0062V72.0062Z" fill="#ED4848"/>
<path d="M236.639 64.8972H235.067C234.778 64.8972 234.544 65.1285 234.544 65.4137V74.0761C234.544 74.3614 234.778 74.5927 235.067 74.5927H236.639C236.928 74.5927 237.162 74.3614 237.162 74.0761V65.4137C237.162 65.1285 236.928 64.8972 236.639 64.8972Z" fill="#00C08B"/>
<path d="M259.553 64.8972H257.985C257.916 64.8967 257.847 64.9097 257.784 64.9354C257.72 64.9612 257.662 64.9991 257.613 65.0472C257.564 65.0952 257.525 65.1523 257.498 65.2152C257.472 65.2781 257.458 65.3456 257.458 65.4138V65.8691C256.729 65.3281 255.863 64.9985 254.955 64.9171C254.047 64.8357 253.134 65.0057 252.319 65.4082C251.503 65.8106 250.818 66.4295 250.338 67.1955C249.859 67.9615 249.605 68.8443 249.605 69.745C249.605 70.6456 249.859 71.5284 250.338 72.2944C250.818 73.0604 251.503 73.6793 252.319 74.0817C253.134 74.4842 254.047 74.6542 254.955 74.5728C255.863 74.4914 256.729 74.1618 257.458 73.6208V75.8859C257.453 76.4706 257.227 77.0323 256.826 77.4621C256.425 77.8918 255.876 78.1588 255.287 78.2113C254.698 78.2638 254.109 78.0979 253.637 77.7459C253.164 77.394 252.841 76.8811 252.73 76.3068C252.709 76.1882 252.646 76.0809 252.552 76.0038C252.459 75.9268 252.341 75.885 252.219 75.8859H250.631C250.557 75.8854 250.485 75.9004 250.417 75.9299C250.35 75.9594 250.29 76.0027 250.24 76.057C250.191 76.1113 250.155 76.1753 250.132 76.2448C250.11 76.3142 250.103 76.3875 250.112 76.4598C250.262 77.7099 250.89 78.8562 251.867 79.6645C252.843 80.4728 254.096 80.8821 255.368 80.8088C256.639 80.7356 257.835 80.1852 258.71 79.2703C259.585 78.3553 260.074 77.1448 260.076 75.8859V65.4138C260.076 65.3458 260.063 65.2784 260.037 65.2155C260.011 65.1526 259.973 65.0955 259.924 65.0474C259.875 64.9993 259.817 64.9613 259.754 64.9355C259.69 64.9097 259.622 64.8967 259.553 64.8972ZM254.519 72.0062C254.065 72.007 253.622 71.8747 253.244 71.6261C252.866 71.3775 252.572 71.0237 252.398 70.6097C252.224 70.1957 252.178 69.7399 252.267 69.3002C252.355 68.8604 252.573 68.4565 252.894 68.1395C253.215 67.8225 253.624 67.6067 254.069 67.5194C254.514 67.4321 254.975 67.4773 255.394 67.6492C255.813 67.8211 256.171 68.112 256.423 68.4851C256.674 68.8582 256.808 69.2966 256.808 69.745C256.807 70.3444 256.565 70.9189 256.136 71.3428C255.707 71.7666 255.126 72.0052 254.519 72.0062V72.0062Z" fill="#FF9900"/>
<path d="M230.618 60.371H223.303C223.233 60.3684 223.163 60.3799 223.097 60.4047C223.032 60.4295 222.972 60.4672 222.922 60.5155C222.872 60.5638 222.832 60.6216 222.805 60.6856C222.778 60.7495 222.764 60.8182 222.765 60.8875V74.0762C222.765 74.2132 222.82 74.3446 222.918 74.4414C223.016 74.5383 223.149 74.5927 223.287 74.5927H224.86C224.998 74.5917 225.13 74.537 225.228 74.4403C225.326 74.3437 225.381 74.2129 225.382 74.0762V62.9574H233.22C233.22 62.2741 232.946 61.6185 232.459 61.1339C231.971 60.6493 231.309 60.375 230.618 60.371V60.371Z" fill="#00A4EF"/>
<path d="M220.144 74.543C220.867 74.543 221.453 73.964 221.453 73.2498C221.453 72.5355 220.867 71.9565 220.144 71.9565C219.421 71.9565 218.835 72.5355 218.835 73.2498C218.835 73.964 219.421 74.543 220.144 74.543Z" fill="#00C08B"/>
<path d="M236.318 60.6888C236.272 60.6101 236.206 60.5447 236.126 60.4993C236.047 60.4539 235.957 60.4299 235.865 60.4299C235.773 60.4299 235.682 60.4539 235.603 60.4993C235.523 60.5447 235.457 60.6101 235.412 60.6888L234.571 62.1197C234.529 62.1985 234.507 62.2867 234.509 62.3759C234.511 62.465 234.536 62.5523 234.582 62.6291C234.628 62.7059 234.693 62.7698 234.771 62.8146C234.849 62.8594 234.938 62.8837 235.028 62.885H236.705C236.795 62.8841 236.884 62.8601 236.962 62.8153C237.04 62.7705 237.105 62.7064 237.151 62.6293C237.197 62.5522 237.221 62.4647 237.223 62.3754C237.224 62.2861 237.202 62.198 237.158 62.1197L236.318 60.6888Z" fill="#00C08B"/>
<path d="M211.663 62.946C210.637 62.9386 209.628 63.1957 208.733 63.6921C207.839 64.1884 207.092 64.9067 206.564 65.776C206.037 66.6453 205.749 67.6354 205.728 68.6486C205.706 69.6618 205.953 70.6629 206.443 71.553C206.934 72.4431 207.651 73.1914 208.523 73.7238C209.396 74.2563 210.394 74.5546 211.419 74.5892C212.444 74.6238 213.46 74.3934 214.368 73.921C215.275 73.4485 216.042 72.7503 216.593 71.8953C216.647 71.8173 216.679 71.7258 216.685 71.6309C216.691 71.5361 216.67 71.4415 216.625 71.3577C216.579 71.2738 216.512 71.2039 216.429 71.1557C216.346 71.1074 216.251 71.0827 216.155 71.0842H214.095C213.968 71.085 213.846 71.1312 213.75 71.2142C213.344 71.5599 212.859 71.8018 212.336 71.9187C211.813 72.0355 211.269 72.0237 210.752 71.8842C210.235 71.7448 209.761 71.4821 209.371 71.1191C208.981 70.7561 208.687 70.3039 208.515 69.8024H216.957C217.087 69.802 217.213 69.7537 217.31 69.6667C217.406 69.5797 217.467 69.4603 217.479 69.3318C217.5 69.1156 217.509 68.8985 217.506 68.6813C217.478 67.1623 216.853 65.7138 215.762 64.6431C214.671 63.5724 213.201 62.9636 211.663 62.946V62.946ZM208.515 67.7325C208.737 67.095 209.155 66.5419 209.71 66.1504C210.265 65.7588 210.93 65.5484 211.613 65.5484C212.295 65.5484 212.96 65.7588 213.516 66.1504C214.071 66.5419 214.489 67.095 214.711 67.7325H208.515Z" fill="#00C08B"/>
<line x1="344.001" y1="58.2957" x2="373.456" y2="58.2957" stroke="#00A19B" stroke-width="2.5"/>
<line x1="344" y1="68.1138" x2="373.455" y2="68.1138" stroke="#00A19B" stroke-width="2.5"/>
<line x1="344" y1="77.9321" x2="373.455" y2="77.9321" stroke="#00A19B" stroke-width="2.5"/>
<path d="M375.646 74.6464C375.451 74.8417 375.451 75.1583 375.646 75.3536L378.828 78.5355C379.024 78.7308 379.34 78.7308 379.536 78.5355C379.731 78.3403 379.731 78.0237 379.536 77.8284L376.707 75L379.536 72.1716C379.731 71.9763 379.731 71.6597 379.536 71.4645C379.34 71.2692 379.024 71.2692 378.828 71.4645L375.646 74.6464ZM392.354 75.3536C392.549 75.1583 392.549 74.8417 392.354 74.6464L389.172 71.4645C388.976 71.2692 388.66 71.2692 388.464 71.4645C388.269 71.6597 388.269 71.9763 388.464 72.1716L391.293 75L388.464 77.8284C388.269 78.0237 388.269 78.3403 388.464 78.5355C388.66 78.7308 388.976 78.7308 389.172 78.5355L392.354 75.3536ZM376 75.5L392 75.5L392 74.5L376 74.5L376 75.5Z" fill="#E73525"/>
<path d="M403.354 38.6464C403.158 38.4512 402.842 38.4512 402.646 38.6464L399.464 41.8284C399.269 42.0237 399.269 42.3403 399.464 42.5355C399.66 42.7308 399.976 42.7308 400.172 42.5355L403 39.7071L405.828 42.5355C406.024 42.7308 406.34 42.7308 406.536 42.5355C406.731 42.3403 406.731 42.0237 406.536 41.8284L403.354 38.6464ZM402.646 98.3536C402.842 98.5488 403.158 98.5488 403.354 98.3536L406.536 95.1716C406.731 94.9763 406.731 94.6597 406.536 94.4645C406.34 94.2692 406.024 94.2692 405.828 94.4645L403 97.2929L400.172 94.4645C399.976 94.2692 399.66 94.2692 399.464 94.4645C399.269 94.6597 399.269 94.9763 399.464 95.1716L402.646 98.3536ZM402.5 39V98H403.5V39H402.5Z" fill="#E73525"/>
<path d="M21.6464 74.6464C21.4512 74.8417 21.4512 75.1583 21.6464 75.3536L24.8284 78.5355C25.0237 78.7308 25.3403 78.7308 25.5355 78.5355C25.7308 78.3403 25.7308 78.0237 25.5355 77.8284L22.7071 75L25.5355 72.1716C25.7308 71.9763 25.7308 71.6597 25.5355 71.4645C25.3403 71.2692 25.0237 71.2692 24.8284 71.4645L21.6464 74.6464ZM38.3536 75.3536C38.5488 75.1583 38.5488 74.8417 38.3536 74.6464L35.1716 71.4645C34.9763 71.2692 34.6597 71.2692 34.4645 71.4645C34.2692 71.6597 34.2692 71.9763 34.4645 72.1716L37.2929 75L34.4645 77.8284C34.2692 78.0237 34.2692 78.3403 34.4645 78.5355C34.6597 78.7308 34.9763 78.7308 35.1716 78.5355L38.3536 75.3536ZM22 75.5L38 75.5L38 74.5L22 74.5L22 75.5Z" fill="#E73525"/>
<path d="M370.273 101H369.002V92.5713L366.452 93.5078V92.3594L370.075 90.999H370.273V101ZM378.941 91.04V92.1133H378.709C377.725 92.1315 376.941 92.4232 376.357 92.9883C375.774 93.5534 375.437 94.3486 375.346 95.374C375.87 94.7725 376.585 94.4717 377.492 94.4717C378.358 94.4717 379.049 94.777 379.563 95.3877C380.083 95.9984 380.343 96.7868 380.343 97.7529C380.343 98.7783 380.062 99.5986 379.502 100.214C378.946 100.829 378.199 101.137 377.26 101.137C376.307 101.137 375.535 100.772 374.942 100.043C374.35 99.3092 374.054 98.3659 374.054 97.2129V96.7275C374.054 94.8955 374.443 93.4964 375.223 92.5303C376.007 91.5596 377.171 91.0628 378.716 91.04H378.941ZM377.28 95.5244C376.847 95.5244 376.449 95.6543 376.084 95.9141C375.719 96.1738 375.466 96.4997 375.325 96.8916V97.3564C375.325 98.1768 375.51 98.8376 375.879 99.3389C376.248 99.8402 376.708 100.091 377.26 100.091C377.829 100.091 378.276 99.8812 378.6 99.4619C378.928 99.0426 379.092 98.4935 379.092 97.8145C379.092 97.1309 378.925 96.5794 378.593 96.1602C378.265 95.7363 377.827 95.5244 377.28 95.5244ZM388.218 97.3838C388.218 98.5094 387.96 99.4163 387.445 100.104C386.93 100.793 386.233 101.137 385.354 101.137C384.456 101.137 383.749 100.852 383.234 100.282V103.844H381.97V93.6035H383.125L383.187 94.4238C383.701 93.7858 384.417 93.4668 385.333 93.4668C386.222 93.4668 386.924 93.8018 387.438 94.4717C387.958 95.1416 388.218 96.0736 388.218 97.2676V97.3838ZM386.953 97.2402C386.953 96.4062 386.775 95.7477 386.42 95.2646C386.064 94.7816 385.577 94.54 384.957 94.54C384.191 94.54 383.617 94.8796 383.234 95.5586V99.0928C383.613 99.7673 384.191 100.104 384.971 100.104C385.577 100.104 386.058 99.8652 386.413 99.3867C386.773 98.9036 386.953 98.1882 386.953 97.2402ZM392.203 96.3037L393.844 93.6035H395.32L392.9 97.2607L395.396 101H393.933L392.224 98.2314L390.515 101H389.045L391.54 97.2607L389.12 93.6035H390.583L392.203 96.3037Z" fill="black"/>
<path d="M414.08 67.04V68.1133H413.848C412.863 68.1315 412.079 68.4232 411.496 68.9883C410.913 69.5534 410.576 70.3486 410.484 71.374C411.008 70.7725 411.724 70.4717 412.631 70.4717C413.497 70.4717 414.187 70.777 414.702 71.3877C415.222 71.9984 415.481 72.7868 415.481 73.7529C415.481 74.7783 415.201 75.5986 414.641 76.2139C414.085 76.8291 413.337 77.1367 412.398 77.1367C411.446 77.1367 410.674 76.7721 410.081 76.043C409.489 75.3092 409.192 74.3659 409.192 73.2129V72.7275C409.192 70.8955 409.582 69.4964 410.361 68.5303C411.145 67.5596 412.31 67.0628 413.854 67.04H414.08ZM412.419 71.5244C411.986 71.5244 411.587 71.6543 411.223 71.9141C410.858 72.1738 410.605 72.4997 410.464 72.8916V73.3564C410.464 74.1768 410.648 74.8376 411.018 75.3389C411.387 75.8402 411.847 76.0908 412.398 76.0908C412.968 76.0908 413.415 75.8812 413.738 75.4619C414.066 75.0426 414.23 74.4935 414.23 73.8145C414.23 73.1309 414.064 72.5794 413.731 72.1602C413.403 71.7363 412.966 71.5244 412.419 71.5244ZM423.22 72.7549C423.22 74.236 422.967 75.3366 422.461 76.0566C421.955 76.7767 421.164 77.1367 420.089 77.1367C419.027 77.1367 418.241 76.7858 417.73 76.084C417.22 75.3776 416.956 74.3249 416.938 72.9258V71.2373C416.938 69.7744 417.19 68.6875 417.696 67.9766C418.202 67.2656 418.995 66.9102 420.075 66.9102C421.146 66.9102 421.935 67.2542 422.44 67.9424C422.946 68.626 423.206 69.6833 423.22 71.1143V72.7549ZM421.955 71.0254C421.955 69.9544 421.805 69.1751 421.504 68.6875C421.203 68.1953 420.727 67.9492 420.075 67.9492C419.428 67.9492 418.956 68.193 418.66 68.6807C418.364 69.1683 418.211 69.918 418.202 70.9297V72.9531C418.202 74.0286 418.357 74.8239 418.667 75.3389C418.981 75.8493 419.455 76.1045 420.089 76.1045C420.713 76.1045 421.176 75.863 421.477 75.3799C421.782 74.8968 421.941 74.1357 421.955 73.0967V71.0254ZM431.218 73.3838C431.218 74.5094 430.96 75.4163 430.445 76.1045C429.93 76.7926 429.233 77.1367 428.354 77.1367C427.456 77.1367 426.749 76.8519 426.234 76.2822V79.8438H424.97V69.6035H426.125L426.187 70.4238C426.701 69.7858 427.417 69.4668 428.333 69.4668C429.222 69.4668 429.924 69.8018 430.438 70.4717C430.958 71.1416 431.218 72.0736 431.218 73.2676V73.3838ZM429.953 73.2402C429.953 72.4062 429.775 71.7477 429.42 71.2646C429.064 70.7816 428.577 70.54 427.957 70.54C427.191 70.54 426.617 70.8796 426.234 71.5586V75.0928C426.613 75.7673 427.191 76.1045 427.971 76.1045C428.577 76.1045 429.058 75.8652 429.413 75.3867C429.773 74.9036 429.953 74.1882 429.953 73.2402ZM435.203 72.3037L436.844 69.6035H438.32L435.9 73.2607L438.396 77H436.933L435.224 74.2314L433.515 77H432.045L434.54 73.2607L432.12 69.6035H433.583L435.203 72.3037Z" fill="black"/>
<path d="M19.2734 101H18.002V92.5713L15.4521 93.5078V92.3594L19.0752 90.999H19.2734V101ZM27.9414 91.04V92.1133H27.709C26.7246 92.1315 25.9408 92.4232 25.3574 92.9883C24.7741 93.5534 24.4368 94.3486 24.3457 95.374C24.8698 94.7725 25.5853 94.4717 26.4922 94.4717C27.3581 94.4717 28.0485 94.777 28.5635 95.3877C29.083 95.9984 29.3428 96.7868 29.3428 97.7529C29.3428 98.7783 29.0625 99.5986 28.502 100.214C27.946 100.829 27.1986 101.137 26.2598 101.137C25.3073 101.137 24.5348 100.772 23.9424 100.043C23.3499 99.3092 23.0537 98.3659 23.0537 97.2129V96.7275C23.0537 94.8955 23.4434 93.4964 24.2227 92.5303C25.0065 91.5596 26.1709 91.0628 27.7158 91.04H27.9414ZM26.2803 95.5244C25.8473 95.5244 25.4486 95.6543 25.084 95.9141C24.7194 96.1738 24.4665 96.4997 24.3252 96.8916V97.3564C24.3252 98.1768 24.5098 98.8376 24.8789 99.3389C25.248 99.8402 25.7083 100.091 26.2598 100.091C26.8294 100.091 27.276 99.8812 27.5996 99.4619C27.9277 99.0426 28.0918 98.4935 28.0918 97.8145C28.0918 97.1309 27.9255 96.5794 27.5928 96.1602C27.2646 95.7363 26.8271 95.5244 26.2803 95.5244ZM37.2178 97.3838C37.2178 98.5094 36.9603 99.4163 36.4453 100.104C35.9303 100.793 35.2331 101.137 34.3535 101.137C33.4557 101.137 32.7493 100.852 32.2344 100.282V103.844H30.9697V93.6035H32.125L32.1865 94.4238C32.7015 93.7858 33.417 93.4668 34.333 93.4668C35.2217 93.4668 35.9235 93.8018 36.4385 94.4717C36.958 95.1416 37.2178 96.0736 37.2178 97.2676V97.3838ZM35.9531 97.2402C35.9531 96.4062 35.7754 95.7477 35.4199 95.2646C35.0645 94.7816 34.5768 94.54 33.957 94.54C33.1914 94.54 32.6172 94.8796 32.2344 95.5586V99.0928C32.6126 99.7673 33.1914 100.104 33.9707 100.104C34.5768 100.104 35.0576 99.8652 35.4131 99.3867C35.7731 98.9036 35.9531 98.1882 35.9531 97.2402ZM41.2031 96.3037L42.8438 93.6035H44.3203L41.9004 97.2607L44.3955 101H42.9326L41.2236 98.2314L39.5146 101H38.0449L40.54 97.2607L38.1201 93.6035H39.583L41.2031 96.3037Z" fill="black"/>
<defs>
<clipPath id="clip0_4_1421">
<rect width="1.63636" height="20.4545" fill="white" transform="translate(194.273 57.0979)"/>
</clipPath>
</defs>
</svg>
