<svg width="444" height="645" viewBox="0 0 444 645" fill="none" xmlns="http://www.w3.org/2000/svg">
<rect width="444" height="645" fill="white"/>
<rect x="8" y="6" width="418" height="631" fill="#F5F5F5"/>
<rect x="25" y="102" width="379" height="507" fill="#F4F8FA"/>
<path d="M201.26 175.38H197.42V177.46C197.42 178.66 197.84 178.96 199.32 178.96H202C203.06 178.96 203.44 178.6 203.58 177.26C203.22 177.18 202.74 177.02 202.48 176.84C202.42 177.78 202.32 177.9 201.84 177.9H199.46C198.8 177.9 198.68 177.82 198.68 177.44V176.42H202.58V173.04H197.04V174.08H201.26V175.38ZM194.82 175.38H190.9V177.46C190.9 178.66 191.28 178.96 192.76 178.96H195.24C196.26 178.96 196.64 178.62 196.78 177.32C196.42 177.26 195.94 177.1 195.68 176.9C195.62 177.78 195.52 177.9 195.04 177.9H192.88C192.24 177.9 192.14 177.82 192.14 177.46V176.42H196.08V173.04H190.54V174.08H194.82V175.38ZM195.14 181.8H198.42V183.7H195.14V181.8ZM203.46 183.7H199.84V181.8H202.84V180.66H199.84V179.22H198.42V180.66H195.14V179.22H193.76V180.66H190.8V181.8H193.76V183.7H190.16V184.86H203.46V183.7ZM203.16 187.52C202.22 186.78 200.58 185.82 199.12 185.12L198.06 185.78C199.44 186.48 200.88 187.42 201.72 188.16L203.16 187.52ZM194.42 185.08C193.54 185.88 192.06 186.64 190.7 187.18C191.02 187.38 191.56 187.86 191.8 188.12C193.12 187.48 194.72 186.5 195.74 185.54L194.42 185.08ZM189.78 176.06C189.22 175.06 187.9 173.68 186.72 172.74L185.58 173.5C186.74 174.48 188.02 175.9 188.54 176.9L189.78 176.06ZM189.32 180.1H185.48V181.5H187.94V186.66C187.06 187.5 186.08 188.34 185.24 188.96L186.02 190.34C186.98 189.46 187.88 188.62 188.72 187.74C189.96 189.32 191.78 190.04 194.42 190.14C196.68 190.22 201 190.18 203.26 190.08C203.32 189.66 203.56 189 203.74 188.68C201.3 188.84 196.64 188.9 194.38 188.8C192.04 188.7 190.26 188.02 189.32 186.52V180.1ZM220.56 175.92H216.7V174.04H220.56V175.92ZM221.94 173.04H215.34V176.92H221.94V173.04ZM212.34 175.92H208.52V174.04H212.34V175.92ZM213.74 173.04H207.18V176.92H213.74V173.04ZM209.16 183.68V181.96H213.68V183.68H209.16ZM209.16 179.12H213.68V180.82H209.16V179.12ZM219.96 180.82H215.2V179.12H219.96V180.82ZM219.96 183.68H215.2V181.96H219.96V183.68ZM223.32 186.4H215.2V184.88H221.48V177.92H207.72V184.88H213.68V186.4H205.72V187.7H213.68V190.52H215.2V187.7H223.32V186.4ZM225.46 180.4V182.02H243.62V180.4H225.46Z" fill="#00A19B"/>
<path d="M201.26 226.38H197.42V228.46C197.42 229.66 197.84 229.96 199.32 229.96H202C203.06 229.96 203.44 229.6 203.58 228.26C203.22 228.18 202.74 228.02 202.48 227.84C202.42 228.78 202.32 228.9 201.84 228.9H199.46C198.8 228.9 198.68 228.82 198.68 228.44V227.42H202.58V224.04H197.04V225.08H201.26V226.38ZM194.82 226.38H190.9V228.46C190.9 229.66 191.28 229.96 192.76 229.96H195.24C196.26 229.96 196.64 229.62 196.78 228.32C196.42 228.26 195.94 228.1 195.68 227.9C195.62 228.78 195.52 228.9 195.04 228.9H192.88C192.24 228.9 192.14 228.82 192.14 228.46V227.42H196.08V224.04H190.54V225.08H194.82V226.38ZM195.14 232.8H198.42V234.7H195.14V232.8ZM203.46 234.7H199.84V232.8H202.84V231.66H199.84V230.22H198.42V231.66H195.14V230.22H193.76V231.66H190.8V232.8H193.76V234.7H190.16V235.86H203.46V234.7ZM203.16 238.52C202.22 237.78 200.58 236.82 199.12 236.12L198.06 236.78C199.44 237.48 200.88 238.42 201.72 239.16L203.16 238.52ZM194.42 236.08C193.54 236.88 192.06 237.64 190.7 238.18C191.02 238.38 191.56 238.86 191.8 239.12C193.12 238.48 194.72 237.5 195.74 236.54L194.42 236.08ZM189.78 227.06C189.22 226.06 187.9 224.68 186.72 223.74L185.58 224.5C186.74 225.48 188.02 226.9 188.54 227.9L189.78 227.06ZM189.32 231.1H185.48V232.5H187.94V237.66C187.06 238.5 186.08 239.34 185.24 239.96L186.02 241.34C186.98 240.46 187.88 239.62 188.72 238.74C189.96 240.32 191.78 241.04 194.42 241.14C196.68 241.22 201 241.18 203.26 241.08C203.32 240.66 203.56 240 203.74 239.68C201.3 239.84 196.64 239.9 194.38 239.8C192.04 239.7 190.26 239.02 189.32 237.52V231.1ZM220.56 226.92H216.7V225.04H220.56V226.92ZM221.94 224.04H215.34V227.92H221.94V224.04ZM212.34 226.92H208.52V225.04H212.34V226.92ZM213.74 224.04H207.18V227.92H213.74V224.04ZM209.16 234.68V232.96H213.68V234.68H209.16ZM209.16 230.12H213.68V231.82H209.16V230.12ZM219.96 231.82H215.2V230.12H219.96V231.82ZM219.96 234.68H215.2V232.96H219.96V234.68ZM223.32 237.4H215.2V235.88H221.48V228.92H207.72V235.88H213.68V237.4H205.72V238.7H213.68V241.52H215.2V238.7H223.32V237.4ZM225.46 231.4V233.02H243.62V231.4H225.46ZM180.78 281.2H188.32V283.16H180.78V281.2ZM191.64 285.92H185.5V284.28H189.8V280.08H179.36V284.28H184V285.92H177.58V291.64H179.06V287.28H184V292.54H185.5V287.28H190.14V290.08C190.14 290.32 190.04 290.38 189.74 290.4C189.44 290.42 188.38 290.42 187.18 290.38C187.38 290.78 187.62 291.32 187.7 291.74C189.24 291.74 190.24 291.74 190.86 291.5C191.48 291.28 191.64 290.88 191.64 290.1V285.92ZM189.7 274.42C189.32 275.14 188.6 276.2 188.04 276.86L189.24 277.36C189.82 276.76 190.58 275.84 191.24 274.96L189.7 274.42ZM192.86 277.36H185.38V274.26H183.88V277.36H179.7L180.94 276.8C180.6 276.14 179.9 275.16 179.24 274.46L177.92 275C178.52 275.72 179.18 276.7 179.48 277.36H176.28V281.62H177.7V278.66H191.4V281.62H192.86V277.36ZM199.68 282.9H209.32V284.98H199.68V282.9ZM199.68 279.58H209.32V281.64H199.68V279.58ZM199.68 276.3H209.32V278.34H199.68V276.3ZM208.3 290.96C207.44 290.96 207.28 290.86 207.28 290.28V286.3H210.82V274.96H198.24V286.3H200.94C200.52 288.86 199.46 290.42 195.36 291.24C195.66 291.54 196.08 292.16 196.2 292.54C200.74 291.5 202.02 289.5 202.5 286.3H205.78V290.3C205.78 291.92 206.28 292.36 208.16 292.36H211.38C213.06 292.36 213.5 291.64 213.68 288.74C213.26 288.64 212.62 288.4 212.3 288.14C212.22 290.6 212.06 290.96 211.26 290.96H208.3ZM222.16 276.32V278H217.86V276.32H222.16ZM217.86 280.92V279.1H222.16V280.92H217.86ZM223.58 282.12V275.12H216.4V292.54H217.86V282.12H223.58ZM226.76 285.16V288.46H222.06V285.16H226.76ZM228.14 289.72V283.9H220.7V290.92H222.06V289.72H228.14ZM226.78 280.94V279.1H231.22V280.94H226.78ZM231.22 276.3V278H226.78V276.3H231.22ZM232.72 275.12H225.36V282.12H231.22V290.52C231.22 290.9 231.1 291.02 230.74 291.02C230.34 291.04 229.04 291.06 227.74 291C227.94 291.4 228.18 292.1 228.26 292.52C230 292.52 231.14 292.5 231.84 292.26C232.48 292 232.72 291.5 232.72 290.52V275.12ZM251.18 280.5H246.42V279H251.18V280.5ZM251.18 283.02H246.42V281.54H251.18V283.02ZM251.18 285.58H246.42V284.08H251.18V285.58ZM245.08 277.9V286.68H252.56V277.9H248.86C249.04 277.44 249.24 276.9 249.42 276.38H253.36V275.24H244.32V276.38H248.04C247.92 276.88 247.76 277.42 247.6 277.9H245.08ZM249.5 287.58C250.6 288.32 251.9 289.46 252.56 290.26L253.64 289.56C252.98 288.8 251.68 287.7 250.52 287L249.5 287.58ZM246.74 287.02C245.98 287.94 244.7 288.84 243.44 289.42C243.74 289.62 244.22 290.12 244.44 290.36C245.7 289.64 247.12 288.52 247.98 287.42L246.74 287.02ZM241.9 277.68H238V276.2H241.9V277.68ZM241.9 280.24H238V278.72H241.9V280.24ZM243.26 275.1H236.66V281.34H243.26V275.1ZM240.72 287.24H244.1V286.1H240.72V283.96H244.44V282.8H235.48V283.96H239.44V289.28C238.84 288.8 238.34 288.16 237.96 287.34C238.04 286.6 238.08 285.82 238.12 285.06H236.88C236.78 287.5 236.44 290.18 235.24 291.62C235.56 291.84 236 292.3 236.18 292.58C236.94 291.66 237.42 290.38 237.7 288.94C239.5 291.62 242.48 292.1 246.8 292.1H253.22C253.3 291.7 253.54 291.14 253.76 290.82C252.6 290.86 247.68 290.86 246.8 290.86C244.34 290.84 242.3 290.72 240.72 290.04V287.24Z" fill="#4A4A4A"/>
<rect x="137" y="375" width="154.162" height="46" rx="4" fill="#00A19B"/>
<path d="M192.431 393.043H185.131V389.563H182.651V393.043H175.551V395.383H192.431V393.043ZM182.271 403.803C182.071 401.683 181.331 398.583 180.391 396.123L178.111 396.723C178.991 399.163 179.691 402.363 179.831 404.443L182.271 403.803ZM187.391 405.063C188.251 402.723 189.191 399.483 189.891 396.543L187.151 396.043C186.731 398.923 185.771 402.643 184.871 405.063H174.911V407.443H193.011V405.063H187.391ZM201.491 392.723V394.383H198.211V392.723H201.491ZM198.211 398.103V396.463H201.491V398.103H198.211ZM199.491 401.623C199.871 402.183 200.251 402.803 200.611 403.423L198.211 404.023V400.303H203.691V390.523H195.931V404.543C195.451 404.663 194.991 404.763 194.591 404.843L195.271 407.283C197.091 406.783 199.431 406.143 201.691 405.503C201.991 406.143 202.231 406.743 202.371 407.263L204.471 406.203C203.971 404.663 202.651 402.403 201.411 400.723L199.491 401.623ZM212.531 390.483H204.811V408.203H207.231V392.883H210.071V402.483C210.071 402.743 209.991 402.843 209.731 402.843C209.451 402.843 208.631 402.863 207.851 402.803C208.211 403.463 208.591 404.683 208.671 405.403C209.951 405.403 210.891 405.343 211.631 404.903C212.351 404.463 212.531 403.683 212.531 402.563V390.483ZM221.011 392.003V393.023H217.871V392.003H221.011ZM217.871 395.663V394.583H221.011V395.663H217.871ZM223.251 397.383V390.303H215.551V408.223H217.871V397.383H223.251ZM222.931 401.783V400.283H224.791V401.783H222.931ZM229.071 403.723V401.783H226.871V400.283H228.751V398.403H219.091V400.283H220.911V401.783H218.811V403.723H220.831C220.631 404.743 220.071 406.043 218.791 406.843C219.251 407.163 219.971 407.783 220.311 408.203C222.011 407.043 222.671 405.103 222.871 403.723H224.791V407.843H226.871V403.723H229.071ZM226.831 395.703V394.583H230.071V395.703H226.831ZM230.071 392.003V393.023H226.831V392.003H230.071ZM232.411 390.303H224.571V397.423H230.071V405.423C230.071 405.703 229.971 405.823 229.651 405.823C229.351 405.843 228.371 405.843 227.471 405.803C227.791 406.423 228.111 407.503 228.191 408.163C229.711 408.163 230.751 408.103 231.471 407.703C232.191 407.323 232.411 406.663 232.411 405.443V390.303ZM239.611 399.943C239.711 398.883 239.751 397.883 239.751 397.023H248.551V399.943H239.611ZM239.751 394.823V393.423C243.451 392.983 247.511 392.283 250.551 391.343L248.651 389.563C246.291 390.383 242.471 391.103 238.911 391.543L237.331 391.103V396.923C237.331 399.823 237.091 403.763 234.631 406.603C235.231 406.903 236.171 407.703 236.531 408.223C238.051 406.523 238.851 404.303 239.291 402.143H248.551V403.163H250.971V394.823H239.751Z" fill="white"/>
<rect x="25" y="41" width="378" height="61.3636" fill="white"/>
<path d="M176.444 64.5435C174.923 66.5497 173.085 68.2988 171.002 69.7234L169.577 66.8028C171.21 65.6989 172.657 64.3441 173.862 62.7893C174.713 63.3679 175.564 63.9649 176.444 64.5435Z" fill="#009D95"/>
<path d="M188.634 63.3035H177.463V66.2883H188.634V63.3035Z" fill="#009D95"/>
<path d="M189.452 69.4846V72.3776H186.481L186.417 80.6434C186.345 80.9722 186.198 81.2805 185.988 81.5447C185.778 81.8089 185.51 82.022 185.204 82.168C183.835 82.7374 182.104 82.5261 180.577 82.5261L179.392 79.5137L183.039 79.4494C183.193 79.3649 183.311 79.2279 183.372 79.0637V72.4327L176.44 72.35C176.44 71.6245 176.44 70.8714 176.375 70.2101C176.076 70.7334 175.742 71.2366 175.376 71.7163V82.6823H172.331C172.331 80.3036 172.331 77.8881 172.331 75.5094C171.813 75.9043 171.331 76.3819 170.85 76.8044L169.48 73.5532C171.447 72.0047 173.088 70.0889 174.311 67.9141L176.44 69.457L189.452 69.4846Z" fill="#009D95"/>
<path d="M161.788 78.7513C161.548 78.8156 161.668 78.5401 161.455 78.5401C161.39 78.3289 161.187 78.2738 161.039 78.1176C160.891 77.9615 160.724 77.9156 160.761 77.6125C160.844 77.6125 160.761 77.3094 160.974 77.4288V77.337C161.215 77.2031 161.447 77.0527 161.668 76.8869C161.733 76.7951 161.881 76.7951 161.918 76.6757C161.955 76.5563 162.001 76.6757 162.066 76.6757V76.6114C162.066 76.5471 162.186 76.6114 162.214 76.6114V76.5288C162.214 76.4645 162.307 76.5288 162.334 76.5288V76.4645C162.334 76.4002 162.455 76.4645 162.492 76.4645V76.3726C162.547 76.3083 162.612 76.3726 162.667 76.3726V76.2808C162.667 76.2808 162.732 76.2808 162.76 76.2808V76.2257C162.76 76.1614 162.853 76.2257 162.89 76.2257V75.7389C162.64 75.6838 162.76 75.3164 162.492 75.2613C162.399 75.2613 162.492 75.0776 162.371 75.1419C162.242 75.0225 162.279 74.8389 162.121 74.7746C161.964 74.7103 162.029 74.5358 161.946 74.4807C161.862 74.4256 161.825 74.1776 161.668 74.1409C161.597 73.8857 161.436 73.6642 161.214 73.5163C161.159 73.5714 161.122 73.6633 161.002 73.6357C160.881 73.6082 161.002 73.7184 161.002 73.7184C160.631 73.8745 160.391 74.297 159.993 74.4439C159.873 74.6276 159.66 74.6827 159.484 74.8113C159.308 74.9399 159.234 74.6552 159.141 74.5633C159.086 74.1776 158.753 73.6449 159.141 73.3602H162.177V63.1106H152.552L152.496 66.1873C151.151 65.3463 150.061 64.1593 149.341 62.7524H146.629C145.69 64.4646 144.412 65.9705 142.872 67.1792C143.205 68.2354 143.566 69.3467 143.991 70.4029L144.778 69.9253C144.935 70.0723 144.843 70.3753 144.871 70.5866H146.416C146.416 70.8345 146.416 71.1009 146.416 71.3397H143.381V73.9939L146.444 74.0582V78.9075L145.898 79.1463L143.316 79.3575L143.473 82.3699C146.083 82.0117 148.665 81.525 151.182 80.9831C151.673 81.1943 151.395 81.9015 151.488 82.3056C151.763 82.4023 152.064 82.4023 152.339 82.3056C152.793 82.3699 152.913 82.0393 153.366 82.1587C153.496 81.9199 153.94 82.1587 154.098 81.9842C154.66 81.9082 155.216 81.7947 155.763 81.6444C156.117 81.6039 156.465 81.5238 156.8 81.4056C157.133 81.3137 157.624 81.4056 157.864 81.1392V79.2105L158.012 79.1187C158.099 79.1597 158.173 79.2231 158.227 79.3022C158.281 79.3814 158.312 79.4734 158.318 79.5687C158.503 79.633 158.531 79.8718 158.716 79.9636C158.901 80.0555 158.716 80.1749 158.836 80.1106C158.836 80.4137 159.197 80.3218 159.197 80.6249C159.475 80.68 159.475 81.0198 159.715 81.0749C159.808 81.3137 160.021 81.378 160.169 81.525C160.317 81.6719 160.511 81.7086 160.511 81.9474C160.733 82.056 160.936 82.1986 161.113 82.3699C161.326 82.3699 161.233 82.4342 161.446 82.3699C161.587 82.1697 161.711 81.9577 161.816 81.7362C161.936 81.6444 161.992 81.4699 162.112 81.4056C162.232 81.3413 162.269 81.2219 162.269 81.0749C162.418 81.0749 162.418 80.8913 162.482 80.8086C162.645 80.5989 162.788 80.3744 162.908 80.1381C163.028 80.1381 163.028 79.9912 163.121 79.8718V79.6881C162.667 79.4483 162.255 79.1383 161.899 78.7697L161.788 78.7513ZM148.017 66.2975C148.549 66.7301 148.992 67.2602 149.322 67.8589H146.953C147.258 67.295 147.614 66.7601 148.017 66.2608V66.2975ZM152.543 79.2473H151.876C151.876 78.8524 151.876 78.4666 151.876 78.0993C151.756 78.0993 151.728 77.9799 151.701 77.9248C151.997 76.9237 152.117 75.9042 152.33 74.9123C151.607 74.6769 150.868 74.4957 150.118 74.3705L149.479 77.438L149.544 77.5941L151.238 77.9799C150.601 78.1958 149.938 78.3286 149.267 78.3748V74.0858H152.089V71.3305L149.313 71.2754V70.6049C149.942 70.5498 150.618 70.6049 151.284 70.6049C151.334 70.2274 151.356 69.8468 151.349 69.4661C151.497 69.31 151.645 69.5855 151.802 69.5855C152.126 69.163 152.284 68.612 152.561 68.1987L152.543 79.2473ZM155.643 66.1965L155.791 66.0771H159.067C159.215 66.3159 159.132 66.7108 159.16 67.0415L159.067 67.1058H155.791C155.486 66.9864 155.699 66.4996 155.643 66.1873V66.1965ZM155.486 78.7238V73.5439C155.671 73.3878 156.309 73.2684 156.245 73.7459C156.457 75.2937 156.874 76.8069 157.485 78.2462C156.841 78.4918 156.17 78.6613 155.486 78.7513V78.7238ZM155.726 70.7335C155.623 70.4108 155.623 70.0644 155.726 69.7416H159.067C159.28 69.9529 159.16 70.3753 159.188 70.66C158.045 70.7384 156.899 70.7568 155.754 70.7151" fill="#009D95"/>
<path d="M143.941 78.8158C144.432 78.7239 144.913 78.6045 145.394 78.5127C145.58 78.4208 145.885 78.4484 145.95 78.2739C145.95 77.034 145.672 75.8584 145.617 74.7104C145.311 74.5084 144.941 74.7104 144.608 74.7104C144.275 74.7104 143.784 74.9216 143.368 75.0135L143.571 78.779L143.673 78.8341C143.784 78.8341 143.914 78.8984 143.941 78.779" fill="#009D95"/>
<path d="M76.944 66.434C78.0005 69.1427 78.2051 72.1055 77.5311 74.932C76.857 77.7585 75.3359 80.316 73.1681 82.2675C71.2261 83.9854 68.8636 85.1669 66.3169 85.694C63.7702 86.221 61.1287 86.0751 58.6567 85.2708C55.9716 84.3991 53.6039 82.7634 51.8481 80.5671C50.0922 78.3707 49.0257 75.7106 48.7812 72.9176C48.5366 70.1245 49.1248 67.3217 50.4725 64.8577C51.8203 62.3937 53.8682 60.3772 56.3615 59.059C58.7876 57.8004 61.5142 57.2241 64.2465 57.3924C66.9788 57.5608 69.6127 58.4674 71.8632 60.0142C74.1486 61.6303 75.9211 63.8608 76.9718 66.4431" fill="#009D95"/>
<path d="M62.6103 64.0381C63.1286 63.8911 63.7857 63.4962 64.304 63.8911C64.6649 64.433 65.6644 64.6075 65.3868 65.3606C65.8968 66.0404 66.4872 66.6571 67.1452 67.1974C67.2932 67.1974 67.3488 67.1331 67.4136 67.0413L67.2377 66.9495C67.4413 66.7658 67.9596 67.0688 68.2927 66.8852C68.4166 66.8793 68.5403 66.9001 68.6553 66.946C68.7703 66.992 68.8739 67.0621 68.9591 67.1515C69.0622 67.4268 69.1924 67.6914 69.3478 67.9413L69.4681 67.8771C69.5828 68.1354 69.7126 68.3868 69.8568 68.6302C70.9489 68.9883 71.4671 70.2741 72.4296 70.816C73.5894 71.7377 74.8727 72.495 76.2426 73.0661C76.1778 73.2406 76.3906 73.2406 76.4832 73.3049C76.2996 73.1963 76.0838 73.1541 75.8724 73.1855C76.0575 73.4519 76.5109 73.3325 76.6035 73.6356H76.1222C76.1222 73.7274 76.2426 73.7274 76.2981 73.7549C76.0575 73.6631 75.8168 73.8468 75.6595 73.5437C74.6963 73.0959 73.7682 72.5771 72.8831 71.9916V71.9916C73.6352 72.6145 74.4584 73.1477 75.3356 73.5804C75.604 73.7274 75.9927 73.8192 76.15 74.0856C76.0575 74.0856 75.9001 74.0856 75.8724 74.2417L75.6595 74.1223C75.604 74.1223 75.6595 74.205 75.6595 74.2417L75.8076 74.3611C74.6915 73.8924 73.6453 73.2744 72.698 72.5243C72.2445 72.2212 71.7725 71.9824 71.3376 71.6058C71.282 71.6058 71.1895 71.6058 71.1525 71.6701C71.6707 72.0559 72.2168 72.2947 72.7258 72.6528C71.6755 72.175 70.7317 71.4944 69.9493 70.6507C69.6254 70.3201 69.1349 69.6312 68.5611 69.7323C68.3575 69.8608 68.0244 69.8241 67.7837 69.9435C67.5431 70.0629 67.4413 69.7323 67.2655 69.8884C67.1174 70.219 66.6362 69.9435 66.5436 70.3109C66.2382 70.4303 65.6922 70.3109 65.6181 70.6966V70.8436C65.0073 71.1191 64.1929 71.0272 63.7672 71.5967C63.6376 71.7161 63.397 71.5967 63.2767 71.7161C63.2767 71.6609 63.2767 71.5967 63.1934 71.5967C63.1101 71.5967 62.9435 71.6885 62.8232 71.7161C62.7307 71.5691 62.9435 71.5324 62.9158 71.4497C62.6474 71.3303 62.5271 71.6885 62.3142 71.8079C62.3142 71.5691 62.6196 71.5324 62.7029 71.3303C62.5548 71.2385 62.4345 71.3854 62.3142 71.413C62.3697 71.413 62.4993 71.1834 62.3142 71.1834C62.4623 70.9354 62.7954 71.0272 62.888 70.7609H62.6103L63.3322 70.1915C63.2397 70.1915 63.0638 69.9435 62.9065 70.1915C62.9065 70.1915 62.9713 70.1364 62.9065 70.1088C62.8417 70.0813 62.6289 70.1915 62.4808 70.1915C62.4808 70.1915 62.4808 70.1088 62.4253 70.0721H62.3327C62.4253 70.017 62.5456 69.8608 62.6566 69.769L62.6103 69.8241C63.0638 69.5578 63.5358 69.2547 63.9708 69.0435L64.0633 68.9516C64.0329 68.9166 63.9953 68.8886 63.953 68.8693C63.9106 68.8501 63.8646 68.8401 63.8181 68.8401C63.7715 68.8401 63.7255 68.8501 63.6832 68.8693C63.6409 68.8886 63.6032 68.9166 63.5728 68.9516C63.9708 68.9516 63.5728 68.5016 63.9986 68.4465C64.0453 68.2931 64.1226 68.1507 64.2259 68.0276C64.3293 67.9045 64.4565 67.8034 64.6001 67.7301C64.2114 67.3627 64.0633 66.7015 63.6099 66.4994C63.6099 66.2239 63.3045 66.4994 63.2767 66.2239C62.7307 66.2239 62.0921 66.4627 61.7312 65.9851C61.4259 65.9227 61.111 65.9227 60.8057 65.9851C60.6071 66.2066 60.4447 66.4576 60.3244 66.729C60.1258 66.9524 59.9606 67.2029 59.8339 67.473C59.5721 67.8783 59.1954 68.1978 58.7511 68.3914V68.3914C58.418 68.8414 57.6961 68.6669 57.2704 69.1445V69.0251C57.2388 69.0154 57.2055 69.0123 57.1726 69.016C57.1398 69.0196 57.108 69.0299 57.0794 69.0463C57.0507 69.0627 57.0258 69.0848 57.0061 69.1111C56.9864 69.1375 56.9724 69.1676 56.965 69.1996V69.2639C56.7521 69.1996 56.604 69.4384 56.5115 69.5578C55.9932 70.0996 55.151 70.0996 54.605 70.5497C54.5495 70.5497 54.605 70.5497 54.605 70.5497C53.6055 70.7609 53.1243 71.4681 52.4579 72.2304C52.2483 72.4981 52.0058 72.7387 51.7361 72.9467C51.8008 73.1855 51.4306 73.2774 51.3103 73.3968C51.4306 73.1855 51.7083 73.011 51.7361 72.7722C51.4954 72.8916 51.4306 73.158 51.1623 73.2774C51.0142 73.158 51.3103 73.0661 51.2178 72.9467L50.8569 73.2223L51.19 72.7722C51.0142 72.7722 50.8291 73.1029 50.6162 73.1304C50.5607 73.2223 50.4682 73.2223 50.3478 73.2223C50.5297 73.0764 50.6999 72.9167 50.8569 72.7447C50.644 72.6253 50.4034 72.8916 50.2553 72.8641C50.1072 72.8365 50.2553 72.6804 50.0795 72.7447C50.2351 72.6538 50.3606 72.5197 50.4404 72.3589C50.3201 72.3589 50.1628 72.4141 50.0424 72.4783C50.0424 72.3222 50.3756 72.2304 50.2831 71.9916C49.8944 71.9365 49.9499 72.3222 49.626 72.4141C49.9499 71.964 50.4404 71.6977 50.7643 71.2201C51.4154 70.5888 52.1617 70.0621 52.9762 69.6588C53.6055 69.3006 54.4477 69.1261 54.9104 68.52C55.0914 68.3052 55.2525 68.0747 55.3917 67.8311C55.4842 67.8311 55.512 67.776 55.5397 67.7117C55.9824 67.4299 56.4947 67.2742 57.0205 67.2617C57.2611 67.0229 57.7146 67.1699 57.946 66.8392C58.5753 66.0953 58.8252 65.1677 59.3619 64.4146C59.547 64.1758 59.7599 63.7809 60.1208 63.6982C60.9591 63.7389 61.7921 63.8526 62.6103 64.0381" fill="white"/>
<path d="M69.3543 67.6016L69.2363 67.2158L69.3543 67.5465V67.6016Z" fill="white"/>
<path d="M69.5704 68.2081C69.4501 68.2081 69.4779 68.0887 69.4224 67.9968C69.4952 68.0478 69.5476 68.1226 69.5704 68.2081Z" fill="white"/>
<path d="M55.1481 68.3916C55.0648 68.2171 55.3054 68.162 55.398 68.0059C55.3637 68.1599 55.2751 68.2967 55.1481 68.3916" fill="#00A28D"/>
<path d="M58.0581 68.4761V68.4468H58.1497L58.0581 68.4761Z" fill="#00A28D"/>
<path d="M57.4166 68.658C57.3611 68.7131 57.3333 68.8049 57.2408 68.7774C57.1482 68.7498 57.3611 68.5937 57.4166 68.658Z" fill="#00A28D"/>
<path d="M63.2233 69.163C63.0752 69.2824 62.7698 69.3743 62.742 69.5579C62.4736 69.5579 62.2885 69.7967 62.0757 69.7967C62.0757 69.5579 62.4736 69.7049 62.5014 69.4661L62.742 69.2824V69.3743C62.8346 69.2824 63.14 69.3743 63.0474 69.1079L63.2233 69.163Z" fill="white"/>
<path d="M62.2609 69.3101C62.2266 69.3718 62.1789 69.4252 62.1213 69.4665C62.0637 69.5078 61.9976 69.5359 61.9277 69.5488C61.9833 69.4019 62.1036 69.4019 62.2609 69.3101Z" fill="white"/>
<path d="M56.0259 69.7048C56.0894 69.7967 55.9714 69.7048 55.9351 69.7691C55.8988 69.8334 55.9986 69.7048 56.0259 69.7048Z" fill="#00A28D"/>
<path d="M62.9243 69.8518H62.834V69.9432H62.9243V69.8518Z" fill="white"/>
<path d="M62.709 70.063C62.709 70.1273 62.6442 70.1273 62.6165 70.1824H62.5239C62.5239 70.0905 62.5887 70.063 62.6442 70.0354C62.6998 70.0079 62.6442 70.0354 62.709 70.0354" fill="white"/>
<path d="M63.2853 70.6325C63.2853 70.7519 63.1002 70.7519 63.0447 70.7795C62.9892 70.807 63.0447 70.7244 63.0447 70.6601C63.0447 70.5958 63.165 70.605 63.2576 70.6601" fill="white"/>
<path d="M63.3429 70.8164C63.3429 70.9358 63.1022 70.9358 62.9819 71.0277C62.9819 70.9083 63.13 70.844 63.2226 70.7889C63.3151 70.7338 63.3429 70.7889 63.3429 70.7889" fill="#00A28D"/>
<path d="M70.5984 71.1468C70.7188 71.2019 70.7835 71.3489 70.8761 71.4407L70.7835 71.5326C70.5888 71.3324 70.4321 71.0991 70.3208 70.8438C70.4133 70.9356 70.4781 71.0825 70.5984 71.1468Z" fill="#00A28D"/>
<path d="M74.9485 72.7081C74.8559 72.7632 74.7356 72.6438 74.6523 72.6162L74.9485 72.7081Z" fill="white"/>
<path d="M75.7975 73.1583C75.5476 73.0021 75.2237 73.0021 75.0386 72.8276C75.3163 72.8703 75.5779 72.9842 75.7975 73.1583" fill="white"/>
<path d="M73.1378 73.1216L72.7676 72.8552L73.0082 72.9746L73.1378 73.1216Z" fill="white"/>
<path d="M75.707 74.0217L75.7343 73.9666L75.825 74.0217H75.707Z" fill="white"/>
<path d="M75.5599 74.1776H75.4419V74.1133C75.4419 74.1133 75.5236 74.1133 75.5599 74.1776Z" fill="white"/>
<path d="M128.112 77.9337H132.518V65.2135H135.673V82.1584H132.518V81.0196L120.385 80.9828L120.357 82.0758H117.108V65.0666H120.357V77.9337L124.827 77.9061V62.293H128.112V77.9337Z" fill="#009D95"/>
<path d="M108.475 65.8107L101.303 65.8291L101.247 65.8842V70.2192L107.994 70.2834V73.351H101.22L101.183 78.8156L109.354 78.8431V81.9841H89.7622V78.8707L97.9064 78.8431V73.3877L91.2152 73.351V70.2559H97.9064V65.8016L90.7617 65.7281V62.6514H108.475V65.8107Z" fill="#009D95"/>
<path d="M106.475 75.0775C106.619 75.3118 106.714 75.5722 106.756 75.8434C106.797 76.1146 106.783 76.3912 106.716 76.6572C106.627 76.9627 106.464 77.2419 106.241 77.4708C106.019 77.6996 105.743 77.8712 105.439 77.9706C105.063 78.0819 104.663 78.0811 104.288 77.9685C103.913 77.8558 103.579 77.6361 103.329 77.3368C103.164 77.1402 103.041 76.913 102.967 76.6686C102.892 76.4241 102.867 76.1674 102.894 75.9133C102.94 75.5415 103.093 75.1907 103.334 74.9025C103.575 74.6143 103.894 74.401 104.254 74.2877C104.66 74.1609 105.097 74.1695 105.498 74.3121C105.899 74.4547 106.242 74.7235 106.475 75.0775" fill="#009D95"/>
<g clip-path="url(#clip0_4_1431)">
<path opacity="0.2" d="M200.091 82.7341C199.874 82.7341 199.666 82.6479 199.513 82.4944C199.359 82.341 199.273 82.1329 199.273 81.9159V63.0977C199.273 62.8807 199.359 62.6726 199.513 62.5192C199.666 62.3657 199.874 62.2795 200.091 62.2795C200.308 62.2795 200.516 62.3657 200.67 62.5192C200.823 62.6726 200.909 62.8807 200.909 63.0977V81.9159C200.909 82.1329 200.823 82.341 200.67 82.4944C200.516 82.6479 200.308 82.7341 200.091 82.7341V82.7341Z" fill="#54565A"/>
</g>
<path d="M255.484 65.5984V66.5167C255.504 66.4606 255.534 66.4086 255.573 66.3636C255.613 66.3218 255.659 66.2857 255.709 66.2565C255.759 66.2251 255.814 66.2019 255.871 66.1876C255.929 66.1801 255.988 66.1801 256.046 66.1876C256.156 66.1854 256.266 66.2076 256.367 66.2527C256.457 66.2966 256.535 66.3608 256.595 66.4401C256.658 66.5197 256.704 66.6107 256.731 66.708C256.788 66.9212 256.788 67.1452 256.731 67.3584C256.703 67.4553 256.657 67.5462 256.595 67.6262C256.535 67.7044 256.457 67.7673 256.367 67.8099C256.267 67.8581 256.157 67.8818 256.046 67.8788C255.922 67.8807 255.8 67.849 255.693 67.7869C255.591 67.7287 255.512 67.6384 255.469 67.5306V67.5306V67.8329H255.287V65.5984H255.484ZM256.553 66.7654C256.535 66.6879 256.503 66.6142 256.46 66.5473C256.417 66.4848 256.362 66.4315 256.297 66.3904C256.222 66.3509 256.138 66.3312 256.053 66.333C255.962 66.3299 255.872 66.3497 255.79 66.3904C255.72 66.4301 255.66 66.4835 255.612 66.5473C255.567 66.614 255.535 66.6877 255.515 66.7654C255.495 66.8468 255.485 66.9303 255.484 67.0141C255.485 67.0966 255.495 67.1788 255.515 67.2589C255.534 67.338 255.567 67.4131 255.612 67.4808C255.66 67.5446 255.72 67.598 255.79 67.6377C255.872 67.6785 255.962 67.6982 256.053 67.6951C256.138 67.697 256.222 67.6772 256.297 67.6377C256.363 67.5921 256.418 67.5335 256.46 67.4655C256.504 67.3976 256.536 67.3225 256.553 67.2436C256.575 67.1639 256.585 67.0814 256.584 66.9988C256.584 66.92 256.573 66.8415 256.553 66.7654V66.7654Z" fill="#54565A"/>
<path d="M257.117 66.2144L257.652 67.5803L258.151 66.2144H258.356L257.652 68.0547C257.633 68.1151 257.61 68.1739 257.582 68.2307C257.561 68.2695 257.534 68.3045 257.501 68.334C257.469 68.3612 257.432 68.3809 257.392 68.3914C257.341 68.3983 257.289 68.3983 257.237 68.3914H257.144C257.125 68.3958 257.105 68.3958 257.086 68.3914V68.2307H257.152H257.195C257.23 68.2393 257.267 68.2393 257.303 68.2307C257.331 68.22 257.356 68.203 257.377 68.181C257.398 68.1564 257.416 68.1294 257.431 68.1006C257.431 68.07 257.462 68.0356 257.477 68.0012L257.547 67.8213L256.9 66.2258L257.117 66.2144Z" fill="#54565A"/>
<path d="M261.002 65.5984V65.7782H259.67V66.5779H260.917V66.7577H259.67V67.6339H261.017V67.8137H259.468V65.5984H261.002Z" fill="#54565A"/>
<path d="M261.396 67.4849H261.659V67.8139H261.396V67.4849Z" fill="#54565A"/>
<path d="M262.341 67.37C262.378 67.4433 262.432 67.5064 262.5 67.5536C262.57 67.6004 262.649 67.6341 262.732 67.6531C262.828 67.6722 262.925 67.6812 263.022 67.6799C263.086 67.6791 263.15 67.6714 263.212 67.6569C263.281 67.6421 263.347 67.6149 263.406 67.5766C263.465 67.542 263.515 67.495 263.553 67.4388C263.596 67.3784 263.617 67.3059 263.615 67.2322C263.616 67.1758 263.601 67.1201 263.572 67.0715C263.545 67.0263 263.508 66.9872 263.464 66.9567C263.418 66.9238 263.367 66.898 263.313 66.8802C263.261 66.8607 263.208 66.8441 263.154 66.8305L262.655 66.7004C262.59 66.6858 262.526 66.6653 262.465 66.6392C262.405 66.6167 262.349 66.5829 262.302 66.5397C262.254 66.4985 262.216 66.4476 262.19 66.3905C262.16 66.3202 262.146 66.2446 262.147 66.1685C262.149 66.105 262.16 66.042 262.178 65.9811C262.203 65.9046 262.244 65.8341 262.298 65.7745C262.364 65.7038 262.445 65.6478 262.535 65.6099C262.658 65.563 262.79 65.5409 262.922 65.5449C263.029 65.5452 263.136 65.5593 263.239 65.587C263.334 65.6147 263.423 65.6587 263.503 65.7171C263.577 65.7761 263.638 65.8505 263.681 65.9352C263.729 66.0272 263.753 66.1299 263.75 66.2336H263.537C263.535 66.1562 263.515 66.0804 263.479 66.0117C263.445 65.9511 263.399 65.8979 263.344 65.8548C263.286 65.811 263.22 65.7785 263.15 65.7591C263.076 65.7357 262.999 65.724 262.922 65.7247C262.851 65.7246 262.781 65.7323 262.713 65.7477C262.649 65.7614 262.588 65.7874 262.535 65.8242C262.482 65.8579 262.438 65.9039 262.407 65.9581C262.374 66.022 262.358 66.0931 262.36 66.1647C262.36 66.2107 262.37 66.2562 262.387 66.2986C262.405 66.3362 262.43 66.37 262.461 66.3981C262.493 66.4255 262.53 66.4475 262.569 66.4632L262.701 66.5052L263.247 66.6353C263.328 66.6583 263.402 66.6851 263.472 66.7119C263.539 66.7412 263.601 66.7799 263.658 66.8266C263.711 66.8697 263.754 66.9248 263.781 66.9873C263.814 67.0608 263.83 67.1405 263.828 67.2207C263.828 67.2437 263.828 67.2781 263.828 67.3202C263.82 67.3712 263.803 67.4203 263.778 67.4656C263.757 67.5172 263.729 67.565 263.692 67.6072C263.652 67.6609 263.601 67.7053 263.541 67.7373C263.468 67.7805 263.388 67.8115 263.305 67.8291C263.074 67.885 262.832 67.885 262.6 67.8291C262.496 67.802 262.397 67.7553 262.31 67.6913C262.231 67.6266 262.168 67.5439 262.128 67.4503C262.083 67.34 262.064 67.2208 262.074 67.1021H262.287C262.285 67.1942 262.303 67.2856 262.341 67.37V67.37Z" fill="#54565A"/>
<path d="M264.36 65.5984V66.972C264.358 67.0818 264.373 67.1914 264.403 67.2972C264.428 67.3804 264.473 67.4564 264.534 67.5191C264.591 67.5764 264.662 67.6185 264.74 67.6415C264.922 67.6926 265.115 67.6926 265.297 67.6415C265.375 67.6185 265.446 67.5764 265.502 67.5191C265.563 67.4564 265.608 67.3804 265.634 67.2972C265.664 67.1914 265.678 67.0818 265.677 66.972V65.5984H265.89V67.0179C265.891 67.1283 265.874 67.2381 265.839 67.3431C265.809 67.4422 265.758 67.5336 265.688 67.6109C265.612 67.6892 265.519 67.7505 265.417 67.7908C265.16 67.8838 264.877 67.8838 264.619 67.7908C264.517 67.7505 264.425 67.6892 264.348 67.6109C264.279 67.5336 264.227 67.4422 264.197 67.3431C264.163 67.2381 264.146 67.1283 264.147 67.0179V65.5984H264.36Z" fill="#54565A"/>
<path d="M266.554 65.5984L267.859 67.4655V65.5984H268.072V67.8137H267.832L266.535 65.9351V67.8099H266.322V65.5984H266.554Z" fill="#54565A"/>
<path d="M270.362 65.5985C270.454 65.5975 270.546 65.6065 270.637 65.6252C270.718 65.6424 270.795 65.6735 270.865 65.7171C270.93 65.7591 270.985 65.8154 271.024 65.8816C271.065 65.9621 271.085 66.0516 271.082 66.1418C271.083 66.199 271.074 66.2559 271.055 66.3101C271.037 66.3643 271.01 66.4149 270.974 66.4593C270.941 66.5041 270.9 66.543 270.854 66.5741C270.805 66.6051 270.751 66.6272 270.695 66.6392V66.6392C270.828 66.6538 270.951 66.7165 271.04 66.8152C271.13 66.9222 271.175 67.0589 271.167 67.1978C271.167 67.2322 271.167 67.2705 271.167 67.3164C271.159 67.3623 271.146 67.4072 271.129 67.4503C271.108 67.501 271.081 67.5487 271.047 67.5919C271.007 67.639 270.958 67.6791 270.904 67.7105C270.834 67.748 270.76 67.7763 270.683 67.7947C270.58 67.8163 270.475 67.8265 270.37 67.8253H269.421V65.5985H270.362ZM270.362 66.5703C270.438 66.5714 270.514 66.5611 270.586 66.5397C270.644 66.5231 270.698 66.4958 270.745 66.4593C270.784 66.4262 270.815 66.3859 270.838 66.3407C270.858 66.2947 270.869 66.2453 270.869 66.1953C270.869 65.916 270.699 65.7783 270.362 65.7783H269.63V66.5703H270.362ZM270.362 67.634C270.438 67.6336 270.515 67.6272 270.59 67.6148C270.647 67.5989 270.7 67.5744 270.749 67.5421C270.805 67.5078 270.851 67.4588 270.881 67.4006C270.914 67.3313 270.93 67.2552 270.927 67.1787C270.93 67.117 270.918 67.0556 270.892 66.9996C270.865 66.9437 270.826 66.8948 270.776 66.8573C270.652 66.7826 270.508 66.7454 270.362 66.7501H269.63V67.634H270.362Z" fill="#54565A"/>
<path d="M271.5 66.463C271.532 66.3977 271.578 66.3403 271.636 66.2947C271.696 66.2485 271.766 66.2159 271.841 66.199C271.924 66.1766 272.01 66.1663 272.096 66.1684C272.167 66.1607 272.239 66.1607 272.309 66.1684C272.379 66.1795 272.445 66.2056 272.503 66.2449C272.563 66.2834 272.612 66.3377 272.642 66.4018C272.684 66.4956 272.699 66.5988 272.685 66.7002V67.5305C272.685 67.6109 272.724 67.6491 272.801 67.6491C272.823 67.6531 272.845 67.6531 272.867 67.6491V67.8136H272.805H272.735C272.696 67.8207 272.655 67.8207 272.615 67.8136C272.587 67.8009 272.563 67.7811 272.546 67.7563C272.529 67.7289 272.518 67.6992 272.511 67.6682C272.509 67.63 272.509 67.5917 272.511 67.5535V67.5535C272.478 67.6022 272.442 67.6483 272.402 67.6912C272.367 67.7318 272.325 67.7667 272.278 67.7945C272.23 67.8218 272.178 67.8424 272.124 67.8557C272.053 67.8629 271.981 67.8603 271.911 67.8481C271.84 67.8472 271.77 67.8382 271.701 67.8213C271.638 67.805 271.579 67.7764 271.527 67.7371C271.477 67.6988 271.437 67.6489 271.411 67.5917C271.382 67.5253 271.368 67.4536 271.368 67.3813C271.363 67.2877 271.389 67.1948 271.442 67.1173C271.495 67.0535 271.565 67.0047 271.643 66.9757C271.733 66.9398 271.826 66.9154 271.922 66.903L272.24 66.8648H272.348C272.376 66.8617 272.403 66.8512 272.426 66.8342C272.448 66.8178 272.466 66.7952 272.476 66.7691C272.483 66.735 272.483 66.6999 272.476 66.6658C272.478 66.6094 272.467 66.5532 272.445 66.5013C272.424 66.4605 272.391 66.4261 272.352 66.4018C272.311 66.3749 272.265 66.3567 272.216 66.3482C272.162 66.3442 272.108 66.3442 272.054 66.3482C271.944 66.3423 271.834 66.3733 271.744 66.4362C271.703 66.4708 271.67 66.5144 271.649 66.5635C271.627 66.6126 271.617 66.6659 271.62 66.7194H271.423C271.43 66.6295 271.456 66.5421 271.5 66.463V66.463ZM272.491 66.9413C272.473 66.9646 272.447 66.9809 272.418 66.9872L272.325 67.0102L272.065 67.0484C271.983 67.0591 271.901 67.0771 271.822 67.102C271.755 67.1205 271.692 67.1531 271.64 67.1976C271.615 67.2216 271.597 67.2503 271.585 67.282C271.573 67.3137 271.567 67.3475 271.57 67.3813C271.569 67.4265 271.58 67.4711 271.601 67.5114C271.62 67.5491 271.646 67.5829 271.678 67.6109C271.713 67.6384 271.752 67.6603 271.794 67.6759C271.839 67.6815 271.885 67.6815 271.93 67.6759C272.004 67.6763 272.077 67.6647 272.147 67.6415C272.214 67.6229 272.276 67.5902 272.329 67.5458C272.38 67.5001 272.422 67.4457 272.453 67.3851C272.482 67.3187 272.496 67.247 272.495 67.1747V66.9413H272.491Z" fill="#54565A"/>
<path d="M273.285 66.2145V66.49C273.324 66.3922 273.395 66.31 273.487 66.2566C273.582 66.1976 273.692 66.167 273.804 66.1686C273.901 66.1647 273.999 66.179 274.091 66.2107C274.16 66.2369 274.223 66.2788 274.273 66.3331C274.32 66.3897 274.353 66.4566 274.37 66.5283C274.391 66.6121 274.401 66.6982 274.4 66.7846V67.8138H274.199V66.8152C274.205 66.7516 274.205 66.6875 274.199 66.6239C274.187 66.5694 274.164 66.5175 274.133 66.4709C274.099 66.4278 274.055 66.3925 274.006 66.3676C273.941 66.3427 273.873 66.331 273.804 66.3331C273.731 66.3308 273.658 66.3452 273.591 66.3752C273.532 66.402 273.479 66.4412 273.436 66.49C273.391 66.5397 273.356 66.5984 273.336 66.6622C273.311 66.7322 273.297 66.8059 273.297 66.8803V67.8138H273.072V66.2145H273.285Z" fill="#54565A"/>
<path d="M274.974 65.5984V66.9873L275.873 66.222H276.136L275.447 66.8151L276.171 67.8137H275.923L275.284 66.9414L274.963 67.2054V67.8137H274.765V65.5984H274.974Z" fill="#54565A"/>
<path d="M236.931 70.9817H232.218C231.929 70.9817 231.695 71.2129 231.695 71.4982V73.0516C231.695 73.3369 231.929 73.5682 232.218 73.5682H236.931C237.219 73.5682 237.454 73.3369 237.454 73.0516V71.4982C237.454 71.2129 237.219 70.9817 236.931 70.9817Z" fill="#00A4EF"/>
<path d="M253.285 74.6014C253.283 73.4019 252.799 72.2522 251.94 71.4044C251.082 70.5565 249.918 70.0799 248.704 70.0789C248.023 70.0803 247.352 70.2333 246.74 70.5265C246.721 70.4042 246.658 70.2926 246.563 70.212C246.468 70.1313 246.347 70.0868 246.221 70.0865H244.649C244.58 70.086 244.512 70.099 244.449 70.1248C244.385 70.1506 244.327 70.1886 244.278 70.2367C244.23 70.2847 244.191 70.3419 244.165 70.4048C244.139 70.4677 244.126 70.5351 244.126 70.603V79.2578C244.126 79.3948 244.182 79.5261 244.28 79.623C244.378 79.7199 244.511 79.7743 244.649 79.7743H246.218C246.356 79.7733 246.488 79.7186 246.586 79.6219C246.684 79.5253 246.739 79.3945 246.74 79.2578V74.6014C246.729 74.3396 246.771 74.0782 246.864 73.833C246.957 73.5877 247.1 73.3637 247.283 73.1743C247.466 72.985 247.686 72.8343 247.93 72.7314C248.174 72.6284 248.437 72.5754 248.702 72.5754C248.967 72.5754 249.229 72.6284 249.473 72.7314C249.717 72.8343 249.937 72.985 250.12 73.1743C250.304 73.3637 250.446 73.5877 250.54 73.833C250.633 74.0782 250.675 74.3396 250.663 74.6014V79.2692C250.663 79.4062 250.718 79.5376 250.816 79.6345C250.914 79.7314 251.047 79.7858 251.186 79.7858H252.758C252.827 79.7863 252.895 79.7733 252.959 79.7475C253.022 79.7217 253.08 79.6837 253.129 79.6356C253.177 79.5876 253.216 79.5304 253.242 79.4675C253.268 79.4046 253.281 79.3372 253.281 79.2692V74.6014H253.285Z" fill="#FFC517"/>
<path d="M271.276 70.0789C270.305 70.0766 269.355 70.359 268.547 70.8903C267.739 71.4216 267.108 72.1779 266.735 73.0635C266.362 73.9491 266.263 74.9242 266.451 75.8653C266.639 76.8064 267.105 77.6713 267.791 78.3504C268.477 79.0295 269.351 79.4923 270.303 79.6803C271.255 79.8683 272.242 79.773 273.139 79.4064C274.036 79.0398 274.803 78.4185 275.343 77.621C275.882 76.8236 276.17 75.8859 276.17 74.9266C276.168 73.6435 275.652 72.4134 274.735 71.505C273.818 70.5967 272.574 70.0839 271.276 70.0789V70.0789ZM271.276 77.1878C270.822 77.1878 270.379 77.0549 270.002 76.8058C269.625 76.5568 269.331 76.2028 269.158 75.7887C268.984 75.3746 268.939 74.9189 269.028 74.4795C269.116 74.04 269.335 73.6364 269.656 73.3198C269.977 73.0031 270.386 72.7877 270.831 72.7007C271.276 72.6138 271.737 72.6592 272.156 72.8312C272.575 73.0032 272.932 73.2941 273.184 73.6671C273.435 74.0401 273.569 74.4784 273.568 74.9266C273.567 75.5267 273.325 76.1018 272.895 76.5258C272.466 76.9497 271.883 77.1878 271.276 77.1878V77.1878Z" fill="#ED4848"/>
<path d="M241.639 70.0789H240.067C239.778 70.0789 239.544 70.3101 239.544 70.5954V79.2578C239.544 79.543 239.778 79.7743 240.067 79.7743H241.639C241.928 79.7743 242.162 79.543 242.162 79.2578V70.5954C242.162 70.3101 241.928 70.0789 241.639 70.0789Z" fill="#00C08B"/>
<path d="M264.554 70.0789H262.985C262.916 70.0784 262.848 70.0914 262.784 70.1171C262.72 70.1428 262.662 70.1808 262.613 70.2288C262.564 70.2768 262.525 70.3339 262.499 70.3968C262.472 70.4598 262.459 70.5272 262.459 70.5954V71.0507C261.73 70.5098 260.863 70.1801 259.955 70.0987C259.048 70.0173 258.135 70.1874 257.319 70.5898C256.504 70.9922 255.818 71.6112 255.339 72.3772C254.859 73.1432 254.605 74.026 254.605 74.9266C254.605 75.8272 254.859 76.71 255.339 77.476C255.818 78.242 256.504 78.8609 257.319 79.2634C258.135 79.6658 259.048 79.8359 259.955 79.7545C260.863 79.6731 261.73 79.3434 262.459 78.8025V81.0675C262.453 81.6522 262.228 82.214 261.827 82.6437C261.425 83.0734 260.877 83.3405 260.287 83.3929C259.698 83.4454 259.11 83.2795 258.637 82.9276C258.165 82.5756 257.842 82.0627 257.73 81.4884C257.709 81.3699 257.646 81.2625 257.553 81.1855C257.459 81.1084 257.341 81.0666 257.219 81.0675H255.632C255.558 81.067 255.485 81.082 255.418 81.1115C255.35 81.141 255.29 81.1844 255.241 81.2387C255.192 81.293 255.155 81.357 255.133 81.4264C255.111 81.4959 255.104 81.5692 255.113 81.6415C255.263 82.8916 255.89 84.0378 256.867 84.8461C257.844 85.6544 259.096 86.0637 260.368 85.9905C261.64 85.9172 262.836 85.3669 263.711 84.4519C264.586 83.537 265.074 82.3264 265.076 81.0675V70.5954C265.077 70.5274 265.064 70.46 265.038 70.3971C265.012 70.3342 264.973 70.2771 264.924 70.229C264.876 70.181 264.818 70.1429 264.754 70.1172C264.691 70.0914 264.622 70.0784 264.554 70.0789ZM259.519 77.1878C259.066 77.1886 258.622 77.0563 258.244 76.8077C257.867 76.5591 257.572 76.2054 257.398 75.7913C257.224 75.3773 257.179 74.9216 257.267 74.4818C257.355 74.0421 257.574 73.6381 257.895 73.3211C258.215 73.0041 258.624 72.7883 259.069 72.701C259.514 72.6138 259.976 72.6589 260.395 72.8308C260.814 73.0028 261.172 73.2937 261.423 73.6667C261.675 74.0398 261.809 74.4783 261.808 74.9266C261.807 75.526 261.566 76.1006 261.137 76.5244C260.708 76.9483 260.126 77.1868 259.519 77.1878V77.1878Z" fill="#FF9900"/>
<path d="M235.618 65.5526H228.303C228.233 65.55 228.163 65.5615 228.098 65.5863C228.033 65.6112 227.973 65.6489 227.923 65.6972C227.872 65.7454 227.832 65.8033 227.805 65.8672C227.778 65.9312 227.765 65.9998 227.765 66.0691V79.2578C227.765 79.3948 227.82 79.5262 227.918 79.6231C228.016 79.7199 228.149 79.7744 228.288 79.7744H229.86C229.998 79.7734 230.131 79.7186 230.229 79.622C230.326 79.5253 230.382 79.3945 230.383 79.2578V68.1391H238.221C238.221 67.4557 237.947 66.8002 237.459 66.3156C236.972 65.8309 236.31 65.5566 235.618 65.5526V65.5526Z" fill="#00A4EF"/>
<path d="M225.144 79.7247C225.867 79.7247 226.453 79.1457 226.453 78.4314C226.453 77.7172 225.867 77.1382 225.144 77.1382C224.421 77.1382 223.835 77.7172 223.835 78.4314C223.835 79.1457 224.421 79.7247 225.144 79.7247Z" fill="#00C08B"/>
<path d="M241.318 65.8704C241.272 65.7917 241.206 65.7264 241.127 65.6809C241.047 65.6355 240.957 65.6116 240.865 65.6116C240.773 65.6116 240.683 65.6355 240.603 65.6809C240.524 65.7264 240.458 65.7917 240.412 65.8704L239.572 67.3014C239.529 67.3801 239.508 67.4683 239.51 67.5575C239.512 67.6467 239.537 67.7339 239.583 67.8107C239.629 67.8876 239.694 67.9515 239.772 67.9963C239.85 68.0411 239.938 68.0653 240.029 68.0666H241.705C241.796 68.0657 241.884 68.0417 241.963 67.9969C242.041 67.9521 242.106 67.888 242.152 67.8109C242.197 67.7338 242.222 67.6464 242.223 67.5571C242.224 67.4678 242.202 67.3797 242.158 67.3014L241.318 65.8704Z" fill="#00C08B"/>
<path d="M216.663 68.1276C215.638 68.1202 214.628 68.3774 213.734 68.8737C212.84 69.37 212.092 70.0883 211.565 70.9576C211.038 71.8269 210.749 72.8171 210.728 73.8302C210.707 74.8434 210.953 75.8445 211.444 76.7346C211.934 77.6247 212.651 78.373 213.523 78.9055C214.396 79.438 215.394 79.7362 216.419 79.7708C217.444 79.8054 218.461 79.5751 219.368 79.1026C220.275 78.6302 221.042 77.9319 221.593 77.0769C221.648 76.9989 221.68 76.9074 221.685 76.8126C221.691 76.7177 221.67 76.6232 221.625 76.5393C221.58 76.4554 221.512 76.3856 221.429 76.3373C221.346 76.289 221.251 76.2643 221.155 76.2658H219.095C218.968 76.2667 218.846 76.3129 218.751 76.3959C218.345 76.7416 217.859 76.9835 217.336 77.1003C216.813 77.2171 216.27 77.2053 215.753 77.0659C215.236 76.9265 214.761 76.6637 214.371 76.3007C213.981 75.9377 213.687 75.4856 213.515 74.984H221.957C222.088 74.9837 222.213 74.9353 222.31 74.8483C222.407 74.7614 222.467 74.642 222.48 74.5134C222.5 74.2972 222.509 74.0801 222.507 73.863C222.479 72.3439 221.853 70.8955 220.762 69.8247C219.671 68.754 218.201 68.1453 216.663 68.1276V68.1276ZM213.515 72.9141C213.737 72.2766 214.155 71.7236 214.71 71.332C215.265 70.9405 215.931 70.73 216.613 70.73C217.295 70.73 217.96 70.9405 218.516 71.332C219.071 71.7236 219.489 72.2766 219.711 72.9141H213.515Z" fill="#00C08B"/>
<path d="M380.646 79.8281C380.451 80.0233 380.451 80.3399 380.646 80.5352L383.828 83.7172C384.024 83.9124 384.34 83.9124 384.536 83.7172C384.731 83.5219 384.731 83.2053 384.536 83.0101L381.707 80.1816L384.536 77.3532C384.731 77.158 384.731 76.8414 384.536 76.6461C384.34 76.4508 384.024 76.4508 383.828 76.6461L380.646 79.8281ZM397.354 80.5352C397.549 80.3399 397.549 80.0233 397.354 79.8281L394.172 76.6461C393.976 76.4508 393.66 76.4508 393.464 76.6461C393.269 76.8414 393.269 77.158 393.464 77.3532L396.293 80.1816L393.464 83.0101C393.269 83.2053 393.269 83.5219 393.464 83.7172C393.66 83.9124 393.976 83.9124 394.172 83.7172L397.354 80.5352ZM381 80.6816L397 80.6816L397 79.6816L381 79.6816L381 80.6816Z" fill="#E73525"/>
<path d="M408.354 43.8281C408.158 43.6328 407.842 43.6328 407.646 43.8281L404.464 47.0101C404.269 47.2053 404.269 47.5219 404.464 47.7172C404.66 47.9124 404.976 47.9124 405.172 47.7172L408 44.8887L410.828 47.7172C411.024 47.9124 411.34 47.9124 411.536 47.7172C411.731 47.5219 411.731 47.2053 411.536 47.0101L408.354 43.8281ZM407.646 103.535C407.842 103.73 408.158 103.73 408.354 103.535L411.536 100.353C411.731 100.158 411.731 99.8414 411.536 99.6461C411.34 99.4508 411.024 99.4508 410.828 99.6461L408 102.475L405.172 99.6461C404.976 99.4508 404.66 99.4508 404.464 99.6461C404.269 99.8414 404.269 100.158 404.464 100.353L407.646 103.535ZM407.5 44.1816V103.182H408.5V44.1816H407.5Z" fill="#E73525"/>
<path d="M26.6464 79.8281C26.4512 80.0233 26.4512 80.3399 26.6464 80.5352L29.8284 83.7172C30.0237 83.9124 30.3403 83.9124 30.5355 83.7172C30.7308 83.5219 30.7308 83.2053 30.5355 83.0101L27.7071 80.1816L30.5355 77.3532C30.7308 77.158 30.7308 76.8414 30.5355 76.6461C30.3403 76.4508 30.0237 76.4508 29.8284 76.6461L26.6464 79.8281ZM43.3536 80.5352C43.5488 80.3399 43.5488 80.0233 43.3536 79.8281L40.1716 76.6461C39.9763 76.4508 39.6597 76.4508 39.4645 76.6461C39.2692 76.8414 39.2692 77.158 39.4645 77.3532L42.2929 80.1816L39.4645 83.0101C39.2692 83.2053 39.2692 83.5219 39.4645 83.7172C39.6597 83.9124 39.9763 83.9124 40.1716 83.7172L43.3536 80.5352ZM27 80.6816L43 80.6816L43 79.6816L27 79.6816L27 80.6816Z" fill="#E73525"/>
<path d="M375.273 106.182H374.002V97.7529L371.452 98.6895V97.541L375.075 96.1807H375.273V106.182ZM383.941 96.2217V97.2949H383.709C382.725 97.3132 381.941 97.6048 381.357 98.1699C380.774 98.735 380.437 99.5303 380.346 100.556C380.87 99.9541 381.585 99.6533 382.492 99.6533C383.358 99.6533 384.049 99.9587 384.563 100.569C385.083 101.18 385.343 101.968 385.343 102.935C385.343 103.96 385.062 104.78 384.502 105.396C383.946 106.011 383.199 106.318 382.26 106.318C381.307 106.318 380.535 105.954 379.942 105.225C379.35 104.491 379.054 103.548 379.054 102.395V101.909C379.054 100.077 379.443 98.6781 380.223 97.7119C381.007 96.7412 382.171 96.2445 383.716 96.2217H383.941ZM382.28 100.706C381.847 100.706 381.449 100.836 381.084 101.096C380.719 101.355 380.466 101.681 380.325 102.073V102.538C380.325 103.358 380.51 104.019 380.879 104.521C381.248 105.022 381.708 105.272 382.26 105.272C382.829 105.272 383.276 105.063 383.6 104.644C383.928 104.224 384.092 103.675 384.092 102.996C384.092 102.312 383.925 101.761 383.593 101.342C383.265 100.918 382.827 100.706 382.28 100.706ZM393.218 102.565C393.218 103.691 392.96 104.598 392.445 105.286C391.93 105.974 391.233 106.318 390.354 106.318C389.456 106.318 388.749 106.034 388.234 105.464V109.025H386.97V98.7852H388.125L388.187 99.6055C388.701 98.9674 389.417 98.6484 390.333 98.6484C391.222 98.6484 391.924 98.9834 392.438 99.6533C392.958 100.323 393.218 101.255 393.218 102.449V102.565ZM391.953 102.422C391.953 101.588 391.775 100.929 391.42 100.446C391.064 99.9632 390.577 99.7217 389.957 99.7217C389.191 99.7217 388.617 100.061 388.234 100.74V104.274C388.613 104.949 389.191 105.286 389.971 105.286C390.577 105.286 391.058 105.047 391.413 104.568C391.773 104.085 391.953 103.37 391.953 102.422ZM397.203 101.485L398.844 98.7852H400.32L397.9 102.442L400.396 106.182H398.933L397.224 103.413L395.515 106.182H394.045L396.54 102.442L394.12 98.7852H395.583L397.203 101.485Z" fill="black"/>
<path d="M419.08 72.2217V73.2949H418.848C417.863 73.3132 417.079 73.6048 416.496 74.1699C415.913 74.735 415.576 75.5303 415.484 76.5557C416.008 75.9541 416.724 75.6533 417.631 75.6533C418.497 75.6533 419.187 75.9587 419.702 76.5693C420.222 77.18 420.481 77.9684 420.481 78.9346C420.481 79.96 420.201 80.7803 419.641 81.3955C419.085 82.0107 418.337 82.3184 417.398 82.3184C416.446 82.3184 415.674 81.9538 415.081 81.2246C414.489 80.4909 414.192 79.5475 414.192 78.3945V77.9092C414.192 76.0771 414.582 74.6781 415.361 73.7119C416.145 72.7412 417.31 72.2445 418.854 72.2217H419.08ZM417.419 76.7061C416.986 76.7061 416.587 76.8359 416.223 77.0957C415.858 77.3555 415.605 77.6813 415.464 78.0732V78.5381C415.464 79.3584 415.648 80.0192 416.018 80.5205C416.387 81.0218 416.847 81.2725 417.398 81.2725C417.968 81.2725 418.415 81.0628 418.738 80.6436C419.066 80.2243 419.23 79.6751 419.23 78.9961C419.23 78.3125 419.064 77.7611 418.731 77.3418C418.403 76.918 417.966 76.7061 417.419 76.7061ZM428.22 77.9365C428.22 79.4176 427.967 80.5182 427.461 81.2383C426.955 81.9583 426.164 82.3184 425.089 82.3184C424.027 82.3184 423.241 81.9674 422.73 81.2656C422.22 80.5592 421.956 79.5065 421.938 78.1074V76.4189C421.938 74.9561 422.19 73.8691 422.696 73.1582C423.202 72.4473 423.995 72.0918 425.075 72.0918C426.146 72.0918 426.935 72.4359 427.44 73.124C427.946 73.8076 428.206 74.8649 428.22 76.2959V77.9365ZM426.955 76.207C426.955 75.1361 426.805 74.3568 426.504 73.8691C426.203 73.377 425.727 73.1309 425.075 73.1309C424.428 73.1309 423.956 73.3747 423.66 73.8623C423.364 74.3499 423.211 75.0996 423.202 76.1113V78.1348C423.202 79.2103 423.357 80.0055 423.667 80.5205C423.981 81.0309 424.455 81.2861 425.089 81.2861C425.713 81.2861 426.176 81.0446 426.477 80.5615C426.782 80.0785 426.941 79.3174 426.955 78.2783V76.207ZM436.218 78.5654C436.218 79.6911 435.96 80.598 435.445 81.2861C434.93 81.9743 434.233 82.3184 433.354 82.3184C432.456 82.3184 431.749 82.0335 431.234 81.4639V85.0254H429.97V74.7852H431.125L431.187 75.6055C431.701 74.9674 432.417 74.6484 433.333 74.6484C434.222 74.6484 434.924 74.9834 435.438 75.6533C435.958 76.3232 436.218 77.2552 436.218 78.4492V78.5654ZM434.953 78.4219C434.953 77.5879 434.775 76.9294 434.42 76.4463C434.064 75.9632 433.577 75.7217 432.957 75.7217C432.191 75.7217 431.617 76.0612 431.234 76.7402V80.2744C431.613 80.9489 432.191 81.2861 432.971 81.2861C433.577 81.2861 434.058 81.0469 434.413 80.5684C434.773 80.0853 434.953 79.3698 434.953 78.4219ZM440.203 77.4854L441.844 74.7852H443.32L440.9 78.4424L443.396 82.1816H441.933L440.224 79.4131L438.515 82.1816H437.045L439.54 78.4424L437.12 74.7852H438.583L440.203 77.4854Z" fill="black"/>
<path d="M24.2734 106.182H23.002V97.7529L20.4521 98.6895V97.541L24.0752 96.1807H24.2734V106.182ZM32.9414 96.2217V97.2949H32.709C31.7246 97.3132 30.9408 97.6048 30.3574 98.1699C29.7741 98.735 29.4368 99.5303 29.3457 100.556C29.8698 99.9541 30.5853 99.6533 31.4922 99.6533C32.3581 99.6533 33.0485 99.9587 33.5635 100.569C34.083 101.18 34.3428 101.968 34.3428 102.935C34.3428 103.96 34.0625 104.78 33.502 105.396C32.946 106.011 32.1986 106.318 31.2598 106.318C30.3073 106.318 29.5348 105.954 28.9424 105.225C28.3499 104.491 28.0537 103.548 28.0537 102.395V101.909C28.0537 100.077 28.4434 98.6781 29.2227 97.7119C30.0065 96.7412 31.1709 96.2445 32.7158 96.2217H32.9414ZM31.2803 100.706C30.8473 100.706 30.4486 100.836 30.084 101.096C29.7194 101.355 29.4665 101.681 29.3252 102.073V102.538C29.3252 103.358 29.5098 104.019 29.8789 104.521C30.248 105.022 30.7083 105.272 31.2598 105.272C31.8294 105.272 32.276 105.063 32.5996 104.644C32.9277 104.224 33.0918 103.675 33.0918 102.996C33.0918 102.312 32.9255 101.761 32.5928 101.342C32.2646 100.918 31.8271 100.706 31.2803 100.706ZM42.2178 102.565C42.2178 103.691 41.9603 104.598 41.4453 105.286C40.9303 105.974 40.2331 106.318 39.3535 106.318C38.4557 106.318 37.7493 106.034 37.2344 105.464V109.025H35.9697V98.7852H37.125L37.1865 99.6055C37.7015 98.9674 38.417 98.6484 39.333 98.6484C40.2217 98.6484 40.9235 98.9834 41.4385 99.6533C41.958 100.323 42.2178 101.255 42.2178 102.449V102.565ZM40.9531 102.422C40.9531 101.588 40.7754 100.929 40.4199 100.446C40.0645 99.9632 39.5768 99.7217 38.957 99.7217C38.1914 99.7217 37.6172 100.061 37.2344 100.74V104.274C37.6126 104.949 38.1914 105.286 38.9707 105.286C39.5768 105.286 40.0576 105.047 40.4131 104.568C40.7731 104.085 40.9531 103.37 40.9531 102.422ZM46.2031 101.485L47.8438 98.7852H49.3203L46.9004 102.442L49.3955 106.182H47.9326L46.2236 103.413L44.5146 106.182H43.0449L45.54 102.442L43.1201 98.7852H44.583L46.2031 101.485Z" fill="black"/>
<line x1="353.884" y1="60.1161" x2="379.34" y2="85.572" stroke="#00A19B" stroke-width="2.5"/>
<line x1="352.116" y1="85.5719" x2="377.572" y2="60.1161" stroke="#00A19B" stroke-width="2.5"/>
<defs>
<clipPath id="clip0_4_1431">
<rect width="1.63636" height="20.4545" fill="white" transform="translate(199.273 62.2795)"/>
</clipPath>
</defs>
</svg>
