<svg width="441" height="41" viewBox="0 0 441 41" fill="none" xmlns="http://www.w3.org/2000/svg">
<path d="M58.112 5.576C57.936 5.976 57.696 6.36 57.408 6.696C57.04 6.472 56.64 6.232 56.24 6.008C56.352 5.864 56.448 5.72 56.544 5.576H58.112ZM53.776 4.04H59.68V9.192H55.376C56.144 8.856 56.88 8.376 57.52 7.752C57.92 8.04 58.272 8.312 58.56 8.568L59.136 7.96C58.864 7.704 58.496 7.432 58.064 7.144C58.544 6.552 58.912 5.864 59.168 5.08L58.64 4.856L58.48 4.904H56.912C57.024 4.696 57.12 4.488 57.2 4.28L56.384 4.168C56.208 4.632 55.92 5.144 55.552 5.64C55.28 5.496 55.008 5.368 54.752 5.256L54.16 5.816C54.448 5.944 54.736 6.088 55.024 6.232C54.752 6.536 54.432 6.808 54.064 7.064C54.272 7.16 54.528 7.4 54.688 7.576C55.088 7.272 55.44 6.952 55.744 6.616C56.128 6.84 56.496 7.064 56.848 7.304C56.208 7.896 55.456 8.344 54.688 8.632C54.848 8.76 55.04 9 55.136 9.192H53.776V4.04ZM54.928 10.664C55.872 11.192 56.96 11.992 57.488 12.568L58.256 11.896C57.728 11.336 56.688 10.6 55.776 10.12H60.672V3.112H56.944C57.152 2.712 57.376 2.264 57.584 1.816L56.288 1.576C56.176 2.024 55.968 2.6 55.776 3.112H52.816V10.12H55.568L54.928 10.664ZM47.472 10.68C47.296 12.072 46.992 13.512 46.496 14.488C46.72 14.568 47.184 14.776 47.36 14.904C47.872 13.88 48.224 12.36 48.448 10.856L47.472 10.68ZM51.28 9.4C51.408 9.784 51.504 10.136 51.552 10.424L52.464 10.04C52.272 9.144 51.712 7.752 51.104 6.696L50.272 7.016C50.496 7.448 50.72 7.928 50.912 8.408L48.768 8.52C49.792 7.176 50.976 5.352 51.84 3.864L50.864 3.432C50.448 4.28 49.872 5.32 49.248 6.312C49.024 6.008 48.736 5.656 48.416 5.304C48.976 4.424 49.664 3.112 50.208 2.008L49.184 1.624C48.864 2.504 48.288 3.736 47.776 4.648C47.616 4.488 47.44 4.312 47.28 4.168L46.64 4.904C47.376 5.592 48.176 6.52 48.64 7.24C48.32 7.736 48 8.184 47.696 8.584C47.28 8.6 46.88 8.616 46.528 8.632L46.64 9.704C47.36 9.656 48.176 9.608 49.056 9.544V16.216H50.096V9.48L51.28 9.4ZM50.56 10.888C50.928 11.8 51.248 13 51.296 13.784L52.192 13.528C52.096 12.744 51.792 11.544 51.392 10.632L50.56 10.888ZM52.64 15.768C53.504 14.952 53.856 13.576 54.08 12.248L53.136 12.024C52.944 13.24 52.544 14.504 51.76 15.256L52.64 15.768ZM56.24 15.192C55.792 15.192 55.712 15.144 55.712 14.792V11.784H54.672V14.792C54.672 15.88 54.96 16.168 56.112 16.168H57.92C58.816 16.168 59.104 15.8 59.232 14.248C58.928 14.168 58.496 14.008 58.288 13.832C58.256 15.048 58.176 15.192 57.776 15.192H56.24ZM58.784 12.136C59.584 13.224 60.304 14.664 60.56 15.656L61.488 15.208C61.232 14.216 60.496 12.792 59.664 11.72L58.784 12.136ZM77.072 3.368V2.552H72.224C72.352 2.296 72.464 2.04 72.56 1.784L71.488 1.624C71.168 2.504 70.56 3.528 69.584 4.312C69.824 4.424 70.192 4.744 70.384 4.984C70.96 4.488 71.408 3.944 71.776 3.368H77.072ZM71.536 6.024H72.512V7.192H71.536V6.024ZM73.2 6.024H74.224V7.192H73.2V6.024ZM74.912 6.024H75.936V7.192H74.912V6.024ZM70.672 7.864H76.816V5.368H70.672V7.864ZM71.536 3.992V4.744H76.272V3.992H71.536ZM64.512 6.056H66.176V6.984H64.512V6.056ZM66.176 2.92V3.704H64.512V2.92H66.176ZM68.336 5.336H64.512V4.44H68.336V5.336ZM69.952 6.984H67.152V6.056H69.376V3.704H67.152V2.92H69.824V2.152H63.472V7.752H69.952V6.984ZM66.272 12.056H73.68V12.84H66.272V12.056ZM66.272 10.584H73.68V11.352H66.272V10.584ZM66.272 9.128H73.68V9.88H66.272V9.128ZM72.976 15.08C72.24 15.08 72.112 15.032 72.112 14.664V13.544H74.864V8.408H65.136V13.544H67.424C66.944 14.616 65.776 15.064 62.72 15.288C62.912 15.512 63.184 15.96 63.264 16.216C66.72 15.864 68.08 15.16 68.624 13.544H70.96V14.68C70.96 15.752 71.344 16.024 72.864 16.024H75.616C76.784 16.024 77.136 15.624 77.264 13.992C76.944 13.912 76.496 13.768 76.256 13.608C76.192 14.904 76.096 15.08 75.504 15.08H72.976Z" fill="#00A19B"/>
<path d="M116.454 5.564H111.932V6.25H122.082V5.564H117.476V4.836H123.104V4.108H117.476V3.282H116.454V4.108H110.924V4.836H116.454V5.564ZM122.824 11.444V9.456H111.176V11.444H112.114V10.184H121.858V11.444H122.824ZM120.472 8.252H113.528V7.454H120.472V8.252ZM112.562 6.838V8.868H121.48V6.838H112.562ZM118.722 11.43L118.428 11.682C118.82 11.822 119.226 12.004 119.632 12.2C118.064 12.214 116.51 12.214 115.11 12.214C115.362 11.976 115.628 11.71 115.88 11.43H118.722ZM117.476 14.986V14.244H121.858V13.558H117.476V12.858C118.554 12.844 119.66 12.83 120.752 12.802C121.102 13.012 121.424 13.222 121.662 13.404L122.278 12.844C121.676 12.41 120.654 11.85 119.702 11.43H121.41V10.786H112.534V11.43H114.676C114.452 11.696 114.214 11.962 113.976 12.2C113.22 12.2 112.534 12.2 111.932 12.186L111.988 12.9C113.22 12.886 114.774 12.886 116.454 12.858V13.558H112.254V14.244H116.454V14.986H110.91V15.756H123.118V14.986H117.476ZM130.3 3.548C130.076 4.038 129.656 4.78 129.32 5.256L129.964 5.536C130.328 5.102 130.762 4.472 131.168 3.884L130.3 3.548ZM127.052 5.144C126.884 4.71 126.478 4.066 126.072 3.59L125.344 3.926C125.722 4.402 126.114 5.088 126.282 5.536L127.052 5.144ZM135.984 11.15H131.462V10.296H130.454V11.15H126.198V15.378H127.22V12.06H130.454V16.064H131.462V12.06H134.962V14.244C134.962 14.426 134.892 14.482 134.668 14.496C134.444 14.496 133.618 14.496 132.722 14.482C132.862 14.72 133.03 15.084 133.086 15.336C134.248 15.336 134.976 15.336 135.424 15.196C135.858 15.056 135.984 14.776 135.984 14.258V11.15ZM126.8 6.81C126.702 7.594 126.548 8.35 126.212 8.938C126.38 8.994 126.646 9.134 126.758 9.218C127.094 8.644 127.29 7.762 127.402 6.922L126.8 6.81ZM131.07 5.606H128.634V3.296H127.724V5.606H125.302V10.436H126.1V6.306H127.836V10.282H128.55V6.306H130.272V9.428C130.272 9.54 130.244 9.582 130.118 9.582H129.18C129.278 9.764 129.404 10.072 129.432 10.282C130.048 10.282 130.468 10.282 130.72 10.142C131.014 10.03 131.07 9.806 131.07 9.428V5.606ZM135.48 5.55C135.214 6.348 134.822 7.02 134.318 7.594C133.8 6.992 133.394 6.292 133.114 5.55H135.48ZM137.3 5.55V4.724H133.478C133.674 4.332 133.842 3.912 133.968 3.478L133.072 3.296C132.708 4.556 131.994 5.69 131.07 6.446C131.28 6.6 131.616 6.936 131.742 7.09C132.022 6.852 132.288 6.558 132.54 6.25C132.848 6.95 133.24 7.594 133.716 8.154C133.044 8.7 132.232 9.12 131.308 9.428C131.476 9.61 131.742 10.016 131.84 10.226C132.778 9.862 133.618 9.4 134.318 8.826C135.032 9.512 135.872 10.058 136.824 10.422C136.95 10.184 137.216 9.834 137.412 9.68C136.474 9.372 135.634 8.882 134.934 8.238C135.62 7.51 136.124 6.628 136.46 5.55H137.3ZM130.006 8.672C129.95 8.182 129.74 7.398 129.488 6.824L128.956 6.964C129.194 7.566 129.39 8.35 129.432 8.84L130.006 8.672Z" fill="#1C1C1C"/>
<path d="M179.51 6.39C179.244 7.804 178.852 9.064 178.362 10.17C177.69 9.568 176.654 8.868 175.744 8.336C176.122 7.748 176.458 7.09 176.78 6.39H179.51ZM183.5 3.296H182.436V8.63C181.876 7.972 181.386 7.286 181.008 6.586L180.462 6.796C180.532 6.418 180.616 6.026 180.672 5.62L180 5.368L179.804 5.424H177.172C177.41 4.808 177.62 4.15 177.802 3.492L176.78 3.282C176.136 5.788 174.974 8.098 173.434 9.526C173.672 9.68 174.12 10.016 174.288 10.198C174.61 9.876 174.918 9.512 175.212 9.12C176.178 9.708 177.242 10.492 177.886 11.108C176.836 12.998 175.408 14.356 173.742 15.224C173.994 15.378 174.386 15.756 174.568 15.994C177.228 14.51 179.328 11.724 180.35 7.314C180.91 8.266 181.638 9.204 182.436 10.058V16.036H183.5V11.08C184.298 11.78 185.152 12.382 185.992 12.816C186.174 12.536 186.496 12.13 186.734 11.934C185.628 11.43 184.494 10.66 183.5 9.722V3.296ZM200.328 14.44H189.366V4.878H199.964V3.94H188.344V16.078H189.366V15.392H200.328V14.44ZM196.114 8.7H194.322V7.622H196.114V8.7ZM196.114 10.59H194.322V9.442H196.114V10.59ZM196.114 12.536H194.322V11.332H196.114V12.536ZM194.322 13.852V13.334H199.726V12.536H197.038V11.332H199.236V10.59H197.038V9.442H199.236V8.7H197.038V7.622H199.558V6.81H197.122C197.318 6.404 197.528 5.928 197.738 5.48L196.772 5.228C196.646 5.69 196.408 6.306 196.17 6.81H194.504C194.742 6.334 194.966 5.844 195.148 5.354L194.28 5.116C193.734 6.628 192.838 8.098 191.816 9.05C192.012 9.218 192.32 9.596 192.46 9.75C192.782 9.428 193.104 9.05 193.398 8.644V13.852H194.322ZM189.45 8.196C190.122 8.49 190.906 8.994 191.284 9.358L191.858 8.7C191.466 8.336 190.654 7.874 189.996 7.608L189.45 8.196ZM192.53 6.376C192.166 5.998 191.396 5.536 190.766 5.242L190.192 5.816C190.836 6.138 191.592 6.628 191.942 7.006L192.53 6.376ZM191.69 10.408C191.172 11.416 190.514 12.522 190.038 13.208L190.766 13.852C191.284 12.984 191.872 11.906 192.32 10.982L191.69 10.408Z" fill="#1C1C1C"/>
<path d="M240.096 3.954H233.684V4.808H240.096V3.954ZM231.906 3.324C231.094 5.438 229.736 7.51 228.322 8.84C228.504 9.078 228.812 9.624 228.91 9.848C229.442 9.316 229.96 8.7 230.464 8V16.022H231.444V6.502C231.99 5.592 232.48 4.598 232.872 3.618L231.906 3.324ZM239.438 12.494V14.552H234.37V12.494H239.438ZM233.362 16.064H234.37V15.406H239.438V16.022H240.474V11.654H233.362V16.064ZM233.516 10.576H240.32V9.736H233.516V10.576ZM240.348 7.804H233.516V8.658H240.348V7.804ZM232.368 5.872V6.74H241.412V5.872H232.368ZM249.588 10.814V8.49H253.354V10.814H249.588ZM245.15 10.814C245.192 10.296 245.206 9.778 245.206 9.316V8.49H248.552V10.814H245.15ZM248.552 5.27V7.51H245.206V5.27H248.552ZM253.354 7.51H249.588V5.27H253.354V7.51ZM254.376 4.276H244.184V9.316C244.184 11.262 244.044 13.726 242.504 15.462C242.728 15.588 243.148 15.938 243.302 16.148C244.366 14.958 244.842 13.362 245.052 11.808H248.552V15.938H249.588V11.808H253.354V14.65C253.354 14.916 253.256 15 252.976 15.014C252.724 15.014 251.772 15.028 250.792 14.986C250.932 15.266 251.1 15.714 251.142 15.994C252.458 16.008 253.27 15.994 253.746 15.826C254.194 15.644 254.376 15.336 254.376 14.664V4.276ZM269.244 9.428V8.406H263.28V6.292H267.732V5.298H263.28V3.282H262.188V8.406H256.784V9.428H262.188V16.064H263.28V11.5C264.82 11.948 266.696 12.662 267.69 13.152L268.222 12.214C267.116 11.696 265.002 10.996 263.476 10.59L263.28 10.898V9.428H269.244Z" fill="#1C1C1C"/>
<path d="M302.942 12.186L301.416 12.69V9.218H302.816V8.252H301.416V5.214H303.026V4.234H298.686V5.214H300.422V8.252H298.84V9.218H300.422V12.998C299.708 13.236 299.064 13.432 298.546 13.586L298.784 14.636C300.03 14.23 301.626 13.684 303.124 13.18L302.942 12.186ZM304.664 7.468H306.792V9.246H304.664V7.468ZM304.664 4.836H306.792V6.6H304.664V4.836ZM309.83 6.6H307.688V4.836H309.83V6.6ZM309.83 9.246H307.688V7.468H309.83V9.246ZM307.772 14.664V12.746H311.034V11.794H307.772V10.156H310.824V3.926H303.712V10.156H306.722V11.794H303.544V12.746H306.722V14.664H302.466V15.616H311.482V14.664H307.772ZM317.138 6.46H314.24V4.696H317.138V6.46ZM317.138 9.064H314.24V7.286H317.138V9.064ZM317.138 11.71H314.24V9.89H317.138V11.71ZM318.146 3.828H313.26V12.55H318.146V3.828ZM314.226 12.858C313.862 13.852 313.232 14.818 312.518 15.462C312.756 15.602 313.176 15.91 313.358 16.078C314.072 15.364 314.786 14.23 315.22 13.11L314.226 12.858ZM316.2 13.25C316.76 13.95 317.376 14.916 317.67 15.546L318.552 15.084C318.258 14.468 317.628 13.544 317.026 12.858L316.2 13.25ZM325.412 6.6H323.62V3.338H322.598V6.6H318.58V7.566H322.22C321.338 9.778 319.84 11.99 318.272 13.096C318.496 13.264 318.804 13.614 318.986 13.866C320.344 12.774 321.66 10.94 322.598 8.91V14.762C322.598 15 322.514 15.07 322.29 15.07C322.08 15.084 321.394 15.084 320.61 15.07C320.764 15.336 320.932 15.798 320.974 16.078C322.038 16.078 322.682 16.036 323.074 15.868C323.466 15.686 323.62 15.378 323.62 14.762V7.566H325.412V6.6Z" fill="#1C1C1C"/>
<path d="M371.942 4.108C371.368 3.8 370.304 3.45 369.492 3.282L368.988 3.828C369.828 4.038 370.864 4.416 371.41 4.71L371.942 4.108ZM364.816 5.158L364.914 5.97L367.742 5.802C368.778 7.202 370.416 8.056 371.83 8.056C372.698 8.056 373.062 7.734 373.202 6.474C372.936 6.404 372.614 6.264 372.404 6.096C372.348 6.894 372.236 7.132 371.872 7.132C370.934 7.146 369.786 6.628 368.932 5.732L373.048 5.48L372.964 4.668L368.316 4.948C367.994 4.458 367.77 3.898 367.686 3.282H366.72C366.804 3.912 366.986 4.486 367.252 5.018L364.816 5.158ZM363.584 12.172H370.598V13.152H363.584V12.172ZM363.584 10.534H370.598V11.5H363.584V10.534ZM363.584 8.924H370.598V9.862H363.584V8.924ZM362.576 13.838H371.634V8.224H362.576V13.838ZM363.22 7.832H364.214V4.906C364.718 4.486 365.18 4.038 365.558 3.576L364.62 3.226C363.668 4.36 362.044 5.424 360.518 6.096C360.756 6.264 361.134 6.642 361.288 6.838C361.918 6.516 362.576 6.124 363.22 5.676V7.832ZM364.9 13.978C363.906 14.538 362.226 15.028 360.798 15.322C361.036 15.504 361.386 15.91 361.568 16.106C362.954 15.728 364.704 15.084 365.838 14.426L364.9 13.978ZM368.162 14.552C369.688 15.056 371.2 15.644 372.068 16.092L373.216 15.574C372.194 15.112 370.528 14.51 369.016 14.02L368.162 14.552ZM377.486 6.698H375.092V7.566H380.902V6.698H378.466V5.494H381.182V4.612H378.466V3.338H377.486V4.612H374.77V5.494H377.486V6.698ZM375.68 11.92C375.414 12.97 374.98 14.006 374.392 14.72C374.616 14.818 375.022 15.028 375.19 15.154C375.764 14.398 376.268 13.236 376.548 12.088L375.68 11.92ZM381.322 11.444V10.548H374.602V11.444H377.5V15C377.5 15.14 377.458 15.182 377.29 15.182C377.15 15.196 376.646 15.196 376.1 15.182C376.226 15.434 376.366 15.812 376.408 16.078C377.206 16.078 377.71 16.064 378.032 15.91C378.382 15.77 378.466 15.49 378.466 15.014V11.444H381.322ZM381.098 13.992C380.916 13.446 380.482 12.564 380.062 11.906L379.278 12.228C379.67 12.914 380.09 13.838 380.272 14.398L381.098 13.992ZM384.514 6.768H386.166C386.04 7.678 385.872 8.672 385.69 9.316L386.516 9.568C386.81 8.644 387.062 7.174 387.244 5.956L386.572 5.76L386.404 5.802H382.988C383.156 5.046 383.296 4.248 383.408 3.436L382.372 3.268C382.092 5.452 381.602 7.58 380.734 8.952V8.616H375.232V9.484H380.734V9.05C380.986 9.176 381.42 9.484 381.588 9.638C382.05 8.854 382.428 7.874 382.736 6.768H383.492V8.658C383.506 9.806 383.1 13.376 380.174 15.238C380.356 15.434 380.65 15.868 380.762 16.078C383.044 14.58 383.87 11.99 384.01 10.8C384.136 11.948 384.864 14.65 386.838 16.064C386.978 15.826 387.3 15.42 387.482 15.196C384.92 13.376 384.5 9.764 384.514 8.658V6.768Z" fill="#1C1C1C"/>
<rect x="30" y="31" width="375" height="4" rx="2" fill="#E1EFEF"/>
<rect x="30" y="31" width="63" height="4" rx="2" fill="#00A19B"/>
<path d="M4.69336 28H3V21.4727L0.978516 22.0996V20.7227L4.51172 19.457H4.69336V28ZM14.3184 28H8.4707V26.8398L11.2305 23.8984C11.6094 23.4844 11.8887 23.123 12.0684 22.8145C12.252 22.5059 12.3438 22.2129 12.3438 21.9355C12.3438 21.5566 12.248 21.2598 12.0566 21.0449C11.8652 20.8262 11.5918 20.7168 11.2363 20.7168C10.8535 20.7168 10.5508 20.8496 10.3281 21.1152C10.1094 21.377 10 21.7227 10 22.1523H8.30078C8.30078 21.6328 8.42383 21.1582 8.66992 20.7285C8.91992 20.2988 9.27148 19.9629 9.72461 19.7207C10.1777 19.4746 10.6914 19.3516 11.2656 19.3516C12.1445 19.3516 12.8262 19.5625 13.3105 19.9844C13.7988 20.4062 14.043 21.002 14.043 21.7715C14.043 22.1934 13.9336 22.623 13.7148 23.0605C13.4961 23.498 13.1211 24.0078 12.5898 24.5898L10.6504 26.6348H14.3184V28ZM22.1387 24.8887C22.1387 25.8652 21.916 26.6484 21.4707 27.2383C21.0293 27.8242 20.4316 28.1172 19.6777 28.1172C19.0371 28.1172 18.5195 27.8945 18.125 27.4492V30.4375H16.4316V21.6602H18.002L18.0605 22.2812C18.4707 21.7891 19.0059 21.543 19.666 21.543C20.4473 21.543 21.0547 21.832 21.4883 22.4102C21.9219 22.9883 22.1387 23.7852 22.1387 24.8008V24.8887ZM20.4453 24.7656C20.4453 24.1758 20.3398 23.7207 20.1289 23.4004C19.9219 23.0801 19.6191 22.9199 19.2207 22.9199C18.6895 22.9199 18.3242 23.123 18.125 23.5293V26.125C18.332 26.543 18.7012 26.752 19.2324 26.752C20.041 26.752 20.4453 26.0898 20.4453 24.7656ZM26.5137 23.5527L27.5801 21.6602H29.3906L27.5859 24.7656L29.4668 28H27.6504L26.5195 26.0078L25.3945 28H23.5723L25.4531 24.7656L23.6543 21.6602H25.4707L26.5137 23.5527Z" fill="#4D4D4D"/>
<path d="M424.59 34.7891H425.557V36.1543H424.59V38H422.896V36.1543H419.398L419.322 35.0879L422.879 29.4688H424.59V34.7891ZM421.01 34.7891H422.896V31.7773L422.785 31.9707L421.01 34.7891ZM433.248 34.8887C433.248 35.8652 433.025 36.6484 432.58 37.2383C432.139 37.8242 431.541 38.1172 430.787 38.1172C430.146 38.1172 429.629 37.8945 429.234 37.4492V40.4375H427.541V31.6602H429.111L429.17 32.2812C429.58 31.7891 430.115 31.543 430.775 31.543C431.557 31.543 432.164 31.832 432.598 32.4102C433.031 32.9883 433.248 33.7852 433.248 34.8008V34.8887ZM431.555 34.7656C431.555 34.1758 431.449 33.7207 431.238 33.4004C431.031 33.0801 430.729 32.9199 430.33 32.9199C429.799 32.9199 429.434 33.123 429.234 33.5293V36.125C429.441 36.543 429.811 36.752 430.342 36.752C431.15 36.752 431.555 36.0898 431.555 34.7656ZM437.623 33.5527L438.689 31.6602H440.5L438.695 34.7656L440.576 38H438.76L437.629 36.0078L436.504 38H434.682L436.562 34.7656L434.764 31.6602H436.58L437.623 33.5527Z" fill="#4D4D4D"/>
<path d="M39 19L36.1132 24H41.8868L39 19ZM39 31L41.8868 26H36.1132L39 31ZM38.5 23.5V26.5H39.5V23.5H38.5Z" fill="#E73525"/>
<path d="M410 27L407.113 32H412.887L410 27ZM410 39L412.887 34H407.113L410 39ZM409.5 31.5V34.5H410.5V31.5H409.5Z" fill="#E73525"/>
</svg>
