<svg width="280" height="110" viewBox="0 0 280 110" fill="none" xmlns="http://www.w3.org/2000/svg">
<rect width="280" height="110" fill="white"/>
<path d="M39.064 56.032H30.904V54.448H39.064V56.032ZM30.904 61.264V59.568H39.064V61.264H30.904ZM39.064 58.624H30.904V56.992H39.064V58.624ZM42.12 51.92V50.816H38.088C38.568 50.272 39.08 49.6 39.512 48.928L38.216 48.592C37.864 49.248 37.272 50.16 36.76 50.816H32.536L33.224 50.448C32.936 49.904 32.296 49.12 31.72 48.56L30.68 49.008C31.176 49.552 31.72 50.272 32.04 50.816H27.912V51.92H34.312C34.216 52.384 34.072 52.928 33.928 53.392H29.736V63.232H30.904V62.32H39.064V63.232H40.28V53.392H35.192C35.384 52.944 35.544 52.432 35.72 51.92H42.12ZM55.128 54.384H47.096V52.928H55.128V54.384ZM55.128 56.752H47.096V55.28H55.128V56.752ZM55.128 59.136H47.096V57.664H55.128V59.136ZM45.88 51.984V60.096H56.392V51.984H51.192C51.352 51.536 51.512 51.024 51.656 50.528H57.608V49.44H44.344V50.528H50.296C50.216 51.008 50.088 51.536 49.96 51.984H45.88ZM48.776 60.272C47.672 61.008 45.496 61.84 43.784 62.288C44.056 62.544 44.408 62.96 44.6 63.216C46.312 62.736 48.456 61.888 49.848 61.056L48.776 60.272ZM52.168 61.136C54.04 61.776 55.928 62.608 57.064 63.232L58.168 62.416C56.92 61.792 54.888 60.976 53.016 60.352L52.168 61.136Z" fill="#1C1C1C"/>
<path d="M112.824 49.376H105.496V50.352H112.824V49.376ZM103.464 48.656C102.536 51.072 100.984 53.44 99.368 54.96C99.576 55.232 99.928 55.856 100.04 56.112C100.648 55.504 101.24 54.8 101.816 54V63.168H102.936V52.288C103.56 51.248 104.12 50.112 104.568 48.992L103.464 48.656ZM112.072 59.136V61.488H106.28V59.136H112.072ZM105.128 63.216H106.28V62.464H112.072V63.168H113.256V58.176H105.128V63.216ZM105.304 56.944H113.08V55.984H105.304V56.944ZM113.112 53.776H105.304V54.752H113.112V53.776ZM103.992 51.568V52.56H114.328V51.568H103.992ZM123.672 57.216V54.56H127.976V57.216H123.672ZM118.6 57.216C118.648 56.624 118.664 56.032 118.664 55.504V54.56H122.488V57.216H118.6ZM122.488 50.88V53.44H118.664V50.88H122.488ZM127.976 53.44H123.672V50.88H127.976V53.44ZM129.144 49.744H117.496V55.504C117.496 57.728 117.336 60.544 115.576 62.528C115.832 62.672 116.312 63.072 116.488 63.312C117.704 61.952 118.248 60.128 118.488 58.352H122.488V63.072H123.672V58.352H127.976V61.6C127.976 61.904 127.864 62 127.544 62.016C127.256 62.016 126.168 62.032 125.048 61.984C125.208 62.304 125.4 62.816 125.448 63.136C126.952 63.152 127.88 63.136 128.424 62.944C128.936 62.736 129.144 62.384 129.144 61.616V49.744ZM146.136 55.632V54.464H139.32V52.048H144.408V50.912H139.32V48.608H138.072V54.464H131.896V55.632H138.072V63.216H139.32V58C141.08 58.512 143.224 59.328 144.36 59.888L144.968 58.816C143.704 58.224 141.288 57.424 139.544 56.96L139.32 57.312V55.632H146.136Z" fill="#1C1C1C"/>
<path d="M203.136 55.632V54.464H196.32V52.048H201.408V50.912H196.32V48.608H195.072V54.464H188.896V55.632H195.072V63.216H196.32V58C198.08 58.512 200.224 59.328 201.36 59.888L201.968 58.816C200.704 58.224 198.288 57.424 196.544 56.96L196.32 57.312V55.632H203.136ZM208.144 53.936H218.4V52.736H213.92V48.64H212.672V52.736H208.144V49.04H206.928V54.336C206.928 57.12 206.704 60.064 204.688 62.32C204.96 62.528 205.408 62.96 205.6 63.248C207.072 61.632 207.696 59.696 207.952 57.696H214.672V63.216H215.936V56.48H208.08C208.128 55.76 208.144 55.04 208.144 54.32V53.936ZM227.936 49.808C229.36 52.064 232.096 54.416 234.64 55.76C234.832 55.408 235.12 55.008 235.424 54.704C232.88 53.552 230.112 51.216 228.48 48.608H227.248C226.048 50.864 223.456 53.456 220.64 54.912C220.912 55.168 221.248 55.584 221.376 55.872C224.112 54.368 226.688 51.952 227.936 49.808ZM230.176 54.208V63.2H231.408V54.208H230.176ZM224.512 54.272V56.48C224.512 58.432 224.24 60.704 221.248 62.384C221.552 62.576 222 62.976 222.192 63.232C225.376 61.36 225.728 58.752 225.728 56.496V54.272H224.512ZM237.504 57.68C237.328 59.088 236.992 60.512 236.464 61.488C236.72 61.568 237.2 61.792 237.392 61.936C237.92 60.912 238.304 59.376 238.528 57.872L237.504 57.68ZM240.8 57.856C241.216 58.784 241.616 59.984 241.776 60.784L242.688 60.48C242.528 59.696 242.096 58.48 241.664 57.568L240.8 57.856ZM240.384 54.112C240.656 54.544 240.912 55.056 241.136 55.552L238.768 55.648C239.824 54.272 241.04 52.4 241.952 50.88L240.944 50.432C240.528 51.28 239.952 52.304 239.328 53.296C239.072 52.976 238.752 52.608 238.4 52.256C238.992 51.36 239.664 50.096 240.208 49.04L239.168 48.624C238.832 49.504 238.272 50.704 237.728 51.6C237.568 51.456 237.424 51.312 237.264 51.184L236.656 51.968C237.392 52.624 238.224 53.52 238.72 54.224C238.368 54.752 238 55.264 237.664 55.696L236.608 55.744L236.704 56.8C237.44 56.752 238.304 56.704 239.216 56.656V63.248H240.272V56.592L241.536 56.512C241.664 56.848 241.76 57.168 241.824 57.44L242.72 57.04C242.512 56.176 241.872 54.8 241.216 53.776L240.384 54.112ZM249.472 57.712V61.328H244.656V57.712H249.472ZM243.568 63.216H244.656V62.384H249.472V63.152H250.624V56.656H243.568V63.216ZM242.96 49.44V50.528H245.552C245.264 52.48 244.576 54.096 242.368 55.008C242.624 55.216 242.944 55.616 243.072 55.888C245.568 54.784 246.384 52.896 246.72 50.528H249.792C249.68 53.056 249.536 54.032 249.312 54.304C249.184 54.432 249.056 54.448 248.8 54.448C248.528 54.448 247.84 54.448 247.12 54.384C247.312 54.688 247.44 55.152 247.472 55.488C248.208 55.504 248.912 55.52 249.28 55.472C249.728 55.44 250.016 55.344 250.272 55.04C250.656 54.576 250.784 53.328 250.912 49.936C250.928 49.76 250.928 49.44 250.928 49.44H242.96Z" fill="#1C1C1C"/>
<g clip-path="url(#clip0_3_6616)">
<path d="M76.4139 49.414L82.5559 55.556L76.4139 61.698" stroke="#1C1C1C" stroke-linecap="round" stroke-linejoin="round"/>
</g>
<g clip-path="url(#clip1_3_6616)">
<path d="M164.414 49.414L170.556 55.556L164.414 61.698" stroke="#1C1C1C" stroke-linecap="round" stroke-linejoin="round"/>
</g>
<path d="M58 44L63 46.8868V41.1132L58 44ZM74 44L69 41.1132V46.8868L74 44ZM62.5 44.5H69.5V43.5H62.5V44.5Z" fill="#E73525"/>
<path d="M56.7344 35H55.6445V27.7754L53.459 28.5781V27.5938L56.5645 26.4277H56.7344V35ZM64.1641 26.4629V27.3828H63.9648C63.1211 27.3984 62.4492 27.6484 61.9492 28.1328C61.4492 28.6172 61.1602 29.2988 61.082 30.1777C61.5312 29.6621 62.1445 29.4043 62.9219 29.4043C63.6641 29.4043 64.2559 29.666 64.6973 30.1895C65.1426 30.7129 65.3652 31.3887 65.3652 32.2168C65.3652 33.0957 65.125 33.7988 64.6445 34.3262C64.168 34.8535 63.5273 35.1172 62.7227 35.1172C61.9062 35.1172 61.2441 34.8047 60.7363 34.1797C60.2285 33.5508 59.9746 32.7422 59.9746 31.7539V31.3379C59.9746 29.7676 60.3086 28.5684 60.9766 27.7402C61.6484 26.9082 62.6465 26.4824 63.9707 26.4629H64.1641ZM62.7402 30.3066C62.3691 30.3066 62.0273 30.418 61.7148 30.6406C61.4023 30.8633 61.1855 31.1426 61.0645 31.4785V31.877C61.0645 32.5801 61.2227 33.1465 61.5391 33.5762C61.8555 34.0059 62.25 34.2207 62.7227 34.2207C63.2109 34.2207 63.5938 34.041 63.8711 33.6816C64.1523 33.3223 64.293 32.8516 64.293 32.2695C64.293 31.6836 64.1504 31.2109 63.8652 30.8516C63.584 30.4883 63.209 30.3066 62.7402 30.3066ZM72.1152 31.9004C72.1152 32.8652 71.8945 33.6426 71.4531 34.2324C71.0117 34.8223 70.4141 35.1172 69.6602 35.1172C68.8906 35.1172 68.2852 34.873 67.8438 34.3848V37.4375H66.7598V28.6602H67.75L67.8027 29.3633C68.2441 28.8164 68.8574 28.543 69.6426 28.543C70.4043 28.543 71.0059 28.8301 71.4473 29.4043C71.8926 29.9785 72.1152 30.7773 72.1152 31.8008V31.9004ZM71.0312 31.7773C71.0312 31.0625 70.8789 30.498 70.5742 30.084C70.2695 29.6699 69.8516 29.4629 69.3203 29.4629C68.6641 29.4629 68.1719 29.7539 67.8438 30.3359V33.3652C68.168 33.9434 68.6641 34.2324 69.332 34.2324C69.8516 34.2324 70.2637 34.0273 70.5684 33.6172C70.877 33.2031 71.0312 32.5898 71.0312 31.7773ZM75.5312 30.9746L76.9375 28.6602H78.2031L76.1289 31.7949L78.2676 35H77.0137L75.5488 32.627L74.084 35H72.8242L74.9629 31.7949L72.8887 28.6602H74.1426L75.5312 30.9746Z" fill="black"/>
<defs>
<clipPath id="clip0_3_6616">
<rect width="8.556" height="15.112" fill="white" transform="translate(75 48)"/>
</clipPath>
<clipPath id="clip1_3_6616">
<rect width="8.556" height="15.112" fill="white" transform="translate(163 48)"/>
</clipPath>
</defs>
</svg>
