<svg width="280" height="110" viewBox="0 0 280 110" fill="none" xmlns="http://www.w3.org/2000/svg">
<rect width="280" height="110" fill="white"/>
<path d="M39.064 56.032H30.904V54.448H39.064V56.032ZM30.904 61.264V59.568H39.064V61.264H30.904ZM39.064 58.624H30.904V56.992H39.064V58.624ZM42.12 51.92V50.816H38.088C38.568 50.272 39.08 49.6 39.512 48.928L38.216 48.592C37.864 49.248 37.272 50.16 36.76 50.816H32.536L33.224 50.448C32.936 49.904 32.296 49.12 31.72 48.56L30.68 49.008C31.176 49.552 31.72 50.272 32.04 50.816H27.912V51.92H34.312C34.216 52.384 34.072 52.928 33.928 53.392H29.736V63.232H30.904V62.32H39.064V63.232H40.28V53.392H35.192C35.384 52.944 35.544 52.432 35.72 51.92H42.12ZM55.128 54.384H47.096V52.928H55.128V54.384ZM55.128 56.752H47.096V55.28H55.128V56.752ZM55.128 59.136H47.096V57.664H55.128V59.136ZM45.88 51.984V60.096H56.392V51.984H51.192C51.352 51.536 51.512 51.024 51.656 50.528H57.608V49.44H44.344V50.528H50.296C50.216 51.008 50.088 51.536 49.96 51.984H45.88ZM48.776 60.272C47.672 61.008 45.496 61.84 43.784 62.288C44.056 62.544 44.408 62.96 44.6 63.216C46.312 62.736 48.456 61.888 49.848 61.056L48.776 60.272ZM52.168 61.136C54.04 61.776 55.928 62.608 57.064 63.232L58.168 62.416C56.92 61.792 54.888 60.976 53.016 60.352L52.168 61.136Z" fill="#1C1C1C"/>
<path d="M113.824 49.376H106.496V50.352H113.824V49.376ZM104.464 48.656C103.536 51.072 101.984 53.44 100.368 54.96C100.576 55.232 100.928 55.856 101.04 56.112C101.648 55.504 102.24 54.8 102.816 54V63.168H103.936V52.288C104.56 51.248 105.12 50.112 105.568 48.992L104.464 48.656ZM113.072 59.136V61.488H107.28V59.136H113.072ZM106.128 63.216H107.28V62.464H113.072V63.168H114.256V58.176H106.128V63.216ZM106.304 56.944H114.08V55.984H106.304V56.944ZM114.112 53.776H106.304V54.752H114.112V53.776ZM104.992 51.568V52.56H115.328V51.568H104.992ZM124.672 57.216V54.56H128.976V57.216H124.672ZM119.6 57.216C119.648 56.624 119.664 56.032 119.664 55.504V54.56H123.488V57.216H119.6ZM123.488 50.88V53.44H119.664V50.88H123.488ZM128.976 53.44H124.672V50.88H128.976V53.44ZM130.144 49.744H118.496V55.504C118.496 57.728 118.336 60.544 116.576 62.528C116.832 62.672 117.312 63.072 117.488 63.312C118.704 61.952 119.248 60.128 119.488 58.352H123.488V63.072H124.672V58.352H128.976V61.6C128.976 61.904 128.864 62 128.544 62.016C128.256 62.016 127.168 62.032 126.048 61.984C126.208 62.304 126.4 62.816 126.448 63.136C127.952 63.152 128.88 63.136 129.424 62.944C129.936 62.736 130.144 62.384 130.144 61.616V49.744ZM147.136 55.632V54.464H140.32V52.048H145.408V50.912H140.32V48.608H139.072V54.464H132.896V55.632H139.072V63.216H140.32V58C142.08 58.512 144.224 59.328 145.36 59.888L145.968 58.816C144.704 58.224 142.288 57.424 140.544 56.96L140.32 57.312V55.632H147.136Z" fill="#1C1C1C"/>
<path d="M203.136 55.632V54.464H196.32V52.048H201.408V50.912H196.32V48.608H195.072V54.464H188.896V55.632H195.072V63.216H196.32V58C198.08 58.512 200.224 59.328 201.36 59.888L201.968 58.816C200.704 58.224 198.288 57.424 196.544 56.96L196.32 57.312V55.632H203.136ZM208.144 53.936H218.4V52.736H213.92V48.64H212.672V52.736H208.144V49.04H206.928V54.336C206.928 57.12 206.704 60.064 204.688 62.32C204.96 62.528 205.408 62.96 205.6 63.248C207.072 61.632 207.696 59.696 207.952 57.696H214.672V63.216H215.936V56.48H208.08C208.128 55.76 208.144 55.04 208.144 54.32V53.936ZM227.936 49.808C229.36 52.064 232.096 54.416 234.64 55.76C234.832 55.408 235.12 55.008 235.424 54.704C232.88 53.552 230.112 51.216 228.48 48.608H227.248C226.048 50.864 223.456 53.456 220.64 54.912C220.912 55.168 221.248 55.584 221.376 55.872C224.112 54.368 226.688 51.952 227.936 49.808ZM230.176 54.208V63.2H231.408V54.208H230.176ZM224.512 54.272V56.48C224.512 58.432 224.24 60.704 221.248 62.384C221.552 62.576 222 62.976 222.192 63.232C225.376 61.36 225.728 58.752 225.728 56.496V54.272H224.512ZM237.504 57.68C237.328 59.088 236.992 60.512 236.464 61.488C236.72 61.568 237.2 61.792 237.392 61.936C237.92 60.912 238.304 59.376 238.528 57.872L237.504 57.68ZM240.8 57.856C241.216 58.784 241.616 59.984 241.776 60.784L242.688 60.48C242.528 59.696 242.096 58.48 241.664 57.568L240.8 57.856ZM240.384 54.112C240.656 54.544 240.912 55.056 241.136 55.552L238.768 55.648C239.824 54.272 241.04 52.4 241.952 50.88L240.944 50.432C240.528 51.28 239.952 52.304 239.328 53.296C239.072 52.976 238.752 52.608 238.4 52.256C238.992 51.36 239.664 50.096 240.208 49.04L239.168 48.624C238.832 49.504 238.272 50.704 237.728 51.6C237.568 51.456 237.424 51.312 237.264 51.184L236.656 51.968C237.392 52.624 238.224 53.52 238.72 54.224C238.368 54.752 238 55.264 237.664 55.696L236.608 55.744L236.704 56.8C237.44 56.752 238.304 56.704 239.216 56.656V63.248H240.272V56.592L241.536 56.512C241.664 56.848 241.76 57.168 241.824 57.44L242.72 57.04C242.512 56.176 241.872 54.8 241.216 53.776L240.384 54.112ZM249.472 57.712V61.328H244.656V57.712H249.472ZM243.568 63.216H244.656V62.384H249.472V63.152H250.624V56.656H243.568V63.216ZM242.96 49.44V50.528H245.552C245.264 52.48 244.576 54.096 242.368 55.008C242.624 55.216 242.944 55.616 243.072 55.888C245.568 54.784 246.384 52.896 246.72 50.528H249.792C249.68 53.056 249.536 54.032 249.312 54.304C249.184 54.432 249.056 54.448 248.8 54.448C248.528 54.448 247.84 54.448 247.12 54.384C247.312 54.688 247.44 55.152 247.472 55.488C248.208 55.504 248.912 55.52 249.28 55.472C249.728 55.44 250.016 55.344 250.272 55.04C250.656 54.576 250.784 53.328 250.912 49.936C250.928 49.76 250.928 49.44 250.928 49.44H242.96Z" fill="#00A19B"/>
<g clip-path="url(#clip0_3_6656)">
<path d="M76.4142 49.414L82.5562 55.556L76.4142 61.698" stroke="#1C1C1C" stroke-linecap="round" stroke-linejoin="round"/>
</g>
<g clip-path="url(#clip1_3_6656)">
<path d="M165.414 49.414L171.556 55.556L165.414 61.698" stroke="#1C1C1C" stroke-linecap="round" stroke-linejoin="round"/>
</g>
<defs>
<clipPath id="clip0_3_6656">
<rect width="8.556" height="15.112" fill="white" transform="translate(75 48)"/>
</clipPath>
<clipPath id="clip1_3_6656">
<rect width="8.556" height="15.112" fill="white" transform="translate(164 48)"/>
</clipPath>
</defs>
</svg>
