<?xml version="1.0" encoding="utf-8"?>
<!-- Generator: Adobe Illustrator 25.2.1, SVG Export Plug-In . SVG Version: 6.00 Build 0)  -->
<svg version="1.1" id="圖層_1" xmlns="http://www.w3.org/2000/svg" xmlns:xlink="http://www.w3.org/1999/xlink" x="0px" y="0px"
	 viewBox="0 0 201 66" style="enable-background:new 0 0 201 66;" xml:space="preserve">
<style type="text/css">
	.st0{opacity:0.7;}
	.st1{fill:none;stroke:#00A19B;stroke-miterlimit:10;}
	.st2{fill:#00A19B;}
</style>
<g id="圖層_2_1_" class="st0">
	<g id="圖層_1-2">
		<path class="st1" d="M4.5,0.5h192c2.2,0,4,1.8,4,4v57c0,2.2-1.8,4-4,4H4.5c-2.2,0-4-1.8-4-4v-57C0.5,2.3,2.3,0.5,4.5,0.5z"/>
		<path class="st2" d="M53.5,29.6h2.4v4.7h4.5v-4.7h2.3v11.8h-2.3v-5.1h-4.5v5.1h-2.4V29.6z"/>
		<path class="st2" d="M67,35.5c0-3.9,2.2-6.1,5.3-6.1s5.3,2.2,5.3,6.1s-2.2,6.2-5.3,6.2S67,39.3,67,35.5z M75.2,35.5
			c0-2.5-1.1-4.1-2.9-4.1s-2.9,1.5-2.9,4.1s1.1,4.2,2.9,4.2S75.2,38,75.2,35.5L75.2,35.5z"/>
		<path class="st2" d="M80.2,29.6h2.5l1.6,5.8c0.4,1.3,0.6,2.5,1,3.8h0.1c0.4-1.3,0.6-2.5,1-3.8l1.5-5.8h2.4l-3.6,11.8h-2.8
			L80.2,29.6z"/>
		<path class="st2" d="M93.6,29.6h7.3v2H96v2.7h4.2v2H96v3.2h5.1v2h-7.4V29.6z"/>
		<path class="st2" d="M111.9,41.4l-2.4-4.4h-1.7v4.5h-2.4V29.6h4.1c2.5,0,4.4,0.9,4.4,3.6c0.1,1.5-0.8,2.9-2.2,3.4l2.8,4.8H111.9z
			 M107.9,35.1h1.5c1.5,0,2.3-0.6,2.3-1.9s-0.8-1.7-2.3-1.7h-1.5V35.1z"/>
		<path class="st2" d="M122.2,36.5c-0.7,1.8-1.8,3.5-3.1,5c-0.6-0.4-1.2-0.8-1.8-1.2c1.3-1.2,2.2-2.7,2.8-4.4L122.2,36.5z
			 M125.9,34.7v8.1h-2v-8.1h-6v-1.9h14.2v1.9H125.9z M130.6,30.8h-11.3v-1.9h11.3V30.8z M129.7,35.8c1.1,1.5,2,3.1,2.7,4.8l-2,0.9
			c-0.6-1.7-1.5-3.4-2.5-4.9L129.7,35.8z"/>
		<path class="st2" d="M135.6,41.5c0.9-0.8,1.5-1.7,2-2.7l1.6,0.7c-0.5,1.1-1.2,2.1-2,3L135.6,41.5z M149.9,32.8H136v-1.5h3.4
			c-0.1-0.3-0.2-0.6-0.3-0.9l1.2-0.2h-3.4v-1.5h5.2c-0.1-0.2-0.2-0.5-0.3-0.8l1.9-0.3c0.2,0.3,0.3,0.7,0.5,1.1h5v1.5h-3.3l1.3,0.2
			c-0.2,0.3-0.4,0.6-0.5,0.9h3.4L149.9,32.8z M148.2,38.3h-4.9c0.6,0.3,1.2,0.7,1.7,1l-1.2,1.2c-0.8-0.6-1.6-1.2-2.5-1.6l0.7-0.6
			h-4.1v-4.9h10.3L148.2,38.3z M144.4,41.1c0.6,0,0.7-0.2,0.8-1.3c0.5,0.3,1,0.5,1.6,0.6c-0.2,1.8-0.7,2.2-2.2,2.2H142
			c-2,0-2.5-0.5-2.5-2V39h1.9v1.7c0,0.4,0.1,0.5,0.9,0.5H144.4z M146.3,34.6h-6.6v0.7h6.6V34.6z M146.3,36.4h-6.6v0.7h6.6V36.4z
			 M140.9,30.2c0.2,0.4,0.3,0.7,0.4,1.1h3.3c0.2-0.4,0.3-0.8,0.4-1.1H140.9z M148.1,38.6c0.8,0.8,1.5,1.8,2,2.8l-1.6,0.7
			c-0.5-1-1.1-2-1.8-2.9L148.1,38.6z"/>
	</g>
</g>
</svg>
