<svg xmlns="http://www.w3.org/2000/svg" viewBox="0 0 196.7 96.18"><defs><style>.cls-1,.cls-4{fill:none;stroke-miterlimit:10;}.cls-1{stroke:#00a19b;}.cls-2{fill:#00a19b;}.cls-3{fill:#d32432;}.cls-4{stroke:#d32432;}</style></defs><g id="圖層_2" data-name="圖層 2"><g id="圖層_1-2" data-name="圖層 1"><rect class="cls-1" x="56.2" y="0.5" width="140" height="65" rx="4"/><path class="cls-2" d="M94.82,28.43h2.63l2,5.54c.26.73.48,1.52.72,2.28h.08c.26-.76.47-1.55.72-2.28l2-5.54h2.63V40.27h-2.16V35.33c0-1.12.17-2.77.28-3.89h-.06l-1,2.78-1.83,5H99.49l-1.84-5-.94-2.78h-.06c.11,1.12.3,2.77.3,3.89v4.94H94.82Z"/><path class="cls-2" d="M112.18,33.17c0,.4,0,.8,0,1.21h3.18v7.24h-1.73V36.06H112.1a14.4,14.4,0,0,1-1.33,5.69,9.06,9.06,0,0,0-1.31-1.16c.93-2,1-5.09,1-7.42V26.84h1.68V31.4h1.57V27.18h1.71v5.89h-3.28Zm11.94-1.36a16.82,16.82,0,0,1-2,6.21,8.07,8.07,0,0,0,2.51,2,7.25,7.25,0,0,0-1.29,1.57,8.75,8.75,0,0,1-2.34-2,9.91,9.91,0,0,1-2.43,2.1,7.28,7.28,0,0,0-1-1.38,7,7,0,0,1-.67,1.47,7,7,0,0,0-1.47-1c1.13-2.05,1.26-5.28,1.26-7.49V27.63h7.24v1.71h-5.46V31.5h4.19l.32-.06ZM119.9,38a17.23,17.23,0,0,1-1.48-3.52,20.59,20.59,0,0,1-.76,5.52A7.81,7.81,0,0,0,119.9,38Zm-.16-4.75A15.7,15.7,0,0,0,121,36.3a13.46,13.46,0,0,0,1.11-3.07Z"/><path class="cls-2" d="M140.79,34.78a9.52,9.52,0,0,1-1.44,3.43,29.94,29.94,0,0,1,3,1.87l-1.26,1.54a29,29,0,0,0-3-2,11.23,11.23,0,0,1-4.91,2.13,6.87,6.87,0,0,0-.91-1.76,10.16,10.16,0,0,0,4-1.39c-.95-.53-1.92-1-2.77-1.46.37-.64.75-1.45,1.14-2.32H133l.15.91-1.75.53v3.44c0,.92-.17,1.38-.7,1.65a4.9,4.9,0,0,1-2.39.36,6.29,6.29,0,0,0-.54-1.73c.62,0,1.28,0,1.49,0s.3-.08.3-.31V36.75l-1.74.5-.4-1.83c.6-.13,1.34-.32,2.14-.53V31.5h-1.9V29.72h1.9v-3h1.84v3h1.51V31.5h-1.51v2.9l1.25-.35v-1h2.7a19.74,19.74,0,0,0,.74-2.39l2,.27c-.19.69-.41,1.4-.67,2.12H139c0-.34.07-.68.08-1l2.1,0c0,.34-.08.68-.11,1h1.45v1.69ZM135,32h-1.78v-3.4h3.47c-.11-.54-.25-1.13-.38-1.63l1.94-.29c.17.59.36,1.31.49,1.92h3.57V32h-1.85V30.24H135Zm1.76,2.81c-.26.61-.5,1.17-.74,1.68l1.67.84a7.18,7.18,0,0,0,1.1-2.52Z"/><path class="cls-2" d="M160.51,39.39V41.2h-8.95V40c-1.92.43-3.94.84-5.48,1.2l-.35-1.72c.63-.09,1.41-.22,2.24-.36v-4h-2V33.49h2V32.32h-1.1V31.6c-.26.24-.53.48-.79.69a13.21,13.21,0,0,0-.65-2,10.93,10.93,0,0,0,3.15-3.71l1.39.64c-.09.19-.19.38-.28.58a15.22,15.22,0,0,1,2.62,1.93l-.8,1.55c-.14-.14-.3-.3-.5-.48v1.48h-1.44v1.17h2V35.1h-2v3.75l2-.37.06.91h1.7c.16-1.26.33-2.78.48-4.37h-1.54V33.21h1.71c.12-1.29.23-2.61.29-3.82h-1.6V27.58h6.74c0,1.74-.08,3.71-.14,5.63h1.24V35h-1.31c-.06,1.6-.14,3.11-.22,4.37Zm-13.29-3.7a17.76,17.76,0,0,1,.58,2.74l-1.22.35a18.63,18.63,0,0,0-.51-2.77Zm3.67-5a19.82,19.82,0,0,0-2-1.52,15.73,15.73,0,0,1-1.17,1.52Zm-1.16,7.51a22.38,22.38,0,0,0,.56-2.71l1.33.37c-.3,1-.57,2-.83,2.69ZM155.5,35c-.15,1.6-.32,3.12-.47,4.37h2.05c.11-1.26.21-2.78.29-4.37Zm.49-5.63c-.09,1.21-.21,2.51-.32,3.82h1.78c.05-1.28.08-2.59.11-3.82Z"/><path class="cls-3" d="M5.84,34.69h-1a1.63,1.63,0,0,0-1.78-1.46,1.74,1.74,0,0,0-1.58,1A4.52,4.52,0,0,0,1,36.62c0,.05,0,.16,0,.32H1a2.28,2.28,0,0,1,.92-1,2.38,2.38,0,0,1,1.33-.37,2.63,2.63,0,0,1,2,.79,3.15,3.15,0,0,1-.07,4.14,2.83,2.83,0,0,1-2.08.84A2.69,2.69,0,0,1,.74,40.14,5.37,5.37,0,0,1,0,37.08a6.13,6.13,0,0,1,.8-3.33A2.61,2.61,0,0,1,3.11,32.4,2.46,2.46,0,0,1,5.84,34.69ZM1.67,36.92a2,2,0,0,0-.55,1.47,2,2,0,0,0,.52,1.47,1.8,1.8,0,0,0,1.43.61,1.84,1.84,0,0,0,1.4-.58A2.24,2.24,0,0,0,5,38.36a2,2,0,0,0-.52-1.45,1.85,1.85,0,0,0-1.42-.56A1.88,1.88,0,0,0,1.67,36.92Z"/><path class="cls-3" d="M14.32,32.57v.87H10.15l-.29,2.87h.05a2.27,2.27,0,0,1,.92-.65,2.83,2.83,0,0,1,1.1-.2,2.61,2.61,0,0,1,2,.77,3,3,0,0,1,.77,2.17,2.73,2.73,0,0,1-.92,2.12,3.1,3.1,0,0,1-2.14.78,3.07,3.07,0,0,1-1.93-.61,2.47,2.47,0,0,1-1-1.86h1a1.7,1.7,0,0,0,.65,1.25,2.14,2.14,0,0,0,1.31.38,2,2,0,0,0,1.48-.57,2,2,0,0,0,.59-1.48,2.18,2.18,0,0,0-.55-1.58,1.86,1.86,0,0,0-1.46-.57,2.24,2.24,0,0,0-1.1.27,1.67,1.67,0,0,0-.76.77H8.89l.46-4.73Z"/><path class="cls-3" d="M22.6,35.76a3.6,3.6,0,0,1,.71,2.29,3.69,3.69,0,0,1-.69,2.27,2.49,2.49,0,0,1-2.08,1A2.24,2.24,0,0,1,18.49,40v3.5h-1V34.93h.9v1a2.21,2.21,0,0,1,2.06-1.19A2.51,2.51,0,0,1,22.6,35.76Zm-3.68.53a2.87,2.87,0,0,0-.46,1.7v.12A2.65,2.65,0,0,0,19,39.85a1.64,1.64,0,0,0,1.36.66,1.79,1.79,0,0,0,1.52-.7,3,3,0,0,0,.47-1.76,3.19,3.19,0,0,0-.44-1.75,1.74,1.74,0,0,0-1.52-.74A1.66,1.66,0,0,0,18.92,36.29Z"/><path class="cls-3" d="M26.77,34.93l1.61,2.21L30,34.93H31.1l-2.19,2.92,2.45,3.28H30.23l-1.85-2.58-1.86,2.58H25.38l2.46-3.28-2.2-2.92Z"/><line class="cls-4" x1="44.14" y1="6.23" x2="44.14" y2="59.16"/><path class="cls-3" d="M44.14.2a30.34,30.34,0,0,1-4.76,8.55L44.14,7l4.75,1.72A30.31,30.31,0,0,1,44.14.2Z"/><path class="cls-3" d="M44.14,65.2a30.34,30.34,0,0,0-4.76-8.55l4.76,1.72,4.75-1.72A30.31,30.31,0,0,0,44.14,65.2Z"/><path class="cls-3" d="M111,85.25v8.56h-1V86.45a4.54,4.54,0,0,1-2,1.17v-1a5.32,5.32,0,0,0,1.2-.52,4.93,4.93,0,0,0,1-.87Z"/><path class="cls-3" d="M119.35,85.25v5.81h1.39v.81h-1.39v1.94h-.93V91.87h-4.31v-.94l4.32-5.68Zm-4.41,5.81h3.48V86.53h0Z"/><path class="cls-3" d="M128.44,86.43a7.38,7.38,0,0,1,0,6.19A2.55,2.55,0,0,1,126.12,94a2.5,2.5,0,0,1-2.31-1.36,7.29,7.29,0,0,1,0-6.19,2.47,2.47,0,0,1,2.31-1.35A2.52,2.52,0,0,1,128.44,86.43Zm-4,.72a8,8,0,0,0,0,4.75,1.71,1.71,0,0,0,1.65,1.24,1.73,1.73,0,0,0,1.66-1.24,7.81,7.81,0,0,0,0-4.75,1.72,1.72,0,0,0-1.66-1.23A1.7,1.7,0,0,0,124.47,87.15Z"/><path class="cls-3" d="M137,88.44a4,4,0,0,1,0,4.55A2.47,2.47,0,0,1,135,94a2.23,2.23,0,0,1-2-1.3v3.5h-1V87.61h.9v1a2.19,2.19,0,0,1,2.06-1.19A2.52,2.52,0,0,1,137,88.44Zm-3.68.52a2.91,2.91,0,0,0-.47,1.71v.12a2.68,2.68,0,0,0,.53,1.74,1.62,1.62,0,0,0,1.35.66,1.8,1.8,0,0,0,1.53-.7,3,3,0,0,0,.46-1.76,3.1,3.1,0,0,0-.44-1.75,1.7,1.7,0,0,0-1.51-.75A1.65,1.65,0,0,0,133.36,89Z"/><path class="cls-3" d="M141.21,87.61l1.6,2.21,1.6-2.21h1.13l-2.2,2.91,2.46,3.29h-1.14l-1.85-2.58L141,93.81h-1.14l2.45-3.29-2.19-2.91Z"/><line class="cls-4" x1="62.23" y1="75.06" x2="190.16" y2="75.06"/><path class="cls-3" d="M56.2,75.06a30.12,30.12,0,0,1,8.54,4.75L63,75.06l1.72-4.76A30.15,30.15,0,0,1,56.2,75.06Z"/><path class="cls-3" d="M196.2,75.06a30.18,30.18,0,0,0-8.55,4.75l1.72-4.75-1.72-4.76A30.2,30.2,0,0,0,196.2,75.06Z"/></g></g></svg>