<svg xmlns="http://www.w3.org/2000/svg" viewBox="0 0 200 65"><defs><style>.cls-1{fill:#acacac;}.cls-2{fill:#fff;}</style></defs><g id="圖層_2" data-name="圖層 2"><g id="圖層_1-2" data-name="圖層 1"><rect class="cls-1" width="200" height="65" rx="4"/><path class="cls-2" d="M43.15,29.09H46.4C50,29.09,52.26,31,52.26,35s-2.24,6-5.73,6H43.15ZM46.26,39c2.21,0,3.58-1.18,3.58-4.07s-1.37-4-3.58-4h-.74V39Z"/><path class="cls-2" d="M56.16,29.25a1.41,1.41,0,1,1,1.41,1.28A1.3,1.3,0,0,1,56.16,29.25ZM56.39,32h2.33v9H56.39Z"/><path class="cls-2" d="M62.4,39.89l1.07-1.47a3.87,3.87,0,0,0,2.4,1c.9,0,1.3-.39,1.3-.95s-.93-1-1.87-1.34c-1.14-.43-2.45-1.12-2.45-2.61s1.31-2.75,3.33-2.75a5,5,0,0,1,3,1.1l-1,1.43a3.45,3.45,0,0,0-1.94-.77c-.8,0-1.18.35-1.18.86,0,.66.88.9,1.82,1.25,1.19.45,2.5,1,2.5,2.71s-1.23,2.83-3.57,2.83A5.63,5.63,0,0,1,62.4,39.89Z"/><path class="cls-2" d="M72.72,38.5c0-1.92,1.55-2.93,5.15-3.31,0-.88-.41-1.55-1.52-1.55a5,5,0,0,0-2.46.84L73,32.93a7.15,7.15,0,0,1,3.75-1.18c2.27,0,3.44,1.36,3.44,4v5.23H78.31l-.18-1h0a4.17,4.17,0,0,1-2.7,1.19A2.55,2.55,0,0,1,72.72,38.5Zm5.15-.06V36.63c-2.17.29-2.91.88-2.91,1.68s.5,1,1.19,1A2.36,2.36,0,0,0,77.87,38.44Z"/><path class="cls-2" d="M86.72,40h0l-.2.94H84.62V28.16H87v3.22l0,1.44a3.83,3.83,0,0,1,2.48-1.07c2.21,0,3.54,1.81,3.54,4.54,0,3.09-1.84,4.87-3.81,4.87A3.51,3.51,0,0,1,86.72,40Zm3.79-3.65c0-1.71-.54-2.66-1.77-2.66a2.56,2.56,0,0,0-1.78.93v3.94a2.45,2.45,0,0,0,1.63.67C89.68,39.22,90.51,38.29,90.51,36.34Z"/><path class="cls-2" d="M96.93,38.42V28.16h2.34V38.53c0,.53.25.71.48.71a1.44,1.44,0,0,0,.32,0l.28,1.74a3.21,3.21,0,0,1-1.21.21C97.5,41.16,96.93,40.09,96.93,38.42Z"/><path class="cls-2" d="M103.41,36.47c0-2.91,2-4.72,4.18-4.72,2.46,0,3.74,1.81,3.74,4.29a4.61,4.61,0,0,1-.11,1.07H105.7a2.35,2.35,0,0,0,2.48,2.24,3.68,3.68,0,0,0,2-.62l.8,1.44a5.69,5.69,0,0,1-3.13,1A4.34,4.34,0,0,1,103.41,36.47Zm5.9-.91c0-1.22-.54-2-1.69-2a2,2,0,0,0-2,2Z"/><path class="cls-2" d="M114.75,36.47c0-2.93,1.83-4.72,3.76-4.72a3.1,3.1,0,0,1,2.28,1l-.1-1.41V28.16H123V40.93h-1.9L121,40h0a3.72,3.72,0,0,1-2.48,1.15C116.19,41.16,114.75,39.4,114.75,36.47Zm5.94,1.82V34.36a2.36,2.36,0,0,0-1.67-.68c-1,0-1.85,1-1.85,2.76s.67,2.78,1.85,2.78A2,2,0,0,0,120.69,38.29Z"/><path class="cls-2" d="M131.55,36a16.43,16.43,0,0,1-3.09,5,14.78,14.78,0,0,0-1.77-1.19,11.12,11.12,0,0,0,2.81-4.4Zm3.7-1.75v8.1h-2v-8.1h-6v-1.9h14.23v1.9ZM140,30.27H128.72V28.39H140Zm-.93,5a21.14,21.14,0,0,1,2.69,4.77l-2,.9a20.15,20.15,0,0,0-2.52-4.88Z"/><path class="cls-2" d="M145,41a7.91,7.91,0,0,0,2-2.72l1.59.7a9.84,9.84,0,0,1-2,3Zm14.29-8.66H145.41V30.87h3.34a5,5,0,0,0-.32-.88l1.2-.24h-3.44V28.27h5.19c-.08-.25-.18-.53-.27-.75l1.85-.34a8.14,8.14,0,0,1,.47,1.09h5v1.48h-3.28l1.28.22c-.19.32-.35.62-.51.9h3.36Zm-1.73,5.46h-4.89a12.06,12.06,0,0,1,1.68,1.05L153.14,40a11.3,11.3,0,0,0-2.51-1.58l.65-.64h-4.06V32.92h10.3Zm-3.71,2.83c.59,0,.69-.18.77-1.3a5.67,5.67,0,0,0,1.62.6c-.21,1.77-.72,2.22-2.21,2.22h-2.58c-2,0-2.51-.46-2.51-2V38.5h1.85v1.67c0,.41.13.46.85.46Zm1.83-6.53H149v.69h6.63Zm0,1.81H149v.69h6.63Zm-5.41-6.16a6.83,6.83,0,0,1,.44,1.12h3.27c.16-.37.34-.79.45-1.12Zm7.25,8.38a12.35,12.35,0,0,1,2,2.84l-1.65.73a11.89,11.89,0,0,0-1.84-2.89Z"/></g></g></svg>