<?xml version="1.0" encoding="utf-8"?>
<!-- Generator: Adobe Illustrator 25.2.1, SVG Export Plug-In . SVG Version: 6.00 Build 0)  -->
<svg version="1.1" id="圖層_1" xmlns="http://www.w3.org/2000/svg" xmlns:xlink="http://www.w3.org/1999/xlink" x="0px" y="0px"
	 viewBox="0 0 138.6 45" style="enable-background:new 0 0 138.6 45;" xml:space="preserve">
<style type="text/css">
	.st0{fill:#00A19B;}
	.st1{fill:none;stroke:#D32432;stroke-miterlimit:10;}
	.st2{fill:#D32432;}
	.st3{fill:none;stroke:#00A19B;stroke-miterlimit:10;}
	.st4{fill:none;stroke:#3CBAAD;stroke-miterlimit:10;}
	.st5{fill:#3CBAAD;}
	.st6{fill:#FFFFFF;}
	.st7{fill:#ACACAC;}
	.st8{clip-path:url(#SVGID_2_);fill:#00A19B;}
	.st9{clip-path:url(#SVGID_4_);fill:#ACACAC;}
	.st10{clip-path:url(#SVGID_6_);}
</style>
<g>
	<defs>
		<path id="SVGID_5_" d="M134.6,45H4c-2.2,0-4-1.8-4-4V4c0-2.2,1.8-4,4-4h130.6c2.2,0,4,1.8,4,4v37C138.6,43.2,136.8,45,134.6,45z"
			/>
	</defs>
	<clipPath id="SVGID_2_">
		<use xlink:href="#SVGID_5_"  style="overflow:visible;"/>
	</clipPath>
	<g style="clip-path:url(#SVGID_2_);">
		<path class="st0" d="M48.2,19.8c-0.8,2.3-1.9,4.2-3.3,5.7c1.6,1.3,3.7,2.2,6.1,2.8c-0.4,0.4-1,1.2-1.3,1.8
			c-2.5-0.7-4.6-1.7-6.3-3.1c-1.8,1.4-3.9,2.5-6.5,3.2c-0.2-0.4-0.8-1.3-1.2-1.8c2.5-0.6,4.6-1.5,6.2-2.8c-1.4-1.6-2.5-3.5-3.4-5.8
			h-2.5V18h6.8c-0.2-0.7-0.5-1.6-0.9-2.3l2-0.6c0.4,0.7,0.9,1.8,1.1,2.4L43.7,18h7v1.9H48.2z M40.5,19.8c0.7,1.7,1.6,3.2,2.9,4.4
			c1.1-1.2,2-2.7,2.6-4.4H40.5z"/>
		<path class="st0" d="M68.3,25.7h-6v2.4c0,1-0.2,1.5-1,1.8c-0.8,0.3-1.8,0.3-3.1,0.3c-0.1-0.6-0.5-1.4-0.8-1.9c1,0,2.2,0,2.5,0
			s0.4-0.1,0.4-0.3v-2.4h-5.9v-1.8h5.9V23c0.7-0.3,1.3-0.8,2-1.3h-5.2v-1.8h7.1l0.4-0.1l1.3,1c-0.9,1-2.2,2-3.5,2.8v0.3h6V25.7z
			 M56.3,20.5h-1.9v-3.7h6c-0.2-0.4-0.4-0.8-0.6-1.1l1.9-0.6c0.4,0.5,0.8,1.1,1,1.6h5.5v3.7h-2v-1.9h-9.9V20.5z"/>
		<path class="st0" d="M76.3,22.8c-0.3,1.5-0.7,3-1.2,4.2c0.3,0.2,0.6,0.4,1,0.6c1.1,0.7,2.6,0.8,4.5,0.8c1.8,0,4.7-0.2,6.5-0.4
			c-0.2,0.5-0.5,1.4-0.6,2c-1.3,0.1-4.1,0.2-6,0.2c-2.1,0-3.5-0.2-4.6-0.8c-0.7-0.4-1.2-0.9-1.6-0.9c-0.4,0-0.9,1.1-1.3,2l-1.3-1.8
			c0.6-0.7,1.2-1.2,1.7-1.5c0.4-0.8,0.7-1.8,0.9-2.8h-2c0.4-0.9,0.8-2.2,1.2-3.5h-1.4V19h3.7c-0.3,1.1-0.7,2.4-1.1,3.5h0.7l0.3-0.1
			L76.3,22.8z M73.6,18.6c-0.2-0.7-0.6-1.9-0.9-2.8l1.7-0.5c0.3,0.8,0.7,1.9,0.9,2.6L73.6,18.6z M80.3,18h-4v-1.5h4v-1.1h1.9v1.1
			h4.2V18h-4.2v0.8h3.5v5.4h-3.5v0.7h4.4v1.6h-4.4v1.4h-1.9v-1.4h-4v-1.6h4v-0.7h-3.4v-5.4h3.4V18z M78.6,20.9h1.6v-0.8h-1.6V20.9z
			 M80.3,22.9v-0.8h-1.6v0.8H80.3z M82.1,20.1v0.8h1.7v-0.8H82.1z M83.8,22.1h-1.7v0.8h1.7V22.1z"/>
		<path class="st0" d="M95.2,21.4c0.4,1.1,0.9,2.5,1,3.3l-1.4,0.5c0-0.2-0.1-0.5-0.1-0.7c-3.2,0.4-3.8,0.6-4.2,0.8
			c-0.1-0.4-0.4-1.2-0.6-1.7c0.4-0.1,0.8-0.4,1.3-1c0.2-0.2,0.6-0.7,1.1-1.3c-1.3,0.1-1.6,0.2-1.9,0.4c-0.1-0.4-0.4-1.2-0.6-1.6
			c0.3-0.1,0.6-0.4,0.9-0.9c0.4-0.5,1.4-2.2,2-3.9l1.7,0.7c-0.6,1.3-1.4,2.7-2.3,3.9l1.1-0.1c0.4-0.6,0.8-1.3,1.1-2l1.6,1
			c-0.9,1.6-2.1,3.2-3.3,4.6l1.6-0.2c-0.1-0.4-0.3-0.8-0.4-1.2L95.2,21.4z M91.9,26.1c-0.1,1.4-0.4,3-0.7,4
			c-0.3-0.2-1.1-0.4-1.4-0.5c0.4-0.9,0.6-2.4,0.7-3.7L91.9,26.1z M93.6,25.8c0.2,1.1,0.4,2.6,0.5,3.6l-1.4,0.3c0-1-0.2-2.5-0.4-3.6
			L93.6,25.8z M95.3,25.3c0.4,1,0.8,2.3,0.9,3.1l-1.3,0.4c-0.1-0.8-0.5-2.2-0.8-3.2L95.3,25.3z M101.2,19v1.8h3v1.7h-7.8v-1.7h2.8
			V19H96v-1.8h3.2v-2h2v2h3.4V19H101.2z M96.7,23.8h7.1v6.4H102v-0.6h-3.5v0.7h-1.8V23.8z M98.5,25.5v2.3h3.5v-2.3H98.5z"/>
		<path class="st0" d="M33.3,31.7v-0.8h72v0.8H33.3z"/>
	</g>
</g>
</svg>
