<?xml version="1.0" encoding="utf-8"?>
<!-- Generator: Adobe Illustrator 25.2.1, SVG Export Plug-In . SVG Version: 6.00 Build 0)  -->
<svg version="1.1" id="圖層_1" xmlns="http://www.w3.org/2000/svg" xmlns:xlink="http://www.w3.org/1999/xlink" x="0px" y="0px"
	 viewBox="0 0 200 65" style="enable-background:new 0 0 200 65;" xml:space="preserve">
<style type="text/css">
	.st0{opacity:0.7;fill:#00A19B;}
	.st1{fill:#FFFFFF;}
</style>
<g id="圖層_2_1_">
	<g id="圖層_1-2">
		<path class="st0" d="M4,0h192c2.2,0,4,1.8,4,4v57c0,2.2-1.8,4-4,4H4c-2.2,0-4-1.8-4-4V4C0,1.8,1.8,0,4,0z"/>
		<path class="st1" d="M56.8,29.1h2.4v4.7h4.5v-4.7H66v11.8h-2.4v-5.1h-4.5v5.1h-2.4V29.1z"/>
		<path class="st1" d="M70.1,36.5c-0.2-2.4,1.6-4.5,3.9-4.7s4.5,1.6,4.7,3.9c0,0.2,0,0.5,0,0.7c0.2,2.4-1.6,4.5-3.9,4.7
			c-2.4,0.2-4.5-1.6-4.7-3.9C70.1,36.9,70.1,36.7,70.1,36.5z M76.3,36.5c0-1.7-0.7-2.8-1.9-2.8s-1.9,1.1-1.9,2.8s0.7,2.8,1.9,2.8
			S76.3,38.2,76.3,36.5z"/>
		<path class="st1" d="M81.5,32h2.4l1.3,4.5c0.2,0.9,0.5,1.8,0.7,2.7h0c0.2-0.9,0.5-1.8,0.7-2.7l1.3-4.5h2.3l-3,9h-2.7L81.5,32z"/>
		<path class="st1" d="M93.1,36.5c-0.2-2.4,1.6-4.5,4-4.7c0,0,0.1,0,0.1,0c2.5,0,3.8,1.8,3.8,4.3c0,0.4,0,0.7-0.1,1.1h-5.5
			c0.1,1.3,1.2,2.3,2.5,2.2c0,0,0,0,0,0c0.7,0,1.4-0.2,2-0.6l0.8,1.4c-0.9,0.6-2,1-3.1,1c-2.4,0.1-4.4-1.9-4.4-4.3
			C93.1,36.8,93.1,36.6,93.1,36.5z M99,35.6c0-1.2-0.6-2-1.7-2c-1.1,0-2,0.9-1.9,2H99z"/>
		<path class="st1" d="M105,32h1.9l0.2,1.6h0.1c0.5-1,1.4-1.7,2.6-1.8c0.3,0,0.7,0.1,1,0.2l-0.4,2c-0.3-0.1-0.6-0.1-0.9-0.1
			c-0.7,0-1.6,0.5-2.1,1.8v5.3H105V32z"/>
		<path class="st1" d="M117.9,36c-0.7,1.8-1.8,3.5-3.1,5c-0.6-0.4-1.2-0.8-1.8-1.2c1.3-1.2,2.2-2.7,2.8-4.4L117.9,36z M121.6,34.2
			v8.1h-2v-8.1h-6v-1.9h14.2v1.9H121.6z M126.4,30.3h-11.3v-1.9h11.3V30.3z M125.4,35.3c1.1,1.5,2,3.1,2.7,4.8l-2,0.9
			c-0.6-1.7-1.5-3.4-2.5-4.9L125.4,35.3z"/>
		<path class="st1" d="M131.3,41c0.9-0.8,1.5-1.7,2-2.7l1.6,0.7c-0.5,1.1-1.2,2.1-2,3L131.3,41z M145.6,32.3h-13.8v-1.5h3.4
			c-0.1-0.3-0.2-0.6-0.3-0.9l1.2-0.2h-3.4v-1.5h5.2c-0.1-0.3-0.2-0.5-0.3-0.8l1.9-0.3c0.2,0.3,0.3,0.7,0.5,1.1h5v1.5h-3.3l1.3,0.2
			c-0.2,0.3-0.4,0.6-0.5,0.9h3.4L145.6,32.3z M143.9,37.8H139c0.6,0.3,1.2,0.7,1.7,1l-1.2,1.2c-0.8-0.6-1.6-1.2-2.5-1.6l0.7-0.6
			h-4.1v-4.9h10.3V37.8z M140.2,40.6c0.6,0,0.7-0.2,0.8-1.3c0.5,0.3,1,0.5,1.6,0.6c-0.2,1.8-0.7,2.2-2.2,2.2h-2.6
			c-2,0-2.5-0.5-2.5-2v-1.6h1.9v1.7c0,0.4,0.1,0.5,0.9,0.5H140.2z M142,34.1h-6.6v0.7h6.6V34.1z M142,35.9h-6.6v0.7h6.6V35.9z
			 M136.6,29.8c0.2,0.4,0.3,0.7,0.4,1.1h3.3c0.2-0.4,0.3-0.8,0.4-1.1H136.6z M143.8,38.1c0.8,0.8,1.5,1.8,2,2.8l-1.6,0.7
			c-0.5-1-1.1-2-1.8-2.9L143.8,38.1z"/>
	</g>
</g>
</svg>
