<svg xmlns="http://www.w3.org/2000/svg" xmlns:xlink="http://www.w3.org/1999/xlink" viewBox="0 0 224.59 296.61"><defs><style>.cls-1{fill:none;}.cls-2{clip-path:url(#clip-path);}.cls-3{fill:url(#linear-gradient);}.cls-4{fill:url(#linear-gradient-2);}.cls-5{fill:#3fb1ea;}.cls-6{fill:url(#linear-gradient-3);}.cls-7{fill:url(#linear-gradient-4);}.cls-8{fill:#009d9a;}.cls-9{fill:#a0eae4;}.cls-10{fill:#fff;}.cls-11{fill:url(#linear-gradient-5);}.cls-12{fill:url(#linear-gradient-6);}.cls-13{fill:url(#linear-gradient-7);}.cls-14{fill:#595963;}.cls-15{fill:#79798c;}.cls-16{fill:#0055b2;}.cls-17{fill:#f0f8ff;}.cls-18{fill:#d32432;}.cls-19{fill:#00a19b;}.cls-20{fill:#ef7800;}.cls-21{fill:#606060;}</style><clipPath id="clip-path"><circle class="cls-1" cx="85.2" cy="158.6" r="30"/></clipPath><linearGradient id="linear-gradient" x1="120.24" y1="122.1" x2="51.52" y2="193.05" gradientUnits="userSpaceOnUse"><stop offset="0.12" stop-color="#97cf9e"/><stop offset="0.54" stop-color="#28aea7"/></linearGradient><linearGradient id="linear-gradient-2" x1="-803.81" y1="1341.93" x2="-817.3" y2="1310.07" gradientTransform="translate(540.75 -1312.04) rotate(-15.09)" gradientUnits="userSpaceOnUse"><stop offset="0" stop-color="#e1f1f9"/><stop offset="0.29" stop-color="#f8fbff"/><stop offset="1" stop-color="#a6d4f4"/></linearGradient><linearGradient id="linear-gradient-3" x1="971.22" y1="141.22" x2="991.53" y2="169.84" gradientTransform="translate(-918.79 71.43) rotate(-3.25)" gradientUnits="userSpaceOnUse"><stop offset="0" stop-color="#e1f1f9"/><stop offset="0.22" stop-color="#f8fbff"/><stop offset="1" stop-color="#a6d4f4"/></linearGradient><linearGradient id="linear-gradient-4" x1="1083.87" y1="-93.98" x2="1083.87" y2="-40.85" gradientTransform="translate(-1001.13 207.17) rotate(2.77)" gradientUnits="userSpaceOnUse"><stop offset="0.19" stop-color="#f8fbff"/><stop offset="0.83" stop-color="#a6d4f4"/></linearGradient><linearGradient id="linear-gradient-5" x1="818.32" y1="135.59" x2="818.32" y2="177.09" gradientTransform="translate(-732)" xlink:href="#linear-gradient-2"/><linearGradient id="linear-gradient-6" x1="818.29" y1="151.94" x2="819.22" y2="140.56" gradientTransform="translate(-732)" gradientUnits="userSpaceOnUse"><stop offset="0" stop-color="#51a3e5"/><stop offset="0.51" stop-color="#c0e4ff"/><stop offset="1" stop-color="#51a3e5"/></linearGradient><linearGradient id="linear-gradient-7" x1="818.38" y1="151.35" x2="819.13" y2="141.06" gradientTransform="translate(-732)" gradientUnits="userSpaceOnUse"><stop offset="0" stop-color="#4888bc"/><stop offset="0.51" stop-color="#61a2f3"/><stop offset="1" stop-color="#4888bc"/></linearGradient></defs><g id="圖層_2" data-name="圖層 2"><g id="圖層_1-2" data-name="圖層 1"><g class="cls-2"><rect class="cls-3" x="51.5" y="125.2" width="66.78" height="66.78"/><path class="cls-4" d="M111.79,193.16h0a3.57,3.57,0,0,1-4.81-.81L93.41,174.59a5.05,5.05,0,0,1,1.22-7.27h0A5,5,0,0,1,101.8,169l11.11,19.4A3.58,3.58,0,0,1,111.79,193.16Z"/><path class="cls-5" d="M109.82,194.13a4,4,0,0,1-3.14-1.55L93.11,174.81a5.42,5.42,0,1,1,9-6l11.12,19.39a3.95,3.95,0,0,1-3.42,5.91ZM97.4,166.85a4.67,4.67,0,0,0-4.59,3.9,4.63,4.63,0,0,0,.9,3.61l13.57,17.76a3.19,3.19,0,0,0,4.3.72h0a3.2,3.2,0,0,0,1-4.24l-11.11-19.4a4.64,4.64,0,0,0-3-2.22A4.45,4.45,0,0,0,97.4,166.85Z"/><path class="cls-6" d="M59.2,157.44h0a3.54,3.54,0,0,1,4.83.28,91.68,91.68,0,0,0,6.07,8.12c3.73,4.42,9.72,8.61,9.2,7.94a5,5,0,0,1-.42,7.29h0c-2.23,1.85-5.65,3.57-7.35,1.23L64,172a64.54,64.54,0,0,1-5.44-9.72A3.55,3.55,0,0,1,59.2,157.44Z"/><path class="cls-5" d="M73.79,183.75a3.4,3.4,0,0,1-.45,0,2.93,2.93,0,0,1-2.07-1.24l-7.48-10.33a65.08,65.08,0,0,1-5.46-9.75,3.86,3.86,0,0,1,.67-5.2h0a3.87,3.87,0,0,1,5.26.3l0,.05a95.78,95.78,0,0,0,6,8.09,44.67,44.67,0,0,0,9,7.9.3.3,0,0,0-.3.12.26.26,0,0,0,0,.31l.47-.41a5.33,5.33,0,0,1-.45,7.75C78.36,181.91,76,183.75,73.79,183.75ZM61.46,156.94a3.2,3.2,0,0,0-2.06.74h0a3.22,3.22,0,0,0-.54,4.37l0,0v0a63.9,63.9,0,0,0,5.41,9.67c2.88,4,7.43,10.27,7.48,10.33a2.29,2.29,0,0,0,1.64,1c1.38.17,3.35-.68,5.26-2.27a4.69,4.69,0,0,0,.54-6.68,4.85,4.85,0,0,1-1.09-.65c-.68-.48-1.51-1.11-2.35-1.8a46.1,46.1,0,0,1-5.92-5.65,95.42,95.42,0,0,1-6.08-8.13A3.22,3.22,0,0,0,61.46,156.94Z"/><path class="cls-7" d="M69.56,171.67c-.6-3.83,3.17-7,7.47-6.35a82.79,82.79,0,0,0,8.87.93,81.22,81.22,0,0,0,9.06-.08c4.32-.27,7.78,3.19,6.9,6.93L97.1,190.28c-1,4.34-5.23,7.48-10.26,7.66-.71,0-1.45,0-2.2,0s-1.4-.1-2.07-.19c-4.9-.63-8.75-4.09-9.43-8.42Z"/><path class="cls-5" d="M85.88,198.33l-1.26,0c-.69,0-1.4-.09-2.1-.18-5-.66-9-4.24-9.75-8.73l-3.59-17.66a5.63,5.63,0,0,1,1.65-4.86A7.21,7.21,0,0,1,77.09,165a80.25,80.25,0,0,0,17.85.85,7.3,7.3,0,0,1,6,2.46,5.61,5.61,0,0,1,1.24,4.92v0l-4.77,17.17c-1.06,4.5-5.42,7.76-10.6,7.95ZM69.93,171.6l3.59,17.66c.65,4.17,4.39,7.5,9.1,8.11.68.09,1.37.15,2,.18s1.44,0,2.17,0c4.85-.17,8.92-3.2,9.9-7.37h0L101.5,173a4.81,4.81,0,0,0-1.09-4.26A6.54,6.54,0,0,0,95,166.55a80.93,80.93,0,0,1-18-.86,6.49,6.49,0,0,0-5.61,1.71A4.79,4.79,0,0,0,69.93,171.6Z"/><path class="cls-8" d="M90.19,172.85A5.11,5.11,0,1,1,80.33,175,5.08,5.08,0,0,1,83,170.22a5.11,5.11,0,0,1,7.2,2.63Z"/><path class="cls-9" d="M85.4,180.33a5.28,5.28,0,0,1-1.76-.29,5.62,5.62,0,0,1-.89-10.26,5.72,5.72,0,0,1,6,.38,5.64,5.64,0,0,1,2,2.5h0a5.61,5.61,0,0,1-5.26,7.66Zm0-10.2a4.35,4.35,0,0,0-2.14.52,4.61,4.61,0,1,0,5.28,7.48,4.59,4.59,0,0,0-.41-7.15l0,0A4.54,4.54,0,0,0,85.39,170.13Z"/><path class="cls-9" d="M85.4,180.39a5.4,5.4,0,0,1-1.78-.29,5.68,5.68,0,0,1-.9-10.37,5.7,5.7,0,0,1,8,2.91h0a5.67,5.67,0,0,1-5.32,7.74Zm0-10.2a4.23,4.23,0,0,0-2.11.52h0A4.55,4.55,0,0,0,84,179a4.55,4.55,0,0,0,5.69-6,4.68,4.68,0,0,0-1.58-2l0,0A4.45,4.45,0,0,0,85.39,170.19Z"/><path class="cls-10" d="M85.29,172.69c.16-.05.36-.17.52-.05s.43.23.34.48a3.41,3.41,0,0,0,.55.59s.06,0,.08-.05l0,0c.06-.06.22,0,.32,0a.25.25,0,0,1,.21.09c0,.07.06.17.12.25l0,0c0,.09.07.16.12.24.34.12.5.53.8.71a4.91,4.91,0,0,0,1.19.65c0,.06,0,.06.07.08h0a.24.24,0,0,0-.18,0c0,.08.19,0,.22.14h-.15s0,0,.06,0-.15,0-.2-.07a5.41,5.41,0,0,1-.87-.43h0a2.9,2.9,0,0,0,.76.44c.08,0,.2.08.25.17s-.07,0-.08.05l-.07,0s0,0,0,0l0,0a3.58,3.58,0,0,1-1-.5l-.42-.28s0,0-.06,0c.16.12.33.2.49.32a2.83,2.83,0,0,1-.88-.65c-.1-.11-.25-.33-.43-.29s-.17,0-.24.06-.11-.06-.16,0-.2,0-.23.14-.26,0-.29.13v0c-.19.09-.44.06-.58.25,0,0-.11,0-.15,0a0,0,0,0,0,0,0s-.08,0-.12,0,0-.06,0-.09-.12.08-.19.11.1-.08.13-.15-.09,0-.13,0,.06-.08,0-.08.15,0,.18-.13h-.07l.22-.19s-.08-.08-.13,0,0,0,0,0-.08,0-.13,0,0,0,0,0h0l.1-.09v0a3.09,3.09,0,0,1,.42-.25l0,0a.09.09,0,0,0-.15,0c.12,0,0-.15.13-.17a.39.39,0,0,1,.19-.23c-.13-.12-.17-.33-.31-.4s-.1,0-.11-.08c-.17,0-.36.07-.48-.08a.66.66,0,0,0-.28,0,1.2,1.2,0,0,0-.15.24,1.46,1.46,0,0,0-.17.24.73.73,0,0,1-.34.31v0c-.1.15-.33.09-.46.24v0a.08.08,0,0,0-.09.05v0c-.07,0-.11.06-.14.1s-.43.17-.6.32c0,0,0,0,0,0-.31.07-.46.31-.66.54a1,1,0,0,1-.23.23c0,.08-.09.11-.13.15s.12-.13.13-.2-.09.12-.18.16,0-.07,0-.11l-.11.09.1-.14c-.06,0-.11.1-.18.11s0,0-.08,0h0l.16-.15c-.07,0-.14.05-.19,0s0-.06-.06,0,.1-.07.12-.13-.09,0-.13,0,.11-.08.08-.16-.1.11-.21.14a4.49,4.49,0,0,0,.36-.39h0a2.83,2.83,0,0,1,.69-.5c.19-.12.46-.17.6-.37a1.07,1.07,0,0,0,.15-.22s0,0,0,0a.83.83,0,0,1,.46-.14c.07-.08.21,0,.27-.14s.27-.54.44-.78c.06-.08.12-.21.24-.24A4.57,4.57,0,0,1,85.29,172.69Z"/><path class="cls-5" d="M59.63,164.65h-.07a.38.38,0,0,1-.3-.44,5.46,5.46,0,0,1,6.85-3.68.38.38,0,0,1-.3.7A4.72,4.72,0,0,0,60,164.34.38.38,0,0,1,59.63,164.65Z"/><path class="cls-5" d="M106.68,190.66a4.22,4.22,0,0,1-1.24-.17.38.38,0,0,1,.25-.71,4.74,4.74,0,0,0,5.58-3.52.38.38,0,1,1,.75.07,5.07,5.07,0,0,1-2.63,3.58A5.36,5.36,0,0,1,106.68,190.66Z"/><path class="cls-5" d="M86.76,185.18h-.62A24.07,24.07,0,0,1,71,179.67a.39.39,0,0,1,0-.54.38.38,0,0,1,.53,0A24.39,24.39,0,0,0,99.2,181a.38.38,0,0,1,.52.11.37.37,0,0,1-.1.52A23.38,23.38,0,0,1,86.76,185.18Z"/><path class="cls-11" d="M106.71,154.59A9.76,9.76,0,0,1,98,164.7a67,67,0,0,1-13,.15,63,63,0,0,1-12-2.38,9.79,9.79,0,0,1-6.76-11.56l0-.09a19.63,19.63,0,0,1,20.94-15.15l1.8.17a19.61,19.61,0,0,1,17.78,18.75Z"/><path class="cls-5" d="M90.42,165.48c-1.9,0-3.74-.09-5.51-.25a63.25,63.25,0,0,1-12.08-2.4,10.19,10.19,0,0,1-7-12l0-.09A20,20,0,0,1,87.16,135.3l1.81.17a20,20,0,0,1,18.12,19.11h0A10.16,10.16,0,0,1,98,165.07,73.74,73.74,0,0,1,90.42,165.48ZM85.31,136a19.22,19.22,0,0,0-18.75,14.94l0,.09A9.43,9.43,0,0,0,73,162.11,63.49,63.49,0,0,0,85,164.48a66.24,66.24,0,0,0,12.93-.16,9.41,9.41,0,0,0,8.43-9.71h0A19.24,19.24,0,0,0,88.9,136.22l-1.81-.17A17.67,17.67,0,0,0,85.31,136Z"/><path class="cls-12" d="M95.85,151.83a89.64,89.64,0,0,0-19-1.35,3.7,3.7,0,0,1-4-4.08l.07-.85A5,5,0,0,1,77.53,141a90.37,90.37,0,0,1,19,1.51,5,5,0,0,1,4,5.12l-.07.83A3.73,3.73,0,0,1,95.85,151.83Z"/><path class="cls-13" d="M95.79,152l-.38-.05a89.7,89.7,0,0,0-18.18-1.29,4.4,4.4,0,0,1-3.34-1.27A4.29,4.29,0,0,1,72.73,146,5.65,5.65,0,0,1,78,140.8a89.92,89.92,0,0,1,18.18,1.44,5.68,5.68,0,0,1,4.5,5.85,4.13,4.13,0,0,1-1.68,3.1A4.55,4.55,0,0,1,95.79,152ZM77.6,141.2A5.26,5.26,0,0,0,73.1,146a4,4,0,0,0,1.08,3.13,4,4,0,0,0,3.08,1.18,90.49,90.49,0,0,1,18.18,1.3,4.27,4.27,0,0,0,3.28-.7,3.78,3.78,0,0,0,1.56-2.86,5.07,5.07,0,0,0-1.08-3.45,5,5,0,0,0-3.08-1.94,89.92,89.92,0,0,0-18.18-1.44Z"/><path class="cls-14" d="M106.91,148.7h-1.76c0-8-7.18-14.26-17.1-14.78a22.48,22.48,0,0,0-12,2.43,14.37,14.37,0,0,0-7,8.3l-1.67-.54a16.11,16.11,0,0,1,7.85-9.31,24.48,24.48,0,0,1,13-2.64,22,22,0,0,1,13.49,5.15A15.13,15.13,0,0,1,106.91,148.7Z"/><path class="cls-14" d="M62.5,144.86c1-2.35,2.38-4.09,3.39-3.77h0l.09,0,2,.92-3.9,8.83-2-.92-.09,0h0c-.9-.57-.54-2.7.5-5Z"/><path class="cls-15" d="M64.77,145.81c1.39-3.1,3.07-5.46,4.13-5.17v0l.1,0,2.06.93-5.25,11.65-2.07-.93-.1,0v0c-.92-.61-.29-3.35,1.11-6.45Z"/><circle class="cls-16" cx="80.97" cy="145.72" r="2.76"/><circle class="cls-17" cx="82.14" cy="144.88" r="1.03"/><circle class="cls-16" cx="92.29" cy="146.48" r="2.76"/><circle class="cls-17" cx="93.46" cy="145.64" r="1.09"/><path class="cls-10" d="M93,155.94c-.2,2.7-3.49,4.64-7.34,4.35s-6.82-2.7-6.62-5.4,3.32-1,7.17-.71S93.22,153.25,93,155.94Z"/><path class="cls-5" d="M86.42,160.7q-.39,0-.78,0c-4.06-.31-7.18-2.91-7-5.8a1.9,1.9,0,0,1,.67-1.47c.82-.63,2.16-.37,3.86-.05a27.89,27.89,0,0,0,3,.46,26,26,0,0,0,3.06,0c1.65-.07,3-.12,3.63.59a1.91,1.91,0,0,1,.45,1.57C93.19,158.68,90.13,160.7,86.42,160.7Zm-5.68-6.93a1.54,1.54,0,0,0-.93.22,1.23,1.23,0,0,0-.38.93c-.19,2.48,2.62,4.72,6.27,5s6.75-1.52,6.94-4h0a1.24,1.24,0,0,0-.24-1c-.45-.46-1.66-.42-3.06-.36a27.35,27.35,0,0,1-3.14,0,28.1,28.1,0,0,1-3.13-.47A13.91,13.91,0,0,0,80.74,153.77Z"/><path class="cls-14" d="M107.62,153.76l-1,0c-.06,4.89-2,7.12-6,7.43L94.69,161c-.17-.66-1.15-1.22-2.35-1.33-1.38-.12-2.16.41-2.23,1.16s.61,1.43,2,1.55a3.41,3.41,0,0,0,2.13-.41c2.09,0,4.74.08,6.57,0,6-.32,6.82-5.31,6.83-8.25Z"/><path class="cls-14" d="M110.85,149.73c-.4-2.46-1.19-4.44-2.11-4.42v0l-2,.32,1.51,9.25,2-.32h0c.88-.27,1-2.34.61-4.8Z"/><path class="cls-15" d="M108.57,150c-.53-3.26-1.43-5.91-2.36-5.93v0l-2,.32,2,12.25,2-.32h0c.87-.32.89-3,.36-6.29Z"/></g><rect class="cls-18" x="53.24" y="21.24" width="63.93" height="1"/><path class="cls-18" d="M123.2,21.74A30.31,30.31,0,0,1,114.65,17l1.72,4.75-1.72,4.76A30.34,30.34,0,0,1,123.2,21.74Z"/><path class="cls-18" d="M47.2,21.74A30.31,30.31,0,0,0,55.75,17L54,21.74l1.72,4.76A30.34,30.34,0,0,0,47.2,21.74Z"/><rect class="cls-18" x="33.71" y="44.43" width="1" height="63.93"/><path class="cls-18" d="M34.21,114.4A30.18,30.18,0,0,1,39,105.85l-4.75,1.72-4.76-1.72A30.45,30.45,0,0,1,34.21,114.4Z"/><path class="cls-18" d="M34.21,38.4A30.12,30.12,0,0,0,39,46.94l-4.75-1.72-4.76,1.72A30.39,30.39,0,0,0,34.21,38.4Z"/><circle class="cls-19" cx="85.2" cy="229.63" r="25"/><path class="cls-10" d="M76,234.51a.79.79,0,0,1-.59-.25.82.82,0,0,1,0-1.17l9.25-9.26a.82.82,0,0,1,.59-.24h0a.82.82,0,0,1,.59.24l9.26,9.26a.83.83,0,1,1-1.18,1.17L85.2,225.6l-8.66,8.66A.83.83,0,0,1,76,234.51Z"/><circle class="cls-20" cx="85.2" cy="74.6" r="38"/><path class="cls-10" d="M69.08,65.07a21.1,21.1,0,0,1,1,2.83l-.88.34c0-.22-.12-.5-.2-.8-3.17.49-3.59.6-3.87.76a7.82,7.82,0,0,0-.32-1c.3-.07.63-.42,1-.91a18.77,18.77,0,0,0,1.23-1.61,7.46,7.46,0,0,0-2,.34,8.72,8.72,0,0,0-.32-.94c.24-.06.49-.37.8-.77a20.53,20.53,0,0,0,1.91-3.55l1,.41a23.05,23.05,0,0,1-2.26,3.74l1.56-.14c.35-.57.71-1.18,1-1.78l.88.53a25.06,25.06,0,0,1-3.14,4.39l2.28-.31c-.14-.45-.32-.9-.49-1.3ZM66.32,69a19.43,19.43,0,0,1-.7,3.38,7,7,0,0,0-.87-.32,15.63,15.63,0,0,0,.67-3.21Zm1.49-.19a26.29,26.29,0,0,1,.41,3.07l-.88.16A30.62,30.62,0,0,0,67,68.91Zm1.46-.39a18.94,18.94,0,0,1,.8,2.56l-.83.29a22.8,22.8,0,0,0-.75-2.62Zm6.53,3.15a2.16,2.16,0,0,0,.57-.06.38.38,0,0,0,.28-.31,6.12,6.12,0,0,0,.12-1.23,2.16,2.16,0,0,0,.88.45,5.36,5.36,0,0,1-.21,1.43.87.87,0,0,1-.56.5,3.39,3.39,0,0,1-1,.11H74.75a1.92,1.92,0,0,1-1-.23c-.31-.2-.45-.45-.45-1.64V68.72H70.66V64h.91v3.77h1.71V62.68H70.34v-1h2.94V59.86h1v1.85h3.32v1H74.24v5.07H76V64H77v5.52H76v-.77H74.24v2c0,.4.06.67.2.77a1.62,1.62,0,0,0,.48.07Z"/><path class="cls-10" d="M89.31,63.32A14.73,14.73,0,0,1,86,68.74a13.7,13.7,0,0,0,5.66,2.85,4.67,4.67,0,0,0-.71,1,14.12,14.12,0,0,1-5.75-3.06,16.12,16.12,0,0,1-5.82,3.12,6.32,6.32,0,0,0-.65-1,15,15,0,0,0,5.72-2.9,15.71,15.71,0,0,1-3.37-5.42H79v-1H91.51v1Zm-7.12,0A14.2,14.2,0,0,0,85.25,68a13,13,0,0,0,2.88-4.7Zm3-1a11.19,11.19,0,0,0-1-2.2l1.08-.3a12,12,0,0,1,1.09,2.14Z"/><path class="cls-10" d="M105.17,68.34H99.74v3c0,.62-.16.92-.65,1.08a8.31,8.31,0,0,1-2.38.18,4.09,4.09,0,0,0-.47-1c1,0,1.84,0,2.08,0s.34-.07.34-.26v-3H93.2v-1h5.46v-.86a12.27,12.27,0,0,0,2.44-1.64H95.49v-1h6.66l.22-.06.71.55a14.66,14.66,0,0,1-3.34,2.48v.51h5.43ZM94.39,64.16h-1V61.31h5.52a7.75,7.75,0,0,0-.73-1.24l1-.33a7.86,7.86,0,0,1,.94,1.57H105v2.85H104V62.3H94.39Z"/><path class="cls-10" d="M82.94,84.45a8.34,8.34,0,0,1-1.49,3.42,25.42,25.42,0,0,1,3,1.89l-.68.84a27.79,27.79,0,0,0-3-2,9.69,9.69,0,0,1-4.36,2,3.54,3.54,0,0,0-.53-1,8.9,8.9,0,0,0,4-1.63c-.93-.53-1.92-1-2.77-1.44a24.22,24.22,0,0,0,1.09-2.17H76.38l.12.78-1.78.58v3.62c0,.58-.14.86-.51,1a5.26,5.26,0,0,1-1.83.18,4.62,4.62,0,0,0-.32-1h1.38c.18,0,.27-.07.27-.27V86.11l-1.78.58-.25-1c.56-.15,1.26-.35,2-.59V81.62H71.83v-1h1.88v-2.8h1v2.8h1.5v1h-1.5v3.16l1.47-.43v-.84h2.37a20.52,20.52,0,0,0,.85-2.4l1.06.14c-.21.72-.5,1.49-.79,2.26H82c0-.37.09-.76.12-1.16l1.11.05c0,.38-.09.76-.14,1.11h1.52v.94Zm-5.38-2.1h-1V79.63H80c-.14-.52-.33-1.14-.52-1.64l1-.18a12.23,12.23,0,0,1,.62,1.82H84.4v2.7h-1V80.57H77.56Zm1.71,2.1c-.28.66-.57,1.27-.85,1.8.7.34,1.41.72,2.12,1.11a6.92,6.92,0,0,0,1.31-2.91Z"/><path class="cls-10" d="M91,89c-1.71.42-3.53.83-4.84,1.14l-.23-.94c.59-.11,1.37-.28,2.23-.43V84.71H86.06V83.8h2.07V82.29h-1.3v-.63c-.24.22-.45.43-.69.63a10.11,10.11,0,0,0-.43-1.05,10.11,10.11,0,0,0,2.84-3.47l.78.36a6.14,6.14,0,0,1-.29.57,16.93,16.93,0,0,1,2.34,1.9l-.48.85a16.64,16.64,0,0,0-2.32-2,13,13,0,0,1-1.49,1.91h3.39v.91H89V83.8h1.91v.91H89v3.87l1.91-.39Zm-4-3.55A14.31,14.31,0,0,1,87.55,88l-.72.21a14.07,14.07,0,0,0-.51-2.59Zm2.39,2.38A20.65,20.65,0,0,0,90,85.29l.77.25c-.26.84-.52,1.88-.79,2.52Zm8-3.1c-.07,1.67-.16,3.25-.24,4.48h1.5v1H90.92v-1h1.79c.15-1.23.34-2.83.49-4.48H91.53v-1H93.3c.12-1.42.24-2.85.32-4.09H92v-1h5.56c0,1.54-.09,3.34-.16,5.09h1.24v1Zm-1.27,4.48c.1-1.24.2-2.83.29-4.48h-2.2c-.16,1.67-.33,3.27-.48,4.48ZM94.6,79.66c-.1,1.27-.21,2.69-.34,4.09h2.15c0-1.4.1-2.8.12-4.09Z"/><circle class="cls-20" cx="186.59" cy="74.87" r="38"/><path class="cls-10" d="M159.8,83.57a.89.89,0,0,1,1.77,0,.89.89,0,0,1-1.77,0ZM160,86h1.28v7.61H160Z"/><path class="cls-10" d="M163.32,89.77a3.7,3.7,0,0,1,3.67-4,3.3,3.3,0,0,1,2.23.89l-.66.86a2.2,2.2,0,0,0-1.53-.69c-1.37,0-2.38,1.19-2.38,2.94s.95,2.92,2.35,2.92a2.73,2.73,0,0,0,1.8-.76l.54.85a3.61,3.61,0,0,1-2.45,1C164.87,93.75,163.32,92.29,163.32,89.77Z"/><path class="cls-10" d="M170.11,89.77c0-2.53,1.67-4,3.53-4s3.53,1.47,3.53,4-1.67,4-3.53,4S170.11,92.29,170.11,89.77Zm5.74,0c0-1.75-.89-2.94-2.21-2.94s-2.2,1.19-2.2,2.94.88,2.92,2.2,2.92S175.85,91.52,175.85,89.77Z"/><path class="cls-10" d="M179.17,86h1.05l.11,1.1h0a3.63,3.63,0,0,1,2.55-1.29c1.6,0,2.33,1,2.33,3v4.82H184V88.92c0-1.43-.43-2-1.44-2a2.89,2.89,0,0,0-2.09,1.16v5.52h-1.27Z"/><path class="cls-10" d="M198.17,88.46a8.36,8.36,0,0,1-1.48,3.41,26,26,0,0,1,3,1.9l-.68.84a27.79,27.79,0,0,0-3-2,9.79,9.79,0,0,1-4.36,2,3.74,3.74,0,0,0-.53-1,8.79,8.79,0,0,0,4-1.62c-.93-.53-1.91-1-2.77-1.44a24.22,24.22,0,0,0,1.09-2.17h-1.78l.12.78-1.78.58v3.62c0,.58-.14.86-.51,1a5.26,5.26,0,0,1-1.83.18,4.91,4.91,0,0,0-.32-1c.63,0,1.21,0,1.38,0s.27-.07.27-.27V90.12l-1.78.58-.25-1c.56-.16,1.26-.35,2-.59V85.63h-1.88v-1h1.88v-2.8h1v2.8h1.5v1H190v3.16l1.47-.43v-.84h2.37a21.19,21.19,0,0,0,.85-2.4l1.06.14c-.21.72-.5,1.49-.79,2.26h2.34c.05-.37.09-.76.12-1.16l1.11,0c0,.38-.09.76-.14,1.11h1.52v.94Zm-5.38-2.1h-1V83.64h3.43c-.14-.52-.33-1.14-.52-1.64l1-.18a12.23,12.23,0,0,1,.62,1.82h3.28v2.7h-1V84.58h-5.83Zm1.71,2.1c-.28.65-.57,1.27-.85,1.8.7.34,1.41.72,2.12,1.11a6.92,6.92,0,0,0,1.31-2.91Z"/><path class="cls-10" d="M206.2,93c-1.71.42-3.53.83-4.84,1.14l-.23-.94,2.23-.44V88.72h-2.07v-.91h2.07V86.3h-1.3v-.63c-.24.22-.45.43-.69.63a10.11,10.11,0,0,0-.43-1,10.06,10.06,0,0,0,2.84-3.48l.78.37a6.14,6.14,0,0,1-.29.57,17.7,17.7,0,0,1,2.34,1.89l-.48.86a16.64,16.64,0,0,0-2.32-2,13,13,0,0,1-1.49,1.91h3.39v.91h-1.47v1.51h1.91v.91h-1.91v3.87l1.91-.39Zm-4-3.56a14.6,14.6,0,0,1,.56,2.57l-.72.21a14.07,14.07,0,0,0-.51-2.59Zm2.39,2.39a20.65,20.65,0,0,0,.63-2.55l.77.25c-.26.84-.52,1.88-.79,2.52Zm8-3.1c-.07,1.67-.16,3.25-.24,4.48h1.5v1h-7.69v-1h1.79c.15-1.23.34-2.83.49-4.48h-1.67v-1h1.77c.12-1.42.24-2.85.32-4.09H207.2v-1h5.56c0,1.54-.09,3.33-.16,5.09h1.24v1Zm-1.26,4.48c.09-1.24.19-2.83.28-4.48h-2.2c-.16,1.67-.33,3.26-.48,4.48Zm-1.49-9.56c-.1,1.27-.21,2.69-.34,4.09h2.15c.05-1.4.1-2.81.12-4.09Z"/><path class="cls-10" d="M200.09,76.15h-27v-27h27Zm-26-1h25v-25h-25Z"/><rect class="cls-21" x="84.7" y="188.6" width="1" height="16"/><rect class="cls-21" x="84.7" y="112.6" width="1" height="16"/><path class="cls-18" d="M77.18,1.05H73.12V.16h5.25V.79c-2,2.53-2.33,4.47-2.46,7.76H74.82A12.5,12.5,0,0,1,77.18,1.05Z"/><path class="cls-18" d="M84,1.51A1.78,1.78,0,0,0,82.69.87c-1.15,0-2.12.88-2.16,3.49a2.59,2.59,0,0,1,1.91-1c1.42,0,2.32.88,2.32,2.63a2.52,2.52,0,0,1-2.4,2.73c-1.62,0-2.81-1.39-2.81-4.16C79.55,1.26,81,0,82.65,0a2.6,2.6,0,0,1,2,.86ZM83.78,6c0-1.13-.5-1.85-1.52-1.85A2.19,2.19,0,0,0,80.55,5.2c.12,1.74.75,2.69,1.81,2.69C83.16,7.89,83.78,7.12,83.78,6Z"/><path class="cls-18" d="M86.32,2.33h.86l.09.71h0a3.36,3.36,0,0,1,2-.87c1.6,0,2.47,1.26,2.47,3.17,0,2.13-1.27,3.36-2.7,3.36A2.83,2.83,0,0,1,87.34,8l0,1.08v2.11h-1Zm4.35,3c0-1.38-.46-2.3-1.64-2.3a2.58,2.58,0,0,0-1.67.85V7.18a2.4,2.4,0,0,0,1.52.65C89.91,7.83,90.67,6.9,90.67,5.36Z"/><path class="cls-18" d="M94.36,5.31l-1.88-3H93.6l.83,1.38c.2.34.42.68.62,1h0l.56-1,.76-1.38h1.09L95.62,5.41l2,3.14H96.53L95.61,7.1c-.2-.38-.43-.76-.66-1.11h-.06c-.22.35-.42.73-.64,1.11l-.83,1.45h-1.1Z"/><path class="cls-18" d="M4.3,72.87H.24V72H5.49v.63c-2,2.53-2.33,4.48-2.46,7.76H2A12.4,12.4,0,0,1,4.3,72.87Z"/><path class="cls-18" d="M11.16,73.33a1.76,1.76,0,0,0-1.35-.65c-1.14,0-2.12.89-2.16,3.49a2.61,2.61,0,0,1,1.91-1c1.42,0,2.32.88,2.32,2.63a2.52,2.52,0,0,1-2.4,2.72c-1.62,0-2.81-1.38-2.81-4.15,0-3.29,1.48-4.55,3.1-4.55a2.6,2.6,0,0,1,2,.86Zm-.26,4.46c0-1.13-.5-1.86-1.51-1.86A2.19,2.19,0,0,0,7.67,77c.12,1.74.75,2.69,1.81,2.69C10.28,79.7,10.9,78.93,10.9,77.79Z"/><path class="cls-18" d="M13.44,74.15h.86l.09.71h0a3.3,3.3,0,0,1,2-.87c1.6,0,2.47,1.26,2.47,3.17,0,2.13-1.27,3.35-2.7,3.35a2.77,2.77,0,0,1-1.71-.72l0,1.09V83h-1Zm4.35,3c0-1.37-.46-2.3-1.64-2.3a2.6,2.6,0,0,0-1.67.86V79a2.4,2.4,0,0,0,1.52.65C17,79.64,17.79,78.72,17.79,77.17Z"/><path class="cls-18" d="M21.49,77.12l-1.89-3h1.12l.83,1.37c.2.35.42.69.62,1h0c.19-.34.38-.68.56-1l.77-1.37h1.08l-1.89,3.08,2.05,3.13H23.65l-.92-1.45c-.2-.38-.43-.76-.66-1.11H22c-.22.35-.42.73-.64,1.11l-.83,1.45h-1.1Z"/><rect class="cls-18" x="33.71" y="210.66" width="1" height="37.93"/><path class="cls-18" d="M34.21,254.63A30.18,30.18,0,0,1,39,246.08l-4.75,1.72-4.76-1.72A30.45,30.45,0,0,1,34.21,254.63Z"/><path class="cls-18" d="M34.21,204.63A30.31,30.31,0,0,0,39,213.18l-4.75-1.72-4.76,1.72A30.59,30.59,0,0,0,34.21,204.63Z"/><rect class="cls-18" x="66.24" y="268.88" width="37.93" height="1"/><path class="cls-18" d="M60.2,269.38a30.45,30.45,0,0,1,8.55,4.76L67,269.38l1.72-4.75A30.18,30.18,0,0,1,60.2,269.38Z"/><path class="cls-18" d="M110.2,269.38a30.59,30.59,0,0,0-8.55,4.76l1.72-4.76-1.72-4.75A30.31,30.31,0,0,0,110.2,269.38Z"/><path class="cls-18" d="M0,233.55l.52-.69a2.75,2.75,0,0,0,2.06.93,1.81,1.81,0,0,0,1.78-2,1.69,1.69,0,0,0-1.74-1.91,2.32,2.32,0,0,0-1.4.49L.66,230l.27-3.92H5V227H1.84l-.2,2.43a2.34,2.34,0,0,1,1.24-.33,2.39,2.39,0,0,1,2.53,2.66,2.73,2.73,0,0,1-2.74,2.89A3.56,3.56,0,0,1,0,233.55Z"/><path class="cls-18" d="M6.59,230.28c0-2.91,1-4.32,2.62-4.32s2.61,1.42,2.61,4.32-1,4.38-2.61,4.38S6.59,233.2,6.59,230.28Zm4.21,0c0-2.44-.64-3.47-1.59-3.47s-1.6,1-1.6,3.47.64,3.54,1.6,3.54S10.8,232.76,10.8,230.28Z"/><path class="cls-18" d="M13.44,228.29h.86l.09.71h0a3.3,3.3,0,0,1,2-.87c1.6,0,2.47,1.26,2.47,3.17,0,2.13-1.27,3.36-2.7,3.36a2.83,2.83,0,0,1-1.71-.72l0,1.08v2.11h-1Zm4.35,3c0-1.37-.46-2.3-1.64-2.3a2.6,2.6,0,0,0-1.67.86v3.26a2.43,2.43,0,0,0,1.52.66C17,233.79,17.79,232.86,17.79,231.31Z"/><path class="cls-18" d="M21.49,231.27l-1.89-3h1.12l.83,1.38c.2.34.42.68.62,1h0l.56-1,.77-1.38h1.08l-1.89,3.08,2.05,3.14H23.65l-.92-1.46c-.2-.37-.43-.75-.66-1.11H22c-.22.36-.42.74-.64,1.11l-.83,1.46h-1.1Z"/><path class="cls-18" d="M72.88,293l.51-.69a2.77,2.77,0,0,0,2.06.93,1.81,1.81,0,0,0,1.79-2,1.7,1.7,0,0,0-1.74-1.91,2.29,2.29,0,0,0-1.4.49l-.56-.34.27-3.93h4.08v.9H74.72l-.2,2.42a2.43,2.43,0,0,1,1.24-.33,2.39,2.39,0,0,1,2.53,2.67,2.72,2.72,0,0,1-2.74,2.88A3.56,3.56,0,0,1,72.88,293Z"/><path class="cls-18" d="M79.47,289.77c0-2.92,1-4.33,2.62-4.33s2.61,1.42,2.61,4.33-1,4.37-2.61,4.37S79.47,292.69,79.47,289.77Zm4.21,0c0-2.45-.64-3.48-1.59-3.48s-1.6,1-1.6,3.48.64,3.54,1.6,3.54S83.68,292.24,83.68,289.77Z"/><path class="cls-18" d="M86.32,287.78h.86l.09.71h0a3.3,3.3,0,0,1,2-.87c1.6,0,2.47,1.26,2.47,3.17,0,2.13-1.27,3.35-2.7,3.35a2.77,2.77,0,0,1-1.71-.72l0,1.09v2.1h-1Zm4.35,3c0-1.37-.46-2.3-1.64-2.3a2.6,2.6,0,0,0-1.67.86v3.26a2.4,2.4,0,0,0,1.52.65C89.91,293.27,90.67,292.34,90.67,290.8Z"/><path class="cls-18" d="M94.36,290.75l-1.88-3H93.6l.83,1.37.62,1h0l.56-1,.76-1.37h1.09l-1.89,3.08,2,3.13H96.53l-.92-1.45c-.2-.38-.43-.76-.66-1.11h-.06c-.22.35-.42.73-.64,1.11L93.42,294h-1.1Z"/></g></g></svg>