<svg xmlns="http://www.w3.org/2000/svg" viewBox="0 0 256.7 98.18"><defs><style>.cls-1,.cls-4{fill:none;stroke-miterlimit:10;}.cls-1{stroke:#00a19b;}.cls-2{fill:#00a19b;}.cls-3{fill:#d32432;}.cls-4{stroke:#d32432;}</style></defs><g id="圖層_2" data-name="圖層 2"><g id="圖層_1-2" data-name="圖層 1"><rect class="cls-1" x="56.2" y="0.5" width="200" height="65" rx="4"/><path class="cls-2" d="M120.06,29.59H124c2.63,0,4.64.91,4.64,3.71s-2,3.93-4.58,3.93h-1.58v4.2h-2.37Zm3.79,5.76c1.64,0,2.42-.69,2.42-2.05s-.86-1.84-2.5-1.84h-1.34v3.89Z"/><path class="cls-2" d="M132.14,35.56c0-3.91,2.51-6.19,5.51-6.19a4.84,4.84,0,0,1,3.47,1.52l-1.25,1.5a3,3,0,0,0-2.18-1c-1.79,0-3.13,1.54-3.13,4.08s1.21,4.13,3.09,4.13a3.29,3.29,0,0,0,2.45-1.17l1.24,1.47a4.77,4.77,0,0,1-3.77,1.75C134.57,41.66,132.14,39.51,132.14,35.56Z"/><path class="cls-2" d="M146.94,34.33c0,.4,0,.8,0,1.21h3.18v7.24h-1.73V37.23h-1.52a14.14,14.14,0,0,1-1.33,5.68,9.06,9.06,0,0,0-1.31-1.16c.93-2,1-5.09,1-7.42V28h1.68v4.56h1.57V28.34h1.71v5.89h-3.28ZM158.88,33a16.82,16.82,0,0,1-2,6.21,8.07,8.07,0,0,0,2.51,2,7.25,7.25,0,0,0-1.29,1.57,8.75,8.75,0,0,1-2.34-2,9.7,9.7,0,0,1-2.43,2.1,7.61,7.61,0,0,0-1-1.38,7.11,7.11,0,0,1-.67,1.48,7,7,0,0,0-1.47-1c1.13-2,1.26-5.28,1.26-7.49V28.79h7.24V30.5H153.2v2.16h4.19l.32-.06Zm-4.22,6.18a17.56,17.56,0,0,1-1.48-3.53,20.72,20.72,0,0,1-.76,5.53A8,8,0,0,0,154.66,39.15Zm-.16-4.76a15.7,15.7,0,0,0,1.21,3.07,13.13,13.13,0,0,0,1.11-3.07Z"/><path class="cls-2" d="M175.55,35.94a9.52,9.52,0,0,1-1.44,3.43,29.94,29.94,0,0,1,3,1.87l-1.26,1.54a29.14,29.14,0,0,0-3-2,11.35,11.35,0,0,1-4.91,2.13,6.92,6.92,0,0,0-.91-1.77,10,10,0,0,0,4-1.39c-.94-.53-1.92-1-2.77-1.45.37-.64.75-1.46,1.14-2.33h-1.67l.15.92-1.75.52v3.45c0,.91-.17,1.37-.7,1.65a5,5,0,0,1-2.39.35,6.29,6.29,0,0,0-.54-1.73c.62,0,1.28,0,1.49,0s.3-.08.3-.3V37.91l-1.74.5-.4-1.83c.6-.12,1.34-.32,2.14-.52v-3.4h-1.9V30.89h1.9v-3h1.84v3h1.51v1.77h-1.51v2.9l1.25-.35v-1h2.71a21.6,21.6,0,0,0,.73-2.39l1.95.27c-.19.69-.41,1.4-.67,2.12h1.68c0-.34.07-.67.08-1l2.1,0c0,.33-.08.67-.11,1h1.45v1.69Zm-5.82-2.81H168v-3.4h3.47c-.11-.54-.25-1.13-.38-1.63l1.94-.29c.17.6.36,1.32.49,1.92H177v3.38h-1.85V31.4h-5.46Zm1.76,2.81c-.26.61-.5,1.17-.74,1.69.53.27,1.11.54,1.67.83a7,7,0,0,0,1.1-2.52Z"/><path class="cls-2" d="M195.27,40.55v1.81h-9V41.18c-1.92.43-3.94.85-5.48,1.2l-.35-1.71,2.24-.37v-4h-2V34.65h2V33.48h-1.1v-.72c-.26.24-.53.48-.79.69a13.21,13.21,0,0,0-.65-2,10.93,10.93,0,0,0,3.15-3.71l1.39.64-.28.58a15.77,15.77,0,0,1,2.62,1.93l-.8,1.56a5.89,5.89,0,0,0-.5-.48v1.47h-1.44v1.17h2v1.61h-2V40l2-.37.06.91h1.7c.16-1.26.33-2.78.48-4.37H187v-1.8h1.71c.12-1.3.23-2.61.29-3.83h-1.6V28.74h6.74c0,1.75-.08,3.72-.14,5.64h1.24v1.8h-1.31c-.06,1.61-.14,3.11-.22,4.37ZM182,36.86a17.41,17.41,0,0,1,.58,2.73l-1.22.36a18.18,18.18,0,0,0-.51-2.77Zm3.67-5a19.82,19.82,0,0,0-2.05-1.52,14.28,14.28,0,0,1-1.17,1.52Zm-1.16,7.51a22.22,22.22,0,0,0,.56-2.7l1.33.37c-.3.94-.57,2-.83,2.68Zm5.77-3.22c-.15,1.61-.32,3.13-.47,4.37h2.05c.11-1.26.21-2.78.29-4.37Zm.49-5.63c-.09,1.22-.21,2.51-.32,3.83h1.78c0-1.28.08-2.6.11-3.83Z"/><path class="cls-3" d="M142.25,87.76a2.37,2.37,0,0,1,.77,1.81,2.93,2.93,0,0,1-.84,2A12.22,12.22,0,0,1,140.4,93a4.27,4.27,0,0,0-1.87,2H143v.88h-5.71a3.08,3.08,0,0,1,.85-2.12A10.6,10.6,0,0,1,140,92.16a10.2,10.2,0,0,0,1.34-1.06,2.22,2.22,0,0,0,.66-1.54,1.55,1.55,0,0,0-.46-1.21,1.88,1.88,0,0,0-1.31-.43,1.61,1.61,0,0,0-1.36.6,2.62,2.62,0,0,0-.52,1.71h-1a3.23,3.23,0,0,1,.81-2.29,2.71,2.71,0,0,1,2.09-.86A2.87,2.87,0,0,1,142.25,87.76Z"/><path class="cls-3" d="M151.19,88.43a7.38,7.38,0,0,1,0,6.19A2.55,2.55,0,0,1,148.87,96a2.51,2.51,0,0,1-2.31-1.36,7.38,7.38,0,0,1,0-6.19,2.48,2.48,0,0,1,2.31-1.35A2.52,2.52,0,0,1,151.19,88.43Zm-4,.72a8,8,0,0,0,0,4.75,1.72,1.72,0,0,0,3.31,0,7.81,7.81,0,0,0,0-4.75,1.73,1.73,0,0,0-3.31,0Z"/><path class="cls-3" d="M159.89,88.43a7.38,7.38,0,0,1,0,6.19A2.55,2.55,0,0,1,157.57,96a2.51,2.51,0,0,1-2.31-1.36,7.38,7.38,0,0,1,0-6.19,2.48,2.48,0,0,1,2.31-1.35A2.52,2.52,0,0,1,159.89,88.43Zm-4,.72a8,8,0,0,0,0,4.75,1.72,1.72,0,0,0,3.31,0,7.81,7.81,0,0,0,0-4.75,1.73,1.73,0,0,0-3.31,0Z"/><path class="cls-3" d="M168.49,90.44a4,4,0,0,1,0,4.55,2.47,2.47,0,0,1-2.07,1,2.23,2.23,0,0,1-2.05-1.3v3.5h-1V89.61h.9v1a2.2,2.2,0,0,1,2.06-1.19A2.51,2.51,0,0,1,168.49,90.44Zm-3.68.52a2.91,2.91,0,0,0-.47,1.71v.12a2.68,2.68,0,0,0,.53,1.74,1.64,1.64,0,0,0,1.36.66,1.79,1.79,0,0,0,1.52-.7,3,3,0,0,0,.47-1.76,3.1,3.1,0,0,0-.45-1.75,1.69,1.69,0,0,0-1.51-.75A1.66,1.66,0,0,0,164.81,91Z"/><path class="cls-3" d="M172.66,89.61l1.61,2.21,1.59-2.21H177l-2.2,2.91,2.46,3.29h-1.14l-1.84-2.58-1.86,2.58h-1.14l2.46-3.29-2.2-2.91Z"/><path class="cls-3" d="M5.84,35h-1a1.63,1.63,0,0,0-1.78-1.46,1.74,1.74,0,0,0-1.58,1A4.52,4.52,0,0,0,1,36.92s0,.16,0,.32H1a2.25,2.25,0,0,1,.92-1,2.31,2.31,0,0,1,1.33-.38,2.6,2.6,0,0,1,2,.8,2.83,2.83,0,0,1,.74,2,2.89,2.89,0,0,1-.81,2.1,2.83,2.83,0,0,1-2.08.84A2.67,2.67,0,0,1,.74,40.44,5.37,5.37,0,0,1,0,37.38a6.13,6.13,0,0,1,.8-3.33A2.61,2.61,0,0,1,3.11,32.7,2.46,2.46,0,0,1,5.84,35ZM1.67,37.23a2,2,0,0,0-.55,1.46,2,2,0,0,0,.52,1.47,1.8,1.8,0,0,0,1.43.61,1.84,1.84,0,0,0,1.4-.58A2.22,2.22,0,0,0,5,38.66a2,2,0,0,0-.52-1.45,1.85,1.85,0,0,0-1.42-.56A1.85,1.85,0,0,0,1.67,37.23Z"/><path class="cls-3" d="M14.32,32.87v.88H10.15l-.29,2.86h.05a2.25,2.25,0,0,1,.92-.64,2.66,2.66,0,0,1,1.1-.21,2.61,2.61,0,0,1,2,.77,3,3,0,0,1,.77,2.17,2.73,2.73,0,0,1-.92,2.12,3.1,3.1,0,0,1-2.14.78A3.07,3.07,0,0,1,9.68,41a2.45,2.45,0,0,1-1-1.86h1a1.7,1.7,0,0,0,.65,1.25,2.14,2.14,0,0,0,1.31.38,2,2,0,0,0,1.48-.57,2,2,0,0,0,.59-1.48,2.18,2.18,0,0,0-.55-1.58,1.88,1.88,0,0,0-1.46-.56,2.24,2.24,0,0,0-1.1.26,1.67,1.67,0,0,0-.76.77H8.89l.46-4.73Z"/><path class="cls-3" d="M22.6,36.06a3.6,3.6,0,0,1,.71,2.29,3.69,3.69,0,0,1-.69,2.27,2.49,2.49,0,0,1-2.08,1,2.24,2.24,0,0,1-2.05-1.29v3.5h-1V35.23h.9v1a2.21,2.21,0,0,1,2.06-1.18A2.5,2.5,0,0,1,22.6,36.06Zm-3.68.53a2.87,2.87,0,0,0-.46,1.7v.12A2.65,2.65,0,0,0,19,40.15a1.64,1.64,0,0,0,1.36.66,1.81,1.81,0,0,0,1.52-.69,3,3,0,0,0,.47-1.77,3.19,3.19,0,0,0-.44-1.75,1.74,1.74,0,0,0-1.52-.74A1.66,1.66,0,0,0,18.92,36.59Z"/><path class="cls-3" d="M26.77,35.23l1.61,2.21L30,35.23H31.1l-2.19,2.92,2.45,3.28H30.23l-1.85-2.57-1.86,2.57H25.38l2.46-3.28-2.2-2.92Z"/><line class="cls-4" x1="62.23" y1="76.06" x2="250.16" y2="76.06"/><path class="cls-3" d="M56.2,76.06a30.12,30.12,0,0,1,8.54,4.75L63,76.06l1.72-4.76A30.15,30.15,0,0,1,56.2,76.06Z"/><path class="cls-3" d="M256.2,76.06a30.18,30.18,0,0,0-8.55,4.75l1.72-4.75-1.72-4.76A30.2,30.2,0,0,0,256.2,76.06Z"/><line class="cls-4" x1="44.14" y1="6.54" x2="44.14" y2="59.46"/><path class="cls-3" d="M44.14.5a30.34,30.34,0,0,1-4.76,8.55l4.76-1.72,4.75,1.72A30.31,30.31,0,0,1,44.14.5Z"/><path class="cls-3" d="M44.14,65.5A30.34,30.34,0,0,0,39.38,57l4.76,1.72L48.89,57A30.31,30.31,0,0,0,44.14,65.5Z"/></g></g></svg>