<svg width="280" height="110" viewBox="0 0 280 110" fill="none" xmlns="http://www.w3.org/2000/svg">
<rect width="280" height="110" fill="white"/>
<rect x="16" y="49" width="110" height="16" fill="#C7C7C7"/>
<path d="M33 68L38 70.8868V65.1132L33 68ZM51 68L46 65.1132V70.8868L51 68ZM37.5 68.5H46.5V67.5H37.5V68.5Z" fill="#E73525"/>
<path d="M38.2715 84H37.1816V76.7754L34.9961 77.5781V76.5938L38.1016 75.4277H38.2715V84ZM45.7012 75.4629V76.3828H45.502C44.6582 76.3984 43.9863 76.6484 43.4863 77.1328C42.9863 77.6172 42.6973 78.2988 42.6191 79.1777C43.0684 78.6621 43.6816 78.4043 44.459 78.4043C45.2012 78.4043 45.793 78.666 46.2344 79.1895C46.6797 79.7129 46.9023 80.3887 46.9023 81.2168C46.9023 82.0957 46.6621 82.7988 46.1816 83.3262C45.7051 83.8535 45.0645 84.1172 44.2598 84.1172C43.4434 84.1172 42.7812 83.8047 42.2734 83.1797C41.7656 82.5508 41.5117 81.7422 41.5117 80.7539V80.3379C41.5117 78.7676 41.8457 77.5684 42.5137 76.7402C43.1855 75.9082 44.1836 75.4824 45.5078 75.4629H45.7012ZM44.2773 79.3066C43.9062 79.3066 43.5645 79.418 43.252 79.6406C42.9395 79.8633 42.7227 80.1426 42.6016 80.4785V80.877C42.6016 81.5801 42.7598 82.1465 43.0762 82.5762C43.3926 83.0059 43.7871 83.2207 44.2598 83.2207C44.748 83.2207 45.1309 83.041 45.4082 82.6816C45.6895 82.3223 45.8301 81.8516 45.8301 81.2695C45.8301 80.6836 45.6875 80.2109 45.4023 79.8516C45.1211 79.4883 44.7461 79.3066 44.2773 79.3066Z" fill="black"/>
<circle cx="26" cy="57" r="7" fill="#00A19B"/>
<circle cx="56" cy="57" r="7" fill="white"/>
<circle cx="86" cy="57" r="7" fill="white"/>
<circle cx="116" cy="57" r="7" fill="white"/>
<path d="M175 68L180 70.8868V65.1132L175 68ZM193 68L188 65.1132V70.8868L193 68ZM179.5 68.5H188.5V67.5H179.5V68.5Z" fill="#E73525"/>
<path d="M181.271 83H180.182V75.7754L177.996 76.5781V75.5938L181.102 74.4277H181.271V83ZM188.701 74.4629V75.3828H188.502C187.658 75.3984 186.986 75.6484 186.486 76.1328C185.986 76.6172 185.697 77.2988 185.619 78.1777C186.068 77.6621 186.682 77.4043 187.459 77.4043C188.201 77.4043 188.793 77.666 189.234 78.1895C189.68 78.7129 189.902 79.3887 189.902 80.2168C189.902 81.0957 189.662 81.7988 189.182 82.3262C188.705 82.8535 188.064 83.1172 187.26 83.1172C186.443 83.1172 185.781 82.8047 185.273 82.1797C184.766 81.5508 184.512 80.7422 184.512 79.7539V79.3379C184.512 77.7676 184.846 76.5684 185.514 75.7402C186.186 74.9082 187.184 74.4824 188.508 74.4629H188.701ZM187.277 78.3066C186.906 78.3066 186.564 78.418 186.252 78.6406C185.939 78.8633 185.723 79.1426 185.602 79.4785V79.877C185.602 80.5801 185.76 81.1465 186.076 81.5762C186.393 82.0059 186.787 82.2207 187.26 82.2207C187.748 82.2207 188.131 82.041 188.408 81.6816C188.689 81.3223 188.83 80.8516 188.83 80.2695C188.83 79.6836 188.688 79.2109 188.402 78.8516C188.121 78.4883 187.746 78.3066 187.277 78.3066Z" fill="black"/>
<circle cx="168" cy="56" r="7" fill="#00A19B"/>
<circle cx="198" cy="56" r="6.5" fill="white" stroke="#D9D9D9"/>
<circle cx="228" cy="56" r="6.5" fill="white" stroke="#D9D9D9"/>
<circle cx="258" cy="56" r="6.5" fill="white" stroke="#D9D9D9"/>
<path d="M22.82 20.71V22.6C22.82 23.27 22.99 23.45 23.71 23.45H24.73C25.27 23.45 25.46 23.22 25.53 22.31C25.34 22.27 25.07 22.18 24.92 22.07C24.9 22.75 24.85 22.84 24.65 22.84H23.8C23.55 22.84 23.51 22.8 23.51 22.59V20.71H24.71V21.73H25.39V20.07H19.3V21.9H19.96V20.71H21.18C21.09 22.17 20.77 22.87 19.15 23.27C19.28 23.39 19.47 23.65 19.52 23.81C21.36 23.33 21.76 22.43 21.87 20.71H22.82ZM19.08 20.84C18.71 20.49 17.94 20.03 17.32 19.76L16.89 20.29C17.52 20.59 18.27 21.08 18.63 21.44L19.08 20.84ZM18.63 23.31C18.24 23.01 17.44 22.64 16.81 22.43L16.43 23.01C17.07 23.25 17.85 23.64 18.24 23.96L18.63 23.31ZM18.35 25.04C17.85 26.16 17.17 27.44 16.69 28.19L17.33 28.65C17.85 27.73 18.46 26.52 18.92 25.48L18.35 25.04ZM25.46 25.35V24.68H22.59V23.56H21.86V24.68H19.16V25.35H21.4C20.76 26.38 19.71 27.3 18.68 27.77C18.82 27.91 19.04 28.16 19.15 28.34C20.16 27.81 21.18 26.86 21.86 25.78V28.75H22.59V25.66C23.22 26.72 24.16 27.74 25.09 28.26C25.2 28.08 25.44 27.8 25.62 27.67C24.68 27.22 23.69 26.3 23.08 25.35H25.46ZM31.61 20.95C31.39 21.34 31.12 21.77 30.85 22.1H28.1C28.47 21.73 28.8 21.34 29.09 20.95H31.61ZM33.79 24.59H31.25V22.78H33.79V24.59ZM28.14 22.78H30.51V24.59H28.14V22.78ZM29.45 27.96C28.35 27.96 28.14 27.81 28.14 27.19V25.26H33.79V25.71H34.54V22.1H31.72C32.07 21.63 32.41 21.08 32.66 20.58L32.16 20.26L32.02 20.31H29.55C29.67 20.12 29.79 19.94 29.9 19.76L29.08 19.6C28.55 20.6 27.55 21.83 26.19 22.76C26.37 22.87 26.62 23.11 26.73 23.28C26.96 23.11 27.19 22.94 27.4 22.75V27.18C27.4 28.37 27.89 28.65 29.5 28.65H33.38C34.85 28.65 35.16 28.22 35.33 26.76C35.1 26.71 34.79 26.61 34.59 26.48C34.47 27.69 34.32 27.96 33.36 27.96H29.45ZM38.92 23.32H39.65V19.63H38.92V20.5H36.42V21.1H38.92V22C37.87 22.18 36.88 22.33 36.18 22.44L36.29 23.08C37.04 22.93 37.97 22.77 38.92 22.58V23.32ZM38.34 26.5V25.61H42.93V26.5H38.34ZM42.93 24.22V25.06H38.34V24.22H42.93ZM43.68 23.64H37.6V28.77H38.34V27.05H42.93V27.93C42.93 28.07 42.87 28.12 42.71 28.13C42.56 28.14 41.98 28.14 41.39 28.11C41.49 28.3 41.61 28.57 41.64 28.78C42.44 28.78 42.95 28.77 43.26 28.66C43.57 28.55 43.68 28.36 43.68 27.94V23.64ZM42.36 22.58C41.91 22.58 41.84 22.53 41.84 22.26V21.48C42.78 21.26 43.84 20.94 44.62 20.62L44.09 20.08C43.55 20.35 42.67 20.66 41.84 20.89V19.63H41.1V22.26C41.1 23.02 41.33 23.23 42.28 23.23H43.97C44.71 23.23 44.93 22.97 45.01 22C44.81 21.95 44.51 21.85 44.34 21.74C44.31 22.46 44.24 22.58 43.9 22.58H42.36ZM47.87 21.62H52.91V22.26H47.87V21.62ZM47.87 20.5H52.91V21.13H47.87V20.5ZM54.77 23.39H50.75V22.77H53.64V19.99H47.16V22.77H50.01V23.39H46V24H54.77V23.39ZM48.32 26.83C47.73 27.3 46.74 27.76 45.88 28.06C46.04 28.18 46.29 28.45 46.42 28.6C47.27 28.24 48.32 27.67 49 27.1L48.32 26.83ZM48.1 25.07H52.71V26.06H48.1V25.07ZM53.45 26.61V24.52H47.39V26.61H50.03V28.03C50.03 28.14 50 28.17 49.86 28.18C49.71 28.18 49.23 28.18 48.72 28.16C48.81 28.34 48.91 28.58 48.94 28.76C49.65 28.76 50.11 28.76 50.39 28.66C50.68 28.58 50.77 28.41 50.77 28.05V26.61H53.45ZM51.67 27.23C52.58 27.59 53.7 28.16 54.27 28.57L54.78 28.11C54.18 27.69 53.04 27.15 52.15 26.81L51.67 27.23Z" fill="black"/>
<path d="M164.1 20.81C163.74 20.45 162.97 20 162.36 19.73L161.95 20.26C162.57 20.56 163.31 21.04 163.67 21.4L164.1 20.81ZM163.6 23.4C163.22 23.07 162.44 22.65 161.83 22.39L161.41 22.94C162.05 23.22 162.81 23.67 163.17 24.02L163.6 23.4ZM162.34 28.62C162.87 27.69 163.48 26.46 163.95 25.42L163.39 24.96C162.88 26.09 162.19 27.39 161.7 28.15L162.34 28.62ZM168.74 25.83C168.42 26.24 167.99 26.59 167.47 26.9C167.23 26.59 167.03 26.22 166.86 25.82L170.55 25.56L170.5 24.93L166.63 25.19C166.5 24.77 166.4 24.31 166.34 23.83H165.67C166.24 23.65 166.81 23.44 167.34 23.18C167.95 23.7 168.71 24.02 169.63 24.06C170.1 24.08 170.37 23.74 170.56 22.83C170.38 22.77 170.14 22.63 169.98 22.49C169.91 23.11 169.78 23.37 169.56 23.36C168.98 23.34 168.46 23.14 168.01 22.82C168.48 22.54 168.89 22.21 169.21 21.84L168.57 21.59C168.3 21.89 167.95 22.16 167.53 22.39C167.29 22.14 167.08 21.85 166.9 21.51L170.31 21.27L170.26 20.66L168.97 20.75L169.39 20.3C169.05 20.07 168.41 19.78 167.89 19.62L167.48 20.02C167.99 20.18 168.64 20.5 168.97 20.75L166.62 20.91C166.46 20.52 166.34 20.09 166.26 19.64H165.55C165.64 20.1 165.76 20.54 165.91 20.96L164.28 21.07L164.32 21.7L166.16 21.57C166.36 21.99 166.6 22.38 166.88 22.71C166.05 23.08 165.07 23.35 164.13 23.52C164.26 23.67 164.46 23.99 164.53 24.14C164.89 24.05 165.25 23.96 165.61 23.85C165.68 24.33 165.78 24.79 165.91 25.24L164.18 25.35L164.23 26L166.11 25.87C166.3 26.38 166.53 26.84 166.82 27.24C165.96 27.64 164.96 27.93 163.96 28.13C164.1 28.28 164.3 28.61 164.38 28.77C165.36 28.53 166.36 28.2 167.25 27.76C167.85 28.36 168.62 28.74 169.6 28.78C170.13 28.79 170.42 28.38 170.61 27.29C170.44 27.22 170.17 27.08 170.02 26.94C169.93 27.73 169.79 28.08 169.52 28.06C168.91 28.03 168.37 27.79 167.92 27.39C168.51 27.02 169.03 26.6 169.41 26.1L168.74 25.83ZM169.22 24.58C168.86 24.34 168.2 24.03 167.66 23.86L167.22 24.26C167.75 24.43 168.42 24.77 168.77 25.03L169.22 24.58ZM176.81 20.95C176.59 21.34 176.32 21.77 176.05 22.1H173.3C173.67 21.73 174 21.34 174.29 20.95H176.81ZM178.99 24.59H176.45V22.78H178.99V24.59ZM173.34 22.78H175.71V24.59H173.34V22.78ZM174.65 27.96C173.55 27.96 173.34 27.81 173.34 27.19V25.26H178.99V25.71H179.74V22.1H176.92C177.27 21.63 177.61 21.08 177.86 20.58L177.36 20.26L177.22 20.31H174.75C174.87 20.12 174.99 19.94 175.1 19.76L174.28 19.6C173.75 20.6 172.75 21.83 171.39 22.76C171.57 22.87 171.82 23.11 171.93 23.28C172.16 23.11 172.39 22.94 172.6 22.75V27.18C172.6 28.37 173.09 28.65 174.7 28.65H178.58C180.05 28.65 180.36 28.22 180.53 26.76C180.3 26.71 179.99 26.61 179.79 26.48C179.67 27.69 179.52 27.96 178.56 27.96H174.65ZM184.12 23.32H184.85V19.63H184.12V20.5H181.62V21.1H184.12V22C183.07 22.18 182.08 22.33 181.38 22.44L181.49 23.08C182.24 22.93 183.17 22.77 184.12 22.58V23.32ZM183.54 26.5V25.61H188.13V26.5H183.54ZM188.13 24.22V25.06H183.54V24.22H188.13ZM188.88 23.64H182.8V28.77H183.54V27.05H188.13V27.93C188.13 28.07 188.07 28.12 187.91 28.13C187.76 28.14 187.18 28.14 186.59 28.11C186.69 28.3 186.81 28.57 186.84 28.78C187.64 28.78 188.15 28.77 188.46 28.66C188.77 28.55 188.88 28.36 188.88 27.94V23.64ZM187.56 22.58C187.11 22.58 187.04 22.53 187.04 22.26V21.48C187.98 21.26 189.04 20.94 189.82 20.62L189.29 20.08C188.75 20.35 187.87 20.66 187.04 20.89V19.63H186.3V22.26C186.3 23.02 186.53 23.23 187.48 23.23H189.17C189.91 23.23 190.13 22.97 190.21 22C190.01 21.95 189.71 21.85 189.54 21.74C189.51 22.46 189.44 22.58 189.1 22.58H187.56ZM193.07 21.62H198.11V22.26H193.07V21.62ZM193.07 20.5H198.11V21.13H193.07V20.5ZM199.97 23.39H195.95V22.77H198.84V19.99H192.36V22.77H195.21V23.39H191.2V24H199.97V23.39ZM193.52 26.83C192.93 27.3 191.94 27.76 191.08 28.06C191.24 28.18 191.49 28.45 191.62 28.6C192.47 28.24 193.52 27.67 194.2 27.1L193.52 26.83ZM193.3 25.07H197.91V26.06H193.3V25.07ZM198.65 26.61V24.52H192.59V26.61H195.23V28.03C195.23 28.14 195.2 28.17 195.06 28.18C194.91 28.18 194.43 28.18 193.92 28.16C194.01 28.34 194.11 28.58 194.14 28.76C194.85 28.76 195.31 28.76 195.59 28.66C195.88 28.58 195.97 28.41 195.97 28.05V26.61H198.65ZM196.87 27.23C197.78 27.59 198.9 28.16 199.47 28.57L199.98 28.11C199.38 27.69 198.24 27.15 197.35 26.81L196.87 27.23Z" fill="black"/>
</svg>
