<svg width="510" height="207" viewBox="0 0 510 207" fill="none" xmlns="http://www.w3.org/2000/svg">
<path d="M95.912 4.336V7.36C95.912 8.432 96.184 8.72 97.336 8.72H98.968C99.832 8.72 100.136 8.352 100.248 6.896C99.944 6.832 99.512 6.688 99.272 6.512C99.24 7.6 99.16 7.744 98.84 7.744H97.48C97.08 7.744 97.016 7.68 97.016 7.344V4.336H98.936V5.968H100.024V3.312H90.28V6.24H91.336V4.336H93.288C93.144 6.672 92.632 7.792 90.04 8.432C90.248 8.624 90.552 9.04 90.632 9.296C93.576 8.528 94.216 7.088 94.392 4.336H95.912ZM89.928 4.544C89.336 3.984 88.104 3.248 87.112 2.816L86.424 3.664C87.432 4.144 88.632 4.928 89.208 5.504L89.928 4.544ZM89.208 8.496C88.584 8.016 87.304 7.424 86.296 7.088L85.688 8.016C86.712 8.4 87.96 9.024 88.584 9.536L89.208 8.496ZM88.76 11.264C87.96 13.056 86.872 15.104 86.104 16.304L87.128 17.04C87.96 15.568 88.936 13.632 89.672 11.968L88.76 11.264ZM100.136 11.76V10.688H95.544V8.896H94.376V10.688H90.056V11.76H93.64C92.616 13.408 90.936 14.88 89.288 15.632C89.512 15.856 89.864 16.256 90.04 16.544C91.656 15.696 93.288 14.176 94.376 12.448V17.2H95.544V12.256C96.552 13.952 98.056 15.584 99.544 16.416C99.72 16.128 100.104 15.68 100.392 15.472C98.888 14.752 97.304 13.28 96.328 11.76H100.136ZM109.976 4.72C109.624 5.344 109.192 6.032 108.76 6.56H104.36C104.952 5.968 105.48 5.344 105.944 4.72H109.976ZM113.464 10.544H109.4V7.648H113.464V10.544ZM104.424 7.648H108.216V10.544H104.424V7.648ZM106.52 15.936C104.76 15.936 104.424 15.696 104.424 14.704V11.616H113.464V12.336H114.664V6.56H110.152C110.712 5.808 111.256 4.928 111.656 4.128L110.856 3.616L110.632 3.696H106.68C106.872 3.392 107.064 3.104 107.24 2.816L105.928 2.56C105.08 4.16 103.48 6.128 101.304 7.616C101.592 7.792 101.992 8.176 102.168 8.448C102.536 8.176 102.904 7.904 103.24 7.6V14.688C103.24 16.592 104.024 17.04 106.6 17.04H112.808C115.16 17.04 115.656 16.352 115.928 14.016C115.56 13.936 115.064 13.776 114.744 13.568C114.552 15.504 114.312 15.936 112.776 15.936H106.52ZM121.672 8.512H122.84V2.608H121.672V4H117.672V4.96H121.672V6.4C119.992 6.688 118.408 6.928 117.288 7.104L117.464 8.128C118.664 7.888 120.152 7.632 121.672 7.328V8.512ZM120.744 13.6V12.176H128.088V13.6H120.744ZM128.088 9.952V11.296H120.744V9.952H128.088ZM129.288 9.024H119.56V17.232H120.744V14.48H128.088V15.888C128.088 16.112 127.992 16.192 127.736 16.208C127.496 16.224 126.568 16.224 125.624 16.176C125.784 16.48 125.976 16.912 126.024 17.248C127.304 17.248 128.12 17.232 128.616 17.056C129.112 16.88 129.288 16.576 129.288 15.904V9.024ZM127.176 7.328C126.456 7.328 126.344 7.248 126.344 6.816V5.568C127.848 5.216 129.544 4.704 130.792 4.192L129.944 3.328C129.08 3.76 127.672 4.256 126.344 4.624V2.608H125.16V6.816C125.16 8.032 125.528 8.368 127.048 8.368H129.752C130.936 8.368 131.288 7.952 131.416 6.4C131.096 6.32 130.616 6.16 130.344 5.984C130.296 7.136 130.184 7.328 129.64 7.328H127.176ZM135.992 5.792H144.056V6.816H135.992V5.792ZM135.992 4H144.056V5.008H135.992V4ZM147.032 8.624H140.6V7.632H145.224V3.184H134.856V7.632H139.416V8.624H133V9.6H147.032V8.624ZM136.712 14.128C135.768 14.88 134.184 15.616 132.808 16.096C133.064 16.288 133.464 16.72 133.672 16.96C135.032 16.384 136.712 15.472 137.8 14.56L136.712 14.128ZM136.36 11.312H143.736V12.896H136.36V11.312ZM144.92 13.776V10.432H135.224V13.776H139.448V16.048C139.448 16.224 139.4 16.272 139.176 16.288C138.936 16.288 138.168 16.288 137.352 16.256C137.496 16.544 137.656 16.928 137.704 17.216C138.84 17.216 139.576 17.216 140.024 17.056C140.488 16.928 140.632 16.656 140.632 16.08V13.776H144.92ZM142.072 14.768C143.528 15.344 145.32 16.256 146.232 16.912L147.048 16.176C146.088 15.504 144.264 14.64 142.84 14.096L142.072 14.768Z" fill="black"/>
<rect y="32" width="234" height="175" fill="#C7C7C7"/>
<g clip-path="url(#clip0_717_2)">
<path d="M214.306 131.66L229.077 116.5L214.306 101.34" stroke="white" stroke-width="2" stroke-linecap="round" stroke-linejoin="round"/>
</g>
<g clip-path="url(#clip1_717_2)">
<path d="M19.6943 102.34L4.92297 117.5L19.6943 132.66" stroke="white" stroke-width="2" stroke-linecap="round" stroke-linejoin="round"/>
</g>
<circle cx="72" cy="189" r="7" fill="#00A19B"/>
<circle cx="102" cy="189" r="7" fill="white"/>
<circle cx="132" cy="189" r="7" fill="white"/>
<circle cx="162" cy="189" r="7" fill="white"/>
<path d="M365.96 3.496C365.384 2.92 364.152 2.2 363.176 1.768L362.52 2.616C363.512 3.096 364.696 3.864 365.272 4.44L365.96 3.496ZM365.16 7.64C364.552 7.112 363.304 6.44 362.328 6.024L361.656 6.904C362.68 7.352 363.896 8.072 364.472 8.632L365.16 7.64ZM363.144 15.992C363.992 14.504 364.968 12.536 365.72 10.872L364.824 10.136C364.008 11.944 362.904 14.024 362.12 15.24L363.144 15.992ZM373.384 11.528C372.872 12.184 372.184 12.744 371.352 13.24C370.968 12.744 370.648 12.152 370.376 11.512L376.28 11.096L376.2 10.088L370.008 10.504C369.8 9.832 369.64 9.096 369.544 8.328H368.472C369.384 8.04 370.296 7.704 371.144 7.288C372.12 8.12 373.336 8.632 374.808 8.696C375.56 8.728 375.992 8.184 376.296 6.728C376.008 6.632 375.624 6.408 375.368 6.184C375.256 7.176 375.048 7.592 374.696 7.576C373.768 7.544 372.936 7.224 372.216 6.712C372.968 6.264 373.624 5.736 374.136 5.144L373.112 4.744C372.68 5.224 372.12 5.656 371.448 6.024C371.064 5.624 370.728 5.16 370.44 4.616L375.896 4.232L375.816 3.256L373.752 3.4L374.424 2.68C373.88 2.312 372.856 1.848 372.024 1.592L371.368 2.232C372.184 2.488 373.224 3 373.752 3.4L369.992 3.656C369.736 3.032 369.544 2.344 369.416 1.624H368.28C368.424 2.36 368.616 3.064 368.856 3.736L366.248 3.912L366.312 4.92L369.256 4.712C369.576 5.384 369.96 6.008 370.408 6.536C369.08 7.128 367.512 7.56 366.008 7.832C366.216 8.072 366.536 8.584 366.648 8.824C367.224 8.68 367.8 8.536 368.376 8.36C368.488 9.128 368.648 9.864 368.856 10.584L366.088 10.76L366.168 11.8L369.176 11.592C369.48 12.408 369.848 13.144 370.312 13.784C368.936 14.424 367.336 14.888 365.736 15.208C365.96 15.448 366.28 15.976 366.408 16.232C367.976 15.848 369.576 15.32 371 14.616C371.96 15.576 373.192 16.184 374.76 16.248C375.608 16.264 376.072 15.608 376.376 13.864C376.104 13.752 375.672 13.528 375.432 13.304C375.288 14.568 375.064 15.128 374.632 15.096C373.656 15.048 372.792 14.664 372.072 14.024C373.016 13.432 373.848 12.76 374.456 11.96L373.384 11.528ZM374.152 9.528C373.576 9.144 372.52 8.648 371.656 8.376L370.952 9.016C371.8 9.288 372.872 9.832 373.432 10.248L374.152 9.528ZM386.296 3.72C385.944 4.344 385.512 5.032 385.08 5.56H380.68C381.272 4.968 381.8 4.344 382.264 3.72H386.296ZM389.784 9.544H385.72V6.648H389.784V9.544ZM380.744 6.648H384.536V9.544H380.744V6.648ZM382.84 14.936C381.08 14.936 380.744 14.696 380.744 13.704V10.616H389.784V11.336H390.984V5.56H386.472C387.032 4.808 387.576 3.928 387.976 3.128L387.176 2.616L386.952 2.696H383C383.192 2.392 383.384 2.104 383.56 1.816L382.248 1.56C381.4 3.16 379.8 5.128 377.624 6.616C377.912 6.792 378.312 7.176 378.488 7.448C378.856 7.176 379.224 6.904 379.56 6.6V13.688C379.56 15.592 380.344 16.04 382.92 16.04H389.128C391.48 16.04 391.976 15.352 392.248 13.016C391.88 12.936 391.384 12.776 391.064 12.568C390.872 14.504 390.632 14.936 389.096 14.936H382.84ZM397.992 7.512H399.16V1.608H397.992V3H393.992V3.96H397.992V5.4C396.312 5.688 394.728 5.928 393.608 6.104L393.784 7.128C394.984 6.888 396.472 6.632 397.992 6.328V7.512ZM397.064 12.6V11.176H404.408V12.6H397.064ZM404.408 8.952V10.296H397.064V8.952H404.408ZM405.608 8.024H395.88V16.232H397.064V13.48H404.408V14.888C404.408 15.112 404.312 15.192 404.056 15.208C403.816 15.224 402.888 15.224 401.944 15.176C402.104 15.48 402.296 15.912 402.344 16.248C403.624 16.248 404.44 16.232 404.936 16.056C405.432 15.88 405.608 15.576 405.608 14.904V8.024ZM403.496 6.328C402.776 6.328 402.664 6.248 402.664 5.816V4.568C404.168 4.216 405.864 3.704 407.112 3.192L406.264 2.328C405.4 2.76 403.992 3.256 402.664 3.624V1.608H401.48V5.816C401.48 7.032 401.848 7.368 403.368 7.368H406.072C407.256 7.368 407.608 6.952 407.736 5.4C407.416 5.32 406.936 5.16 406.664 4.984C406.616 6.136 406.504 6.328 405.96 6.328H403.496ZM412.312 4.792H420.376V5.816H412.312V4.792ZM412.312 3H420.376V4.008H412.312V3ZM423.352 7.624H416.92V6.632H421.544V2.184H411.176V6.632H415.736V7.624H409.32V8.6H423.352V7.624ZM413.032 13.128C412.088 13.88 410.504 14.616 409.128 15.096C409.384 15.288 409.784 15.72 409.992 15.96C411.352 15.384 413.032 14.472 414.12 13.56L413.032 13.128ZM412.68 10.312H420.056V11.896H412.68V10.312ZM421.24 12.776V9.432H411.544V12.776H415.768V15.048C415.768 15.224 415.72 15.272 415.496 15.288C415.256 15.288 414.488 15.288 413.672 15.256C413.816 15.544 413.976 15.928 414.024 16.216C415.16 16.216 415.896 16.216 416.344 16.056C416.808 15.928 416.952 15.656 416.952 15.08V12.776H421.24ZM418.392 13.768C419.848 14.344 421.64 15.256 422.552 15.912L423.368 15.176C422.408 14.504 420.584 13.64 419.16 13.096L418.392 13.768Z" fill="black"/>
<rect x="276.5" y="32.5" width="233" height="174" fill="white" stroke="#D9D9D9"/>
<circle cx="348" cy="188" r="7" fill="#00A19B"/>
<circle cx="378" cy="188" r="6.5" fill="white" stroke="#D9D9D9"/>
<circle cx="408" cy="188" r="6.5" fill="white" stroke="#D9D9D9"/>
<circle cx="438" cy="188" r="6.5" fill="white" stroke="#D9D9D9"/>
<g clip-path="url(#clip2_717_2)">
<path d="M294.694 100.34L279.923 115.5L294.694 130.66" stroke="#00A19B" stroke-width="2" stroke-linecap="round" stroke-linejoin="round"/>
</g>
<g clip-path="url(#clip3_717_2)">
<path d="M490.306 130.66L505.077 115.5L490.306 100.34" stroke="#00A19B" stroke-width="2" stroke-linecap="round" stroke-linejoin="round"/>
</g>
<defs>
<clipPath id="clip0_717_2">
<rect width="17" height="33" fill="white" transform="translate(213 100)"/>
</clipPath>
<clipPath id="clip1_717_2">
<rect width="17" height="33" fill="white" transform="translate(21 134) rotate(-180)"/>
</clipPath>
<clipPath id="clip2_717_2">
<rect width="17" height="33" fill="white" transform="translate(296 132) rotate(-180)"/>
</clipPath>
<clipPath id="clip3_717_2">
<rect width="17" height="33" fill="white" transform="translate(489 99)"/>
</clipPath>
</defs>
</svg>
