<svg width="89" height="68" viewBox="0 0 89 68" fill="none" xmlns="http://www.w3.org/2000/svg">
<rect width="89" height="68" rx="6" fill="#FFD640"/>
<path d="M18.2031 20.3594L14.2031 30.4297C13.5052 32.1901 12.526 33.0703 11.2656 33.0703C10.9479 33.0703 10.6641 33.0365 10.4141 32.9688V31.7812C10.7057 31.875 10.9714 31.9219 11.2109 31.9219C11.9141 31.9219 12.4401 31.5 12.7891 30.6562L13.4922 28.9844L10.125 20.3594H11.5703L13.9531 27.1016C13.9844 27.1953 14.0443 27.401 14.1328 27.7188H14.1797C14.2005 27.6094 14.2552 27.4089 14.3438 27.1172L16.8516 20.3594H18.2031ZM26.5078 25H20.3828C20.4089 25.9948 20.6719 26.7578 21.1719 27.2891C21.6719 27.8203 22.3568 28.0859 23.2266 28.0859C24.2005 28.0859 25.099 27.7604 25.9219 27.1094V28.3594C25.1667 28.9219 24.1667 29.2031 22.9219 29.2031C21.7188 29.2031 20.7682 28.8099 20.0703 28.0234C19.3776 27.237 19.0312 26.1302 19.0312 24.7031C19.0312 23.3906 19.4062 22.3047 20.1562 21.4453C20.9115 20.5859 21.8542 20.1562 22.9844 20.1562C24.0938 20.1562 24.9583 20.5208 25.5781 21.25C26.1979 21.9792 26.5078 22.9948 26.5078 24.2969V25ZM25.1641 23.8516C25.1589 23.0391 24.9635 22.4089 24.5781 21.9609C24.1927 21.5078 23.6536 21.2812 22.9609 21.2812C22.3307 21.2812 21.776 21.5078 21.2969 21.9609C20.8229 22.4141 20.5234 23.0443 20.3984 23.8516H25.1641ZM28.6406 29V16.2109H29.9375V29H28.6406ZM32.7969 29V16.2109H34.0938V29H32.7969ZM36.3594 24.7891C36.3594 23.3516 36.75 22.2214 37.5312 21.3984C38.3177 20.5703 39.3854 20.1562 40.7344 20.1562C42.0052 20.1562 43 20.5547 43.7188 21.3516C44.4427 22.1484 44.8047 23.25 44.8047 24.6562C44.8047 26.0208 44.4141 27.1198 43.6328 27.9531C42.8516 28.7865 41.8177 29.2031 40.5312 29.2031C39.2865 29.2031 38.2786 28.8021 37.5078 28C36.7422 27.1979 36.3594 26.1276 36.3594 24.7891ZM37.6875 24.7344C37.6875 25.7552 37.9531 26.5703 38.4844 27.1797C39.0208 27.7891 39.7344 28.0938 40.625 28.0938C41.5312 28.0938 42.2318 27.7969 42.7266 27.2031C43.2266 26.6094 43.4766 25.776 43.4766 24.7031C43.4766 23.6042 43.2292 22.7578 42.7344 22.1641C42.2448 21.5651 41.5417 21.2656 40.625 21.2656C39.7292 21.2656 39.0156 21.5755 38.4844 22.1953C37.9531 22.8099 37.6875 23.6562 37.6875 24.7344ZM57.8203 20.3594L55.2266 29H53.875L52.0625 22.7422C51.9948 22.5078 51.9505 22.2474 51.9297 21.9609H51.8984C51.8932 22.1068 51.8333 22.362 51.7188 22.7266L49.7578 29H48.4609L45.8359 20.3594H47.2031L49.0312 26.9141C49.0885 27.1224 49.1276 27.3776 49.1484 27.6797H49.2109C49.2318 27.4401 49.2839 27.1797 49.3672 26.8984L51.3906 20.3594H52.5781L54.3984 26.9297C54.4453 27.1068 54.487 27.362 54.5234 27.6953H54.5938C54.599 27.4818 54.6458 27.2266 54.7344 26.9297L56.5312 20.3594H57.8203ZM63.8516 24.6953H59.25V23.6562H63.8516V24.6953ZM66.3203 27.2891C67.1432 27.8255 67.9818 28.0938 68.8359 28.0938C69.6901 28.0938 70.3854 27.849 70.9219 27.3594C71.4583 26.8646 71.7266 26.2109 71.7266 25.3984C71.7266 24.5807 71.4583 23.9479 70.9219 23.5C70.3854 23.0521 69.612 22.8281 68.6016 22.8281C68.2839 22.8281 67.651 22.8594 66.7031 22.9219V16.8984H72.5V18.0859H67.9453V21.7109C68.3984 21.6849 68.7422 21.6719 68.9766 21.6719C70.2474 21.6719 71.2422 21.9922 71.9609 22.6328C72.6849 23.2682 73.0469 24.1641 73.0469 25.3203C73.0469 26.5234 72.6562 27.4714 71.875 28.1641C71.0938 28.8568 70.0677 29.2031 68.7969 29.2031C67.6823 29.2031 66.8568 29.0365 66.3203 28.7031V27.2891ZM19.8281 44.3125L19.6406 45.1641H17.4062L16.8672 47.7266H19.2812L19.0625 48.5781H16.7031L15.9531 51.9531H14.9297L15.6641 48.5781H13.5469L12.8281 51.9531H11.8125L12.5312 48.5781H10.2812L10.4297 47.7266H12.7109L13.2266 45.1641H10.8516L11.0234 44.3125H13.3984L14.1172 40.8906H15.1328L14.4219 44.3125H16.5547L17.2891 40.8906H18.2812L17.5703 44.3125H19.8281ZM16.4062 45.1641H14.2578L13.6953 47.7266H15.8594L16.4062 45.1641ZM27.9062 42.1172H23.1484V46.3828H27.5547V47.6016H23.1484V53H21.8203V40.8984H27.9062V42.1172ZM36.3125 42.1172H31.5547V46.3828H35.9609V47.6016H31.5547V53H30.2266V40.8984H36.3125V42.1172ZM38.6328 53V40.8984H41.9141C46.1693 40.8984 48.2969 42.8646 48.2969 46.7969C48.2969 48.6823 47.724 50.1875 46.5781 51.3125C45.4323 52.4375 43.8359 53 41.7891 53H38.6328ZM39.9609 42.1172V51.7812H41.8047C43.4141 51.7812 44.6667 51.349 45.5625 50.4844C46.4583 49.6198 46.9062 48.4036 46.9062 46.8359C46.9062 43.6901 45.2318 42.1172 41.8828 42.1172H39.9609ZM56.9531 42.2891C56.3177 41.9714 55.6589 41.8125 54.9766 41.8125C53.8672 41.8125 52.9922 42.2995 52.3516 43.2734C51.7109 44.2422 51.3932 45.5443 51.3984 47.1797H51.4375C51.9948 46.0234 52.9193 45.4453 54.2109 45.4453C55.2682 45.4453 56.112 45.7891 56.7422 46.4766C57.3724 47.1641 57.6875 48.0677 57.6875 49.1875C57.6875 50.3385 57.3333 51.2969 56.625 52.0625C55.9167 52.8229 55.013 53.2031 53.9141 53.2031C52.6536 53.2031 51.6927 52.7109 51.0312 51.7266C50.375 50.7422 50.0469 49.3958 50.0469 47.6875C50.0469 45.6406 50.4766 43.9635 51.3359 42.6562C52.1953 41.349 53.401 40.6953 54.9531 40.6953C55.7969 40.6953 56.4635 40.8125 56.9531 41.0469V42.2891ZM51.4922 49.0391C51.4922 49.8932 51.7188 50.6172 52.1719 51.2109C52.6302 51.7995 53.2266 52.0938 53.9609 52.0938C54.6745 52.0938 55.25 51.8333 55.6875 51.3125C56.125 50.7917 56.3438 50.138 56.3438 49.3516C56.3438 48.4714 56.1302 47.7865 55.7031 47.2969C55.276 46.8073 54.6901 46.5625 53.9453 46.5625C53.263 46.5625 52.6823 46.8021 52.2031 47.2812C51.7292 47.7604 51.4922 48.3464 51.4922 49.0391ZM67.0703 49.75H65.5078V53H64.2109V49.75H58.4922V48.8906L63.8984 40.8984H65.5078V48.6719H67.0703V49.75ZM64.2109 48.6719V43.3438C64.2109 42.974 64.2214 42.5547 64.2422 42.0859H64.2109C64.1693 42.2005 64.0156 42.5104 63.75 43.0156L59.9453 48.6719H64.2109ZM68.4062 47.1953C68.4062 45.0599 68.7526 43.4427 69.4453 42.3438C70.1432 41.2448 71.1484 40.6953 72.4609 40.6953C74.9766 40.6953 76.2344 42.763 76.2344 46.8984C76.2344 48.9089 75.888 50.4635 75.1953 51.5625C74.5078 52.6562 73.5052 53.2031 72.1875 53.2031C70.9583 53.2031 70.0208 52.6771 69.375 51.625C68.7292 50.5729 68.4062 49.0964 68.4062 47.1953ZM69.7344 47.125C69.7344 50.4375 70.599 52.0938 72.3281 52.0938C74.0417 52.0938 74.8984 50.4141 74.8984 47.0547C74.8984 43.5599 74.0625 41.8125 72.3906 41.8125C70.6198 41.8125 69.7344 43.5833 69.7344 47.125Z" fill="#434343"/>
</svg>
