<svg width="95" height="68" viewBox="0 0 95 68" fill="none" xmlns="http://www.w3.org/2000/svg">
<rect width="95" height="68" rx="6" fill="#93E6FE"/>
<path d="M12.7188 27.7344V29H11.4141V16.2109H12.7188V21.8906H12.7578C13.4401 20.7344 14.4375 20.1562 15.75 20.1562C16.849 20.1562 17.7161 20.5443 18.3516 21.3203C18.987 22.0964 19.3047 23.1328 19.3047 24.4297C19.3047 25.8672 18.9479 27.0234 18.2344 27.8984C17.526 28.7682 16.5651 29.2031 15.3516 29.2031C14.2109 29.2031 13.3464 28.7135 12.7578 27.7344H12.7188ZM12.7188 25.4922C12.7188 26.2266 12.9609 26.8438 13.4453 27.3438C13.9349 27.8438 14.5312 28.0938 15.2344 28.0938C16.0833 28.0938 16.75 27.7656 17.2344 27.1094C17.724 26.4531 17.9688 25.5469 17.9688 24.3906C17.9688 23.4271 17.7422 22.6667 17.2891 22.1094C16.8359 21.5469 16.224 21.2656 15.4531 21.2656C14.6562 21.2656 14 21.5495 13.4844 22.1172C12.974 22.6797 12.7188 23.3932 12.7188 24.2578V25.4922ZM21.5469 29V16.2109H22.8438V29H21.5469ZM32.6094 29H31.3047V27.6328H31.2734C30.7057 28.6797 29.8177 29.2031 28.6094 29.2031C26.5469 29.2031 25.5156 27.9766 25.5156 25.5234V20.3594H26.8047V25.3047C26.8047 27.1641 27.513 28.0938 28.9297 28.0938C29.6276 28.0938 30.1979 27.8359 30.6406 27.3203C31.0833 26.8047 31.3047 26.1432 31.3047 25.3359V20.3594H32.6094V29ZM42.3203 25H36.1953C36.2214 25.9948 36.4844 26.7578 36.9844 27.2891C37.4844 27.8203 38.1693 28.0859 39.0391 28.0859C40.013 28.0859 40.9115 27.7604 41.7344 27.1094V28.3594C40.9792 28.9219 39.9792 29.2031 38.7344 29.2031C37.5312 29.2031 36.5807 28.8099 35.8828 28.0234C35.1901 27.237 34.8438 26.1302 34.8438 24.7031C34.8438 23.3906 35.2188 22.3047 35.9688 21.4453C36.724 20.5859 37.6667 20.1562 38.7969 20.1562C39.9062 20.1562 40.7708 20.5208 41.3906 21.25C42.0104 21.9792 42.3203 22.9948 42.3203 24.2969V25ZM40.9766 23.8516C40.9714 23.0391 40.776 22.4089 40.3906 21.9609C40.0052 21.5078 39.4661 21.2812 38.7734 21.2812C38.1432 21.2812 37.5885 21.5078 37.1094 21.9609C36.6354 22.4141 36.3359 23.0443 36.2109 23.8516H40.9766ZM48.8516 24.6953H44.25V23.6562H48.8516V24.6953ZM51.0312 27.1094C51.8594 27.7656 52.7917 28.0938 53.8281 28.0938C54.6615 28.0938 55.3385 27.8828 55.8594 27.4609C56.3854 27.0391 56.6484 26.4583 56.6484 25.7188C56.6484 24.1042 55.5104 23.2969 53.2344 23.2969H52.2344V22.1797H53.1875C55.2083 22.1797 56.2188 21.4245 56.2188 19.9141C56.2188 18.513 55.4479 17.8125 53.9062 17.8125C53.0521 17.8125 52.25 18.1068 51.5 18.6953V17.3906C52.2708 16.9271 53.1823 16.6953 54.2344 16.6953C55.1927 16.6953 55.9844 16.9583 56.6094 17.4844C57.2396 18.0104 57.5547 18.7083 57.5547 19.5781C57.5547 21.1615 56.7448 22.1875 55.125 22.6562V22.6875C55.9844 22.7604 56.6745 23.0625 57.1953 23.5938C57.7214 24.125 57.9844 24.7865 57.9844 25.5781C57.9844 26.6823 57.5859 27.5625 56.7891 28.2188C55.9974 28.875 54.9844 29.2031 53.75 29.2031C52.6146 29.2031 51.7083 28.987 51.0312 28.5547V27.1094ZM19.8281 44.3125L19.6406 45.1641H17.4062L16.8672 47.7266H19.2812L19.0625 48.5781H16.7031L15.9531 51.9531H14.9297L15.6641 48.5781H13.5469L12.8281 51.9531H11.8125L12.5312 48.5781H10.2812L10.4297 47.7266H12.7109L13.2266 45.1641H10.8516L11.0234 44.3125H13.3984L14.1172 40.8906H15.1328L14.4219 44.3125H16.5547L17.2891 40.8906H18.2812L17.5703 44.3125H19.8281ZM16.4062 45.1641H14.2578L13.6953 47.7266H15.8594L16.4062 45.1641ZM21.6797 51.5234C22.362 51.9036 23.0729 52.0938 23.8125 52.0938C24.9115 52.0938 25.7708 51.6458 26.3906 50.75C27.0104 49.849 27.3203 48.5703 27.3203 46.9141C27.3099 46.9245 27.2995 46.9245 27.2891 46.9141C26.7682 47.9661 25.862 48.4922 24.5703 48.4922C23.5286 48.4922 22.6771 48.1354 22.0156 47.4219C21.3542 46.7083 21.0234 45.8099 21.0234 44.7266C21.0234 43.5755 21.375 42.6172 22.0781 41.8516C22.7865 41.0807 23.7214 40.6953 24.8828 40.6953C26.0964 40.6953 27.026 41.1719 27.6719 42.125C28.3177 43.0729 28.6406 44.4375 28.6406 46.2188C28.6406 48.4167 28.2161 50.1302 27.3672 51.3594C26.5234 52.5885 25.3203 53.2031 23.7578 53.2031C22.9505 53.2031 22.2578 53.0677 21.6797 52.7969V51.5234ZM22.3594 44.5312C22.3594 45.375 22.5807 46.0521 23.0234 46.5625C23.4661 47.0677 24.0755 47.3203 24.8516 47.3203C25.5391 47.3203 26.1068 47.0938 26.5547 46.6406C27.0078 46.1823 27.2344 45.6302 27.2344 44.9844C27.2344 44.0833 27.0078 43.3307 26.5547 42.7266C26.1068 42.1172 25.5078 41.8125 24.7578 41.8125C24.0547 41.8125 23.4792 42.0781 23.0312 42.6094C22.5833 43.1354 22.3594 43.776 22.3594 44.5312ZM30.5938 51.1094C31.4219 51.7656 32.3542 52.0938 33.3906 52.0938C34.224 52.0938 34.901 51.8828 35.4219 51.4609C35.9479 51.0391 36.2109 50.4583 36.2109 49.7188C36.2109 48.1042 35.0729 47.2969 32.7969 47.2969H31.7969V46.1797H32.75C34.7708 46.1797 35.7812 45.4245 35.7812 43.9141C35.7812 42.513 35.0104 41.8125 33.4688 41.8125C32.6146 41.8125 31.8125 42.1068 31.0625 42.6953V41.3906C31.8333 40.9271 32.7448 40.6953 33.7969 40.6953C34.7552 40.6953 35.5469 40.9583 36.1719 41.4844C36.8021 42.0104 37.1172 42.7083 37.1172 43.5781C37.1172 45.1615 36.3073 46.1875 34.6875 46.6562V46.6875C35.5469 46.7604 36.237 47.0625 36.7578 47.5938C37.2839 48.125 37.5469 48.7865 37.5469 49.5781C37.5469 50.6823 37.1484 51.5625 36.3516 52.2188C35.5599 52.875 34.5469 53.2031 33.3125 53.2031C32.1771 53.2031 31.2708 52.987 30.5938 52.5547V51.1094ZM46.7422 53H40.3828V40.8984H46.4688V42.1172H41.7109V46.2344H46.1094V47.4531H41.7109V51.7812H46.7422V53ZM55.3438 42.2891C54.7083 41.9714 54.0495 41.8125 53.3672 41.8125C52.2578 41.8125 51.3828 42.2995 50.7422 43.2734C50.1016 44.2422 49.7839 45.5443 49.7891 47.1797H49.8281C50.3854 46.0234 51.3099 45.4453 52.6016 45.4453C53.6589 45.4453 54.5026 45.7891 55.1328 46.4766C55.763 47.1641 56.0781 48.0677 56.0781 49.1875C56.0781 50.3385 55.724 51.2969 55.0156 52.0625C54.3073 52.8229 53.4036 53.2031 52.3047 53.2031C51.0443 53.2031 50.0833 52.7109 49.4219 51.7266C48.7656 50.7422 48.4375 49.3958 48.4375 47.6875C48.4375 45.6406 48.8672 43.9635 49.7266 42.6562C50.5859 41.349 51.7917 40.6953 53.3438 40.6953C54.1875 40.6953 54.8542 40.8125 55.3438 41.0469V42.2891ZM49.8828 49.0391C49.8828 49.8932 50.1094 50.6172 50.5625 51.2109C51.0208 51.7995 51.6172 52.0938 52.3516 52.0938C53.0651 52.0938 53.6406 51.8333 54.0781 51.3125C54.5156 50.7917 54.7344 50.138 54.7344 49.3516C54.7344 48.4714 54.5208 47.7865 54.0938 47.2969C53.6667 46.8073 53.0807 46.5625 52.3359 46.5625C51.6536 46.5625 51.0729 46.8021 50.5938 47.2812C50.1198 47.7604 49.8828 48.3464 49.8828 49.0391ZM64.4688 42.1172H59.7109V46.3828H64.1172V47.6016H59.7109V53H58.3828V40.8984H64.4688V42.1172ZM73.1484 53H66.7891V40.8984H72.875V42.1172H68.1172V46.2344H72.5156V47.4531H68.1172V51.7812H73.1484V53Z" fill="black"/>
</svg>
