<svg width="95" height="68" viewBox="0 0 95 68" fill="none" xmlns="http://www.w3.org/2000/svg">
<rect width="95" height="68" rx="6" fill="#87E3BF"/>
<path d="M18.7188 28.3203C18.7188 31.487 17.2188 33.0703 14.2188 33.0703C13.1562 33.0703 12.2214 32.8646 11.4141 32.4531V31.125C12.388 31.6667 13.3203 31.9375 14.2109 31.9375C16.3516 31.9375 17.4219 30.7891 17.4219 28.4922V27.5312H17.3906C16.7135 28.6458 15.7188 29.2031 14.4062 29.2031C13.3229 29.2031 12.4557 28.8151 11.8047 28.0391C11.1536 27.263 10.8281 26.237 10.8281 24.9609C10.8281 23.487 11.1849 22.3177 11.8984 21.4531C12.612 20.5885 13.5729 20.1562 14.7812 20.1562C15.9531 20.1562 16.8229 20.6276 17.3906 21.5703H17.4219V20.3594H18.7188V28.3203ZM17.4219 23.7969C17.4219 23.0938 17.1797 22.4974 16.6953 22.0078C16.2109 21.513 15.6276 21.2656 14.9453 21.2656C14.0807 21.2656 13.3984 21.5833 12.8984 22.2188C12.4036 22.8542 12.1562 23.737 12.1562 24.8672C12.1562 25.8464 12.3958 26.6302 12.875 27.2188C13.3542 27.8021 13.9766 28.0938 14.7422 28.0938C15.5182 28.0938 16.1589 27.8151 16.6641 27.2578C17.1693 26.6953 17.4219 25.9792 17.4219 25.1094V23.7969ZM25.9922 21.6953C25.7526 21.513 25.4062 21.4219 24.9531 21.4219C24.3438 21.4219 23.8411 21.7135 23.4453 22.2969C23.0547 22.875 22.8594 23.6354 22.8594 24.5781V29H21.5547V20.3594H22.8594V22.1484H22.8984C23.0964 21.5339 23.3984 21.0573 23.8047 20.7188C24.2109 20.3802 24.6589 20.2109 25.1484 20.2109C25.5182 20.2109 25.7995 20.25 25.9922 20.3281V21.6953ZM34.3984 25H28.2734C28.2995 25.9948 28.5625 26.7578 29.0625 27.2891C29.5625 27.8203 30.2474 28.0859 31.1172 28.0859C32.0911 28.0859 32.9896 27.7604 33.8125 27.1094V28.3594C33.0573 28.9219 32.0573 29.2031 30.8125 29.2031C29.6094 29.2031 28.6589 28.8099 27.9609 28.0234C27.2682 27.237 26.9219 26.1302 26.9219 24.7031C26.9219 23.3906 27.2969 22.3047 28.0469 21.4453C28.8021 20.5859 29.7448 20.1562 30.875 20.1562C31.9844 20.1562 32.849 20.5208 33.4688 21.25C34.0885 21.9792 34.3984 22.9948 34.3984 24.2969V25ZM33.0547 23.8516C33.0495 23.0391 32.8542 22.4089 32.4688 21.9609C32.0833 21.5078 31.5443 21.2812 30.8516 21.2812C30.2214 21.2812 29.6667 21.5078 29.1875 21.9609C28.7135 22.4141 28.4141 23.0443 28.2891 23.8516H33.0547ZM43.4141 25H37.2891C37.3151 25.9948 37.5781 26.7578 38.0781 27.2891C38.5781 27.8203 39.263 28.0859 40.1328 28.0859C41.1068 28.0859 42.0052 27.7604 42.8281 27.1094V28.3594C42.0729 28.9219 41.0729 29.2031 39.8281 29.2031C38.625 29.2031 37.6745 28.8099 36.9766 28.0234C36.2839 27.237 35.9375 26.1302 35.9375 24.7031C35.9375 23.3906 36.3125 22.3047 37.0625 21.4453C37.8177 20.5859 38.7604 20.1562 39.8906 20.1562C41 20.1562 41.8646 20.5208 42.4844 21.25C43.1042 21.9792 43.4141 22.9948 43.4141 24.2969V25ZM42.0703 23.8516C42.0651 23.0391 41.8698 22.4089 41.4844 21.9609C41.099 21.5078 40.5599 21.2812 39.8672 21.2812C39.237 21.2812 38.6823 21.5078 38.2031 21.9609C37.7292 22.4141 37.4297 23.0443 37.3047 23.8516H42.0703ZM52.6406 29H51.3359V24.0625C51.3359 22.1979 50.6536 21.2656 49.2891 21.2656C48.5755 21.2656 47.9896 21.5339 47.5312 22.0703C47.0729 22.6016 46.8438 23.2682 46.8438 24.0703V29H45.5391V20.3594H46.8438V21.8047H46.8828C47.5286 20.7057 48.474 20.1562 49.7188 20.1562C50.6667 20.1562 51.3906 20.4609 51.8906 21.0703C52.3906 21.6797 52.6406 22.5625 52.6406 23.7188V29ZM59.6797 24.6953H55.0781V23.6562H59.6797V24.6953ZM61.8594 27.1094C62.6875 27.7656 63.6198 28.0938 64.6562 28.0938C65.4896 28.0938 66.1667 27.8828 66.6875 27.4609C67.2135 27.0391 67.4766 26.4583 67.4766 25.7188C67.4766 24.1042 66.3385 23.2969 64.0625 23.2969H63.0625V22.1797H64.0156C66.0365 22.1797 67.0469 21.4245 67.0469 19.9141C67.0469 18.513 66.276 17.8125 64.7344 17.8125C63.8802 17.8125 63.0781 18.1068 62.3281 18.6953V17.3906C63.099 16.9271 64.0104 16.6953 65.0625 16.6953C66.0208 16.6953 66.8125 16.9583 67.4375 17.4844C68.0677 18.0104 68.3828 18.7083 68.3828 19.5781C68.3828 21.1615 67.5729 22.1875 65.9531 22.6562V22.6875C66.8125 22.7604 67.5026 23.0625 68.0234 23.5938C68.5495 24.125 68.8125 24.7865 68.8125 25.5781C68.8125 26.6823 68.4141 27.5625 67.6172 28.2188C66.8255 28.875 65.8125 29.2031 64.5781 29.2031C63.4427 29.2031 62.5365 28.987 61.8594 28.5547V27.1094ZM19.8281 44.3125L19.6406 45.1641H17.4062L16.8672 47.7266H19.2812L19.0625 48.5781H16.7031L15.9531 51.9531H14.9297L15.6641 48.5781H13.5469L12.8281 51.9531H11.8125L12.5312 48.5781H10.2812L10.4297 47.7266H12.7109L13.2266 45.1641H10.8516L11.0234 44.3125H13.3984L14.1172 40.8906H15.1328L14.4219 44.3125H16.5547L17.2891 40.8906H18.2812L17.5703 44.3125H19.8281ZM16.4062 45.1641H14.2578L13.6953 47.7266H15.8594L16.4062 45.1641ZM23.7031 46.625C22.2448 45.9375 21.5156 44.9531 21.5156 43.6719C21.5156 42.7865 21.8542 42.0703 22.5312 41.5234C23.2083 40.9714 24.0469 40.6953 25.0469 40.6953C25.9427 40.6953 26.7005 40.9531 27.3203 41.4688C27.9401 41.9792 28.25 42.651 28.25 43.4844C28.25 44.8281 27.5 45.875 26 46.625V46.6562C27.7656 47.3229 28.6484 48.4167 28.6484 49.9375C28.6484 50.9688 28.2812 51.7708 27.5469 52.3438C26.8125 52.9167 25.8307 53.2031 24.6016 53.2031C23.5964 53.2031 22.7552 52.9141 22.0781 52.3359C21.4062 51.7526 21.0703 50.9922 21.0703 50.0547C21.0703 48.5026 21.9479 47.3698 23.7031 46.6562V46.625ZM26.8984 43.6562C26.8984 43.0833 26.7161 42.6354 26.3516 42.3125C25.9922 41.9844 25.513 41.8203 24.9141 41.8203C24.362 41.8203 23.8828 41.9922 23.4766 42.3359C23.0703 42.6745 22.8672 43.1042 22.8672 43.625C22.8672 44.6979 23.5312 45.5078 24.8594 46.0547C26.2188 45.4818 26.8984 44.6823 26.8984 43.6562ZM24.7656 47.2891C23.1979 47.9141 22.4141 48.8151 22.4141 49.9922C22.4141 50.6432 22.6484 51.1562 23.1172 51.5312C23.5859 51.901 24.1823 52.0859 24.9062 52.0859C25.6042 52.0859 26.1797 51.901 26.6328 51.5312C27.0859 51.1562 27.3125 50.6615 27.3125 50.0469C27.3125 48.8177 26.4635 47.8984 24.7656 47.2891ZM37.9766 41.2812L33.1484 53H31.8047L36.3516 42.0859H30.2188V40.8984H37.9766V41.2812ZM46.7422 53H40.3828V40.8984H46.4688V42.1172H41.7109V46.2344H46.1094V47.4531H41.7109V51.7812H46.7422V53ZM48.5938 51.1094C49.4219 51.7656 50.3542 52.0938 51.3906 52.0938C52.224 52.0938 52.901 51.8828 53.4219 51.4609C53.9479 51.0391 54.2109 50.4583 54.2109 49.7188C54.2109 48.1042 53.0729 47.2969 50.7969 47.2969H49.7969V46.1797H50.75C52.7708 46.1797 53.7812 45.4245 53.7812 43.9141C53.7812 42.513 53.0104 41.8125 51.4688 41.8125C50.6146 41.8125 49.8125 42.1068 49.0625 42.6953V41.3906C49.8333 40.9271 50.7448 40.6953 51.7969 40.6953C52.7552 40.6953 53.5469 40.9583 54.1719 41.4844C54.8021 42.0104 55.1172 42.7083 55.1172 43.5781C55.1172 45.1615 54.3073 46.1875 52.6875 46.6562V46.6875C53.5469 46.7604 54.237 47.0625 54.7578 47.5938C55.2839 48.125 55.5469 48.7865 55.5469 49.5781C55.5469 50.6823 55.1484 51.5625 54.3516 52.2188C53.5599 52.875 52.5469 53.2031 51.3125 53.2031C50.1771 53.2031 49.2708 52.987 48.5938 52.5547V51.1094ZM58.3828 53V40.8984H61.7656C62.7708 40.8984 63.5807 41.151 64.1953 41.6562C64.8099 42.1615 65.1172 42.8307 65.1172 43.6641C65.1172 44.3411 64.9349 44.9349 64.5703 45.4453C64.2109 45.9557 63.7005 46.3229 63.0391 46.5469V46.5781C63.8464 46.6562 64.4948 46.9583 64.9844 47.4844C65.4792 48.0104 65.7266 48.6927 65.7266 49.5312C65.7266 50.5573 65.3568 51.3932 64.6172 52.0391C63.8828 52.6797 62.9531 53 61.8281 53H58.3828ZM59.7109 42.1328V46.1094H61.1797C61.9818 46.1094 62.6068 45.9193 63.0547 45.5391C63.5026 45.1536 63.7266 44.6172 63.7266 43.9297C63.7266 42.7318 62.9453 42.1328 61.3828 42.1328H59.7109ZM59.7109 47.3359V51.7656H61.6719C62.5052 51.7656 63.1562 51.5677 63.625 51.1719C64.099 50.7708 64.3359 50.2188 64.3359 49.5156C64.3359 48.0625 63.3411 47.3359 61.3516 47.3359H59.7109ZM74.2969 42.1172H69.5391V46.3828H73.9453V47.6016H69.5391V53H68.2109V40.8984H74.2969V42.1172Z" fill="black"/>
</svg>
