<svg width="95" height="68" viewBox="0 0 95 68" fill="none" xmlns="http://www.w3.org/2000/svg">
<rect width="95" height="68" rx="6" fill="#FFD77A"/>
<path d="M10.8281 24.7891C10.8281 23.3516 11.2188 22.2214 12 21.3984C12.7865 20.5703 13.8542 20.1562 15.2031 20.1562C16.474 20.1562 17.4688 20.5547 18.1875 21.3516C18.9115 22.1484 19.2734 23.25 19.2734 24.6562C19.2734 26.0208 18.8828 27.1198 18.1016 27.9531C17.3203 28.7865 16.2865 29.2031 15 29.2031C13.7552 29.2031 12.7474 28.8021 11.9766 28C11.2109 27.1979 10.8281 26.1276 10.8281 24.7891ZM12.1562 24.7344C12.1562 25.7552 12.4219 26.5703 12.9531 27.1797C13.4896 27.7891 14.2031 28.0938 15.0938 28.0938C16 28.0938 16.7005 27.7969 17.1953 27.2031C17.6953 26.6094 17.9453 25.776 17.9453 24.7031C17.9453 23.6042 17.6979 22.7578 17.2031 22.1641C16.7135 21.5651 16.0104 21.2656 15.0938 21.2656C14.1979 21.2656 13.4844 21.5755 12.9531 22.1953C12.4219 22.8099 12.1562 23.6562 12.1562 24.7344ZM25.9453 21.6953C25.7057 21.513 25.3594 21.4219 24.9062 21.4219C24.2969 21.4219 23.7943 21.7135 23.3984 22.2969C23.0078 22.875 22.8125 23.6354 22.8125 24.5781V29H21.5078V20.3594H22.8125V22.1484H22.8516C23.0495 21.5339 23.3516 21.0573 23.7578 20.7188C24.1641 20.3802 24.612 20.2109 25.1016 20.2109C25.4714 20.2109 25.7526 20.25 25.9453 20.3281V21.6953ZM27.6641 20.9766C28.513 20.4297 29.4844 20.1562 30.5781 20.1562C32.5833 20.1562 33.5859 21.2214 33.5859 23.3516V29H32.2812V27.6406H32.2344C31.6354 28.6823 30.75 29.2031 29.5781 29.2031C28.724 29.2031 28.0495 28.9766 27.5547 28.5234C27.0651 28.0651 26.8203 27.4609 26.8203 26.7109C26.8203 25.112 27.7682 24.1771 29.6641 23.9062L32.2734 23.5312C32.2734 22.0312 31.6745 21.2812 30.4766 21.2812C29.4297 21.2812 28.4922 21.638 27.6641 22.3516V20.9766ZM30.1562 24.8984C29.4167 24.9974 28.901 25.1771 28.6094 25.4375C28.3229 25.6927 28.1797 26.0885 28.1797 26.625C28.1797 27.0573 28.3333 27.4089 28.6406 27.6797C28.9531 27.9505 29.3594 28.0859 29.8594 28.0859C30.5521 28.0859 31.1276 27.8385 31.5859 27.3438C32.0443 26.849 32.2734 26.2318 32.2734 25.4922V24.6172L30.1562 24.8984ZM43.3281 29H42.0234V24.0625C42.0234 22.1979 41.3411 21.2656 39.9766 21.2656C39.263 21.2656 38.6771 21.5339 38.2188 22.0703C37.7604 22.6016 37.5312 23.2682 37.5312 24.0703V29H36.2266V20.3594H37.5312V21.8047H37.5703C38.2161 20.7057 39.1615 20.1562 40.4062 20.1562C41.3542 20.1562 42.0781 20.4609 42.5781 21.0703C43.0781 21.6797 43.3281 22.5625 43.3281 23.7188V29ZM53.2656 28.3203C53.2656 31.487 51.7656 33.0703 48.7656 33.0703C47.7031 33.0703 46.7682 32.8646 45.9609 32.4531V31.125C46.9349 31.6667 47.8672 31.9375 48.7578 31.9375C50.8984 31.9375 51.9688 30.7891 51.9688 28.4922V27.5312H51.9375C51.2604 28.6458 50.2656 29.2031 48.9531 29.2031C47.8698 29.2031 47.0026 28.8151 46.3516 28.0391C45.7005 27.263 45.375 26.237 45.375 24.9609C45.375 23.487 45.7318 22.3177 46.4453 21.4531C47.1589 20.5885 48.1198 20.1562 49.3281 20.1562C50.5 20.1562 51.3698 20.6276 51.9375 21.5703H51.9688V20.3594H53.2656V28.3203ZM51.9688 23.7969C51.9688 23.0938 51.7266 22.4974 51.2422 22.0078C50.7578 21.513 50.1745 21.2656 49.4922 21.2656C48.6276 21.2656 47.9453 21.5833 47.4453 22.2188C46.9505 22.8542 46.7031 23.737 46.7031 24.8672C46.7031 25.8464 46.9427 26.6302 47.4219 27.2188C47.901 27.8021 48.5234 28.0938 49.2891 28.0938C50.0651 28.0938 50.7057 27.8151 51.2109 27.2578C51.7161 26.6953 51.9688 25.9792 51.9688 25.1094V23.7969ZM62.9922 25H56.8672C56.8932 25.9948 57.1562 26.7578 57.6562 27.2891C58.1562 27.8203 58.8411 28.0859 59.7109 28.0859C60.6849 28.0859 61.5833 27.7604 62.4062 27.1094V28.3594C61.651 28.9219 60.651 29.2031 59.4062 29.2031C58.2031 29.2031 57.2526 28.8099 56.5547 28.0234C55.862 27.237 55.5156 26.1302 55.5156 24.7031C55.5156 23.3906 55.8906 22.3047 56.6406 21.4453C57.3958 20.5859 58.3385 20.1562 59.4688 20.1562C60.5781 20.1562 61.4427 20.5208 62.0625 21.25C62.6823 21.9792 62.9922 22.9948 62.9922 24.2969V25ZM61.6484 23.8516C61.6432 23.0391 61.4479 22.4089 61.0625 21.9609C60.6771 21.5078 60.138 21.2812 59.4453 21.2812C58.8151 21.2812 58.2604 21.5078 57.7812 21.9609C57.3073 22.4141 57.0078 23.0443 56.8828 23.8516H61.6484ZM69.5234 24.6953H64.9219V23.6562H69.5234V24.6953ZM71.7031 27.1094C72.5312 27.7656 73.4635 28.0938 74.5 28.0938C75.3333 28.0938 76.0104 27.8828 76.5312 27.4609C77.0573 27.0391 77.3203 26.4583 77.3203 25.7188C77.3203 24.1042 76.1823 23.2969 73.9062 23.2969H72.9062V22.1797H73.8594C75.8802 22.1797 76.8906 21.4245 76.8906 19.9141C76.8906 18.513 76.1198 17.8125 74.5781 17.8125C73.724 17.8125 72.9219 18.1068 72.1719 18.6953V17.3906C72.9427 16.9271 73.8542 16.6953 74.9062 16.6953C75.8646 16.6953 76.6562 16.9583 77.2812 17.4844C77.9115 18.0104 78.2266 18.7083 78.2266 19.5781C78.2266 21.1615 77.4167 22.1875 75.7969 22.6562V22.6875C76.6562 22.7604 77.3464 23.0625 77.8672 23.5938C78.3932 24.125 78.6562 24.7865 78.6562 25.5781C78.6562 26.6823 78.2578 27.5625 77.4609 28.2188C76.6693 28.875 75.6562 29.2031 74.4219 29.2031C73.2865 29.2031 72.3802 28.987 71.7031 28.5547V27.1094ZM19.8281 44.3125L19.6406 45.1641H17.4062L16.8672 47.7266H19.2812L19.0625 48.5781H16.7031L15.9531 51.9531H14.9297L15.6641 48.5781H13.5469L12.8281 51.9531H11.8125L12.5312 48.5781H10.2812L10.4297 47.7266H12.7109L13.2266 45.1641H10.8516L11.0234 44.3125H13.3984L14.1172 40.8906H15.1328L14.4219 44.3125H16.5547L17.2891 40.8906H18.2812L17.5703 44.3125H19.8281ZM16.4062 45.1641H14.2578L13.6953 47.7266H15.8594L16.4062 45.1641ZM27.9062 42.1172H23.1484V46.3828H27.5547V47.6016H23.1484V53H21.8203V40.8984H27.9062V42.1172ZM36.3125 42.1172H31.5547V46.3828H35.9609V47.6016H31.5547V53H30.2266V40.8984H36.3125V42.1172ZM38.6328 53V40.8984H41.9141C46.1693 40.8984 48.2969 42.8646 48.2969 46.7969C48.2969 48.6823 47.724 50.1875 46.5781 51.3125C45.4323 52.4375 43.8359 53 41.7891 53H38.6328ZM39.9609 42.1172V51.7812H41.8047C43.4141 51.7812 44.6667 51.349 45.5625 50.4844C46.4583 49.6198 46.9062 48.4036 46.9062 46.8359C46.9062 43.6901 45.2318 42.1172 41.8828 42.1172H39.9609ZM57.5859 41.2812L52.7578 53H51.4141L55.9609 42.0859H49.8281V40.8984H57.5859V41.2812ZM66.8672 41.2812L62.0391 53H60.6953L65.2422 42.0859H59.1094V40.8984H66.8672V41.2812ZM78.5547 53H77.0781L75.7656 49.5625H70.5781L69.3516 53H67.8672L72.5234 40.8984H73.875L78.5547 53ZM75.3125 48.3438L73.375 43.1172C73.3229 42.9714 73.263 42.7057 73.1953 42.3203H73.1562C73.099 42.6745 73.0339 42.9401 72.9609 43.1172L71.0469 48.3438H75.3125Z" fill="black"/>
</svg>
