<svg width="95" height="68" viewBox="0 0 95 68" fill="none" xmlns="http://www.w3.org/2000/svg">
<rect width="95" height="68" rx="6" fill="#00C08B"/>
<path d="M18.7188 28.3203C18.7188 31.487 17.2188 33.0703 14.2188 33.0703C13.1562 33.0703 12.2214 32.8646 11.4141 32.4531V31.125C12.388 31.6667 13.3203 31.9375 14.2109 31.9375C16.3516 31.9375 17.4219 30.7891 17.4219 28.4922V27.5312H17.3906C16.7135 28.6458 15.7188 29.2031 14.4062 29.2031C13.3229 29.2031 12.4557 28.8151 11.8047 28.0391C11.1536 27.263 10.8281 26.237 10.8281 24.9609C10.8281 23.487 11.1849 22.3177 11.8984 21.4531C12.612 20.5885 13.5729 20.1562 14.7812 20.1562C15.9531 20.1562 16.8229 20.6276 17.3906 21.5703H17.4219V20.3594H18.7188V28.3203ZM17.4219 23.7969C17.4219 23.0938 17.1797 22.4974 16.6953 22.0078C16.2109 21.513 15.6276 21.2656 14.9453 21.2656C14.0807 21.2656 13.3984 21.5833 12.8984 22.2188C12.4036 22.8542 12.1562 23.737 12.1562 24.8672C12.1562 25.8464 12.3958 26.6302 12.875 27.2188C13.3542 27.8021 13.9766 28.0938 14.7422 28.0938C15.5182 28.0938 16.1589 27.8151 16.6641 27.2578C17.1693 26.6953 17.4219 25.9792 17.4219 25.1094V23.7969ZM25.9922 21.6953C25.7526 21.513 25.4062 21.4219 24.9531 21.4219C24.3438 21.4219 23.8411 21.7135 23.4453 22.2969C23.0547 22.875 22.8594 23.6354 22.8594 24.5781V29H21.5547V20.3594H22.8594V22.1484H22.8984C23.0964 21.5339 23.3984 21.0573 23.8047 20.7188C24.2109 20.3802 24.6589 20.2109 25.1484 20.2109C25.5182 20.2109 25.7995 20.25 25.9922 20.3281V21.6953ZM34.3984 25H28.2734C28.2995 25.9948 28.5625 26.7578 29.0625 27.2891C29.5625 27.8203 30.2474 28.0859 31.1172 28.0859C32.0911 28.0859 32.9896 27.7604 33.8125 27.1094V28.3594C33.0573 28.9219 32.0573 29.2031 30.8125 29.2031C29.6094 29.2031 28.6589 28.8099 27.9609 28.0234C27.2682 27.237 26.9219 26.1302 26.9219 24.7031C26.9219 23.3906 27.2969 22.3047 28.0469 21.4453C28.8021 20.5859 29.7448 20.1562 30.875 20.1562C31.9844 20.1562 32.849 20.5208 33.4688 21.25C34.0885 21.9792 34.3984 22.9948 34.3984 24.2969V25ZM33.0547 23.8516C33.0495 23.0391 32.8542 22.4089 32.4688 21.9609C32.0833 21.5078 31.5443 21.2812 30.8516 21.2812C30.2214 21.2812 29.6667 21.5078 29.1875 21.9609C28.7135 22.4141 28.4141 23.0443 28.2891 23.8516H33.0547ZM43.4141 25H37.2891C37.3151 25.9948 37.5781 26.7578 38.0781 27.2891C38.5781 27.8203 39.263 28.0859 40.1328 28.0859C41.1068 28.0859 42.0052 27.7604 42.8281 27.1094V28.3594C42.0729 28.9219 41.0729 29.2031 39.8281 29.2031C38.625 29.2031 37.6745 28.8099 36.9766 28.0234C36.2839 27.237 35.9375 26.1302 35.9375 24.7031C35.9375 23.3906 36.3125 22.3047 37.0625 21.4453C37.8177 20.5859 38.7604 20.1562 39.8906 20.1562C41 20.1562 41.8646 20.5208 42.4844 21.25C43.1042 21.9792 43.4141 22.9948 43.4141 24.2969V25ZM42.0703 23.8516C42.0651 23.0391 41.8698 22.4089 41.4844 21.9609C41.099 21.5078 40.5599 21.2812 39.8672 21.2812C39.237 21.2812 38.6823 21.5078 38.2031 21.9609C37.7292 22.4141 37.4297 23.0443 37.3047 23.8516H42.0703ZM52.6406 29H51.3359V24.0625C51.3359 22.1979 50.6536 21.2656 49.2891 21.2656C48.5755 21.2656 47.9896 21.5339 47.5312 22.0703C47.0729 22.6016 46.8438 23.2682 46.8438 24.0703V29H45.5391V20.3594H46.8438V21.8047H46.8828C47.5286 20.7057 48.474 20.1562 49.7188 20.1562C50.6667 20.1562 51.3906 20.4609 51.8906 21.0703C52.3906 21.6797 52.6406 22.5625 52.6406 23.7188V29ZM59.6797 24.6953H55.0781V23.6562H59.6797V24.6953ZM68.6094 18.2891C67.974 17.9714 67.3151 17.8125 66.6328 17.8125C65.5234 17.8125 64.6484 18.2995 64.0078 19.2734C63.3672 20.2422 63.0495 21.5443 63.0547 23.1797H63.0938C63.651 22.0234 64.5755 21.4453 65.8672 21.4453C66.9245 21.4453 67.7682 21.7891 68.3984 22.4766C69.0286 23.1641 69.3438 24.0677 69.3438 25.1875C69.3438 26.3385 68.9896 27.2969 68.2812 28.0625C67.5729 28.8229 66.6693 29.2031 65.5703 29.2031C64.3099 29.2031 63.349 28.7109 62.6875 27.7266C62.0312 26.7422 61.7031 25.3958 61.7031 23.6875C61.7031 21.6406 62.1328 19.9635 62.9922 18.6562C63.8516 17.349 65.0573 16.6953 66.6094 16.6953C67.4531 16.6953 68.1198 16.8125 68.6094 17.0469V18.2891ZM63.1484 25.0391C63.1484 25.8932 63.375 26.6172 63.8281 27.2109C64.2865 27.7995 64.8828 28.0938 65.6172 28.0938C66.3307 28.0938 66.9062 27.8333 67.3438 27.3125C67.7812 26.7917 68 26.138 68 25.3516C68 24.4714 67.7865 23.7865 67.3594 23.2969C66.9323 22.8073 66.3464 22.5625 65.6016 22.5625C64.9193 22.5625 64.3385 22.8021 63.8594 23.2812C63.3854 23.7604 63.1484 24.3464 63.1484 25.0391ZM19.8281 44.3125L19.6406 45.1641H17.4062L16.8672 47.7266H19.2812L19.0625 48.5781H16.7031L15.9531 51.9531H14.9297L15.6641 48.5781H13.5469L12.8281 51.9531H11.8125L12.5312 48.5781H10.2812L10.4297 47.7266H12.7109L13.2266 45.1641H10.8516L11.0234 44.3125H13.3984L14.1172 40.8906H15.1328L14.4219 44.3125H16.5547L17.2891 40.8906H18.2812L17.5703 44.3125H19.8281ZM16.4062 45.1641H14.2578L13.6953 47.7266H15.8594L16.4062 45.1641ZM20.9531 47.1953C20.9531 45.0599 21.2995 43.4427 21.9922 42.3438C22.6901 41.2448 23.6953 40.6953 25.0078 40.6953C27.5234 40.6953 28.7812 42.763 28.7812 46.8984C28.7812 48.9089 28.4349 50.4635 27.7422 51.5625C27.0547 52.6562 26.0521 53.2031 24.7344 53.2031C23.5052 53.2031 22.5677 52.6771 21.9219 51.625C21.276 50.5729 20.9531 49.0964 20.9531 47.1953ZM22.2812 47.125C22.2812 50.4375 23.1458 52.0938 24.875 52.0938C26.5885 52.0938 27.4453 50.4141 27.4453 47.0547C27.4453 43.5599 26.6094 41.8125 24.9375 41.8125C23.1667 41.8125 22.2812 43.5833 22.2812 47.125ZM30.2344 47.1953C30.2344 45.0599 30.5807 43.4427 31.2734 42.3438C31.9714 41.2448 32.9766 40.6953 34.2891 40.6953C36.8047 40.6953 38.0625 42.763 38.0625 46.8984C38.0625 48.9089 37.7161 50.4635 37.0234 51.5625C36.3359 52.6562 35.3333 53.2031 34.0156 53.2031C32.7865 53.2031 31.849 52.6771 31.2031 51.625C30.5573 50.5729 30.2344 49.0964 30.2344 47.1953ZM31.5625 47.125C31.5625 50.4375 32.4271 52.0938 34.1562 52.0938C35.8698 52.0938 36.7266 50.4141 36.7266 47.0547C36.7266 43.5599 35.8906 41.8125 34.2188 41.8125C32.4479 41.8125 31.5625 43.5833 31.5625 47.125ZM48.5859 52.4844C47.6953 52.9635 46.5833 53.2031 45.25 53.2031C43.5521 53.2031 42.1823 52.6432 41.1406 51.5234C40.1042 50.4036 39.5859 48.9557 39.5859 47.1797C39.5859 45.3151 40.1562 43.7682 41.2969 42.5391C42.4375 41.3099 43.9193 40.6953 45.7422 40.6953C46.888 40.6953 47.8359 40.862 48.5859 41.1953V42.6328C47.7161 42.1536 46.7578 41.9141 45.7109 41.9141C44.2734 41.9141 43.125 42.3984 42.2656 43.3672C41.4115 44.3359 40.9844 45.5807 40.9844 47.1016C40.9844 48.5443 41.3854 49.7214 42.1875 50.6328C42.9896 51.5443 44.0651 52 45.4141 52C46.6328 52 47.6901 51.7292 48.5859 51.1875V52.4844ZM50.2031 47.1953C50.2031 45.0599 50.5495 43.4427 51.2422 42.3438C51.9401 41.2448 52.9453 40.6953 54.2578 40.6953C56.7734 40.6953 58.0312 42.763 58.0312 46.8984C58.0312 48.9089 57.6849 50.4635 56.9922 51.5625C56.3047 52.6562 55.3021 53.2031 53.9844 53.2031C52.7552 53.2031 51.8177 52.6771 51.1719 51.625C50.526 50.5729 50.2031 49.0964 50.2031 47.1953ZM51.5312 47.125C51.5312 50.4375 52.3958 52.0938 54.125 52.0938C55.8385 52.0938 56.6953 50.4141 56.6953 47.0547C56.6953 43.5599 55.8594 41.8125 54.1875 41.8125C52.4167 41.8125 51.5312 43.5833 51.5312 47.125ZM62.2344 46.625C60.776 45.9375 60.0469 44.9531 60.0469 43.6719C60.0469 42.7865 60.3854 42.0703 61.0625 41.5234C61.7396 40.9714 62.5781 40.6953 63.5781 40.6953C64.474 40.6953 65.2318 40.9531 65.8516 41.4688C66.4714 41.9792 66.7812 42.651 66.7812 43.4844C66.7812 44.8281 66.0312 45.875 64.5312 46.625V46.6562C66.2969 47.3229 67.1797 48.4167 67.1797 49.9375C67.1797 50.9688 66.8125 51.7708 66.0781 52.3438C65.3438 52.9167 64.362 53.2031 63.1328 53.2031C62.1276 53.2031 61.2865 52.9141 60.6094 52.3359C59.9375 51.7526 59.6016 50.9922 59.6016 50.0547C59.6016 48.5026 60.4792 47.3698 62.2344 46.6562V46.625ZM65.4297 43.6562C65.4297 43.0833 65.2474 42.6354 64.8828 42.3125C64.5234 41.9844 64.0443 41.8203 63.4453 41.8203C62.8932 41.8203 62.4141 41.9922 62.0078 42.3359C61.6016 42.6745 61.3984 43.1042 61.3984 43.625C61.3984 44.6979 62.0625 45.5078 63.3906 46.0547C64.75 45.4818 65.4297 44.6823 65.4297 43.6562ZM63.2969 47.2891C61.7292 47.9141 60.9453 48.8151 60.9453 49.9922C60.9453 50.6432 61.1797 51.1562 61.6484 51.5312C62.1172 51.901 62.7135 52.0859 63.4375 52.0859C64.1354 52.0859 64.7109 51.901 65.1641 51.5312C65.6172 51.1562 65.8438 50.6615 65.8438 50.0469C65.8438 48.8177 64.9948 47.8984 63.2969 47.2891ZM69.6328 53V40.8984H73.0156C74.0208 40.8984 74.8307 41.151 75.4453 41.6562C76.0599 42.1615 76.3672 42.8307 76.3672 43.6641C76.3672 44.3411 76.1849 44.9349 75.8203 45.4453C75.4609 45.9557 74.9505 46.3229 74.2891 46.5469V46.5781C75.0964 46.6562 75.7448 46.9583 76.2344 47.4844C76.7292 48.0104 76.9766 48.6927 76.9766 49.5312C76.9766 50.5573 76.6068 51.3932 75.8672 52.0391C75.1328 52.6797 74.2031 53 73.0781 53H69.6328ZM70.9609 42.1328V46.1094H72.4297C73.2318 46.1094 73.8568 45.9193 74.3047 45.5391C74.7526 45.1536 74.9766 44.6172 74.9766 43.9297C74.9766 42.7318 74.1953 42.1328 72.6328 42.1328H70.9609ZM70.9609 47.3359V51.7656H72.9219C73.7552 51.7656 74.4062 51.5677 74.875 51.1719C75.349 50.7708 75.5859 50.2188 75.5859 49.5156C75.5859 48.0625 74.5911 47.3359 72.6016 47.3359H70.9609Z" fill="white"/>
</svg>
