<svg width="95" height="68" viewBox="0 0 95 68" fill="none" xmlns="http://www.w3.org/2000/svg">
<rect width="95" height="68" rx="6" fill="#D9D9D9"/>
<path d="M18.7188 28.3203C18.7188 31.487 17.2188 33.0703 14.2188 33.0703C13.1562 33.0703 12.2214 32.8646 11.4141 32.4531V31.125C12.388 31.6667 13.3203 31.9375 14.2109 31.9375C16.3516 31.9375 17.4219 30.7891 17.4219 28.4922V27.5312H17.3906C16.7135 28.6458 15.7188 29.2031 14.4062 29.2031C13.3229 29.2031 12.4557 28.8151 11.8047 28.0391C11.1536 27.263 10.8281 26.237 10.8281 24.9609C10.8281 23.487 11.1849 22.3177 11.8984 21.4531C12.612 20.5885 13.5729 20.1562 14.7812 20.1562C15.9531 20.1562 16.8229 20.6276 17.3906 21.5703H17.4219V20.3594H18.7188V28.3203ZM17.4219 23.7969C17.4219 23.0938 17.1797 22.4974 16.6953 22.0078C16.2109 21.513 15.6276 21.2656 14.9453 21.2656C14.0807 21.2656 13.3984 21.5833 12.8984 22.2188C12.4036 22.8542 12.1562 23.737 12.1562 24.8672C12.1562 25.8464 12.3958 26.6302 12.875 27.2188C13.3542 27.8021 13.9766 28.0938 14.7422 28.0938C15.5182 28.0938 16.1589 27.8151 16.6641 27.2578C17.1693 26.6953 17.4219 25.9792 17.4219 25.1094V23.7969ZM25.9922 21.6953C25.7526 21.513 25.4062 21.4219 24.9531 21.4219C24.3438 21.4219 23.8411 21.7135 23.4453 22.2969C23.0547 22.875 22.8594 23.6354 22.8594 24.5781V29H21.5547V20.3594H22.8594V22.1484H22.8984C23.0964 21.5339 23.3984 21.0573 23.8047 20.7188C24.2109 20.3802 24.6589 20.2109 25.1484 20.2109C25.5182 20.2109 25.7995 20.25 25.9922 20.3281V21.6953ZM27.7109 20.9766C28.5599 20.4297 29.5312 20.1562 30.625 20.1562C32.6302 20.1562 33.6328 21.2214 33.6328 23.3516V29H32.3281V27.6406H32.2812C31.6823 28.6823 30.7969 29.2031 29.625 29.2031C28.7708 29.2031 28.0964 28.9766 27.6016 28.5234C27.112 28.0651 26.8672 27.4609 26.8672 26.7109C26.8672 25.112 27.8151 24.1771 29.7109 23.9062L32.3203 23.5312C32.3203 22.0312 31.7214 21.2812 30.5234 21.2812C29.4766 21.2812 28.5391 21.638 27.7109 22.3516V20.9766ZM30.2031 24.8984C29.4635 24.9974 28.9479 25.1771 28.6562 25.4375C28.3698 25.6927 28.2266 26.0885 28.2266 26.625C28.2266 27.0573 28.3802 27.4089 28.6875 27.6797C29 27.9505 29.4062 28.0859 29.9062 28.0859C30.599 28.0859 31.1745 27.8385 31.6328 27.3438C32.0911 26.849 32.3203 26.2318 32.3203 25.4922V24.6172L30.2031 24.8984ZM43.0625 20.3594L39.0625 30.4297C38.3646 32.1901 37.3854 33.0703 36.125 33.0703C35.8073 33.0703 35.5234 33.0365 35.2734 32.9688V31.7812C35.5651 31.875 35.8307 31.9219 36.0703 31.9219C36.7734 31.9219 37.2995 31.5 37.6484 30.6562L38.3516 28.9844L34.9844 20.3594H36.4297L38.8125 27.1016C38.8438 27.1953 38.9036 27.401 38.9922 27.7188H39.0391C39.0599 27.6094 39.1146 27.4089 39.2031 27.1172L41.7109 20.3594H43.0625ZM48.9766 24.6953H44.375V23.6562H48.9766V24.6953ZM51.4453 27.2891C52.2682 27.8255 53.1068 28.0938 53.9609 28.0938C54.8151 28.0938 55.5104 27.849 56.0469 27.3594C56.5833 26.8646 56.8516 26.2109 56.8516 25.3984C56.8516 24.5807 56.5833 23.9479 56.0469 23.5C55.5104 23.0521 54.737 22.8281 53.7266 22.8281C53.4089 22.8281 52.776 22.8594 51.8281 22.9219V16.8984H57.625V18.0859H53.0703V21.7109C53.5234 21.6849 53.8672 21.6719 54.1016 21.6719C55.3724 21.6719 56.3672 21.9922 57.0859 22.6328C57.8099 23.2682 58.1719 24.1641 58.1719 25.3203C58.1719 26.5234 57.7812 27.4714 57 28.1641C56.2188 28.8568 55.1927 29.2031 53.9219 29.2031C52.8073 29.2031 51.9818 29.0365 51.4453 28.7031V27.2891ZM19.8281 44.3125L19.6406 45.1641H17.4062L16.8672 47.7266H19.2812L19.0625 48.5781H16.7031L15.9531 51.9531H14.9297L15.6641 48.5781H13.5469L12.8281 51.9531H11.8125L12.5312 48.5781H10.2812L10.4297 47.7266H12.7109L13.2266 45.1641H10.8516L11.0234 44.3125H13.3984L14.1172 40.8906H15.1328L14.4219 44.3125H16.5547L17.2891 40.8906H18.2812L17.5703 44.3125H19.8281ZM16.4062 45.1641H14.2578L13.6953 47.7266H15.8594L16.4062 45.1641ZM21.8203 53V40.8984H25.1016C29.3568 40.8984 31.4844 42.8646 31.4844 46.7969C31.4844 48.6823 30.9115 50.1875 29.7656 51.3125C28.6198 52.4375 27.0234 53 24.9766 53H21.8203ZM23.1484 42.1172V51.7812H24.9922C26.6016 51.7812 27.8542 51.349 28.75 50.4844C29.6458 49.6198 30.0938 48.4036 30.0938 46.8359C30.0938 43.6901 28.4193 42.1172 25.0703 42.1172H23.1484ZM33.7578 51.5234C34.4401 51.9036 35.151 52.0938 35.8906 52.0938C36.9896 52.0938 37.849 51.6458 38.4688 50.75C39.0885 49.849 39.3984 48.5703 39.3984 46.9141C39.388 46.9245 39.3776 46.9245 39.3672 46.9141C38.8464 47.9661 37.9401 48.4922 36.6484 48.4922C35.6068 48.4922 34.7552 48.1354 34.0938 47.4219C33.4323 46.7083 33.1016 45.8099 33.1016 44.7266C33.1016 43.5755 33.4531 42.6172 34.1562 41.8516C34.8646 41.0807 35.7995 40.6953 36.9609 40.6953C38.1745 40.6953 39.1042 41.1719 39.75 42.125C40.3958 43.0729 40.7188 44.4375 40.7188 46.2188C40.7188 48.4167 40.2943 50.1302 39.4453 51.3594C38.6016 52.5885 37.3984 53.2031 35.8359 53.2031C35.0286 53.2031 34.3359 53.0677 33.7578 52.7969V51.5234ZM34.4375 44.5312C34.4375 45.375 34.6589 46.0521 35.1016 46.5625C35.5443 47.0677 36.1536 47.3203 36.9297 47.3203C37.6172 47.3203 38.1849 47.0938 38.6328 46.6406C39.0859 46.1823 39.3125 45.6302 39.3125 44.9844C39.3125 44.0833 39.0859 43.3307 38.6328 42.7266C38.1849 42.1172 37.5859 41.8125 36.8359 41.8125C36.1328 41.8125 35.5573 42.0781 35.1094 42.6094C34.6615 43.1354 34.4375 43.776 34.4375 44.5312ZM43.1797 53V40.8984H46.4609C50.7161 40.8984 52.8438 42.8646 52.8438 46.7969C52.8438 48.6823 52.2708 50.1875 51.125 51.3125C49.9792 52.4375 48.3828 53 46.3359 53H43.1797ZM44.5078 42.1172V51.7812H46.3516C47.9609 51.7812 49.2135 51.349 50.1094 50.4844C51.0052 49.6198 51.4531 48.4036 51.4531 46.8359C51.4531 43.6901 49.7786 42.1172 46.4297 42.1172H44.5078ZM55.1172 51.5234C55.7995 51.9036 56.5104 52.0938 57.25 52.0938C58.349 52.0938 59.2083 51.6458 59.8281 50.75C60.4479 49.849 60.7578 48.5703 60.7578 46.9141C60.7474 46.9245 60.737 46.9245 60.7266 46.9141C60.2057 47.9661 59.2995 48.4922 58.0078 48.4922C56.9661 48.4922 56.1146 48.1354 55.4531 47.4219C54.7917 46.7083 54.4609 45.8099 54.4609 44.7266C54.4609 43.5755 54.8125 42.6172 55.5156 41.8516C56.224 41.0807 57.1589 40.6953 58.3203 40.6953C59.5339 40.6953 60.4635 41.1719 61.1094 42.125C61.7552 43.0729 62.0781 44.4375 62.0781 46.2188C62.0781 48.4167 61.6536 50.1302 60.8047 51.3594C59.9609 52.5885 58.7578 53.2031 57.1953 53.2031C56.388 53.2031 55.6953 53.0677 55.1172 52.7969V51.5234ZM55.7969 44.5312C55.7969 45.375 56.0182 46.0521 56.4609 46.5625C56.9036 47.0677 57.513 47.3203 58.2891 47.3203C58.9766 47.3203 59.5443 47.0938 59.9922 46.6406C60.4453 46.1823 60.6719 45.6302 60.6719 44.9844C60.6719 44.0833 60.4453 43.3307 59.9922 42.7266C59.5443 42.1172 58.9453 41.8125 58.1953 41.8125C57.4922 41.8125 56.9167 42.0781 56.4688 42.6094C56.0208 43.1354 55.7969 43.776 55.7969 44.5312ZM64.5391 53V40.8984H67.8203C72.0755 40.8984 74.2031 42.8646 74.2031 46.7969C74.2031 48.6823 73.6302 50.1875 72.4844 51.3125C71.3385 52.4375 69.7422 53 67.6953 53H64.5391ZM65.8672 42.1172V51.7812H67.7109C69.3203 51.7812 70.5729 51.349 71.4688 50.4844C72.3646 49.6198 72.8125 48.4036 72.8125 46.8359C72.8125 43.6901 71.138 42.1172 67.7891 42.1172H65.8672ZM76.4766 51.5234C77.1589 51.9036 77.8698 52.0938 78.6094 52.0938C79.7083 52.0938 80.5677 51.6458 81.1875 50.75C81.8073 49.849 82.1172 48.5703 82.1172 46.9141C82.1068 46.9245 82.0964 46.9245 82.0859 46.9141C81.5651 47.9661 80.6589 48.4922 79.3672 48.4922C78.3255 48.4922 77.474 48.1354 76.8125 47.4219C76.151 46.7083 75.8203 45.8099 75.8203 44.7266C75.8203 43.5755 76.1719 42.6172 76.875 41.8516C77.5833 41.0807 78.5182 40.6953 79.6797 40.6953C80.8932 40.6953 81.8229 41.1719 82.4688 42.125C83.1146 43.0729 83.4375 44.4375 83.4375 46.2188C83.4375 48.4167 83.013 50.1302 82.1641 51.3594C81.3203 52.5885 80.1172 53.2031 78.5547 53.2031C77.7474 53.2031 77.0547 53.0677 76.4766 52.7969V51.5234ZM77.1562 44.5312C77.1562 45.375 77.3776 46.0521 77.8203 46.5625C78.263 47.0677 78.8724 47.3203 79.6484 47.3203C80.3359 47.3203 80.9036 47.0938 81.3516 46.6406C81.8047 46.1823 82.0312 45.6302 82.0312 44.9844C82.0312 44.0833 81.8047 43.3307 81.3516 42.7266C80.9036 42.1172 80.3047 41.8125 79.5547 41.8125C78.8516 41.8125 78.276 42.0781 77.8281 42.6094C77.3802 43.1354 77.1562 43.776 77.1562 44.5312Z" fill="black"/>
</svg>
