<svg width="95" height="68" viewBox="0 0 95 68" fill="none" xmlns="http://www.w3.org/2000/svg">
<rect width="95" height="68" rx="6" fill="#BDE3E2"/>
<path d="M12.7188 27.7344V32.9766H11.4141V20.3594H12.7188V21.8906H12.7578C13.4401 20.7344 14.4375 20.1562 15.75 20.1562C16.849 20.1562 17.7161 20.5417 18.3516 21.3125C18.987 22.0781 19.3047 23.1172 19.3047 24.4297C19.3047 25.8672 18.9479 27.0234 18.2344 27.8984C17.526 28.7682 16.5651 29.2031 15.3516 29.2031C14.2266 29.2031 13.362 28.7135 12.7578 27.7344H12.7188ZM12.7188 25.5C12.7188 26.224 12.9609 26.8385 13.4453 27.3438C13.9297 27.8438 14.526 28.0938 15.2344 28.0938C16.0833 28.0938 16.75 27.7656 17.2344 27.1094C17.724 26.4531 17.9688 25.5469 17.9688 24.3906C17.9688 23.4167 17.7396 22.6536 17.2812 22.1016C16.8229 21.5443 16.2135 21.2656 15.4531 21.2656C14.6615 21.2656 14.0078 21.5469 13.4922 22.1094C12.9766 22.6667 12.7188 23.3802 12.7188 24.25V25.5ZM25.9766 21.6953C25.737 21.513 25.3906 21.4219 24.9375 21.4219C24.3281 21.4219 23.8255 21.7135 23.4297 22.2969C23.0391 22.875 22.8438 23.6354 22.8438 24.5781V29H21.5391V20.3594H22.8438V22.1484H22.8828C23.0807 21.5339 23.3828 21.0573 23.7891 20.7188C24.1953 20.3802 24.6432 20.2109 25.1328 20.2109C25.5026 20.2109 25.7839 20.25 25.9766 20.3281V21.6953ZM27.3203 17.25C27.3203 17.0052 27.401 16.7995 27.5625 16.6328C27.7292 16.4609 27.9297 16.375 28.1641 16.375C28.4089 16.375 28.6146 16.4609 28.7812 16.6328C28.9531 16.8047 29.0391 17.0104 29.0391 17.25C29.0391 17.4792 28.9531 17.6797 28.7812 17.8516C28.6146 18.0234 28.4089 18.1094 28.1641 18.1094C27.9193 18.1094 27.7161 18.026 27.5547 17.8594C27.3984 17.6927 27.3203 17.4896 27.3203 17.25ZM27.5 29V20.3594H28.7969V29H27.5ZM43.8281 29H42.5234V24.0391C42.5234 23.0339 42.3698 22.3203 42.0625 21.8984C41.7604 21.4766 41.2578 21.2656 40.5547 21.2656C39.9661 21.2656 39.4583 21.5417 39.0312 22.0938C38.6042 22.6458 38.3906 23.3021 38.3906 24.0625V29H37.0938V23.8594C37.0938 22.1302 36.4245 21.2656 35.0859 21.2656C34.4714 21.2656 33.9609 21.5286 33.5547 22.0547C33.1536 22.5807 32.9531 23.25 32.9531 24.0625V29H31.6484V20.3594H32.9531V21.7266H32.9922C33.5964 20.6797 34.487 20.1562 35.6641 20.1562C36.2266 20.1562 36.7318 20.3229 37.1797 20.6562C37.6328 20.9844 37.9401 21.4193 38.1016 21.9609C38.7422 20.7578 39.7005 20.1562 40.9766 20.1562C42.8776 20.1562 43.8281 21.3307 43.8281 23.6797V29ZM46.6797 20.9766C47.5286 20.4297 48.5 20.1562 49.5938 20.1562C51.599 20.1562 52.6016 21.2214 52.6016 23.3516V29H51.2969V27.6406H51.25C50.651 28.6823 49.7656 29.2031 48.5938 29.2031C47.7396 29.2031 47.0651 28.9766 46.5703 28.5234C46.0807 28.0651 45.8359 27.4609 45.8359 26.7109C45.8359 25.112 46.7839 24.1771 48.6797 23.9062L51.2891 23.5312C51.2891 22.0312 50.6901 21.2812 49.4922 21.2812C48.4453 21.2812 47.5078 21.638 46.6797 22.3516V20.9766ZM49.1719 24.8984C48.4323 24.9974 47.9167 25.1771 47.625 25.4375C47.3385 25.6927 47.1953 26.0885 47.1953 26.625C47.1953 27.0573 47.349 27.4089 47.6562 27.6797C47.9688 27.9505 48.375 28.0859 48.875 28.0859C49.5677 28.0859 50.1432 27.8385 50.6016 27.3438C51.0599 26.849 51.2891 26.2318 51.2891 25.4922V24.6172L49.1719 24.8984ZM59.6797 21.6953C59.4401 21.513 59.0938 21.4219 58.6406 21.4219C58.0312 21.4219 57.5286 21.7135 57.1328 22.2969C56.7422 22.875 56.5469 23.6354 56.5469 24.5781V29H55.2422V20.3594H56.5469V22.1484H56.5859C56.7839 21.5339 57.0859 21.0573 57.4922 20.7188C57.8984 20.3802 58.3464 20.2109 58.8359 20.2109C59.2057 20.2109 59.487 20.25 59.6797 20.3281V21.6953ZM67.9844 20.3594L63.9844 30.4297C63.2865 32.1901 62.3073 33.0703 61.0469 33.0703C60.7292 33.0703 60.4453 33.0365 60.1953 32.9688V31.7812C60.487 31.875 60.7526 31.9219 60.9922 31.9219C61.6953 31.9219 62.2214 31.5 62.5703 30.6562L63.2734 28.9844L59.9062 20.3594H61.3516L63.7344 27.1016C63.7656 27.1953 63.8255 27.401 63.9141 27.7188H63.9609C63.9818 27.6094 64.0365 27.4089 64.125 27.1172L66.6328 20.3594H67.9844ZM73.8984 24.6953H69.2969V23.6562H73.8984V24.6953ZM76.0781 27.1094C76.9062 27.7656 77.8385 28.0938 78.875 28.0938C79.7083 28.0938 80.3854 27.8828 80.9062 27.4609C81.4323 27.0391 81.6953 26.4583 81.6953 25.7188C81.6953 24.1042 80.5573 23.2969 78.2812 23.2969H77.2812V22.1797H78.2344C80.2552 22.1797 81.2656 21.4245 81.2656 19.9141C81.2656 18.513 80.4948 17.8125 78.9531 17.8125C78.099 17.8125 77.2969 18.1068 76.5469 18.6953V17.3906C77.3177 16.9271 78.2292 16.6953 79.2812 16.6953C80.2396 16.6953 81.0312 16.9583 81.6562 17.4844C82.2865 18.0104 82.6016 18.7083 82.6016 19.5781C82.6016 21.1615 81.7917 22.1875 80.1719 22.6562V22.6875C81.0312 22.7604 81.7214 23.0625 82.2422 23.5938C82.7682 24.125 83.0312 24.7865 83.0312 25.5781C83.0312 26.6823 82.6328 27.5625 81.8359 28.2188C81.0443 28.875 80.0312 29.2031 78.7969 29.2031C77.6615 29.2031 76.7552 28.987 76.0781 28.5547V27.1094ZM19.8281 44.3125L19.6406 45.1641H17.4062L16.8672 47.7266H19.2812L19.0625 48.5781H16.7031L15.9531 51.9531H14.9297L15.6641 48.5781H13.5469L12.8281 51.9531H11.8125L12.5312 48.5781H10.2812L10.4297 47.7266H12.7109L13.2266 45.1641H10.8516L11.0234 44.3125H13.3984L14.1172 40.8906H15.1328L14.4219 44.3125H16.5547L17.2891 40.8906H18.2812L17.5703 44.3125H19.8281ZM16.4062 45.1641H14.2578L13.6953 47.7266H15.8594L16.4062 45.1641ZM21.8203 53V40.8984H25.2031C26.2083 40.8984 27.0182 41.151 27.6328 41.6562C28.2474 42.1615 28.5547 42.8307 28.5547 43.6641C28.5547 44.3411 28.3724 44.9349 28.0078 45.4453C27.6484 45.9557 27.138 46.3229 26.4766 46.5469V46.5781C27.2839 46.6562 27.9323 46.9583 28.4219 47.4844C28.9167 48.0104 29.1641 48.6927 29.1641 49.5312C29.1641 50.5573 28.7943 51.3932 28.0547 52.0391C27.3203 52.6797 26.3906 53 25.2656 53H21.8203ZM23.1484 42.1328V46.1094H24.6172C25.4193 46.1094 26.0443 45.9193 26.4922 45.5391C26.9401 45.1536 27.1641 44.6172 27.1641 43.9297C27.1641 42.7318 26.3828 42.1328 24.8203 42.1328H23.1484ZM23.1484 47.3359V51.7656H25.1094C25.9427 51.7656 26.5938 51.5677 27.0625 51.1719C27.5365 50.7708 27.7734 50.2188 27.7734 49.5156C27.7734 48.0625 26.7786 47.3359 24.7891 47.3359H23.1484ZM31.6484 53V40.8984H34.9297C39.1849 40.8984 41.3125 42.8646 41.3125 46.7969C41.3125 48.6823 40.7396 50.1875 39.5938 51.3125C38.4479 52.4375 36.8516 53 34.8047 53H31.6484ZM32.9766 42.1172V51.7812H34.8203C36.4297 51.7812 37.6823 51.349 38.5781 50.4844C39.474 49.6198 39.9219 48.4036 39.9219 46.8359C39.9219 43.6901 38.2474 42.1172 34.8984 42.1172H32.9766ZM50.0859 53H43.7266V40.8984H49.8125V42.1172H45.0547V46.2344H49.4531V47.4531H45.0547V51.7812H50.0859V53ZM51.9375 51.1094C52.7656 51.7656 53.6979 52.0938 54.7344 52.0938C55.5677 52.0938 56.2448 51.8828 56.7656 51.4609C57.2917 51.0391 57.5547 50.4583 57.5547 49.7188C57.5547 48.1042 56.4167 47.2969 54.1406 47.2969H53.1406V46.1797H54.0938C56.1146 46.1797 57.125 45.4245 57.125 43.9141C57.125 42.513 56.3542 41.8125 54.8125 41.8125C53.9583 41.8125 53.1562 42.1068 52.4062 42.6953V41.3906C53.1771 40.9271 54.0885 40.6953 55.1406 40.6953C56.099 40.6953 56.8906 40.9583 57.5156 41.4844C58.1458 42.0104 58.4609 42.7083 58.4609 43.5781C58.4609 45.1615 57.651 46.1875 56.0312 46.6562V46.6875C56.8906 46.7604 57.5807 47.0625 58.1016 47.5938C58.6276 48.125 58.8906 48.7865 58.8906 49.5781C58.8906 50.6823 58.4922 51.5625 57.6953 52.2188C56.9036 52.875 55.8906 53.2031 54.6562 53.2031C53.5208 53.2031 52.6146 52.987 51.9375 52.5547V51.1094ZM68.0859 53H61.7266V40.8984H67.8125V42.1172H63.0547V46.2344H67.4531V47.4531H63.0547V51.7812H68.0859V53ZM76.8906 53H69.6484V51.8203L73.1719 48.2734C74.3385 47.0964 75.0547 46.2448 75.3203 45.7188C75.5911 45.1875 75.7266 44.625 75.7266 44.0312C75.7266 43.3177 75.5234 42.7682 75.1172 42.3828C74.7161 41.9974 74.138 41.8047 73.3828 41.8047C72.3047 41.8047 71.2682 42.2708 70.2734 43.2031V41.8125C71.2057 41.0677 72.2995 40.6953 73.5547 40.6953C74.5964 40.6953 75.4297 40.9844 76.0547 41.5625C76.6849 42.1406 77 42.9245 77 43.9141C77 44.6745 76.7917 45.4245 76.375 46.1641C75.9635 46.8984 75.1823 47.8411 74.0312 48.9922L71.2109 51.7812V51.8125H76.8906V53Z" fill="black"/>
</svg>
