<svg width="95" height="68" viewBox="0 0 95 68" fill="none" xmlns="http://www.w3.org/2000/svg">
<rect width="95" height="68" rx="6" fill="#0083C9"/>
<path d="M12.7188 27.7344V29H11.4141V16.2109H12.7188V21.8906H12.7578C13.4401 20.7344 14.4375 20.1562 15.75 20.1562C16.849 20.1562 17.7161 20.5443 18.3516 21.3203C18.987 22.0964 19.3047 23.1328 19.3047 24.4297C19.3047 25.8672 18.9479 27.0234 18.2344 27.8984C17.526 28.7682 16.5651 29.2031 15.3516 29.2031C14.2109 29.2031 13.3464 28.7135 12.7578 27.7344H12.7188ZM12.7188 25.4922C12.7188 26.2266 12.9609 26.8438 13.4453 27.3438C13.9349 27.8438 14.5312 28.0938 15.2344 28.0938C16.0833 28.0938 16.75 27.7656 17.2344 27.1094C17.724 26.4531 17.9688 25.5469 17.9688 24.3906C17.9688 23.4271 17.7422 22.6667 17.2891 22.1094C16.8359 21.5469 16.224 21.2656 15.4531 21.2656C14.6562 21.2656 14 21.5495 13.4844 22.1172C12.974 22.6797 12.7188 23.3932 12.7188 24.2578V25.4922ZM21.5469 29V16.2109H22.8438V29H21.5469ZM32.6094 29H31.3047V27.6328H31.2734C30.7057 28.6797 29.8177 29.2031 28.6094 29.2031C26.5469 29.2031 25.5156 27.9766 25.5156 25.5234V20.3594H26.8047V25.3047C26.8047 27.1641 27.513 28.0938 28.9297 28.0938C29.6276 28.0938 30.1979 27.8359 30.6406 27.3203C31.0833 26.8047 31.3047 26.1432 31.3047 25.3359V20.3594H32.6094V29ZM42.3203 25H36.1953C36.2214 25.9948 36.4844 26.7578 36.9844 27.2891C37.4844 27.8203 38.1693 28.0859 39.0391 28.0859C40.013 28.0859 40.9115 27.7604 41.7344 27.1094V28.3594C40.9792 28.9219 39.9792 29.2031 38.7344 29.2031C37.5312 29.2031 36.5807 28.8099 35.8828 28.0234C35.1901 27.237 34.8438 26.1302 34.8438 24.7031C34.8438 23.3906 35.2188 22.3047 35.9688 21.4453C36.724 20.5859 37.6667 20.1562 38.7969 20.1562C39.9062 20.1562 40.7708 20.5208 41.3906 21.25C42.0104 21.9792 42.3203 22.9948 42.3203 24.2969V25ZM40.9766 23.8516C40.9714 23.0391 40.776 22.4089 40.3906 21.9609C40.0052 21.5078 39.4661 21.2812 38.7734 21.2812C38.1432 21.2812 37.5885 21.5078 37.1094 21.9609C36.6354 22.4141 36.3359 23.0443 36.2109 23.8516H40.9766ZM48.8516 24.6953H44.25V23.6562H48.8516V24.6953ZM58.4141 17.2812L53.5859 29H52.2422L56.7891 18.0859H50.6562V16.8984H58.4141V17.2812ZM19.8281 44.3125L19.6406 45.1641H17.4062L16.8672 47.7266H19.2812L19.0625 48.5781H16.7031L15.9531 51.9531H14.9297L15.6641 48.5781H13.5469L12.8281 51.9531H11.8125L12.5312 48.5781H10.2812L10.4297 47.7266H12.7109L13.2266 45.1641H10.8516L11.0234 44.3125H13.3984L14.1172 40.8906H15.1328L14.4219 44.3125H16.5547L17.2891 40.8906H18.2812L17.5703 44.3125H19.8281ZM16.4062 45.1641H14.2578L13.6953 47.7266H15.8594L16.4062 45.1641ZM20.9531 47.1953C20.9531 45.0599 21.2995 43.4427 21.9922 42.3438C22.6901 41.2448 23.6953 40.6953 25.0078 40.6953C27.5234 40.6953 28.7812 42.763 28.7812 46.8984C28.7812 48.9089 28.4349 50.4635 27.7422 51.5625C27.0547 52.6562 26.0521 53.2031 24.7344 53.2031C23.5052 53.2031 22.5677 52.6771 21.9219 51.625C21.276 50.5729 20.9531 49.0964 20.9531 47.1953ZM22.2812 47.125C22.2812 50.4375 23.1458 52.0938 24.875 52.0938C26.5885 52.0938 27.4453 50.4141 27.4453 47.0547C27.4453 43.5599 26.6094 41.8125 24.9375 41.8125C23.1667 41.8125 22.2812 43.5833 22.2812 47.125ZM30.2344 47.1953C30.2344 45.0599 30.5807 43.4427 31.2734 42.3438C31.9714 41.2448 32.9766 40.6953 34.2891 40.6953C36.8047 40.6953 38.0625 42.763 38.0625 46.8984C38.0625 48.9089 37.7161 50.4635 37.0234 51.5625C36.3359 52.6562 35.3333 53.2031 34.0156 53.2031C32.7865 53.2031 31.849 52.6771 31.2031 51.625C30.5573 50.5729 30.2344 49.0964 30.2344 47.1953ZM31.5625 47.125C31.5625 50.4375 32.4271 52.0938 34.1562 52.0938C35.8698 52.0938 36.7266 50.4141 36.7266 47.0547C36.7266 43.5599 35.8906 41.8125 34.2188 41.8125C32.4479 41.8125 31.5625 43.5833 31.5625 47.125ZM42.2656 46.625C40.8073 45.9375 40.0781 44.9531 40.0781 43.6719C40.0781 42.7865 40.4167 42.0703 41.0938 41.5234C41.7708 40.9714 42.6094 40.6953 43.6094 40.6953C44.5052 40.6953 45.263 40.9531 45.8828 41.4688C46.5026 41.9792 46.8125 42.651 46.8125 43.4844C46.8125 44.8281 46.0625 45.875 44.5625 46.625V46.6562C46.3281 47.3229 47.2109 48.4167 47.2109 49.9375C47.2109 50.9688 46.8438 51.7708 46.1094 52.3438C45.375 52.9167 44.3932 53.2031 43.1641 53.2031C42.1589 53.2031 41.3177 52.9141 40.6406 52.3359C39.9688 51.7526 39.6328 50.9922 39.6328 50.0547C39.6328 48.5026 40.5104 47.3698 42.2656 46.6562V46.625ZM45.4609 43.6562C45.4609 43.0833 45.2786 42.6354 44.9141 42.3125C44.5547 41.9844 44.0755 41.8203 43.4766 41.8203C42.9245 41.8203 42.4453 41.9922 42.0391 42.3359C41.6328 42.6745 41.4297 43.1042 41.4297 43.625C41.4297 44.6979 42.0938 45.5078 43.4219 46.0547C44.7812 45.4818 45.4609 44.6823 45.4609 43.6562ZM43.3281 47.2891C41.7604 47.9141 40.9766 48.8151 40.9766 49.9922C40.9766 50.6432 41.2109 51.1562 41.6797 51.5312C42.1484 51.901 42.7448 52.0859 43.4688 52.0859C44.1667 52.0859 44.7422 51.901 45.1953 51.5312C45.6484 51.1562 45.875 50.6615 45.875 50.0469C45.875 48.8177 45.026 47.8984 43.3281 47.2891ZM49.1562 51.1094C49.9844 51.7656 50.9167 52.0938 51.9531 52.0938C52.7865 52.0938 53.4635 51.8828 53.9844 51.4609C54.5104 51.0391 54.7734 50.4583 54.7734 49.7188C54.7734 48.1042 53.6354 47.2969 51.3594 47.2969H50.3594V46.1797H51.3125C53.3333 46.1797 54.3438 45.4245 54.3438 43.9141C54.3438 42.513 53.5729 41.8125 52.0312 41.8125C51.1771 41.8125 50.375 42.1068 49.625 42.6953V41.3906C50.3958 40.9271 51.3073 40.6953 52.3594 40.6953C53.3177 40.6953 54.1094 40.9583 54.7344 41.4844C55.3646 42.0104 55.6797 42.7083 55.6797 43.5781C55.6797 45.1615 54.8698 46.1875 53.25 46.6562V46.6875C54.1094 46.7604 54.7995 47.0625 55.3203 47.5938C55.8464 48.125 56.1094 48.7865 56.1094 49.5781C56.1094 50.6823 55.7109 51.5625 54.9141 52.2188C54.1224 52.875 53.1094 53.2031 51.875 53.2031C50.7396 53.2031 49.8333 52.987 49.1562 52.5547V51.1094ZM67.1484 52.4844C66.2578 52.9635 65.1458 53.2031 63.8125 53.2031C62.1146 53.2031 60.7448 52.6432 59.7031 51.5234C58.6667 50.4036 58.1484 48.9557 58.1484 47.1797C58.1484 45.3151 58.7188 43.7682 59.8594 42.5391C61 41.3099 62.4818 40.6953 64.3047 40.6953C65.4505 40.6953 66.3984 40.862 67.1484 41.1953V42.6328C66.2786 42.1536 65.3203 41.9141 64.2734 41.9141C62.8359 41.9141 61.6875 42.3984 60.8281 43.3672C59.974 44.3359 59.5469 45.5807 59.5469 47.1016C59.5469 48.5443 59.9479 49.7214 60.75 50.6328C61.5521 51.5443 62.6276 52 63.9766 52C65.1953 52 66.2526 51.7292 67.1484 51.1875V52.4844ZM69.4922 51.5234C70.1745 51.9036 70.8854 52.0938 71.625 52.0938C72.724 52.0938 73.5833 51.6458 74.2031 50.75C74.8229 49.849 75.1328 48.5703 75.1328 46.9141C75.1224 46.9245 75.112 46.9245 75.1016 46.9141C74.5807 47.9661 73.6745 48.4922 72.3828 48.4922C71.3411 48.4922 70.4896 48.1354 69.8281 47.4219C69.1667 46.7083 68.8359 45.8099 68.8359 44.7266C68.8359 43.5755 69.1875 42.6172 69.8906 41.8516C70.599 41.0807 71.5339 40.6953 72.6953 40.6953C73.9089 40.6953 74.8385 41.1719 75.4844 42.125C76.1302 43.0729 76.4531 44.4375 76.4531 46.2188C76.4531 48.4167 76.0286 50.1302 75.1797 51.3594C74.3359 52.5885 73.1328 53.2031 71.5703 53.2031C70.763 53.2031 70.0703 53.0677 69.4922 52.7969V51.5234ZM70.1719 44.5312C70.1719 45.375 70.3932 46.0521 70.8359 46.5625C71.2786 47.0677 71.888 47.3203 72.6641 47.3203C73.3516 47.3203 73.9193 47.0938 74.3672 46.6406C74.8203 46.1823 75.0469 45.6302 75.0469 44.9844C75.0469 44.0833 74.8203 43.3307 74.3672 42.7266C73.9193 42.1172 73.3203 41.8125 72.5703 41.8125C71.8672 41.8125 71.2917 42.0781 70.8438 42.6094C70.3958 43.1354 70.1719 43.776 70.1719 44.5312Z" fill="white"/>
</svg>
