<svg width="95" height="68" viewBox="0 0 95 68" fill="none" xmlns="http://www.w3.org/2000/svg">
<rect width="95" height="68" rx="6" fill="#007A7A"/>
<path d="M12.7188 27.7344V32.9766H11.4141V20.3594H12.7188V21.8906H12.7578C13.4401 20.7344 14.4375 20.1562 15.75 20.1562C16.849 20.1562 17.7161 20.5417 18.3516 21.3125C18.987 22.0781 19.3047 23.1172 19.3047 24.4297C19.3047 25.8672 18.9479 27.0234 18.2344 27.8984C17.526 28.7682 16.5651 29.2031 15.3516 29.2031C14.2266 29.2031 13.362 28.7135 12.7578 27.7344H12.7188ZM12.7188 25.5C12.7188 26.224 12.9609 26.8385 13.4453 27.3438C13.9297 27.8438 14.526 28.0938 15.2344 28.0938C16.0833 28.0938 16.75 27.7656 17.2344 27.1094C17.724 26.4531 17.9688 25.5469 17.9688 24.3906C17.9688 23.4167 17.7396 22.6536 17.2812 22.1016C16.8229 21.5443 16.2135 21.2656 15.4531 21.2656C14.6615 21.2656 14.0078 21.5469 13.4922 22.1094C12.9766 22.6667 12.7188 23.3802 12.7188 24.25V25.5ZM25.9766 21.6953C25.737 21.513 25.3906 21.4219 24.9375 21.4219C24.3281 21.4219 23.8255 21.7135 23.4297 22.2969C23.0391 22.875 22.8438 23.6354 22.8438 24.5781V29H21.5391V20.3594H22.8438V22.1484H22.8828C23.0807 21.5339 23.3828 21.0573 23.7891 20.7188C24.1953 20.3802 24.6432 20.2109 25.1328 20.2109C25.5026 20.2109 25.7839 20.25 25.9766 20.3281V21.6953ZM27.3203 17.25C27.3203 17.0052 27.401 16.7995 27.5625 16.6328C27.7292 16.4609 27.9297 16.375 28.1641 16.375C28.4089 16.375 28.6146 16.4609 28.7812 16.6328C28.9531 16.8047 29.0391 17.0104 29.0391 17.25C29.0391 17.4792 28.9531 17.6797 28.7812 17.8516C28.6146 18.0234 28.4089 18.1094 28.1641 18.1094C27.9193 18.1094 27.7161 18.026 27.5547 17.8594C27.3984 17.6927 27.3203 17.4896 27.3203 17.25ZM27.5 29V20.3594H28.7969V29H27.5ZM43.8281 29H42.5234V24.0391C42.5234 23.0339 42.3698 22.3203 42.0625 21.8984C41.7604 21.4766 41.2578 21.2656 40.5547 21.2656C39.9661 21.2656 39.4583 21.5417 39.0312 22.0938C38.6042 22.6458 38.3906 23.3021 38.3906 24.0625V29H37.0938V23.8594C37.0938 22.1302 36.4245 21.2656 35.0859 21.2656C34.4714 21.2656 33.9609 21.5286 33.5547 22.0547C33.1536 22.5807 32.9531 23.25 32.9531 24.0625V29H31.6484V20.3594H32.9531V21.7266H32.9922C33.5964 20.6797 34.487 20.1562 35.6641 20.1562C36.2266 20.1562 36.7318 20.3229 37.1797 20.6562C37.6328 20.9844 37.9401 21.4193 38.1016 21.9609C38.7422 20.7578 39.7005 20.1562 40.9766 20.1562C42.8776 20.1562 43.8281 21.3307 43.8281 23.6797V29ZM46.6797 20.9766C47.5286 20.4297 48.5 20.1562 49.5938 20.1562C51.599 20.1562 52.6016 21.2214 52.6016 23.3516V29H51.2969V27.6406H51.25C50.651 28.6823 49.7656 29.2031 48.5938 29.2031C47.7396 29.2031 47.0651 28.9766 46.5703 28.5234C46.0807 28.0651 45.8359 27.4609 45.8359 26.7109C45.8359 25.112 46.7839 24.1771 48.6797 23.9062L51.2891 23.5312C51.2891 22.0312 50.6901 21.2812 49.4922 21.2812C48.4453 21.2812 47.5078 21.638 46.6797 22.3516V20.9766ZM49.1719 24.8984C48.4323 24.9974 47.9167 25.1771 47.625 25.4375C47.3385 25.6927 47.1953 26.0885 47.1953 26.625C47.1953 27.0573 47.349 27.4089 47.6562 27.6797C47.9688 27.9505 48.375 28.0859 48.875 28.0859C49.5677 28.0859 50.1432 27.8385 50.6016 27.3438C51.0599 26.849 51.2891 26.2318 51.2891 25.4922V24.6172L49.1719 24.8984ZM59.6797 21.6953C59.4401 21.513 59.0938 21.4219 58.6406 21.4219C58.0312 21.4219 57.5286 21.7135 57.1328 22.2969C56.7422 22.875 56.5469 23.6354 56.5469 24.5781V29H55.2422V20.3594H56.5469V22.1484H56.5859C56.7839 21.5339 57.0859 21.0573 57.4922 20.7188C57.8984 20.3802 58.3464 20.2109 58.8359 20.2109C59.2057 20.2109 59.487 20.25 59.6797 20.3281V21.6953ZM67.9844 20.3594L63.9844 30.4297C63.2865 32.1901 62.3073 33.0703 61.0469 33.0703C60.7292 33.0703 60.4453 33.0365 60.1953 32.9688V31.7812C60.487 31.875 60.7526 31.9219 60.9922 31.9219C61.6953 31.9219 62.2214 31.5 62.5703 30.6562L63.2734 28.9844L59.9062 20.3594H61.3516L63.7344 27.1016C63.7656 27.1953 63.8255 27.401 63.9141 27.7188H63.9609C63.9818 27.6094 64.0365 27.4089 64.125 27.1172L66.6328 20.3594H67.9844ZM73.8984 24.6953H69.2969V23.6562H73.8984V24.6953ZM76.4453 27.5234C77.1276 27.9036 77.8385 28.0938 78.5781 28.0938C79.6771 28.0938 80.5365 27.6458 81.1562 26.75C81.776 25.849 82.0859 24.5703 82.0859 22.9141C82.0755 22.9245 82.0651 22.9245 82.0547 22.9141C81.5339 23.9661 80.6276 24.4922 79.3359 24.4922C78.2943 24.4922 77.4427 24.1354 76.7812 23.4219C76.1198 22.7083 75.7891 21.8099 75.7891 20.7266C75.7891 19.5755 76.1406 18.6172 76.8438 17.8516C77.5521 17.0807 78.487 16.6953 79.6484 16.6953C80.862 16.6953 81.7917 17.1719 82.4375 18.125C83.0833 19.0729 83.4062 20.4375 83.4062 22.2188C83.4062 24.4167 82.9818 26.1302 82.1328 27.3594C81.2891 28.5885 80.0859 29.2031 78.5234 29.2031C77.7161 29.2031 77.0234 29.0677 76.4453 28.7969V27.5234ZM77.125 20.5312C77.125 21.375 77.3464 22.0521 77.7891 22.5625C78.2318 23.0677 78.8411 23.3203 79.6172 23.3203C80.3047 23.3203 80.8724 23.0938 81.3203 22.6406C81.7734 22.1823 82 21.6302 82 20.9844C82 20.0833 81.7734 19.3307 81.3203 18.7266C80.8724 18.1172 80.2734 17.8125 79.5234 17.8125C78.8203 17.8125 78.2448 18.0781 77.7969 18.6094C77.349 19.1354 77.125 19.776 77.125 20.5312ZM19.8281 44.3125L19.6406 45.1641H17.4062L16.8672 47.7266H19.2812L19.0625 48.5781H16.7031L15.9531 51.9531H14.9297L15.6641 48.5781H13.5469L12.8281 51.9531H11.8125L12.5312 48.5781H10.2812L10.4297 47.7266H12.7109L13.2266 45.1641H10.8516L11.0234 44.3125H13.3984L14.1172 40.8906H15.1328L14.4219 44.3125H16.5547L17.2891 40.8906H18.2812L17.5703 44.3125H19.8281ZM16.4062 45.1641H14.2578L13.6953 47.7266H15.8594L16.4062 45.1641ZM20.9531 47.1953C20.9531 45.0599 21.2995 43.4427 21.9922 42.3438C22.6901 41.2448 23.6953 40.6953 25.0078 40.6953C27.5234 40.6953 28.7812 42.763 28.7812 46.8984C28.7812 48.9089 28.4349 50.4635 27.7422 51.5625C27.0547 52.6562 26.0521 53.2031 24.7344 53.2031C23.5052 53.2031 22.5677 52.6771 21.9219 51.625C21.276 50.5729 20.9531 49.0964 20.9531 47.1953ZM22.2812 47.125C22.2812 50.4375 23.1458 52.0938 24.875 52.0938C26.5885 52.0938 27.4453 50.4141 27.4453 47.0547C27.4453 43.5599 26.6094 41.8125 24.9375 41.8125C23.1667 41.8125 22.2812 43.5833 22.2812 47.125ZM30.2344 47.1953C30.2344 45.0599 30.5807 43.4427 31.2734 42.3438C31.9714 41.2448 32.9766 40.6953 34.2891 40.6953C36.8047 40.6953 38.0625 42.763 38.0625 46.8984C38.0625 48.9089 37.7161 50.4635 37.0234 51.5625C36.3359 52.6562 35.3333 53.2031 34.0156 53.2031C32.7865 53.2031 31.849 52.6771 31.2031 51.625C30.5573 50.5729 30.2344 49.0964 30.2344 47.1953ZM31.5625 47.125C31.5625 50.4375 32.4271 52.0938 34.1562 52.0938C35.8698 52.0938 36.7266 50.4141 36.7266 47.0547C36.7266 43.5599 35.8906 41.8125 34.2188 41.8125C32.4479 41.8125 31.5625 43.5833 31.5625 47.125ZM47.2578 41.2812L42.4297 53H41.0859L45.6328 42.0859H39.5V40.8984H47.2578V41.2812ZM58.9453 53H57.4688L56.1562 49.5625H50.9688L49.7422 53H48.2578L52.9141 40.8984H54.2656L58.9453 53ZM55.7031 48.3438L53.7656 43.1172C53.7135 42.9714 53.6536 42.7057 53.5859 42.3203H53.5469C53.4896 42.6745 53.4245 42.9401 53.3516 43.1172L51.4375 48.3438H55.7031ZM67.6328 41.2812L62.8047 53H61.4609L66.0078 42.0859H59.875V40.8984H67.6328V41.2812ZM79.3203 53H77.8438L76.5312 49.5625H71.3438L70.1172 53H68.6328L73.2891 40.8984H74.6406L79.3203 53ZM76.0781 48.3438L74.1406 43.1172C74.0885 42.9714 74.0286 42.7057 73.9609 42.3203H73.9219C73.8646 42.6745 73.7995 42.9401 73.7266 43.1172L71.8125 48.3438H76.0781Z" fill="white"/>
</svg>
