<svg width="95" height="68" viewBox="0 0 95 68" fill="none" xmlns="http://www.w3.org/2000/svg">
<rect width="95" height="68" rx="6" fill="#00497D"/>
<path d="M12.7188 27.7344V29H11.4141V16.2109H12.7188V21.8906H12.7578C13.4401 20.7344 14.4375 20.1562 15.75 20.1562C16.849 20.1562 17.7161 20.5443 18.3516 21.3203C18.987 22.0964 19.3047 23.1328 19.3047 24.4297C19.3047 25.8672 18.9479 27.0234 18.2344 27.8984C17.526 28.7682 16.5651 29.2031 15.3516 29.2031C14.2109 29.2031 13.3464 28.7135 12.7578 27.7344H12.7188ZM12.7188 25.4922C12.7188 26.2266 12.9609 26.8438 13.4453 27.3438C13.9349 27.8438 14.5312 28.0938 15.2344 28.0938C16.0833 28.0938 16.75 27.7656 17.2344 27.1094C17.724 26.4531 17.9688 25.5469 17.9688 24.3906C17.9688 23.4271 17.7422 22.6667 17.2891 22.1094C16.8359 21.5469 16.224 21.2656 15.4531 21.2656C14.6562 21.2656 14 21.5495 13.4844 22.1172C12.974 22.6797 12.7188 23.3932 12.7188 24.2578V25.4922ZM21.5469 29V16.2109H22.8438V29H21.5469ZM32.6094 29H31.3047V27.6328H31.2734C30.7057 28.6797 29.8177 29.2031 28.6094 29.2031C26.5469 29.2031 25.5156 27.9766 25.5156 25.5234V20.3594H26.8047V25.3047C26.8047 27.1641 27.513 28.0938 28.9297 28.0938C29.6276 28.0938 30.1979 27.8359 30.6406 27.3203C31.0833 26.8047 31.3047 26.1432 31.3047 25.3359V20.3594H32.6094V29ZM42.3203 25H36.1953C36.2214 25.9948 36.4844 26.7578 36.9844 27.2891C37.4844 27.8203 38.1693 28.0859 39.0391 28.0859C40.013 28.0859 40.9115 27.7604 41.7344 27.1094V28.3594C40.9792 28.9219 39.9792 29.2031 38.7344 29.2031C37.5312 29.2031 36.5807 28.8099 35.8828 28.0234C35.1901 27.237 34.8438 26.1302 34.8438 24.7031C34.8438 23.3906 35.2188 22.3047 35.9688 21.4453C36.724 20.5859 37.6667 20.1562 38.7969 20.1562C39.9062 20.1562 40.7708 20.5208 41.3906 21.25C42.0104 21.9792 42.3203 22.9948 42.3203 24.2969V25ZM40.9766 23.8516C40.9714 23.0391 40.776 22.4089 40.3906 21.9609C40.0052 21.5078 39.4661 21.2812 38.7734 21.2812C38.1432 21.2812 37.5885 21.5078 37.1094 21.9609C36.6354 22.4141 36.3359 23.0443 36.2109 23.8516H40.9766ZM48.8516 24.6953H44.25V23.6562H48.8516V24.6953ZM51.3984 27.5234C52.0807 27.9036 52.7917 28.0938 53.5312 28.0938C54.6302 28.0938 55.4896 27.6458 56.1094 26.75C56.7292 25.849 57.0391 24.5703 57.0391 22.9141C57.0286 22.9245 57.0182 22.9245 57.0078 22.9141C56.487 23.9661 55.5807 24.4922 54.2891 24.4922C53.2474 24.4922 52.3958 24.1354 51.7344 23.4219C51.0729 22.7083 50.7422 21.8099 50.7422 20.7266C50.7422 19.5755 51.0938 18.6172 51.7969 17.8516C52.5052 17.0807 53.4401 16.6953 54.6016 16.6953C55.8151 16.6953 56.7448 17.1719 57.3906 18.125C58.0365 19.0729 58.3594 20.4375 58.3594 22.2188C58.3594 24.4167 57.9349 26.1302 57.0859 27.3594C56.2422 28.5885 55.0391 29.2031 53.4766 29.2031C52.6693 29.2031 51.9766 29.0677 51.3984 28.7969V27.5234ZM52.0781 20.5312C52.0781 21.375 52.2995 22.0521 52.7422 22.5625C53.1849 23.0677 53.7943 23.3203 54.5703 23.3203C55.2578 23.3203 55.8255 23.0938 56.2734 22.6406C56.7266 22.1823 56.9531 21.6302 56.9531 20.9844C56.9531 20.0833 56.7266 19.3307 56.2734 18.7266C55.8255 18.1172 55.2266 17.8125 54.4766 17.8125C53.7734 17.8125 53.1979 18.0781 52.75 18.6094C52.3021 19.1354 52.0781 19.776 52.0781 20.5312ZM19.8281 44.3125L19.6406 45.1641H17.4062L16.8672 47.7266H19.2812L19.0625 48.5781H16.7031L15.9531 51.9531H14.9297L15.6641 48.5781H13.5469L12.8281 51.9531H11.8125L12.5312 48.5781H10.2812L10.4297 47.7266H12.7109L13.2266 45.1641H10.8516L11.0234 44.3125H13.3984L14.1172 40.8906H15.1328L14.4219 44.3125H16.5547L17.2891 40.8906H18.2812L17.5703 44.3125H19.8281ZM16.4062 45.1641H14.2578L13.6953 47.7266H15.8594L16.4062 45.1641ZM20.9531 47.1953C20.9531 45.0599 21.2995 43.4427 21.9922 42.3438C22.6901 41.2448 23.6953 40.6953 25.0078 40.6953C27.5234 40.6953 28.7812 42.763 28.7812 46.8984C28.7812 48.9089 28.4349 50.4635 27.7422 51.5625C27.0547 52.6562 26.0521 53.2031 24.7344 53.2031C23.5052 53.2031 22.5677 52.6771 21.9219 51.625C21.276 50.5729 20.9531 49.0964 20.9531 47.1953ZM22.2812 47.125C22.2812 50.4375 23.1458 52.0938 24.875 52.0938C26.5885 52.0938 27.4453 50.4141 27.4453 47.0547C27.4453 43.5599 26.6094 41.8125 24.9375 41.8125C23.1667 41.8125 22.2812 43.5833 22.2812 47.125ZM30.2344 47.1953C30.2344 45.0599 30.5807 43.4427 31.2734 42.3438C31.9714 41.2448 32.9766 40.6953 34.2891 40.6953C36.8047 40.6953 38.0625 42.763 38.0625 46.8984C38.0625 48.9089 37.7161 50.4635 37.0234 51.5625C36.3359 52.6562 35.3333 53.2031 34.0156 53.2031C32.7865 53.2031 31.849 52.6771 31.2031 51.625C30.5573 50.5729 30.2344 49.0964 30.2344 47.1953ZM31.5625 47.125C31.5625 50.4375 32.4271 52.0938 34.1562 52.0938C35.8698 52.0938 36.7266 50.4141 36.7266 47.0547C36.7266 43.5599 35.8906 41.8125 34.2188 41.8125C32.4479 41.8125 31.5625 43.5833 31.5625 47.125ZM47.4609 49.75H45.8984V53H44.6016V49.75H38.8828V48.8906L44.2891 40.8984H45.8984V48.6719H47.4609V49.75ZM44.6016 48.6719V43.3438C44.6016 42.974 44.612 42.5547 44.6328 42.0859H44.6016C44.5599 42.2005 44.4062 42.5104 44.1406 43.0156L40.3359 48.6719H44.6016ZM49.5234 51.5234C50.2057 51.9036 50.9167 52.0938 51.6562 52.0938C52.7552 52.0938 53.6146 51.6458 54.2344 50.75C54.8542 49.849 55.1641 48.5703 55.1641 46.9141C55.1536 46.9245 55.1432 46.9245 55.1328 46.9141C54.612 47.9661 53.7057 48.4922 52.4141 48.4922C51.3724 48.4922 50.5208 48.1354 49.8594 47.4219C49.1979 46.7083 48.8672 45.8099 48.8672 44.7266C48.8672 43.5755 49.2188 42.6172 49.9219 41.8516C50.6302 41.0807 51.5651 40.6953 52.7266 40.6953C53.9401 40.6953 54.8698 41.1719 55.5156 42.125C56.1615 43.0729 56.4844 44.4375 56.4844 46.2188C56.4844 48.4167 56.0599 50.1302 55.2109 51.3594C54.3672 52.5885 53.1641 53.2031 51.6016 53.2031C50.7943 53.2031 50.1016 53.0677 49.5234 52.7969V51.5234ZM50.2031 44.5312C50.2031 45.375 50.4245 46.0521 50.8672 46.5625C51.3099 47.0677 51.9193 47.3203 52.6953 47.3203C53.3828 47.3203 53.9505 47.0938 54.3984 46.6406C54.8516 46.1823 55.0781 45.6302 55.0781 44.9844C55.0781 44.0833 54.8516 43.3307 54.3984 42.7266C53.9505 42.1172 53.3516 41.8125 52.6016 41.8125C51.8984 41.8125 51.3229 42.0781 50.875 42.6094C50.4271 43.1354 50.2031 43.776 50.2031 44.5312ZM65.8203 41.2812L60.9922 53H59.6484L64.1953 42.0859H58.0625V40.8984H65.8203V41.2812ZM68.2266 53V40.8984H71.5078C75.763 40.8984 77.8906 42.8646 77.8906 46.7969C77.8906 48.6823 77.3177 50.1875 76.1719 51.3125C75.026 52.4375 73.4297 53 71.3828 53H68.2266ZM69.5547 42.1172V51.7812H71.3984C73.0078 51.7812 74.2604 51.349 75.1562 50.4844C76.0521 49.6198 76.5 48.4036 76.5 46.8359C76.5 43.6901 74.8255 42.1172 71.4766 42.1172H69.5547Z" fill="white"/>
</svg>
