<svg width="303" height="303" viewBox="0 0 303 303" fill="none" xmlns="http://www.w3.org/2000/svg">
<mask id="path-1-inside-1_2324_21" fill="white">
<path d="M151.5 6.26904C170.572 6.26904 189.457 10.0256 207.078 17.3241C224.698 24.6226 240.708 35.3203 254.194 48.8062C267.68 62.2922 278.377 78.3023 285.676 95.9226C292.975 113.543 296.731 132.428 296.731 151.5C296.731 170.572 292.975 189.457 285.676 207.078C278.377 224.698 267.68 240.708 254.194 254.194C240.708 267.68 224.698 278.378 207.077 285.676C189.457 292.975 170.572 296.731 151.5 296.731L151.5 244.448C163.706 244.448 175.793 242.044 187.07 237.373C198.347 232.702 208.593 225.855 217.224 217.224C225.855 208.593 232.702 198.347 237.373 187.07C242.044 175.793 244.448 163.706 244.448 151.5C244.448 139.294 242.044 127.207 237.373 115.93C232.702 104.654 225.855 94.407 217.224 85.776C208.593 77.145 198.347 70.2985 187.07 65.6275C175.793 60.9564 163.706 58.5522 151.5 58.5522V6.26904Z"/>
</mask>
<path d="M151.5 6.26904C170.572 6.26904 189.457 10.0256 207.078 17.3241C224.698 24.6226 240.708 35.3203 254.194 48.8062C267.68 62.2922 278.377 78.3023 285.676 95.9226C292.975 113.543 296.731 132.428 296.731 151.5C296.731 170.572 292.975 189.457 285.676 207.078C278.377 224.698 267.68 240.708 254.194 254.194C240.708 267.68 224.698 278.378 207.077 285.676C189.457 292.975 170.572 296.731 151.5 296.731L151.5 244.448C163.706 244.448 175.793 242.044 187.07 237.373C198.347 232.702 208.593 225.855 217.224 217.224C225.855 208.593 232.702 198.347 237.373 187.07C242.044 175.793 244.448 163.706 244.448 151.5C244.448 139.294 242.044 127.207 237.373 115.93C232.702 104.654 225.855 94.407 217.224 85.776C208.593 77.145 198.347 70.2985 187.07 65.6275C175.793 60.9564 163.706 58.5522 151.5 58.5522V6.26904Z" fill="#FFD640" stroke="white" stroke-width="8" mask="url(#path-1-inside-1_2324_21)"/>
<g opacity="0.5">
<mask id="path-2-inside-2_2324_21" fill="white">
<path d="M151.5 0C171.395 2.37249e-07 191.096 3.91866 209.477 11.5323C227.857 19.1458 244.559 30.3053 258.627 44.3733C272.695 58.4414 283.854 75.1426 291.468 93.5235C299.081 111.904 303 131.605 303 151.5C303 171.395 299.081 191.096 291.468 209.477C283.854 227.857 272.695 244.559 258.627 258.627C244.559 272.695 227.857 283.854 209.477 291.468C191.096 299.081 171.395 303 151.5 303L151.5 239.37C163.039 239.37 174.465 237.097 185.126 232.681C195.787 228.265 205.474 221.793 213.633 213.633C221.793 205.474 228.265 195.787 232.681 185.126C237.097 174.466 239.37 163.039 239.37 151.5C239.37 139.961 237.097 128.535 232.681 117.874C228.265 107.213 221.793 97.526 213.633 89.3665C205.474 81.2071 195.787 74.7346 185.126 70.3187C174.466 65.9028 163.039 63.63 151.5 63.63V0Z"/>
</mask>
<path d="M151.5 0C171.395 2.37249e-07 191.096 3.91866 209.477 11.5323C227.857 19.1458 244.559 30.3053 258.627 44.3733C272.695 58.4414 283.854 75.1426 291.468 93.5235C299.081 111.904 303 131.605 303 151.5C303 171.395 299.081 191.096 291.468 209.477C283.854 227.857 272.695 244.559 258.627 258.627C244.559 272.695 227.857 283.854 209.477 291.468C191.096 299.081 171.395 303 151.5 303L151.5 239.37C163.039 239.37 174.465 237.097 185.126 232.681C195.787 228.265 205.474 221.793 213.633 213.633C221.793 205.474 228.265 195.787 232.681 185.126C237.097 174.466 239.37 163.039 239.37 151.5C239.37 139.961 237.097 128.535 232.681 117.874C228.265 107.213 221.793 97.526 213.633 89.3665C205.474 81.2071 195.787 74.7346 185.126 70.3187C174.466 65.9028 163.039 63.63 151.5 63.63V0Z" fill="#FFD640" stroke="white" stroke-width="8" mask="url(#path-2-inside-2_2324_21)"/>
</g>
<mask id="path-3-inside-3_2324_21" fill="white">
<path d="M151.5 296.731C123.941 296.731 96.9504 288.89 73.6813 274.123C50.4123 259.356 31.8252 238.273 20.091 213.336L67.3983 191.075C74.9081 207.035 86.8039 220.528 101.696 229.979C116.588 239.429 133.862 244.448 151.5 244.448V296.731Z"/>
</mask>
<path d="M151.5 296.731C123.941 296.731 96.9504 288.89 73.6813 274.123C50.4123 259.356 31.8252 238.273 20.091 213.336L67.3983 191.075C74.9081 207.035 86.8039 220.528 101.696 229.979C116.588 239.429 133.862 244.448 151.5 244.448V296.731Z" fill="#00A4EF" stroke="white" stroke-width="8" mask="url(#path-3-inside-3_2324_21)"/>
<mask id="path-4-inside-4_2324_21" fill="white">
<path d="M20.0897 213.334C4.36253 179.91 1.96251 141.749 13.3781 106.618L63.102 122.776C55.796 145.259 57.332 169.682 67.3974 191.073L20.0897 213.334Z"/>
</mask>
<path d="M20.0897 213.334C4.36253 179.91 1.96251 141.749 13.3781 106.618L63.102 122.776C55.796 145.259 57.332 169.682 67.3974 191.073L20.0897 213.334Z" fill="#FF9900" stroke="white" stroke-width="8" mask="url(#path-4-inside-4_2324_21)"/>
<mask id="path-5-inside-5_2324_21" fill="white">
<path d="M150.455 58.5576C146.727 58.5995 143.005 58.8684 139.309 59.3574C131.761 60.356 124.363 62.2759 117.283 65.0791C106.393 69.3909 96.4148 75.7217 87.876 83.7393L87.877 83.7402C76.4638 94.4566 67.9425 107.882 63.1035 122.771L13.3799 106.612C20.9405 83.3481 34.255 62.3704 52.0879 45.626L53.3457 44.459C65.9869 32.8673 80.5816 23.6063 96.4531 17.1055L98.0439 16.4648C109.174 12.0589 120.805 9.0467 132.673 7.49512C132.773 7.48201 132.873 7.46895 132.974 7.45605C133.082 7.44216 133.19 7.42772 133.298 7.41406V7.41504C138.794 6.72067 144.327 6.34062 149.867 6.27832L150.455 58.5576Z"/>
</mask>
<path d="M150.455 58.5576C146.727 58.5995 143.005 58.8684 139.309 59.3574C131.761 60.356 124.363 62.2759 117.283 65.0791C106.393 69.3909 96.4148 75.7217 87.876 83.7393L87.877 83.7402C76.4638 94.4566 67.9425 107.882 63.1035 122.771L13.3799 106.612C20.9405 83.3481 34.255 62.3704 52.0879 45.626L53.3457 44.459C65.9869 32.8673 80.5816 23.6063 96.4531 17.1055L98.0439 16.4648C109.174 12.0589 120.805 9.0467 132.673 7.49512C132.773 7.48201 132.873 7.46895 132.974 7.45605C133.082 7.44216 133.19 7.42772 133.298 7.41406V7.41504C138.794 6.72067 144.327 6.34062 149.867 6.27832L150.455 58.5576Z" fill="#E62978"/>
<path d="M150.455 58.5576L150.466 59.5576L151.466 59.5463L151.455 58.5464L150.455 58.5576ZM139.309 59.3574L139.44 60.3488L139.309 59.3574ZM117.283 65.0791L116.915 64.1493L117.283 65.0791ZM87.876 83.7393L87.1915 83.0102L86.4391 83.7166L87.1689 84.4464L87.876 83.7393ZM87.877 83.7402L88.5615 84.4692L89.3138 83.7628L88.5841 83.0331L87.877 83.7402ZM63.1035 122.771L62.7944 123.723L63.7455 124.032L64.0546 123.081L63.1035 122.771ZM13.3799 106.612L12.4288 106.303L12.1198 107.254L13.0708 107.563L13.3799 106.612ZM52.0879 45.626L51.4077 44.8929L51.4034 44.897L52.0879 45.626ZM53.3457 44.459L52.6698 43.7219L52.6656 43.7259L53.3457 44.459ZM96.4531 17.1055L96.0796 16.1778L96.0741 16.1801L96.4531 17.1055ZM98.0439 16.4648L97.6759 15.535L97.6704 15.5372L98.0439 16.4648ZM132.673 7.49512L132.802 8.48668L132.673 7.49512ZM132.974 7.45605L132.846 6.46422L132.974 7.45605ZM133.298 7.41406H134.298V6.27979L133.173 6.42195L133.298 7.41406ZM133.298 7.41504H132.298V8.54932L133.423 8.40715L133.298 7.41504ZM149.867 6.27832L150.867 6.26708L150.856 5.26714L149.856 5.27838L149.867 6.27832ZM150.455 58.5576L150.444 57.5577C146.675 57.6001 142.913 57.8718 139.177 58.3661L139.309 59.3574L139.44 60.3488C143.097 59.865 146.779 59.599 150.466 59.5576L150.455 58.5576ZM139.309 59.3574L139.177 58.3661C131.549 59.3754 124.071 61.3159 116.915 64.1493L117.283 65.0791L117.651 66.0089C124.655 63.2359 131.973 61.3367 139.44 60.3488L139.309 59.3574ZM117.283 65.0791L116.915 64.1493C105.908 68.5075 95.8222 74.9064 87.1915 83.0102L87.876 83.7393L88.5605 84.4683C97.0074 76.537 106.878 70.2743 117.651 66.0089L117.283 65.0791ZM87.876 83.7393L87.1689 84.4464L87.1698 84.4473L87.877 83.7402L88.5841 83.0331L88.5831 83.0322L87.876 83.7393ZM87.877 83.7402L87.1925 83.0112C75.6565 93.8429 67.0435 107.413 62.1525 122.462L63.1035 122.771L64.0546 123.081C68.8414 108.352 77.2711 95.0704 88.5615 84.4692L87.877 83.7402ZM63.1035 122.771L63.4126 121.82L13.689 105.661L13.3799 106.612L13.0708 107.563L62.7944 123.723L63.1035 122.771ZM13.3799 106.612L14.3309 106.921C21.8395 83.8173 35.0623 62.9841 52.7724 46.355L52.0879 45.626L51.4034 44.897C33.4477 61.7567 20.0416 82.8788 12.4288 106.303L13.3799 106.612ZM52.0879 45.626L52.768 46.3591L54.0258 45.1921L53.3457 44.459L52.6656 43.7259L51.4077 44.8929L52.0879 45.626ZM53.3457 44.459L54.0216 45.196C66.5757 33.6842 81.0699 24.4869 96.8322 18.0309L96.4531 17.1055L96.0741 16.1801C80.0933 22.7257 65.3981 32.0504 52.6699 43.7219L53.3457 44.459ZM96.4531 17.1055L96.8267 18.0331L98.4175 17.3925L98.0439 16.4648L97.6704 15.5372L96.0796 16.1779L96.4531 17.1055ZM98.0439 16.4648L98.412 17.3946C109.465 13.019 121.016 10.0276 132.802 8.48668L132.673 7.49512L132.543 6.50356C120.594 8.06581 108.882 11.0987 97.6759 15.535L98.0439 16.4648ZM132.673 7.49512L132.802 8.48668C132.902 8.47361 133.002 8.46065 133.101 8.44788L132.974 7.45605L132.846 6.46422C132.745 6.47725 132.644 6.49041 132.543 6.50356L132.673 7.49512ZM132.974 7.45605L133.101 8.44788C133.218 8.43288 133.314 8.41991 133.423 8.40618L133.298 7.41406L133.173 6.42195C133.065 6.43553 132.946 6.45143 132.846 6.46422L132.974 7.45605ZM133.298 7.41406H132.298V7.41504H133.298H134.298V7.41406H133.298ZM133.298 7.41504L133.423 8.40715C138.882 7.71756 144.376 7.34013 149.878 7.27826L149.867 6.27832L149.856 5.27838C144.277 5.34112 138.707 5.72379 133.173 6.42292L133.298 7.41504ZM149.867 6.27832L148.867 6.28956L149.455 58.5689L150.455 58.5576L151.455 58.5464L150.867 6.26708L149.867 6.27832Z" fill="white" mask="url(#path-5-inside-5_2324_21)"/>
</svg>
