<svg width="95" height="68" viewBox="0 0 95 68" fill="none" xmlns="http://www.w3.org/2000/svg">
<rect width="95" height="68" rx="6" fill="#00735A"/>
<path d="M18.7188 28.3203C18.7188 31.487 17.2188 33.0703 14.2188 33.0703C13.1562 33.0703 12.2214 32.8646 11.4141 32.4531V31.125C12.388 31.6667 13.3203 31.9375 14.2109 31.9375C16.3516 31.9375 17.4219 30.7891 17.4219 28.4922V27.5312H17.3906C16.7135 28.6458 15.7188 29.2031 14.4062 29.2031C13.3229 29.2031 12.4557 28.8151 11.8047 28.0391C11.1536 27.263 10.8281 26.237 10.8281 24.9609C10.8281 23.487 11.1849 22.3177 11.8984 21.4531C12.612 20.5885 13.5729 20.1562 14.7812 20.1562C15.9531 20.1562 16.8229 20.6276 17.3906 21.5703H17.4219V20.3594H18.7188V28.3203ZM17.4219 23.7969C17.4219 23.0938 17.1797 22.4974 16.6953 22.0078C16.2109 21.513 15.6276 21.2656 14.9453 21.2656C14.0807 21.2656 13.3984 21.5833 12.8984 22.2188C12.4036 22.8542 12.1562 23.737 12.1562 24.8672C12.1562 25.8464 12.3958 26.6302 12.875 27.2188C13.3542 27.8021 13.9766 28.0938 14.7422 28.0938C15.5182 28.0938 16.1589 27.8151 16.6641 27.2578C17.1693 26.6953 17.4219 25.9792 17.4219 25.1094V23.7969ZM25.9922 21.6953C25.7526 21.513 25.4062 21.4219 24.9531 21.4219C24.3438 21.4219 23.8411 21.7135 23.4453 22.2969C23.0547 22.875 22.8594 23.6354 22.8594 24.5781V29H21.5547V20.3594H22.8594V22.1484H22.8984C23.0964 21.5339 23.3984 21.0573 23.8047 20.7188C24.2109 20.3802 24.6589 20.2109 25.1484 20.2109C25.5182 20.2109 25.7995 20.25 25.9922 20.3281V21.6953ZM34.3984 25H28.2734C28.2995 25.9948 28.5625 26.7578 29.0625 27.2891C29.5625 27.8203 30.2474 28.0859 31.1172 28.0859C32.0911 28.0859 32.9896 27.7604 33.8125 27.1094V28.3594C33.0573 28.9219 32.0573 29.2031 30.8125 29.2031C29.6094 29.2031 28.6589 28.8099 27.9609 28.0234C27.2682 27.237 26.9219 26.1302 26.9219 24.7031C26.9219 23.3906 27.2969 22.3047 28.0469 21.4453C28.8021 20.5859 29.7448 20.1562 30.875 20.1562C31.9844 20.1562 32.849 20.5208 33.4688 21.25C34.0885 21.9792 34.3984 22.9948 34.3984 24.2969V25ZM33.0547 23.8516C33.0495 23.0391 32.8542 22.4089 32.4688 21.9609C32.0833 21.5078 31.5443 21.2812 30.8516 21.2812C30.2214 21.2812 29.6667 21.5078 29.1875 21.9609C28.7135 22.4141 28.4141 23.0443 28.2891 23.8516H33.0547ZM43.4141 25H37.2891C37.3151 25.9948 37.5781 26.7578 38.0781 27.2891C38.5781 27.8203 39.263 28.0859 40.1328 28.0859C41.1068 28.0859 42.0052 27.7604 42.8281 27.1094V28.3594C42.0729 28.9219 41.0729 29.2031 39.8281 29.2031C38.625 29.2031 37.6745 28.8099 36.9766 28.0234C36.2839 27.237 35.9375 26.1302 35.9375 24.7031C35.9375 23.3906 36.3125 22.3047 37.0625 21.4453C37.8177 20.5859 38.7604 20.1562 39.8906 20.1562C41 20.1562 41.8646 20.5208 42.4844 21.25C43.1042 21.9792 43.4141 22.9948 43.4141 24.2969V25ZM42.0703 23.8516C42.0651 23.0391 41.8698 22.4089 41.4844 21.9609C41.099 21.5078 40.5599 21.2812 39.8672 21.2812C39.237 21.2812 38.6823 21.5078 38.2031 21.9609C37.7292 22.4141 37.4297 23.0443 37.3047 23.8516H42.0703ZM52.6406 29H51.3359V24.0625C51.3359 22.1979 50.6536 21.2656 49.2891 21.2656C48.5755 21.2656 47.9896 21.5339 47.5312 22.0703C47.0729 22.6016 46.8438 23.2682 46.8438 24.0703V29H45.5391V20.3594H46.8438V21.8047H46.8828C47.5286 20.7057 48.474 20.1562 49.7188 20.1562C50.6667 20.1562 51.3906 20.4609 51.8906 21.0703C52.3906 21.6797 52.6406 22.5625 52.6406 23.7188V29ZM59.6797 24.6953H55.0781V23.6562H59.6797V24.6953ZM64.25 22.625C62.7917 21.9375 62.0625 20.9531 62.0625 19.6719C62.0625 18.7865 62.401 18.0703 63.0781 17.5234C63.7552 16.9714 64.5938 16.6953 65.5938 16.6953C66.4896 16.6953 67.2474 16.9531 67.8672 17.4688C68.487 17.9792 68.7969 18.651 68.7969 19.4844C68.7969 20.8281 68.0469 21.875 66.5469 22.625V22.6562C68.3125 23.3229 69.1953 24.4167 69.1953 25.9375C69.1953 26.9688 68.8281 27.7708 68.0938 28.3438C67.3594 28.9167 66.3776 29.2031 65.1484 29.2031C64.1432 29.2031 63.3021 28.9141 62.625 28.3359C61.9531 27.7526 61.6172 26.9922 61.6172 26.0547C61.6172 24.5026 62.4948 23.3698 64.25 22.6562V22.625ZM67.4453 19.6562C67.4453 19.0833 67.263 18.6354 66.8984 18.3125C66.5391 17.9844 66.0599 17.8203 65.4609 17.8203C64.9089 17.8203 64.4297 17.9922 64.0234 18.3359C63.6172 18.6745 63.4141 19.1042 63.4141 19.625C63.4141 20.6979 64.0781 21.5078 65.4062 22.0547C66.7656 21.4818 67.4453 20.6823 67.4453 19.6562ZM65.3125 23.2891C63.7448 23.9141 62.9609 24.8151 62.9609 25.9922C62.9609 26.6432 63.1953 27.1562 63.6641 27.5312C64.1328 27.901 64.7292 28.0859 65.4531 28.0859C66.151 28.0859 66.7266 27.901 67.1797 27.5312C67.6328 27.1562 67.8594 26.6615 67.8594 26.0469C67.8594 24.8177 67.0104 23.8984 65.3125 23.2891ZM19.8281 44.3125L19.6406 45.1641H17.4062L16.8672 47.7266H19.2812L19.0625 48.5781H16.7031L15.9531 51.9531H14.9297L15.6641 48.5781H13.5469L12.8281 51.9531H11.8125L12.5312 48.5781H10.2812L10.4297 47.7266H12.7109L13.2266 45.1641H10.8516L11.0234 44.3125H13.3984L14.1172 40.8906H15.1328L14.4219 44.3125H16.5547L17.2891 40.8906H18.2812L17.5703 44.3125H19.8281ZM16.4062 45.1641H14.2578L13.6953 47.7266H15.8594L16.4062 45.1641ZM20.9531 47.1953C20.9531 45.0599 21.2995 43.4427 21.9922 42.3438C22.6901 41.2448 23.6953 40.6953 25.0078 40.6953C27.5234 40.6953 28.7812 42.763 28.7812 46.8984C28.7812 48.9089 28.4349 50.4635 27.7422 51.5625C27.0547 52.6562 26.0521 53.2031 24.7344 53.2031C23.5052 53.2031 22.5677 52.6771 21.9219 51.625C21.276 50.5729 20.9531 49.0964 20.9531 47.1953ZM22.2812 47.125C22.2812 50.4375 23.1458 52.0938 24.875 52.0938C26.5885 52.0938 27.4453 50.4141 27.4453 47.0547C27.4453 43.5599 26.6094 41.8125 24.9375 41.8125C23.1667 41.8125 22.2812 43.5833 22.2812 47.125ZM30.2344 47.1953C30.2344 45.0599 30.5807 43.4427 31.2734 42.3438C31.9714 41.2448 32.9766 40.6953 34.2891 40.6953C36.8047 40.6953 38.0625 42.763 38.0625 46.8984C38.0625 48.9089 37.7161 50.4635 37.0234 51.5625C36.3359 52.6562 35.3333 53.2031 34.0156 53.2031C32.7865 53.2031 31.849 52.6771 31.2031 51.625C30.5573 50.5729 30.2344 49.0964 30.2344 47.1953ZM31.5625 47.125C31.5625 50.4375 32.4271 52.0938 34.1562 52.0938C35.8698 52.0938 36.7266 50.4141 36.7266 47.0547C36.7266 43.5599 35.8906 41.8125 34.2188 41.8125C32.4479 41.8125 31.5625 43.5833 31.5625 47.125ZM47.2578 41.2812L42.4297 53H41.0859L45.6328 42.0859H39.5V40.8984H47.2578V41.2812ZM49.1562 51.1094C49.9844 51.7656 50.9167 52.0938 51.9531 52.0938C52.7865 52.0938 53.4635 51.8828 53.9844 51.4609C54.5104 51.0391 54.7734 50.4583 54.7734 49.7188C54.7734 48.1042 53.6354 47.2969 51.3594 47.2969H50.3594V46.1797H51.3125C53.3333 46.1797 54.3438 45.4245 54.3438 43.9141C54.3438 42.513 53.5729 41.8125 52.0312 41.8125C51.1771 41.8125 50.375 42.1068 49.625 42.6953V41.3906C50.3958 40.9271 51.3073 40.6953 52.3594 40.6953C53.3177 40.6953 54.1094 40.9583 54.7344 41.4844C55.3646 42.0104 55.6797 42.7083 55.6797 43.5781C55.6797 45.1615 54.8698 46.1875 53.25 46.6562V46.6875C54.1094 46.7604 54.7995 47.0625 55.3203 47.5938C55.8464 48.125 56.1094 48.7865 56.1094 49.5781C56.1094 50.6823 55.7109 51.5625 54.9141 52.2188C54.1224 52.875 53.1094 53.2031 51.875 53.2031C50.7396 53.2031 49.8333 52.987 49.1562 52.5547V51.1094ZM58.7266 51.2891C59.5495 51.8255 60.388 52.0938 61.2422 52.0938C62.0964 52.0938 62.7917 51.849 63.3281 51.3594C63.8646 50.8646 64.1328 50.2109 64.1328 49.3984C64.1328 48.5807 63.8646 47.9479 63.3281 47.5C62.7917 47.0521 62.0182 46.8281 61.0078 46.8281C60.6901 46.8281 60.0573 46.8594 59.1094 46.9219V40.8984H64.9062V42.0859H60.3516V45.7109C60.8047 45.6849 61.1484 45.6719 61.3828 45.6719C62.6536 45.6719 63.6484 45.9922 64.3672 46.6328C65.0911 47.2682 65.4531 48.1641 65.4531 49.3203C65.4531 50.5234 65.0625 51.4714 64.2812 52.1641C63.5 52.8568 62.474 53.2031 61.2031 53.2031C60.0885 53.2031 59.263 53.0365 58.7266 52.7031V51.2891ZM77.5078 53H76.0312L74.7188 49.5625H69.5312L68.3047 53H66.8203L71.4766 40.8984H72.8281L77.5078 53ZM74.2656 48.3438L72.3281 43.1172C72.276 42.9714 72.2161 42.7057 72.1484 42.3203H72.1094C72.0521 42.6745 71.987 42.9401 71.9141 43.1172L70 48.3438H74.2656Z" fill="white"/>
</svg>
