<svg width="95" height="68" viewBox="0 0 95 68" fill="none" xmlns="http://www.w3.org/2000/svg">
<rect width="95" height="68" rx="6" fill="#595959"/>
<path d="M18.7188 28.3203C18.7188 31.487 17.2188 33.0703 14.2188 33.0703C13.1562 33.0703 12.2214 32.8646 11.4141 32.4531V31.125C12.388 31.6667 13.3203 31.9375 14.2109 31.9375C16.3516 31.9375 17.4219 30.7891 17.4219 28.4922V27.5312H17.3906C16.7135 28.6458 15.7188 29.2031 14.4062 29.2031C13.3229 29.2031 12.4557 28.8151 11.8047 28.0391C11.1536 27.263 10.8281 26.237 10.8281 24.9609C10.8281 23.487 11.1849 22.3177 11.8984 21.4531C12.612 20.5885 13.5729 20.1562 14.7812 20.1562C15.9531 20.1562 16.8229 20.6276 17.3906 21.5703H17.4219V20.3594H18.7188V28.3203ZM17.4219 23.7969C17.4219 23.0938 17.1797 22.4974 16.6953 22.0078C16.2109 21.513 15.6276 21.2656 14.9453 21.2656C14.0807 21.2656 13.3984 21.5833 12.8984 22.2188C12.4036 22.8542 12.1562 23.737 12.1562 24.8672C12.1562 25.8464 12.3958 26.6302 12.875 27.2188C13.3542 27.8021 13.9766 28.0938 14.7422 28.0938C15.5182 28.0938 16.1589 27.8151 16.6641 27.2578C17.1693 26.6953 17.4219 25.9792 17.4219 25.1094V23.7969ZM25.9922 21.6953C25.7526 21.513 25.4062 21.4219 24.9531 21.4219C24.3438 21.4219 23.8411 21.7135 23.4453 22.2969C23.0547 22.875 22.8594 23.6354 22.8594 24.5781V29H21.5547V20.3594H22.8594V22.1484H22.8984C23.0964 21.5339 23.3984 21.0573 23.8047 20.7188C24.2109 20.3802 24.6589 20.2109 25.1484 20.2109C25.5182 20.2109 25.7995 20.25 25.9922 20.3281V21.6953ZM27.7109 20.9766C28.5599 20.4297 29.5312 20.1562 30.625 20.1562C32.6302 20.1562 33.6328 21.2214 33.6328 23.3516V29H32.3281V27.6406H32.2812C31.6823 28.6823 30.7969 29.2031 29.625 29.2031C28.7708 29.2031 28.0964 28.9766 27.6016 28.5234C27.112 28.0651 26.8672 27.4609 26.8672 26.7109C26.8672 25.112 27.8151 24.1771 29.7109 23.9062L32.3203 23.5312C32.3203 22.0312 31.7214 21.2812 30.5234 21.2812C29.4766 21.2812 28.5391 21.638 27.7109 22.3516V20.9766ZM30.2031 24.8984C29.4635 24.9974 28.9479 25.1771 28.6562 25.4375C28.3698 25.6927 28.2266 26.0885 28.2266 26.625C28.2266 27.0573 28.3802 27.4089 28.6875 27.6797C29 27.9505 29.4062 28.0859 29.9062 28.0859C30.599 28.0859 31.1745 27.8385 31.6328 27.3438C32.0911 26.849 32.3203 26.2318 32.3203 25.4922V24.6172L30.2031 24.8984ZM43.0625 20.3594L39.0625 30.4297C38.3646 32.1901 37.3854 33.0703 36.125 33.0703C35.8073 33.0703 35.5234 33.0365 35.2734 32.9688V31.7812C35.5651 31.875 35.8307 31.9219 36.0703 31.9219C36.7734 31.9219 37.2995 31.5 37.6484 30.6562L38.3516 28.9844L34.9844 20.3594H36.4297L38.8125 27.1016C38.8438 27.1953 38.9036 27.401 38.9922 27.7188H39.0391C39.0599 27.6094 39.1146 27.4089 39.2031 27.1172L41.7109 20.3594H43.0625ZM48.9766 24.6953H44.375V23.6562H48.9766V24.6953ZM53.5469 22.625C52.0885 21.9375 51.3594 20.9531 51.3594 19.6719C51.3594 18.7865 51.6979 18.0703 52.375 17.5234C53.0521 16.9714 53.8906 16.6953 54.8906 16.6953C55.7865 16.6953 56.5443 16.9531 57.1641 17.4688C57.7839 17.9792 58.0938 18.651 58.0938 19.4844C58.0938 20.8281 57.3438 21.875 55.8438 22.625V22.6562C57.6094 23.3229 58.4922 24.4167 58.4922 25.9375C58.4922 26.9688 58.125 27.7708 57.3906 28.3438C56.6562 28.9167 55.6745 29.2031 54.4453 29.2031C53.4401 29.2031 52.599 28.9141 51.9219 28.3359C51.25 27.7526 50.9141 26.9922 50.9141 26.0547C50.9141 24.5026 51.7917 23.3698 53.5469 22.6562V22.625ZM56.7422 19.6562C56.7422 19.0833 56.5599 18.6354 56.1953 18.3125C55.8359 17.9844 55.3568 17.8203 54.7578 17.8203C54.2057 17.8203 53.7266 17.9922 53.3203 18.3359C52.9141 18.6745 52.7109 19.1042 52.7109 19.625C52.7109 20.6979 53.375 21.5078 54.7031 22.0547C56.0625 21.4818 56.7422 20.6823 56.7422 19.6562ZM54.6094 23.2891C53.0417 23.9141 52.2578 24.8151 52.2578 25.9922C52.2578 26.6432 52.4922 27.1562 52.9609 27.5312C53.4297 27.901 54.026 28.0859 54.75 28.0859C55.4479 28.0859 56.0234 27.901 56.4766 27.5312C56.9297 27.1562 57.1562 26.6615 57.1562 26.0469C57.1562 24.8177 56.3073 23.8984 54.6094 23.2891ZM19.8281 44.3125L19.6406 45.1641H17.4062L16.8672 47.7266H19.2812L19.0625 48.5781H16.7031L15.9531 51.9531H14.9297L15.6641 48.5781H13.5469L12.8281 51.9531H11.8125L12.5312 48.5781H10.2812L10.4297 47.7266H12.7109L13.2266 45.1641H10.8516L11.0234 44.3125H13.3984L14.1172 40.8906H15.1328L14.4219 44.3125H16.5547L17.2891 40.8906H18.2812L17.5703 44.3125H19.8281ZM16.4062 45.1641H14.2578L13.6953 47.7266H15.8594L16.4062 45.1641ZM21.6016 51.2891C22.4245 51.8255 23.263 52.0938 24.1172 52.0938C24.9714 52.0938 25.6667 51.849 26.2031 51.3594C26.7396 50.8646 27.0078 50.2109 27.0078 49.3984C27.0078 48.5807 26.7396 47.9479 26.2031 47.5C25.6667 47.0521 24.8932 46.8281 23.8828 46.8281C23.5651 46.8281 22.9323 46.8594 21.9844 46.9219V40.8984H27.7812V42.0859H23.2266V45.7109C23.6797 45.6849 24.0234 45.6719 24.2578 45.6719C25.5286 45.6719 26.5234 45.9922 27.2422 46.6328C27.9661 47.2682 28.3281 48.1641 28.3281 49.3203C28.3281 50.5234 27.9375 51.4714 27.1562 52.1641C26.375 52.8568 25.349 53.2031 24.0781 53.2031C22.9635 53.2031 22.138 53.0365 21.6016 52.7031V51.2891ZM30.9609 51.5234C31.6432 51.9036 32.3542 52.0938 33.0938 52.0938C34.1927 52.0938 35.0521 51.6458 35.6719 50.75C36.2917 49.849 36.6016 48.5703 36.6016 46.9141C36.5911 46.9245 36.5807 46.9245 36.5703 46.9141C36.0495 47.9661 35.1432 48.4922 33.8516 48.4922C32.8099 48.4922 31.9583 48.1354 31.2969 47.4219C30.6354 46.7083 30.3047 45.8099 30.3047 44.7266C30.3047 43.5755 30.6562 42.6172 31.3594 41.8516C32.0677 41.0807 33.0026 40.6953 34.1641 40.6953C35.3776 40.6953 36.3073 41.1719 36.9531 42.125C37.599 43.0729 37.9219 44.4375 37.9219 46.2188C37.9219 48.4167 37.4974 50.1302 36.6484 51.3594C35.8047 52.5885 34.6016 53.2031 33.0391 53.2031C32.2318 53.2031 31.5391 53.0677 30.9609 52.7969V51.5234ZM31.6406 44.5312C31.6406 45.375 31.862 46.0521 32.3047 46.5625C32.7474 47.0677 33.3568 47.3203 34.1328 47.3203C34.8203 47.3203 35.388 47.0938 35.8359 46.6406C36.2891 46.1823 36.5156 45.6302 36.5156 44.9844C36.5156 44.0833 36.2891 43.3307 35.8359 42.7266C35.388 42.1172 34.7891 41.8125 34.0391 41.8125C33.3359 41.8125 32.7604 42.0781 32.3125 42.6094C31.8646 43.1354 31.6406 43.776 31.6406 44.5312ZM40.1641 51.2891C40.987 51.8255 41.8255 52.0938 42.6797 52.0938C43.5339 52.0938 44.2292 51.849 44.7656 51.3594C45.3021 50.8646 45.5703 50.2109 45.5703 49.3984C45.5703 48.5807 45.3021 47.9479 44.7656 47.5C44.2292 47.0521 43.4557 46.8281 42.4453 46.8281C42.1276 46.8281 41.4948 46.8594 40.5469 46.9219V40.8984H46.3438V42.0859H41.7891V45.7109C42.2422 45.6849 42.5859 45.6719 42.8203 45.6719C44.0911 45.6719 45.0859 45.9922 45.8047 46.6328C46.5286 47.2682 46.8906 48.1641 46.8906 49.3203C46.8906 50.5234 46.5 51.4714 45.7188 52.1641C44.9375 52.8568 43.9115 53.2031 42.6406 53.2031C41.526 53.2031 40.7005 53.0365 40.1641 52.7031V51.2891ZM49.5234 51.5234C50.2057 51.9036 50.9167 52.0938 51.6562 52.0938C52.7552 52.0938 53.6146 51.6458 54.2344 50.75C54.8542 49.849 55.1641 48.5703 55.1641 46.9141C55.1536 46.9245 55.1432 46.9245 55.1328 46.9141C54.612 47.9661 53.7057 48.4922 52.4141 48.4922C51.3724 48.4922 50.5208 48.1354 49.8594 47.4219C49.1979 46.7083 48.8672 45.8099 48.8672 44.7266C48.8672 43.5755 49.2188 42.6172 49.9219 41.8516C50.6302 41.0807 51.5651 40.6953 52.7266 40.6953C53.9401 40.6953 54.8698 41.1719 55.5156 42.125C56.1615 43.0729 56.4844 44.4375 56.4844 46.2188C56.4844 48.4167 56.0599 50.1302 55.2109 51.3594C54.3672 52.5885 53.1641 53.2031 51.6016 53.2031C50.7943 53.2031 50.1016 53.0677 49.5234 52.7969V51.5234ZM50.2031 44.5312C50.2031 45.375 50.4245 46.0521 50.8672 46.5625C51.3099 47.0677 51.9193 47.3203 52.6953 47.3203C53.3828 47.3203 53.9505 47.0938 54.3984 46.6406C54.8516 46.1823 55.0781 45.6302 55.0781 44.9844C55.0781 44.0833 54.8516 43.3307 54.3984 42.7266C53.9505 42.1172 53.3516 41.8125 52.6016 41.8125C51.8984 41.8125 51.3229 42.0781 50.875 42.6094C50.4271 43.1354 50.2031 43.776 50.2031 44.5312ZM58.7266 51.2891C59.5495 51.8255 60.388 52.0938 61.2422 52.0938C62.0964 52.0938 62.7917 51.849 63.3281 51.3594C63.8646 50.8646 64.1328 50.2109 64.1328 49.3984C64.1328 48.5807 63.8646 47.9479 63.3281 47.5C62.7917 47.0521 62.0182 46.8281 61.0078 46.8281C60.6901 46.8281 60.0573 46.8594 59.1094 46.9219V40.8984H64.9062V42.0859H60.3516V45.7109C60.8047 45.6849 61.1484 45.6719 61.3828 45.6719C62.6536 45.6719 63.6484 45.9922 64.3672 46.6328C65.0911 47.2682 65.4531 48.1641 65.4531 49.3203C65.4531 50.5234 65.0625 51.4714 64.2812 52.1641C63.5 52.8568 62.474 53.2031 61.2031 53.2031C60.0885 53.2031 59.263 53.0365 58.7266 52.7031V51.2891ZM68.0859 51.5234C68.7682 51.9036 69.4792 52.0938 70.2188 52.0938C71.3177 52.0938 72.1771 51.6458 72.7969 50.75C73.4167 49.849 73.7266 48.5703 73.7266 46.9141C73.7161 46.9245 73.7057 46.9245 73.6953 46.9141C73.1745 47.9661 72.2682 48.4922 70.9766 48.4922C69.9349 48.4922 69.0833 48.1354 68.4219 47.4219C67.7604 46.7083 67.4297 45.8099 67.4297 44.7266C67.4297 43.5755 67.7812 42.6172 68.4844 41.8516C69.1927 41.0807 70.1276 40.6953 71.2891 40.6953C72.5026 40.6953 73.4323 41.1719 74.0781 42.125C74.724 43.0729 75.0469 44.4375 75.0469 46.2188C75.0469 48.4167 74.6224 50.1302 73.7734 51.3594C72.9297 52.5885 71.7266 53.2031 70.1641 53.2031C69.3568 53.2031 68.6641 53.0677 68.0859 52.7969V51.5234ZM68.7656 44.5312C68.7656 45.375 68.987 46.0521 69.4297 46.5625C69.8724 47.0677 70.4818 47.3203 71.2578 47.3203C71.9453 47.3203 72.513 47.0938 72.9609 46.6406C73.4141 46.1823 73.6406 45.6302 73.6406 44.9844C73.6406 44.0833 73.4141 43.3307 72.9609 42.7266C72.513 42.1172 71.9141 41.8125 71.1641 41.8125C70.4609 41.8125 69.8854 42.0781 69.4375 42.6094C68.9896 43.1354 68.7656 43.776 68.7656 44.5312Z" fill="white"/>
</svg>
