<svg width="86" height="68" viewBox="0 0 86 68" fill="none" xmlns="http://www.w3.org/2000/svg">
<rect width="86" height="68" rx="6" fill="#E62978"/>
<path d="M12.7188 27.7344V32.9766H11.4141V20.3594H12.7188V21.8906H12.7578C13.4401 20.7344 14.4375 20.1562 15.75 20.1562C16.849 20.1562 17.7161 20.5417 18.3516 21.3125C18.987 22.0781 19.3047 23.1172 19.3047 24.4297C19.3047 25.8672 18.9479 27.0234 18.2344 27.8984C17.526 28.7682 16.5651 29.2031 15.3516 29.2031C14.2266 29.2031 13.362 28.7135 12.7578 27.7344H12.7188ZM12.7188 25.5C12.7188 26.224 12.9609 26.8385 13.4453 27.3438C13.9297 27.8438 14.526 28.0938 15.2344 28.0938C16.0833 28.0938 16.75 27.7656 17.2344 27.1094C17.724 26.4531 17.9688 25.5469 17.9688 24.3906C17.9688 23.4167 17.7396 22.6536 17.2812 22.1016C16.8229 21.5443 16.2135 21.2656 15.4531 21.2656C14.6615 21.2656 14.0078 21.5469 13.4922 22.1094C12.9766 22.6667 12.7188 23.3802 12.7188 24.25V25.5ZM21.3672 17.25C21.3672 17.0052 21.4479 16.7995 21.6094 16.6328C21.776 16.4609 21.9766 16.375 22.2109 16.375C22.4557 16.375 22.6615 16.4609 22.8281 16.6328C23 16.8047 23.0859 17.0104 23.0859 17.25C23.0859 17.4792 23 17.6797 22.8281 17.8516C22.6615 18.0234 22.4557 18.1094 22.2109 18.1094C21.9661 18.1094 21.763 18.026 21.6016 17.8594C21.4453 17.6927 21.3672 17.4896 21.3672 17.25ZM21.5469 29V20.3594H22.8438V29H21.5469ZM32.7969 29H31.4922V24.0625C31.4922 22.1979 30.8099 21.2656 29.4453 21.2656C28.7318 21.2656 28.1458 21.5339 27.6875 22.0703C27.2292 22.6016 27 23.2682 27 24.0703V29H25.6953V20.3594H27V21.8047H27.0391C27.6849 20.7057 28.6302 20.1562 29.875 20.1562C30.8229 20.1562 31.5469 20.4609 32.0469 21.0703C32.5469 21.6797 32.7969 22.5625 32.7969 23.7188V29ZM42.5078 29H40.6562L36.7734 24.8594H36.7344V29H35.4297V16.2109H36.7344V24.3203H36.7734L40.4609 20.3594H42.1875L38.125 24.5391L42.5078 29ZM47.1797 24.6953H42.5781V23.6562H47.1797V24.6953ZM56.1094 18.2891C55.474 17.9714 54.8151 17.8125 54.1328 17.8125C53.0234 17.8125 52.1484 18.2995 51.5078 19.2734C50.8672 20.2422 50.5495 21.5443 50.5547 23.1797H50.5938C51.151 22.0234 52.0755 21.4453 53.3672 21.4453C54.4245 21.4453 55.2682 21.7891 55.8984 22.4766C56.5286 23.1641 56.8438 24.0677 56.8438 25.1875C56.8438 26.3385 56.4896 27.2969 55.7812 28.0625C55.0729 28.8229 54.1693 29.2031 53.0703 29.2031C51.8099 29.2031 50.849 28.7109 50.1875 27.7266C49.5312 26.7422 49.2031 25.3958 49.2031 23.6875C49.2031 21.6406 49.6328 19.9635 50.4922 18.6562C51.3516 17.349 52.5573 16.6953 54.1094 16.6953C54.9531 16.6953 55.6198 16.8125 56.1094 17.0469V18.2891ZM50.6484 25.0391C50.6484 25.8932 50.875 26.6172 51.3281 27.2109C51.7865 27.7995 52.3828 28.0938 53.1172 28.0938C53.8307 28.0938 54.4062 27.8333 54.8438 27.3125C55.2812 26.7917 55.5 26.138 55.5 25.3516C55.5 24.4714 55.2865 23.7865 54.8594 23.2969C54.4323 22.8073 53.8464 22.5625 53.1016 22.5625C52.4193 22.5625 51.8385 22.8021 51.3594 23.2812C50.8854 23.7604 50.6484 24.3464 50.6484 25.0391ZM19.8281 44.3125L19.6406 45.1641H17.4062L16.8672 47.7266H19.2812L19.0625 48.5781H16.7031L15.9531 51.9531H14.9297L15.6641 48.5781H13.5469L12.8281 51.9531H11.8125L12.5312 48.5781H10.2812L10.4297 47.7266H12.7109L13.2266 45.1641H10.8516L11.0234 44.3125H13.3984L14.1172 40.8906H15.1328L14.4219 44.3125H16.5547L17.2891 40.8906H18.2812L17.5703 44.3125H19.8281ZM16.4062 45.1641H14.2578L13.6953 47.7266H15.8594L16.4062 45.1641ZM28.1797 53H21.8203V40.8984H27.9062V42.1172H23.1484V46.2344H27.5469V47.4531H23.1484V51.7812H28.1797V53ZM36.7812 42.2891C36.1458 41.9714 35.487 41.8125 34.8047 41.8125C33.6953 41.8125 32.8203 42.2995 32.1797 43.2734C31.5391 44.2422 31.2214 45.5443 31.2266 47.1797H31.2656C31.8229 46.0234 32.7474 45.4453 34.0391 45.4453C35.0964 45.4453 35.9401 45.7891 36.5703 46.4766C37.2005 47.1641 37.5156 48.0677 37.5156 49.1875C37.5156 50.3385 37.1615 51.2969 36.4531 52.0625C35.7448 52.8229 34.8411 53.2031 33.7422 53.2031C32.4818 53.2031 31.5208 52.7109 30.8594 51.7266C30.2031 50.7422 29.875 49.3958 29.875 47.6875C29.875 45.6406 30.3047 43.9635 31.1641 42.6562C32.0234 41.349 33.2292 40.6953 34.7812 40.6953C35.625 40.6953 36.2917 40.8125 36.7812 41.0469V42.2891ZM31.3203 49.0391C31.3203 49.8932 31.5469 50.6172 32 51.2109C32.4583 51.7995 33.0547 52.0938 33.7891 52.0938C34.5026 52.0938 35.0781 51.8333 35.5156 51.3125C35.9531 50.7917 36.1719 50.138 36.1719 49.3516C36.1719 48.4714 35.9583 47.7865 35.5312 47.2969C35.1042 46.8073 34.5182 46.5625 33.7734 46.5625C33.0911 46.5625 32.5104 46.8021 32.0312 47.2812C31.5573 47.7604 31.3203 48.3464 31.3203 49.0391ZM46.2656 53H39.0234V51.8203L42.5469 48.2734C43.7135 47.0964 44.4297 46.2448 44.6953 45.7188C44.9661 45.1875 45.1016 44.625 45.1016 44.0312C45.1016 43.3177 44.8984 42.7682 44.4922 42.3828C44.0911 41.9974 43.513 41.8047 42.7578 41.8047C41.6797 41.8047 40.6432 42.2708 39.6484 43.2031V41.8125C40.5807 41.0677 41.6745 40.6953 42.9297 40.6953C43.9714 40.6953 44.8047 40.9844 45.4297 41.5625C46.0599 42.1406 46.375 42.9245 46.375 43.9141C46.375 44.6745 46.1667 45.4245 45.75 46.1641C45.3385 46.8984 44.5573 47.8411 43.4062 48.9922L40.5859 51.7812V51.8125H46.2656V53ZM48.9609 51.5234C49.6432 51.9036 50.3542 52.0938 51.0938 52.0938C52.1927 52.0938 53.0521 51.6458 53.6719 50.75C54.2917 49.849 54.6016 48.5703 54.6016 46.9141C54.5911 46.9245 54.5807 46.9245 54.5703 46.9141C54.0495 47.9661 53.1432 48.4922 51.8516 48.4922C50.8099 48.4922 49.9583 48.1354 49.2969 47.4219C48.6354 46.7083 48.3047 45.8099 48.3047 44.7266C48.3047 43.5755 48.6562 42.6172 49.3594 41.8516C50.0677 41.0807 51.0026 40.6953 52.1641 40.6953C53.3776 40.6953 54.3073 41.1719 54.9531 42.125C55.599 43.0729 55.9219 44.4375 55.9219 46.2188C55.9219 48.4167 55.4974 50.1302 54.6484 51.3594C53.8047 52.5885 52.6016 53.2031 51.0391 53.2031C50.2318 53.2031 49.5391 53.0677 48.9609 52.7969V51.5234ZM49.6406 44.5312C49.6406 45.375 49.862 46.0521 50.3047 46.5625C50.7474 47.0677 51.3568 47.3203 52.1328 47.3203C52.8203 47.3203 53.388 47.0938 53.8359 46.6406C54.2891 46.1823 54.5156 45.6302 54.5156 44.9844C54.5156 44.0833 54.2891 43.3307 53.8359 42.7266C53.388 42.1172 52.7891 41.8125 52.0391 41.8125C51.3359 41.8125 50.7604 42.0781 50.3125 42.6094C49.8646 43.1354 49.6406 43.776 49.6406 44.5312ZM65.2578 41.2812L60.4297 53H59.0859L63.6328 42.0859H57.5V40.8984H65.2578V41.2812ZM69.5469 46.625C68.0885 45.9375 67.3594 44.9531 67.3594 43.6719C67.3594 42.7865 67.6979 42.0703 68.375 41.5234C69.0521 40.9714 69.8906 40.6953 70.8906 40.6953C71.7865 40.6953 72.5443 40.9531 73.1641 41.4688C73.7839 41.9792 74.0938 42.651 74.0938 43.4844C74.0938 44.8281 73.3438 45.875 71.8438 46.625V46.6562C73.6094 47.3229 74.4922 48.4167 74.4922 49.9375C74.4922 50.9688 74.125 51.7708 73.3906 52.3438C72.6562 52.9167 71.6745 53.2031 70.4453 53.2031C69.4401 53.2031 68.599 52.9141 67.9219 52.3359C67.25 51.7526 66.9141 50.9922 66.9141 50.0547C66.9141 48.5026 67.7917 47.3698 69.5469 46.6562V46.625ZM72.7422 43.6562C72.7422 43.0833 72.5599 42.6354 72.1953 42.3125C71.8359 41.9844 71.3568 41.8203 70.7578 41.8203C70.2057 41.8203 69.7266 41.9922 69.3203 42.3359C68.9141 42.6745 68.7109 43.1042 68.7109 43.625C68.7109 44.6979 69.375 45.5078 70.7031 46.0547C72.0625 45.4818 72.7422 44.6823 72.7422 43.6562ZM70.6094 47.2891C69.0417 47.9141 68.2578 48.8151 68.2578 49.9922C68.2578 50.6432 68.4922 51.1562 68.9609 51.5312C69.4297 51.901 70.026 52.0859 70.75 52.0859C71.4479 52.0859 72.0234 51.901 72.4766 51.5312C72.9297 51.1562 73.1562 50.6615 73.1562 50.0469C73.1562 48.8177 72.3073 47.8984 70.6094 47.2891Z" fill="#FAFAFA"/>
</svg>
