<svg width="89" height="68" viewBox="0 0 89 68" fill="none" xmlns="http://www.w3.org/2000/svg">
<rect width="89" height="68" rx="6" fill="#00A4EF"/>
<path d="M12.7188 27.7344V29H11.4141V16.2109H12.7188V21.8906H12.7578C13.4401 20.7344 14.4375 20.1562 15.75 20.1562C16.849 20.1562 17.7161 20.5443 18.3516 21.3203C18.987 22.0964 19.3047 23.1328 19.3047 24.4297C19.3047 25.8672 18.9479 27.0234 18.2344 27.8984C17.526 28.7682 16.5651 29.2031 15.3516 29.2031C14.2109 29.2031 13.3464 28.7135 12.7578 27.7344H12.7188ZM12.7188 25.4922C12.7188 26.2266 12.9609 26.8438 13.4453 27.3438C13.9349 27.8438 14.5312 28.0938 15.2344 28.0938C16.0833 28.0938 16.75 27.7656 17.2344 27.1094C17.724 26.4531 17.9688 25.5469 17.9688 24.3906C17.9688 23.4271 17.7422 22.6667 17.2891 22.1094C16.8359 21.5469 16.224 21.2656 15.4531 21.2656C14.6562 21.2656 14 21.5495 13.4844 22.1172C12.974 22.6797 12.7188 23.3932 12.7188 24.2578V25.4922ZM21.5469 29V16.2109H22.8438V29H21.5469ZM32.6094 29H31.3047V27.6328H31.2734C30.7057 28.6797 29.8177 29.2031 28.6094 29.2031C26.5469 29.2031 25.5156 27.9766 25.5156 25.5234V20.3594H26.8047V25.3047C26.8047 27.1641 27.513 28.0938 28.9297 28.0938C29.6276 28.0938 30.1979 27.8359 30.6406 27.3203C31.0833 26.8047 31.3047 26.1432 31.3047 25.3359V20.3594H32.6094V29ZM42.3203 25H36.1953C36.2214 25.9948 36.4844 26.7578 36.9844 27.2891C37.4844 27.8203 38.1693 28.0859 39.0391 28.0859C40.013 28.0859 40.9115 27.7604 41.7344 27.1094V28.3594C40.9792 28.9219 39.9792 29.2031 38.7344 29.2031C37.5312 29.2031 36.5807 28.8099 35.8828 28.0234C35.1901 27.237 34.8438 26.1302 34.8438 24.7031C34.8438 23.3906 35.2188 22.3047 35.9688 21.4453C36.724 20.5859 37.6667 20.1562 38.7969 20.1562C39.9062 20.1562 40.7708 20.5208 41.3906 21.25C42.0104 21.9792 42.3203 22.9948 42.3203 24.2969V25ZM40.9766 23.8516C40.9714 23.0391 40.776 22.4089 40.3906 21.9609C40.0052 21.5078 39.4661 21.2812 38.7734 21.2812C38.1432 21.2812 37.5885 21.5078 37.1094 21.9609C36.6354 22.4141 36.3359 23.0443 36.2109 23.8516H40.9766ZM48.8516 24.6953H44.25V23.6562H48.8516V24.6953ZM57.7812 18.2891C57.1458 17.9714 56.487 17.8125 55.8047 17.8125C54.6953 17.8125 53.8203 18.2995 53.1797 19.2734C52.5391 20.2422 52.2214 21.5443 52.2266 23.1797H52.2656C52.8229 22.0234 53.7474 21.4453 55.0391 21.4453C56.0964 21.4453 56.9401 21.7891 57.5703 22.4766C58.2005 23.1641 58.5156 24.0677 58.5156 25.1875C58.5156 26.3385 58.1615 27.2969 57.4531 28.0625C56.7448 28.8229 55.8411 29.2031 54.7422 29.2031C53.4818 29.2031 52.5208 28.7109 51.8594 27.7266C51.2031 26.7422 50.875 25.3958 50.875 23.6875C50.875 21.6406 51.3047 19.9635 52.1641 18.6562C53.0234 17.349 54.2292 16.6953 55.7812 16.6953C56.625 16.6953 57.2917 16.8125 57.7812 17.0469V18.2891ZM52.3203 25.0391C52.3203 25.8932 52.5469 26.6172 53 27.2109C53.4583 27.7995 54.0547 28.0938 54.7891 28.0938C55.5026 28.0938 56.0781 27.8333 56.5156 27.3125C56.9531 26.7917 57.1719 26.138 57.1719 25.3516C57.1719 24.4714 56.9583 23.7865 56.5312 23.2969C56.1042 22.8073 55.5182 22.5625 54.7734 22.5625C54.0911 22.5625 53.5104 22.8021 53.0312 23.2812C52.5573 23.7604 52.3203 24.3464 52.3203 25.0391ZM19.8281 44.3125L19.6406 45.1641H17.4062L16.8672 47.7266H19.2812L19.0625 48.5781H16.7031L15.9531 51.9531H14.9297L15.6641 48.5781H13.5469L12.8281 51.9531H11.8125L12.5312 48.5781H10.2812L10.4297 47.7266H12.7109L13.2266 45.1641H10.8516L11.0234 44.3125H13.3984L14.1172 40.8906H15.1328L14.4219 44.3125H16.5547L17.2891 40.8906H18.2812L17.5703 44.3125H19.8281ZM16.4062 45.1641H14.2578L13.6953 47.7266H15.8594L16.4062 45.1641ZM20.9531 47.1953C20.9531 45.0599 21.2995 43.4427 21.9922 42.3438C22.6901 41.2448 23.6953 40.6953 25.0078 40.6953C27.5234 40.6953 28.7812 42.763 28.7812 46.8984C28.7812 48.9089 28.4349 50.4635 27.7422 51.5625C27.0547 52.6562 26.0521 53.2031 24.7344 53.2031C23.5052 53.2031 22.5677 52.6771 21.9219 51.625C21.276 50.5729 20.9531 49.0964 20.9531 47.1953ZM22.2812 47.125C22.2812 50.4375 23.1458 52.0938 24.875 52.0938C26.5885 52.0938 27.4453 50.4141 27.4453 47.0547C27.4453 43.5599 26.6094 41.8125 24.9375 41.8125C23.1667 41.8125 22.2812 43.5833 22.2812 47.125ZM30.2344 47.1953C30.2344 45.0599 30.5807 43.4427 31.2734 42.3438C31.9714 41.2448 32.9766 40.6953 34.2891 40.6953C36.8047 40.6953 38.0625 42.763 38.0625 46.8984C38.0625 48.9089 37.7161 50.4635 37.0234 51.5625C36.3359 52.6562 35.3333 53.2031 34.0156 53.2031C32.7865 53.2031 31.849 52.6771 31.2031 51.625C30.5573 50.5729 30.2344 49.0964 30.2344 47.1953ZM31.5625 47.125C31.5625 50.4375 32.4271 52.0938 34.1562 52.0938C35.8698 52.0938 36.7266 50.4141 36.7266 47.0547C36.7266 43.5599 35.8906 41.8125 34.2188 41.8125C32.4479 41.8125 31.5625 43.5833 31.5625 47.125ZM49.6641 53H48.1875L46.875 49.5625H41.6875L40.4609 53H38.9766L43.6328 40.8984H44.9844L49.6641 53ZM46.4219 48.3438L44.4844 43.1172C44.4323 42.9714 44.3724 42.7057 44.3047 42.3203H44.2656C44.2083 42.6745 44.1432 42.9401 44.0703 43.1172L42.1562 48.3438H46.4219ZM58.5547 49.75H56.9922V53H55.6953V49.75H49.9766V48.8906L55.3828 40.8984H56.9922V48.6719H58.5547V49.75ZM55.6953 48.6719V43.3438C55.6953 42.974 55.7057 42.5547 55.7266 42.0859H55.6953C55.6536 42.2005 55.5 42.5104 55.2344 43.0156L51.4297 48.6719H55.6953ZM67.1172 53H60.7578V40.8984H66.8438V42.1172H62.0859V46.2344H66.4844V47.4531H62.0859V51.7812H67.1172V53ZM75.5625 42.1172H70.8047V46.3828H75.2109V47.6016H70.8047V53H69.4766V40.8984H75.5625V42.1172Z" fill="#FAFAFA"/>
</svg>
