<svg width="90" height="68" viewBox="0 0 90 68" fill="none" xmlns="http://www.w3.org/2000/svg">
<rect width="90" height="68" rx="6" fill="#FF9900"/>
<path d="M10.8281 24.7891C10.8281 23.3516 11.2188 22.2214 12 21.3984C12.7865 20.5703 13.8542 20.1562 15.2031 20.1562C16.474 20.1562 17.4688 20.5547 18.1875 21.3516C18.9115 22.1484 19.2734 23.25 19.2734 24.6562C19.2734 26.0208 18.8828 27.1198 18.1016 27.9531C17.3203 28.7865 16.2865 29.2031 15 29.2031C13.7552 29.2031 12.7474 28.8021 11.9766 28C11.2109 27.1979 10.8281 26.1276 10.8281 24.7891ZM12.1562 24.7344C12.1562 25.7552 12.4219 26.5703 12.9531 27.1797C13.4896 27.7891 14.2031 28.0938 15.0938 28.0938C16 28.0938 16.7005 27.7969 17.1953 27.2031C17.6953 26.6094 17.9453 25.776 17.9453 24.7031C17.9453 23.6042 17.6979 22.7578 17.2031 22.1641C16.7135 21.5651 16.0104 21.2656 15.0938 21.2656C14.1979 21.2656 13.4844 21.5755 12.9531 22.1953C12.4219 22.8099 12.1562 23.6562 12.1562 24.7344ZM25.9453 21.6953C25.7057 21.513 25.3594 21.4219 24.9062 21.4219C24.2969 21.4219 23.7943 21.7135 23.3984 22.2969C23.0078 22.875 22.8125 23.6354 22.8125 24.5781V29H21.5078V20.3594H22.8125V22.1484H22.8516C23.0495 21.5339 23.3516 21.0573 23.7578 20.7188C24.1641 20.3802 24.612 20.2109 25.1016 20.2109C25.4714 20.2109 25.7526 20.25 25.9453 20.3281V21.6953ZM27.6641 20.9766C28.513 20.4297 29.4844 20.1562 30.5781 20.1562C32.5833 20.1562 33.5859 21.2214 33.5859 23.3516V29H32.2812V27.6406H32.2344C31.6354 28.6823 30.75 29.2031 29.5781 29.2031C28.724 29.2031 28.0495 28.9766 27.5547 28.5234C27.0651 28.0651 26.8203 27.4609 26.8203 26.7109C26.8203 25.112 27.7682 24.1771 29.6641 23.9062L32.2734 23.5312C32.2734 22.0312 31.6745 21.2812 30.4766 21.2812C29.4297 21.2812 28.4922 21.638 27.6641 22.3516V20.9766ZM30.1562 24.8984C29.4167 24.9974 28.901 25.1771 28.6094 25.4375C28.3229 25.6927 28.1797 26.0885 28.1797 26.625C28.1797 27.0573 28.3333 27.4089 28.6406 27.6797C28.9531 27.9505 29.3594 28.0859 29.8594 28.0859C30.5521 28.0859 31.1276 27.8385 31.5859 27.3438C32.0443 26.849 32.2734 26.2318 32.2734 25.4922V24.6172L30.1562 24.8984ZM43.3281 29H42.0234V24.0625C42.0234 22.1979 41.3411 21.2656 39.9766 21.2656C39.263 21.2656 38.6771 21.5339 38.2188 22.0703C37.7604 22.6016 37.5312 23.2682 37.5312 24.0703V29H36.2266V20.3594H37.5312V21.8047H37.5703C38.2161 20.7057 39.1615 20.1562 40.4062 20.1562C41.3542 20.1562 42.0781 20.4609 42.5781 21.0703C43.0781 21.6797 43.3281 22.5625 43.3281 23.7188V29ZM53.2656 28.3203C53.2656 31.487 51.7656 33.0703 48.7656 33.0703C47.7031 33.0703 46.7682 32.8646 45.9609 32.4531V31.125C46.9349 31.6667 47.8672 31.9375 48.7578 31.9375C50.8984 31.9375 51.9688 30.7891 51.9688 28.4922V27.5312H51.9375C51.2604 28.6458 50.2656 29.2031 48.9531 29.2031C47.8698 29.2031 47.0026 28.8151 46.3516 28.0391C45.7005 27.263 45.375 26.237 45.375 24.9609C45.375 23.487 45.7318 22.3177 46.4453 21.4531C47.1589 20.5885 48.1198 20.1562 49.3281 20.1562C50.5 20.1562 51.3698 20.6276 51.9375 21.5703H51.9688V20.3594H53.2656V28.3203ZM51.9688 23.7969C51.9688 23.0938 51.7266 22.4974 51.2422 22.0078C50.7578 21.513 50.1745 21.2656 49.4922 21.2656C48.6276 21.2656 47.9453 21.5833 47.4453 22.2188C46.9505 22.8542 46.7031 23.737 46.7031 24.8672C46.7031 25.8464 46.9427 26.6302 47.4219 27.2188C47.901 27.8021 48.5234 28.0938 49.2891 28.0938C50.0651 28.0938 50.7057 27.8151 51.2109 27.2578C51.7161 26.6953 51.9688 25.9792 51.9688 25.1094V23.7969ZM62.9922 25H56.8672C56.8932 25.9948 57.1562 26.7578 57.6562 27.2891C58.1562 27.8203 58.8411 28.0859 59.7109 28.0859C60.6849 28.0859 61.5833 27.7604 62.4062 27.1094V28.3594C61.651 28.9219 60.651 29.2031 59.4062 29.2031C58.2031 29.2031 57.2526 28.8099 56.5547 28.0234C55.862 27.237 55.5156 26.1302 55.5156 24.7031C55.5156 23.3906 55.8906 22.3047 56.6406 21.4453C57.3958 20.5859 58.3385 20.1562 59.4688 20.1562C60.5781 20.1562 61.4427 20.5208 62.0625 21.25C62.6823 21.9792 62.9922 22.9948 62.9922 24.2969V25ZM61.6484 23.8516C61.6432 23.0391 61.4479 22.4089 61.0625 21.9609C60.6771 21.5078 60.138 21.2812 59.4453 21.2812C58.8151 21.2812 58.2604 21.5078 57.7812 21.9609C57.3073 22.4141 57.0078 23.0443 56.8828 23.8516H61.6484ZM69.5234 24.6953H64.9219V23.6562H69.5234V24.6953ZM78.4531 18.2891C77.8177 17.9714 77.1589 17.8125 76.4766 17.8125C75.3672 17.8125 74.4922 18.2995 73.8516 19.2734C73.2109 20.2422 72.8932 21.5443 72.8984 23.1797H72.9375C73.4948 22.0234 74.4193 21.4453 75.7109 21.4453C76.7682 21.4453 77.612 21.7891 78.2422 22.4766C78.8724 23.1641 79.1875 24.0677 79.1875 25.1875C79.1875 26.3385 78.8333 27.2969 78.125 28.0625C77.4167 28.8229 76.513 29.2031 75.4141 29.2031C74.1536 29.2031 73.1927 28.7109 72.5312 27.7266C71.875 26.7422 71.5469 25.3958 71.5469 23.6875C71.5469 21.6406 71.9766 19.9635 72.8359 18.6562C73.6953 17.349 74.901 16.6953 76.4531 16.6953C77.2969 16.6953 77.9635 16.8125 78.4531 17.0469V18.2891ZM72.9922 25.0391C72.9922 25.8932 73.2188 26.6172 73.6719 27.2109C74.1302 27.7995 74.7266 28.0938 75.4609 28.0938C76.1745 28.0938 76.75 27.8333 77.1875 27.3125C77.625 26.7917 77.8438 26.138 77.8438 25.3516C77.8438 24.4714 77.6302 23.7865 77.2031 23.2969C76.776 22.8073 76.1901 22.5625 75.4453 22.5625C74.763 22.5625 74.1823 22.8021 73.7031 23.2812C73.2292 23.7604 72.9922 24.3464 72.9922 25.0391ZM19.8281 44.3125L19.6406 45.1641H17.4062L16.8672 47.7266H19.2812L19.0625 48.5781H16.7031L15.9531 51.9531H14.9297L15.6641 48.5781H13.5469L12.8281 51.9531H11.8125L12.5312 48.5781H10.2812L10.4297 47.7266H12.7109L13.2266 45.1641H10.8516L11.0234 44.3125H13.3984L14.1172 40.8906H15.1328L14.4219 44.3125H16.5547L17.2891 40.8906H18.2812L17.5703 44.3125H19.8281ZM16.4062 45.1641H14.2578L13.6953 47.7266H15.8594L16.4062 45.1641ZM27.9062 42.1172H23.1484V46.3828H27.5547V47.6016H23.1484V53H21.8203V40.8984H27.9062V42.1172ZM36.3125 42.1172H31.5547V46.3828H35.9609V47.6016H31.5547V53H30.2266V40.8984H36.3125V42.1172ZM38.4922 51.5234C39.1745 51.9036 39.8854 52.0938 40.625 52.0938C41.724 52.0938 42.5833 51.6458 43.2031 50.75C43.8229 49.849 44.1328 48.5703 44.1328 46.9141C44.1224 46.9245 44.112 46.9245 44.1016 46.9141C43.5807 47.9661 42.6745 48.4922 41.3828 48.4922C40.3411 48.4922 39.4896 48.1354 38.8281 47.4219C38.1667 46.7083 37.8359 45.8099 37.8359 44.7266C37.8359 43.5755 38.1875 42.6172 38.8906 41.8516C39.599 41.0807 40.5339 40.6953 41.6953 40.6953C42.9089 40.6953 43.8385 41.1719 44.4844 42.125C45.1302 43.0729 45.4531 44.4375 45.4531 46.2188C45.4531 48.4167 45.0286 50.1302 44.1797 51.3594C43.3359 52.5885 42.1328 53.2031 40.5703 53.2031C39.763 53.2031 39.0703 53.0677 38.4922 52.7969V51.5234ZM39.1719 44.5312C39.1719 45.375 39.3932 46.0521 39.8359 46.5625C40.2786 47.0677 40.888 47.3203 41.6641 47.3203C42.3516 47.3203 42.9193 47.0938 43.3672 46.6406C43.8203 46.1823 44.0469 45.6302 44.0469 44.9844C44.0469 44.0833 43.8203 43.3307 43.3672 42.7266C42.9193 42.1172 42.3203 41.8125 41.5703 41.8125C40.8672 41.8125 40.2917 42.0781 39.8438 42.6094C39.3958 43.1354 39.1719 43.776 39.1719 44.5312ZM47.7734 51.5234C48.4557 51.9036 49.1667 52.0938 49.9062 52.0938C51.0052 52.0938 51.8646 51.6458 52.4844 50.75C53.1042 49.849 53.4141 48.5703 53.4141 46.9141C53.4036 46.9245 53.3932 46.9245 53.3828 46.9141C52.862 47.9661 51.9557 48.4922 50.6641 48.4922C49.6224 48.4922 48.7708 48.1354 48.1094 47.4219C47.4479 46.7083 47.1172 45.8099 47.1172 44.7266C47.1172 43.5755 47.4688 42.6172 48.1719 41.8516C48.8802 41.0807 49.8151 40.6953 50.9766 40.6953C52.1901 40.6953 53.1198 41.1719 53.7656 42.125C54.4115 43.0729 54.7344 44.4375 54.7344 46.2188C54.7344 48.4167 54.3099 50.1302 53.4609 51.3594C52.6172 52.5885 51.4141 53.2031 49.8516 53.2031C49.0443 53.2031 48.3516 53.0677 47.7734 52.7969V51.5234ZM48.4531 44.5312C48.4531 45.375 48.6745 46.0521 49.1172 46.5625C49.5599 47.0677 50.1693 47.3203 50.9453 47.3203C51.6328 47.3203 52.2005 47.0938 52.6484 46.6406C53.1016 46.1823 53.3281 45.6302 53.3281 44.9844C53.3281 44.0833 53.1016 43.3307 52.6484 42.7266C52.2005 42.1172 51.6016 41.8125 50.8516 41.8125C50.1484 41.8125 49.5729 42.0781 49.125 42.6094C48.6771 43.1354 48.4531 43.776 48.4531 44.5312ZM56.3281 47.1953C56.3281 45.0599 56.6745 43.4427 57.3672 42.3438C58.0651 41.2448 59.0703 40.6953 60.3828 40.6953C62.8984 40.6953 64.1562 42.763 64.1562 46.8984C64.1562 48.9089 63.8099 50.4635 63.1172 51.5625C62.4297 52.6562 61.4271 53.2031 60.1094 53.2031C58.8802 53.2031 57.9427 52.6771 57.2969 51.625C56.651 50.5729 56.3281 49.0964 56.3281 47.1953ZM57.6562 47.125C57.6562 50.4375 58.5208 52.0938 60.25 52.0938C61.9635 52.0938 62.8203 50.4141 62.8203 47.0547C62.8203 43.5599 61.9844 41.8125 60.3125 41.8125C58.5417 41.8125 57.6562 43.5833 57.6562 47.125ZM65.6094 47.1953C65.6094 45.0599 65.9557 43.4427 66.6484 42.3438C67.3464 41.2448 68.3516 40.6953 69.6641 40.6953C72.1797 40.6953 73.4375 42.763 73.4375 46.8984C73.4375 48.9089 73.0911 50.4635 72.3984 51.5625C71.7109 52.6562 70.7083 53.2031 69.3906 53.2031C68.1615 53.2031 67.224 52.6771 66.5781 51.625C65.9323 50.5729 65.6094 49.0964 65.6094 47.1953ZM66.9375 47.125C66.9375 50.4375 67.8021 52.0938 69.5312 52.0938C71.2448 52.0938 72.1016 50.4141 72.1016 47.0547C72.1016 43.5599 71.2656 41.8125 69.5938 41.8125C67.8229 41.8125 66.9375 43.5833 66.9375 47.125Z" fill="#434343"/>
</svg>
