<svg width="95" height="68" viewBox="0 0 95 68" fill="none" xmlns="http://www.w3.org/2000/svg">
<rect width="95" height="68" rx="6" fill="#D97B00"/>
<path d="M10.8281 24.7891C10.8281 23.3516 11.2188 22.2214 12 21.3984C12.7865 20.5703 13.8542 20.1562 15.2031 20.1562C16.474 20.1562 17.4688 20.5547 18.1875 21.3516C18.9115 22.1484 19.2734 23.25 19.2734 24.6562C19.2734 26.0208 18.8828 27.1198 18.1016 27.9531C17.3203 28.7865 16.2865 29.2031 15 29.2031C13.7552 29.2031 12.7474 28.8021 11.9766 28C11.2109 27.1979 10.8281 26.1276 10.8281 24.7891ZM12.1562 24.7344C12.1562 25.7552 12.4219 26.5703 12.9531 27.1797C13.4896 27.7891 14.2031 28.0938 15.0938 28.0938C16 28.0938 16.7005 27.7969 17.1953 27.2031C17.6953 26.6094 17.9453 25.776 17.9453 24.7031C17.9453 23.6042 17.6979 22.7578 17.2031 22.1641C16.7135 21.5651 16.0104 21.2656 15.0938 21.2656C14.1979 21.2656 13.4844 21.5755 12.9531 22.1953C12.4219 22.8099 12.1562 23.6562 12.1562 24.7344ZM25.9453 21.6953C25.7057 21.513 25.3594 21.4219 24.9062 21.4219C24.2969 21.4219 23.7943 21.7135 23.3984 22.2969C23.0078 22.875 22.8125 23.6354 22.8125 24.5781V29H21.5078V20.3594H22.8125V22.1484H22.8516C23.0495 21.5339 23.3516 21.0573 23.7578 20.7188C24.1641 20.3802 24.612 20.2109 25.1016 20.2109C25.4714 20.2109 25.7526 20.25 25.9453 20.3281V21.6953ZM27.6641 20.9766C28.513 20.4297 29.4844 20.1562 30.5781 20.1562C32.5833 20.1562 33.5859 21.2214 33.5859 23.3516V29H32.2812V27.6406H32.2344C31.6354 28.6823 30.75 29.2031 29.5781 29.2031C28.724 29.2031 28.0495 28.9766 27.5547 28.5234C27.0651 28.0651 26.8203 27.4609 26.8203 26.7109C26.8203 25.112 27.7682 24.1771 29.6641 23.9062L32.2734 23.5312C32.2734 22.0312 31.6745 21.2812 30.4766 21.2812C29.4297 21.2812 28.4922 21.638 27.6641 22.3516V20.9766ZM30.1562 24.8984C29.4167 24.9974 28.901 25.1771 28.6094 25.4375C28.3229 25.6927 28.1797 26.0885 28.1797 26.625C28.1797 27.0573 28.3333 27.4089 28.6406 27.6797C28.9531 27.9505 29.3594 28.0859 29.8594 28.0859C30.5521 28.0859 31.1276 27.8385 31.5859 27.3438C32.0443 26.849 32.2734 26.2318 32.2734 25.4922V24.6172L30.1562 24.8984ZM43.3281 29H42.0234V24.0625C42.0234 22.1979 41.3411 21.2656 39.9766 21.2656C39.263 21.2656 38.6771 21.5339 38.2188 22.0703C37.7604 22.6016 37.5312 23.2682 37.5312 24.0703V29H36.2266V20.3594H37.5312V21.8047H37.5703C38.2161 20.7057 39.1615 20.1562 40.4062 20.1562C41.3542 20.1562 42.0781 20.4609 42.5781 21.0703C43.0781 21.6797 43.3281 22.5625 43.3281 23.7188V29ZM53.2656 28.3203C53.2656 31.487 51.7656 33.0703 48.7656 33.0703C47.7031 33.0703 46.7682 32.8646 45.9609 32.4531V31.125C46.9349 31.6667 47.8672 31.9375 48.7578 31.9375C50.8984 31.9375 51.9688 30.7891 51.9688 28.4922V27.5312H51.9375C51.2604 28.6458 50.2656 29.2031 48.9531 29.2031C47.8698 29.2031 47.0026 28.8151 46.3516 28.0391C45.7005 27.263 45.375 26.237 45.375 24.9609C45.375 23.487 45.7318 22.3177 46.4453 21.4531C47.1589 20.5885 48.1198 20.1562 49.3281 20.1562C50.5 20.1562 51.3698 20.6276 51.9375 21.5703H51.9688V20.3594H53.2656V28.3203ZM51.9688 23.7969C51.9688 23.0938 51.7266 22.4974 51.2422 22.0078C50.7578 21.513 50.1745 21.2656 49.4922 21.2656C48.6276 21.2656 47.9453 21.5833 47.4453 22.2188C46.9505 22.8542 46.7031 23.737 46.7031 24.8672C46.7031 25.8464 46.9427 26.6302 47.4219 27.2188C47.901 27.8021 48.5234 28.0938 49.2891 28.0938C50.0651 28.0938 50.7057 27.8151 51.2109 27.2578C51.7161 26.6953 51.9688 25.9792 51.9688 25.1094V23.7969ZM62.9922 25H56.8672C56.8932 25.9948 57.1562 26.7578 57.6562 27.2891C58.1562 27.8203 58.8411 28.0859 59.7109 28.0859C60.6849 28.0859 61.5833 27.7604 62.4062 27.1094V28.3594C61.651 28.9219 60.651 29.2031 59.4062 29.2031C58.2031 29.2031 57.2526 28.8099 56.5547 28.0234C55.862 27.237 55.5156 26.1302 55.5156 24.7031C55.5156 23.3906 55.8906 22.3047 56.6406 21.4453C57.3958 20.5859 58.3385 20.1562 59.4688 20.1562C60.5781 20.1562 61.4427 20.5208 62.0625 21.25C62.6823 21.9792 62.9922 22.9948 62.9922 24.2969V25ZM61.6484 23.8516C61.6432 23.0391 61.4479 22.4089 61.0625 21.9609C60.6771 21.5078 60.138 21.2812 59.4453 21.2812C58.8151 21.2812 58.2604 21.5078 57.7812 21.9609C57.3073 22.4141 57.0078 23.0443 56.8828 23.8516H61.6484ZM69.5234 24.6953H64.9219V23.6562H69.5234V24.6953ZM79.0859 17.2812L74.2578 29H72.9141L77.4609 18.0859H71.3281V16.8984H79.0859V17.2812ZM19.8281 44.3125L19.6406 45.1641H17.4062L16.8672 47.7266H19.2812L19.0625 48.5781H16.7031L15.9531 51.9531H14.9297L15.6641 48.5781H13.5469L12.8281 51.9531H11.8125L12.5312 48.5781H10.2812L10.4297 47.7266H12.7109L13.2266 45.1641H10.8516L11.0234 44.3125H13.3984L14.1172 40.8906H15.1328L14.4219 44.3125H16.5547L17.2891 40.8906H18.2812L17.5703 44.3125H19.8281ZM16.4062 45.1641H14.2578L13.6953 47.7266H15.8594L16.4062 45.1641ZM21.8203 53V40.8984H25.1016C29.3568 40.8984 31.4844 42.8646 31.4844 46.7969C31.4844 48.6823 30.9115 50.1875 29.7656 51.3125C28.6198 52.4375 27.0234 53 24.9766 53H21.8203ZM23.1484 42.1172V51.7812H24.9922C26.6016 51.7812 27.8542 51.349 28.75 50.4844C29.6458 49.6198 30.0938 48.4036 30.0938 46.8359C30.0938 43.6901 28.4193 42.1172 25.0703 42.1172H23.1484ZM33.7578 51.5234C34.4401 51.9036 35.151 52.0938 35.8906 52.0938C36.9896 52.0938 37.849 51.6458 38.4688 50.75C39.0885 49.849 39.3984 48.5703 39.3984 46.9141C39.388 46.9245 39.3776 46.9245 39.3672 46.9141C38.8464 47.9661 37.9401 48.4922 36.6484 48.4922C35.6068 48.4922 34.7552 48.1354 34.0938 47.4219C33.4323 46.7083 33.1016 45.8099 33.1016 44.7266C33.1016 43.5755 33.4531 42.6172 34.1562 41.8516C34.8646 41.0807 35.7995 40.6953 36.9609 40.6953C38.1745 40.6953 39.1042 41.1719 39.75 42.125C40.3958 43.0729 40.7188 44.4375 40.7188 46.2188C40.7188 48.4167 40.2943 50.1302 39.4453 51.3594C38.6016 52.5885 37.3984 53.2031 35.8359 53.2031C35.0286 53.2031 34.3359 53.0677 33.7578 52.7969V51.5234ZM34.4375 44.5312C34.4375 45.375 34.6589 46.0521 35.1016 46.5625C35.5443 47.0677 36.1536 47.3203 36.9297 47.3203C37.6172 47.3203 38.1849 47.0938 38.6328 46.6406C39.0859 46.1823 39.3125 45.6302 39.3125 44.9844C39.3125 44.0833 39.0859 43.3307 38.6328 42.7266C38.1849 42.1172 37.5859 41.8125 36.8359 41.8125C36.1328 41.8125 35.5573 42.0781 35.1094 42.6094C34.6615 43.1354 34.4375 43.776 34.4375 44.5312ZM50.0547 41.2812L45.2266 53H43.8828L48.4297 42.0859H42.2969V40.8984H50.0547V41.2812ZM52.4609 53V40.8984H55.8438C56.849 40.8984 57.6589 41.151 58.2734 41.6562C58.888 42.1615 59.1953 42.8307 59.1953 43.6641C59.1953 44.3411 59.013 44.9349 58.6484 45.4453C58.2891 45.9557 57.7786 46.3229 57.1172 46.5469V46.5781C57.9245 46.6562 58.5729 46.9583 59.0625 47.4844C59.5573 48.0104 59.8047 48.6927 59.8047 49.5312C59.8047 50.5573 59.4349 51.3932 58.6953 52.0391C57.9609 52.6797 57.0312 53 55.9062 53H52.4609ZM53.7891 42.1328V46.1094H55.2578C56.0599 46.1094 56.6849 45.9193 57.1328 45.5391C57.5807 45.1536 57.8047 44.6172 57.8047 43.9297C57.8047 42.7318 57.0234 42.1328 55.4609 42.1328H53.7891ZM53.7891 47.3359V51.7656H55.75C56.5833 51.7656 57.2344 51.5677 57.7031 51.1719C58.1771 50.7708 58.4141 50.2188 58.4141 49.5156C58.4141 48.0625 57.4193 47.3359 55.4297 47.3359H53.7891ZM61.4219 47.1953C61.4219 45.0599 61.7682 43.4427 62.4609 42.3438C63.1589 41.2448 64.1641 40.6953 65.4766 40.6953C67.9922 40.6953 69.25 42.763 69.25 46.8984C69.25 48.9089 68.9036 50.4635 68.2109 51.5625C67.5234 52.6562 66.5208 53.2031 65.2031 53.2031C63.974 53.2031 63.0365 52.6771 62.3906 51.625C61.7448 50.5729 61.4219 49.0964 61.4219 47.1953ZM62.75 47.125C62.75 50.4375 63.6146 52.0938 65.3438 52.0938C67.0573 52.0938 67.9141 50.4141 67.9141 47.0547C67.9141 43.5599 67.0781 41.8125 65.4062 41.8125C63.6354 41.8125 62.75 43.5833 62.75 47.125ZM70.7031 47.1953C70.7031 45.0599 71.0495 43.4427 71.7422 42.3438C72.4401 41.2448 73.4453 40.6953 74.7578 40.6953C77.2734 40.6953 78.5312 42.763 78.5312 46.8984C78.5312 48.9089 78.1849 50.4635 77.4922 51.5625C76.8047 52.6562 75.8021 53.2031 74.4844 53.2031C73.2552 53.2031 72.3177 52.6771 71.6719 51.625C71.026 50.5729 70.7031 49.0964 70.7031 47.1953ZM72.0312 47.125C72.0312 50.4375 72.8958 52.0938 74.625 52.0938C76.3385 52.0938 77.1953 50.4141 77.1953 47.0547C77.1953 43.5599 76.3594 41.8125 74.6875 41.8125C72.9167 41.8125 72.0312 43.5833 72.0312 47.125Z" fill="white"/>
</svg>
