<?xml version="1.0" encoding="utf-8"?>
<!-- Generator: Adobe Illustrator 25.2.1, SVG Export Plug-In . SVG Version: 6.00 Build 0)  -->
<svg version="1.1" id="圖層_1" xmlns="http://www.w3.org/2000/svg" xmlns:xlink="http://www.w3.org/1999/xlink" x="0px" y="0px"
	 viewBox="0 0 300 154" style="enable-background:new 0 0 300 154;" xml:space="preserve">
<style type="text/css">
	.st0{fill:#FFFFFF;stroke:#D9D9D9;}
	.st1{fill:#ACACAC;stroke:#ACACAC;}
</style>
<path class="st0" d="M4,0.5h292c1.9,0,3.5,1.6,3.5,3.5v47.5H0.5V4C0.5,2.1,2.1,0.5,4,0.5z"/>
<rect x="0.5" y="51.2" class="st0" width="299" height="51"/>
<rect x="0.5" y="102" class="st0" width="299" height="51"/>
<path class="st1" d="M24,16.5h12c1.9,0,3.5,1.6,3.5,3.5v12c0,1.9-1.6,3.5-3.5,3.5H24c-1.9,0-3.5-1.6-3.5-3.5V20
	C20.5,18.1,22.1,16.5,24,16.5z"/>
<path class="st1" d="M24,67.5h12c1.9,0,3.5,1.6,3.5,3.5v12c0,1.9-1.6,3.5-3.5,3.5H24c-1.9,0-3.5-1.6-3.5-3.5V71
	C20.5,69.1,22.1,67.5,24,67.5z"/>
<path class="st1" d="M24,117.5h12c1.9,0,3.5,1.6,3.5,3.5v12c0,1.9-1.6,3.5-3.5,3.5H24c-1.9,0-3.5-1.6-3.5-3.5v-12
	C20.5,119.1,22.1,117.5,24,117.5z"/>
<path d="M53.7,31.6h6.1V33H52V20.2h1.7V31.6z M63.2,33h-1.6v-9.5h1.6V33z M61.4,21c0-0.3,0.1-0.5,0.2-0.7c0.2-0.2,0.4-0.3,0.7-0.3
	c0.3,0,0.6,0.1,0.7,0.3c0.2,0.2,0.2,0.4,0.2,0.7c0,0.3-0.1,0.5-0.2,0.7c-0.2,0.2-0.4,0.3-0.7,0.3c-0.3,0-0.6-0.1-0.7-0.3
	C61.5,21.4,61.4,21.2,61.4,21z M71.3,30.5c0-0.4-0.2-0.8-0.5-1s-0.9-0.5-1.7-0.6c-0.8-0.2-1.5-0.4-2-0.6s-0.8-0.5-1.1-0.9
	c-0.2-0.3-0.3-0.7-0.3-1.2c0-0.8,0.3-1.4,1-2c0.7-0.5,1.5-0.8,2.5-0.8c1.1,0,2,0.3,2.6,0.8c0.7,0.6,1,1.3,1,2.1h-1.6
	c0-0.4-0.2-0.8-0.6-1.2c-0.4-0.3-0.8-0.5-1.4-0.5s-1.1,0.1-1.4,0.4s-0.5,0.6-0.5,1s0.2,0.7,0.5,0.9c0.3,0.2,0.9,0.4,1.7,0.6
	c0.8,0.2,1.5,0.4,2,0.7c0.5,0.3,0.9,0.6,1.1,0.9c0.2,0.4,0.4,0.8,0.4,1.3c0,0.8-0.3,1.5-1,2s-1.6,0.8-2.6,0.8c-0.8,0-1.4-0.1-2-0.4
	c-0.6-0.3-1-0.6-1.4-1.1c-0.3-0.5-0.5-1-0.5-1.6h1.6c0,0.5,0.2,1,0.7,1.3c0.4,0.3,0.9,0.5,1.6,0.5c0.6,0,1.1-0.1,1.5-0.4
	C71.2,31.2,71.3,30.9,71.3,30.5z M77.3,21.2v2.3h1.8v1.3h-1.8v5.9c0,0.4,0.1,0.7,0.2,0.9c0.2,0.2,0.4,0.3,0.8,0.3
	c0.2,0,0.4,0,0.8-0.1V33c-0.4,0.1-0.8,0.2-1.2,0.2c-0.7,0-1.3-0.2-1.6-0.7c-0.4-0.4-0.6-1.1-0.6-1.9v-5.9H74v-1.3h1.7v-2.3
	L77.3,21.2L77.3,21.2z M87.5,33h-1.7V20.2h1.7V33z M92.5,21.2v2.3h1.8v1.3h-1.8v5.9c0,0.4,0.1,0.7,0.2,0.9c0.2,0.2,0.4,0.3,0.8,0.3
	c0.2,0,0.4,0,0.8-0.1V33c-0.4,0.1-0.8,0.2-1.2,0.2c-0.7,0-1.3-0.2-1.6-0.7c-0.4-0.4-0.6-1.1-0.6-1.9v-5.9h-1.7v-1.3h1.7v-2.3
	L92.5,21.2L92.5,21.2z M100.2,33.2c-1.3,0-2.3-0.4-3.1-1.3c-0.8-0.8-1.2-2-1.2-3.4v-0.3c0-0.9,0.2-1.8,0.5-2.5
	c0.4-0.7,0.9-1.3,1.5-1.7c0.7-0.4,1.4-0.6,2.1-0.6c1.2,0,2.2,0.4,2.9,1.2c0.7,0.8,1,2,1,3.5v0.7h-6.4c0,0.9,0.3,1.7,0.8,2.3
	c0.5,0.6,1.2,0.9,2,0.9c0.6,0,1.1-0.1,1.5-0.4c0.4-0.2,0.7-0.5,1-0.9l1,0.8C103,32.6,101.8,33.2,100.2,33.2z M100,24.6
	c-0.7,0-1.2,0.2-1.7,0.7c-0.4,0.5-0.7,1.1-0.8,2h4.8v-0.1c0-0.8-0.3-1.5-0.7-1.9C101.2,24.9,100.7,24.6,100,24.6z M107.3,23.5v1.1
	c0.7-0.8,1.6-1.2,2.8-1.2c1.3,0,2.2,0.5,2.7,1.5c0.3-0.5,0.7-0.8,1.2-1.1c0.5-0.3,1.1-0.4,1.8-0.4c2.1,0,3.1,1.1,3.2,3.3V33h-1.6
	v-6.3c0-0.7-0.2-1.2-0.5-1.5s-0.8-0.5-1.6-0.5c-0.6,0-1.1,0.2-1.5,0.5c-0.4,0.4-0.6,0.8-0.7,1.5V33h-1.6v-6.2c0-1.4-0.7-2.1-2-2.1
	c-1.1,0-1.8,0.5-2.2,1.4V33h-1.6v-9.5H107.3z"/>
<path d="M53.7,82.3h6.1v1.4H52V70.9h1.7V82.3z M63.2,83.7h-1.6v-9.5h1.6V83.7z M61.4,71.7c0-0.3,0.1-0.5,0.2-0.7
	c0.2-0.2,0.4-0.3,0.7-0.3c0.3,0,0.6,0.1,0.7,0.3c0.2,0.2,0.2,0.4,0.2,0.7s-0.1,0.5-0.2,0.7c-0.2,0.2-0.4,0.3-0.7,0.3
	c-0.3,0-0.6-0.1-0.7-0.3C61.5,72.1,61.4,71.9,61.4,71.7z M71.3,81.2c0-0.4-0.2-0.8-0.5-1c-0.3-0.2-0.9-0.5-1.7-0.6
	c-0.8-0.2-1.5-0.4-2-0.6c-0.5-0.2-0.8-0.5-1.1-0.9c-0.2-0.3-0.3-0.7-0.3-1.2c0-0.8,0.3-1.4,1-2c0.7-0.5,1.5-0.8,2.5-0.8
	c1.1,0,2,0.3,2.6,0.8c0.7,0.6,1,1.3,1,2.1h-1.6c0-0.4-0.2-0.8-0.6-1.2c-0.4-0.3-0.8-0.5-1.4-0.5s-1.1,0.1-1.4,0.4s-0.5,0.6-0.5,1
	s0.2,0.7,0.5,0.9c0.3,0.2,0.9,0.4,1.7,0.6c0.8,0.2,1.5,0.4,2,0.7c0.5,0.3,0.9,0.6,1.1,0.9c0.2,0.4,0.4,0.8,0.4,1.3
	c0,0.8-0.3,1.5-1,2s-1.6,0.8-2.6,0.8c-0.8,0-1.4-0.1-2-0.4c-0.6-0.3-1-0.6-1.4-1.1c-0.3-0.5-0.5-1-0.5-1.6h1.6c0,0.5,0.2,1,0.7,1.3
	c0.4,0.3,0.9,0.5,1.6,0.5c0.6,0,1.1-0.1,1.5-0.4C71.2,81.9,71.3,81.6,71.3,81.2z M77.3,71.9v2.3h1.8v1.3h-1.8v5.9
	c0,0.4,0.1,0.7,0.2,0.9c0.2,0.2,0.4,0.3,0.8,0.3c0.2,0,0.4,0,0.8-0.1v1.2c-0.4,0.1-0.8,0.2-1.2,0.2c-0.7,0-1.3-0.2-1.6-0.7
	c-0.4-0.4-0.6-1.1-0.6-1.9v-5.9H74v-1.3h1.7v-2.3L77.3,71.9L77.3,71.9z M87.5,83.7h-1.7V70.9h1.7V83.7z M92.5,71.9v2.3h1.8v1.3h-1.8
	v5.9c0,0.4,0.1,0.7,0.2,0.9c0.2,0.2,0.4,0.3,0.8,0.3c0.2,0,0.4,0,0.8-0.1v1.2c-0.4,0.1-0.8,0.2-1.2,0.2c-0.7,0-1.3-0.2-1.6-0.7
	c-0.4-0.4-0.6-1.1-0.6-1.9v-5.9h-1.7v-1.3h1.7v-2.3L92.5,71.9L92.5,71.9z M100.2,83.9c-1.3,0-2.3-0.4-3.1-1.3
	c-0.8-0.8-1.2-2-1.2-3.4v-0.3c0-0.9,0.2-1.8,0.5-2.5c0.4-0.7,0.9-1.3,1.5-1.7c0.7-0.4,1.4-0.6,2.1-0.6c1.2,0,2.2,0.4,2.9,1.2
	c0.7,0.8,1,2,1,3.5v0.7h-6.4c0,0.9,0.3,1.7,0.8,2.3s1.2,0.9,2,0.9c0.6,0,1.1-0.1,1.5-0.4c0.4-0.2,0.7-0.5,1-0.9l1,0.8
	C103,83.3,101.8,83.9,100.2,83.9z M100,75.3c-0.7,0-1.2,0.2-1.7,0.7c-0.4,0.5-0.7,1.1-0.8,2h4.8v-0.1c0-0.8-0.3-1.5-0.7-1.9
	C101.2,75.6,100.7,75.3,100,75.3z M107.3,74.2v1.1c0.7-0.8,1.6-1.2,2.8-1.2c1.3,0,2.2,0.5,2.7,1.5c0.3-0.5,0.7-0.8,1.2-1.1
	s1.1-0.4,1.8-0.4c2.1,0,3.1,1.1,3.2,3.3v6.3h-1.6v-6.3c0-0.7-0.2-1.2-0.5-1.5c-0.3-0.3-0.8-0.5-1.6-0.5c-0.6,0-1.1,0.2-1.5,0.5
	c-0.4,0.4-0.6,0.8-0.7,1.5v6.3h-1.6v-6.2c0-1.4-0.7-2.1-2-2.1c-1.1,0-1.8,0.5-2.2,1.4v6.9h-1.6v-9.5H107.3z"/>
<path d="M53.7,133.1h6.1v1.4H52v-12.8h1.7V133.1z M63.2,134.5h-1.6V125h1.6V134.5z M61.4,122.5c0-0.3,0.1-0.5,0.2-0.7
	c0.2-0.2,0.4-0.3,0.7-0.3c0.3,0,0.6,0.1,0.7,0.3c0.2,0.2,0.2,0.4,0.2,0.7s-0.1,0.5-0.2,0.7c-0.2,0.2-0.4,0.3-0.7,0.3
	c-0.3,0-0.6-0.1-0.7-0.3C61.5,122.9,61.4,122.7,61.4,122.5z M71.3,132c0-0.4-0.2-0.8-0.5-1s-0.9-0.5-1.7-0.6c-0.8-0.2-1.5-0.4-2-0.6
	s-0.8-0.5-1.1-0.9c-0.2-0.3-0.3-0.7-0.3-1.2c0-0.8,0.3-1.4,1-2c0.7-0.5,1.5-0.8,2.5-0.8c1.1,0,2,0.3,2.6,0.8c0.7,0.6,1,1.3,1,2.1
	h-1.6c0-0.4-0.2-0.8-0.6-1.2c-0.4-0.3-0.8-0.5-1.4-0.5s-1.1,0.1-1.4,0.4s-0.5,0.6-0.5,1s0.2,0.7,0.5,0.9c0.3,0.2,0.9,0.4,1.7,0.6
	c0.8,0.2,1.5,0.4,2,0.7s0.9,0.6,1.1,0.9c0.2,0.4,0.4,0.8,0.4,1.3c0,0.8-0.3,1.5-1,2s-1.6,0.8-2.6,0.8c-0.8,0-1.4-0.1-2-0.4
	s-1-0.6-1.4-1.1c-0.3-0.5-0.5-1-0.5-1.6h1.6c0,0.5,0.2,1,0.7,1.3c0.4,0.3,0.9,0.5,1.6,0.5c0.6,0,1.1-0.1,1.5-0.4
	C71.2,132.7,71.3,132.4,71.3,132z M77.3,122.7v2.3h1.8v1.3h-1.8v5.9c0,0.4,0.1,0.7,0.2,0.9c0.2,0.2,0.4,0.3,0.8,0.3
	c0.2,0,0.4,0,0.8-0.1v1.2c-0.4,0.1-0.8,0.2-1.2,0.2c-0.7,0-1.3-0.2-1.6-0.7c-0.4-0.4-0.6-1.1-0.6-1.9v-5.9H74v-1.3h1.7v-2.3
	L77.3,122.7L77.3,122.7z M87.5,134.5h-1.7v-12.8h1.7V134.5z M92.5,122.7v2.3h1.8v1.3h-1.8v5.9c0,0.4,0.1,0.7,0.2,0.9
	c0.2,0.2,0.4,0.3,0.8,0.3c0.2,0,0.4,0,0.8-0.1v1.2c-0.4,0.1-0.8,0.2-1.2,0.2c-0.7,0-1.3-0.2-1.6-0.7c-0.4-0.4-0.6-1.1-0.6-1.9v-5.9
	h-1.7v-1.3h1.7v-2.3L92.5,122.7L92.5,122.7z M100.2,134.7c-1.3,0-2.3-0.4-3.1-1.3c-0.8-0.8-1.2-2-1.2-3.4v-0.3
	c0-0.9,0.2-1.8,0.5-2.5c0.4-0.7,0.9-1.3,1.5-1.7c0.7-0.4,1.4-0.6,2.1-0.6c1.2,0,2.2,0.4,2.9,1.2c0.7,0.8,1,2,1,3.5v0.7h-6.4
	c0,0.9,0.3,1.7,0.8,2.3c0.5,0.6,1.2,0.9,2,0.9c0.6,0,1.1-0.1,1.5-0.4c0.4-0.2,0.7-0.5,1-0.9l1,0.8
	C103,134.1,101.8,134.7,100.2,134.7z M100,126.1c-0.7,0-1.2,0.2-1.7,0.7c-0.4,0.5-0.7,1.1-0.8,2h4.8v-0.1c0-0.8-0.3-1.5-0.7-1.9
	C101.2,126.4,100.7,126.1,100,126.1z M107.3,125v1.1c0.7-0.8,1.6-1.2,2.8-1.2c1.3,0,2.2,0.5,2.7,1.5c0.3-0.5,0.7-0.8,1.2-1.1
	s1.1-0.4,1.8-0.4c2.1,0,3.1,1.1,3.2,3.3v6.3h-1.6v-6.3c0-0.7-0.2-1.2-0.5-1.5c-0.3-0.3-0.8-0.5-1.6-0.5c-0.6,0-1.1,0.2-1.5,0.5
	c-0.4,0.4-0.6,0.8-0.7,1.5v6.3h-1.6v-6.2c0-1.4-0.7-2.1-2-2.1c-1.1,0-1.8,0.5-2.2,1.4v6.9h-1.6V125H107.3z"/>
</svg>
