<?xml version="1.0" encoding="utf-8"?>
<!-- Generator: Adobe Illustrator 25.2.1, SVG Export Plug-In . SVG Version: 6.00 Build 0)  -->
<svg version="1.1" id="圖層_1" xmlns="http://www.w3.org/2000/svg" xmlns:xlink="http://www.w3.org/1999/xlink" x="0px" y="0px"
	 viewBox="0 0 352.9 183.6" style="enable-background:new 0 0 352.9 183.6;" xml:space="preserve">
<style type="text/css">
	.st0{fill:#FFFFFF;stroke:#D9D9D9;}
	.st1{fill:#D32432;}
	.st2{fill:none;stroke:#D32432;stroke-miterlimit:10;}
	.st3{fill:#FFFFFF;stroke:#ACACAC;}
</style>
<g id="圖層_2_1_">
	<g id="圖層_1-2">
		<path class="st0" d="M56.9,0.5h292c1.9,0,3.5,1.6,3.5,3.5v47.5h-299V4C53.4,2.1,55,0.5,56.9,0.5z"/>
		<rect x="53.4" y="51.2" class="st0" width="299" height="51"/>
		<rect x="53.4" y="102" class="st0" width="299" height="51"/>
		<path class="st1" d="M52.1,172.7v8.6h-1v-7.4c-0.6,0.6-1.2,1-2,1.2v-1c0.4-0.1,0.8-0.3,1.2-0.5c0.4-0.2,0.7-0.5,1-0.9L52.1,172.7z
			"/>
		<path class="st1" d="M61.3,174.8h-1c-0.1-0.9-0.9-1.5-1.8-1.5c0,0,0,0,0,0c-0.7,0-1.3,0.4-1.6,1c-0.4,0.7-0.6,1.6-0.6,2.4
			c0,0.1,0,0.2,0,0.3l0,0c0.4-0.9,1.3-1.4,2.3-1.4c0.7,0,1.5,0.3,2,0.8c1,1.2,1,3-0.1,4.1c-0.5,0.6-1.3,0.9-2.1,0.8
			c-0.9,0.1-1.8-0.4-2.3-1.2c-0.5-0.9-0.8-2-0.7-3.1c-0.1-1.2,0.2-2.3,0.8-3.3c0.5-0.8,1.3-1.4,2.3-1.4c1.4-0.2,2.6,0.8,2.8,2.1
			C61.3,174.7,61.3,174.8,61.3,174.8z M57.1,177.1c-0.4,0.4-0.6,0.9-0.5,1.5c0,0.5,0.2,1.1,0.5,1.5c0.4,0.4,0.9,0.6,1.4,0.6
			c0.5,0,1-0.2,1.4-0.6c0.4-0.4,0.6-1,0.5-1.5c0-0.5-0.2-1.1-0.5-1.5C59.2,176.3,57.9,176.3,57.1,177.1L57.1,177.1z"/>
		<path class="st1" d="M69.4,175.9c1,1.4,1,3.2,0,4.6c-0.5,0.7-1.3,1-2.1,1c-0.9,0-1.6-0.5-2-1.3v3.5h-1v-8.6h0.9v1
			c0.4-0.8,1.2-1.2,2.1-1.2C68.1,174.9,68.9,175.2,69.4,175.9z M65.7,176.4c-0.3,0.5-0.5,1.1-0.5,1.7v0.1c0,0.6,0.2,1.2,0.5,1.7
			c0.3,0.4,0.8,0.7,1.3,0.7c0.6,0,1.2-0.2,1.5-0.7c0.3-0.5,0.5-1.1,0.5-1.8c0-0.6-0.1-1.2-0.4-1.8c-0.3-0.5-0.9-0.8-1.5-0.7
			C66.6,175.7,66,175.9,65.7,176.4z"/>
		<path class="st1" d="M73.5,175.1l1.6,2.2l1.6-2.2h1.1l-2.2,2.9l2.5,3.3H77l-1.8-2.6l-1.9,2.6h-1.1l2.4-3.3l-2.2-2.9L73.5,175.1z"
			/>
		<path class="st1" d="M3,106.3v8.6H2v-7.4c-0.6,0.6-1.2,1-2,1.2v-1c0.4-0.1,0.8-0.3,1.2-0.5c0.4-0.2,0.7-0.5,1-0.9L3,106.3z"/>
		<path class="st1" d="M12.2,108.4h-1c-0.1-0.9-0.9-1.6-1.8-1.5c0,0,0,0,0,0c-0.7,0-1.3,0.4-1.6,1c-0.4,0.7-0.6,1.6-0.6,2.4
			c0,0.1,0,0.2,0,0.3l0,0c0.2-0.4,0.5-0.8,0.9-1c0.4-0.3,0.9-0.4,1.3-0.4c0.7,0,1.5,0.3,2,0.8c1,1.2,1,3-0.1,4.1
			c-0.5,0.6-1.3,0.9-2.1,0.8c-0.9,0-1.8-0.4-2.3-1.2c-0.5-0.9-0.8-1.9-0.7-3c-0.1-1.2,0.2-2.3,0.8-3.3c0.5-0.8,1.3-1.4,2.3-1.3
			c1.3-0.2,2.6,0.7,2.8,2.1C12.2,108.3,12.2,108.3,12.2,108.4z M8.1,110.6c-0.4,0.4-0.6,0.9-0.6,1.5c0,0.5,0.1,1.1,0.5,1.5
			c0.4,0.4,0.9,0.6,1.4,0.6c0.5,0,1-0.2,1.4-0.6c0.4-0.4,0.6-1,0.5-1.5c0-0.5-0.2-1.1-0.5-1.4c-0.3-0.4-0.8-0.6-1.4-0.6
			C8.9,110,8.4,110.2,8.1,110.6z"/>
		<path class="st1" d="M20.3,109.4c0.9,1.4,0.9,3.2,0,4.6c-0.5,0.7-1.3,1-2.1,1c-0.9,0-1.6-0.5-2-1.3v3.5h-1v-8.6h0.9v1
			c0.4-0.8,1.2-1.2,2.1-1.2C19,108.4,19.8,108.8,20.3,109.4z M16.6,110c-0.3,0.5-0.5,1.1-0.5,1.7v0.1c0,0.6,0.2,1.2,0.5,1.7
			c0.3,0.4,0.8,0.7,1.4,0.7c0.6,0,1.2-0.2,1.5-0.7c0.3-0.5,0.5-1.1,0.5-1.8c0-0.6-0.1-1.2-0.4-1.8c-0.3-0.5-0.9-0.8-1.5-0.7
			C17.5,109.2,16.9,109.5,16.6,110L16.6,110z"/>
		<path class="st1" d="M24.5,108.6l1.6,2.2l1.6-2.2h1.1l-2.2,2.9l2.5,3.3h-1.1l-1.9-2.6l-1.9,2.6h-1.1l2.5-3.3l-2.2-2.9H24.5z"/>
		<line class="st2" x1="59.4" y1="163.3" x2="68.4" y2="163.3"/>
		<path class="st1" d="M53.4,163.3c3.1,1.1,6,2.7,8.5,4.8l-1.7-4.8l1.7-4.8C59.4,160.6,56.5,162.2,53.4,163.3z"/>
		<path class="st1" d="M74.5,163.3c-3.1,1.1-6,2.7-8.6,4.8l1.7-4.8l-1.7-4.8C68.5,160.6,71.4,162.2,74.5,163.3z"/>
		<line class="st2" x1="39.1" y1="108" x2="39.1" y2="117"/>
		<path class="st1" d="M39.1,101.9c-1.1,3.1-2.7,6-4.8,8.6l4.8-1.7l4.8,1.7C41.8,107.9,40.2,105,39.1,101.9z"/>
		<path class="st1" d="M39.1,123c-1.1-3.1-2.7-6-4.8-8.6l4.8,1.7l4.8-1.7C41.8,117,40.2,119.9,39.1,123z"/>
		<path d="M106.1,31.6h6.1V33h-7.8V20.2h1.7L106.1,31.6z M115.6,33H114v-9.5h1.6V33z M113.8,21c0-0.2,0.1-0.5,0.2-0.7
			c0.2-0.2,0.5-0.4,0.8-0.3c0.3,0,0.5,0.1,0.7,0.3c0.2,0.2,0.3,0.5,0.3,0.7c0,0.2-0.1,0.5-0.2,0.7c-0.2,0.2-0.5,0.3-0.7,0.3
			c-0.3,0-0.5-0.1-0.7-0.3C113.9,21.5,113.8,21.3,113.8,21z M123.7,30.5c0-0.4-0.2-0.8-0.5-1c-0.5-0.3-1.1-0.5-1.7-0.6
			c-0.7-0.1-1.4-0.3-2-0.6c-0.4-0.2-0.8-0.5-1.1-0.9c-0.2-0.4-0.4-0.8-0.3-1.2c0-0.8,0.4-1.5,1-2c0.7-0.6,1.6-0.8,2.5-0.8
			c0.9,0,1.9,0.3,2.6,0.8c0.7,0.5,1,1.3,1,2.1h-1.6c0-0.5-0.2-0.9-0.6-1.1c-0.4-0.3-0.9-0.5-1.4-0.5c-0.5,0-1,0.1-1.4,0.4
			c-0.3,0.2-0.5,0.6-0.5,1c0,0.4,0.2,0.7,0.5,0.9c0.5,0.3,1.1,0.5,1.7,0.6c0.7,0.1,1.4,0.4,2,0.6c0.4,0.2,0.8,0.5,1.1,0.9
			c0.3,0.4,0.4,0.8,0.4,1.3c0,0.8-0.4,1.5-1,2c-0.8,0.5-1.7,0.8-2.6,0.8c-0.7,0-1.4-0.1-2-0.4c-0.6-0.2-1-0.6-1.4-1.1
			c-0.3-0.5-0.5-1-0.5-1.6h1.6c0,0.5,0.2,1,0.6,1.3c0.5,0.3,1,0.5,1.6,0.5c0.5,0,1-0.1,1.5-0.4C123.5,31.2,123.8,30.9,123.7,30.5
			L123.7,30.5z M129.7,21.2v2.3h1.8v1.2h-1.8v5.9c0,0.3,0.1,0.6,0.2,0.9c0.2,0.2,0.5,0.3,0.8,0.3c0.3,0,0.5,0,0.8-0.1V33
			c-0.4,0.1-0.8,0.2-1.2,0.2c-0.6,0-1.2-0.2-1.6-0.7c-0.4-0.5-0.6-1.2-0.6-1.9v-5.9h-1.7v-1.2h1.7v-2.3L129.7,21.2z M139.9,33h-1.7
			V20.2h1.7V33z M144.9,21.2v2.3h1.8v1.2h-1.8v5.9c0,0.3,0.1,0.6,0.2,0.9c0.2,0.2,0.5,0.3,0.8,0.3c0.3,0,0.5,0,0.8-0.1V33
			c-0.4,0.1-0.8,0.2-1.2,0.2c-0.6,0-1.2-0.2-1.6-0.7c-0.4-0.5-0.6-1.2-0.6-1.9v-5.9h-1.7v-1.2h1.7v-2.3H144.9z M152.5,33.2
			c-1.2,0-2.3-0.4-3.1-1.3c-0.8-0.9-1.3-2.2-1.2-3.4v-0.3c0-0.9,0.2-1.7,0.5-2.5c0.3-0.7,0.9-1.3,1.5-1.7c0.6-0.4,1.4-0.6,2.1-0.6
			c1.1-0.1,2.2,0.4,2.9,1.2c0.7,1,1.1,2.3,1,3.5v0.7h-6.4c0,0.8,0.3,1.6,0.8,2.3c0.5,0.6,1.2,0.9,2,0.9c0.5,0,1-0.1,1.5-0.4
			c0.4-0.2,0.8-0.6,1.1-0.9l1,0.8C155.4,32.5,154,33.2,152.5,33.2L152.5,33.2z M152.3,24.7c-0.6,0-1.2,0.3-1.6,0.7
			c-0.5,0.6-0.8,1.3-0.8,2h4.8v-0.1c0-0.7-0.2-1.4-0.7-1.9C153.6,24.9,153,24.6,152.3,24.7L152.3,24.7z M159.7,23.5v1
			c0.7-0.8,1.7-1.3,2.8-1.2c1.1-0.1,2.2,0.5,2.7,1.5c0.7-1,1.8-1.6,3-1.5c2.1,0,3.2,1.1,3.2,3.3V33h-1.6v-6.3c0-0.5-0.1-1.1-0.5-1.5
			c-0.4-0.4-1-0.6-1.6-0.5c-0.6,0-1.1,0.2-1.5,0.5c-0.4,0.4-0.7,0.9-0.7,1.5V33h-1.6v-6.2c0.2-1-0.5-1.9-1.5-2.1c-0.2,0-0.3,0-0.5,0
			c-0.9,0-1.8,0.5-2.1,1.4v7h-1.6v-9.6L159.7,23.5z"/>
		<path class="st3" d="M76.6,16.5h11.7c1.9,0,3.5,1.6,3.5,3.5v12c0,1.9-1.6,3.5-3.5,3.5H76.6c-1.9,0-3.5-1.6-3.5-3.5V20
			C73.1,18.1,74.7,16.5,76.6,16.5z"/>
		<path d="M106.1,82.4h6.1v1.4h-7.8V71h1.7L106.1,82.4z M115.6,83.8H114v-9.5h1.6V83.8z M113.8,71.8c0-0.2,0.1-0.5,0.2-0.7
			c0.2-0.2,0.5-0.4,0.8-0.3c0.3,0,0.5,0.1,0.7,0.3c0.2,0.2,0.3,0.5,0.3,0.7c0,0.2-0.1,0.5-0.2,0.7c-0.2,0.2-0.5,0.3-0.7,0.3
			c-0.3,0-0.5-0.1-0.7-0.3C113.9,72.3,113.8,72,113.8,71.8z M123.7,81.3c0-0.4-0.2-0.8-0.5-1c-0.5-0.3-1.1-0.5-1.7-0.6
			c-0.7-0.1-1.4-0.3-2-0.6c-0.4-0.2-0.8-0.5-1.1-0.9c-0.2-0.4-0.4-0.8-0.3-1.2c0-0.8,0.4-1.5,1-2c0.7-0.6,1.6-0.8,2.5-0.8
			c0.9,0,1.9,0.3,2.6,0.8c0.7,0.5,1,1.3,1,2.1h-1.6c0-0.5-0.2-0.9-0.6-1.2c-0.4-0.3-0.9-0.5-1.4-0.5c-0.5,0-1,0.1-1.4,0.4
			c-0.3,0.2-0.5,0.6-0.5,1c0,0.4,0.2,0.7,0.5,0.9c0.5,0.3,1.1,0.5,1.7,0.6c0.7,0.1,1.4,0.4,2,0.6c0.4,0.2,0.8,0.5,1.1,0.9
			c0.3,0.4,0.4,0.8,0.4,1.3c0,0.8-0.4,1.5-1,2c-0.8,0.5-1.7,0.8-2.6,0.8c-0.7,0-1.4-0.1-2-0.4c-0.6-0.2-1-0.6-1.4-1.1
			c-0.3-0.5-0.5-1-0.5-1.6h1.6c0,0.5,0.2,1,0.6,1.3c0.5,0.3,1,0.5,1.6,0.5c0.5,0,1-0.1,1.5-0.4C123.5,82,123.8,81.6,123.7,81.3
			L123.7,81.3z M129.7,72v2.3h1.8v1.2h-1.8v5.9c0,0.3,0.1,0.6,0.2,0.9c0.2,0.2,0.5,0.3,0.8,0.3c0.3,0,0.5,0,0.8-0.1v1.3
			c-0.4,0.1-0.8,0.2-1.2,0.2c-0.6,0-1.2-0.2-1.6-0.7c-0.4-0.5-0.6-1.2-0.6-1.9v-5.9h-1.7v-1.2h1.7v-2.3L129.7,72z M139.9,83.8h-1.7
			V71h1.7V83.8z M144.9,71.9v2.3h1.8v1.2h-1.8v5.9c0,0.3,0.1,0.6,0.2,0.9c0.2,0.2,0.5,0.3,0.8,0.3c0.3,0,0.5,0,0.8-0.1v1.3
			c-0.4,0.1-0.8,0.2-1.2,0.2c-0.6,0-1.2-0.2-1.6-0.7c-0.4-0.5-0.6-1.2-0.6-1.9v-5.9h-1.7v-1.2h1.7v-2.3H144.9z M152.5,83.9
			c-1.2,0-2.3-0.4-3.1-1.3c-0.8-0.9-1.3-2.2-1.2-3.4V79c0-0.9,0.2-1.7,0.5-2.5c0.3-0.7,0.9-1.3,1.5-1.7c0.6-0.4,1.4-0.6,2.1-0.6
			c1.1-0.1,2.2,0.4,2.9,1.2c0.7,1,1.1,2.3,1,3.5v0.7h-6.4c0,0.8,0.3,1.6,0.8,2.3c0.5,0.6,1.2,0.9,2,0.9c0.5,0,1-0.1,1.5-0.3
			c0.4-0.2,0.8-0.6,1.1-0.9l1,0.8C155.4,83.3,154,84,152.5,83.9L152.5,83.9z M152.3,75.4c-0.6,0-1.2,0.3-1.6,0.7
			c-0.5,0.6-0.8,1.3-0.8,2h4.8V78c0-0.7-0.2-1.4-0.7-1.9C153.6,75.6,153,75.4,152.3,75.4L152.3,75.4z M159.7,74.3v1.1
			c0.7-0.8,1.7-1.3,2.8-1.2c1.1-0.1,2.2,0.5,2.7,1.5c0.7-1,1.8-1.6,3-1.5c2.1,0,3.2,1.1,3.2,3.3v6.4h-1.6v-6.3
			c0-0.5-0.1-1.1-0.5-1.5c-0.4-0.4-1-0.6-1.6-0.5c-0.6,0-1.1,0.2-1.5,0.5c-0.4,0.4-0.7,0.9-0.7,1.4v6.3h-1.6v-6.2
			c0.2-1-0.5-1.9-1.5-2.1c-0.2,0-0.3,0-0.5,0c-0.9,0-1.8,0.5-2.1,1.4v7h-1.6v-9.6L159.7,74.3z"/>
		<path class="st3" d="M76.6,67.3h11.7c1.9,0,3.5,1.6,3.5,3.5v12c0,1.9-1.6,3.5-3.5,3.5H76.6c-1.9,0-3.5-1.6-3.5-3.5v-12
			C73.1,68.8,74.7,67.3,76.6,67.3z"/>
		<path d="M106.1,132.9h6.1v1.4h-7.8v-12.8h1.7L106.1,132.9z M115.6,134.3H114v-9.5h1.6V134.3z M113.8,122.3c0-0.2,0.1-0.5,0.2-0.7
			c0.2-0.2,0.5-0.4,0.8-0.3c0.3,0,0.5,0.1,0.7,0.3c0.2,0.2,0.3,0.5,0.3,0.7c0,0.2-0.1,0.5-0.2,0.7c-0.2,0.2-0.5,0.3-0.7,0.3
			c-0.3,0-0.5-0.1-0.7-0.3C113.9,122.8,113.8,122.6,113.8,122.3z M123.7,131.8c0-0.4-0.2-0.8-0.5-1c-0.5-0.3-1.1-0.5-1.7-0.6
			c-0.7-0.1-1.4-0.3-2-0.6c-0.4-0.2-0.8-0.5-1.1-0.9c-0.2-0.4-0.4-0.8-0.3-1.2c0-0.8,0.4-1.5,1-2c0.7-0.6,1.6-0.8,2.5-0.8
			c0.9,0,1.9,0.3,2.6,0.8c0.7,0.5,1,1.3,1,2.1h-1.6c0-0.5-0.2-0.9-0.6-1.2c-0.4-0.3-0.9-0.5-1.4-0.5c-0.5,0-1,0.1-1.4,0.4
			c-0.3,0.2-0.5,0.6-0.5,1c0,0.4,0.2,0.7,0.5,0.9c0.5,0.3,1.1,0.5,1.7,0.6c0.7,0.1,1.4,0.4,2,0.7c0.4,0.2,0.8,0.5,1.1,0.9
			c0.3,0.4,0.4,0.8,0.4,1.3c0,0.8-0.4,1.5-1,2c-0.8,0.5-1.7,0.8-2.6,0.8c-0.7,0-1.4-0.1-2-0.4c-0.6-0.2-1-0.6-1.4-1.1
			c-0.3-0.5-0.5-1-0.5-1.6h1.6c0,0.5,0.2,1,0.6,1.3c0.5,0.3,1,0.5,1.6,0.5c0.5,0,1-0.1,1.5-0.4C123.5,132.6,123.8,132.2,123.7,131.8
			L123.7,131.8z M129.7,122.5v2.3h1.8v1.2h-1.8v5.9c0,0.3,0.1,0.6,0.2,0.9c0.2,0.2,0.5,0.3,0.8,0.3c0.3,0,0.5,0,0.8-0.1v1.3
			c-0.4,0.1-0.8,0.2-1.2,0.2c-0.6,0-1.2-0.2-1.6-0.7c-0.4-0.5-0.6-1.2-0.6-1.9V126h-1.7v-1.2h1.7v-2.3L129.7,122.5z M139.9,134.3
			h-1.7v-12.8h1.7V134.3z M144.9,122.5v2.3h1.8v1.2h-1.8v5.9c0,0.3,0.1,0.6,0.2,0.9c0.2,0.2,0.5,0.3,0.8,0.3c0.3,0,0.5,0,0.8-0.1
			v1.3c-0.4,0.1-0.8,0.2-1.2,0.2c-0.6,0-1.2-0.2-1.6-0.7c-0.4-0.5-0.6-1.2-0.6-1.9V126h-1.7v-1.2h1.7v-2.3H144.9z M152.5,134.5
			c-1.2,0-2.3-0.4-3.1-1.3c-0.8-0.9-1.3-2.2-1.2-3.4v-0.3c0-0.9,0.2-1.7,0.5-2.5c0.3-0.7,0.9-1.3,1.5-1.7c0.6-0.4,1.4-0.6,2.1-0.6
			c1.1-0.1,2.2,0.4,2.9,1.2c0.7,1,1.1,2.3,1,3.5v0.7h-6.4c0,0.8,0.3,1.6,0.8,2.3c0.5,0.6,1.2,0.9,2,0.9c0.5,0,1-0.1,1.5-0.4
			c0.4-0.2,0.8-0.6,1.1-0.9l1,0.8C155.4,133.8,154,134.5,152.5,134.5L152.5,134.5z M152.3,126c-0.6,0-1.2,0.3-1.6,0.7
			c-0.5,0.6-0.8,1.3-0.8,2h4.8v-0.1c0-0.7-0.2-1.4-0.7-1.9C153.6,126.2,153,125.9,152.3,126L152.3,126z M159.7,124.8v1.1
			c0.7-0.8,1.7-1.3,2.8-1.2c1.1-0.1,2.2,0.5,2.7,1.5c0.7-1,1.8-1.6,3-1.5c2.1,0,3.2,1.1,3.2,3.3v6.4h-1.6V128c0-0.5-0.1-1.1-0.5-1.5
			c-0.4-0.4-1-0.6-1.6-0.5c-0.6,0-1.1,0.2-1.5,0.5c-0.4,0.4-0.7,0.9-0.7,1.4v6.3h-1.6v-6.2c0.2-1-0.5-1.9-1.5-2.1
			c-0.2,0-0.3,0-0.5,0c-0.9,0-1.8,0.5-2.1,1.4v7h-1.6v-9.6L159.7,124.8z"/>
		<path class="st3" d="M76.6,117.8h11.7c1.9,0,3.5,1.6,3.5,3.5v12c0,1.9-1.6,3.5-3.5,3.5H76.6c-1.9,0-3.5-1.6-3.5-3.5v-12
			C73.1,119.4,74.7,117.8,76.6,117.8z"/>
	</g>
</g>
</svg>
