<svg xmlns="http://www.w3.org/2000/svg" viewBox="0 0 149.09 20"><defs><style>.cls-1{fill:#459e99;stroke:#459e99;}.cls-2{fill:none;stroke:#fff;stroke-linecap:round;stroke-linejoin:round;stroke-width:3px;}</style></defs><g id="圖層_2" data-name="圖層 2"><g id="圖層_1-2" data-name="圖層 1"><path d="M41.89,11.9a4.81,4.81,0,0,1-1.5,3.1,5,5,0,0,1-3.3,1.1,4.38,4.38,0,0,1-3.6-1.6A5.92,5.92,0,0,1,32,10.2V9a7.45,7.45,0,0,1,.6-3.1,4.63,4.63,0,0,1,1.8-2.1,5.66,5.66,0,0,1,2.8-.8,5,5,0,0,1,3.3,1.1,4.72,4.72,0,0,1,1.4,3.1h-1.7a3.25,3.25,0,0,0-1-2.2,2.72,2.72,0,0,0-2-.7,2.91,2.91,0,0,0-2.5,1.2,5.4,5.4,0,0,0-1,3.5v1.2a5.39,5.39,0,0,0,.9,3.3A2.85,2.85,0,0,0,37,14.7a3.59,3.59,0,0,0,2.2-.6,3.77,3.77,0,0,0,1-2.2Zm3.7-4.3a3.41,3.41,0,0,1,2.8-1.3c2,0,3,1.1,3,3.4V16h-1.6V9.7a2.07,2.07,0,0,0-.5-1.5,2,2,0,0,0-1.4-.5,2.3,2.3,0,0,0-1.4.4,3.13,3.13,0,0,0-.9,1.1V16H44V2.5h1.6Zm12.2,8.6a3.87,3.87,0,0,1-3.1-1.3,4.7,4.7,0,0,1-1.2-3.4v-.3A6.55,6.55,0,0,1,54,8.7,5,5,0,0,1,55.49,7a4.2,4.2,0,0,1,2.1-.6,3.7,3.7,0,0,1,2.9,1.2,5.22,5.22,0,0,1,1,3.5v.7h-6.4a3.57,3.57,0,0,0,.8,2.3,2.52,2.52,0,0,0,2,.9,2.41,2.41,0,0,0,1.5-.4,2.84,2.84,0,0,0,1-.9l1,.8A4.2,4.2,0,0,1,57.79,16.2Zm-.2-8.5a2.19,2.19,0,0,0-1.7.7,3.67,3.67,0,0,0-.8,2h4.8v-.1a2.74,2.74,0,0,0-.7-1.9A1.86,1.86,0,0,0,57.59,7.7Zm9.6,7.1a2.46,2.46,0,0,0,1.5-.5,1.89,1.89,0,0,0,.7-1.3H71a2.66,2.66,0,0,1-.6,1.6A3.33,3.33,0,0,1,69,15.8a3.92,3.92,0,0,1-1.8.4,3.87,3.87,0,0,1-3.1-1.3A5.72,5.72,0,0,1,63,11.3V11a7,7,0,0,1,.5-2.5A3.53,3.53,0,0,1,65,6.8a4.14,4.14,0,0,1,2.3-.6,3.62,3.62,0,0,1,2.7,1,3.25,3.25,0,0,1,1.1,2.5h-1.5a2.13,2.13,0,0,0-.7-1.5,2,2,0,0,0-1.5-.6,2.2,2.2,0,0,0-1.9.9,4,4,0,0,0-.7,2.6v.3a3.73,3.73,0,0,0,.7,2.5C65.69,14.6,66.39,14.8,67.19,14.8Zm8.3-3.2-1,1.1V16h-1.6V2.5h1.6v8.2l.9-1,3-3.1h2l-3.7,4,4.1,5.5h-1.9ZM90,11.4a5.4,5.4,0,0,1-1,3.5,3.23,3.23,0,0,1-2.7,1.3,3.29,3.29,0,0,1-2.8-1.3V16H82V2.5h1.6v5a3.42,3.42,0,0,1,2.7-1.2A3,3,0,0,1,89,7.6a5.7,5.7,0,0,1,1,3.6Zm-1.6-.2a4.76,4.76,0,0,0-.6-2.6A2,2,0,0,0,86,7.7a2.37,2.37,0,0,0-2.3,1.5v4.1A2.47,2.47,0,0,0,86,14.8a2,2,0,0,0,1.8-.9A4.91,4.91,0,0,0,88.39,11.2Zm3.2,0a6.55,6.55,0,0,1,.5-2.5A5,5,0,0,1,93.59,7a4.28,4.28,0,0,1,2.2-.6,3.87,3.87,0,0,1,3.1,1.3,5.22,5.22,0,0,1,1.2,3.6v.1a6.55,6.55,0,0,1-.5,2.5,5,5,0,0,1-1.5,1.7,4.38,4.38,0,0,1-2.3.6,3.87,3.87,0,0,1-3.1-1.3,5.22,5.22,0,0,1-1.2-3.6v-.1Zm1.7.2a3.73,3.73,0,0,0,.7,2.5,2.46,2.46,0,0,0,2,1,2.33,2.33,0,0,0,2-1,4.53,4.53,0,0,0,.7-2.7A3.9,3.9,0,0,0,98,8.7a2.22,2.22,0,0,0-2-1,2.17,2.17,0,0,0-1.9,1A3.5,3.5,0,0,0,93.29,11.4Zm12-1.4,2.1-3.5h1.9l-3.1,4.7,3.2,4.8h-1.9l-2.2-3.6-2.2,3.6h-1.9l3.2-4.8-3.1-4.7h1.9Zm12.3,6h-1.7V3.2h1.7Zm5-11.8V6.5h1.8V7.8h-1.8v5.9a2,2,0,0,0,.2.9,1,1,0,0,0,.8.3,2.81,2.81,0,0,0,.8-.1V16a5,5,0,0,1-1.2.2,1.75,1.75,0,0,1-1.6-.7,2.71,2.71,0,0,1-.6-1.9V7.7h-1.7V6.5H121V4.2Zm7.7,12a3.87,3.87,0,0,1-3.1-1.3,4.7,4.7,0,0,1-1.2-3.4v-.3a6.55,6.55,0,0,1,.5-2.5A5,5,0,0,1,128,7a3.94,3.94,0,0,1,2.1-.6A3.7,3.7,0,0,1,133,7.6a5.22,5.22,0,0,1,1,3.5v.7h-6.4a3.57,3.57,0,0,0,.8,2.3,2.52,2.52,0,0,0,2,.9,2.41,2.41,0,0,0,1.5-.4,2.84,2.84,0,0,0,1-.9l1,.8A4.2,4.2,0,0,1,130.29,16.2Zm-.2-8.5a2.19,2.19,0,0,0-1.7.7,3.67,3.67,0,0,0-.8,2h4.8v-.1a2.74,2.74,0,0,0-.7-1.9A1.86,1.86,0,0,0,130.09,7.7Zm7.3-1.2V7.6a3.49,3.49,0,0,1,2.8-1.2,2.75,2.75,0,0,1,2.7,1.5,3.18,3.18,0,0,1,1.2-1.1,3.42,3.42,0,0,1,1.8-.4c2.1,0,3.1,1.1,3.2,3.3V16h-1.6V9.7a2.07,2.07,0,0,0-.5-1.5,2.17,2.17,0,0,0-1.6-.5,2.46,2.46,0,0,0-1.5.5,2.36,2.36,0,0,0-.7,1.5V16h-1.6V9.8a1.83,1.83,0,0,0-2-2.1,2.21,2.21,0,0,0-2.2,1.4V16h-1.6V6.5Z"/><path class="cls-1" d="M4,.5H16A3.54,3.54,0,0,1,19.5,4V16A3.54,3.54,0,0,1,16,19.5H4A3.54,3.54,0,0,1,.5,16V4A3.54,3.54,0,0,1,4,.5Z"/><path class="cls-2" d="M6,10l3,3,6-6"/></g></g></svg>