<svg width="121" height="82" viewBox="0 0 121 82" fill="none" xmlns="http://www.w3.org/2000/svg">
<path d="M1 59.8994L6.0224 62.747L5.9773 56.9737L1 59.8994ZM17 59.7744L11.9776 56.9268L12.0227 62.7001L17 59.7744ZM5.50377 60.3642L12.504 60.3096L12.4962 59.3096L5.49596 59.3643L5.50377 60.3642Z" fill="#E73525"/>
<path d="M3.7334 78.6494H2.8252V72.6289L1.00391 73.2979V72.4775L3.5918 71.5059H3.7334V78.6494ZM10.1934 76.2617H11.1797V76.999H10.1934V78.6494H9.28516V76.999H6.04785V76.4668L9.23145 71.54H10.1934V76.2617ZM7.07324 76.2617H9.28516V72.7754L9.17773 72.9707L7.07324 76.2617ZM16.5508 76.0664C16.5508 76.8704 16.3669 77.5182 15.999 78.0098C15.6312 78.5013 15.1331 78.7471 14.5049 78.7471C13.8636 78.7471 13.359 78.5436 12.9912 78.1367V80.6807H12.0879V73.3662H12.9131L12.957 73.9521C13.3249 73.4964 13.8359 73.2686 14.4902 73.2686C15.125 73.2686 15.6263 73.5078 15.9941 73.9863C16.3652 74.4648 16.5508 75.1305 16.5508 75.9834V76.0664ZM15.6475 75.9639C15.6475 75.3682 15.5205 74.8978 15.2666 74.5527C15.0127 74.2077 14.6644 74.0352 14.2217 74.0352C13.6748 74.0352 13.2646 74.2777 12.9912 74.7627V77.2871C13.2614 77.7689 13.6748 78.0098 14.2314 78.0098C14.6644 78.0098 15.0078 77.8389 15.2617 77.4971C15.5189 77.152 15.6475 76.641 15.6475 75.9639ZM19.3975 75.2949L20.5693 73.3662H21.624L19.8955 75.9785L21.6777 78.6494H20.6328L19.4121 76.6719L18.1914 78.6494H17.1416L18.9238 75.9785L17.1953 73.3662H18.2402L19.3975 75.2949Z" fill="black"/>
<path d="M18.552 15.0181C18.456 15.0181 18.424 15.0821 18.424 15.1941V15.7061C18.424 15.8661 18.456 15.9461 18.552 15.9461H22.68C22.76 15.9461 22.808 15.8661 22.808 15.7061V15.1941C22.808 15.0821 22.76 15.0181 22.68 15.0181H18.552ZM17.864 17.2581C17.768 17.2581 17.736 17.3221 17.736 17.4501V17.9461C17.736 18.1221 17.768 18.2021 17.864 18.2021H23.368C23.448 18.2021 23.496 18.1221 23.496 17.9461V17.4501C23.496 17.3221 23.448 17.2581 23.368 17.2581H17.864ZM18.488 19.5141C18.392 19.5141 18.36 19.5781 18.36 19.7061V20.2021C18.36 20.3781 18.392 20.4581 18.488 20.4581H22.744C22.824 20.4581 22.872 20.3781 22.872 20.2021V19.7061C22.872 19.5781 22.824 19.5141 22.744 19.5141H18.488ZM18.488 21.7701C18.392 21.7701 18.36 21.8341 18.36 21.9461V22.4581C18.36 22.6181 18.392 22.6981 18.488 22.6981H22.744C22.824 22.6981 22.872 22.6181 22.872 22.4581V21.9461C22.872 21.8341 22.824 21.7701 22.744 21.7701H18.488ZM18.312 24.0101C18.184 24.0101 18.12 24.0741 18.12 24.2021V28.6981C18.12 28.8261 18.184 28.8901 18.312 28.8901H18.936C19.096 28.8901 19.176 28.8261 19.176 28.6981V27.8341H21.864V28.6341C21.864 28.7621 21.928 28.8261 22.056 28.8261H22.68C22.84 28.8261 22.936 28.7621 22.936 28.6341V24.2021C22.936 24.0741 22.84 24.0101 22.68 24.0101H18.312ZM19.176 26.8901V24.9541H21.864V26.8901H19.176ZM24.056 15.8821C23.96 15.8821 23.928 15.9461 23.928 16.0741V16.5701C23.928 16.7461 23.96 16.8261 24.056 16.8261H27.496V17.8821H24.616C24.52 17.8821 24.488 17.9461 24.488 18.0741V18.5701C24.488 18.7461 24.52 18.8261 24.616 18.8261H27.496V19.8821H23.864C23.768 19.8821 23.736 19.9461 23.736 20.0741V20.5701C23.736 20.7461 23.768 20.8261 23.864 20.8261H32.312C32.376 20.8261 32.424 20.7461 32.424 20.5701V20.0741C32.424 19.9461 32.376 19.8821 32.312 19.8821H28.616V18.8261H31.496C31.576 18.8261 31.624 18.7461 31.624 18.5701V18.0741C31.624 17.9461 31.576 17.8821 31.496 17.8821H28.616V16.8261H32.12C32.2 16.8261 32.248 16.7461 32.248 16.5701V16.0741C32.248 15.9461 32.2 15.8821 32.12 15.8821H28.616V15.1941C28.616 15.0021 28.664 14.8901 28.776 14.8741C28.872 14.8581 28.936 14.7781 28.936 14.6341C28.936 14.5221 28.536 14.4581 27.736 14.4581C27.576 14.4581 27.496 14.5221 27.496 14.6341V15.8821H24.056ZM24.808 21.7061C24.632 21.7061 24.552 21.7701 24.552 21.8821V28.7621C24.552 28.8901 24.632 28.9541 24.808 28.9541H25.432C25.592 28.9541 25.672 28.8901 25.672 28.7621V26.6981H30.312V27.3861C30.312 27.5141 30.216 27.5941 30.056 27.6421C29.928 27.6901 29.48 27.7221 28.744 27.7221C28.648 27.7221 28.616 27.7381 28.616 27.7701C28.84 28.2021 28.952 28.5381 28.984 28.7621C28.984 28.8901 29.048 28.9541 29.176 28.9541C29.832 28.9061 30.36 28.8261 30.776 28.7301C31.208 28.5701 31.432 28.3781 31.432 28.1221V21.8821C31.432 21.7701 31.32 21.7061 31.112 21.7061H24.808ZM25.672 25.7701V24.6341H30.312V25.7701H25.672ZM25.672 23.7061V22.6341H30.312V23.7061H25.672ZM39.048 15.7061H41.176V17.0181H39.048V15.7061ZM39.048 17.7701H41.992C42.152 17.7701 42.248 17.7061 42.248 17.5781V15.1461C42.248 15.0181 42.152 14.9541 41.992 14.9541H38.312C38.136 14.9541 38.056 15.0181 38.056 15.1461V19.0181C38.056 19.6421 38.472 19.9461 39.304 19.9461H41.496C41.912 19.9461 42.168 19.8501 42.264 19.6581C42.36 19.5461 42.456 19.3061 42.552 18.9541C42.552 18.8261 42.488 18.7461 42.392 18.7141C42.168 18.6501 41.912 18.5061 41.624 18.2661C41.576 18.5381 41.528 18.7141 41.496 18.7941C41.464 18.9541 41.352 19.0181 41.176 19.0181H39.864C39.32 19.0181 39.048 18.7941 39.048 18.3301V17.7701ZM44.424 15.7061H46.616V17.0181H44.424V15.7061ZM44.424 17.7701H47.432C47.592 17.7701 47.672 17.7061 47.672 17.5781V15.1461C47.672 15.0181 47.592 14.9541 47.432 14.9541H43.672C43.512 14.9541 43.432 15.0181 43.432 15.1461V19.0821C43.432 19.7061 43.848 20.0101 44.68 20.0101H46.936C47.448 20.0101 47.752 19.9141 47.88 19.7061C48.008 19.5781 48.12 19.3221 48.248 18.9541C48.248 18.8261 48.184 18.7461 48.072 18.7141C47.848 18.6501 47.592 18.5061 47.304 18.2661C47.24 18.5541 47.176 18.7461 47.112 18.8261C47.048 19.0021 46.888 19.0821 46.616 19.0821H45.24C44.696 19.0821 44.424 18.8581 44.424 18.3941V17.7701ZM38.616 21.5781C38.52 21.5781 38.488 21.6421 38.488 21.7701V22.2661C38.488 22.4261 38.52 22.5061 38.616 22.5061H40.616V23.8821H37.992C37.896 23.8821 37.864 23.9461 37.864 24.0741V24.5701C37.864 24.7461 37.896 24.8261 37.992 24.8261H41.032C40.648 25.2901 40.248 25.6581 39.864 25.9301C39.544 26.1541 39.192 26.3781 38.776 26.5701C38.712 26.6021 38.68 26.6341 38.68 26.6981C38.68 26.7621 38.712 26.8261 38.776 26.8901C38.936 27.0341 39.048 27.1781 39.128 27.3061C39.16 27.4021 39.24 27.4501 39.368 27.4501C40.12 27.0341 40.856 26.5061 41.56 25.8341C41.576 25.7861 41.688 25.7541 41.88 25.7541C41.992 25.7541 42.056 25.7221 42.056 25.6421C42.056 25.5781 41.784 25.3061 41.256 24.8261H47.864C47.944 24.8261 47.992 24.7461 47.992 24.5701V24.0741C47.992 23.9461 47.944 23.8821 47.864 23.8821H45.048V22.5061H47.368C47.448 22.5061 47.496 22.4261 47.496 22.2661V21.7701C47.496 21.6421 47.448 21.5781 47.368 21.5781H45.048V21.1941C45.048 21.0181 45.08 20.9221 45.176 20.9061C45.256 20.9061 45.304 20.8261 45.304 20.6981C45.304 20.5701 44.92 20.5061 44.184 20.5061C44.056 20.5061 43.992 20.5541 43.992 20.6341V21.5781H41.672V21.1941C41.672 21.0181 41.704 20.9221 41.8 20.9061C41.88 20.9061 41.928 20.8261 41.928 20.6981C41.928 20.5701 41.544 20.5061 40.808 20.5061C40.68 20.5061 40.616 20.5541 40.616 20.6341V21.5781H38.616ZM41.672 23.8821V22.5061H43.992V23.8821H41.672ZM44.616 24.8901C44.152 25.2741 43.928 25.4981 43.928 25.5781C43.928 25.5941 43.944 25.6261 44.008 25.6901C44.536 26.2341 45.352 26.8101 46.472 27.4181C46.536 27.4501 46.584 27.4501 46.616 27.4501C47.032 27.0341 47.24 26.7941 47.24 26.6981C47.24 26.6661 47.192 26.6181 47.128 26.5541C46.552 26.3301 46.104 26.1061 45.816 25.8981C45.432 25.6421 45.032 25.3061 44.616 24.8901ZM35.112 14.7621C35.08 14.7621 35.032 14.8101 34.984 14.8741C34.648 15.2901 34.488 15.5301 34.488 15.5781C34.744 15.6741 35.048 15.8501 35.432 16.0901C35.88 16.3941 36.328 16.7301 36.744 17.0821C36.744 17.0821 36.904 16.8581 37.224 16.3941C37.272 16.3301 37.304 16.2821 37.304 16.2661C37.032 16.0421 36.712 15.7861 36.344 15.4981C36.024 15.2741 35.608 15.0341 35.112 14.7621ZM34.552 18.5061C34.52 18.5061 34.472 18.5541 34.424 18.6181C34.088 19.0341 33.928 19.2741 33.928 19.3221C34.184 19.4021 34.536 19.5301 34.952 19.7061C35.432 19.9301 35.912 20.1861 36.36 20.4581C36.376 20.4581 36.536 20.2341 36.856 19.7701C36.904 19.7061 36.936 19.6581 36.936 19.6421C36.648 19.4821 36.296 19.2901 35.896 19.0661C35.544 18.9061 35.096 18.7141 34.552 18.5061ZM34.056 22.2021C33.928 22.2021 33.864 22.2981 33.864 22.4581V22.9541C33.864 23.1141 33.928 23.1941 34.056 23.1941H35.992V25.9461C35.992 26.1381 35.96 26.2661 35.928 26.3141C35.176 27.0821 34.552 27.5941 34.056 27.8821C34.056 28.0101 34.072 28.1061 34.12 28.2021C34.456 28.7461 34.664 29.0181 34.744 29.0181C34.776 29.0181 34.824 28.9701 34.856 28.9061C34.92 28.6021 35.368 28.0101 36.2 27.1141C36.2 27.0981 36.248 27.0821 36.312 27.0821L36.36 27.1621C36.552 27.6101 36.744 27.9461 36.92 28.1381C37.176 28.3621 37.448 28.5541 37.752 28.6821C38.072 28.8101 38.424 28.9061 38.776 28.9861C39.128 29.0501 39.48 29.0821 39.864 29.0821H47.624C47.768 29.0821 47.848 28.9861 47.88 28.8101C47.944 28.3621 48.056 27.9301 48.184 27.5141C48.184 27.4821 48.136 27.4501 48.056 27.4501C47.976 27.4501 47.896 27.4661 47.816 27.4981C46.056 27.7861 44.52 27.9461 43.208 27.9461H39.864C39.352 27.9461 38.904 27.8981 38.488 27.8341C38.168 27.7701 37.896 27.6421 37.672 27.4821C37.496 27.3701 37.368 27.1941 37.288 26.9541C37.176 26.7301 37.112 26.3941 37.112 25.9461V22.3941C37.112 22.2661 37.032 22.2021 36.872 22.2021H34.056ZM50.12 17.8821C49.992 17.8821 49.928 17.9781 49.928 18.1381V18.6341C49.928 18.8101 49.992 18.8901 50.12 18.8901H51.672V22.6341C50.872 23.0661 50.2 23.3861 49.624 23.5781C49.928 24.4581 50.136 24.8901 50.248 24.8901C50.344 24.8901 50.456 24.7461 50.616 24.4581C50.968 24.2661 51.32 24.0581 51.672 23.8341V27.4501C51.672 27.8181 51.448 28.0101 51 28.0101C50.696 28.0101 50.36 27.9621 49.992 27.8821C49.896 27.8821 49.864 27.9141 49.864 28.0101C50.024 28.2981 50.12 28.5381 50.168 28.7461C50.168 28.9221 50.216 29.0181 50.312 29.0181H51.112C52.232 29.0181 52.808 28.6341 52.808 27.8821V23.1141C53.304 22.7941 53.8 22.4421 54.312 22.0741C54.344 22.0261 54.36 21.7381 54.36 21.1941C54.36 21.1301 54.312 21.0821 54.248 21.0821C54.216 21.0821 54.184 21.0981 54.168 21.1301C53.736 21.4341 53.288 21.7221 52.808 21.9941V18.8901H54.312C54.424 18.8901 54.488 18.8101 54.488 18.6341V18.1381C54.488 17.9781 54.424 17.8821 54.312 17.8821H52.808V15.8341C52.808 15.4181 52.904 15.1781 53.112 15.0981C53.24 15.0981 53.304 15.0501 53.304 14.9541C53.304 14.9221 53.24 14.8741 53.128 14.8101L51.864 14.6341C51.656 14.6341 51.56 14.6821 51.56 14.7621C51.56 14.8421 51.576 14.9381 51.624 15.0661C51.656 15.2261 51.672 15.4661 51.672 15.7701V17.8821H50.12ZM55.304 14.9541C55.128 14.9541 55.048 15.0181 55.048 15.1461V18.2661C55.048 18.3941 55.128 18.4581 55.304 18.4581H58.936V19.4501H55.8C55.704 19.4501 55.672 19.5141 55.672 19.6421V20.1381C55.672 20.2661 55.704 20.3301 55.8 20.3301H58.936V21.3861H54.872C54.776 21.3861 54.744 21.4501 54.744 21.5781V22.0741C54.744 22.2021 54.776 22.2661 54.872 22.2661H64.12C64.2 22.2661 64.248 22.2021 64.248 22.0741V21.5781C64.248 21.4501 64.2 21.3861 64.12 21.3861H59.992V20.3301H63.176C63.256 20.3301 63.304 20.2661 63.304 20.1381V19.6421C63.304 19.5141 63.256 19.4501 63.176 19.4501H59.992V18.4581H63.496C63.656 18.4581 63.736 18.3941 63.736 18.2661V15.1461C63.736 15.0181 63.656 14.9541 63.496 14.9541H55.304ZM62.68 17.5781H61.112V15.8341H62.68V17.5781ZM60.12 17.5781H58.616V15.8341H60.12V17.5781ZM57.624 17.5781H56.12V15.8341H57.624V17.5781ZM57.56 22.3301C57.016 22.6021 56.744 22.7621 56.744 22.8261C57 23.2101 57.224 23.5781 57.384 23.9461C57.416 24.0421 57.464 24.1221 57.496 24.2021H55.624C55.528 24.2021 55.496 24.2661 55.496 24.3941V24.8901C55.496 25.0181 55.528 25.0821 55.624 25.0821H58.936V26.3301H54.936C54.84 26.3301 54.808 26.3941 54.808 26.5061V27.0181C54.808 27.1461 54.84 27.1941 54.936 27.1941H58.936V28.8901C58.936 29.0181 58.984 29.0821 59.112 29.0821H59.736C59.896 29.0821 59.992 29.0181 59.992 28.8901V27.1941H63.864C63.944 27.1941 63.992 27.1461 63.992 27.0181V26.5061C63.992 26.3941 63.944 26.3301 63.864 26.3301H59.992V25.0821H63.24C63.32 25.0821 63.368 25.0181 63.368 24.8901V24.3941C63.368 24.2661 63.32 24.2021 63.24 24.2021H61.288C61.512 23.8501 61.688 23.5141 61.816 23.2261C61.848 23.1621 61.928 23.1301 62.056 23.1141C62.136 23.1141 62.184 23.0821 62.184 23.0181C62.184 22.9701 62.136 22.9061 62.056 22.8421L61.176 22.3301C61.112 22.3301 61.064 22.3621 61.048 22.4101C60.936 22.7301 60.792 23.0821 60.632 23.4501C60.504 23.7061 60.344 23.9461 60.152 24.2021H58.52C58.424 23.9461 58.328 23.7061 58.2 23.4501C58.04 23.1141 57.816 22.7461 57.56 22.3301Z" fill="#1C1C1C" fill-opacity="0.3"/>
<path d="M92.8711 18.2894L99.9987 25.4171L107.126 18.2894" stroke="#00A19B"/>
<rect x="1.5" y="0.5" width="119" height="41" rx="3.5" stroke="#00A19B"/>
</svg>
