<svg width="189" height="109" viewBox="0 0 189 109" fill="none" xmlns="http://www.w3.org/2000/svg">
<path d="M64.2053 45.5565V57.6205C64.1573 58.1645 63.8693 58.4365 63.3253 58.4365H61.7733L62.3973 59.9405C63.8213 59.9405 64.7173 59.7645 65.0693 59.4445C65.4853 59.1245 65.7093 58.6125 65.7093 57.9405V46.3725C65.9653 46.2125 66.0933 46.0685 66.0933 45.9405C66.0933 45.8285 65.9973 45.7645 65.8053 45.7485L64.2053 45.5565ZM60.3333 48.9325C59.6133 51.4285 58.6533 53.5565 57.4533 55.3165L59.0213 56.0685C59.9653 54.4685 60.8613 52.4685 61.7093 50.0685C61.8693 49.9725 61.9653 49.8605 61.9653 49.7485C61.9653 49.6845 61.9013 49.6365 61.7733 49.5725L60.3333 48.9325ZM69.2133 48.9325L67.8373 49.2525C68.0933 50.5805 68.4453 51.8125 68.9093 52.9485C69.3093 53.9565 69.8213 54.9965 70.4613 56.0685L72.0933 55.3165C71.2453 54.1965 70.6213 53.1405 70.2213 52.1485C69.8053 51.2045 69.4693 50.1325 69.2133 48.9325ZM73.4533 47.8125V49.1885H75.5173V52.7565C74.7812 53.0765 74.0293 53.3645 73.2773 53.6205L73.7893 55.0445C73.8533 55.2365 73.9333 55.3165 74.0293 55.3165C74.1573 55.3165 74.3013 55.1565 74.4613 54.8045L75.5173 54.2445V58.0045C75.4853 58.4685 75.2773 58.6925 74.9093 58.6925H73.8372L74.3973 60.0685C75.4693 60.0685 76.1413 59.9085 76.4133 59.6045C76.7333 59.3165 76.8932 58.8525 76.8932 58.2445V53.5245L78.7173 52.5645V51.1885C78.1093 51.5245 77.5013 51.8285 76.8932 52.1165V49.1885H78.7173V47.8125H76.8932V46.1165C77.1493 45.9885 77.2773 45.8605 77.2773 45.7485C77.2773 45.6525 77.1813 45.5885 77.0213 45.5565L75.5173 45.3805V47.8125H73.4533ZM82.8933 45.3805V47.3805H79.2773V50.5005H80.6533V48.6285H86.5893V50.5005H87.9653V47.3805H84.3333V46.0685C84.4933 45.8925 84.5893 45.7645 84.5893 45.6845C84.5893 45.5725 84.4613 45.5085 84.2053 45.4765L82.8933 45.3805ZM82.7812 49.0605C82.4933 49.8285 82.1733 50.5805 81.8212 51.3165H79.0213V52.5645H81.2292C81.2292 52.5645 81.2133 52.5805 81.2133 52.5965C80.6213 53.8125 79.8533 55.1085 78.8933 56.5005L80.2693 56.9965C80.4293 56.7405 80.6053 56.4845 80.7812 56.2125C81.4213 56.4365 82.0133 56.6765 82.5893 56.9325C82.1573 57.2525 81.6613 57.5245 81.1013 57.7645C80.4613 58.0845 79.5173 58.4045 78.2693 58.7565L79.4533 60.0045C80.7653 59.4925 81.8212 59.0125 82.6533 58.5645C83.1173 58.2925 83.5493 57.9885 83.9493 57.6525C83.9653 57.6685 83.9973 57.6845 84.0293 57.7005C84.8933 58.2445 85.8693 59.0125 86.9573 60.0045L88.0293 58.9325C87.1333 58.1645 86.2053 57.4605 85.2133 56.8365C85.1173 56.7885 85.0053 56.7245 84.9093 56.6605C85.2773 56.1805 85.5973 55.6685 85.8533 55.0925C86.1733 54.4685 86.4293 53.6205 86.5893 52.5645H88.2053V51.3165H83.3733C83.5333 50.9325 83.7093 50.5325 83.9013 50.1165C84.1413 49.9725 84.2693 49.8445 84.2693 49.7485C84.2693 49.6845 84.1893 49.6205 84.0613 49.5885L82.7812 49.0605ZM85.1973 52.5645C85.0053 53.3965 84.7813 54.0845 84.5253 54.5965C84.2853 55.1085 83.9973 55.5725 83.6453 55.9885C82.9413 55.6685 82.2053 55.3805 81.4373 55.1245C81.8853 54.3405 82.3333 53.4925 82.7812 52.5645H85.1973ZM93.0213 45.3805C92.4613 46.2605 91.9013 46.9965 91.3413 47.5725C90.7333 48.2285 90.0133 48.8685 89.1493 49.4925L90.1413 50.5005C90.3013 50.3725 90.4613 50.2445 90.6533 50.0845V51.2525H92.4613V52.8045H89.9013V54.0685H92.4613V58.1005C91.5813 58.2445 90.6853 58.3565 89.7733 58.4365L90.1093 59.8285C90.1093 59.9885 90.1733 60.0685 90.2693 60.0685C90.3653 60.0685 90.4773 59.9725 90.5893 59.8125C93.1173 59.3165 94.9573 58.9165 96.1413 58.6285V57.4285C95.3573 57.6045 94.5733 57.7645 93.7733 57.8925V54.0685H95.9013V52.8045H93.7733V51.2525H95.4533V50.0045H90.7493C91.2773 49.5725 91.7573 49.1565 92.1733 48.7565C92.5253 48.4045 92.9253 47.9725 93.3413 47.4605C94.0773 48.4365 94.9413 49.3005 95.9653 50.0685L97.0853 48.8685C95.9013 48.2765 94.8933 47.5085 94.0613 46.5485C94.0613 46.5485 94.0773 46.5325 94.0933 46.5005C94.3333 46.4205 94.4613 46.2925 94.4613 46.1165C94.4613 46.0525 94.3813 45.9885 94.2533 45.9245L93.0213 45.3805ZM91.0213 54.9325L89.8372 55.4925C90.2053 56.2285 90.5413 56.9645 90.8293 57.6845L91.9653 57.0605C91.6773 56.3725 91.3733 55.6685 91.0213 54.9325ZM95.0213 54.6925L94.2693 56.7565L95.3413 57.2525L96.0293 55.7485C96.1893 55.6685 96.2693 55.5565 96.2693 55.4285C96.2693 55.3645 96.1893 55.3005 96.0453 55.2205L95.0213 54.6925ZM96.8293 46.5645V47.7485H98.4773L98.1573 51.8765H96.3973V53.1245H98.0613L97.6933 58.1165H96.3973V59.4285H103.773V58.1165H102.365L102.621 53.1245H103.645V51.8765H102.685L102.957 46.5645H96.8293ZM99.0053 58.1165L99.3893 53.1245H101.309L101.053 58.1165H99.0053ZM99.7893 47.7485H101.581L101.373 51.8765H99.4853L99.7893 47.7485Z" fill="#00A19B"/>
<path d="M114.781 50.1123L121.852 57.1833L128.923 50.1123" stroke="#00A19B"/>
<path d="M104.18 85.9918L109.18 88.8786L109.18 83.1051L104.18 85.9918ZM118.555 85.9918L113.555 83.1051L113.555 88.8786L118.555 85.9918ZM108.68 86.4918L114.055 86.4918L114.055 85.4918L108.68 85.4918L108.68 86.4918Z" fill="#E73525"/>
<path d="M105.927 105.742H105.019V99.7213L103.197 100.39V99.5699L105.785 98.5983H105.927V105.742ZM113.031 102.71C113.031 103.768 112.851 104.554 112.489 105.068C112.128 105.582 111.563 105.839 110.795 105.839C110.036 105.839 109.475 105.589 109.11 105.088C108.746 104.583 108.557 103.831 108.544 102.832V101.626C108.544 100.581 108.725 99.8043 109.086 99.2965C109.447 98.7887 110.014 98.5348 110.785 98.5348C111.55 98.5348 112.113 98.7806 112.475 99.2721C112.836 99.7604 113.021 100.516 113.031 101.538V102.71ZM112.128 101.474C112.128 100.709 112.021 100.153 111.806 99.8043C111.591 99.4528 111.251 99.277 110.785 99.277C110.323 99.277 109.986 99.4511 109.774 99.7994C109.563 100.148 109.454 100.683 109.447 101.406V102.851C109.447 103.619 109.558 104.187 109.779 104.555C110.004 104.92 110.342 105.102 110.795 105.102C111.241 105.102 111.571 104.93 111.786 104.585C112.004 104.24 112.118 103.696 112.128 102.954V101.474ZM118.744 103.159C118.744 103.963 118.56 104.611 118.192 105.102C117.825 105.594 117.326 105.839 116.698 105.839C116.057 105.839 115.552 105.636 115.185 105.229V107.773H114.281V100.459H115.106L115.15 101.045C115.518 100.589 116.029 100.361 116.684 100.361C117.318 100.361 117.82 100.6 118.188 101.079C118.559 101.557 118.744 102.223 118.744 103.076V103.159ZM117.841 103.056C117.841 102.461 117.714 101.99 117.46 101.645C117.206 101.3 116.858 101.128 116.415 101.128C115.868 101.128 115.458 101.37 115.185 101.855V104.38C115.455 104.861 115.868 105.102 116.425 105.102C116.858 105.102 117.201 104.931 117.455 104.589C117.712 104.244 117.841 103.733 117.841 103.056ZM121.591 102.387L122.763 100.459H123.817L122.089 103.071L123.871 105.742H122.826L121.605 103.764L120.385 105.742H119.335L121.117 103.071L119.389 100.459H120.434L121.591 102.387Z" fill="black"/>
<path d="M162.092 32.4379L159.205 37.4379L164.979 37.4379L162.092 32.4379ZM162.092 74.4379L164.979 69.4379L159.205 69.4379L162.092 74.4379ZM161.592 36.9379L161.592 69.9379L162.592 69.9379L162.592 36.9379L161.592 36.9379Z" fill="#E73525"/>
<path d="M171.367 56.4948H172.354V57.2321H171.367V58.8824H170.459V57.2321H167.222V56.6998L170.405 51.7731H171.367V56.4948ZM168.247 56.4948H170.459V53.0084L170.352 53.2037L168.247 56.4948ZM177.827 58.8824H173.169V58.233L175.63 55.4987C175.994 55.0852 176.245 54.75 176.382 54.4928C176.522 54.2324 176.592 53.9638 176.592 53.6871C176.592 53.316 176.479 53.0117 176.255 52.774C176.03 52.5364 175.731 52.4176 175.356 52.4176C174.907 52.4176 174.557 52.5462 174.307 52.8033C174.059 53.0573 173.936 53.4121 173.936 53.8678H173.032C173.032 53.2135 173.242 52.6845 173.662 52.2809C174.085 51.8772 174.65 51.6754 175.356 51.6754C176.017 51.6754 176.54 51.8496 176.924 52.1979C177.308 52.5429 177.5 53.0035 177.5 53.5797C177.5 54.2796 177.054 55.1129 176.162 56.0797L174.258 58.1451H177.827V58.8824ZM183.34 56.2994C183.34 57.1035 183.156 57.7513 182.788 58.2428C182.42 58.7343 181.922 58.9801 181.294 58.9801C180.653 58.9801 180.148 58.7767 179.78 58.3698V60.9137H178.877V53.5992H179.702L179.746 54.1852C180.114 53.7295 180.625 53.5016 181.279 53.5016C181.914 53.5016 182.415 53.7408 182.783 54.2194C183.154 54.6979 183.34 55.3636 183.34 56.2164V56.2994ZM182.437 56.1969C182.437 55.6012 182.31 55.1308 182.056 54.7858C181.802 54.4407 181.453 54.2682 181.011 54.2682C180.464 54.2682 180.054 54.5107 179.78 54.9957V57.5201C180.05 58.0019 180.464 58.2428 181.021 58.2428C181.453 58.2428 181.797 58.0719 182.051 57.7301C182.308 57.3851 182.437 56.874 182.437 56.1969ZM186.187 55.528L187.358 53.5992H188.413L186.685 56.2115L188.467 58.8824H187.422L186.201 56.9049L184.98 58.8824H183.931L185.713 56.2115L183.984 53.5992H185.029L186.187 55.528Z" fill="black"/>
<path d="M3.55957 43.0411H2.65137V37.0206L0.830078 37.6896V36.8693L3.41797 35.8976H3.55957V43.0411ZM10.8643 43.0411H6.20605V42.3917L8.66699 39.6573C9.03158 39.2439 9.28223 38.9087 9.41895 38.6515C9.55892 38.3911 9.62891 38.1225 9.62891 37.8458C9.62891 37.4747 9.5166 37.1704 9.29199 36.9327C9.06738 36.6951 8.7679 36.5763 8.39355 36.5763C7.94434 36.5763 7.5944 36.7049 7.34375 36.962C7.09635 37.2159 6.97266 37.5708 6.97266 38.0265H6.06934C6.06934 37.3722 6.2793 36.8432 6.69922 36.4396C7.1224 36.0359 7.68717 35.8341 8.39355 35.8341C9.05436 35.8341 9.57682 36.0083 9.96094 36.3566C10.3451 36.7016 10.5371 37.1622 10.5371 37.7384C10.5371 38.4383 10.0911 39.2716 9.19922 40.2384L7.29492 42.3038H10.8643V43.0411ZM16.377 40.4581C16.377 41.2622 16.193 41.91 15.8252 42.4015C15.4574 42.893 14.9593 43.1388 14.3311 43.1388C13.6898 43.1388 13.1852 42.9353 12.8174 42.5284V45.0724H11.9141V37.7579H12.7393L12.7832 38.3439C13.151 37.8881 13.6621 37.6603 14.3164 37.6603C14.9512 37.6603 15.4525 37.8995 15.8203 38.3781C16.1914 38.8566 16.377 39.5223 16.377 40.3751V40.4581ZM15.4736 40.3556C15.4736 39.7599 15.3467 39.2895 15.0928 38.9445C14.8389 38.5994 14.4906 38.4269 14.0479 38.4269C13.501 38.4269 13.0908 38.6694 12.8174 39.1544V41.6788C13.0876 42.1606 13.501 42.4015 14.0576 42.4015C14.4906 42.4015 14.834 42.2306 15.0879 41.8888C15.3451 41.5437 15.4736 41.0327 15.4736 40.3556ZM19.2236 39.6866L20.3955 37.7579H21.4502L19.7217 40.3702L21.5039 43.0411H20.459L19.2383 41.0636L18.0176 43.0411H16.9678L18.75 40.3702L17.0215 37.7579H18.0664L19.2236 39.6866Z" fill="black"/>
<path d="M33.1113 32.5165L30.2246 37.5165L35.9981 37.5165L33.1113 32.5165ZM33.1113 46.0165L35.9981 41.0165L30.2246 41.0165L33.1113 46.0165ZM32.6113 37.0165L32.6113 41.5165L33.6113 41.5165L33.6113 37.0165L32.6113 37.0165Z" fill="#E73525"/>
<rect x="38.2285" y="32.5" width="109" height="42" rx="3.5" stroke="#00A19B"/>
</svg>
