<svg width="176" height="50" viewBox="0 0 176 50" fill="none" xmlns="http://www.w3.org/2000/svg">
<rect x="0.5" y="0.5" width="175" height="49" rx="3.5" fill="#ACACAC" stroke="#ACACAC"/>
<path d="M140.797 22.1106L148.797 30.1106L156.797 22.1106" stroke="white"/>
<path d="M25.746 16.852C25.638 16.852 25.602 16.924 25.602 17.05V17.626C25.602 17.806 25.638 17.896 25.746 17.896H30.39C30.48 17.896 30.534 17.806 30.534 17.626V17.05C30.534 16.924 30.48 16.852 30.39 16.852H25.746ZM24.972 19.372C24.864 19.372 24.828 19.444 24.828 19.588V20.146C24.828 20.344 24.864 20.434 24.972 20.434H31.164C31.254 20.434 31.308 20.344 31.308 20.146V19.588C31.308 19.444 31.254 19.372 31.164 19.372H24.972ZM25.674 21.91C25.566 21.91 25.53 21.982 25.53 22.126V22.684C25.53 22.882 25.566 22.972 25.674 22.972H30.462C30.552 22.972 30.606 22.882 30.606 22.684V22.126C30.606 21.982 30.552 21.91 30.462 21.91H25.674ZM25.674 24.448C25.566 24.448 25.53 24.52 25.53 24.646V25.222C25.53 25.402 25.566 25.492 25.674 25.492H30.462C30.552 25.492 30.606 25.402 30.606 25.222V24.646C30.606 24.52 30.552 24.448 30.462 24.448H25.674ZM25.476 26.968C25.332 26.968 25.26 27.04 25.26 27.184V32.242C25.26 32.386 25.332 32.458 25.476 32.458H26.178C26.358 32.458 26.448 32.386 26.448 32.242V31.27H29.472V32.17C29.472 32.314 29.544 32.386 29.688 32.386H30.39C30.57 32.386 30.678 32.314 30.678 32.17V27.184C30.678 27.04 30.57 26.968 30.39 26.968H25.476ZM26.448 30.208V28.03H29.472V30.208H26.448ZM31.938 17.824C31.83 17.824 31.794 17.896 31.794 18.04V18.598C31.794 18.796 31.83 18.886 31.938 18.886H35.808V20.074H32.568C32.46 20.074 32.424 20.146 32.424 20.29V20.848C32.424 21.046 32.46 21.136 32.568 21.136H35.808V22.324H31.722C31.614 22.324 31.578 22.396 31.578 22.54V23.098C31.578 23.296 31.614 23.386 31.722 23.386H41.226C41.298 23.386 41.352 23.296 41.352 23.098V22.54C41.352 22.396 41.298 22.324 41.226 22.324H37.068V21.136H40.308C40.398 21.136 40.452 21.046 40.452 20.848V20.29C40.452 20.146 40.398 20.074 40.308 20.074H37.068V18.886H41.01C41.1 18.886 41.154 18.796 41.154 18.598V18.04C41.154 17.896 41.1 17.824 41.01 17.824H37.068V17.05C37.068 16.834 37.122 16.708 37.248 16.69C37.356 16.672 37.428 16.582 37.428 16.42C37.428 16.294 36.978 16.222 36.078 16.222C35.898 16.222 35.808 16.294 35.808 16.42V17.824H31.938ZM32.784 24.376C32.586 24.376 32.496 24.448 32.496 24.574V32.314C32.496 32.458 32.586 32.53 32.784 32.53H33.486C33.666 32.53 33.756 32.458 33.756 32.314V29.992H38.976V30.766C38.976 30.91 38.868 31 38.688 31.054C38.544 31.108 38.04 31.144 37.212 31.144C37.104 31.144 37.068 31.162 37.068 31.198C37.32 31.684 37.446 32.062 37.482 32.314C37.482 32.458 37.554 32.53 37.698 32.53C38.436 32.476 39.03 32.386 39.498 32.278C39.984 32.098 40.236 31.882 40.236 31.594V24.574C40.236 24.448 40.11 24.376 39.876 24.376H32.784ZM33.756 28.948V27.67H38.976V28.948H33.756ZM33.756 26.626V25.42H38.976V26.626H33.756ZM48.804 17.626H51.198V19.102H48.804V17.626ZM48.804 19.948H52.116C52.296 19.948 52.404 19.876 52.404 19.732V16.996C52.404 16.852 52.296 16.78 52.116 16.78H47.976C47.778 16.78 47.688 16.852 47.688 16.996V21.352C47.688 22.054 48.156 22.396 49.092 22.396H51.558C52.026 22.396 52.314 22.288 52.422 22.072C52.53 21.946 52.638 21.676 52.746 21.28C52.746 21.136 52.674 21.046 52.566 21.01C52.314 20.938 52.026 20.776 51.702 20.506C51.648 20.812 51.594 21.01 51.558 21.1C51.522 21.28 51.396 21.352 51.198 21.352H49.722C49.11 21.352 48.804 21.1 48.804 20.578V19.948ZM54.852 17.626H57.318V19.102H54.852V17.626ZM54.852 19.948H58.236C58.416 19.948 58.506 19.876 58.506 19.732V16.996C58.506 16.852 58.416 16.78 58.236 16.78H54.006C53.826 16.78 53.736 16.852 53.736 16.996V21.424C53.736 22.126 54.204 22.468 55.14 22.468H57.678C58.254 22.468 58.596 22.36 58.74 22.126C58.884 21.982 59.01 21.694 59.154 21.28C59.154 21.136 59.082 21.046 58.956 21.01C58.704 20.938 58.416 20.776 58.092 20.506C58.02 20.83 57.948 21.046 57.876 21.136C57.804 21.334 57.624 21.424 57.318 21.424H55.77C55.158 21.424 54.852 21.172 54.852 20.65V19.948ZM48.318 24.232C48.21 24.232 48.174 24.304 48.174 24.448V25.006C48.174 25.186 48.21 25.276 48.318 25.276H50.568V26.824H47.616C47.508 26.824 47.472 26.896 47.472 27.04V27.598C47.472 27.796 47.508 27.886 47.616 27.886H51.036C50.604 28.408 50.154 28.822 49.722 29.128C49.362 29.38 48.966 29.632 48.498 29.848C48.426 29.884 48.39 29.92 48.39 29.992C48.39 30.064 48.426 30.136 48.498 30.208C48.678 30.37 48.804 30.532 48.894 30.676C48.93 30.784 49.02 30.838 49.164 30.838C50.01 30.37 50.838 29.776 51.63 29.02C51.648 28.966 51.774 28.93 51.99 28.93C52.116 28.93 52.188 28.894 52.188 28.804C52.188 28.732 51.882 28.426 51.288 27.886H58.722C58.812 27.886 58.866 27.796 58.866 27.598V27.04C58.866 26.896 58.812 26.824 58.722 26.824H55.554V25.276H58.164C58.254 25.276 58.308 25.186 58.308 25.006V24.448C58.308 24.304 58.254 24.232 58.164 24.232H55.554V23.8C55.554 23.602 55.59 23.494 55.698 23.476C55.788 23.476 55.842 23.386 55.842 23.242C55.842 23.098 55.41 23.026 54.582 23.026C54.438 23.026 54.366 23.08 54.366 23.17V24.232H51.756V23.8C51.756 23.602 51.792 23.494 51.9 23.476C51.99 23.476 52.044 23.386 52.044 23.242C52.044 23.098 51.612 23.026 50.784 23.026C50.64 23.026 50.568 23.08 50.568 23.17V24.232H48.318ZM51.756 26.824V25.276H54.366V26.824H51.756ZM55.068 27.958C54.546 28.39 54.294 28.642 54.294 28.732C54.294 28.75 54.312 28.786 54.384 28.858C54.978 29.47 55.896 30.118 57.156 30.802C57.228 30.838 57.282 30.838 57.318 30.838C57.786 30.37 58.02 30.1 58.02 29.992C58.02 29.956 57.966 29.902 57.894 29.83C57.246 29.578 56.742 29.326 56.418 29.092C55.986 28.804 55.536 28.426 55.068 27.958ZM44.376 16.564C44.34 16.564 44.286 16.618 44.232 16.69C43.854 17.158 43.674 17.428 43.674 17.482C43.962 17.59 44.304 17.788 44.736 18.058C45.24 18.4 45.744 18.778 46.212 19.174C46.212 19.174 46.392 18.922 46.752 18.4C46.806 18.328 46.842 18.274 46.842 18.256C46.536 18.004 46.176 17.716 45.762 17.392C45.402 17.14 44.934 16.87 44.376 16.564ZM43.746 20.776C43.71 20.776 43.656 20.83 43.602 20.902C43.224 21.37 43.044 21.64 43.044 21.694C43.332 21.784 43.728 21.928 44.196 22.126C44.736 22.378 45.276 22.666 45.78 22.972C45.798 22.972 45.978 22.72 46.338 22.198C46.392 22.126 46.428 22.072 46.428 22.054C46.104 21.874 45.708 21.658 45.258 21.406C44.862 21.226 44.358 21.01 43.746 20.776ZM43.188 24.934C43.044 24.934 42.972 25.042 42.972 25.222V25.78C42.972 25.96 43.044 26.05 43.188 26.05H45.366V29.146C45.366 29.362 45.33 29.506 45.294 29.56C44.448 30.424 43.746 31 43.188 31.324C43.188 31.468 43.206 31.576 43.26 31.684C43.638 32.296 43.872 32.602 43.962 32.602C43.998 32.602 44.052 32.548 44.088 32.476C44.16 32.134 44.664 31.468 45.6 30.46C45.6 30.442 45.654 30.424 45.726 30.424L45.78 30.514C45.996 31.018 46.212 31.396 46.41 31.612C46.698 31.864 47.004 32.08 47.346 32.224C47.706 32.368 48.102 32.476 48.498 32.566C48.894 32.638 49.29 32.674 49.722 32.674H58.452C58.614 32.674 58.704 32.566 58.74 32.368C58.812 31.864 58.938 31.378 59.082 30.91C59.082 30.874 59.028 30.838 58.938 30.838C58.848 30.838 58.758 30.856 58.668 30.892C56.688 31.216 54.96 31.396 53.484 31.396H49.722C49.146 31.396 48.642 31.342 48.174 31.27C47.814 31.198 47.508 31.054 47.256 30.874C47.058 30.748 46.914 30.55 46.824 30.28C46.698 30.028 46.626 29.65 46.626 29.146V25.15C46.626 25.006 46.536 24.934 46.356 24.934H43.188ZM61.26 20.074C61.116 20.074 61.044 20.182 61.044 20.362V20.92C61.044 21.118 61.116 21.208 61.26 21.208H63.006V25.42C62.106 25.906 61.35 26.266 60.702 26.482C61.044 27.472 61.278 27.958 61.404 27.958C61.512 27.958 61.638 27.796 61.818 27.472C62.214 27.256 62.61 27.022 63.006 26.77V30.838C63.006 31.252 62.754 31.468 62.25 31.468C61.908 31.468 61.53 31.414 61.116 31.324C61.008 31.324 60.972 31.36 60.972 31.468C61.152 31.792 61.26 32.062 61.314 32.296C61.314 32.494 61.368 32.602 61.476 32.602H62.376C63.636 32.602 64.284 32.17 64.284 31.324V25.96C64.842 25.6 65.4 25.204 65.976 24.79C66.012 24.736 66.03 24.412 66.03 23.8C66.03 23.728 65.976 23.674 65.904 23.674C65.868 23.674 65.832 23.692 65.814 23.728C65.328 24.07 64.824 24.394 64.284 24.7V21.208H65.976C66.102 21.208 66.174 21.118 66.174 20.92V20.362C66.174 20.182 66.102 20.074 65.976 20.074H64.284V17.77C64.284 17.302 64.392 17.032 64.626 16.942C64.77 16.942 64.842 16.888 64.842 16.78C64.842 16.744 64.77 16.69 64.644 16.618L63.222 16.42C62.988 16.42 62.88 16.474 62.88 16.564C62.88 16.654 62.898 16.762 62.952 16.906C62.988 17.086 63.006 17.356 63.006 17.698V20.074H61.26ZM67.092 16.78C66.894 16.78 66.804 16.852 66.804 16.996V20.506C66.804 20.65 66.894 20.722 67.092 20.722H71.178V21.838H67.65C67.542 21.838 67.506 21.91 67.506 22.054V22.612C67.506 22.756 67.542 22.828 67.65 22.828H71.178V24.016H66.606C66.498 24.016 66.462 24.088 66.462 24.232V24.79C66.462 24.934 66.498 25.006 66.606 25.006H77.01C77.1 25.006 77.154 24.934 77.154 24.79V24.232C77.154 24.088 77.1 24.016 77.01 24.016H72.366V22.828H75.948C76.038 22.828 76.092 22.756 76.092 22.612V22.054C76.092 21.91 76.038 21.838 75.948 21.838H72.366V20.722H76.308C76.488 20.722 76.578 20.65 76.578 20.506V16.996C76.578 16.852 76.488 16.78 76.308 16.78H67.092ZM75.39 19.732H73.626V17.77H75.39V19.732ZM72.51 19.732H70.818V17.77H72.51V19.732ZM69.702 19.732H68.01V17.77H69.702V19.732ZM69.63 25.078C69.018 25.384 68.712 25.564 68.712 25.636C69 26.068 69.252 26.482 69.432 26.896C69.468 27.004 69.522 27.094 69.558 27.184H67.452C67.344 27.184 67.308 27.256 67.308 27.4V27.958C67.308 28.102 67.344 28.174 67.452 28.174H71.178V29.578H66.678C66.57 29.578 66.534 29.65 66.534 29.776V30.352C66.534 30.496 66.57 30.55 66.678 30.55H71.178V32.458C71.178 32.602 71.232 32.674 71.376 32.674H72.078C72.258 32.674 72.366 32.602 72.366 32.458V30.55H76.722C76.812 30.55 76.866 30.496 76.866 30.352V29.776C76.866 29.65 76.812 29.578 76.722 29.578H72.366V28.174H76.02C76.11 28.174 76.164 28.102 76.164 27.958V27.4C76.164 27.256 76.11 27.184 76.02 27.184H73.824C74.076 26.788 74.274 26.41 74.418 26.086C74.454 26.014 74.544 25.978 74.688 25.96C74.778 25.96 74.832 25.924 74.832 25.852C74.832 25.798 74.778 25.726 74.688 25.654L73.698 25.078C73.626 25.078 73.572 25.114 73.554 25.168C73.428 25.528 73.266 25.924 73.086 26.338C72.942 26.626 72.762 26.896 72.546 27.184H70.71C70.602 26.896 70.494 26.626 70.35 26.338C70.17 25.96 69.918 25.546 69.63 25.078Z" fill="white"/>
</svg>
