<svg width="176" height="252" viewBox="0 0 176 252" fill="none" xmlns="http://www.w3.org/2000/svg">
<path d="M42.9956 56.3495V58.0695H50.5756C50.3756 59.5495 49.9556 60.8895 49.3356 62.0495C48.7356 63.1695 47.6956 64.2695 46.1956 65.3495C45.2556 66.0695 43.9556 66.8095 42.2956 67.6095L43.9356 69.0895C45.5356 68.2495 46.9156 67.3495 48.0956 66.3495C49.7156 65.0295 50.8356 63.6495 51.4556 62.2295C51.6356 61.7895 51.7956 61.3295 51.9556 60.8095C52.5556 62.3695 53.2756 63.6695 54.0756 64.7295C55.4356 66.5895 57.1356 68.0295 59.1556 69.0895L60.7956 67.2095C58.4356 66.1895 56.6956 64.9695 55.5556 63.5295C54.3156 62.1895 53.3356 60.3695 52.6156 58.0695H60.0956V56.3495H52.5756C52.5756 56.2095 52.5956 56.0495 52.5956 55.8895V52.1295C52.9156 51.9295 53.0756 51.7295 53.0756 51.5095C53.0756 51.3695 52.8956 51.2895 52.5556 51.2695L50.5756 51.1095C50.6556 51.7095 50.7156 52.2095 50.7156 52.6095V55.8895C50.7156 56.0495 50.6956 56.1895 50.6956 56.3495H42.9956ZM62.3556 54.0095V55.7295H64.9356V60.1895C64.0156 60.5895 63.0756 60.9495 62.1356 61.2695L62.7756 63.0495C62.8556 63.2895 62.9556 63.3895 63.0756 63.3895C63.2356 63.3895 63.4156 63.1895 63.6156 62.7495L64.9356 62.0495V66.7495C64.8956 67.3295 64.6356 67.6095 64.1756 67.6095H62.8356L63.5356 69.3295C64.8756 69.3295 65.7156 69.1295 66.0556 68.7495C66.4556 68.3895 66.6556 67.8095 66.6556 67.0495V61.1495L68.9356 59.9495V58.2295C68.1756 58.6495 67.4156 59.0295 66.6556 59.3895V55.7295H68.9356V54.0095H66.6556V51.8895C66.9756 51.7295 67.1356 51.5695 67.1356 51.4295C67.1356 51.3095 67.0156 51.2295 66.8156 51.1895L64.9356 50.9695V54.0095H62.3556ZM74.1556 50.9695V53.4695H69.6356V57.3695H71.3556V55.0295H78.7756V57.3695H80.4956V53.4695H75.9556V51.8295C76.1556 51.6095 76.2756 51.4495 76.2756 51.3495C76.2756 51.2095 76.1156 51.1295 75.7956 51.0895L74.1556 50.9695ZM74.0156 55.5695C73.6556 56.5295 73.2556 57.4695 72.8156 58.3895H69.3156V59.9495H72.0756C72.0756 59.9495 72.0556 59.9695 72.0556 59.9895C71.3156 61.5095 70.3556 63.1295 69.1556 64.8695L70.8756 65.4895C71.0756 65.1695 71.2956 64.8495 71.5156 64.5095C72.3156 64.7895 73.0556 65.0895 73.7756 65.4095C73.2356 65.8095 72.6156 66.1495 71.9156 66.4495C71.1156 66.8495 69.9356 67.2495 68.3756 67.6895L69.8556 69.2495C71.4956 68.6095 72.8156 68.0095 73.8556 67.4495C74.4356 67.1095 74.9756 66.7295 75.4756 66.3095C75.4956 66.3295 75.5356 66.3495 75.5756 66.3695C76.6556 67.0495 77.8756 68.0095 79.2356 69.2495L80.5756 67.9095C79.4556 66.9495 78.2956 66.0695 77.0556 65.2895C76.9356 65.2295 76.7956 65.1495 76.6756 65.0695C77.1356 64.4695 77.5356 63.8295 77.8556 63.1095C78.2556 62.3295 78.5756 61.2695 78.7756 59.9495H80.7956V58.3895H74.7556C74.9556 57.9095 75.1756 57.4095 75.4156 56.8895C75.7156 56.7095 75.8756 56.5495 75.8756 56.4295C75.8756 56.3495 75.7756 56.2695 75.6156 56.2295L74.0156 55.5695ZM77.0356 59.9495C76.7956 60.9895 76.5156 61.8495 76.1956 62.4895C75.8956 63.1295 75.5356 63.7095 75.0956 64.2295C74.2156 63.8295 73.2956 63.4695 72.3356 63.1495C72.8956 62.1695 73.4556 61.1095 74.0156 59.9495H77.0356ZM86.8156 50.9695C86.1156 52.0695 85.4156 52.9895 84.7156 53.7095C83.9556 54.5295 83.0556 55.3295 81.9756 56.1095L83.2156 57.3695C83.4156 57.2095 83.6156 57.0495 83.8556 56.8495V58.3095H86.1156V60.2495H82.9156V61.8295H86.1156V66.8695C85.0156 67.0495 83.8956 67.1895 82.7556 67.2895L83.1756 69.0295C83.1756 69.2295 83.2556 69.3295 83.3756 69.3295C83.4956 69.3295 83.6356 69.2095 83.7756 69.0095C86.9356 68.3895 89.2356 67.8895 90.7156 67.5295V66.0295C89.7356 66.2495 88.7556 66.4495 87.7556 66.6095V61.8295H90.4156V60.2495H87.7556V58.3095H89.8556V56.7495H83.9756C84.6356 56.2095 85.2356 55.6895 85.7556 55.1895C86.1956 54.7495 86.6956 54.2095 87.2156 53.5695C88.1356 54.7895 89.2156 55.8695 90.4956 56.8295L91.8956 55.3295C90.4156 54.5895 89.1556 53.6295 88.1156 52.4295C88.1156 52.4295 88.1356 52.4095 88.1556 52.3695C88.4556 52.2695 88.6156 52.1095 88.6156 51.8895C88.6156 51.8095 88.5156 51.7295 88.3556 51.6495L86.8156 50.9695ZM84.3156 62.9095L82.8356 63.6095C83.2956 64.5295 83.7156 65.4495 84.0756 66.3495L85.4956 65.5695C85.1356 64.7095 84.7556 63.8295 84.3156 62.9095ZM89.3156 62.6095L88.3756 65.1895L89.7156 65.8095L90.5756 63.9295C90.7756 63.8295 90.8756 63.6895 90.8756 63.5295C90.8756 63.4495 90.7756 63.3695 90.5956 63.2695L89.3156 62.6095ZM91.5756 52.4495V53.9295H93.6356L93.2356 59.0895H91.0356V60.6495H93.1156L92.6556 66.8895H91.0356V68.5295H100.256V66.8895H98.4956L98.8156 60.6495H100.096V59.0895H98.8956L99.2356 52.4495H91.5756ZM94.2956 66.8895L94.7756 60.6495H97.1756L96.8556 66.8895H94.2956ZM95.2756 53.9295H97.5156L97.2556 59.0895H94.8956L95.2756 53.9295Z" fill="#00A19B"/>
<path d="M117.516 57.4853L126.001 65.9706L134.486 57.4853" stroke="#00A19B"/>
<rect x="0.5" y="33.5" width="175" height="218" rx="3.5" stroke="#00A19B"/>
<path d="M30.8821 106.699H33.2761V108.175H30.8821V106.699ZM30.8821 109.021H34.1941C34.3741 109.021 34.4821 108.949 34.4821 108.805V106.069C34.4821 105.925 34.3741 105.853 34.1941 105.853H30.0541C29.8561 105.853 29.7661 105.925 29.7661 106.069V110.425C29.7661 111.127 30.2341 111.469 31.1701 111.469H33.6361C34.1041 111.469 34.3921 111.361 34.5001 111.145C34.6081 111.019 34.7161 110.749 34.8241 110.353C34.8241 110.209 34.7521 110.119 34.6441 110.083C34.3921 110.011 34.1041 109.849 33.7801 109.579C33.7261 109.885 33.6721 110.083 33.6361 110.173C33.6001 110.353 33.4741 110.425 33.2761 110.425H31.8001C31.1881 110.425 30.8821 110.173 30.8821 109.651V109.021ZM36.9301 106.699H39.3961V108.175H36.9301V106.699ZM36.9301 109.021H40.3141C40.4941 109.021 40.5841 108.949 40.5841 108.805V106.069C40.5841 105.925 40.4941 105.853 40.3141 105.853H36.0841C35.9041 105.853 35.8141 105.925 35.8141 106.069V110.497C35.8141 111.199 36.2821 111.541 37.2181 111.541H39.7561C40.3321 111.541 40.6741 111.433 40.8181 111.199C40.9621 111.055 41.0881 110.767 41.2321 110.353C41.2321 110.209 41.1601 110.119 41.0341 110.083C40.7821 110.011 40.4941 109.849 40.1701 109.579C40.0981 109.903 40.0261 110.119 39.9541 110.209C39.8821 110.407 39.7021 110.497 39.3961 110.497H37.8481C37.2361 110.497 36.9301 110.245 36.9301 109.723V109.021ZM30.3961 113.305C30.2881 113.305 30.2521 113.377 30.2521 113.521V114.079C30.2521 114.259 30.2881 114.349 30.3961 114.349H32.6461V115.897H29.6941C29.5861 115.897 29.5501 115.969 29.5501 116.113V116.671C29.5501 116.869 29.5861 116.959 29.6941 116.959H33.1141C32.6821 117.481 32.2321 117.895 31.8001 118.201C31.4401 118.453 31.0441 118.705 30.5761 118.921C30.5041 118.957 30.4681 118.993 30.4681 119.065C30.4681 119.137 30.5041 119.209 30.5761 119.281C30.7561 119.443 30.8821 119.605 30.9721 119.749C31.0081 119.857 31.0981 119.911 31.2421 119.911C32.0881 119.443 32.9161 118.849 33.7081 118.093C33.7261 118.039 33.8521 118.003 34.0681 118.003C34.1941 118.003 34.2661 117.967 34.2661 117.877C34.2661 117.805 33.9601 117.499 33.3661 116.959H40.8001C40.8901 116.959 40.9441 116.869 40.9441 116.671V116.113C40.9441 115.969 40.8901 115.897 40.8001 115.897H37.6321V114.349H40.2421C40.3321 114.349 40.3861 114.259 40.3861 114.079V113.521C40.3861 113.377 40.3321 113.305 40.2421 113.305H37.6321V112.873C37.6321 112.675 37.6681 112.567 37.7761 112.549C37.8661 112.549 37.9201 112.459 37.9201 112.315C37.9201 112.171 37.4881 112.099 36.6601 112.099C36.5161 112.099 36.4441 112.153 36.4441 112.243V113.305H33.8341V112.873C33.8341 112.675 33.8701 112.567 33.9781 112.549C34.0681 112.549 34.1221 112.459 34.1221 112.315C34.1221 112.171 33.6901 112.099 32.8621 112.099C32.7181 112.099 32.6461 112.153 32.6461 112.243V113.305H30.3961ZM33.8341 115.897V114.349H36.4441V115.897H33.8341ZM37.1461 117.031C36.6241 117.463 36.3721 117.715 36.3721 117.805C36.3721 117.823 36.3901 117.859 36.4621 117.931C37.0561 118.543 37.9741 119.191 39.2341 119.875C39.3061 119.911 39.3601 119.911 39.3961 119.911C39.8641 119.443 40.0981 119.173 40.0981 119.065C40.0981 119.029 40.0441 118.975 39.9721 118.903C39.3241 118.651 38.8201 118.399 38.4961 118.165C38.0641 117.877 37.6141 117.499 37.1461 117.031ZM26.4541 105.637C26.4181 105.637 26.3641 105.691 26.3101 105.763C25.9321 106.231 25.7521 106.501 25.7521 106.555C26.0401 106.663 26.3821 106.861 26.8141 107.131C27.3181 107.473 27.8221 107.851 28.2901 108.247C28.2901 108.247 28.4701 107.995 28.8301 107.473C28.8841 107.401 28.9201 107.347 28.9201 107.329C28.6141 107.077 28.2541 106.789 27.8401 106.465C27.4801 106.213 27.0121 105.943 26.4541 105.637ZM25.8241 109.849C25.7881 109.849 25.7341 109.903 25.6801 109.975C25.3021 110.443 25.1221 110.713 25.1221 110.767C25.4101 110.857 25.8061 111.001 26.2741 111.199C26.8141 111.451 27.3541 111.739 27.8581 112.045C27.8761 112.045 28.0561 111.793 28.4161 111.271C28.4701 111.199 28.5061 111.145 28.5061 111.127C28.1821 110.947 27.7861 110.731 27.3361 110.479C26.9401 110.299 26.4361 110.083 25.8241 109.849ZM25.2661 114.007C25.1221 114.007 25.0501 114.115 25.0501 114.295V114.853C25.0501 115.033 25.1221 115.123 25.2661 115.123H27.4441V118.219C27.4441 118.435 27.4081 118.579 27.3721 118.633C26.5261 119.497 25.8241 120.073 25.2661 120.397C25.2661 120.541 25.2841 120.649 25.3381 120.757C25.7161 121.369 25.9501 121.675 26.0401 121.675C26.0761 121.675 26.1301 121.621 26.1661 121.549C26.2381 121.207 26.7421 120.541 27.6781 119.533C27.6781 119.515 27.7321 119.497 27.8041 119.497L27.8581 119.587C28.0741 120.091 28.2901 120.469 28.4881 120.685C28.7761 120.937 29.0821 121.153 29.4241 121.297C29.7841 121.441 30.1801 121.549 30.5761 121.639C30.9721 121.711 31.3681 121.747 31.8001 121.747H40.5301C40.6921 121.747 40.7821 121.639 40.8181 121.441C40.8901 120.937 41.0161 120.451 41.1601 119.983C41.1601 119.947 41.1061 119.911 41.0161 119.911C40.9261 119.911 40.8361 119.929 40.7461 119.965C38.7661 120.289 37.0381 120.469 35.5621 120.469H31.8001C31.2241 120.469 30.7201 120.415 30.2521 120.343C29.8921 120.271 29.5861 120.127 29.3341 119.947C29.1361 119.821 28.9921 119.623 28.9021 119.353C28.7761 119.101 28.7041 118.723 28.7041 118.219V114.223C28.7041 114.079 28.6141 114.007 28.4341 114.007H25.2661ZM43.2661 107.401C43.1221 107.401 43.0501 107.491 43.0501 107.671V108.247C43.0501 108.427 43.1221 108.517 43.2661 108.517H45.5881V116.581C44.4361 116.977 43.4461 117.265 42.6361 117.445C42.9961 118.435 43.2301 118.921 43.3381 118.921C43.4461 118.921 43.5721 118.759 43.7521 118.435C45.5341 117.823 47.2981 117.157 49.0261 116.401C49.0621 116.347 49.0981 116.023 49.0981 115.411C49.0981 115.321 49.0441 115.267 48.9541 115.267C48.9181 115.267 48.8821 115.285 48.8461 115.321C48.1981 115.609 47.5321 115.879 46.8481 116.131V108.517H48.8281C48.9541 108.517 49.0261 108.427 49.0261 108.247V107.671C49.0261 107.491 48.9541 107.401 48.8281 107.401H43.2661ZM49.7281 105.925C49.5841 105.925 49.5301 106.015 49.5301 106.195V106.771C49.5301 106.951 49.5841 107.041 49.7281 107.041H53.4721C53.3461 107.437 53.2201 107.761 53.1121 108.013C52.9681 108.337 52.7881 108.715 52.5721 109.147H50.1601C49.9621 109.147 49.8721 109.219 49.8721 109.363V118.435C49.8721 118.579 49.9621 118.651 50.1601 118.651H51.7801C51.4561 118.975 51.1681 119.263 50.8981 119.479C50.5021 119.839 50.0341 120.127 49.4941 120.415C49.2421 120.559 48.9181 120.703 48.5401 120.811C48.4861 120.829 48.4681 120.865 48.4681 120.901C48.4681 120.937 48.5041 120.991 48.5941 121.027C48.7741 121.171 48.9721 121.333 49.2241 121.531C49.2601 121.621 49.3681 121.675 49.5301 121.675C50.3221 121.279 50.9701 120.901 51.5101 120.541C51.9421 120.217 52.3561 119.857 52.7521 119.461C52.8241 119.407 52.9321 119.371 53.0941 119.353C53.2021 119.353 53.2561 119.317 53.2561 119.281C53.2561 119.209 53.2021 119.137 53.1121 119.029L52.6081 118.651H55.9561C55.5601 119.119 55.3621 119.353 55.3621 119.353C56.4421 120.289 57.5041 121.063 58.5841 121.675C58.6381 121.675 58.8361 121.387 59.1781 120.847C59.2501 120.739 59.3041 120.667 59.3041 120.613C58.3321 120.091 57.3781 119.443 56.4601 118.651H58.1701C58.3501 118.651 58.4581 118.579 58.4581 118.435V109.363C58.4581 109.219 58.3501 109.147 58.1701 109.147H53.9581C54.2461 108.481 54.5161 107.779 54.7681 107.041H58.8721C59.0161 107.041 59.0881 106.951 59.0881 106.771V106.195C59.0881 106.015 59.0161 105.925 58.8721 105.925H49.7281ZM57.1801 117.517H51.1321V115.897H57.1801V117.517ZM51.1321 114.781V113.089H57.1801V114.781H51.1321ZM51.1321 111.973V110.281H57.1801V111.973H51.1321ZM61.1941 112.531C61.0501 112.531 60.9781 112.657 60.9781 112.873V113.593C60.9781 113.827 61.0501 113.935 61.1941 113.935H76.9441C77.0881 113.935 77.1601 113.827 77.1601 113.593V112.873C77.1601 112.657 77.0881 112.531 76.9441 112.531H61.1941Z" fill="#1C1C1C"/>
<path d="M30.8821 216.699H33.2761V218.175H30.8821V216.699ZM30.8821 219.021H34.1941C34.3741 219.021 34.4821 218.949 34.4821 218.805V216.069C34.4821 215.925 34.3741 215.853 34.1941 215.853H30.0541C29.8561 215.853 29.7661 215.925 29.7661 216.069V220.425C29.7661 221.127 30.2341 221.469 31.1701 221.469H33.6361C34.1041 221.469 34.3921 221.361 34.5001 221.145C34.6081 221.019 34.7161 220.749 34.8241 220.353C34.8241 220.209 34.7521 220.119 34.6441 220.083C34.3921 220.011 34.1041 219.849 33.7801 219.579C33.7261 219.885 33.6721 220.083 33.6361 220.173C33.6001 220.353 33.4741 220.425 33.2761 220.425H31.8001C31.1881 220.425 30.8821 220.173 30.8821 219.651V219.021ZM36.9301 216.699H39.3961V218.175H36.9301V216.699ZM36.9301 219.021H40.3141C40.4941 219.021 40.5841 218.949 40.5841 218.805V216.069C40.5841 215.925 40.4941 215.853 40.3141 215.853H36.0841C35.9041 215.853 35.8141 215.925 35.8141 216.069V220.497C35.8141 221.199 36.2821 221.541 37.2181 221.541H39.7561C40.3321 221.541 40.6741 221.433 40.8181 221.199C40.9621 221.055 41.0881 220.767 41.2321 220.353C41.2321 220.209 41.1601 220.119 41.0341 220.083C40.7821 220.011 40.4941 219.849 40.1701 219.579C40.0981 219.903 40.0261 220.119 39.9541 220.209C39.8821 220.407 39.7021 220.497 39.3961 220.497H37.8481C37.2361 220.497 36.9301 220.245 36.9301 219.723V219.021ZM30.3961 223.305C30.2881 223.305 30.2521 223.377 30.2521 223.521V224.079C30.2521 224.259 30.2881 224.349 30.3961 224.349H32.6461V225.897H29.6941C29.5861 225.897 29.5501 225.969 29.5501 226.113V226.671C29.5501 226.869 29.5861 226.959 29.6941 226.959H33.1141C32.6821 227.481 32.2321 227.895 31.8001 228.201C31.4401 228.453 31.0441 228.705 30.5761 228.921C30.5041 228.957 30.4681 228.993 30.4681 229.065C30.4681 229.137 30.5041 229.209 30.5761 229.281C30.7561 229.443 30.8821 229.605 30.9721 229.749C31.0081 229.857 31.0981 229.911 31.2421 229.911C32.0881 229.443 32.9161 228.849 33.7081 228.093C33.7261 228.039 33.8521 228.003 34.0681 228.003C34.1941 228.003 34.2661 227.967 34.2661 227.877C34.2661 227.805 33.9601 227.499 33.3661 226.959H40.8001C40.8901 226.959 40.9441 226.869 40.9441 226.671V226.113C40.9441 225.969 40.8901 225.897 40.8001 225.897H37.6321V224.349H40.2421C40.3321 224.349 40.3861 224.259 40.3861 224.079V223.521C40.3861 223.377 40.3321 223.305 40.2421 223.305H37.6321V222.873C37.6321 222.675 37.6681 222.567 37.7761 222.549C37.8661 222.549 37.9201 222.459 37.9201 222.315C37.9201 222.171 37.4881 222.099 36.6601 222.099C36.5161 222.099 36.4441 222.153 36.4441 222.243V223.305H33.8341V222.873C33.8341 222.675 33.8701 222.567 33.9781 222.549C34.0681 222.549 34.1221 222.459 34.1221 222.315C34.1221 222.171 33.6901 222.099 32.8621 222.099C32.7181 222.099 32.6461 222.153 32.6461 222.243V223.305H30.3961ZM33.8341 225.897V224.349H36.4441V225.897H33.8341ZM37.1461 227.031C36.6241 227.463 36.3721 227.715 36.3721 227.805C36.3721 227.823 36.3901 227.859 36.4621 227.931C37.0561 228.543 37.9741 229.191 39.2341 229.875C39.3061 229.911 39.3601 229.911 39.3961 229.911C39.8641 229.443 40.0981 229.173 40.0981 229.065C40.0981 229.029 40.0441 228.975 39.9721 228.903C39.3241 228.651 38.8201 228.399 38.4961 228.165C38.0641 227.877 37.6141 227.499 37.1461 227.031ZM26.4541 215.637C26.4181 215.637 26.3641 215.691 26.3101 215.763C25.9321 216.231 25.7521 216.501 25.7521 216.555C26.0401 216.663 26.3821 216.861 26.8141 217.131C27.3181 217.473 27.8221 217.851 28.2901 218.247C28.2901 218.247 28.4701 217.995 28.8301 217.473C28.8841 217.401 28.9201 217.347 28.9201 217.329C28.6141 217.077 28.2541 216.789 27.8401 216.465C27.4801 216.213 27.0121 215.943 26.4541 215.637ZM25.8241 219.849C25.7881 219.849 25.7341 219.903 25.6801 219.975C25.3021 220.443 25.1221 220.713 25.1221 220.767C25.4101 220.857 25.8061 221.001 26.2741 221.199C26.8141 221.451 27.3541 221.739 27.8581 222.045C27.8761 222.045 28.0561 221.793 28.4161 221.271C28.4701 221.199 28.5061 221.145 28.5061 221.127C28.1821 220.947 27.7861 220.731 27.3361 220.479C26.9401 220.299 26.4361 220.083 25.8241 219.849ZM25.2661 224.007C25.1221 224.007 25.0501 224.115 25.0501 224.295V224.853C25.0501 225.033 25.1221 225.123 25.2661 225.123H27.4441V228.219C27.4441 228.435 27.4081 228.579 27.3721 228.633C26.5261 229.497 25.8241 230.073 25.2661 230.397C25.2661 230.541 25.2841 230.649 25.3381 230.757C25.7161 231.369 25.9501 231.675 26.0401 231.675C26.0761 231.675 26.1301 231.621 26.1661 231.549C26.2381 231.207 26.7421 230.541 27.6781 229.533C27.6781 229.515 27.7321 229.497 27.8041 229.497L27.8581 229.587C28.0741 230.091 28.2901 230.469 28.4881 230.685C28.7761 230.937 29.0821 231.153 29.4241 231.297C29.7841 231.441 30.1801 231.549 30.5761 231.639C30.9721 231.711 31.3681 231.747 31.8001 231.747H40.5301C40.6921 231.747 40.7821 231.639 40.8181 231.441C40.8901 230.937 41.0161 230.451 41.1601 229.983C41.1601 229.947 41.1061 229.911 41.0161 229.911C40.9261 229.911 40.8361 229.929 40.7461 229.965C38.7661 230.289 37.0381 230.469 35.5621 230.469H31.8001C31.2241 230.469 30.7201 230.415 30.2521 230.343C29.8921 230.271 29.5861 230.127 29.3341 229.947C29.1361 229.821 28.9921 229.623 28.9021 229.353C28.7761 229.101 28.7041 228.723 28.7041 228.219V224.223C28.7041 224.079 28.6141 224.007 28.4341 224.007H25.2661ZM43.2661 217.401C43.1221 217.401 43.0501 217.491 43.0501 217.671V218.247C43.0501 218.427 43.1221 218.517 43.2661 218.517H45.5881V226.581C44.4361 226.977 43.4461 227.265 42.6361 227.445C42.9961 228.435 43.2301 228.921 43.3381 228.921C43.4461 228.921 43.5721 228.759 43.7521 228.435C45.5341 227.823 47.2981 227.157 49.0261 226.401C49.0621 226.347 49.0981 226.023 49.0981 225.411C49.0981 225.321 49.0441 225.267 48.9541 225.267C48.9181 225.267 48.8821 225.285 48.8461 225.321C48.1981 225.609 47.5321 225.879 46.8481 226.131V218.517H48.8281C48.9541 218.517 49.0261 218.427 49.0261 218.247V217.671C49.0261 217.491 48.9541 217.401 48.8281 217.401H43.2661ZM49.7281 215.925C49.5841 215.925 49.5301 216.015 49.5301 216.195V216.771C49.5301 216.951 49.5841 217.041 49.7281 217.041H53.4721C53.3461 217.437 53.2201 217.761 53.1121 218.013C52.9681 218.337 52.7881 218.715 52.5721 219.147H50.1601C49.9621 219.147 49.8721 219.219 49.8721 219.363V228.435C49.8721 228.579 49.9621 228.651 50.1601 228.651H51.7801C51.4561 228.975 51.1681 229.263 50.8981 229.479C50.5021 229.839 50.0341 230.127 49.4941 230.415C49.2421 230.559 48.9181 230.703 48.5401 230.811C48.4861 230.829 48.4681 230.865 48.4681 230.901C48.4681 230.937 48.5041 230.991 48.5941 231.027C48.7741 231.171 48.9721 231.333 49.2241 231.531C49.2601 231.621 49.3681 231.675 49.5301 231.675C50.3221 231.279 50.9701 230.901 51.5101 230.541C51.9421 230.217 52.3561 229.857 52.7521 229.461C52.8241 229.407 52.9321 229.371 53.0941 229.353C53.2021 229.353 53.2561 229.317 53.2561 229.281C53.2561 229.209 53.2021 229.137 53.1121 229.029L52.6081 228.651H55.9561C55.5601 229.119 55.3621 229.353 55.3621 229.353C56.4421 230.289 57.5041 231.063 58.5841 231.675C58.6381 231.675 58.8361 231.387 59.1781 230.847C59.2501 230.739 59.3041 230.667 59.3041 230.613C58.3321 230.091 57.3781 229.443 56.4601 228.651H58.1701C58.3501 228.651 58.4581 228.579 58.4581 228.435V219.363C58.4581 219.219 58.3501 219.147 58.1701 219.147H53.9581C54.2461 218.481 54.5161 217.779 54.7681 217.041H58.8721C59.0161 217.041 59.0881 216.951 59.0881 216.771V216.195C59.0881 216.015 59.0161 215.925 58.8721 215.925H49.7281ZM57.1801 227.517H51.1321V225.897H57.1801V227.517ZM51.1321 224.781V223.089H57.1801V224.781H51.1321ZM51.1321 221.973V220.281H57.1801V221.973H51.1321ZM62.5261 216.627C62.3821 216.627 62.3281 216.717 62.3281 216.897V217.599C62.3281 217.851 62.3821 217.959 62.5261 217.959H75.4681C75.6121 217.959 75.6841 217.851 75.6841 217.599V216.897C75.6841 216.717 75.6121 216.627 75.4681 216.627H62.5261ZM63.4441 222.531C63.3001 222.531 63.2281 222.639 63.2281 222.819V223.521C63.2281 223.755 63.3001 223.863 63.4441 223.863H74.6941C74.8381 223.863 74.9101 223.755 74.9101 223.521V222.819C74.9101 222.639 74.8381 222.531 74.6941 222.531H63.4441ZM61.1221 229.137C60.9781 229.137 60.9061 229.245 60.9061 229.425V230.127C60.9061 230.343 60.9781 230.469 61.1221 230.469H76.9441C77.0881 230.469 77.1601 230.343 77.1601 230.127V229.425C77.1601 229.245 77.0881 229.137 76.9441 229.137H61.1221Z" fill="#1C1C1C"/>
<line x1="1.07812" y1="85.073" x2="175.156" y2="85.073" stroke="#D9D9D9"/>
<line x1="1.07812" y1="140.073" x2="175.156" y2="140.073" stroke="#D9D9D9"/>
<line x1="1.07812" y1="196.573" x2="175.156" y2="196.573" stroke="#D9D9D9"/>
<path d="M8.49931 2.58633H10.8933V4.06233H8.49931V2.58633ZM8.49931 4.90833H11.8113C11.9913 4.90833 12.0993 4.83633 12.0993 4.69233V1.95633C12.0993 1.81233 11.9913 1.74033 11.8113 1.74033H7.67131C7.47331 1.74033 7.38331 1.81233 7.38331 1.95633V6.31233C7.38331 7.01433 7.85131 7.35633 8.78731 7.35633H11.2533C11.7213 7.35633 12.0093 7.24833 12.1173 7.03233C12.2253 6.90633 12.3333 6.63633 12.4413 6.24033C12.4413 6.09633 12.3693 6.00633 12.2613 5.97033C12.0093 5.89833 11.7213 5.73633 11.3973 5.46633C11.3433 5.77233 11.2893 5.97033 11.2533 6.06033C11.2173 6.24033 11.0913 6.31233 10.8933 6.31233H9.41731C8.80531 6.31233 8.49931 6.06033 8.49931 5.53833V4.90833ZM14.5473 2.58633H17.0133V4.06233H14.5473V2.58633ZM14.5473 4.90833H17.9313C18.1113 4.90833 18.2013 4.83633 18.2013 4.69233V1.95633C18.2013 1.81233 18.1113 1.74033 17.9313 1.74033H13.7013C13.5213 1.74033 13.4313 1.81233 13.4313 1.95633V6.38433C13.4313 7.08633 13.8993 7.42833 14.8353 7.42833H17.3733C17.9493 7.42833 18.2913 7.32033 18.4353 7.08633C18.5793 6.94233 18.7053 6.65433 18.8493 6.24033C18.8493 6.09633 18.7773 6.00633 18.6513 5.97033C18.3993 5.89833 18.1113 5.73633 17.7873 5.46633C17.7153 5.79033 17.6433 6.00633 17.5713 6.09633C17.4993 6.29433 17.3193 6.38433 17.0133 6.38433H15.4653C14.8533 6.38433 14.5473 6.13233 14.5473 5.61033V4.90833ZM8.01331 9.19233C7.90531 9.19233 7.86931 9.26433 7.86931 9.40833V9.96633C7.86931 10.1463 7.90531 10.2363 8.01331 10.2363H10.2633V11.7843H7.31131C7.20331 11.7843 7.16731 11.8563 7.16731 12.0003V12.5583C7.16731 12.7563 7.20331 12.8463 7.31131 12.8463H10.7313C10.2993 13.3683 9.84931 13.7823 9.41731 14.0883C9.05731 14.3403 8.66131 14.5923 8.19331 14.8083C8.12131 14.8443 8.08531 14.8803 8.08531 14.9523C8.08531 15.0243 8.12131 15.0963 8.19331 15.1683C8.37331 15.3303 8.49931 15.4923 8.58931 15.6363C8.62531 15.7443 8.71531 15.7983 8.85931 15.7983C9.70531 15.3303 10.5333 14.7363 11.3253 13.9803C11.3433 13.9263 11.4693 13.8903 11.6853 13.8903C11.8113 13.8903 11.8833 13.8543 11.8833 13.7643C11.8833 13.6923 11.5773 13.3863 10.9833 12.8463H18.4173C18.5073 12.8463 18.5613 12.7563 18.5613 12.5583V12.0003C18.5613 11.8563 18.5073 11.7843 18.4173 11.7843H15.2493V10.2363H17.8593C17.9493 10.2363 18.0033 10.1463 18.0033 9.96633V9.40833C18.0033 9.26433 17.9493 9.19233 17.8593 9.19233H15.2493V8.76033C15.2493 8.56233 15.2853 8.45433 15.3933 8.43633C15.4833 8.43633 15.5373 8.34633 15.5373 8.20233C15.5373 8.05833 15.1053 7.98633 14.2773 7.98633C14.1333 7.98633 14.0613 8.04033 14.0613 8.13033V9.19233H11.4513V8.76033C11.4513 8.56233 11.4873 8.45433 11.5953 8.43633C11.6853 8.43633 11.7393 8.34633 11.7393 8.20233C11.7393 8.05833 11.3073 7.98633 10.4793 7.98633C10.3353 7.98633 10.2633 8.04033 10.2633 8.13033V9.19233H8.01331ZM11.4513 11.7843V10.2363H14.0613V11.7843H11.4513ZM14.7633 12.9183C14.2413 13.3503 13.9893 13.6023 13.9893 13.6923C13.9893 13.7103 14.0073 13.7463 14.0793 13.8183C14.6733 14.4303 15.5913 15.0783 16.8513 15.7623C16.9233 15.7983 16.9773 15.7983 17.0133 15.7983C17.4813 15.3303 17.7153 15.0603 17.7153 14.9523C17.7153 14.9163 17.6613 14.8623 17.5893 14.7903C16.9413 14.5383 16.4373 14.2863 16.1133 14.0523C15.6813 13.7643 15.2313 13.3863 14.7633 12.9183ZM4.07131 1.52433C4.03531 1.52433 3.98131 1.57833 3.92731 1.65033C3.54931 2.11833 3.36931 2.38833 3.36931 2.44233C3.65731 2.55033 3.99931 2.74833 4.43131 3.01833C4.93531 3.36033 5.43931 3.73833 5.90731 4.13433C5.90731 4.13433 6.08731 3.88233 6.44731 3.36033C6.50131 3.28833 6.53731 3.23433 6.53731 3.21633C6.23131 2.96433 5.87131 2.67633 5.45731 2.35233C5.09731 2.10033 4.62931 1.83033 4.07131 1.52433ZM3.44131 5.73633C3.40531 5.73633 3.35131 5.79033 3.29731 5.86233C2.91931 6.33033 2.73931 6.60033 2.73931 6.65433C3.02731 6.74433 3.42331 6.88833 3.89131 7.08633C4.43131 7.33833 4.97131 7.62633 5.47531 7.93233C5.49331 7.93233 5.67331 7.68033 6.03331 7.15833C6.08731 7.08633 6.12331 7.03233 6.12331 7.01433C5.79931 6.83433 5.40331 6.61833 4.95331 6.36633C4.55731 6.18633 4.05331 5.97033 3.44131 5.73633ZM2.88331 9.89433C2.73931 9.89433 2.66731 10.0023 2.66731 10.1823V10.7403C2.66731 10.9203 2.73931 11.0103 2.88331 11.0103H5.06131V14.1063C5.06131 14.3223 5.02531 14.4663 4.98931 14.5203C4.14331 15.3843 3.44131 15.9603 2.88331 16.2843C2.88331 16.4283 2.90131 16.5363 2.95531 16.6443C3.33331 17.2563 3.56731 17.5623 3.65731 17.5623C3.69331 17.5623 3.74731 17.5083 3.78331 17.4363C3.85531 17.0943 4.35931 16.4283 5.29531 15.4203C5.29531 15.4023 5.34931 15.3843 5.42131 15.3843L5.47531 15.4743C5.69131 15.9783 5.90731 16.3563 6.10531 16.5723C6.39331 16.8243 6.69931 17.0403 7.04131 17.1843C7.40131 17.3283 7.79731 17.4363 8.19331 17.5263C8.58931 17.5983 8.98531 17.6343 9.41731 17.6343H18.1473C18.3093 17.6343 18.3993 17.5263 18.4353 17.3283C18.5073 16.8243 18.6333 16.3383 18.7773 15.8703C18.7773 15.8343 18.7233 15.7983 18.6333 15.7983C18.5433 15.7983 18.4533 15.8163 18.3633 15.8523C16.3833 16.1763 14.6553 16.3563 13.1793 16.3563H9.41731C8.84131 16.3563 8.33731 16.3023 7.86931 16.2303C7.50931 16.1583 7.20331 16.0143 6.95131 15.8343C6.75331 15.7083 6.60931 15.5103 6.51931 15.2403C6.39331 14.9883 6.32131 14.6103 6.32131 14.1063V10.1103C6.32131 9.96633 6.23131 9.89433 6.05131 9.89433H2.88331ZM22.6473 1.66833C22.4493 1.66833 22.3593 1.74033 22.3593 1.88433V5.17833C22.3593 5.32233 22.4493 5.39433 22.6473 5.39433H27.5613C27.7413 5.39433 27.8493 5.32233 27.8493 5.17833V1.88433C27.8493 1.74033 27.7413 1.66833 27.5613 1.66833H22.6473ZM26.5713 4.33233H23.6193V2.73033H26.5713V4.33233ZM29.8113 1.66833C29.6133 1.66833 29.5233 1.74033 29.5233 1.88433V5.17833C29.5233 5.32233 29.6133 5.39433 29.8113 5.39433H34.5993C34.7793 5.39433 34.8693 5.32233 34.8693 5.17833V1.88433C34.8693 1.74033 34.7793 1.66833 34.5993 1.66833H29.8113ZM33.6093 4.33233H30.8013V2.73033H33.6093V4.33233ZM23.0613 6.45633C22.8633 6.45633 22.7733 6.54633 22.7733 6.72633V13.0623C22.7733 13.2063 22.8633 13.2603 23.0613 13.2603H23.7633C23.9433 13.2603 24.0513 13.2063 24.0513 13.0623V12.7743H27.9753V14.1063H20.8833C20.7393 14.1063 20.6673 14.2143 20.6673 14.3943V14.9523C20.6673 15.1503 20.7393 15.2403 20.8833 15.2403H27.9753V17.4183C27.9753 17.5623 28.0653 17.6343 28.2633 17.6343H28.9653C29.1453 17.6343 29.2533 17.5623 29.2533 17.4183V15.2403H36.4893C36.6333 15.2403 36.7053 15.1503 36.7053 14.9523V14.3943C36.7053 14.2143 36.6333 14.1063 36.4893 14.1063H29.2533V12.7743H33.1233V13.0623C33.1233 13.2063 33.2133 13.2603 33.3933 13.2603H34.0953C34.2753 13.2603 34.3833 13.2063 34.3833 13.0623V6.65433C34.3833 6.52833 34.2753 6.45633 34.0953 6.45633H23.0613ZM24.0513 11.6583V10.1823H27.9753V11.6583H24.0513ZM29.2533 10.1823H33.1233V11.6583H29.2533V10.1823ZM24.0513 9.04833V7.57233H27.9753V9.04833H24.0513ZM29.2533 7.57233H33.1233V9.04833H29.2533V7.57233ZM38.8833 5.03433C38.7393 5.03433 38.6673 5.14233 38.6673 5.32233V5.88033C38.6673 6.07833 38.7393 6.16833 38.8833 6.16833H40.7733C40.5753 7.23033 40.4133 8.00433 40.2693 8.50833C40.0893 9.26433 39.8373 10.0203 39.5133 10.7943C39.1893 11.6223 38.7753 12.4683 38.2533 13.3323C38.2533 13.4043 38.2893 13.4223 38.3973 13.4223C38.6493 13.5663 38.9013 13.6923 39.1533 13.8003C39.2073 13.8723 39.2973 13.9083 39.4413 13.9083C39.8373 13.2243 40.1793 12.4863 40.4673 11.6943C40.6473 11.2443 40.8093 10.7403 40.9893 10.2003V17.4183C40.9893 17.5623 41.0793 17.6343 41.2773 17.6343H41.9793C42.1593 17.6343 42.2493 17.5623 42.2493 17.4183V8.47233C42.3033 8.67033 42.3753 8.85033 42.4473 9.03033C42.7533 9.82233 43.1133 10.5423 43.5453 11.1723C43.6173 11.2623 43.6893 11.2983 43.7253 11.2983C43.7613 11.2983 43.8333 11.2623 43.9053 11.1723C44.1033 10.9923 44.2653 10.8303 44.3913 10.6683C44.4633 10.6143 44.4993 10.5603 44.4993 10.5243C44.4993 10.4523 44.4633 10.3803 44.4093 10.3263C43.7973 9.49833 43.3653 8.74233 43.1313 8.07633C42.9333 7.60833 42.7173 6.97833 42.4833 6.16833H43.8693C44.0133 6.16833 44.0853 6.07833 44.0853 5.88033V5.32233C44.0853 5.14233 44.0133 5.03433 43.8693 5.03433H42.2493V2.15433C42.2493 1.93833 42.3033 1.81233 42.4293 1.79433C42.5373 1.77633 42.6093 1.68633 42.6093 1.52433C42.6093 1.38033 42.1593 1.30833 41.2773 1.30833C41.0793 1.30833 40.9893 1.38033 40.9893 1.52433V5.03433H38.8833ZM44.4993 2.01033C44.4093 2.01033 44.3733 2.08233 44.3733 2.22633V2.78433C44.3733 2.98233 44.4093 3.07233 44.4993 3.07233H47.3973V4.47633H44.9313C44.7333 4.47633 44.6433 4.54833 44.6433 4.69233V8.13033C44.6433 8.27433 44.7333 8.34633 44.9313 8.34633H53.9313C54.1113 8.34633 54.2013 8.27433 54.2013 8.13033V4.69233C54.2013 4.54833 54.1113 4.47633 53.9313 4.47633H51.3933V3.07233H54.5613C54.6513 3.07233 54.7053 2.98233 54.7053 2.78433V2.22633C54.7053 2.08233 54.6513 2.01033 54.5613 2.01033H44.4993ZM50.2053 4.47633H48.5853V3.07233H50.2053V4.47633ZM52.9413 7.28433H51.3933V5.53833H52.9413V7.28433ZM50.2053 7.28433H48.5853V5.53833H50.2053V7.28433ZM47.3973 7.28433H45.9213V5.53833H47.3973V7.28433ZM45.5613 9.53433C45.4533 9.53433 45.4173 9.60633 45.4173 9.75033V10.3083C45.4173 10.5063 45.4533 10.5963 45.5613 10.5963H53.3733C53.4453 10.5963 53.4993 10.5063 53.4993 10.3083V9.75033C53.4993 9.60633 53.4453 9.53433 53.3733 9.53433H45.5613ZM44.3733 11.7303C44.2653 11.7303 44.2293 11.8023 44.2293 11.9283V12.4863C44.2293 12.6843 44.2653 12.7743 44.3733 12.7743H48.8733V15.7263C48.8733 16.1403 48.5313 16.3563 47.8833 16.3563C47.5233 16.3563 47.1453 16.3023 46.7493 16.2303V16.2843C46.9293 16.6443 47.0193 16.9503 47.0553 17.2203C47.0553 17.4363 47.0913 17.5623 47.1813 17.5623H47.9553C49.3953 17.5623 50.1333 17.1123 50.1333 16.2303V12.7743H54.4893C54.5793 12.7743 54.6333 12.6843 54.6333 12.4863V11.9283C54.6333 11.8023 54.5793 11.7303 54.4893 11.7303H44.3733ZM46.4073 13.6203C46.3713 13.6203 46.3353 13.6563 46.3173 13.7103C45.9933 14.1243 45.6873 14.4663 45.4353 14.7363C45.1113 15.0603 44.7513 15.3663 44.3373 15.6363C44.1213 15.7803 43.8693 15.9063 43.5813 15.9963C43.5453 16.0143 43.5273 16.0503 43.5273 16.0863C43.5273 16.1223 43.5633 16.1763 43.6533 16.2123C43.7973 16.3563 43.9953 16.5183 44.2293 16.7163C44.2653 16.8063 44.3553 16.8603 44.4993 16.8603C45.1293 16.4823 45.6513 16.1223 46.0833 15.7623C46.4253 15.4563 46.7493 15.1143 47.0553 14.7183C47.1093 14.6643 47.1993 14.6283 47.3433 14.6103C47.4153 14.6103 47.4513 14.5743 47.4513 14.5383C47.4513 14.4663 47.3973 14.3943 47.3253 14.3043L46.4073 13.6203ZM52.0953 13.6203C52.0593 13.6203 52.0053 13.6563 51.9513 13.7283C51.6273 14.1603 51.4653 14.3943 51.4653 14.4663C51.7533 14.6463 52.1313 14.9163 52.5813 15.3123C53.1213 15.7983 53.6433 16.3203 54.1473 16.9323C54.1473 16.9323 54.3273 16.6803 54.6873 16.2123C54.7413 16.1403 54.7773 16.0863 54.7773 16.0863C54.4533 15.7083 54.0573 15.2943 53.6073 14.8263C53.2113 14.4663 52.7073 14.0523 52.0953 13.6203ZM57.9993 1.81233C57.8193 1.81233 57.7293 1.88433 57.7293 2.01033V7.57233C57.7293 7.71633 57.8193 7.78833 57.9993 7.78833H63.3453C63.5253 7.78833 63.6333 7.71633 63.6333 7.57233V2.01033C63.6333 1.88433 63.5253 1.81233 63.3453 1.81233H57.9993ZM62.4453 6.72633H58.9173V5.32233H62.4453V6.72633ZM58.9173 4.26033V2.85633H62.4453V4.26033H58.9173ZM56.8113 8.97633C56.7033 8.97633 56.6673 9.04833 56.6673 9.19233V9.75033C56.6673 9.94833 56.7033 10.0383 56.8113 10.0383H60.4653V15.4383C60.1233 15.2763 59.8353 15.0603 59.6193 14.8083C59.3133 14.5203 59.0613 14.0523 58.8453 13.4043C58.9173 12.9543 58.9893 12.4683 59.0613 11.9463C59.0613 11.8023 59.0973 11.7303 59.2053 11.7303C59.2953 11.7303 59.3493 11.6403 59.3493 11.4423C59.3493 11.4063 58.8813 11.2803 57.9453 11.0823C57.9093 11.0823 57.8913 11.1183 57.8913 11.1723C57.8733 11.6223 57.8373 12.0363 57.7833 12.4323C57.6753 13.1703 57.5493 13.8183 57.4053 14.3583C57.2253 15.0063 57.0093 15.5823 56.7753 16.0683C56.6313 16.3563 56.4333 16.6263 56.2173 16.8963C56.1813 16.9323 56.1813 16.9503 56.1813 16.9863C56.1813 17.0583 56.2173 17.1303 56.3073 17.1843C56.4873 17.2923 56.6853 17.4183 56.9013 17.5623C56.9733 17.6523 57.0813 17.7063 57.2253 17.7063C57.2613 17.7063 57.3153 17.6523 57.3873 17.5623C57.6753 17.1123 57.9453 16.5723 58.1793 15.9243C58.2873 15.6363 58.3773 15.3483 58.4673 15.0423C58.5393 15.1683 58.6113 15.2763 58.6833 15.3663C59.0073 15.7983 59.4573 16.1583 60.0513 16.4823C60.4833 16.7343 61.1673 16.9323 62.0853 17.1123C62.8413 17.2203 63.7593 17.2743 64.8393 17.2743H72.5613C72.6873 17.2743 72.7593 17.2023 72.7953 17.0583C72.8673 16.7703 73.0113 16.3923 73.1913 15.9423C73.1913 15.8523 73.1373 15.7983 73.0473 15.7983C70.3473 15.9783 67.6113 16.0863 64.8393 16.0863C63.5253 16.0863 62.4633 15.9963 61.6713 15.8523V13.2603H64.0473C64.1373 13.2603 64.1913 13.1703 64.1913 12.9903V12.4323C64.1913 12.2883 64.1373 12.2163 64.0473 12.2163H61.6713V10.0383H64.4073C64.4973 10.0383 64.5513 9.94833 64.5513 9.75033V9.19233C64.5513 9.04833 64.4973 8.97633 64.4073 8.97633H56.8113ZM64.8933 1.81233C64.7853 1.81233 64.7493 1.88433 64.7493 2.01033V2.58633C64.7493 2.76633 64.7853 2.85633 64.8933 2.85633H68.1513C68.0793 3.12633 67.9893 3.36033 67.9173 3.54033C67.8093 3.77433 67.6833 4.04433 67.5393 4.33233H65.5953C65.4153 4.33233 65.3253 4.40433 65.3253 4.54833V12.8463C65.3253 12.9903 65.4153 13.0623 65.5953 13.0623H67.1973C66.9093 13.3863 66.6573 13.6383 66.4053 13.8543C66.1173 14.1063 65.7933 14.3403 65.4153 14.5383C65.2353 14.6463 65.0013 14.7543 64.7313 14.8263C64.6953 14.8443 64.6953 14.8623 64.6953 14.8803C64.6953 14.9523 64.7313 14.9883 64.8033 15.0243C64.9653 15.1683 65.1633 15.3303 65.3973 15.5103C65.4333 15.6183 65.5233 15.6543 65.6673 15.6543C66.2433 15.3843 66.7113 15.1143 67.0893 14.8263C67.4133 14.5923 67.7013 14.3223 67.9893 14.0343C68.0253 13.9983 68.1153 13.9803 68.2413 13.9623C68.3133 13.9623 68.3493 13.9443 68.3493 13.9083C68.3493 13.8363 68.2953 13.7643 68.2053 13.6743L67.3773 13.0623H70.0053C69.5373 13.4223 69.3213 13.6563 69.3213 13.7643C69.3213 13.7823 69.3393 13.8183 69.4113 13.8723C69.9513 14.3763 70.7793 14.9163 71.9133 15.4743C71.9853 15.5103 72.0393 15.5103 72.0753 15.5103C72.5433 15.0423 72.7773 14.7723 72.7773 14.6823C72.7773 14.6463 72.7233 14.6103 72.6513 14.5383C72.0753 14.3223 71.6253 14.1243 71.3193 13.9443C70.9593 13.7283 70.5813 13.4223 70.1853 13.0623H71.9313C72.1113 13.0623 72.2013 12.9903 72.2013 12.8463V4.54833C72.2013 4.40433 72.1113 4.33233 71.9313 4.33233H68.9253C69.1053 3.86433 69.2853 3.37833 69.4473 2.85633H72.7773C72.8673 2.85633 72.9213 2.76633 72.9213 2.58633V2.01033C72.9213 1.88433 72.8673 1.81233 72.7773 1.81233H64.8933ZM71.0133 12.0003H66.5133V10.5243H71.0133V12.0003ZM66.5133 9.48033V7.98633H71.0133V9.48033H66.5133ZM66.5133 6.94233V5.39433H71.0133V6.94233H66.5133Z" fill="#00A19B"/>
<rect x="1.42188" y="139.79" width="174.078" height="56.7833" fill="#3CBAAD" stroke="#3CBAAD"/>
<path d="M30.8821 161.699H33.2761V163.175H30.8821V161.699ZM30.8821 164.021H34.1941C34.3741 164.021 34.4821 163.949 34.4821 163.805V161.069C34.4821 160.925 34.3741 160.853 34.1941 160.853H30.0541C29.8561 160.853 29.7661 160.925 29.7661 161.069V165.425C29.7661 166.127 30.2341 166.469 31.1701 166.469H33.6361C34.1041 166.469 34.3921 166.361 34.5001 166.145C34.6081 166.019 34.7161 165.749 34.8241 165.353C34.8241 165.209 34.7521 165.119 34.6441 165.083C34.3921 165.011 34.1041 164.849 33.7801 164.579C33.7261 164.885 33.6721 165.083 33.6361 165.173C33.6001 165.353 33.4741 165.425 33.2761 165.425H31.8001C31.1881 165.425 30.8821 165.173 30.8821 164.651V164.021ZM36.9301 161.699H39.3961V163.175H36.9301V161.699ZM36.9301 164.021H40.3141C40.4941 164.021 40.5841 163.949 40.5841 163.805V161.069C40.5841 160.925 40.4941 160.853 40.3141 160.853H36.0841C35.9041 160.853 35.8141 160.925 35.8141 161.069V165.497C35.8141 166.199 36.2821 166.541 37.2181 166.541H39.7561C40.3321 166.541 40.6741 166.433 40.8181 166.199C40.9621 166.055 41.0881 165.767 41.2321 165.353C41.2321 165.209 41.1601 165.119 41.0341 165.083C40.7821 165.011 40.4941 164.849 40.1701 164.579C40.0981 164.903 40.0261 165.119 39.9541 165.209C39.8821 165.407 39.7021 165.497 39.3961 165.497H37.8481C37.2361 165.497 36.9301 165.245 36.9301 164.723V164.021ZM30.3961 168.305C30.2881 168.305 30.2521 168.377 30.2521 168.521V169.079C30.2521 169.259 30.2881 169.349 30.3961 169.349H32.6461V170.897H29.6941C29.5861 170.897 29.5501 170.969 29.5501 171.113V171.671C29.5501 171.869 29.5861 171.959 29.6941 171.959H33.1141C32.6821 172.481 32.2321 172.895 31.8001 173.201C31.4401 173.453 31.0441 173.705 30.5761 173.921C30.5041 173.957 30.4681 173.993 30.4681 174.065C30.4681 174.137 30.5041 174.209 30.5761 174.281C30.7561 174.443 30.8821 174.605 30.9721 174.749C31.0081 174.857 31.0981 174.911 31.2421 174.911C32.0881 174.443 32.9161 173.849 33.7081 173.093C33.7261 173.039 33.8521 173.003 34.0681 173.003C34.1941 173.003 34.2661 172.967 34.2661 172.877C34.2661 172.805 33.9601 172.499 33.3661 171.959H40.8001C40.8901 171.959 40.9441 171.869 40.9441 171.671V171.113C40.9441 170.969 40.8901 170.897 40.8001 170.897H37.6321V169.349H40.2421C40.3321 169.349 40.3861 169.259 40.3861 169.079V168.521C40.3861 168.377 40.3321 168.305 40.2421 168.305H37.6321V167.873C37.6321 167.675 37.6681 167.567 37.7761 167.549C37.8661 167.549 37.9201 167.459 37.9201 167.315C37.9201 167.171 37.4881 167.099 36.6601 167.099C36.5161 167.099 36.4441 167.153 36.4441 167.243V168.305H33.8341V167.873C33.8341 167.675 33.8701 167.567 33.9781 167.549C34.0681 167.549 34.1221 167.459 34.1221 167.315C34.1221 167.171 33.6901 167.099 32.8621 167.099C32.7181 167.099 32.6461 167.153 32.6461 167.243V168.305H30.3961ZM33.8341 170.897V169.349H36.4441V170.897H33.8341ZM37.1461 172.031C36.6241 172.463 36.3721 172.715 36.3721 172.805C36.3721 172.823 36.3901 172.859 36.4621 172.931C37.0561 173.543 37.9741 174.191 39.2341 174.875C39.3061 174.911 39.3601 174.911 39.3961 174.911C39.8641 174.443 40.0981 174.173 40.0981 174.065C40.0981 174.029 40.0441 173.975 39.9721 173.903C39.3241 173.651 38.8201 173.399 38.4961 173.165C38.0641 172.877 37.6141 172.499 37.1461 172.031ZM26.4541 160.637C26.4181 160.637 26.3641 160.691 26.3101 160.763C25.9321 161.231 25.7521 161.501 25.7521 161.555C26.0401 161.663 26.3821 161.861 26.8141 162.131C27.3181 162.473 27.8221 162.851 28.2901 163.247C28.2901 163.247 28.4701 162.995 28.8301 162.473C28.8841 162.401 28.9201 162.347 28.9201 162.329C28.6141 162.077 28.2541 161.789 27.8401 161.465C27.4801 161.213 27.0121 160.943 26.4541 160.637ZM25.8241 164.849C25.7881 164.849 25.7341 164.903 25.6801 164.975C25.3021 165.443 25.1221 165.713 25.1221 165.767C25.4101 165.857 25.8061 166.001 26.2741 166.199C26.8141 166.451 27.3541 166.739 27.8581 167.045C27.8761 167.045 28.0561 166.793 28.4161 166.271C28.4701 166.199 28.5061 166.145 28.5061 166.127C28.1821 165.947 27.7861 165.731 27.3361 165.479C26.9401 165.299 26.4361 165.083 25.8241 164.849ZM25.2661 169.007C25.1221 169.007 25.0501 169.115 25.0501 169.295V169.853C25.0501 170.033 25.1221 170.123 25.2661 170.123H27.4441V173.219C27.4441 173.435 27.4081 173.579 27.3721 173.633C26.5261 174.497 25.8241 175.073 25.2661 175.397C25.2661 175.541 25.2841 175.649 25.3381 175.757C25.7161 176.369 25.9501 176.675 26.0401 176.675C26.0761 176.675 26.1301 176.621 26.1661 176.549C26.2381 176.207 26.7421 175.541 27.6781 174.533C27.6781 174.515 27.7321 174.497 27.8041 174.497L27.8581 174.587C28.0741 175.091 28.2901 175.469 28.4881 175.685C28.7761 175.937 29.0821 176.153 29.4241 176.297C29.7841 176.441 30.1801 176.549 30.5761 176.639C30.9721 176.711 31.3681 176.747 31.8001 176.747H40.5301C40.6921 176.747 40.7821 176.639 40.8181 176.441C40.8901 175.937 41.0161 175.451 41.1601 174.983C41.1601 174.947 41.1061 174.911 41.0161 174.911C40.9261 174.911 40.8361 174.929 40.7461 174.965C38.7661 175.289 37.0381 175.469 35.5621 175.469H31.8001C31.2241 175.469 30.7201 175.415 30.2521 175.343C29.8921 175.271 29.5861 175.127 29.3341 174.947C29.1361 174.821 28.9921 174.623 28.9021 174.353C28.7761 174.101 28.7041 173.723 28.7041 173.219V169.223C28.7041 169.079 28.6141 169.007 28.4341 169.007H25.2661ZM43.2661 162.401C43.1221 162.401 43.0501 162.491 43.0501 162.671V163.247C43.0501 163.427 43.1221 163.517 43.2661 163.517H45.5881V171.581C44.4361 171.977 43.4461 172.265 42.6361 172.445C42.9961 173.435 43.2301 173.921 43.3381 173.921C43.4461 173.921 43.5721 173.759 43.7521 173.435C45.5341 172.823 47.2981 172.157 49.0261 171.401C49.0621 171.347 49.0981 171.023 49.0981 170.411C49.0981 170.321 49.0441 170.267 48.9541 170.267C48.9181 170.267 48.8821 170.285 48.8461 170.321C48.1981 170.609 47.5321 170.879 46.8481 171.131V163.517H48.8281C48.9541 163.517 49.0261 163.427 49.0261 163.247V162.671C49.0261 162.491 48.9541 162.401 48.8281 162.401H43.2661ZM49.7281 160.925C49.5841 160.925 49.5301 161.015 49.5301 161.195V161.771C49.5301 161.951 49.5841 162.041 49.7281 162.041H53.4721C53.3461 162.437 53.2201 162.761 53.1121 163.013C52.9681 163.337 52.7881 163.715 52.5721 164.147H50.1601C49.9621 164.147 49.8721 164.219 49.8721 164.363V173.435C49.8721 173.579 49.9621 173.651 50.1601 173.651H51.7801C51.4561 173.975 51.1681 174.263 50.8981 174.479C50.5021 174.839 50.0341 175.127 49.4941 175.415C49.2421 175.559 48.9181 175.703 48.5401 175.811C48.4861 175.829 48.4681 175.865 48.4681 175.901C48.4681 175.937 48.5041 175.991 48.5941 176.027C48.7741 176.171 48.9721 176.333 49.2241 176.531C49.2601 176.621 49.3681 176.675 49.5301 176.675C50.3221 176.279 50.9701 175.901 51.5101 175.541C51.9421 175.217 52.3561 174.857 52.7521 174.461C52.8241 174.407 52.9321 174.371 53.0941 174.353C53.2021 174.353 53.2561 174.317 53.2561 174.281C53.2561 174.209 53.2021 174.137 53.1121 174.029L52.6081 173.651H55.9561C55.5601 174.119 55.3621 174.353 55.3621 174.353C56.4421 175.289 57.5041 176.063 58.5841 176.675C58.6381 176.675 58.8361 176.387 59.1781 175.847C59.2501 175.739 59.3041 175.667 59.3041 175.613C58.3321 175.091 57.3781 174.443 56.4601 173.651H58.1701C58.3501 173.651 58.4581 173.579 58.4581 173.435V164.363C58.4581 164.219 58.3501 164.147 58.1701 164.147H53.9581C54.2461 163.481 54.5161 162.779 54.7681 162.041H58.8721C59.0161 162.041 59.0881 161.951 59.0881 161.771V161.195C59.0881 161.015 59.0161 160.925 58.8721 160.925H49.7281ZM57.1801 172.517H51.1321V170.897H57.1801V172.517ZM51.1321 169.781V168.089H57.1801V169.781H51.1321ZM51.1321 166.973V165.281H57.1801V166.973H51.1321ZM62.9581 162.743C62.8141 162.743 62.7421 162.851 62.7421 163.031V163.733C62.7421 163.985 62.8141 164.093 62.9581 164.093H75.1801C75.3241 164.093 75.3961 163.985 75.3961 163.733V163.031C75.3961 162.851 75.3241 162.743 75.1801 162.743H62.9581ZM61.2661 173.093C61.1221 173.093 61.0501 173.183 61.0501 173.363V174.065C61.0501 174.317 61.1221 174.425 61.2661 174.425H76.8721C77.0161 174.425 77.0881 174.317 77.0881 174.065V173.363C77.0881 173.183 77.0161 173.093 76.8721 173.093H61.2661Z" fill="white"/>
</svg>
