<svg width="177" height="88" viewBox="0 0 177 88" fill="none" xmlns="http://www.w3.org/2000/svg">
<path d="M0.982422 61.8994L5.94842 64.8443L6.01574 59.0712L0.982422 61.8994ZM22.4199 62.1494L17.4539 59.2046L17.3866 64.9777L22.4199 62.1494ZM5.47629 62.4519L17.9144 62.5969L17.9261 61.597L5.48795 61.4519L5.47629 62.4519Z" fill="#E73525"/>
<path d="M7.9502 84.6494H3.29199V84L5.75293 81.2656C6.11751 80.8522 6.36816 80.5169 6.50488 80.2598C6.64486 79.9993 6.71484 79.7308 6.71484 79.4541C6.71484 79.083 6.60254 78.7786 6.37793 78.541C6.15332 78.3034 5.85384 78.1846 5.47949 78.1846C5.03027 78.1846 4.68034 78.3132 4.42969 78.5703C4.18229 78.8242 4.05859 79.179 4.05859 79.6348H3.15527C3.15527 78.9805 3.36523 78.4515 3.78516 78.0479C4.20833 77.6442 4.77311 77.4424 5.47949 77.4424C6.1403 77.4424 6.66276 77.6165 7.04688 77.9648C7.43099 78.3099 7.62305 78.7705 7.62305 79.3467C7.62305 80.0465 7.17708 80.8799 6.28516 81.8467L4.38086 83.9121H7.9502V84.6494ZM12.7207 82.2617H13.707V82.999H12.7207V84.6494H11.8125V82.999H8.5752V82.4668L11.7588 77.54H12.7207V82.2617ZM9.60059 82.2617H11.8125V78.7754L11.7051 78.9707L9.60059 82.2617ZM19.0781 82.0664C19.0781 82.8704 18.8942 83.5182 18.5264 84.0098C18.1585 84.5013 17.6605 84.7471 17.0322 84.7471C16.391 84.7471 15.8864 84.5436 15.5186 84.1367V86.6807H14.6152V79.3662H15.4404L15.4844 79.9521C15.8522 79.4964 16.3633 79.2686 17.0176 79.2686C17.6523 79.2686 18.1536 79.5078 18.5215 79.9863C18.8926 80.4648 19.0781 81.1305 19.0781 81.9834V82.0664ZM18.1748 81.9639C18.1748 81.3682 18.0479 80.8978 17.7939 80.5527C17.54 80.2077 17.1917 80.0352 16.749 80.0352C16.2021 80.0352 15.792 80.2777 15.5186 80.7627V83.2871C15.7887 83.7689 16.2021 84.0098 16.7588 84.0098C17.1917 84.0098 17.5352 83.8389 17.7891 83.4971C18.0462 83.152 18.1748 82.641 18.1748 81.9639ZM21.9248 81.2949L23.0967 79.3662H24.1514L22.4229 81.9785L24.2051 84.6494H23.1602L21.9395 82.6719L20.7188 84.6494H19.6689L21.4512 81.9785L19.7227 79.3662H20.7676L21.9248 81.2949Z" fill="black"/>
<path d="M141.779 22.2849L149.779 30.2849L157.779 22.2849" stroke="#00A19B"/>
<path d="M26.7284 17.0263C26.6204 17.0263 26.5844 17.0983 26.5844 17.2243V17.8003C26.5844 17.9803 26.6204 18.0703 26.7284 18.0703H31.3724C31.4624 18.0703 31.5164 17.9803 31.5164 17.8003V17.2243C31.5164 17.0983 31.4624 17.0263 31.3724 17.0263H26.7284ZM25.9544 19.5463C25.8464 19.5463 25.8104 19.6183 25.8104 19.7623V20.3203C25.8104 20.5183 25.8464 20.6083 25.9544 20.6083H32.1464C32.2364 20.6083 32.2904 20.5183 32.2904 20.3203V19.7623C32.2904 19.6183 32.2364 19.5463 32.1464 19.5463H25.9544ZM26.6564 22.0843C26.5484 22.0843 26.5124 22.1563 26.5124 22.3003V22.8583C26.5124 23.0563 26.5484 23.1463 26.6564 23.1463H31.4444C31.5344 23.1463 31.5884 23.0563 31.5884 22.8583V22.3003C31.5884 22.1563 31.5344 22.0843 31.4444 22.0843H26.6564ZM26.6564 24.6223C26.5484 24.6223 26.5124 24.6943 26.5124 24.8203V25.3963C26.5124 25.5763 26.5484 25.6663 26.6564 25.6663H31.4444C31.5344 25.6663 31.5884 25.5763 31.5884 25.3963V24.8203C31.5884 24.6943 31.5344 24.6223 31.4444 24.6223H26.6564ZM26.4584 27.1423C26.3144 27.1423 26.2424 27.2143 26.2424 27.3583V32.4163C26.2424 32.5603 26.3144 32.6323 26.4584 32.6323H27.1604C27.3404 32.6323 27.4304 32.5603 27.4304 32.4163V31.4443H30.4544V32.3443C30.4544 32.4883 30.5264 32.5603 30.6704 32.5603H31.3724C31.5524 32.5603 31.6604 32.4883 31.6604 32.3443V27.3583C31.6604 27.2143 31.5524 27.1423 31.3724 27.1423H26.4584ZM27.4304 30.3823V28.2043H30.4544V30.3823H27.4304ZM32.9204 17.9983C32.8124 17.9983 32.7764 18.0703 32.7764 18.2143V18.7723C32.7764 18.9703 32.8124 19.0603 32.9204 19.0603H36.7904V20.2483H33.5504C33.4424 20.2483 33.4064 20.3203 33.4064 20.4643V21.0223C33.4064 21.2203 33.4424 21.3103 33.5504 21.3103H36.7904V22.4983H32.7044C32.5964 22.4983 32.5604 22.5703 32.5604 22.7143V23.2723C32.5604 23.4703 32.5964 23.5603 32.7044 23.5603H42.2084C42.2804 23.5603 42.3344 23.4703 42.3344 23.2723V22.7143C42.3344 22.5703 42.2804 22.4983 42.2084 22.4983H38.0504V21.3103H41.2904C41.3804 21.3103 41.4344 21.2203 41.4344 21.0223V20.4643C41.4344 20.3203 41.3804 20.2483 41.2904 20.2483H38.0504V19.0603H41.9924C42.0824 19.0603 42.1364 18.9703 42.1364 18.7723V18.2143C42.1364 18.0703 42.0824 17.9983 41.9924 17.9983H38.0504V17.2243C38.0504 17.0083 38.1044 16.8823 38.2304 16.8643C38.3384 16.8463 38.4104 16.7563 38.4104 16.5943C38.4104 16.4683 37.9604 16.3963 37.0604 16.3963C36.8804 16.3963 36.7904 16.4683 36.7904 16.5943V17.9983H32.9204ZM33.7664 24.5503C33.5684 24.5503 33.4784 24.6223 33.4784 24.7483V32.4883C33.4784 32.6323 33.5684 32.7043 33.7664 32.7043H34.4684C34.6484 32.7043 34.7384 32.6323 34.7384 32.4883V30.1663H39.9584V30.9403C39.9584 31.0843 39.8504 31.1743 39.6704 31.2283C39.5264 31.2823 39.0224 31.3183 38.1944 31.3183C38.0864 31.3183 38.0504 31.3363 38.0504 31.3723C38.3024 31.8583 38.4284 32.2363 38.4644 32.4883C38.4644 32.6323 38.5364 32.7043 38.6804 32.7043C39.4184 32.6503 40.0124 32.5603 40.4804 32.4523C40.9664 32.2723 41.2184 32.0563 41.2184 31.7683V24.7483C41.2184 24.6223 41.0924 24.5503 40.8584 24.5503H33.7664ZM34.7384 29.1223V27.8443H39.9584V29.1223H34.7384ZM34.7384 26.8003V25.5943H39.9584V26.8003H34.7384ZM49.7864 17.8003H52.1804V19.2763H49.7864V17.8003ZM49.7864 20.1223H53.0984C53.2784 20.1223 53.3864 20.0503 53.3864 19.9063V17.1703C53.3864 17.0263 53.2784 16.9543 53.0984 16.9543H48.9584C48.7604 16.9543 48.6704 17.0263 48.6704 17.1703V21.5263C48.6704 22.2283 49.1384 22.5703 50.0744 22.5703H52.5404C53.0084 22.5703 53.2964 22.4623 53.4044 22.2463C53.5124 22.1203 53.6204 21.8503 53.7284 21.4543C53.7284 21.3103 53.6564 21.2203 53.5484 21.1843C53.2964 21.1123 53.0084 20.9503 52.6844 20.6803C52.6304 20.9863 52.5764 21.1843 52.5404 21.2743C52.5044 21.4543 52.3784 21.5263 52.1804 21.5263H50.7044C50.0924 21.5263 49.7864 21.2743 49.7864 20.7523V20.1223ZM55.8344 17.8003H58.3004V19.2763H55.8344V17.8003ZM55.8344 20.1223H59.2184C59.3984 20.1223 59.4884 20.0503 59.4884 19.9063V17.1703C59.4884 17.0263 59.3984 16.9543 59.2184 16.9543H54.9884C54.8084 16.9543 54.7184 17.0263 54.7184 17.1703V21.5983C54.7184 22.3003 55.1864 22.6423 56.1224 22.6423H58.6604C59.2364 22.6423 59.5784 22.5343 59.7224 22.3003C59.8664 22.1563 59.9924 21.8683 60.1364 21.4543C60.1364 21.3103 60.0644 21.2203 59.9384 21.1843C59.6864 21.1123 59.3984 20.9503 59.0744 20.6803C59.0024 21.0043 58.9304 21.2203 58.8584 21.3103C58.7864 21.5083 58.6064 21.5983 58.3004 21.5983H56.7524C56.1404 21.5983 55.8344 21.3463 55.8344 20.8243V20.1223ZM49.3004 24.4063C49.1924 24.4063 49.1564 24.4783 49.1564 24.6223V25.1803C49.1564 25.3603 49.1924 25.4503 49.3004 25.4503H51.5504V26.9983H48.5984C48.4904 26.9983 48.4544 27.0703 48.4544 27.2143V27.7723C48.4544 27.9703 48.4904 28.0603 48.5984 28.0603H52.0184C51.5864 28.5823 51.1364 28.9963 50.7044 29.3023C50.3444 29.5543 49.9484 29.8063 49.4804 30.0223C49.4084 30.0583 49.3724 30.0943 49.3724 30.1663C49.3724 30.2383 49.4084 30.3103 49.4804 30.3823C49.6604 30.5443 49.7864 30.7063 49.8764 30.8503C49.9124 30.9583 50.0024 31.0123 50.1464 31.0123C50.9924 30.5443 51.8204 29.9503 52.6124 29.1943C52.6304 29.1403 52.7564 29.1043 52.9724 29.1043C53.0984 29.1043 53.1704 29.0683 53.1704 28.9783C53.1704 28.9063 52.8644 28.6003 52.2704 28.0603H59.7044C59.7944 28.0603 59.8484 27.9703 59.8484 27.7723V27.2143C59.8484 27.0703 59.7944 26.9983 59.7044 26.9983H56.5364V25.4503H59.1464C59.2364 25.4503 59.2904 25.3603 59.2904 25.1803V24.6223C59.2904 24.4783 59.2364 24.4063 59.1464 24.4063H56.5364V23.9743C56.5364 23.7763 56.5724 23.6683 56.6804 23.6503C56.7704 23.6503 56.8244 23.5603 56.8244 23.4163C56.8244 23.2723 56.3924 23.2003 55.5644 23.2003C55.4204 23.2003 55.3484 23.2543 55.3484 23.3443V24.4063H52.7384V23.9743C52.7384 23.7763 52.7744 23.6683 52.8824 23.6503C52.9724 23.6503 53.0264 23.5603 53.0264 23.4163C53.0264 23.2723 52.5944 23.2003 51.7664 23.2003C51.6224 23.2003 51.5504 23.2543 51.5504 23.3443V24.4063H49.3004ZM52.7384 26.9983V25.4503H55.3484V26.9983H52.7384ZM56.0504 28.1323C55.5284 28.5643 55.2764 28.8163 55.2764 28.9063C55.2764 28.9243 55.2944 28.9603 55.3664 29.0323C55.9604 29.6443 56.8784 30.2923 58.1384 30.9763C58.2104 31.0123 58.2644 31.0123 58.3004 31.0123C58.7684 30.5443 59.0024 30.2743 59.0024 30.1663C59.0024 30.1303 58.9484 30.0763 58.8764 30.0043C58.2284 29.7523 57.7244 29.5003 57.4004 29.2663C56.9684 28.9783 56.5184 28.6003 56.0504 28.1323ZM45.3584 16.7383C45.3224 16.7383 45.2684 16.7923 45.2144 16.8643C44.8364 17.3323 44.6564 17.6023 44.6564 17.6563C44.9444 17.7643 45.2864 17.9623 45.7184 18.2323C46.2224 18.5743 46.7264 18.9523 47.1944 19.3483C47.1944 19.3483 47.3744 19.0963 47.7344 18.5743C47.7884 18.5023 47.8244 18.4483 47.8244 18.4303C47.5184 18.1783 47.1584 17.8903 46.7444 17.5663C46.3844 17.3143 45.9164 17.0443 45.3584 16.7383ZM44.7284 20.9503C44.6924 20.9503 44.6384 21.0043 44.5844 21.0763C44.2064 21.5443 44.0264 21.8143 44.0264 21.8683C44.3144 21.9583 44.7104 22.1023 45.1784 22.3003C45.7184 22.5523 46.2584 22.8403 46.7624 23.1463C46.7804 23.1463 46.9604 22.8943 47.3204 22.3723C47.3744 22.3003 47.4104 22.2463 47.4104 22.2283C47.0864 22.0483 46.6904 21.8323 46.2404 21.5803C45.8444 21.4003 45.3404 21.1843 44.7284 20.9503ZM44.1704 25.1083C44.0264 25.1083 43.9544 25.2163 43.9544 25.3963V25.9543C43.9544 26.1343 44.0264 26.2243 44.1704 26.2243H46.3484V29.3203C46.3484 29.5363 46.3124 29.6803 46.2764 29.7343C45.4304 30.5983 44.7284 31.1743 44.1704 31.4983C44.1704 31.6423 44.1884 31.7503 44.2424 31.8583C44.6204 32.4703 44.8544 32.7763 44.9444 32.7763C44.9804 32.7763 45.0344 32.7223 45.0704 32.6503C45.1424 32.3083 45.6464 31.6423 46.5824 30.6343C46.5824 30.6163 46.6364 30.5983 46.7084 30.5983L46.7624 30.6883C46.9784 31.1923 47.1944 31.5703 47.3924 31.7863C47.6804 32.0383 47.9864 32.2543 48.3284 32.3983C48.6884 32.5423 49.0844 32.6503 49.4804 32.7403C49.8764 32.8123 50.2724 32.8483 50.7044 32.8483H59.4344C59.5964 32.8483 59.6864 32.7403 59.7224 32.5423C59.7944 32.0383 59.9204 31.5523 60.0644 31.0843C60.0644 31.0483 60.0104 31.0123 59.9204 31.0123C59.8304 31.0123 59.7404 31.0303 59.6504 31.0663C57.6704 31.3903 55.9424 31.5703 54.4664 31.5703H50.7044C50.1284 31.5703 49.6244 31.5163 49.1564 31.4443C48.7964 31.3723 48.4904 31.2283 48.2384 31.0483C48.0404 30.9223 47.8964 30.7243 47.8064 30.4543C47.6804 30.2023 47.6084 29.8243 47.6084 29.3203V25.3243C47.6084 25.1803 47.5184 25.1083 47.3384 25.1083H44.1704ZM62.2424 20.2483C62.0984 20.2483 62.0264 20.3563 62.0264 20.5363V21.0943C62.0264 21.2923 62.0984 21.3823 62.2424 21.3823H63.9884V25.5943C63.0884 26.0803 62.3324 26.4403 61.6844 26.6563C62.0264 27.6463 62.2604 28.1323 62.3864 28.1323C62.4944 28.1323 62.6204 27.9703 62.8004 27.6463C63.1964 27.4303 63.5924 27.1963 63.9884 26.9443V31.0123C63.9884 31.4263 63.7364 31.6423 63.2324 31.6423C62.8904 31.6423 62.5124 31.5883 62.0984 31.4983C61.9904 31.4983 61.9544 31.5343 61.9544 31.6423C62.1344 31.9663 62.2424 32.2363 62.2964 32.4703C62.2964 32.6683 62.3504 32.7763 62.4584 32.7763H63.3584C64.6184 32.7763 65.2664 32.3443 65.2664 31.4983V26.1343C65.8244 25.7743 66.3824 25.3783 66.9584 24.9643C66.9944 24.9103 67.0124 24.5863 67.0124 23.9743C67.0124 23.9023 66.9584 23.8483 66.8864 23.8483C66.8504 23.8483 66.8144 23.8663 66.7964 23.9023C66.3104 24.2443 65.8064 24.5683 65.2664 24.8743V21.3823H66.9584C67.0844 21.3823 67.1564 21.2923 67.1564 21.0943V20.5363C67.1564 20.3563 67.0844 20.2483 66.9584 20.2483H65.2664V17.9443C65.2664 17.4763 65.3744 17.2063 65.6084 17.1163C65.7524 17.1163 65.8244 17.0623 65.8244 16.9543C65.8244 16.9183 65.7524 16.8643 65.6264 16.7923L64.2044 16.5943C63.9704 16.5943 63.8624 16.6483 63.8624 16.7383C63.8624 16.8283 63.8804 16.9363 63.9344 17.0803C63.9704 17.2603 63.9884 17.5303 63.9884 17.8723V20.2483H62.2424ZM68.0744 16.9543C67.8764 16.9543 67.7864 17.0263 67.7864 17.1703V20.6803C67.7864 20.8243 67.8764 20.8963 68.0744 20.8963H72.1604V22.0123H68.6324C68.5244 22.0123 68.4884 22.0843 68.4884 22.2283V22.7863C68.4884 22.9303 68.5244 23.0023 68.6324 23.0023H72.1604V24.1903H67.5884C67.4804 24.1903 67.4444 24.2623 67.4444 24.4063V24.9643C67.4444 25.1083 67.4804 25.1803 67.5884 25.1803H77.9924C78.0824 25.1803 78.1364 25.1083 78.1364 24.9643V24.4063C78.1364 24.2623 78.0824 24.1903 77.9924 24.1903H73.3484V23.0023H76.9304C77.0204 23.0023 77.0744 22.9303 77.0744 22.7863V22.2283C77.0744 22.0843 77.0204 22.0123 76.9304 22.0123H73.3484V20.8963H77.2904C77.4704 20.8963 77.5604 20.8243 77.5604 20.6803V17.1703C77.5604 17.0263 77.4704 16.9543 77.2904 16.9543H68.0744ZM76.3724 19.9063H74.6084V17.9443H76.3724V19.9063ZM73.4924 19.9063H71.8004V17.9443H73.4924V19.9063ZM70.6844 19.9063H68.9924V17.9443H70.6844V19.9063ZM70.6124 25.2523C70.0004 25.5583 69.6944 25.7383 69.6944 25.8103C69.9824 26.2423 70.2344 26.6563 70.4144 27.0703C70.4504 27.1783 70.5044 27.2683 70.5404 27.3583H68.4344C68.3264 27.3583 68.2904 27.4303 68.2904 27.5743V28.1323C68.2904 28.2763 68.3264 28.3483 68.4344 28.3483H72.1604V29.7523H67.6604C67.5524 29.7523 67.5164 29.8243 67.5164 29.9503V30.5263C67.5164 30.6703 67.5524 30.7243 67.6604 30.7243H72.1604V32.6323C72.1604 32.7763 72.2144 32.8483 72.3584 32.8483H73.0604C73.2404 32.8483 73.3484 32.7763 73.3484 32.6323V30.7243H77.7044C77.7944 30.7243 77.8484 30.6703 77.8484 30.5263V29.9503C77.8484 29.8243 77.7944 29.7523 77.7044 29.7523H73.3484V28.3483H77.0024C77.0924 28.3483 77.1464 28.2763 77.1464 28.1323V27.5743C77.1464 27.4303 77.0924 27.3583 77.0024 27.3583H74.8064C75.0584 26.9623 75.2564 26.5843 75.4004 26.2603C75.4364 26.1883 75.5264 26.1523 75.6704 26.1343C75.7604 26.1343 75.8144 26.0983 75.8144 26.0263C75.8144 25.9723 75.7604 25.9003 75.6704 25.8283L74.6804 25.2523C74.6084 25.2523 74.5544 25.2883 74.5364 25.3423C74.4104 25.7023 74.2484 26.0983 74.0684 26.5123C73.9244 26.8003 73.7444 27.0703 73.5284 27.3583H71.6924C71.5844 27.0703 71.4764 26.8003 71.3324 26.5123C71.1524 26.1343 70.9004 25.7203 70.6124 25.2523Z" fill="#1C1C1C" fill-opacity="0.3"/>
<rect x="1.5" y="0.5" width="175" height="49" rx="3.5" stroke="#00A19B"/>
</svg>
