<svg width="256" height="120" viewBox="0 0 256 120" fill="none" xmlns="http://www.w3.org/2000/svg">
<path d="M4.54199 29.2103H3.63379V23.1898L1.8125 23.8588V23.0385L4.40039 22.0668H4.54199V29.2103ZM11.8467 29.2103H7.18848V28.5609L9.64941 25.8265C10.014 25.4131 10.2646 25.0778 10.4014 24.8207C10.5413 24.5603 10.6113 24.2917 10.6113 24.015C10.6113 23.6439 10.499 23.3396 10.2744 23.1019C10.0498 22.8643 9.75033 22.7455 9.37598 22.7455C8.92676 22.7455 8.57682 22.8741 8.32617 23.1312C8.07878 23.3851 7.95508 23.7399 7.95508 24.1957H7.05176C7.05176 23.5414 7.26172 23.0124 7.68164 22.6088C8.10482 22.2051 8.6696 22.0033 9.37598 22.0033C10.0368 22.0033 10.5592 22.1774 10.9434 22.5258C11.3275 22.8708 11.5195 23.3314 11.5195 23.9076C11.5195 24.6075 11.0736 25.4408 10.1816 26.4076L8.27734 28.473H11.8467V29.2103ZM17.3594 26.6273C17.3594 27.4314 17.1755 28.0791 16.8076 28.5707C16.4398 29.0622 15.9417 29.308 15.3135 29.308C14.6722 29.308 14.1676 29.1045 13.7998 28.6976V31.2416H12.8965V23.9271H13.7217L13.7656 24.5131C14.1335 24.0573 14.6445 23.8295 15.2988 23.8295C15.9336 23.8295 16.4349 24.0687 16.8027 24.5472C17.1738 25.0258 17.3594 25.6914 17.3594 26.5443V26.6273ZM16.4561 26.5248C16.4561 25.9291 16.3291 25.4587 16.0752 25.1136C15.8213 24.7686 15.473 24.5961 15.0303 24.5961C14.4834 24.5961 14.0732 24.8386 13.7998 25.3236V27.848C14.07 28.3298 14.4834 28.5707 15.04 28.5707C15.473 28.5707 15.8164 28.3998 16.0703 28.058C16.3275 27.7129 16.4561 27.2019 16.4561 26.5248ZM20.2061 25.8558L21.3779 23.9271H22.4326L20.7041 26.5394L22.4863 29.2103H21.4414L20.2207 27.2328L19 29.2103H17.9502L19.7324 26.5394L18.0039 23.9271H19.0488L20.2061 25.8558Z" fill="black"/>
<path d="M45.6048 2.58633H47.9988V4.06233H45.6048V2.58633ZM45.6048 4.90833H48.9168C49.0968 4.90833 49.2048 4.83633 49.2048 4.69233V1.95633C49.2048 1.81233 49.0968 1.74033 48.9168 1.74033H44.7768C44.5788 1.74033 44.4888 1.81233 44.4888 1.95633V6.31233C44.4888 7.01433 44.9568 7.35633 45.8928 7.35633H48.3588C48.8268 7.35633 49.1148 7.24833 49.2228 7.03233C49.3308 6.90633 49.4388 6.63633 49.5468 6.24033C49.5468 6.09633 49.4748 6.00633 49.3668 5.97033C49.1148 5.89833 48.8268 5.73633 48.5028 5.46633C48.4488 5.77233 48.3948 5.97033 48.3588 6.06033C48.3228 6.24033 48.1968 6.31233 47.9988 6.31233H46.5228C45.9108 6.31233 45.6048 6.06033 45.6048 5.53833V4.90833ZM51.6528 2.58633H54.1188V4.06233H51.6528V2.58633ZM51.6528 4.90833H55.0368C55.2168 4.90833 55.3068 4.83633 55.3068 4.69233V1.95633C55.3068 1.81233 55.2168 1.74033 55.0368 1.74033H50.8068C50.6268 1.74033 50.5368 1.81233 50.5368 1.95633V6.38433C50.5368 7.08633 51.0048 7.42833 51.9408 7.42833H54.4788C55.0548 7.42833 55.3968 7.32033 55.5408 7.08633C55.6848 6.94233 55.8108 6.65433 55.9548 6.24033C55.9548 6.09633 55.8828 6.00633 55.7568 5.97033C55.5048 5.89833 55.2168 5.73633 54.8928 5.46633C54.8208 5.79033 54.7488 6.00633 54.6768 6.09633C54.6048 6.29433 54.4248 6.38433 54.1188 6.38433H52.5708C51.9588 6.38433 51.6528 6.13233 51.6528 5.61033V4.90833ZM45.1188 9.19233C45.0108 9.19233 44.9748 9.26433 44.9748 9.40833V9.96633C44.9748 10.1463 45.0108 10.2363 45.1188 10.2363H47.3688V11.7843H44.4168C44.3088 11.7843 44.2728 11.8563 44.2728 12.0003V12.5583C44.2728 12.7563 44.3088 12.8463 44.4168 12.8463H47.8368C47.4048 13.3683 46.9548 13.7823 46.5228 14.0883C46.1628 14.3403 45.7668 14.5923 45.2988 14.8083C45.2268 14.8443 45.1908 14.8803 45.1908 14.9523C45.1908 15.0243 45.2268 15.0963 45.2988 15.1683C45.4788 15.3303 45.6048 15.4923 45.6948 15.6363C45.7308 15.7443 45.8208 15.7983 45.9648 15.7983C46.8108 15.3303 47.6388 14.7363 48.4308 13.9803C48.4488 13.9263 48.5748 13.8903 48.7908 13.8903C48.9168 13.8903 48.9888 13.8543 48.9888 13.7643C48.9888 13.6923 48.6828 13.3863 48.0888 12.8463H55.5228C55.6128 12.8463 55.6668 12.7563 55.6668 12.5583V12.0003C55.6668 11.8563 55.6128 11.7843 55.5228 11.7843H52.3548V10.2363H54.9648C55.0548 10.2363 55.1088 10.1463 55.1088 9.96633V9.40833C55.1088 9.26433 55.0548 9.19233 54.9648 9.19233H52.3548V8.76033C52.3548 8.56233 52.3908 8.45433 52.4988 8.43633C52.5888 8.43633 52.6428 8.34633 52.6428 8.20233C52.6428 8.05833 52.2108 7.98633 51.3828 7.98633C51.2388 7.98633 51.1668 8.04033 51.1668 8.13033V9.19233H48.5568V8.76033C48.5568 8.56233 48.5928 8.45433 48.7008 8.43633C48.7908 8.43633 48.8448 8.34633 48.8448 8.20233C48.8448 8.05833 48.4128 7.98633 47.5848 7.98633C47.4408 7.98633 47.3688 8.04033 47.3688 8.13033V9.19233H45.1188ZM48.5568 11.7843V10.2363H51.1668V11.7843H48.5568ZM51.8688 12.9183C51.3468 13.3503 51.0948 13.6023 51.0948 13.6923C51.0948 13.7103 51.1128 13.7463 51.1848 13.8183C51.7788 14.4303 52.6968 15.0783 53.9568 15.7623C54.0288 15.7983 54.0828 15.7983 54.1188 15.7983C54.5868 15.3303 54.8208 15.0603 54.8208 14.9523C54.8208 14.9163 54.7668 14.8623 54.6948 14.7903C54.0468 14.5383 53.5428 14.2863 53.2188 14.0523C52.7868 13.7643 52.3368 13.3863 51.8688 12.9183ZM41.1768 1.52433C41.1408 1.52433 41.0868 1.57833 41.0328 1.65033C40.6548 2.11833 40.4748 2.38833 40.4748 2.44233C40.7628 2.55033 41.1048 2.74833 41.5368 3.01833C42.0408 3.36033 42.5448 3.73833 43.0128 4.13433C43.0128 4.13433 43.1928 3.88233 43.5528 3.36033C43.6068 3.28833 43.6428 3.23433 43.6428 3.21633C43.3368 2.96433 42.9768 2.67633 42.5628 2.35233C42.2028 2.10033 41.7348 1.83033 41.1768 1.52433ZM40.5468 5.73633C40.5108 5.73633 40.4568 5.79033 40.4028 5.86233C40.0248 6.33033 39.8448 6.60033 39.8448 6.65433C40.1328 6.74433 40.5288 6.88833 40.9968 7.08633C41.5368 7.33833 42.0768 7.62633 42.5808 7.93233C42.5988 7.93233 42.7788 7.68033 43.1388 7.15833C43.1928 7.08633 43.2288 7.03233 43.2288 7.01433C42.9048 6.83433 42.5088 6.61833 42.0588 6.36633C41.6628 6.18633 41.1588 5.97033 40.5468 5.73633ZM39.9888 9.89433C39.8448 9.89433 39.7728 10.0023 39.7728 10.1823V10.7403C39.7728 10.9203 39.8448 11.0103 39.9888 11.0103H42.1668V14.1063C42.1668 14.3223 42.1308 14.4663 42.0948 14.5203C41.2488 15.3843 40.5468 15.9603 39.9888 16.2843C39.9888 16.4283 40.0068 16.5363 40.0608 16.6443C40.4388 17.2563 40.6728 17.5623 40.7628 17.5623C40.7988 17.5623 40.8528 17.5083 40.8888 17.4363C40.9608 17.0943 41.4648 16.4283 42.4008 15.4203C42.4008 15.4023 42.4548 15.3843 42.5268 15.3843L42.5808 15.4743C42.7968 15.9783 43.0128 16.3563 43.2108 16.5723C43.4988 16.8243 43.8048 17.0403 44.1468 17.1843C44.5068 17.3283 44.9028 17.4363 45.2988 17.5263C45.6948 17.5983 46.0908 17.6343 46.5228 17.6343H55.2528C55.4148 17.6343 55.5048 17.5263 55.5408 17.3283C55.6128 16.8243 55.7388 16.3383 55.8828 15.8703C55.8828 15.8343 55.8288 15.7983 55.7388 15.7983C55.6488 15.7983 55.5588 15.8163 55.4688 15.8523C53.4888 16.1763 51.7608 16.3563 50.2848 16.3563H46.5228C45.9468 16.3563 45.4428 16.3023 44.9748 16.2303C44.6148 16.1583 44.3088 16.0143 44.0568 15.8343C43.8588 15.7083 43.7148 15.5103 43.6248 15.2403C43.4988 14.9883 43.4268 14.6103 43.4268 14.1063V10.1103C43.4268 9.96633 43.3368 9.89433 43.1568 9.89433H39.9888ZM59.7528 1.66833C59.5548 1.66833 59.4648 1.74033 59.4648 1.88433V5.17833C59.4648 5.32233 59.5548 5.39433 59.7528 5.39433H64.6668C64.8468 5.39433 64.9548 5.32233 64.9548 5.17833V1.88433C64.9548 1.74033 64.8468 1.66833 64.6668 1.66833H59.7528ZM63.6768 4.33233H60.7248V2.73033H63.6768V4.33233ZM66.9168 1.66833C66.7188 1.66833 66.6288 1.74033 66.6288 1.88433V5.17833C66.6288 5.32233 66.7188 5.39433 66.9168 5.39433H71.7048C71.8848 5.39433 71.9748 5.32233 71.9748 5.17833V1.88433C71.9748 1.74033 71.8848 1.66833 71.7048 1.66833H66.9168ZM70.7148 4.33233H67.9068V2.73033H70.7148V4.33233ZM60.1668 6.45633C59.9688 6.45633 59.8788 6.54633 59.8788 6.72633V13.0623C59.8788 13.2063 59.9688 13.2603 60.1668 13.2603H60.8688C61.0488 13.2603 61.1568 13.2063 61.1568 13.0623V12.7743H65.0808V14.1063H57.9888C57.8448 14.1063 57.7728 14.2143 57.7728 14.3943V14.9523C57.7728 15.1503 57.8448 15.2403 57.9888 15.2403H65.0808V17.4183C65.0808 17.5623 65.1708 17.6343 65.3688 17.6343H66.0708C66.2508 17.6343 66.3588 17.5623 66.3588 17.4183V15.2403H73.5948C73.7388 15.2403 73.8108 15.1503 73.8108 14.9523V14.3943C73.8108 14.2143 73.7388 14.1063 73.5948 14.1063H66.3588V12.7743H70.2288V13.0623C70.2288 13.2063 70.3188 13.2603 70.4988 13.2603H71.2008C71.3808 13.2603 71.4888 13.2063 71.4888 13.0623V6.65433C71.4888 6.52833 71.3808 6.45633 71.2008 6.45633H60.1668ZM61.1568 11.6583V10.1823H65.0808V11.6583H61.1568ZM66.3588 10.1823H70.2288V11.6583H66.3588V10.1823ZM61.1568 9.04833V7.57233H65.0808V9.04833H61.1568ZM66.3588 7.57233H70.2288V9.04833H66.3588V7.57233ZM75.9888 5.03433C75.8448 5.03433 75.7728 5.14233 75.7728 5.32233V5.88033C75.7728 6.07833 75.8448 6.16833 75.9888 6.16833H77.8788C77.6808 7.23033 77.5188 8.00433 77.3748 8.50833C77.1948 9.26433 76.9428 10.0203 76.6188 10.7943C76.2948 11.6223 75.8808 12.4683 75.3588 13.3323C75.3588 13.4043 75.3948 13.4223 75.5028 13.4223C75.7548 13.5663 76.0068 13.6923 76.2588 13.8003C76.3128 13.8723 76.4028 13.9083 76.5468 13.9083C76.9428 13.2243 77.2848 12.4863 77.5728 11.6943C77.7528 11.2443 77.9148 10.7403 78.0948 10.2003V17.4183C78.0948 17.5623 78.1848 17.6343 78.3828 17.6343H79.0848C79.2648 17.6343 79.3548 17.5623 79.3548 17.4183V8.47233C79.4088 8.67033 79.4808 8.85033 79.5528 9.03033C79.8588 9.82233 80.2188 10.5423 80.6508 11.1723C80.7228 11.2623 80.7948 11.2983 80.8308 11.2983C80.8668 11.2983 80.9388 11.2623 81.0108 11.1723C81.2088 10.9923 81.3708 10.8303 81.4968 10.6683C81.5688 10.6143 81.6048 10.5603 81.6048 10.5243C81.6048 10.4523 81.5688 10.3803 81.5148 10.3263C80.9028 9.49833 80.4708 8.74233 80.2368 8.07633C80.0388 7.60833 79.8228 6.97833 79.5888 6.16833H80.9748C81.1188 6.16833 81.1908 6.07833 81.1908 5.88033V5.32233C81.1908 5.14233 81.1188 5.03433 80.9748 5.03433H79.3548V2.15433C79.3548 1.93833 79.4088 1.81233 79.5348 1.79433C79.6428 1.77633 79.7148 1.68633 79.7148 1.52433C79.7148 1.38033 79.2648 1.30833 78.3828 1.30833C78.1848 1.30833 78.0948 1.38033 78.0948 1.52433V5.03433H75.9888ZM81.6048 2.01033C81.5148 2.01033 81.4788 2.08233 81.4788 2.22633V2.78433C81.4788 2.98233 81.5148 3.07233 81.6048 3.07233H84.5028V4.47633H82.0368C81.8388 4.47633 81.7488 4.54833 81.7488 4.69233V8.13033C81.7488 8.27433 81.8388 8.34633 82.0368 8.34633H91.0368C91.2168 8.34633 91.3068 8.27433 91.3068 8.13033V4.69233C91.3068 4.54833 91.2168 4.47633 91.0368 4.47633H88.4988V3.07233H91.6668C91.7568 3.07233 91.8108 2.98233 91.8108 2.78433V2.22633C91.8108 2.08233 91.7568 2.01033 91.6668 2.01033H81.6048ZM87.3108 4.47633H85.6908V3.07233H87.3108V4.47633ZM90.0468 7.28433H88.4988V5.53833H90.0468V7.28433ZM87.3108 7.28433H85.6908V5.53833H87.3108V7.28433ZM84.5028 7.28433H83.0268V5.53833H84.5028V7.28433ZM82.6668 9.53433C82.5588 9.53433 82.5228 9.60633 82.5228 9.75033V10.3083C82.5228 10.5063 82.5588 10.5963 82.6668 10.5963H90.4788C90.5508 10.5963 90.6048 10.5063 90.6048 10.3083V9.75033C90.6048 9.60633 90.5508 9.53433 90.4788 9.53433H82.6668ZM81.4788 11.7303C81.3708 11.7303 81.3348 11.8023 81.3348 11.9283V12.4863C81.3348 12.6843 81.3708 12.7743 81.4788 12.7743H85.9788V15.7263C85.9788 16.1403 85.6368 16.3563 84.9888 16.3563C84.6288 16.3563 84.2508 16.3023 83.8548 16.2303V16.2843C84.0348 16.6443 84.1248 16.9503 84.1608 17.2203C84.1608 17.4363 84.1968 17.5623 84.2868 17.5623H85.0608C86.5008 17.5623 87.2388 17.1123 87.2388 16.2303V12.7743H91.5948C91.6848 12.7743 91.7388 12.6843 91.7388 12.4863V11.9283C91.7388 11.8023 91.6848 11.7303 91.5948 11.7303H81.4788ZM83.5128 13.6203C83.4768 13.6203 83.4408 13.6563 83.4228 13.7103C83.0988 14.1243 82.7928 14.4663 82.5408 14.7363C82.2168 15.0603 81.8568 15.3663 81.4428 15.6363C81.2268 15.7803 80.9748 15.9063 80.6868 15.9963C80.6508 16.0143 80.6328 16.0503 80.6328 16.0863C80.6328 16.1223 80.6688 16.1763 80.7588 16.2123C80.9028 16.3563 81.1008 16.5183 81.3348 16.7163C81.3708 16.8063 81.4608 16.8603 81.6048 16.8603C82.2348 16.4823 82.7568 16.1223 83.1888 15.7623C83.5308 15.4563 83.8548 15.1143 84.1608 14.7183C84.2148 14.6643 84.3048 14.6283 84.4488 14.6103C84.5208 14.6103 84.5568 14.5743 84.5568 14.5383C84.5568 14.4663 84.5028 14.3943 84.4308 14.3043L83.5128 13.6203ZM89.2008 13.6203C89.1648 13.6203 89.1108 13.6563 89.0568 13.7283C88.7328 14.1603 88.5708 14.3943 88.5708 14.4663C88.8588 14.6463 89.2368 14.9163 89.6868 15.3123C90.2268 15.7983 90.7488 16.3203 91.2528 16.9323C91.2528 16.9323 91.4328 16.6803 91.7928 16.2123C91.8468 16.1403 91.8828 16.0863 91.8828 16.0863C91.5588 15.7083 91.1628 15.2943 90.7128 14.8263C90.3168 14.4663 89.8128 14.0523 89.2008 13.6203ZM95.1048 1.81233C94.9248 1.81233 94.8348 1.88433 94.8348 2.01033V7.57233C94.8348 7.71633 94.9248 7.78833 95.1048 7.78833H100.451C100.631 7.78833 100.739 7.71633 100.739 7.57233V2.01033C100.739 1.88433 100.631 1.81233 100.451 1.81233H95.1048ZM99.5508 6.72633H96.0228V5.32233H99.5508V6.72633ZM96.0228 4.26033V2.85633H99.5508V4.26033H96.0228ZM93.9168 8.97633C93.8088 8.97633 93.7728 9.04833 93.7728 9.19233V9.75033C93.7728 9.94833 93.8088 10.0383 93.9168 10.0383H97.5708V15.4383C97.2288 15.2763 96.9408 15.0603 96.7248 14.8083C96.4188 14.5203 96.1668 14.0523 95.9508 13.4043C96.0228 12.9543 96.0948 12.4683 96.1668 11.9463C96.1668 11.8023 96.2028 11.7303 96.3108 11.7303C96.4008 11.7303 96.4548 11.6403 96.4548 11.4423C96.4548 11.4063 95.9868 11.2803 95.0508 11.0823C95.0148 11.0823 94.9968 11.1183 94.9968 11.1723C94.9788 11.6223 94.9428 12.0363 94.8888 12.4323C94.7808 13.1703 94.6548 13.8183 94.5108 14.3583C94.3308 15.0063 94.1148 15.5823 93.8808 16.0683C93.7368 16.3563 93.5388 16.6263 93.3228 16.8963C93.2868 16.9323 93.2868 16.9503 93.2868 16.9863C93.2868 17.0583 93.3228 17.1303 93.4128 17.1843C93.5928 17.2923 93.7908 17.4183 94.0068 17.5623C94.0788 17.6523 94.1868 17.7063 94.3308 17.7063C94.3668 17.7063 94.4208 17.6523 94.4928 17.5623C94.7808 17.1123 95.0508 16.5723 95.2848 15.9243C95.3928 15.6363 95.4828 15.3483 95.5728 15.0423C95.6448 15.1683 95.7168 15.2763 95.7888 15.3663C96.1128 15.7983 96.5628 16.1583 97.1568 16.4823C97.5888 16.7343 98.2728 16.9323 99.1908 17.1123C99.9468 17.2203 100.865 17.2743 101.945 17.2743H109.667C109.793 17.2743 109.865 17.2023 109.901 17.0583C109.973 16.7703 110.117 16.3923 110.297 15.9423C110.297 15.8523 110.243 15.7983 110.153 15.7983C107.453 15.9783 104.717 16.0863 101.945 16.0863C100.631 16.0863 99.5688 15.9963 98.7768 15.8523V13.2603H101.153C101.243 13.2603 101.297 13.1703 101.297 12.9903V12.4323C101.297 12.2883 101.243 12.2163 101.153 12.2163H98.7768V10.0383H101.513C101.603 10.0383 101.657 9.94833 101.657 9.75033V9.19233C101.657 9.04833 101.603 8.97633 101.513 8.97633H93.9168ZM101.999 1.81233C101.891 1.81233 101.855 1.88433 101.855 2.01033V2.58633C101.855 2.76633 101.891 2.85633 101.999 2.85633H105.257C105.185 3.12633 105.095 3.36033 105.023 3.54033C104.915 3.77433 104.789 4.04433 104.645 4.33233H102.701C102.521 4.33233 102.431 4.40433 102.431 4.54833V12.8463C102.431 12.9903 102.521 13.0623 102.701 13.0623H104.303C104.015 13.3863 103.763 13.6383 103.511 13.8543C103.223 14.1063 102.899 14.3403 102.521 14.5383C102.341 14.6463 102.107 14.7543 101.837 14.8263C101.801 14.8443 101.801 14.8623 101.801 14.8803C101.801 14.9523 101.837 14.9883 101.909 15.0243C102.071 15.1683 102.269 15.3303 102.503 15.5103C102.539 15.6183 102.629 15.6543 102.773 15.6543C103.349 15.3843 103.817 15.1143 104.195 14.8263C104.519 14.5923 104.807 14.3223 105.095 14.0343C105.131 13.9983 105.221 13.9803 105.347 13.9623C105.419 13.9623 105.455 13.9443 105.455 13.9083C105.455 13.8363 105.401 13.7643 105.311 13.6743L104.483 13.0623H107.111C106.643 13.4223 106.427 13.6563 106.427 13.7643C106.427 13.7823 106.445 13.8183 106.517 13.8723C107.057 14.3763 107.885 14.9163 109.019 15.4743C109.091 15.5103 109.145 15.5103 109.181 15.5103C109.649 15.0423 109.883 14.7723 109.883 14.6823C109.883 14.6463 109.829 14.6103 109.757 14.5383C109.181 14.3223 108.731 14.1243 108.425 13.9443C108.065 13.7283 107.687 13.4223 107.291 13.0623H109.037C109.217 13.0623 109.307 12.9903 109.307 12.8463V4.54833C109.307 4.40433 109.217 4.33233 109.037 4.33233H106.031C106.211 3.86433 106.391 3.37833 106.553 2.85633H109.883C109.973 2.85633 110.027 2.76633 110.027 2.58633V2.01033C110.027 1.88433 109.973 1.81233 109.883 1.81233H101.999ZM108.119 12.0003H103.619V10.5243H108.119V12.0003ZM103.619 9.48033V7.98633H108.119V9.48033H103.619ZM103.619 6.94233V5.39433H108.119V6.94233H103.619Z" fill="#00A19B"/>
<path d="M44.0625 19.4603L41.1757 24.4603L46.9493 24.4603L44.0625 19.4603ZM44.0625 32.9603L46.9493 27.9603L41.1757 27.9603L44.0625 32.9603ZM43.5625 23.9603L43.5625 28.4603L44.5625 28.4603L44.5625 23.9603L43.5625 23.9603Z" fill="#E73525"/>
<path d="M140.914 97.75L145.914 100.637V94.8632L140.914 97.75ZM158.914 97.75L153.914 94.8632V100.637L158.914 97.75ZM145.414 98.25H154.414V97.25H145.414V98.25Z" fill="#E73525"/>
<path d="M142.474 116.988H141.565V110.967L139.744 111.636V110.816L142.332 109.844H142.474V116.988ZM148.665 109.873V110.64H148.499C147.796 110.653 147.236 110.861 146.819 111.265C146.403 111.669 146.162 112.237 146.097 112.969C146.471 112.539 146.982 112.325 147.63 112.325C148.248 112.325 148.742 112.543 149.109 112.979C149.48 113.415 149.666 113.978 149.666 114.668C149.666 115.401 149.466 115.987 149.065 116.426C148.668 116.866 148.134 117.085 147.464 117.085C146.784 117.085 146.232 116.825 145.809 116.304C145.385 115.78 145.174 115.106 145.174 114.283V113.936C145.174 112.627 145.452 111.628 146.009 110.938C146.569 110.245 147.4 109.89 148.504 109.873H148.665ZM147.479 113.077C147.169 113.077 146.884 113.169 146.624 113.355C146.364 113.54 146.183 113.773 146.082 114.053V114.385C146.082 114.971 146.214 115.443 146.478 115.801C146.741 116.159 147.07 116.338 147.464 116.338C147.871 116.338 148.19 116.189 148.421 115.889C148.655 115.59 148.772 115.197 148.772 114.712C148.772 114.224 148.654 113.83 148.416 113.531C148.182 113.228 147.869 113.077 147.479 113.077ZM155.291 114.405C155.291 115.209 155.107 115.856 154.739 116.348C154.371 116.84 153.873 117.085 153.245 117.085C152.604 117.085 152.099 116.882 151.731 116.475V119.019H150.828V111.704H151.653L151.697 112.29C152.065 111.835 152.576 111.607 153.23 111.607C153.865 111.607 154.367 111.846 154.734 112.325C155.105 112.803 155.291 113.469 155.291 114.322V114.405ZM154.388 114.302C154.388 113.706 154.261 113.236 154.007 112.891C153.753 112.546 153.405 112.373 152.962 112.373C152.415 112.373 152.005 112.616 151.731 113.101V115.625C152.002 116.107 152.415 116.348 152.972 116.348C153.405 116.348 153.748 116.177 154.002 115.835C154.259 115.49 154.388 114.979 154.388 114.302ZM158.138 113.633L159.31 111.704H160.364L158.636 114.317L160.418 116.988H159.373L158.152 115.01L156.932 116.988H155.882L157.664 114.317L155.936 111.704H156.98L158.138 113.633Z" fill="black"/>
<path d="M4.55957 45H3.65137V38.9795L1.83008 39.6484V38.8281L4.41797 37.8564H4.55957V45ZM10.751 37.8857V38.6523H10.585C9.88184 38.6654 9.32194 38.8737 8.90527 39.2773C8.48861 39.681 8.24772 40.249 8.18262 40.9814C8.55697 40.5518 9.06803 40.3369 9.71582 40.3369C10.3343 40.3369 10.8275 40.555 11.1953 40.9912C11.5664 41.4274 11.752 41.9906 11.752 42.6807C11.752 43.4131 11.5518 43.999 11.1514 44.4385C10.7542 44.8779 10.2204 45.0977 9.5498 45.0977C8.86947 45.0977 8.31771 44.8372 7.89453 44.3164C7.47135 43.7923 7.25977 43.1185 7.25977 42.2949V41.9482C7.25977 40.6396 7.53809 39.6403 8.09473 38.9502C8.65462 38.2568 9.48633 37.902 10.5898 37.8857H10.751ZM9.56445 41.0889C9.25521 41.0889 8.97038 41.1816 8.70996 41.3672C8.44954 41.5527 8.26888 41.7855 8.16797 42.0654V42.3975C8.16797 42.9834 8.2998 43.4554 8.56348 43.8135C8.82715 44.1715 9.15592 44.3506 9.5498 44.3506C9.95671 44.3506 10.2757 44.2008 10.5068 43.9014C10.7412 43.6019 10.8584 43.2096 10.8584 42.7246C10.8584 42.2363 10.7396 41.8424 10.502 41.543C10.2676 41.2402 9.95508 41.0889 9.56445 41.0889ZM17.377 42.417C17.377 43.221 17.193 43.8688 16.8252 44.3604C16.4574 44.8519 15.9593 45.0977 15.3311 45.0977C14.6898 45.0977 14.1852 44.8942 13.8174 44.4873V47.0312H12.9141V39.7168H13.7393L13.7832 40.3027C14.151 39.847 14.6621 39.6191 15.3164 39.6191C15.9512 39.6191 16.4525 39.8584 16.8203 40.3369C17.1914 40.8154 17.377 41.4811 17.377 42.334V42.417ZM16.4736 42.3145C16.4736 41.7188 16.3467 41.2484 16.0928 40.9033C15.8389 40.5583 15.4906 40.3857 15.0479 40.3857C14.501 40.3857 14.0908 40.6283 13.8174 41.1133V43.6377C14.0876 44.1195 14.501 44.3604 15.0576 44.3604C15.4906 44.3604 15.834 44.1895 16.0879 43.8477C16.3451 43.5026 16.4736 42.9915 16.4736 42.3145ZM20.2236 41.6455L21.3955 39.7168H22.4502L20.7217 42.3291L22.5039 45H21.459L20.2383 43.0225L19.0176 45H17.9678L19.75 42.3291L18.0215 39.7168H19.0664L20.2236 41.6455Z" fill="black"/>
<path d="M31.4062 33L28.5195 38L34.293 38L31.4062 33ZM31.4062 51L34.293 46L28.5195 46L31.4062 51ZM30.9062 37.5L30.9062 46.5L31.9062 46.5L31.9062 37.5L30.9062 37.5Z" fill="#E73525"/>
<path d="M228.875 33L225.988 38L231.762 38L228.875 33ZM228.875 82.375L231.762 77.375L225.988 77.375L228.875 82.375ZM228.375 37.5L228.375 77.875L229.375 77.875L229.375 37.5L228.375 37.5Z" fill="#E73525"/>
<path d="M234.752 58.623L235.113 55.0781H238.756V55.9131H235.88L235.665 57.8516C236.013 57.6465 236.409 57.5439 236.852 57.5439C237.499 57.5439 238.014 57.7588 238.395 58.1885C238.775 58.6149 238.966 59.1927 238.966 59.9219C238.966 60.6543 238.767 61.2321 238.37 61.6553C237.976 62.0752 237.424 62.2852 236.715 62.2852C236.087 62.2852 235.574 62.111 235.177 61.7627C234.78 61.4144 234.553 60.9326 234.498 60.3174H235.353C235.408 60.7243 235.553 61.0319 235.787 61.2402C236.021 61.4453 236.331 61.5479 236.715 61.5479C237.135 61.5479 237.464 61.4046 237.701 61.1182C237.942 60.8317 238.062 60.4362 238.062 59.9316C238.062 59.4564 237.932 59.0755 237.672 58.7891C237.415 58.4993 237.071 58.3545 236.642 58.3545C236.248 58.3545 235.938 58.4408 235.714 58.6133L235.475 58.8086L234.752 58.623ZM244.41 59.1553C244.41 60.2132 244.229 60.9993 243.868 61.5137C243.507 62.028 242.942 62.2852 242.174 62.2852C241.415 62.2852 240.854 62.0345 240.489 61.5332C240.125 61.0286 239.936 60.2767 239.923 59.2773V58.0713C239.923 57.0264 240.104 56.25 240.465 55.7422C240.826 55.2344 241.393 54.9805 242.164 54.9805C242.929 54.9805 243.492 55.2262 243.854 55.7178C244.215 56.2061 244.4 56.9613 244.41 57.9834V59.1553ZM243.507 57.9199C243.507 57.1549 243.399 56.5983 243.185 56.25C242.97 55.8984 242.63 55.7227 242.164 55.7227C241.702 55.7227 241.365 55.8968 241.153 56.2451C240.942 56.5934 240.833 57.1289 240.826 57.8516V59.2969C240.826 60.0651 240.937 60.6331 241.158 61.001C241.383 61.3656 241.721 61.5479 242.174 61.5479C242.62 61.5479 242.95 61.3753 243.165 61.0303C243.383 60.6852 243.497 60.1416 243.507 59.3994V57.9199ZM250.123 59.6045C250.123 60.4085 249.939 61.0563 249.571 61.5479C249.203 62.0394 248.705 62.2852 248.077 62.2852C247.436 62.2852 246.931 62.0817 246.563 61.6748V64.2188H245.66V56.9043H246.485L246.529 57.4902C246.897 57.0345 247.408 56.8066 248.062 56.8066C248.697 56.8066 249.199 57.0459 249.566 57.5244C249.938 58.0029 250.123 58.6686 250.123 59.5215V59.6045ZM249.22 59.502C249.22 58.9062 249.093 58.4359 248.839 58.0908C248.585 57.7458 248.237 57.5732 247.794 57.5732C247.247 57.5732 246.837 57.8158 246.563 58.3008V60.8252C246.834 61.307 247.247 61.5479 247.804 61.5479C248.237 61.5479 248.58 61.377 248.834 61.0352C249.091 60.6901 249.22 60.179 249.22 59.502ZM252.97 58.833L254.142 56.9043H255.196L253.468 59.5166L255.25 62.1875H254.205L252.984 60.21L251.764 62.1875H250.714L252.496 59.5166L250.768 56.9043H251.812L252.97 58.833Z" fill="black"/>
<path d="M82.3941 55.3495V57.0695H89.9741C89.7741 58.5495 89.3541 59.8895 88.7341 61.0495C88.1341 62.1695 87.0941 63.2695 85.5941 64.3495C84.6541 65.0695 83.3541 65.8095 81.6941 66.6095L83.3341 68.0895C84.9341 67.2495 86.3141 66.3495 87.4941 65.3495C89.1141 64.0295 90.2341 62.6495 90.8541 61.2295C91.0341 60.7895 91.1941 60.3295 91.3541 59.8095C91.9541 61.3695 92.6741 62.6695 93.4741 63.7295C94.8341 65.5895 96.5341 67.0295 98.5541 68.0895L100.194 66.2095C97.8341 65.1895 96.0941 63.9695 94.9541 62.5295C93.7141 61.1895 92.7341 59.3695 92.0141 57.0695H99.4941V55.3495H91.9741C91.9741 55.2095 91.9941 55.0495 91.9941 54.8895V51.1295C92.3141 50.9295 92.4741 50.7295 92.4741 50.5095C92.4741 50.3695 92.2941 50.2895 91.9541 50.2695L89.9741 50.1095C90.0541 50.7095 90.1141 51.2095 90.1141 51.6095V54.8895C90.1141 55.0495 90.0941 55.1895 90.0941 55.3495H82.3941ZM101.754 53.0095V54.7295H104.334V59.1895C103.414 59.5895 102.474 59.9495 101.534 60.2695L102.174 62.0495C102.254 62.2895 102.354 62.3895 102.474 62.3895C102.634 62.3895 102.814 62.1895 103.014 61.7495L104.334 61.0495V65.7495C104.294 66.3295 104.034 66.6095 103.574 66.6095H102.234L102.934 68.3295C104.274 68.3295 105.114 68.1295 105.454 67.7495C105.854 67.3895 106.054 66.8095 106.054 66.0495V60.1495L108.334 58.9495V57.2295C107.574 57.6495 106.814 58.0295 106.054 58.3895V54.7295H108.334V53.0095H106.054V50.8895C106.374 50.7295 106.534 50.5695 106.534 50.4295C106.534 50.3095 106.414 50.2295 106.214 50.1895L104.334 49.9695V53.0095H101.754ZM113.554 49.9695V52.4695H109.034V56.3695H110.754V54.0295H118.174V56.3695H119.894V52.4695H115.354V50.8295C115.554 50.6095 115.674 50.4495 115.674 50.3495C115.674 50.2095 115.514 50.1295 115.194 50.0895L113.554 49.9695ZM113.414 54.5695C113.054 55.5295 112.654 56.4695 112.214 57.3895H108.714V58.9495H111.474C111.474 58.9495 111.454 58.9695 111.454 58.9895C110.714 60.5095 109.754 62.1295 108.554 63.8695L110.274 64.4895C110.474 64.1695 110.694 63.8495 110.914 63.5095C111.714 63.7895 112.454 64.0895 113.174 64.4095C112.634 64.8095 112.014 65.1495 111.314 65.4495C110.514 65.8495 109.334 66.2495 107.774 66.6895L109.254 68.2495C110.894 67.6095 112.214 67.0095 113.254 66.4495C113.834 66.1095 114.374 65.7295 114.874 65.3095C114.894 65.3295 114.934 65.3495 114.974 65.3695C116.054 66.0495 117.274 67.0095 118.634 68.2495L119.974 66.9095C118.854 65.9495 117.694 65.0695 116.454 64.2895C116.334 64.2295 116.194 64.1495 116.074 64.0695C116.534 63.4695 116.934 62.8295 117.254 62.1095C117.654 61.3295 117.974 60.2695 118.174 58.9495H120.194V57.3895H114.154C114.354 56.9095 114.574 56.4095 114.814 55.8895C115.114 55.7095 115.274 55.5495 115.274 55.4295C115.274 55.3495 115.174 55.2695 115.014 55.2295L113.414 54.5695ZM116.434 58.9495C116.194 59.9895 115.914 60.8495 115.594 61.4895C115.294 62.1295 114.934 62.7095 114.494 63.2295C113.614 62.8295 112.694 62.4695 111.734 62.1495C112.294 61.1695 112.854 60.1095 113.414 58.9495H116.434ZM126.214 49.9695C125.514 51.0695 124.814 51.9895 124.114 52.7095C123.354 53.5295 122.454 54.3295 121.374 55.1095L122.614 56.3695C122.814 56.2095 123.014 56.0495 123.254 55.8495V57.3095H125.514V59.2495H122.314V60.8295H125.514V65.8695C124.414 66.0495 123.294 66.1895 122.154 66.2895L122.574 68.0295C122.574 68.2295 122.654 68.3295 122.774 68.3295C122.894 68.3295 123.034 68.2095 123.174 68.0095C126.334 67.3895 128.634 66.8895 130.114 66.5295V65.0295C129.134 65.2495 128.154 65.4495 127.154 65.6095V60.8295H129.814V59.2495H127.154V57.3095H129.254V55.7495H123.374C124.034 55.2095 124.634 54.6895 125.154 54.1895C125.594 53.7495 126.094 53.2095 126.614 52.5695C127.534 53.7895 128.614 54.8695 129.894 55.8295L131.294 54.3295C129.814 53.5895 128.554 52.6295 127.514 51.4295C127.514 51.4295 127.534 51.4095 127.554 51.3695C127.854 51.2695 128.014 51.1095 128.014 50.8895C128.014 50.8095 127.914 50.7295 127.754 50.6495L126.214 49.9695ZM123.714 61.9095L122.234 62.6095C122.694 63.5295 123.114 64.4495 123.474 65.3495L124.894 64.5695C124.534 63.7095 124.154 62.8295 123.714 61.9095ZM128.714 61.6095L127.774 64.1895L129.114 64.8095L129.974 62.9295C130.174 62.8295 130.274 62.6895 130.274 62.5295C130.274 62.4495 130.174 62.3695 129.994 62.2695L128.714 61.6095ZM130.974 51.4495V52.9295H133.034L132.634 58.0895H130.434V59.6495H132.514L132.054 65.8895H130.434V67.5295H139.654V65.8895H137.894L138.214 59.6495H139.494V58.0895H138.294L138.634 51.4495H130.974ZM133.694 65.8895L134.174 59.6495H136.574L136.254 65.8895H133.694ZM134.674 52.9295H136.914L136.654 58.0895H134.294L134.674 52.9295Z" fill="#00A19B"/>
<path d="M156.914 56.5L165.399 64.9853L173.885 56.5" stroke="#00A19B"/>
<rect x="39.8984" y="33.5" width="175" height="52" rx="3.5" stroke="#00A19B"/>
</svg>
