<svg width="176" height="50" viewBox="0 0 176 50" fill="none" xmlns="http://www.w3.org/2000/svg">
<path d="M140.971 22.5027L148.971 30.5027L156.971 22.5027" stroke="#00A19B"/>
<path d="M30.9778 18.0181H33.3718V19.4941H30.9778V18.0181ZM30.9778 20.3401H34.2898C34.4698 20.3401 34.5778 20.2681 34.5778 20.1241V17.3881C34.5778 17.2441 34.4698 17.1721 34.2898 17.1721H30.1498C29.9518 17.1721 29.8618 17.2441 29.8618 17.3881V21.7441C29.8618 22.4461 30.3298 22.7881 31.2658 22.7881H33.7318C34.1998 22.7881 34.4878 22.6801 34.5958 22.4641C34.7038 22.3381 34.8118 22.0681 34.9198 21.6721C34.9198 21.5281 34.8478 21.4381 34.7398 21.4021C34.4878 21.3301 34.1998 21.1681 33.8758 20.8981C33.8218 21.2041 33.7678 21.4021 33.7318 21.4921C33.6958 21.6721 33.5698 21.7441 33.3718 21.7441H31.8958C31.2838 21.7441 30.9778 21.4921 30.9778 20.9701V20.3401ZM37.0258 18.0181H39.4918V19.4941H37.0258V18.0181ZM37.0258 20.3401H40.4098C40.5898 20.3401 40.6798 20.2681 40.6798 20.1241V17.3881C40.6798 17.2441 40.5898 17.1721 40.4098 17.1721H36.1798C35.9998 17.1721 35.9098 17.2441 35.9098 17.3881V21.8161C35.9098 22.5181 36.3778 22.8601 37.3138 22.8601H39.8518C40.4278 22.8601 40.7698 22.7521 40.9138 22.5181C41.0578 22.3741 41.1838 22.0861 41.3278 21.6721C41.3278 21.5281 41.2558 21.4381 41.1298 21.4021C40.8778 21.3301 40.5898 21.1681 40.2658 20.8981C40.1938 21.2221 40.1218 21.4381 40.0498 21.5281C39.9778 21.7261 39.7978 21.8161 39.4918 21.8161H37.9438C37.3318 21.8161 37.0258 21.5641 37.0258 21.0421V20.3401ZM30.4918 24.6241C30.3838 24.6241 30.3478 24.6961 30.3478 24.8401V25.3981C30.3478 25.5781 30.3838 25.6681 30.4918 25.6681H32.7418V27.2161H29.7898C29.6818 27.2161 29.6458 27.2881 29.6458 27.4321V27.9901C29.6458 28.1881 29.6818 28.2781 29.7898 28.2781H33.2098C32.7778 28.8001 32.3278 29.2141 31.8958 29.5201C31.5358 29.7721 31.1398 30.0241 30.6718 30.2401C30.5998 30.2761 30.5638 30.3121 30.5638 30.3841C30.5638 30.4561 30.5998 30.5281 30.6718 30.6001C30.8518 30.7621 30.9778 30.9241 31.0678 31.0681C31.1038 31.1761 31.1938 31.2301 31.3378 31.2301C32.1838 30.7621 33.0118 30.1681 33.8038 29.4121C33.8218 29.3581 33.9478 29.3221 34.1638 29.3221C34.2898 29.3221 34.3618 29.2861 34.3618 29.1961C34.3618 29.1241 34.0558 28.8181 33.4618 28.2781H40.8958C40.9858 28.2781 41.0398 28.1881 41.0398 27.9901V27.4321C41.0398 27.2881 40.9858 27.2161 40.8958 27.2161H37.7278V25.6681H40.3378C40.4278 25.6681 40.4818 25.5781 40.4818 25.3981V24.8401C40.4818 24.6961 40.4278 24.6241 40.3378 24.6241H37.7278V24.1921C37.7278 23.9941 37.7638 23.8861 37.8718 23.8681C37.9618 23.8681 38.0158 23.7781 38.0158 23.6341C38.0158 23.4901 37.5838 23.4181 36.7558 23.4181C36.6118 23.4181 36.5398 23.4721 36.5398 23.5621V24.6241H33.9298V24.1921C33.9298 23.9941 33.9658 23.8861 34.0738 23.8681C34.1638 23.8681 34.2178 23.7781 34.2178 23.6341C34.2178 23.4901 33.7858 23.4181 32.9578 23.4181C32.8138 23.4181 32.7418 23.4721 32.7418 23.5621V24.6241H30.4918ZM33.9298 27.2161V25.6681H36.5398V27.2161H33.9298ZM37.2418 28.3501C36.7198 28.7821 36.4678 29.0341 36.4678 29.1241C36.4678 29.1421 36.4858 29.1781 36.5578 29.2501C37.1518 29.8621 38.0698 30.5101 39.3298 31.1941C39.4018 31.2301 39.4558 31.2301 39.4918 31.2301C39.9598 30.7621 40.1938 30.4921 40.1938 30.3841C40.1938 30.3481 40.1398 30.2941 40.0678 30.2221C39.4198 29.9701 38.9158 29.7181 38.5918 29.4841C38.1598 29.1961 37.7098 28.8181 37.2418 28.3501ZM26.5498 16.9561C26.5138 16.9561 26.4598 17.0101 26.4058 17.0821C26.0278 17.5501 25.8478 17.8201 25.8478 17.8741C26.1358 17.9821 26.4778 18.1801 26.9098 18.4501C27.4138 18.7921 27.9178 19.1701 28.3858 19.5661C28.3858 19.5661 28.5658 19.3141 28.9258 18.7921C28.9798 18.7201 29.0158 18.6661 29.0158 18.6481C28.7098 18.3961 28.3498 18.1081 27.9358 17.7841C27.5758 17.5321 27.1078 17.2621 26.5498 16.9561ZM25.9198 21.1681C25.8838 21.1681 25.8298 21.2221 25.7758 21.2941C25.3978 21.7621 25.2178 22.0321 25.2178 22.0861C25.5058 22.1761 25.9018 22.3201 26.3698 22.5181C26.9098 22.7701 27.4498 23.0581 27.9538 23.3641C27.9718 23.3641 28.1518 23.1121 28.5118 22.5901C28.5658 22.5181 28.6018 22.4641 28.6018 22.4461C28.2778 22.2661 27.8818 22.0501 27.4318 21.7981C27.0358 21.6181 26.5318 21.4021 25.9198 21.1681ZM25.3618 25.3261C25.2178 25.3261 25.1458 25.4341 25.1458 25.6141V26.1721C25.1458 26.3521 25.2178 26.4421 25.3618 26.4421H27.5398V29.5381C27.5398 29.7541 27.5038 29.8981 27.4678 29.9521C26.6218 30.8161 25.9198 31.3921 25.3618 31.7161C25.3618 31.8601 25.3798 31.9681 25.4338 32.0761C25.8118 32.6881 26.0458 32.9941 26.1358 32.9941C26.1718 32.9941 26.2258 32.9401 26.2618 32.8681C26.3338 32.5261 26.8378 31.8601 27.7738 30.8521C27.7738 30.8341 27.8278 30.8161 27.8998 30.8161L27.9538 30.9061C28.1698 31.4101 28.3858 31.7881 28.5838 32.0041C28.8718 32.2561 29.1778 32.4721 29.5198 32.6161C29.8798 32.7601 30.2758 32.8681 30.6718 32.9581C31.0678 33.0301 31.4638 33.0661 31.8958 33.0661H40.6258C40.7878 33.0661 40.8778 32.9581 40.9138 32.7601C40.9858 32.2561 41.1118 31.7701 41.2558 31.3021C41.2558 31.2661 41.2018 31.2301 41.1118 31.2301C41.0218 31.2301 40.9318 31.2481 40.8418 31.2841C38.8618 31.6081 37.1338 31.7881 35.6578 31.7881H31.8958C31.3198 31.7881 30.8158 31.7341 30.3478 31.6621C29.9878 31.5901 29.6818 31.4461 29.4298 31.2661C29.2318 31.1401 29.0878 30.9421 28.9978 30.6721C28.8718 30.4201 28.7998 30.0421 28.7998 29.5381V25.5421C28.7998 25.3981 28.7098 25.3261 28.5298 25.3261H25.3618ZM43.3618 18.7201C43.2178 18.7201 43.1458 18.8101 43.1458 18.9901V19.5661C43.1458 19.7461 43.2178 19.8361 43.3618 19.8361H45.6838V27.9001C44.5318 28.2961 43.5418 28.5841 42.7318 28.7641C43.0918 29.7541 43.3258 30.2401 43.4338 30.2401C43.5418 30.2401 43.6678 30.0781 43.8478 29.7541C45.6298 29.1421 47.3938 28.4761 49.1218 27.7201C49.1578 27.6661 49.1938 27.3421 49.1938 26.7301C49.1938 26.6401 49.1398 26.5861 49.0498 26.5861C49.0138 26.5861 48.9778 26.6041 48.9418 26.6401C48.2938 26.9281 47.6278 27.1981 46.9438 27.4501V19.8361H48.9238C49.0498 19.8361 49.1218 19.7461 49.1218 19.5661V18.9901C49.1218 18.8101 49.0498 18.7201 48.9238 18.7201H43.3618ZM49.8238 17.2441C49.6798 17.2441 49.6258 17.3341 49.6258 17.5141V18.0901C49.6258 18.2701 49.6798 18.3601 49.8238 18.3601H53.5678C53.4418 18.7561 53.3158 19.0801 53.2078 19.3321C53.0638 19.6561 52.8838 20.0341 52.6678 20.4661H50.2558C50.0578 20.4661 49.9678 20.5381 49.9678 20.6821V29.7541C49.9678 29.8981 50.0578 29.9701 50.2558 29.9701H51.8758C51.5518 30.2941 51.2638 30.5821 50.9938 30.7981C50.5978 31.1581 50.1298 31.4461 49.5898 31.7341C49.3378 31.8781 49.0138 32.0221 48.6358 32.1301C48.5818 32.1481 48.5638 32.1841 48.5638 32.2201C48.5638 32.2561 48.5998 32.3101 48.6898 32.3461C48.8698 32.4901 49.0678 32.6521 49.3198 32.8501C49.3558 32.9401 49.4638 32.9941 49.6258 32.9941C50.4178 32.5981 51.0658 32.2201 51.6058 31.8601C52.0378 31.5361 52.4518 31.1761 52.8478 30.7801C52.9198 30.7261 53.0278 30.6901 53.1898 30.6721C53.2978 30.6721 53.3518 30.6361 53.3518 30.6001C53.3518 30.5281 53.2978 30.4561 53.2078 30.3481L52.7038 29.9701H56.0518C55.6558 30.4381 55.4578 30.6721 55.4578 30.6721C56.5378 31.6081 57.5998 32.3821 58.6798 32.9941C58.7338 32.9941 58.9318 32.7061 59.2738 32.1661C59.3458 32.0581 59.3998 31.9861 59.3998 31.9321C58.4278 31.4101 57.4738 30.7621 56.5558 29.9701H58.2658C58.4458 29.9701 58.5538 29.8981 58.5538 29.7541V20.6821C58.5538 20.5381 58.4458 20.4661 58.2658 20.4661H54.0538C54.3418 19.8001 54.6118 19.0981 54.8638 18.3601H58.9678C59.1118 18.3601 59.1838 18.2701 59.1838 18.0901V17.5141C59.1838 17.3341 59.1118 17.2441 58.9678 17.2441H49.8238ZM57.2758 28.8361H51.2278V27.2161H57.2758V28.8361ZM51.2278 26.1001V24.4081H57.2758V26.1001H51.2278ZM51.2278 23.2921V21.6001H57.2758V23.2921H51.2278ZM61.2898 23.8501C61.1458 23.8501 61.0738 23.9761 61.0738 24.1921V24.9121C61.0738 25.1461 61.1458 25.2541 61.2898 25.2541H77.0398C77.1838 25.2541 77.2558 25.1461 77.2558 24.9121V24.1921C77.2558 23.9761 77.1838 23.8501 77.0398 23.8501H61.2898Z" fill="#1C1C1C"/>
<rect x="0.5" y="0.5" width="175" height="49" rx="3.5" stroke="#00A19B"/>
</svg>
