<svg width="176" height="151" viewBox="0 0 176 151" fill="none" xmlns="http://www.w3.org/2000/svg">
<path d="M1.54688 50.1421H174.545V99.1421H1.54688V50.1421Z" fill="#3CBAAD" stroke="#3CBAAD"/>
<path d="M31.3489 118.018H33.7429V119.494H31.3489V118.018ZM31.3489 120.34H34.6609C34.8409 120.34 34.9489 120.268 34.9489 120.124V117.388C34.9489 117.244 34.8409 117.172 34.6609 117.172H30.5209C30.3229 117.172 30.2329 117.244 30.2329 117.388V121.744C30.2329 122.446 30.7009 122.788 31.6369 122.788H34.1029C34.5709 122.788 34.8589 122.68 34.9669 122.464C35.0749 122.338 35.1829 122.068 35.2909 121.672C35.2909 121.528 35.2189 121.438 35.1109 121.402C34.8589 121.33 34.5709 121.168 34.2469 120.898C34.1929 121.204 34.1389 121.402 34.1029 121.492C34.0669 121.672 33.9409 121.744 33.7429 121.744H32.2669C31.6549 121.744 31.3489 121.492 31.3489 120.97V120.34ZM37.3969 118.018H39.8629V119.494H37.3969V118.018ZM37.3969 120.34H40.7809C40.9609 120.34 41.0509 120.268 41.0509 120.124V117.388C41.0509 117.244 40.9609 117.172 40.7809 117.172H36.5509C36.3709 117.172 36.2809 117.244 36.2809 117.388V121.816C36.2809 122.518 36.7489 122.86 37.6849 122.86H40.2229C40.7989 122.86 41.1409 122.752 41.2849 122.518C41.4289 122.374 41.5549 122.086 41.6989 121.672C41.6989 121.528 41.6269 121.438 41.5009 121.402C41.2489 121.33 40.9609 121.168 40.6369 120.898C40.5649 121.222 40.4929 121.438 40.4209 121.528C40.3489 121.726 40.1689 121.816 39.8629 121.816H38.3149C37.7029 121.816 37.3969 121.564 37.3969 121.042V120.34ZM30.8629 124.624C30.7549 124.624 30.7189 124.696 30.7189 124.84V125.398C30.7189 125.578 30.7549 125.668 30.8629 125.668H33.1129V127.216H30.1609C30.0529 127.216 30.0169 127.288 30.0169 127.432V127.99C30.0169 128.188 30.0529 128.278 30.1609 128.278H33.5809C33.1489 128.8 32.6989 129.214 32.2669 129.52C31.9069 129.772 31.5109 130.024 31.0429 130.24C30.9709 130.276 30.9349 130.312 30.9349 130.384C30.9349 130.456 30.9709 130.528 31.0429 130.6C31.2229 130.762 31.3489 130.924 31.4389 131.068C31.4749 131.176 31.5649 131.23 31.7089 131.23C32.5549 130.762 33.3829 130.168 34.1749 129.412C34.1929 129.358 34.3189 129.322 34.5349 129.322C34.6609 129.322 34.7329 129.286 34.7329 129.196C34.7329 129.124 34.4269 128.818 33.8329 128.278H41.2669C41.3569 128.278 41.4109 128.188 41.4109 127.99V127.432C41.4109 127.288 41.3569 127.216 41.2669 127.216H38.0989V125.668H40.7089C40.7989 125.668 40.8529 125.578 40.8529 125.398V124.84C40.8529 124.696 40.7989 124.624 40.7089 124.624H38.0989V124.192C38.0989 123.994 38.1349 123.886 38.2429 123.868C38.3329 123.868 38.3869 123.778 38.3869 123.634C38.3869 123.49 37.9549 123.418 37.1269 123.418C36.9829 123.418 36.9109 123.472 36.9109 123.562V124.624H34.3009V124.192C34.3009 123.994 34.3369 123.886 34.4449 123.868C34.5349 123.868 34.5889 123.778 34.5889 123.634C34.5889 123.49 34.1569 123.418 33.3289 123.418C33.1849 123.418 33.1129 123.472 33.1129 123.562V124.624H30.8629ZM34.3009 127.216V125.668H36.9109V127.216H34.3009ZM37.6129 128.35C37.0909 128.782 36.8389 129.034 36.8389 129.124C36.8389 129.142 36.8569 129.178 36.9289 129.25C37.5229 129.862 38.4409 130.51 39.7009 131.194C39.7729 131.23 39.8269 131.23 39.8629 131.23C40.3309 130.762 40.5649 130.492 40.5649 130.384C40.5649 130.348 40.5109 130.294 40.4389 130.222C39.7909 129.97 39.2869 129.718 38.9629 129.484C38.5309 129.196 38.0809 128.818 37.6129 128.35ZM26.9209 116.956C26.8849 116.956 26.8309 117.01 26.7769 117.082C26.3989 117.55 26.2189 117.82 26.2189 117.874C26.5069 117.982 26.8489 118.18 27.2809 118.45C27.7849 118.792 28.2889 119.17 28.7569 119.566C28.7569 119.566 28.9369 119.314 29.2969 118.792C29.3509 118.72 29.3869 118.666 29.3869 118.648C29.0809 118.396 28.7209 118.108 28.3069 117.784C27.9469 117.532 27.4789 117.262 26.9209 116.956ZM26.2909 121.168C26.2549 121.168 26.2009 121.222 26.1469 121.294C25.7689 121.762 25.5889 122.032 25.5889 122.086C25.8769 122.176 26.2729 122.32 26.7409 122.518C27.2809 122.77 27.8209 123.058 28.3249 123.364C28.3429 123.364 28.5229 123.112 28.8829 122.59C28.9369 122.518 28.9729 122.464 28.9729 122.446C28.6489 122.266 28.2529 122.05 27.8029 121.798C27.4069 121.618 26.9029 121.402 26.2909 121.168ZM25.7329 125.326C25.5889 125.326 25.5169 125.434 25.5169 125.614V126.172C25.5169 126.352 25.5889 126.442 25.7329 126.442H27.9109V129.538C27.9109 129.754 27.8749 129.898 27.8389 129.952C26.9929 130.816 26.2909 131.392 25.7329 131.716C25.7329 131.86 25.7509 131.968 25.8049 132.076C26.1829 132.688 26.4169 132.994 26.5069 132.994C26.5429 132.994 26.5969 132.94 26.6329 132.868C26.7049 132.526 27.2089 131.86 28.1449 130.852C28.1449 130.834 28.1989 130.816 28.2709 130.816L28.3249 130.906C28.5409 131.41 28.7569 131.788 28.9549 132.004C29.2429 132.256 29.5489 132.472 29.8909 132.616C30.2509 132.76 30.6469 132.868 31.0429 132.958C31.4389 133.03 31.8349 133.066 32.2669 133.066H40.9969C41.1589 133.066 41.2489 132.958 41.2849 132.76C41.3569 132.256 41.4829 131.77 41.6269 131.302C41.6269 131.266 41.5729 131.23 41.4829 131.23C41.3929 131.23 41.3029 131.248 41.2129 131.284C39.2329 131.608 37.5049 131.788 36.0289 131.788H32.2669C31.6909 131.788 31.1869 131.734 30.7189 131.662C30.3589 131.59 30.0529 131.446 29.8009 131.266C29.6029 131.14 29.4589 130.942 29.3689 130.672C29.2429 130.42 29.1709 130.042 29.1709 129.538V125.542C29.1709 125.398 29.0809 125.326 28.9009 125.326H25.7329ZM43.7329 118.72C43.5889 118.72 43.5169 118.81 43.5169 118.99V119.566C43.5169 119.746 43.5889 119.836 43.7329 119.836H46.0549V127.9C44.9029 128.296 43.9129 128.584 43.1029 128.764C43.4629 129.754 43.6969 130.24 43.8049 130.24C43.9129 130.24 44.0389 130.078 44.2189 129.754C46.0009 129.142 47.7649 128.476 49.4929 127.72C49.5289 127.666 49.5649 127.342 49.5649 126.73C49.5649 126.64 49.5109 126.586 49.4209 126.586C49.3849 126.586 49.3489 126.604 49.3129 126.64C48.6649 126.928 47.9989 127.198 47.3149 127.45V119.836H49.2949C49.4209 119.836 49.4929 119.746 49.4929 119.566V118.99C49.4929 118.81 49.4209 118.72 49.2949 118.72H43.7329ZM50.1949 117.244C50.0509 117.244 49.9969 117.334 49.9969 117.514V118.09C49.9969 118.27 50.0509 118.36 50.1949 118.36H53.9389C53.8129 118.756 53.6869 119.08 53.5789 119.332C53.4349 119.656 53.2549 120.034 53.0389 120.466H50.6269C50.4289 120.466 50.3389 120.538 50.3389 120.682V129.754C50.3389 129.898 50.4289 129.97 50.6269 129.97H52.2469C51.9229 130.294 51.6349 130.582 51.3649 130.798C50.9689 131.158 50.5009 131.446 49.9609 131.734C49.7089 131.878 49.3849 132.022 49.0069 132.13C48.9529 132.148 48.9349 132.184 48.9349 132.22C48.9349 132.256 48.9709 132.31 49.0609 132.346C49.2409 132.49 49.4389 132.652 49.6909 132.85C49.7269 132.94 49.8349 132.994 49.9969 132.994C50.7889 132.598 51.4369 132.22 51.9769 131.86C52.4089 131.536 52.8229 131.176 53.2189 130.78C53.2909 130.726 53.3989 130.69 53.5609 130.672C53.6689 130.672 53.7229 130.636 53.7229 130.6C53.7229 130.528 53.6689 130.456 53.5789 130.348L53.0749 129.97H56.4229C56.0269 130.438 55.8289 130.672 55.8289 130.672C56.9089 131.608 57.9709 132.382 59.0509 132.994C59.1049 132.994 59.3029 132.706 59.6449 132.166C59.7169 132.058 59.7709 131.986 59.7709 131.932C58.7989 131.41 57.8449 130.762 56.9269 129.97H58.6369C58.8169 129.97 58.9249 129.898 58.9249 129.754V120.682C58.9249 120.538 58.8169 120.466 58.6369 120.466H54.4249C54.7129 119.8 54.9829 119.098 55.2349 118.36H59.3389C59.4829 118.36 59.5549 118.27 59.5549 118.09V117.514C59.5549 117.334 59.4829 117.244 59.3389 117.244H50.1949ZM57.6469 128.836H51.5989V127.216H57.6469V128.836ZM51.5989 126.1V124.408H57.6469V126.1H51.5989ZM51.5989 123.292V121.6H57.6469V123.292H51.5989ZM63.4249 119.062C63.2809 119.062 63.2089 119.17 63.2089 119.35V120.052C63.2089 120.304 63.2809 120.412 63.4249 120.412H75.6469C75.7909 120.412 75.8629 120.304 75.8629 120.052V119.35C75.8629 119.17 75.7909 119.062 75.6469 119.062H63.4249ZM61.7329 129.412C61.5889 129.412 61.5169 129.502 61.5169 129.682V130.384C61.5169 130.636 61.5889 130.744 61.7329 130.744H77.3389C77.4829 130.744 77.5549 130.636 77.5549 130.384V129.682C77.5549 129.502 77.4829 129.412 77.3389 129.412H61.7329Z" fill="#1C1C1C"/>
<path d="M26.2909 16.7691C26.1829 16.7691 26.1469 16.8411 26.1469 16.9671V17.5431C26.1469 17.7231 26.1829 17.8131 26.2909 17.8131H30.9349C31.0249 17.8131 31.0789 17.7231 31.0789 17.5431V16.9671C31.0789 16.8411 31.0249 16.7691 30.9349 16.7691H26.2909ZM25.5169 19.2891C25.4089 19.2891 25.3729 19.3611 25.3729 19.5051V20.0631C25.3729 20.2611 25.4089 20.3511 25.5169 20.3511H31.7089C31.7989 20.3511 31.8529 20.2611 31.8529 20.0631V19.5051C31.8529 19.3611 31.7989 19.2891 31.7089 19.2891H25.5169ZM26.2189 21.8271C26.1109 21.8271 26.0749 21.8991 26.0749 22.0431V22.6011C26.0749 22.7991 26.1109 22.8891 26.2189 22.8891H31.0069C31.0969 22.8891 31.1509 22.7991 31.1509 22.6011V22.0431C31.1509 21.8991 31.0969 21.8271 31.0069 21.8271H26.2189ZM26.2189 24.3651C26.1109 24.3651 26.0749 24.4371 26.0749 24.5631V25.1391C26.0749 25.3191 26.1109 25.4091 26.2189 25.4091H31.0069C31.0969 25.4091 31.1509 25.3191 31.1509 25.1391V24.5631C31.1509 24.4371 31.0969 24.3651 31.0069 24.3651H26.2189ZM26.0209 26.8851C25.8769 26.8851 25.8049 26.9571 25.8049 27.1011V32.1591C25.8049 32.3031 25.8769 32.3751 26.0209 32.3751H26.7229C26.9029 32.3751 26.9929 32.3031 26.9929 32.1591V31.1871H30.0169V32.0871C30.0169 32.2311 30.0889 32.3031 30.2329 32.3031H30.9349C31.1149 32.3031 31.2229 32.2311 31.2229 32.0871V27.1011C31.2229 26.9571 31.1149 26.8851 30.9349 26.8851H26.0209ZM26.9929 30.1251V27.9471H30.0169V30.1251H26.9929ZM32.4829 17.7411C32.3749 17.7411 32.3389 17.8131 32.3389 17.9571V18.5151C32.3389 18.7131 32.3749 18.8031 32.4829 18.8031H36.3529V19.9911H33.1129C33.0049 19.9911 32.9689 20.0631 32.9689 20.2071V20.7651C32.9689 20.9631 33.0049 21.0531 33.1129 21.0531H36.3529V22.2411H32.2669C32.1589 22.2411 32.1229 22.3131 32.1229 22.4571V23.0151C32.1229 23.2131 32.1589 23.3031 32.2669 23.3031H41.7709C41.8429 23.3031 41.8969 23.2131 41.8969 23.0151V22.4571C41.8969 22.3131 41.8429 22.2411 41.7709 22.2411H37.6129V21.0531H40.8529C40.9429 21.0531 40.9969 20.9631 40.9969 20.7651V20.2071C40.9969 20.0631 40.9429 19.9911 40.8529 19.9911H37.6129V18.8031H41.5549C41.6449 18.8031 41.6989 18.7131 41.6989 18.5151V17.9571C41.6989 17.8131 41.6449 17.7411 41.5549 17.7411H37.6129V16.9671C37.6129 16.7511 37.6669 16.6251 37.7929 16.6071C37.9009 16.5891 37.9729 16.4991 37.9729 16.3371C37.9729 16.2111 37.5229 16.1391 36.6229 16.1391C36.4429 16.1391 36.3529 16.2111 36.3529 16.3371V17.7411H32.4829ZM33.3289 24.2931C33.1309 24.2931 33.0409 24.3651 33.0409 24.4911V32.2311C33.0409 32.3751 33.1309 32.4471 33.3289 32.4471H34.0309C34.2109 32.4471 34.3009 32.3751 34.3009 32.2311V29.9091H39.5209V30.6831C39.5209 30.8271 39.4129 30.9171 39.2329 30.9711C39.0889 31.0251 38.5849 31.0611 37.7569 31.0611C37.6489 31.0611 37.6129 31.0791 37.6129 31.1151C37.8649 31.6011 37.9909 31.9791 38.0269 32.2311C38.0269 32.3751 38.0989 32.4471 38.2429 32.4471C38.9809 32.3931 39.5749 32.3031 40.0429 32.1951C40.5289 32.0151 40.7809 31.7991 40.7809 31.5111V24.4911C40.7809 24.3651 40.6549 24.2931 40.4209 24.2931H33.3289ZM34.3009 28.8651V27.5871H39.5209V28.8651H34.3009ZM34.3009 26.5431V25.3371H39.5209V26.5431H34.3009ZM49.3489 17.5431H51.7429V19.0191H49.3489V17.5431ZM49.3489 19.8651H52.6609C52.8409 19.8651 52.9489 19.7931 52.9489 19.6491V16.9131C52.9489 16.7691 52.8409 16.6971 52.6609 16.6971H48.5209C48.3229 16.6971 48.2329 16.7691 48.2329 16.9131V21.2691C48.2329 21.9711 48.7009 22.3131 49.6369 22.3131H52.1029C52.5709 22.3131 52.8589 22.2051 52.9669 21.9891C53.0749 21.8631 53.1829 21.5931 53.2909 21.1971C53.2909 21.0531 53.2189 20.9631 53.1109 20.9271C52.8589 20.8551 52.5709 20.6931 52.2469 20.4231C52.1929 20.7291 52.1389 20.9271 52.1029 21.0171C52.0669 21.1971 51.9409 21.2691 51.7429 21.2691H50.2669C49.6549 21.2691 49.3489 21.0171 49.3489 20.4951V19.8651ZM55.3969 17.5431H57.8629V19.0191H55.3969V17.5431ZM55.3969 19.8651H58.7809C58.9609 19.8651 59.0509 19.7931 59.0509 19.6491V16.9131C59.0509 16.7691 58.9609 16.6971 58.7809 16.6971H54.5509C54.3709 16.6971 54.2809 16.7691 54.2809 16.9131V21.3411C54.2809 22.0431 54.7489 22.3851 55.6849 22.3851H58.2229C58.7989 22.3851 59.1409 22.2771 59.2849 22.0431C59.4289 21.8991 59.5549 21.6111 59.6989 21.1971C59.6989 21.0531 59.6269 20.9631 59.5009 20.9271C59.2489 20.8551 58.9609 20.6931 58.6369 20.4231C58.5649 20.7471 58.4929 20.9631 58.4209 21.0531C58.3489 21.2511 58.1689 21.3411 57.8629 21.3411H56.3149C55.7029 21.3411 55.3969 21.0891 55.3969 20.5671V19.8651ZM48.8629 24.1491C48.7549 24.1491 48.7189 24.2211 48.7189 24.3651V24.9231C48.7189 25.1031 48.7549 25.1931 48.8629 25.1931H51.1129V26.7411H48.1609C48.0529 26.7411 48.0169 26.8131 48.0169 26.9571V27.5151C48.0169 27.7131 48.0529 27.8031 48.1609 27.8031H51.5809C51.1489 28.3251 50.6989 28.7391 50.2669 29.0451C49.9069 29.2971 49.5109 29.5491 49.0429 29.7651C48.9709 29.8011 48.9349 29.8371 48.9349 29.9091C48.9349 29.9811 48.9709 30.0531 49.0429 30.1251C49.2229 30.2871 49.3489 30.4491 49.4389 30.5931C49.4749 30.7011 49.5649 30.7551 49.7089 30.7551C50.5549 30.2871 51.3829 29.6931 52.1749 28.9371C52.1929 28.8831 52.3189 28.8471 52.5349 28.8471C52.6609 28.8471 52.7329 28.8111 52.7329 28.7211C52.7329 28.6491 52.4269 28.3431 51.8329 27.8031H59.2669C59.3569 27.8031 59.4109 27.7131 59.4109 27.5151V26.9571C59.4109 26.8131 59.3569 26.7411 59.2669 26.7411H56.0989V25.1931H58.7089C58.7989 25.1931 58.8529 25.1031 58.8529 24.9231V24.3651C58.8529 24.2211 58.7989 24.1491 58.7089 24.1491H56.0989V23.7171C56.0989 23.5191 56.1349 23.4111 56.2429 23.3931C56.3329 23.3931 56.3869 23.3031 56.3869 23.1591C56.3869 23.0151 55.9549 22.9431 55.1269 22.9431C54.9829 22.9431 54.9109 22.9971 54.9109 23.0871V24.1491H52.3009V23.7171C52.3009 23.5191 52.3369 23.4111 52.4449 23.3931C52.5349 23.3931 52.5889 23.3031 52.5889 23.1591C52.5889 23.0151 52.1569 22.9431 51.3289 22.9431C51.1849 22.9431 51.1129 22.9971 51.1129 23.0871V24.1491H48.8629ZM52.3009 26.7411V25.1931H54.9109V26.7411H52.3009ZM55.6129 27.8751C55.0909 28.3071 54.8389 28.5591 54.8389 28.6491C54.8389 28.6671 54.8569 28.7031 54.9289 28.7751C55.5229 29.3871 56.4409 30.0351 57.7009 30.7191C57.7729 30.7551 57.8269 30.7551 57.8629 30.7551C58.3309 30.2871 58.5649 30.0171 58.5649 29.9091C58.5649 29.8731 58.5109 29.8191 58.4389 29.7471C57.7909 29.4951 57.2869 29.2431 56.9629 29.0091C56.5309 28.7211 56.0809 28.3431 55.6129 27.8751ZM44.9209 16.4811C44.8849 16.4811 44.8309 16.5351 44.7769 16.6071C44.3989 17.0751 44.2189 17.3451 44.2189 17.3991C44.5069 17.5071 44.8489 17.7051 45.2809 17.9751C45.7849 18.3171 46.2889 18.6951 46.7569 19.0911C46.7569 19.0911 46.9369 18.8391 47.2969 18.3171C47.3509 18.2451 47.3869 18.1911 47.3869 18.1731C47.0809 17.9211 46.7209 17.6331 46.3069 17.3091C45.9469 17.0571 45.4789 16.7871 44.9209 16.4811ZM44.2909 20.6931C44.2549 20.6931 44.2009 20.7471 44.1469 20.8191C43.7689 21.2871 43.5889 21.5571 43.5889 21.6111C43.8769 21.7011 44.2729 21.8451 44.7409 22.0431C45.2809 22.2951 45.8209 22.5831 46.3249 22.8891C46.3429 22.8891 46.5229 22.6371 46.8829 22.1151C46.9369 22.0431 46.9729 21.9891 46.9729 21.9711C46.6489 21.7911 46.2529 21.5751 45.8029 21.3231C45.4069 21.1431 44.9029 20.9271 44.2909 20.6931ZM43.7329 24.8511C43.5889 24.8511 43.5169 24.9591 43.5169 25.1391V25.6971C43.5169 25.8771 43.5889 25.9671 43.7329 25.9671H45.9109V29.0631C45.9109 29.2791 45.8749 29.4231 45.8389 29.4771C44.9929 30.3411 44.2909 30.9171 43.7329 31.2411C43.7329 31.3851 43.7509 31.4931 43.8049 31.6011C44.1829 32.2131 44.4169 32.5191 44.5069 32.5191C44.5429 32.5191 44.5969 32.4651 44.6329 32.3931C44.7049 32.0511 45.2089 31.3851 46.1449 30.3771C46.1449 30.3591 46.1989 30.3411 46.2709 30.3411L46.3249 30.4311C46.5409 30.9351 46.7569 31.3131 46.9549 31.5291C47.2429 31.7811 47.5489 31.9971 47.8909 32.1411C48.2509 32.2851 48.6469 32.3931 49.0429 32.4831C49.4389 32.5551 49.8349 32.5911 50.2669 32.5911H58.9969C59.1589 32.5911 59.2489 32.4831 59.2849 32.2851C59.3569 31.7811 59.4829 31.2951 59.6269 30.8271C59.6269 30.7911 59.5729 30.7551 59.4829 30.7551C59.3929 30.7551 59.3029 30.7731 59.2129 30.8091C57.2329 31.1331 55.5049 31.3131 54.0289 31.3131H50.2669C49.6909 31.3131 49.1869 31.2591 48.7189 31.1871C48.3589 31.1151 48.0529 30.9711 47.8009 30.7911C47.6029 30.6651 47.4589 30.4671 47.3689 30.1971C47.2429 29.9451 47.1709 29.5671 47.1709 29.0631V25.0671C47.1709 24.9231 47.0809 24.8511 46.9009 24.8511H43.7329ZM61.8049 19.9911C61.6609 19.9911 61.5889 20.0991 61.5889 20.2791V20.8371C61.5889 21.0351 61.6609 21.1251 61.8049 21.1251H63.5509V25.3371C62.6509 25.8231 61.8949 26.1831 61.2469 26.3991C61.5889 27.3891 61.8229 27.8751 61.9489 27.8751C62.0569 27.8751 62.1829 27.7131 62.3629 27.3891C62.7589 27.1731 63.1549 26.9391 63.5509 26.6871V30.7551C63.5509 31.1691 63.2989 31.3851 62.7949 31.3851C62.4529 31.3851 62.0749 31.3311 61.6609 31.2411C61.5529 31.2411 61.5169 31.2771 61.5169 31.3851C61.6969 31.7091 61.8049 31.9791 61.8589 32.2131C61.8589 32.4111 61.9129 32.5191 62.0209 32.5191H62.9209C64.1809 32.5191 64.8289 32.0871 64.8289 31.2411V25.8771C65.3869 25.5171 65.9449 25.1211 66.5209 24.7071C66.5569 24.6531 66.5749 24.3291 66.5749 23.7171C66.5749 23.6451 66.5209 23.5911 66.4489 23.5911C66.4129 23.5911 66.3769 23.6091 66.3589 23.6451C65.8729 23.9871 65.3689 24.3111 64.8289 24.6171V21.1251H66.5209C66.6469 21.1251 66.7189 21.0351 66.7189 20.8371V20.2791C66.7189 20.0991 66.6469 19.9911 66.5209 19.9911H64.8289V17.6871C64.8289 17.2191 64.9369 16.9491 65.1709 16.8591C65.3149 16.8591 65.3869 16.8051 65.3869 16.6971C65.3869 16.6611 65.3149 16.6071 65.1889 16.5351L63.7669 16.3371C63.5329 16.3371 63.4249 16.3911 63.4249 16.4811C63.4249 16.5711 63.4429 16.6791 63.4969 16.8231C63.5329 17.0031 63.5509 17.2731 63.5509 17.6151V19.9911H61.8049ZM67.6369 16.6971C67.4389 16.6971 67.3489 16.7691 67.3489 16.9131V20.4231C67.3489 20.5671 67.4389 20.6391 67.6369 20.6391H71.7229V21.7551H68.1949C68.0869 21.7551 68.0509 21.8271 68.0509 21.9711V22.5291C68.0509 22.6731 68.0869 22.7451 68.1949 22.7451H71.7229V23.9331H67.1509C67.0429 23.9331 67.0069 24.0051 67.0069 24.1491V24.7071C67.0069 24.8511 67.0429 24.9231 67.1509 24.9231H77.5549C77.6449 24.9231 77.6989 24.8511 77.6989 24.7071V24.1491C77.6989 24.0051 77.6449 23.9331 77.5549 23.9331H72.9109V22.7451H76.4929C76.5829 22.7451 76.6369 22.6731 76.6369 22.5291V21.9711C76.6369 21.8271 76.5829 21.7551 76.4929 21.7551H72.9109V20.6391H76.8529C77.0329 20.6391 77.1229 20.5671 77.1229 20.4231V16.9131C77.1229 16.7691 77.0329 16.6971 76.8529 16.6971H67.6369ZM75.9349 19.6491H74.1709V17.6871H75.9349V19.6491ZM73.0549 19.6491H71.3629V17.6871H73.0549V19.6491ZM70.2469 19.6491H68.5549V17.6871H70.2469V19.6491ZM70.1749 24.9951C69.5629 25.3011 69.2569 25.4811 69.2569 25.5531C69.5449 25.9851 69.7969 26.3991 69.9769 26.8131C70.0129 26.9211 70.0669 27.0111 70.1029 27.1011H67.9969C67.8889 27.1011 67.8529 27.1731 67.8529 27.3171V27.8751C67.8529 28.0191 67.8889 28.0911 67.9969 28.0911H71.7229V29.4951H67.2229C67.1149 29.4951 67.0789 29.5671 67.0789 29.6931V30.2691C67.0789 30.4131 67.1149 30.4671 67.2229 30.4671H71.7229V32.3751C71.7229 32.5191 71.7769 32.5911 71.9209 32.5911H72.6229C72.8029 32.5911 72.9109 32.5191 72.9109 32.3751V30.4671H77.2669C77.3569 30.4671 77.4109 30.4131 77.4109 30.2691V29.6931C77.4109 29.5671 77.3569 29.4951 77.2669 29.4951H72.9109V28.0911H76.5649C76.6549 28.0911 76.7089 28.0191 76.7089 27.8751V27.3171C76.7089 27.1731 76.6549 27.1011 76.5649 27.1011H74.3689C74.6209 26.7051 74.8189 26.3271 74.9629 26.0031C74.9989 25.9311 75.0889 25.8951 75.2329 25.8771C75.3229 25.8771 75.3769 25.8411 75.3769 25.7691C75.3769 25.7151 75.3229 25.6431 75.2329 25.5711L74.2429 24.9951C74.1709 24.9951 74.1169 25.0311 74.0989 25.0851C73.9729 25.4451 73.8109 25.8411 73.6309 26.2551C73.4869 26.5431 73.3069 26.8131 73.0909 27.1011H71.2549C71.1469 26.8131 71.0389 26.5431 70.8949 26.2551C70.7149 25.8771 70.4629 25.4631 70.1749 24.9951Z" fill="#1C1C1C" fill-opacity="0.3"/>
<path d="M142.059 21.3921L150.544 29.8774L159.029 21.3921" stroke="#00A19B"/>
<rect x="1.04492" y="0.89209" width="174" height="149" rx="3.5" stroke="#00A19B"/>
<path d="M31.3489 68.0181H33.7429V69.4941H31.3489V68.0181ZM31.3489 70.3401H34.6609C34.8409 70.3401 34.9489 70.2681 34.9489 70.1241V67.3881C34.9489 67.2441 34.8409 67.1721 34.6609 67.1721H30.5209C30.3229 67.1721 30.2329 67.2441 30.2329 67.3881V71.7441C30.2329 72.4461 30.7009 72.7881 31.6369 72.7881H34.1029C34.5709 72.7881 34.8589 72.6801 34.9669 72.4641C35.0749 72.3381 35.1829 72.0681 35.2909 71.6721C35.2909 71.5281 35.2189 71.4381 35.1109 71.4021C34.8589 71.3301 34.5709 71.1681 34.2469 70.8981C34.1929 71.2041 34.1389 71.4021 34.1029 71.4921C34.0669 71.6721 33.9409 71.7441 33.7429 71.7441H32.2669C31.6549 71.7441 31.3489 71.4921 31.3489 70.9701V70.3401ZM37.3969 68.0181H39.8629V69.4941H37.3969V68.0181ZM37.3969 70.3401H40.7809C40.9609 70.3401 41.0509 70.2681 41.0509 70.1241V67.3881C41.0509 67.2441 40.9609 67.1721 40.7809 67.1721H36.5509C36.3709 67.1721 36.2809 67.2441 36.2809 67.3881V71.8161C36.2809 72.5181 36.7489 72.8601 37.6849 72.8601H40.2229C40.7989 72.8601 41.1409 72.7521 41.2849 72.5181C41.4289 72.3741 41.5549 72.0861 41.6989 71.6721C41.6989 71.5281 41.6269 71.4381 41.5009 71.4021C41.2489 71.3301 40.9609 71.1681 40.6369 70.8981C40.5649 71.2221 40.4929 71.4381 40.4209 71.5281C40.3489 71.7261 40.1689 71.8161 39.8629 71.8161H38.3149C37.7029 71.8161 37.3969 71.5641 37.3969 71.0421V70.3401ZM30.8629 74.6241C30.7549 74.6241 30.7189 74.6961 30.7189 74.8401V75.3981C30.7189 75.5781 30.7549 75.6681 30.8629 75.6681H33.1129V77.2161H30.1609C30.0529 77.2161 30.0169 77.2881 30.0169 77.4321V77.9901C30.0169 78.1881 30.0529 78.2781 30.1609 78.2781H33.5809C33.1489 78.8001 32.6989 79.2141 32.2669 79.5201C31.9069 79.7721 31.5109 80.0241 31.0429 80.2401C30.9709 80.2761 30.9349 80.3121 30.9349 80.3841C30.9349 80.4561 30.9709 80.5281 31.0429 80.6001C31.2229 80.7621 31.3489 80.9241 31.4389 81.0681C31.4749 81.1761 31.5649 81.2301 31.7089 81.2301C32.5549 80.7621 33.3829 80.1681 34.1749 79.4121C34.1929 79.3581 34.3189 79.3221 34.5349 79.3221C34.6609 79.3221 34.7329 79.2861 34.7329 79.1961C34.7329 79.1241 34.4269 78.8181 33.8329 78.2781H41.2669C41.3569 78.2781 41.4109 78.1881 41.4109 77.9901V77.4321C41.4109 77.2881 41.3569 77.2161 41.2669 77.2161H38.0989V75.6681H40.7089C40.7989 75.6681 40.8529 75.5781 40.8529 75.3981V74.8401C40.8529 74.6961 40.7989 74.6241 40.7089 74.6241H38.0989V74.1921C38.0989 73.9941 38.1349 73.8861 38.2429 73.8681C38.3329 73.8681 38.3869 73.7781 38.3869 73.6341C38.3869 73.4901 37.9549 73.4181 37.1269 73.4181C36.9829 73.4181 36.9109 73.4721 36.9109 73.5621V74.6241H34.3009V74.1921C34.3009 73.9941 34.3369 73.8861 34.4449 73.8681C34.5349 73.8681 34.5889 73.7781 34.5889 73.6341C34.5889 73.4901 34.1569 73.4181 33.3289 73.4181C33.1849 73.4181 33.1129 73.4721 33.1129 73.5621V74.6241H30.8629ZM34.3009 77.2161V75.6681H36.9109V77.2161H34.3009ZM37.6129 78.3501C37.0909 78.7821 36.8389 79.0341 36.8389 79.1241C36.8389 79.1421 36.8569 79.1781 36.9289 79.2501C37.5229 79.8621 38.4409 80.5101 39.7009 81.1941C39.7729 81.2301 39.8269 81.2301 39.8629 81.2301C40.3309 80.7621 40.5649 80.4921 40.5649 80.3841C40.5649 80.3481 40.5109 80.2941 40.4389 80.2221C39.7909 79.9701 39.2869 79.7181 38.9629 79.4841C38.5309 79.1961 38.0809 78.8181 37.6129 78.3501ZM26.9209 66.9561C26.8849 66.9561 26.8309 67.0101 26.7769 67.0821C26.3989 67.5501 26.2189 67.8201 26.2189 67.8741C26.5069 67.9821 26.8489 68.1801 27.2809 68.4501C27.7849 68.7921 28.2889 69.1701 28.7569 69.5661C28.7569 69.5661 28.9369 69.3141 29.2969 68.7921C29.3509 68.7201 29.3869 68.6661 29.3869 68.6481C29.0809 68.3961 28.7209 68.1081 28.3069 67.7841C27.9469 67.5321 27.4789 67.2621 26.9209 66.9561ZM26.2909 71.1681C26.2549 71.1681 26.2009 71.2221 26.1469 71.2941C25.7689 71.7621 25.5889 72.0321 25.5889 72.0861C25.8769 72.1761 26.2729 72.3201 26.7409 72.5181C27.2809 72.7701 27.8209 73.0581 28.3249 73.3641C28.3429 73.3641 28.5229 73.1121 28.8829 72.5901C28.9369 72.5181 28.9729 72.4641 28.9729 72.4461C28.6489 72.2661 28.2529 72.0501 27.8029 71.7981C27.4069 71.6181 26.9029 71.4021 26.2909 71.1681ZM25.7329 75.3261C25.5889 75.3261 25.5169 75.4341 25.5169 75.6141V76.1721C25.5169 76.3521 25.5889 76.4421 25.7329 76.4421H27.9109V79.5381C27.9109 79.7541 27.8749 79.8981 27.8389 79.9521C26.9929 80.8161 26.2909 81.3921 25.7329 81.7161C25.7329 81.8601 25.7509 81.9681 25.8049 82.0761C26.1829 82.6881 26.4169 82.9941 26.5069 82.9941C26.5429 82.9941 26.5969 82.9401 26.6329 82.8681C26.7049 82.5261 27.2089 81.8601 28.1449 80.8521C28.1449 80.8341 28.1989 80.8161 28.2709 80.8161L28.3249 80.9061C28.5409 81.4101 28.7569 81.7881 28.9549 82.0041C29.2429 82.2561 29.5489 82.4721 29.8909 82.6161C30.2509 82.7601 30.6469 82.8681 31.0429 82.9581C31.4389 83.0301 31.8349 83.0661 32.2669 83.0661H40.9969C41.1589 83.0661 41.2489 82.9581 41.2849 82.7601C41.3569 82.2561 41.4829 81.7701 41.6269 81.3021C41.6269 81.2661 41.5729 81.2301 41.4829 81.2301C41.3929 81.2301 41.3029 81.2481 41.2129 81.2841C39.2329 81.6081 37.5049 81.7881 36.0289 81.7881H32.2669C31.6909 81.7881 31.1869 81.7341 30.7189 81.6621C30.3589 81.5901 30.0529 81.4461 29.8009 81.2661C29.6029 81.1401 29.4589 80.9421 29.3689 80.6721C29.2429 80.4201 29.1709 80.0421 29.1709 79.5381V75.5421C29.1709 75.3981 29.0809 75.3261 28.9009 75.3261H25.7329ZM43.7329 68.7201C43.5889 68.7201 43.5169 68.8101 43.5169 68.9901V69.5661C43.5169 69.7461 43.5889 69.8361 43.7329 69.8361H46.0549V77.9001C44.9029 78.2961 43.9129 78.5841 43.1029 78.7641C43.4629 79.7541 43.6969 80.2401 43.8049 80.2401C43.9129 80.2401 44.0389 80.0781 44.2189 79.7541C46.0009 79.1421 47.7649 78.4761 49.4929 77.7201C49.5289 77.6661 49.5649 77.3421 49.5649 76.7301C49.5649 76.6401 49.5109 76.5861 49.4209 76.5861C49.3849 76.5861 49.3489 76.6041 49.3129 76.6401C48.6649 76.9281 47.9989 77.1981 47.3149 77.4501V69.8361H49.2949C49.4209 69.8361 49.4929 69.7461 49.4929 69.5661V68.9901C49.4929 68.8101 49.4209 68.7201 49.2949 68.7201H43.7329ZM50.1949 67.2441C50.0509 67.2441 49.9969 67.3341 49.9969 67.5141V68.0901C49.9969 68.2701 50.0509 68.3601 50.1949 68.3601H53.9389C53.8129 68.7561 53.6869 69.0801 53.5789 69.3321C53.4349 69.6561 53.2549 70.0341 53.0389 70.4661H50.6269C50.4289 70.4661 50.3389 70.5381 50.3389 70.6821V79.7541C50.3389 79.8981 50.4289 79.9701 50.6269 79.9701H52.2469C51.9229 80.2941 51.6349 80.5821 51.3649 80.7981C50.9689 81.1581 50.5009 81.4461 49.9609 81.7341C49.7089 81.8781 49.3849 82.0221 49.0069 82.1301C48.9529 82.1481 48.9349 82.1841 48.9349 82.2201C48.9349 82.2561 48.9709 82.3101 49.0609 82.3461C49.2409 82.4901 49.4389 82.6521 49.6909 82.8501C49.7269 82.9401 49.8349 82.9941 49.9969 82.9941C50.7889 82.5981 51.4369 82.2201 51.9769 81.8601C52.4089 81.5361 52.8229 81.1761 53.2189 80.7801C53.2909 80.7261 53.3989 80.6901 53.5609 80.6721C53.6689 80.6721 53.7229 80.6361 53.7229 80.6001C53.7229 80.5281 53.6689 80.4561 53.5789 80.3481L53.0749 79.9701H56.4229C56.0269 80.4381 55.8289 80.6721 55.8289 80.6721C56.9089 81.6081 57.9709 82.3821 59.0509 82.9941C59.1049 82.9941 59.3029 82.7061 59.6449 82.1661C59.7169 82.0581 59.7709 81.9861 59.7709 81.9321C58.7989 81.4101 57.8449 80.7621 56.9269 79.9701H58.6369C58.8169 79.9701 58.9249 79.8981 58.9249 79.7541V70.6821C58.9249 70.5381 58.8169 70.4661 58.6369 70.4661H54.4249C54.7129 69.8001 54.9829 69.0981 55.2349 68.3601H59.3389C59.4829 68.3601 59.5549 68.2701 59.5549 68.0901V67.5141C59.5549 67.3341 59.4829 67.2441 59.3389 67.2441H50.1949ZM57.6469 78.8361H51.5989V77.2161H57.6469V78.8361ZM51.5989 76.1001V74.4081H57.6469V76.1001H51.5989ZM51.5989 73.2921V71.6001H57.6469V73.2921H51.5989ZM61.6609 73.8501C61.5169 73.8501 61.4449 73.9761 61.4449 74.1921V74.9121C61.4449 75.1461 61.5169 75.2541 61.6609 75.2541H77.4109C77.5549 75.2541 77.6269 75.1461 77.6269 74.9121V74.1921C77.6269 73.9761 77.5549 73.8501 77.4109 73.8501H61.6609Z" fill="white"/>
</svg>
