<svg width="176" height="86" viewBox="0 0 176 86" fill="none" xmlns="http://www.w3.org/2000/svg">
<rect x="0.5" y="33.5" width="175" height="52" rx="3.5" fill="#ACACAC"/>
<path d="M42.9956 55.3495V57.0695H50.5756C50.3756 58.5495 49.9556 59.8895 49.3356 61.0495C48.7356 62.1695 47.6956 63.2695 46.1956 64.3495C45.2556 65.0695 43.9556 65.8095 42.2956 66.6095L43.9356 68.0895C45.5356 67.2495 46.9156 66.3495 48.0956 65.3495C49.7156 64.0295 50.8356 62.6495 51.4556 61.2295C51.6356 60.7895 51.7956 60.3295 51.9556 59.8095C52.5556 61.3695 53.2756 62.6695 54.0756 63.7295C55.4356 65.5895 57.1356 67.0295 59.1556 68.0895L60.7956 66.2095C58.4356 65.1895 56.6956 63.9695 55.5556 62.5295C54.3156 61.1895 53.3356 59.3695 52.6156 57.0695H60.0956V55.3495H52.5756C52.5756 55.2095 52.5956 55.0495 52.5956 54.8895V51.1295C52.9156 50.9295 53.0756 50.7295 53.0756 50.5095C53.0756 50.3695 52.8956 50.2895 52.5556 50.2695L50.5756 50.1095C50.6556 50.7095 50.7156 51.2095 50.7156 51.6095V54.8895C50.7156 55.0495 50.6956 55.1895 50.6956 55.3495H42.9956ZM62.3556 53.0095V54.7295H64.9356V59.1895C64.0156 59.5895 63.0756 59.9495 62.1356 60.2695L62.7756 62.0495C62.8556 62.2895 62.9556 62.3895 63.0756 62.3895C63.2356 62.3895 63.4156 62.1895 63.6156 61.7495L64.9356 61.0495V65.7495C64.8956 66.3295 64.6356 66.6095 64.1756 66.6095H62.8356L63.5356 68.3295C64.8756 68.3295 65.7156 68.1295 66.0556 67.7495C66.4556 67.3895 66.6556 66.8095 66.6556 66.0495V60.1495L68.9356 58.9495V57.2295C68.1756 57.6495 67.4156 58.0295 66.6556 58.3895V54.7295H68.9356V53.0095H66.6556V50.8895C66.9756 50.7295 67.1356 50.5695 67.1356 50.4295C67.1356 50.3095 67.0156 50.2295 66.8156 50.1895L64.9356 49.9695V53.0095H62.3556ZM74.1556 49.9695V52.4695H69.6356V56.3695H71.3556V54.0295H78.7756V56.3695H80.4956V52.4695H75.9556V50.8295C76.1556 50.6095 76.2756 50.4495 76.2756 50.3495C76.2756 50.2095 76.1156 50.1295 75.7956 50.0895L74.1556 49.9695ZM74.0156 54.5695C73.6556 55.5295 73.2556 56.4695 72.8156 57.3895H69.3156V58.9495H72.0756C72.0756 58.9495 72.0556 58.9695 72.0556 58.9895C71.3156 60.5095 70.3556 62.1295 69.1556 63.8695L70.8756 64.4895C71.0756 64.1695 71.2956 63.8495 71.5156 63.5095C72.3156 63.7895 73.0556 64.0895 73.7756 64.4095C73.2356 64.8095 72.6156 65.1495 71.9156 65.4495C71.1156 65.8495 69.9356 66.2495 68.3756 66.6895L69.8556 68.2495C71.4956 67.6095 72.8156 67.0095 73.8556 66.4495C74.4356 66.1095 74.9756 65.7295 75.4756 65.3095C75.4956 65.3295 75.5356 65.3495 75.5756 65.3695C76.6556 66.0495 77.8756 67.0095 79.2356 68.2495L80.5756 66.9095C79.4556 65.9495 78.2956 65.0695 77.0556 64.2895C76.9356 64.2295 76.7956 64.1495 76.6756 64.0695C77.1356 63.4695 77.5356 62.8295 77.8556 62.1095C78.2556 61.3295 78.5756 60.2695 78.7756 58.9495H80.7956V57.3895H74.7556C74.9556 56.9095 75.1756 56.4095 75.4156 55.8895C75.7156 55.7095 75.8756 55.5495 75.8756 55.4295C75.8756 55.3495 75.7756 55.2695 75.6156 55.2295L74.0156 54.5695ZM77.0356 58.9495C76.7956 59.9895 76.5156 60.8495 76.1956 61.4895C75.8956 62.1295 75.5356 62.7095 75.0956 63.2295C74.2156 62.8295 73.2956 62.4695 72.3356 62.1495C72.8956 61.1695 73.4556 60.1095 74.0156 58.9495H77.0356ZM86.8156 49.9695C86.1156 51.0695 85.4156 51.9895 84.7156 52.7095C83.9556 53.5295 83.0556 54.3295 81.9756 55.1095L83.2156 56.3695C83.4156 56.2095 83.6156 56.0495 83.8556 55.8495V57.3095H86.1156V59.2495H82.9156V60.8295H86.1156V65.8695C85.0156 66.0495 83.8956 66.1895 82.7556 66.2895L83.1756 68.0295C83.1756 68.2295 83.2556 68.3295 83.3756 68.3295C83.4956 68.3295 83.6356 68.2095 83.7756 68.0095C86.9356 67.3895 89.2356 66.8895 90.7156 66.5295V65.0295C89.7356 65.2495 88.7556 65.4495 87.7556 65.6095V60.8295H90.4156V59.2495H87.7556V57.3095H89.8556V55.7495H83.9756C84.6356 55.2095 85.2356 54.6895 85.7556 54.1895C86.1956 53.7495 86.6956 53.2095 87.2156 52.5695C88.1356 53.7895 89.2156 54.8695 90.4956 55.8295L91.8956 54.3295C90.4156 53.5895 89.1556 52.6295 88.1156 51.4295C88.1156 51.4295 88.1356 51.4095 88.1556 51.3695C88.4556 51.2695 88.6156 51.1095 88.6156 50.8895C88.6156 50.8095 88.5156 50.7295 88.3556 50.6495L86.8156 49.9695ZM84.3156 61.9095L82.8356 62.6095C83.2956 63.5295 83.7156 64.4495 84.0756 65.3495L85.4956 64.5695C85.1356 63.7095 84.7556 62.8295 84.3156 61.9095ZM89.3156 61.6095L88.3756 64.1895L89.7156 64.8095L90.5756 62.9295C90.7756 62.8295 90.8756 62.6895 90.8756 62.5295C90.8756 62.4495 90.7756 62.3695 90.5956 62.2695L89.3156 61.6095ZM91.5756 51.4495V52.9295H93.6356L93.2356 58.0895H91.0356V59.6495H93.1156L92.6556 65.8895H91.0356V67.5295H100.256V65.8895H98.4956L98.8156 59.6495H100.096V58.0895H98.8956L99.2356 51.4495H91.5756ZM94.2956 65.8895L94.7756 59.6495H97.1756L96.8556 65.8895H94.2956ZM95.2756 52.9295H97.5156L97.2556 58.0895H94.8956L95.2756 52.9295Z" fill="white"/>
<path d="M117.516 56.5L126.001 64.9853L134.486 56.5" stroke="white"/>
<rect x="0.5" y="33.5" width="175" height="52" rx="3.5" stroke="#ACACAC"/>
<path d="M6.804 2.58633H9.198V4.06233H6.804V2.58633ZM6.804 4.90833H10.116C10.296 4.90833 10.404 4.83633 10.404 4.69233V1.95633C10.404 1.81233 10.296 1.74033 10.116 1.74033H5.976C5.778 1.74033 5.688 1.81233 5.688 1.95633V6.31233C5.688 7.01433 6.156 7.35633 7.092 7.35633H9.558C10.026 7.35633 10.314 7.24833 10.422 7.03233C10.53 6.90633 10.638 6.63633 10.746 6.24033C10.746 6.09633 10.674 6.00633 10.566 5.97033C10.314 5.89833 10.026 5.73633 9.702 5.46633C9.648 5.77233 9.594 5.97033 9.558 6.06033C9.522 6.24033 9.396 6.31233 9.198 6.31233H7.722C7.11 6.31233 6.804 6.06033 6.804 5.53833V4.90833ZM12.852 2.58633H15.318V4.06233H12.852V2.58633ZM12.852 4.90833H16.236C16.416 4.90833 16.506 4.83633 16.506 4.69233V1.95633C16.506 1.81233 16.416 1.74033 16.236 1.74033H12.006C11.826 1.74033 11.736 1.81233 11.736 1.95633V6.38433C11.736 7.08633 12.204 7.42833 13.14 7.42833H15.678C16.254 7.42833 16.596 7.32033 16.74 7.08633C16.884 6.94233 17.01 6.65433 17.154 6.24033C17.154 6.09633 17.082 6.00633 16.956 5.97033C16.704 5.89833 16.416 5.73633 16.092 5.46633C16.02 5.79033 15.948 6.00633 15.876 6.09633C15.804 6.29433 15.624 6.38433 15.318 6.38433H13.77C13.158 6.38433 12.852 6.13233 12.852 5.61033V4.90833ZM6.318 9.19233C6.21 9.19233 6.174 9.26433 6.174 9.40833V9.96633C6.174 10.1463 6.21 10.2363 6.318 10.2363H8.568V11.7843H5.616C5.508 11.7843 5.472 11.8563 5.472 12.0003V12.5583C5.472 12.7563 5.508 12.8463 5.616 12.8463H9.036C8.604 13.3683 8.154 13.7823 7.722 14.0883C7.362 14.3403 6.966 14.5923 6.498 14.8083C6.426 14.8443 6.39 14.8803 6.39 14.9523C6.39 15.0243 6.426 15.0963 6.498 15.1683C6.678 15.3303 6.804 15.4923 6.894 15.6363C6.93 15.7443 7.02 15.7983 7.164 15.7983C8.01 15.3303 8.838 14.7363 9.63 13.9803C9.648 13.9263 9.774 13.8903 9.99 13.8903C10.116 13.8903 10.188 13.8543 10.188 13.7643C10.188 13.6923 9.882 13.3863 9.288 12.8463H16.722C16.812 12.8463 16.866 12.7563 16.866 12.5583V12.0003C16.866 11.8563 16.812 11.7843 16.722 11.7843H13.554V10.2363H16.164C16.254 10.2363 16.308 10.1463 16.308 9.96633V9.40833C16.308 9.26433 16.254 9.19233 16.164 9.19233H13.554V8.76033C13.554 8.56233 13.59 8.45433 13.698 8.43633C13.788 8.43633 13.842 8.34633 13.842 8.20233C13.842 8.05833 13.41 7.98633 12.582 7.98633C12.438 7.98633 12.366 8.04033 12.366 8.13033V9.19233H9.756V8.76033C9.756 8.56233 9.792 8.45433 9.9 8.43633C9.99 8.43633 10.044 8.34633 10.044 8.20233C10.044 8.05833 9.612 7.98633 8.784 7.98633C8.64 7.98633 8.568 8.04033 8.568 8.13033V9.19233H6.318ZM9.756 11.7843V10.2363H12.366V11.7843H9.756ZM13.068 12.9183C12.546 13.3503 12.294 13.6023 12.294 13.6923C12.294 13.7103 12.312 13.7463 12.384 13.8183C12.978 14.4303 13.896 15.0783 15.156 15.7623C15.228 15.7983 15.282 15.7983 15.318 15.7983C15.786 15.3303 16.02 15.0603 16.02 14.9523C16.02 14.9163 15.966 14.8623 15.894 14.7903C15.246 14.5383 14.742 14.2863 14.418 14.0523C13.986 13.7643 13.536 13.3863 13.068 12.9183ZM2.376 1.52433C2.34 1.52433 2.286 1.57833 2.232 1.65033C1.854 2.11833 1.674 2.38833 1.674 2.44233C1.962 2.55033 2.304 2.74833 2.736 3.01833C3.24 3.36033 3.744 3.73833 4.212 4.13433C4.212 4.13433 4.392 3.88233 4.752 3.36033C4.806 3.28833 4.842 3.23433 4.842 3.21633C4.536 2.96433 4.176 2.67633 3.762 2.35233C3.402 2.10033 2.934 1.83033 2.376 1.52433ZM1.746 5.73633C1.71 5.73633 1.656 5.79033 1.602 5.86233C1.224 6.33033 1.044 6.60033 1.044 6.65433C1.332 6.74433 1.728 6.88833 2.196 7.08633C2.736 7.33833 3.276 7.62633 3.78 7.93233C3.798 7.93233 3.978 7.68033 4.338 7.15833C4.392 7.08633 4.428 7.03233 4.428 7.01433C4.104 6.83433 3.708 6.61833 3.258 6.36633C2.862 6.18633 2.358 5.97033 1.746 5.73633ZM1.188 9.89433C1.044 9.89433 0.972 10.0023 0.972 10.1823V10.7403C0.972 10.9203 1.044 11.0103 1.188 11.0103H3.366V14.1063C3.366 14.3223 3.33 14.4663 3.294 14.5203C2.448 15.3843 1.746 15.9603 1.188 16.2843C1.188 16.4283 1.206 16.5363 1.26 16.6443C1.638 17.2563 1.872 17.5623 1.962 17.5623C1.998 17.5623 2.052 17.5083 2.088 17.4363C2.16 17.0943 2.664 16.4283 3.6 15.4203C3.6 15.4023 3.654 15.3843 3.726 15.3843L3.78 15.4743C3.996 15.9783 4.212 16.3563 4.41 16.5723C4.698 16.8243 5.004 17.0403 5.346 17.1843C5.706 17.3283 6.102 17.4363 6.498 17.5263C6.894 17.5983 7.29 17.6343 7.722 17.6343H16.452C16.614 17.6343 16.704 17.5263 16.74 17.3283C16.812 16.8243 16.938 16.3383 17.082 15.8703C17.082 15.8343 17.028 15.7983 16.938 15.7983C16.848 15.7983 16.758 15.8163 16.668 15.8523C14.688 16.1763 12.96 16.3563 11.484 16.3563H7.722C7.146 16.3563 6.642 16.3023 6.174 16.2303C5.814 16.1583 5.508 16.0143 5.256 15.8343C5.058 15.7083 4.914 15.5103 4.824 15.2403C4.698 14.9883 4.626 14.6103 4.626 14.1063V10.1103C4.626 9.96633 4.536 9.89433 4.356 9.89433H1.188ZM20.952 1.66833C20.754 1.66833 20.664 1.74033 20.664 1.88433V5.17833C20.664 5.32233 20.754 5.39433 20.952 5.39433H25.866C26.046 5.39433 26.154 5.32233 26.154 5.17833V1.88433C26.154 1.74033 26.046 1.66833 25.866 1.66833H20.952ZM24.876 4.33233H21.924V2.73033H24.876V4.33233ZM28.116 1.66833C27.918 1.66833 27.828 1.74033 27.828 1.88433V5.17833C27.828 5.32233 27.918 5.39433 28.116 5.39433H32.904C33.084 5.39433 33.174 5.32233 33.174 5.17833V1.88433C33.174 1.74033 33.084 1.66833 32.904 1.66833H28.116ZM31.914 4.33233H29.106V2.73033H31.914V4.33233ZM21.366 6.45633C21.168 6.45633 21.078 6.54633 21.078 6.72633V13.0623C21.078 13.2063 21.168 13.2603 21.366 13.2603H22.068C22.248 13.2603 22.356 13.2063 22.356 13.0623V12.7743H26.28V14.1063H19.188C19.044 14.1063 18.972 14.2143 18.972 14.3943V14.9523C18.972 15.1503 19.044 15.2403 19.188 15.2403H26.28V17.4183C26.28 17.5623 26.37 17.6343 26.568 17.6343H27.27C27.45 17.6343 27.558 17.5623 27.558 17.4183V15.2403H34.794C34.938 15.2403 35.01 15.1503 35.01 14.9523V14.3943C35.01 14.2143 34.938 14.1063 34.794 14.1063H27.558V12.7743H31.428V13.0623C31.428 13.2063 31.518 13.2603 31.698 13.2603H32.4C32.58 13.2603 32.688 13.2063 32.688 13.0623V6.65433C32.688 6.52833 32.58 6.45633 32.4 6.45633H21.366ZM22.356 11.6583V10.1823H26.28V11.6583H22.356ZM27.558 10.1823H31.428V11.6583H27.558V10.1823ZM22.356 9.04833V7.57233H26.28V9.04833H22.356ZM27.558 7.57233H31.428V9.04833H27.558V7.57233ZM37.188 5.03433C37.044 5.03433 36.972 5.14233 36.972 5.32233V5.88033C36.972 6.07833 37.044 6.16833 37.188 6.16833H39.078C38.88 7.23033 38.718 8.00433 38.574 8.50833C38.394 9.26433 38.142 10.0203 37.818 10.7943C37.494 11.6223 37.08 12.4683 36.558 13.3323C36.558 13.4043 36.594 13.4223 36.702 13.4223C36.954 13.5663 37.206 13.6923 37.458 13.8003C37.512 13.8723 37.602 13.9083 37.746 13.9083C38.142 13.2243 38.484 12.4863 38.772 11.6943C38.952 11.2443 39.114 10.7403 39.294 10.2003V17.4183C39.294 17.5623 39.384 17.6343 39.582 17.6343H40.284C40.464 17.6343 40.554 17.5623 40.554 17.4183V8.47233C40.608 8.67033 40.68 8.85033 40.752 9.03033C41.058 9.82233 41.418 10.5423 41.85 11.1723C41.922 11.2623 41.994 11.2983 42.03 11.2983C42.066 11.2983 42.138 11.2623 42.21 11.1723C42.408 10.9923 42.57 10.8303 42.696 10.6683C42.768 10.6143 42.804 10.5603 42.804 10.5243C42.804 10.4523 42.768 10.3803 42.714 10.3263C42.102 9.49833 41.67 8.74233 41.436 8.07633C41.238 7.60833 41.022 6.97833 40.788 6.16833H42.174C42.318 6.16833 42.39 6.07833 42.39 5.88033V5.32233C42.39 5.14233 42.318 5.03433 42.174 5.03433H40.554V2.15433C40.554 1.93833 40.608 1.81233 40.734 1.79433C40.842 1.77633 40.914 1.68633 40.914 1.52433C40.914 1.38033 40.464 1.30833 39.582 1.30833C39.384 1.30833 39.294 1.38033 39.294 1.52433V5.03433H37.188ZM42.804 2.01033C42.714 2.01033 42.678 2.08233 42.678 2.22633V2.78433C42.678 2.98233 42.714 3.07233 42.804 3.07233H45.702V4.47633H43.236C43.038 4.47633 42.948 4.54833 42.948 4.69233V8.13033C42.948 8.27433 43.038 8.34633 43.236 8.34633H52.236C52.416 8.34633 52.506 8.27433 52.506 8.13033V4.69233C52.506 4.54833 52.416 4.47633 52.236 4.47633H49.698V3.07233H52.866C52.956 3.07233 53.01 2.98233 53.01 2.78433V2.22633C53.01 2.08233 52.956 2.01033 52.866 2.01033H42.804ZM48.51 4.47633H46.89V3.07233H48.51V4.47633ZM51.246 7.28433H49.698V5.53833H51.246V7.28433ZM48.51 7.28433H46.89V5.53833H48.51V7.28433ZM45.702 7.28433H44.226V5.53833H45.702V7.28433ZM43.866 9.53433C43.758 9.53433 43.722 9.60633 43.722 9.75033V10.3083C43.722 10.5063 43.758 10.5963 43.866 10.5963H51.678C51.75 10.5963 51.804 10.5063 51.804 10.3083V9.75033C51.804 9.60633 51.75 9.53433 51.678 9.53433H43.866ZM42.678 11.7303C42.57 11.7303 42.534 11.8023 42.534 11.9283V12.4863C42.534 12.6843 42.57 12.7743 42.678 12.7743H47.178V15.7263C47.178 16.1403 46.836 16.3563 46.188 16.3563C45.828 16.3563 45.45 16.3023 45.054 16.2303V16.2843C45.234 16.6443 45.324 16.9503 45.36 17.2203C45.36 17.4363 45.396 17.5623 45.486 17.5623H46.26C47.7 17.5623 48.438 17.1123 48.438 16.2303V12.7743H52.794C52.884 12.7743 52.938 12.6843 52.938 12.4863V11.9283C52.938 11.8023 52.884 11.7303 52.794 11.7303H42.678ZM44.712 13.6203C44.676 13.6203 44.64 13.6563 44.622 13.7103C44.298 14.1243 43.992 14.4663 43.74 14.7363C43.416 15.0603 43.056 15.3663 42.642 15.6363C42.426 15.7803 42.174 15.9063 41.886 15.9963C41.85 16.0143 41.832 16.0503 41.832 16.0863C41.832 16.1223 41.868 16.1763 41.958 16.2123C42.102 16.3563 42.3 16.5183 42.534 16.7163C42.57 16.8063 42.66 16.8603 42.804 16.8603C43.434 16.4823 43.956 16.1223 44.388 15.7623C44.73 15.4563 45.054 15.1143 45.36 14.7183C45.414 14.6643 45.504 14.6283 45.648 14.6103C45.72 14.6103 45.756 14.5743 45.756 14.5383C45.756 14.4663 45.702 14.3943 45.63 14.3043L44.712 13.6203ZM50.4 13.6203C50.364 13.6203 50.31 13.6563 50.256 13.7283C49.932 14.1603 49.77 14.3943 49.77 14.4663C50.058 14.6463 50.436 14.9163 50.886 15.3123C51.426 15.7983 51.948 16.3203 52.452 16.9323C52.452 16.9323 52.632 16.6803 52.992 16.2123C53.046 16.1403 53.082 16.0863 53.082 16.0863C52.758 15.7083 52.362 15.2943 51.912 14.8263C51.516 14.4663 51.012 14.0523 50.4 13.6203ZM56.304 1.81233C56.124 1.81233 56.034 1.88433 56.034 2.01033V7.57233C56.034 7.71633 56.124 7.78833 56.304 7.78833H61.65C61.83 7.78833 61.938 7.71633 61.938 7.57233V2.01033C61.938 1.88433 61.83 1.81233 61.65 1.81233H56.304ZM60.75 6.72633H57.222V5.32233H60.75V6.72633ZM57.222 4.26033V2.85633H60.75V4.26033H57.222ZM55.116 8.97633C55.008 8.97633 54.972 9.04833 54.972 9.19233V9.75033C54.972 9.94833 55.008 10.0383 55.116 10.0383H58.77V15.4383C58.428 15.2763 58.14 15.0603 57.924 14.8083C57.618 14.5203 57.366 14.0523 57.15 13.4043C57.222 12.9543 57.294 12.4683 57.366 11.9463C57.366 11.8023 57.402 11.7303 57.51 11.7303C57.6 11.7303 57.654 11.6403 57.654 11.4423C57.654 11.4063 57.186 11.2803 56.25 11.0823C56.214 11.0823 56.196 11.1183 56.196 11.1723C56.178 11.6223 56.142 12.0363 56.088 12.4323C55.98 13.1703 55.854 13.8183 55.71 14.3583C55.53 15.0063 55.314 15.5823 55.08 16.0683C54.936 16.3563 54.738 16.6263 54.522 16.8963C54.486 16.9323 54.486 16.9503 54.486 16.9863C54.486 17.0583 54.522 17.1303 54.612 17.1843C54.792 17.2923 54.99 17.4183 55.206 17.5623C55.278 17.6523 55.386 17.7063 55.53 17.7063C55.566 17.7063 55.62 17.6523 55.692 17.5623C55.98 17.1123 56.25 16.5723 56.484 15.9243C56.592 15.6363 56.682 15.3483 56.772 15.0423C56.844 15.1683 56.916 15.2763 56.988 15.3663C57.312 15.7983 57.762 16.1583 58.356 16.4823C58.788 16.7343 59.472 16.9323 60.39 17.1123C61.146 17.2203 62.064 17.2743 63.144 17.2743H70.866C70.992 17.2743 71.064 17.2023 71.1 17.0583C71.172 16.7703 71.316 16.3923 71.496 15.9423C71.496 15.8523 71.442 15.7983 71.352 15.7983C68.652 15.9783 65.916 16.0863 63.144 16.0863C61.83 16.0863 60.768 15.9963 59.976 15.8523V13.2603H62.352C62.442 13.2603 62.496 13.1703 62.496 12.9903V12.4323C62.496 12.2883 62.442 12.2163 62.352 12.2163H59.976V10.0383H62.712C62.802 10.0383 62.856 9.94833 62.856 9.75033V9.19233C62.856 9.04833 62.802 8.97633 62.712 8.97633H55.116ZM63.198 1.81233C63.09 1.81233 63.054 1.88433 63.054 2.01033V2.58633C63.054 2.76633 63.09 2.85633 63.198 2.85633H66.456C66.384 3.12633 66.294 3.36033 66.222 3.54033C66.114 3.77433 65.988 4.04433 65.844 4.33233H63.9C63.72 4.33233 63.63 4.40433 63.63 4.54833V12.8463C63.63 12.9903 63.72 13.0623 63.9 13.0623H65.502C65.214 13.3863 64.962 13.6383 64.71 13.8543C64.422 14.1063 64.098 14.3403 63.72 14.5383C63.54 14.6463 63.306 14.7543 63.036 14.8263C63 14.8443 63 14.8623 63 14.8803C63 14.9523 63.036 14.9883 63.108 15.0243C63.27 15.1683 63.468 15.3303 63.702 15.5103C63.738 15.6183 63.828 15.6543 63.972 15.6543C64.548 15.3843 65.016 15.1143 65.394 14.8263C65.718 14.5923 66.006 14.3223 66.294 14.0343C66.33 13.9983 66.42 13.9803 66.546 13.9623C66.618 13.9623 66.654 13.9443 66.654 13.9083C66.654 13.8363 66.6 13.7643 66.51 13.6743L65.682 13.0623H68.31C67.842 13.4223 67.626 13.6563 67.626 13.7643C67.626 13.7823 67.644 13.8183 67.716 13.8723C68.256 14.3763 69.084 14.9163 70.218 15.4743C70.29 15.5103 70.344 15.5103 70.38 15.5103C70.848 15.0423 71.082 14.7723 71.082 14.6823C71.082 14.6463 71.028 14.6103 70.956 14.5383C70.38 14.3223 69.93 14.1243 69.624 13.9443C69.264 13.7283 68.886 13.4223 68.49 13.0623H70.236C70.416 13.0623 70.506 12.9903 70.506 12.8463V4.54833C70.506 4.40433 70.416 4.33233 70.236 4.33233H67.23C67.41 3.86433 67.59 3.37833 67.752 2.85633H71.082C71.172 2.85633 71.226 2.76633 71.226 2.58633V2.01033C71.226 1.88433 71.172 1.81233 71.082 1.81233H63.198ZM69.318 12.0003H64.818V10.5243H69.318V12.0003ZM64.818 9.48033V7.98633H69.318V9.48033H64.818ZM64.818 6.94233V5.39433H69.318V6.94233H64.818Z" fill="#ACACAC"/>
</svg>
