<svg width="659" height="128" viewBox="0 0 659 128" fill="none" xmlns="http://www.w3.org/2000/svg">
<rect x="0.5" y="6.5" width="67" height="31" rx="3.5" stroke="#ACACAC"/>
<path d="M21.6 20.32C20.88 20.704 20.112 21.072 19.28 21.408L18.624 20.336C21.504 19.328 23.616 18.048 24.96 16.48H21.904V15.44H26.624C27.904 17.376 30.112 18.928 33.28 20.096L32.512 21.136C31.712 20.816 30.992 20.464 30.32 20.112V21.168H26.592V23.984H31.216V25.088H26.592V27.984H32.672V29.12H19.424V27.984H25.424V25.088H20.768V23.984H25.424V21.168H21.6V20.32ZM30.24 20.064C28.48 19.072 27.088 17.92 26.064 16.592C25.12 17.904 23.776 19.056 22.048 20.064H30.24ZM43.616 15.568H48.912V16.432C48.384 18.128 47.808 19.696 47.2 21.136C48.464 22.704 49.104 24 49.12 24.992C49.12 25.92 48.912 26.576 48.496 26.928C48.048 27.312 47.152 27.504 45.808 27.504L45.456 26.288C45.888 26.336 46.256 26.368 46.56 26.368C47.152 26.336 47.536 26.24 47.712 26.064C47.872 25.872 47.968 25.52 47.984 24.992C47.968 24.016 47.296 22.736 45.968 21.136C46.544 19.856 47.12 18.368 47.664 16.64H44.736V29.568H43.616V15.568ZM35.088 16.528H38.24C38.064 15.984 37.888 15.488 37.696 15.04L38.864 14.848C39.024 15.344 39.2 15.904 39.36 16.528H42.608V17.632H41.84C41.52 18.848 41.152 19.952 40.736 20.912H42.736V22.016H34.816V20.912H36.864C36.608 19.744 36.288 18.656 35.92 17.632H35.088V16.528ZM39.664 20.912C40.064 19.872 40.416 18.784 40.72 17.632H37.04C37.36 18.576 37.664 19.664 37.952 20.912H39.664ZM41.984 23.552V29.568H40.848V28.704H36.88V29.568H35.76V23.552H41.984ZM36.88 27.616H40.848V24.656H36.88V27.616Z" fill="#1C1C1C"/>
<line x1="73.5" y1="6" x2="73.5" y2="38" stroke="#D9D9D9"/>
<rect x="78.5" y="6.5" width="99" height="31" rx="3.5" stroke="#ACACAC"/>
<path d="M98.224 20.072V21.816H100.128V20.072H98.224ZM98.224 17.4V19.144H100.128V17.4H98.224ZM103.04 19.144V17.4H101.152V19.144H103.04ZM103.04 21.816V20.072H101.152V21.816H103.04ZM101.216 25.704V27.88C102.272 27.736 103.376 27.592 104.464 27.432L104.496 28.488C101.744 28.904 98.832 29.32 96.832 29.624L96.688 28.456C97.616 28.36 98.784 28.2 100.064 28.024V25.704H97.184V24.616H100.064V22.808H97.216V16.408H104.08V22.808H101.216V24.616H104.08V25.704H101.216ZM110.64 21.512L111.44 21.72C111.04 23.048 110.56 24.552 110.096 25.496L109.12 25.224C109.408 24.584 109.76 23.624 110.032 22.68H108.144V28.776C108.144 29.448 108 29.8 107.504 30.008C107.024 30.2 106.208 30.216 105.024 30.216C104.976 29.864 104.8 29.384 104.624 29.032C105.568 29.064 106.4 29.064 106.656 29.048C106.912 29.048 106.976 28.968 106.976 28.744V22.68H104.4V21.56H108.56C107.696 20.76 106.4 19.832 105.216 19.224L105.968 18.504C106.496 18.76 107.04 19.08 107.568 19.448C108.192 18.888 108.832 18.184 109.328 17.512H104.608V16.44H110.16L110.416 16.376L111.184 16.92C110.48 17.992 109.424 19.16 108.4 20.024C108.96 20.424 109.456 20.856 109.808 21.208L109.472 21.56H110.448L110.64 21.512ZM116.864 20.152V21.608C117.424 22.136 118.96 23.816 119.344 24.264L118.576 25.272C118.24 24.728 117.488 23.768 116.864 23V30.2H115.712V22.44C115.024 24.344 114.096 26.168 113.168 27.272C113.04 26.936 112.72 26.456 112.528 26.168C113.712 24.824 114.928 22.36 115.552 20.152H112.896V19.032H115.712V15.608H116.864V19.032H119.264V20.152H116.864ZM127.392 19.016V20.136H125.68V28.584C125.68 29.416 125.472 29.784 124.944 29.992C124.416 30.184 123.504 30.216 122.128 30.216C122.064 29.88 121.888 29.32 121.696 28.968C122.768 29 123.776 29 124.08 28.984C124.368 28.984 124.464 28.888 124.464 28.584V20.136H119.728V19.016H124.464V15.624H125.68V19.016H127.392ZM123.152 25.576L122.08 26.136C121.776 25.096 120.912 23.464 120.064 22.248L121.056 21.784C121.936 22.968 122.816 24.552 123.152 25.576ZM136.688 17.304V17.976C136.688 19.4 136.256 21.112 134.288 22.248C134.144 22.008 133.728 21.56 133.504 21.368C135.28 20.392 135.568 19.08 135.568 17.944V16.184H140.608V19.88C140.608 20.328 140.656 20.488 140.912 20.488H142.144C142.384 20.488 142.736 20.456 142.944 20.408C142.96 20.712 142.992 21.16 143.04 21.432C142.832 21.496 142.496 21.512 142.176 21.512H140.832C139.712 21.512 139.472 21.048 139.472 19.864V17.304H136.688ZM133.776 23.72L132.128 24.216V28.712C132.128 29.384 131.952 29.704 131.536 29.88C131.136 30.072 130.464 30.104 129.376 30.104C129.328 29.8 129.152 29.32 129.008 29C129.776 29.032 130.464 29.016 130.656 29.016C130.88 29.016 130.96 28.936 130.96 28.712V24.584L128.944 25.176L128.592 24.024C129.248 23.864 130.064 23.64 130.96 23.384V19.944H128.784V18.824H130.96V15.624H132.128V18.824H134.112V19.944H132.128V23.064L133.616 22.632L133.776 23.72ZM140.56 23.752H135.632C136.192 24.92 137.04 25.944 138.064 26.808C139.104 25.976 139.984 24.968 140.56 23.752ZM141.392 22.584L142.16 22.936C141.52 24.856 140.416 26.36 139.04 27.512C140.24 28.264 141.68 28.824 143.28 29.16C143.008 29.416 142.688 29.912 142.528 30.248C140.816 29.832 139.296 29.16 138.048 28.248C136.656 29.192 135.04 29.832 133.36 30.264C133.248 29.928 132.992 29.432 132.768 29.176C134.304 28.84 135.792 28.28 137.088 27.48C136 26.472 135.12 25.24 134.48 23.816L134.64 23.752H134.016V22.632H141.168L141.392 22.584ZM154.848 17.688L153.776 18.152C153.568 17.592 153.072 16.68 152.672 16.024L153.68 15.608C154.144 16.28 154.624 17.128 154.848 17.688ZM148.144 15.672L149.2 15.992C148.832 17.064 148.368 18.136 147.856 19.144V30.28H146.752V21.064C146.272 21.832 145.744 22.52 145.232 23.128C145.12 22.872 144.784 22.296 144.576 22.024C146.016 20.472 147.328 18.088 148.144 15.672ZM156.96 26.088H150.96V28.616H156.96V26.088ZM149.92 30.232V25.096H158.016V30.184H156.96V29.608H150.96V30.232H149.92ZM150.144 23.752V22.776H157.856V23.752H150.144ZM157.856 20.536V21.512H150.144V20.536H157.856ZM148.992 18.248H159.12V19.256H148.992V18.248Z" fill="#1C1C1C"/>
<rect x="188.5" y="6.5" width="99" height="31" rx="3.5" stroke="#ACACAC"/>
<path d="M208.224 20.072V21.816H210.128V20.072H208.224ZM208.224 17.4V19.144H210.128V17.4H208.224ZM213.04 19.144V17.4H211.152V19.144H213.04ZM213.04 21.816V20.072H211.152V21.816H213.04ZM211.216 25.704V27.88C212.272 27.736 213.376 27.592 214.464 27.432L214.496 28.488C211.744 28.904 208.832 29.32 206.832 29.624L206.688 28.456C207.616 28.36 208.784 28.2 210.064 28.024V25.704H207.184V24.616H210.064V22.808H207.216V16.408H214.08V22.808H211.216V24.616H214.08V25.704H211.216ZM220.64 21.512L221.44 21.72C221.04 23.048 220.56 24.552 220.096 25.496L219.12 25.224C219.408 24.584 219.76 23.624 220.032 22.68H218.144V28.776C218.144 29.448 218 29.8 217.504 30.008C217.024 30.2 216.208 30.216 215.024 30.216C214.976 29.864 214.8 29.384 214.624 29.032C215.568 29.064 216.4 29.064 216.656 29.048C216.912 29.048 216.976 28.968 216.976 28.744V22.68H214.4V21.56H218.56C217.696 20.76 216.4 19.832 215.216 19.224L215.968 18.504C216.496 18.76 217.04 19.08 217.568 19.448C218.192 18.888 218.832 18.184 219.328 17.512H214.608V16.44H220.16L220.416 16.376L221.184 16.92C220.48 17.992 219.424 19.16 218.4 20.024C218.96 20.424 219.456 20.856 219.808 21.208L219.472 21.56H220.448L220.64 21.512ZM226.864 20.152V21.608C227.424 22.136 228.96 23.816 229.344 24.264L228.576 25.272C228.24 24.728 227.488 23.768 226.864 23V30.2H225.712V22.44C225.024 24.344 224.096 26.168 223.168 27.272C223.04 26.936 222.72 26.456 222.528 26.168C223.712 24.824 224.928 22.36 225.552 20.152H222.896V19.032H225.712V15.608H226.864V19.032H229.264V20.152H226.864ZM237.392 19.016V20.136H235.68V28.584C235.68 29.416 235.472 29.784 234.944 29.992C234.416 30.184 233.504 30.216 232.128 30.216C232.064 29.88 231.888 29.32 231.696 28.968C232.768 29 233.776 29 234.08 28.984C234.368 28.984 234.464 28.888 234.464 28.584V20.136H229.728V19.016H234.464V15.624H235.68V19.016H237.392ZM233.152 25.576L232.08 26.136C231.776 25.096 230.912 23.464 230.064 22.248L231.056 21.784C231.936 22.968 232.816 24.552 233.152 25.576ZM246.688 17.304V17.976C246.688 19.4 246.256 21.112 244.288 22.248C244.144 22.008 243.728 21.56 243.504 21.368C245.28 20.392 245.568 19.08 245.568 17.944V16.184H250.608V19.88C250.608 20.328 250.656 20.488 250.912 20.488H252.144C252.384 20.488 252.736 20.456 252.944 20.408C252.96 20.712 252.992 21.16 253.04 21.432C252.832 21.496 252.496 21.512 252.176 21.512H250.832C249.712 21.512 249.472 21.048 249.472 19.864V17.304H246.688ZM243.776 23.72L242.128 24.216V28.712C242.128 29.384 241.952 29.704 241.536 29.88C241.136 30.072 240.464 30.104 239.376 30.104C239.328 29.8 239.152 29.32 239.008 29C239.776 29.032 240.464 29.016 240.656 29.016C240.88 29.016 240.96 28.936 240.96 28.712V24.584L238.944 25.176L238.592 24.024C239.248 23.864 240.064 23.64 240.96 23.384V19.944H238.784V18.824H240.96V15.624H242.128V18.824H244.112V19.944H242.128V23.064L243.616 22.632L243.776 23.72ZM250.56 23.752H245.632C246.192 24.92 247.04 25.944 248.064 26.808C249.104 25.976 249.984 24.968 250.56 23.752ZM251.392 22.584L252.16 22.936C251.52 24.856 250.416 26.36 249.04 27.512C250.24 28.264 251.68 28.824 253.28 29.16C253.008 29.416 252.688 29.912 252.528 30.248C250.816 29.832 249.296 29.16 248.048 28.248C246.656 29.192 245.04 29.832 243.36 30.264C243.248 29.928 242.992 29.432 242.768 29.176C244.304 28.84 245.792 28.28 247.088 27.48C246 26.472 245.12 25.24 244.48 23.816L244.64 23.752H244.016V22.632H251.168L251.392 22.584ZM264.848 17.688L263.776 18.152C263.568 17.592 263.072 16.68 262.672 16.024L263.68 15.608C264.144 16.28 264.624 17.128 264.848 17.688ZM258.144 15.672L259.2 15.992C258.832 17.064 258.368 18.136 257.856 19.144V30.28H256.752V21.064C256.272 21.832 255.744 22.52 255.232 23.128C255.12 22.872 254.784 22.296 254.576 22.024C256.016 20.472 257.328 18.088 258.144 15.672ZM266.96 26.088H260.96V28.616H266.96V26.088ZM259.92 30.232V25.096H268.016V30.184H266.96V29.608H260.96V30.232H259.92ZM260.144 23.752V22.776H267.856V23.752H260.144ZM267.856 20.536V21.512H260.144V20.536H267.856ZM258.992 18.248H269.12V19.256H258.992V18.248Z" fill="#1C1C1C"/>
<rect x="298.5" y="6.5" width="115" height="31" rx="3.5" stroke="#ACACAC"/>
<path d="M320.624 17.72H319.248C318.752 18.52 318.192 19.224 317.616 19.784C317.456 19.576 317.04 19.192 316.784 19C317.76 18.12 318.656 16.84 319.2 15.512L320.24 15.8C320.112 16.12 319.968 16.44 319.808 16.76H323.904V17.72H320.88C321.408 18.168 322.016 18.76 322.32 19.16L321.536 19.816C321.232 19.368 320.56 18.68 320.016 18.184L320.624 17.72ZM323.328 23.592H319.728C319.648 24.088 319.568 24.616 319.488 25.08H323.328V23.592ZM324.496 21.112V22.584H328.688V21.112H324.496ZM324.496 25.08H330.384C330.384 25.08 330.368 25.4 330.352 25.576C330.128 27.784 329.92 28.76 329.504 29.144C329.248 29.432 328.944 29.528 328.512 29.544C328.096 29.576 327.312 29.576 326.496 29.544C326.48 29.192 326.352 28.744 326.176 28.44C326.96 28.52 327.696 28.52 327.984 28.52C328.256 28.52 328.416 28.504 328.56 28.392C328.768 28.168 328.944 27.544 329.104 26.104H324.496V30.232H323.328V26.552C321.92 28.136 319.856 29.512 317.952 30.248C317.776 29.96 317.456 29.528 317.184 29.304C319.04 28.696 321.072 27.464 322.384 26.104H318.16C318.368 25.144 318.592 23.72 318.72 22.584H323.328V21.112H318.16V20.104H329.856V23.592H324.496V25.08ZM326.4 16.776H331.232V17.72H327.792C328.352 18.168 329.024 18.744 329.376 19.16L328.592 19.832C328.224 19.416 327.52 18.744 326.944 18.28L327.632 17.72H325.84C325.472 18.28 325.056 18.776 324.624 19.192C324.432 19 323.984 18.632 323.728 18.488C324.608 17.752 325.328 16.664 325.712 15.512L326.816 15.768C326.688 16.12 326.544 16.44 326.4 16.776ZM332.768 22.12H347.296V23.416H332.768V22.12ZM352.272 20.376H359.904C358.464 19.528 357.056 18.456 356.016 17.368C354.96 18.52 353.68 19.544 352.272 20.376ZM360.096 21.48H356.576V23.656H362.16V24.744H356.576V28.648H362.88V29.752H349.136V28.648H355.344V24.744H349.856V23.656H355.344V21.48H351.888V20.6C351.072 21.048 350.208 21.448 349.344 21.752C349.168 21.432 348.848 20.968 348.544 20.68C351.52 19.704 354.464 17.832 355.984 15.464L357.072 15.976C356.96 16.152 356.816 16.36 356.672 16.552C358.256 18.248 361.072 19.912 363.504 20.68C363.216 20.92 362.848 21.4 362.672 21.704C361.84 21.4 360.96 20.984 360.096 20.488V21.48ZM358.928 28.424L358.032 28.04C358.592 27.256 359.312 25.992 359.696 25.096L360.832 25.528C360.24 26.536 359.504 27.672 358.928 28.424ZM351.2 25.496L352.192 25.096C352.8 25.992 353.456 27.192 353.712 27.96L352.672 28.392C352.448 27.656 351.808 26.392 351.2 25.496ZM372.688 17.304V17.976C372.688 19.4 372.256 21.112 370.288 22.248C370.144 22.008 369.728 21.56 369.504 21.368C371.28 20.392 371.568 19.08 371.568 17.944V16.184H376.608V19.88C376.608 20.328 376.656 20.488 376.912 20.488H378.144C378.384 20.488 378.736 20.456 378.944 20.408C378.96 20.712 378.992 21.16 379.04 21.432C378.832 21.496 378.496 21.512 378.176 21.512H376.832C375.712 21.512 375.472 21.048 375.472 19.864V17.304H372.688ZM369.776 23.72L368.128 24.216V28.712C368.128 29.384 367.952 29.704 367.536 29.88C367.136 30.072 366.464 30.104 365.376 30.104C365.328 29.8 365.152 29.32 365.008 29C365.776 29.032 366.464 29.016 366.656 29.016C366.88 29.016 366.96 28.936 366.96 28.712V24.584L364.944 25.176L364.592 24.024C365.248 23.864 366.064 23.64 366.96 23.384V19.944H364.784V18.824H366.96V15.624H368.128V18.824H370.112V19.944H368.128V23.064L369.616 22.632L369.776 23.72ZM376.56 23.752H371.632C372.192 24.92 373.04 25.944 374.064 26.808C375.104 25.976 375.984 24.968 376.56 23.752ZM377.392 22.584L378.16 22.936C377.52 24.856 376.416 26.36 375.04 27.512C376.24 28.264 377.68 28.824 379.28 29.16C379.008 29.416 378.688 29.912 378.528 30.248C376.816 29.832 375.296 29.16 374.048 28.248C372.656 29.192 371.04 29.832 369.36 30.264C369.248 29.928 368.992 29.432 368.768 29.176C370.304 28.84 371.792 28.28 373.088 27.48C372 26.472 371.12 25.24 370.48 23.816L370.64 23.752H370.016V22.632H377.168L377.392 22.584ZM390.848 17.688L389.776 18.152C389.568 17.592 389.072 16.68 388.672 16.024L389.68 15.608C390.144 16.28 390.624 17.128 390.848 17.688ZM384.144 15.672L385.2 15.992C384.832 17.064 384.368 18.136 383.856 19.144V30.28H382.752V21.064C382.272 21.832 381.744 22.52 381.232 23.128C381.12 22.872 380.784 22.296 380.576 22.024C382.016 20.472 383.328 18.088 384.144 15.672ZM392.96 26.088H386.96V28.616H392.96V26.088ZM385.92 30.232V25.096H394.016V30.184H392.96V29.608H386.96V30.232H385.92ZM386.144 23.752V22.776H393.856V23.752H386.144ZM393.856 20.536V21.512H386.144V20.536H393.856ZM384.992 18.248H395.12V19.256H384.992V18.248Z" fill="#1C1C1C"/>
<rect x="424.5" y="6.5" width="99" height="31" rx="3.5" stroke="#ACACAC"/>
<path d="M457.152 17.896H444.992V21.848C444.992 24.296 444.8 27.88 443.456 30.28C443.264 30.056 442.784 29.688 442.544 29.544C443.776 27.32 443.888 24.152 443.888 21.848V16.888H449.936C449.808 16.52 449.648 16.136 449.504 15.8L450.656 15.528C450.864 15.944 451.104 16.472 451.248 16.888H457.152V17.896ZM454.096 22.712H453.152V19.864H451.072V18.952H453.152V18.104H454.096V18.952H456.576V19.864H454.096V22.712ZM452.336 20.296V20.936C452.336 21.672 452.224 22.472 451.616 23.064C451.472 22.888 451.168 22.648 450.976 22.536C451.504 22.152 451.6 21.432 451.6 20.904V20.296H452.336ZM456.288 22.744H455.584C454.928 22.744 454.8 22.472 454.8 21.8V20.28H455.568V21.8C455.568 22.088 455.584 22.152 455.776 22.152H456.272C456.416 22.152 456.704 22.152 456.848 22.104C456.864 22.296 456.864 22.52 456.896 22.696C456.768 22.744 456.512 22.744 456.288 22.744ZM448.672 23.096H447.728V19.864H445.696V18.952H447.728V18.104H448.672V18.952H450.64V19.864H448.672V23.096ZM446.848 20.296V20.952C446.848 21.736 446.72 22.6 445.888 23.192C445.744 23.016 445.44 22.76 445.248 22.648C445.984 22.232 446.096 21.496 446.096 20.936V20.296H446.848ZM450.4 22.648H450.048C449.456 22.648 449.344 22.36 449.344 21.72V20.344H450.08V21.736C450.08 21.992 450.096 22.072 450.24 22.072H450.384C450.48 22.072 450.72 22.056 450.864 22.024L450.912 22.6C450.784 22.632 450.56 22.648 450.4 22.648ZM457.2 26.984V27.832H451.792V29.032C451.792 29.688 451.616 29.96 451.104 30.104C450.576 30.248 449.712 30.248 448.336 30.248C448.256 29.96 448.096 29.592 447.952 29.32C448.992 29.352 450 29.352 450.256 29.336C450.528 29.32 450.624 29.24 450.624 29.016V27.832H445.168V26.984H450.624V25.944H446.016V25.112H450.624V24.136C449.232 24.232 447.808 24.296 446.496 24.328C446.48 24.104 446.368 23.768 446.272 23.576C449.28 23.496 452.992 23.24 454.928 22.84L455.696 23.528C454.624 23.752 453.264 23.928 451.792 24.04V25.112H456.464V25.944H451.792V26.984H457.2ZM462.384 15.608V18.68H464.256V19.8H462.384V20.552C462.8 21.112 463.968 22.952 464.24 23.416L463.52 24.264C463.312 23.752 462.816 22.792 462.384 22.008V30.216H461.296V22.392C460.752 24.184 460.016 25.928 459.264 26.984C459.136 26.648 458.832 26.12 458.624 25.848C459.664 24.504 460.672 21.976 461.168 19.8H458.848V18.68H461.296V15.608H462.384ZM466.048 20.28V22.264H470.832V20.28H466.048ZM470.832 17.368H466.048V19.288H470.832V17.368ZM472.128 23.816L472.928 24.648C472.112 25.304 471.056 26.024 470.16 26.536C470.992 27.672 472.064 28.568 473.392 29.096C473.12 29.32 472.768 29.8 472.576 30.104C470 28.936 468.464 26.504 467.632 23.304H466.048V28.632L468.96 27.928C468.944 28.264 468.976 28.712 469.008 28.968C465.712 29.864 465.232 30.024 464.928 30.232C464.848 29.96 464.592 29.464 464.432 29.224C464.64 29.112 464.88 28.888 464.88 28.28V16.312H471.984V23.304H468.656C468.896 24.168 469.232 24.968 469.632 25.688C470.464 25.16 471.488 24.408 472.128 23.816ZM482.688 17.304V17.976C482.688 19.4 482.256 21.112 480.288 22.248C480.144 22.008 479.728 21.56 479.504 21.368C481.28 20.392 481.568 19.08 481.568 17.944V16.184H486.608V19.88C486.608 20.328 486.656 20.488 486.912 20.488H488.144C488.384 20.488 488.736 20.456 488.944 20.408C488.96 20.712 488.992 21.16 489.04 21.432C488.832 21.496 488.496 21.512 488.176 21.512H486.832C485.712 21.512 485.472 21.048 485.472 19.864V17.304H482.688ZM479.776 23.72L478.128 24.216V28.712C478.128 29.384 477.952 29.704 477.536 29.88C477.136 30.072 476.464 30.104 475.376 30.104C475.328 29.8 475.152 29.32 475.008 29C475.776 29.032 476.464 29.016 476.656 29.016C476.88 29.016 476.96 28.936 476.96 28.712V24.584L474.944 25.176L474.592 24.024C475.248 23.864 476.064 23.64 476.96 23.384V19.944H474.784V18.824H476.96V15.624H478.128V18.824H480.112V19.944H478.128V23.064L479.616 22.632L479.776 23.72ZM486.56 23.752H481.632C482.192 24.92 483.04 25.944 484.064 26.808C485.104 25.976 485.984 24.968 486.56 23.752ZM487.392 22.584L488.16 22.936C487.52 24.856 486.416 26.36 485.04 27.512C486.24 28.264 487.68 28.824 489.28 29.16C489.008 29.416 488.688 29.912 488.528 30.248C486.816 29.832 485.296 29.16 484.048 28.248C482.656 29.192 481.04 29.832 479.36 30.264C479.248 29.928 478.992 29.432 478.768 29.176C480.304 28.84 481.792 28.28 483.088 27.48C482 26.472 481.12 25.24 480.48 23.816L480.64 23.752H480.016V22.632H487.168L487.392 22.584ZM500.848 17.688L499.776 18.152C499.568 17.592 499.072 16.68 498.672 16.024L499.68 15.608C500.144 16.28 500.624 17.128 500.848 17.688ZM494.144 15.672L495.2 15.992C494.832 17.064 494.368 18.136 493.856 19.144V30.28H492.752V21.064C492.272 21.832 491.744 22.52 491.232 23.128C491.12 22.872 490.784 22.296 490.576 22.024C492.016 20.472 493.328 18.088 494.144 15.672ZM502.96 26.088H496.96V28.616H502.96V26.088ZM495.92 30.232V25.096H504.016V30.184H502.96V29.608H496.96V30.232H495.92ZM496.144 23.752V22.776H503.856V23.752H496.144ZM503.856 20.536V21.512H496.144V20.536H503.856ZM494.992 18.248H505.12V19.256H494.992V18.248Z" fill="#1C1C1C"/>
<rect x="534.5" y="6.5" width="99" height="31" rx="3.5" stroke="#ACACAC"/>
<path d="M560.528 28.424H567.136V29.592H552.896V28.424H559.28V23.352H554.352V22.184H559.28V17.832H553.68V16.664H566.352V17.832H560.528V22.184H565.728V23.352H560.528V28.424ZM561.984 24.776L562.832 24.104C563.824 25 565.136 26.232 565.792 26.984L564.896 27.768C564.256 27 562.976 25.704 561.984 24.776ZM581.024 18.904H582.24V30.168H581.024V28.984H569.776V18.92H570.992V27.784H575.376V15.8H576.592V27.784H581.024V18.904ZM592.688 17.304V17.976C592.688 19.4 592.256 21.112 590.288 22.248C590.144 22.008 589.728 21.56 589.504 21.368C591.28 20.392 591.568 19.08 591.568 17.944V16.184H596.608V19.88C596.608 20.328 596.656 20.488 596.912 20.488H598.144C598.384 20.488 598.736 20.456 598.944 20.408C598.96 20.712 598.992 21.16 599.04 21.432C598.832 21.496 598.496 21.512 598.176 21.512H596.832C595.712 21.512 595.472 21.048 595.472 19.864V17.304H592.688ZM589.776 23.72L588.128 24.216V28.712C588.128 29.384 587.952 29.704 587.536 29.88C587.136 30.072 586.464 30.104 585.376 30.104C585.328 29.8 585.152 29.32 585.008 29C585.776 29.032 586.464 29.016 586.656 29.016C586.88 29.016 586.96 28.936 586.96 28.712V24.584L584.944 25.176L584.592 24.024C585.248 23.864 586.064 23.64 586.96 23.384V19.944H584.784V18.824H586.96V15.624H588.128V18.824H590.112V19.944H588.128V23.064L589.616 22.632L589.776 23.72ZM596.56 23.752H591.632C592.192 24.92 593.04 25.944 594.064 26.808C595.104 25.976 595.984 24.968 596.56 23.752ZM597.392 22.584L598.16 22.936C597.52 24.856 596.416 26.36 595.04 27.512C596.24 28.264 597.68 28.824 599.28 29.16C599.008 29.416 598.688 29.912 598.528 30.248C596.816 29.832 595.296 29.16 594.048 28.248C592.656 29.192 591.04 29.832 589.36 30.264C589.248 29.928 588.992 29.432 588.768 29.176C590.304 28.84 591.792 28.28 593.088 27.48C592 26.472 591.12 25.24 590.48 23.816L590.64 23.752H590.016V22.632H597.168L597.392 22.584ZM610.848 17.688L609.776 18.152C609.568 17.592 609.072 16.68 608.672 16.024L609.68 15.608C610.144 16.28 610.624 17.128 610.848 17.688ZM604.144 15.672L605.2 15.992C604.832 17.064 604.368 18.136 603.856 19.144V30.28H602.752V21.064C602.272 21.832 601.744 22.52 601.232 23.128C601.12 22.872 600.784 22.296 600.576 22.024C602.016 20.472 603.328 18.088 604.144 15.672ZM612.96 26.088H606.96V28.616H612.96V26.088ZM605.92 30.232V25.096H614.016V30.184H612.96V29.608H606.96V30.232H605.92ZM606.144 23.752V22.776H613.856V23.752H606.144ZM613.856 20.536V21.512H606.144V20.536H613.856ZM604.992 18.248H615.12V19.256H604.992V18.248Z" fill="#1C1C1C"/>
<rect x="0.5" y="48.5" width="99" height="31" rx="3.5" stroke="#ACACAC"/>
<path d="M21.792 59.992L20.992 60.648C20.624 60.072 19.792 59.208 19.104 58.6L19.872 58.04C20.56 58.616 21.408 59.448 21.792 59.992ZM21.328 64.232L20.544 64.936C20.128 64.376 19.296 63.512 18.592 62.92L19.344 62.296C20.048 62.872 20.912 63.688 21.328 64.232ZM19.984 72.008L18.944 71.48C19.408 70.248 20.048 68.2 20.48 66.44L21.424 66.968C21.024 68.616 20.464 70.552 19.984 72.008ZM28.608 66.696L27.92 67.048C27.696 66.456 27.2 65.544 26.736 64.888L27.392 64.6C27.856 65.256 28.384 66.152 28.608 66.696ZM31.84 66.616L31.136 66.936C30.944 66.392 30.432 65.496 30 64.856L30.672 64.6C31.104 65.224 31.632 66.088 31.84 66.616ZM29.984 62.76H32.56C31.552 61.928 30.688 60.952 29.92 59.544C29.264 60.84 28.352 61.96 27.264 62.76H29.568V69.336C30.176 68.808 31.04 68.024 31.888 67.24V63.72H29.984V62.76ZM22.96 64.792V66.072H25.36V64.792H22.96ZM22.96 62.68V63.928H25.36V62.68H22.96ZM29.664 57.56L30.608 57.864C30.544 58.056 30.48 58.232 30.416 58.424C31.248 60.088 32.24 61.144 33.44 61.992C33.2 62.2 32.896 62.488 32.72 62.76H32.816V70.952C32.816 71.48 32.72 71.752 32.352 71.928C31.984 72.104 31.392 72.12 30.464 72.12C30.432 71.848 30.288 71.432 30.16 71.176C30.848 71.192 31.472 71.192 31.632 71.176C31.824 71.176 31.888 71.112 31.888 70.936V68.312C31.248 68.952 30.592 69.592 30.016 70.168L29.568 69.496V70.968C29.568 71.496 29.472 71.784 29.104 71.944C28.752 72.12 28.176 72.12 27.248 72.12C27.216 71.864 27.104 71.464 26.976 71.208C27.648 71.224 28.224 71.224 28.416 71.208C28.592 71.208 28.656 71.144 28.656 70.968V68.536C28.064 69.128 27.472 69.72 26.912 70.232L26.352 69.464L26.464 69.368H24.736V71.944H23.696V69.368H21.52V68.344H23.696V66.968H22.016V61.784H23.696V60.424H21.824V59.416H23.696V57.88H24.752V59.416H26.528V60.424H24.752V61.784H26.336V66.968H24.736V68.344H26.704V69.176C27.248 68.712 27.968 68.056 28.656 67.416V63.72H26.912V62.76H27.008C26.816 62.504 26.56 62.232 26.336 62.04C27.856 61.096 29.072 59.432 29.664 57.56ZM37.168 66.536H40.768V70.44H43.136V66.52H46.768V63.24H43.136V59.736H40.752V63.272H37.168V66.536ZM44.288 70.44H49.136V71.528H34.864V70.44H39.616V67.576H36.016V62.232H39.616V59.736H35.296V58.632H48.752V59.736H44.288V62.216H47.968V67.56H47.392V67.576H44.288V70.44ZM58.688 59.304V59.976C58.688 61.4 58.256 63.112 56.288 64.248C56.144 64.008 55.728 63.56 55.504 63.368C57.28 62.392 57.568 61.08 57.568 59.944V58.184H62.608V61.88C62.608 62.328 62.656 62.488 62.912 62.488H64.144C64.384 62.488 64.736 62.456 64.944 62.408C64.96 62.712 64.992 63.16 65.04 63.432C64.832 63.496 64.496 63.512 64.176 63.512H62.832C61.712 63.512 61.472 63.048 61.472 61.864V59.304H58.688ZM55.776 65.72L54.128 66.216V70.712C54.128 71.384 53.952 71.704 53.536 71.88C53.136 72.072 52.464 72.104 51.376 72.104C51.328 71.8 51.152 71.32 51.008 71C51.776 71.032 52.464 71.016 52.656 71.016C52.88 71.016 52.96 70.936 52.96 70.712V66.584L50.944 67.176L50.592 66.024C51.248 65.864 52.064 65.64 52.96 65.384V61.944H50.784V60.824H52.96V57.624H54.128V60.824H56.112V61.944H54.128V65.064L55.616 64.632L55.776 65.72ZM62.56 65.752H57.632C58.192 66.92 59.04 67.944 60.064 68.808C61.104 67.976 61.984 66.968 62.56 65.752ZM63.392 64.584L64.16 64.936C63.52 66.856 62.416 68.36 61.04 69.512C62.24 70.264 63.68 70.824 65.28 71.16C65.008 71.416 64.688 71.912 64.528 72.248C62.816 71.832 61.296 71.16 60.048 70.248C58.656 71.192 57.04 71.832 55.36 72.264C55.248 71.928 54.992 71.432 54.768 71.176C56.304 70.84 57.792 70.28 59.088 69.48C58 68.472 57.12 67.24 56.48 65.816L56.64 65.752H56.016V64.632H63.168L63.392 64.584ZM76.848 59.688L75.776 60.152C75.568 59.592 75.072 58.68 74.672 58.024L75.68 57.608C76.144 58.28 76.624 59.128 76.848 59.688ZM70.144 57.672L71.2 57.992C70.832 59.064 70.368 60.136 69.856 61.144V72.28H68.752V63.064C68.272 63.832 67.744 64.52 67.232 65.128C67.12 64.872 66.784 64.296 66.576 64.024C68.016 62.472 69.328 60.088 70.144 57.672ZM78.96 68.088H72.96V70.616H78.96V68.088ZM71.92 72.232V67.096H80.016V72.184H78.96V71.608H72.96V72.232H71.92ZM72.144 65.752V64.776H79.856V65.752H72.144ZM79.856 62.536V63.512H72.144V62.536H79.856ZM70.992 60.248H81.12V61.256H70.992V60.248Z" fill="#1C1C1C"/>
<rect x="110.5" y="48.5" width="99" height="31" rx="3.5" stroke="#ACACAC"/>
<path d="M131.792 59.992L130.992 60.648C130.624 60.072 129.792 59.208 129.104 58.6L129.872 58.04C130.56 58.616 131.408 59.448 131.792 59.992ZM131.328 64.232L130.544 64.936C130.128 64.376 129.296 63.512 128.592 62.92L129.344 62.296C130.048 62.872 130.912 63.688 131.328 64.232ZM129.984 72.008L128.944 71.48C129.408 70.248 130.048 68.2 130.48 66.44L131.424 66.968C131.024 68.616 130.464 70.552 129.984 72.008ZM138.608 66.696L137.92 67.048C137.696 66.456 137.2 65.544 136.736 64.888L137.392 64.6C137.856 65.256 138.384 66.152 138.608 66.696ZM141.84 66.616L141.136 66.936C140.944 66.392 140.432 65.496 140 64.856L140.672 64.6C141.104 65.224 141.632 66.088 141.84 66.616ZM139.984 62.76H142.56C141.552 61.928 140.688 60.952 139.92 59.544C139.264 60.84 138.352 61.96 137.264 62.76H139.568V69.336C140.176 68.808 141.04 68.024 141.888 67.24V63.72H139.984V62.76ZM132.96 64.792V66.072H135.36V64.792H132.96ZM132.96 62.68V63.928H135.36V62.68H132.96ZM139.664 57.56L140.608 57.864C140.544 58.056 140.48 58.232 140.416 58.424C141.248 60.088 142.24 61.144 143.44 61.992C143.2 62.2 142.896 62.488 142.72 62.76H142.816V70.952C142.816 71.48 142.72 71.752 142.352 71.928C141.984 72.104 141.392 72.12 140.464 72.12C140.432 71.848 140.288 71.432 140.16 71.176C140.848 71.192 141.472 71.192 141.632 71.176C141.824 71.176 141.888 71.112 141.888 70.936V68.312C141.248 68.952 140.592 69.592 140.016 70.168L139.568 69.496V70.968C139.568 71.496 139.472 71.784 139.104 71.944C138.752 72.12 138.176 72.12 137.248 72.12C137.216 71.864 137.104 71.464 136.976 71.208C137.648 71.224 138.224 71.224 138.416 71.208C138.592 71.208 138.656 71.144 138.656 70.968V68.536C138.064 69.128 137.472 69.72 136.912 70.232L136.352 69.464L136.464 69.368H134.736V71.944H133.696V69.368H131.52V68.344H133.696V66.968H132.016V61.784H133.696V60.424H131.824V59.416H133.696V57.88H134.752V59.416H136.528V60.424H134.752V61.784H136.336V66.968H134.736V68.344H136.704V69.176C137.248 68.712 137.968 68.056 138.656 67.416V63.72H136.912V62.76H137.008C136.816 62.504 136.56 62.232 136.336 62.04C137.856 61.096 139.072 59.432 139.664 57.56ZM147.168 66.536H150.768V70.44H153.136V66.52H156.768V63.24H153.136V59.736H150.752V63.272H147.168V66.536ZM154.288 70.44H159.136V71.528H144.864V70.44H149.616V67.576H146.016V62.232H149.616V59.736H145.296V58.632H158.752V59.736H154.288V62.216H157.968V67.56H157.392V67.576H154.288V70.44ZM168.688 59.304V59.976C168.688 61.4 168.256 63.112 166.288 64.248C166.144 64.008 165.728 63.56 165.504 63.368C167.28 62.392 167.568 61.08 167.568 59.944V58.184H172.608V61.88C172.608 62.328 172.656 62.488 172.912 62.488H174.144C174.384 62.488 174.736 62.456 174.944 62.408C174.96 62.712 174.992 63.16 175.04 63.432C174.832 63.496 174.496 63.512 174.176 63.512H172.832C171.712 63.512 171.472 63.048 171.472 61.864V59.304H168.688ZM165.776 65.72L164.128 66.216V70.712C164.128 71.384 163.952 71.704 163.536 71.88C163.136 72.072 162.464 72.104 161.376 72.104C161.328 71.8 161.152 71.32 161.008 71C161.776 71.032 162.464 71.016 162.656 71.016C162.88 71.016 162.96 70.936 162.96 70.712V66.584L160.944 67.176L160.592 66.024C161.248 65.864 162.064 65.64 162.96 65.384V61.944H160.784V60.824H162.96V57.624H164.128V60.824H166.112V61.944H164.128V65.064L165.616 64.632L165.776 65.72ZM172.56 65.752H167.632C168.192 66.92 169.04 67.944 170.064 68.808C171.104 67.976 171.984 66.968 172.56 65.752ZM173.392 64.584L174.16 64.936C173.52 66.856 172.416 68.36 171.04 69.512C172.24 70.264 173.68 70.824 175.28 71.16C175.008 71.416 174.688 71.912 174.528 72.248C172.816 71.832 171.296 71.16 170.048 70.248C168.656 71.192 167.04 71.832 165.36 72.264C165.248 71.928 164.992 71.432 164.768 71.176C166.304 70.84 167.792 70.28 169.088 69.48C168 68.472 167.12 67.24 166.48 65.816L166.64 65.752H166.016V64.632H173.168L173.392 64.584ZM186.848 59.688L185.776 60.152C185.568 59.592 185.072 58.68 184.672 58.024L185.68 57.608C186.144 58.28 186.624 59.128 186.848 59.688ZM180.144 57.672L181.2 57.992C180.832 59.064 180.368 60.136 179.856 61.144V72.28H178.752V63.064C178.272 63.832 177.744 64.52 177.232 65.128C177.12 64.872 176.784 64.296 176.576 64.024C178.016 62.472 179.328 60.088 180.144 57.672ZM188.96 68.088H182.96V70.616H188.96V68.088ZM181.92 72.232V67.096H190.016V72.184H188.96V71.608H182.96V72.232H181.92ZM182.144 65.752V64.776H189.856V65.752H182.144ZM189.856 62.536V63.512H182.144V62.536H189.856ZM180.992 60.248H191.12V61.256H180.992V60.248Z" fill="#1C1C1C"/>
<rect x="220.5" y="48.5" width="99" height="31" rx="3.5" stroke="#ACACAC"/>
<path d="M241.792 59.992L240.992 60.648C240.624 60.072 239.792 59.208 239.104 58.6L239.872 58.04C240.56 58.616 241.408 59.448 241.792 59.992ZM241.328 64.232L240.544 64.936C240.128 64.376 239.296 63.512 238.592 62.92L239.344 62.296C240.048 62.872 240.912 63.688 241.328 64.232ZM239.984 72.008L238.944 71.48C239.408 70.248 240.048 68.2 240.48 66.44L241.424 66.968C241.024 68.616 240.464 70.552 239.984 72.008ZM248.608 66.696L247.92 67.048C247.696 66.456 247.2 65.544 246.736 64.888L247.392 64.6C247.856 65.256 248.384 66.152 248.608 66.696ZM251.84 66.616L251.136 66.936C250.944 66.392 250.432 65.496 250 64.856L250.672 64.6C251.104 65.224 251.632 66.088 251.84 66.616ZM249.984 62.76H252.56C251.552 61.928 250.688 60.952 249.92 59.544C249.264 60.84 248.352 61.96 247.264 62.76H249.568V69.336C250.176 68.808 251.04 68.024 251.888 67.24V63.72H249.984V62.76ZM242.96 64.792V66.072H245.36V64.792H242.96ZM242.96 62.68V63.928H245.36V62.68H242.96ZM249.664 57.56L250.608 57.864C250.544 58.056 250.48 58.232 250.416 58.424C251.248 60.088 252.24 61.144 253.44 61.992C253.2 62.2 252.896 62.488 252.72 62.76H252.816V70.952C252.816 71.48 252.72 71.752 252.352 71.928C251.984 72.104 251.392 72.12 250.464 72.12C250.432 71.848 250.288 71.432 250.16 71.176C250.848 71.192 251.472 71.192 251.632 71.176C251.824 71.176 251.888 71.112 251.888 70.936V68.312C251.248 68.952 250.592 69.592 250.016 70.168L249.568 69.496V70.968C249.568 71.496 249.472 71.784 249.104 71.944C248.752 72.12 248.176 72.12 247.248 72.12C247.216 71.864 247.104 71.464 246.976 71.208C247.648 71.224 248.224 71.224 248.416 71.208C248.592 71.208 248.656 71.144 248.656 70.968V68.536C248.064 69.128 247.472 69.72 246.912 70.232L246.352 69.464L246.464 69.368H244.736V71.944H243.696V69.368H241.52V68.344H243.696V66.968H242.016V61.784H243.696V60.424H241.824V59.416H243.696V57.88H244.752V59.416H246.528V60.424H244.752V61.784H246.336V66.968H244.736V68.344H246.704V69.176C247.248 68.712 247.968 68.056 248.656 67.416V63.72H246.912V62.76H247.008C246.816 62.504 246.56 62.232 246.336 62.04C247.856 61.096 249.072 59.432 249.664 57.56ZM257.168 66.536H260.768V70.44H263.136V66.52H266.768V63.24H263.136V59.736H260.752V63.272H257.168V66.536ZM264.288 70.44H269.136V71.528H254.864V70.44H259.616V67.576H256.016V62.232H259.616V59.736H255.296V58.632H268.752V59.736H264.288V62.216H267.968V67.56H267.392V67.576H264.288V70.44ZM278.688 59.304V59.976C278.688 61.4 278.256 63.112 276.288 64.248C276.144 64.008 275.728 63.56 275.504 63.368C277.28 62.392 277.568 61.08 277.568 59.944V58.184H282.608V61.88C282.608 62.328 282.656 62.488 282.912 62.488H284.144C284.384 62.488 284.736 62.456 284.944 62.408C284.96 62.712 284.992 63.16 285.04 63.432C284.832 63.496 284.496 63.512 284.176 63.512H282.832C281.712 63.512 281.472 63.048 281.472 61.864V59.304H278.688ZM275.776 65.72L274.128 66.216V70.712C274.128 71.384 273.952 71.704 273.536 71.88C273.136 72.072 272.464 72.104 271.376 72.104C271.328 71.8 271.152 71.32 271.008 71C271.776 71.032 272.464 71.016 272.656 71.016C272.88 71.016 272.96 70.936 272.96 70.712V66.584L270.944 67.176L270.592 66.024C271.248 65.864 272.064 65.64 272.96 65.384V61.944H270.784V60.824H272.96V57.624H274.128V60.824H276.112V61.944H274.128V65.064L275.616 64.632L275.776 65.72ZM282.56 65.752H277.632C278.192 66.92 279.04 67.944 280.064 68.808C281.104 67.976 281.984 66.968 282.56 65.752ZM283.392 64.584L284.16 64.936C283.52 66.856 282.416 68.36 281.04 69.512C282.24 70.264 283.68 70.824 285.28 71.16C285.008 71.416 284.688 71.912 284.528 72.248C282.816 71.832 281.296 71.16 280.048 70.248C278.656 71.192 277.04 71.832 275.36 72.264C275.248 71.928 274.992 71.432 274.768 71.176C276.304 70.84 277.792 70.28 279.088 69.48C278 68.472 277.12 67.24 276.48 65.816L276.64 65.752H276.016V64.632H283.168L283.392 64.584ZM296.848 59.688L295.776 60.152C295.568 59.592 295.072 58.68 294.672 58.024L295.68 57.608C296.144 58.28 296.624 59.128 296.848 59.688ZM290.144 57.672L291.2 57.992C290.832 59.064 290.368 60.136 289.856 61.144V72.28H288.752V63.064C288.272 63.832 287.744 64.52 287.232 65.128C287.12 64.872 286.784 64.296 286.576 64.024C288.016 62.472 289.328 60.088 290.144 57.672ZM298.96 68.088H292.96V70.616H298.96V68.088ZM291.92 72.232V67.096H300.016V72.184H298.96V71.608H292.96V72.232H291.92ZM292.144 65.752V64.776H299.856V65.752H292.144ZM299.856 62.536V63.512H292.144V62.536H299.856ZM290.992 60.248H301.12V61.256H290.992V60.248Z" fill="#1C1C1C"/>
<rect x="330.5" y="48.5" width="99" height="31" rx="3.5" stroke="#ACACAC"/>
<path d="M351.792 59.992L350.992 60.648C350.624 60.072 349.792 59.208 349.104 58.6L349.872 58.04C350.56 58.616 351.408 59.448 351.792 59.992ZM351.328 64.232L350.544 64.936C350.128 64.376 349.296 63.512 348.592 62.92L349.344 62.296C350.048 62.872 350.912 63.688 351.328 64.232ZM349.984 72.008L348.944 71.48C349.408 70.248 350.048 68.2 350.48 66.44L351.424 66.968C351.024 68.616 350.464 70.552 349.984 72.008ZM358.608 66.696L357.92 67.048C357.696 66.456 357.2 65.544 356.736 64.888L357.392 64.6C357.856 65.256 358.384 66.152 358.608 66.696ZM361.84 66.616L361.136 66.936C360.944 66.392 360.432 65.496 360 64.856L360.672 64.6C361.104 65.224 361.632 66.088 361.84 66.616ZM359.984 62.76H362.56C361.552 61.928 360.688 60.952 359.92 59.544C359.264 60.84 358.352 61.96 357.264 62.76H359.568V69.336C360.176 68.808 361.04 68.024 361.888 67.24V63.72H359.984V62.76ZM352.96 64.792V66.072H355.36V64.792H352.96ZM352.96 62.68V63.928H355.36V62.68H352.96ZM359.664 57.56L360.608 57.864C360.544 58.056 360.48 58.232 360.416 58.424C361.248 60.088 362.24 61.144 363.44 61.992C363.2 62.2 362.896 62.488 362.72 62.76H362.816V70.952C362.816 71.48 362.72 71.752 362.352 71.928C361.984 72.104 361.392 72.12 360.464 72.12C360.432 71.848 360.288 71.432 360.16 71.176C360.848 71.192 361.472 71.192 361.632 71.176C361.824 71.176 361.888 71.112 361.888 70.936V68.312C361.248 68.952 360.592 69.592 360.016 70.168L359.568 69.496V70.968C359.568 71.496 359.472 71.784 359.104 71.944C358.752 72.12 358.176 72.12 357.248 72.12C357.216 71.864 357.104 71.464 356.976 71.208C357.648 71.224 358.224 71.224 358.416 71.208C358.592 71.208 358.656 71.144 358.656 70.968V68.536C358.064 69.128 357.472 69.72 356.912 70.232L356.352 69.464L356.464 69.368H354.736V71.944H353.696V69.368H351.52V68.344H353.696V66.968H352.016V61.784H353.696V60.424H351.824V59.416H353.696V57.88H354.752V59.416H356.528V60.424H354.752V61.784H356.336V66.968H354.736V68.344H356.704V69.176C357.248 68.712 357.968 68.056 358.656 67.416V63.72H356.912V62.76H357.008C356.816 62.504 356.56 62.232 356.336 62.04C357.856 61.096 359.072 59.432 359.664 57.56ZM367.168 66.536H370.768V70.44H373.136V66.52H376.768V63.24H373.136V59.736H370.752V63.272H367.168V66.536ZM374.288 70.44H379.136V71.528H364.864V70.44H369.616V67.576H366.016V62.232H369.616V59.736H365.296V58.632H378.752V59.736H374.288V62.216H377.968V67.56H377.392V67.576H374.288V70.44ZM388.688 59.304V59.976C388.688 61.4 388.256 63.112 386.288 64.248C386.144 64.008 385.728 63.56 385.504 63.368C387.28 62.392 387.568 61.08 387.568 59.944V58.184H392.608V61.88C392.608 62.328 392.656 62.488 392.912 62.488H394.144C394.384 62.488 394.736 62.456 394.944 62.408C394.96 62.712 394.992 63.16 395.04 63.432C394.832 63.496 394.496 63.512 394.176 63.512H392.832C391.712 63.512 391.472 63.048 391.472 61.864V59.304H388.688ZM385.776 65.72L384.128 66.216V70.712C384.128 71.384 383.952 71.704 383.536 71.88C383.136 72.072 382.464 72.104 381.376 72.104C381.328 71.8 381.152 71.32 381.008 71C381.776 71.032 382.464 71.016 382.656 71.016C382.88 71.016 382.96 70.936 382.96 70.712V66.584L380.944 67.176L380.592 66.024C381.248 65.864 382.064 65.64 382.96 65.384V61.944H380.784V60.824H382.96V57.624H384.128V60.824H386.112V61.944H384.128V65.064L385.616 64.632L385.776 65.72ZM392.56 65.752H387.632C388.192 66.92 389.04 67.944 390.064 68.808C391.104 67.976 391.984 66.968 392.56 65.752ZM393.392 64.584L394.16 64.936C393.52 66.856 392.416 68.36 391.04 69.512C392.24 70.264 393.68 70.824 395.28 71.16C395.008 71.416 394.688 71.912 394.528 72.248C392.816 71.832 391.296 71.16 390.048 70.248C388.656 71.192 387.04 71.832 385.36 72.264C385.248 71.928 384.992 71.432 384.768 71.176C386.304 70.84 387.792 70.28 389.088 69.48C388 68.472 387.12 67.24 386.48 65.816L386.64 65.752H386.016V64.632H393.168L393.392 64.584ZM406.848 59.688L405.776 60.152C405.568 59.592 405.072 58.68 404.672 58.024L405.68 57.608C406.144 58.28 406.624 59.128 406.848 59.688ZM400.144 57.672L401.2 57.992C400.832 59.064 400.368 60.136 399.856 61.144V72.28H398.752V63.064C398.272 63.832 397.744 64.52 397.232 65.128C397.12 64.872 396.784 64.296 396.576 64.024C398.016 62.472 399.328 60.088 400.144 57.672ZM408.96 68.088H402.96V70.616H408.96V68.088ZM401.92 72.232V67.096H410.016V72.184H408.96V71.608H402.96V72.232H401.92ZM402.144 65.752V64.776H409.856V65.752H402.144ZM409.856 62.536V63.512H402.144V62.536H409.856ZM400.992 60.248H411.12V61.256H400.992V60.248Z" fill="#1C1C1C"/>
<rect x="440.5" y="48.5" width="99" height="31" rx="3.5" stroke="#ACACAC"/>
<path d="M461.792 59.992L460.992 60.648C460.624 60.072 459.792 59.208 459.104 58.6L459.872 58.04C460.56 58.616 461.408 59.448 461.792 59.992ZM461.328 64.232L460.544 64.936C460.128 64.376 459.296 63.512 458.592 62.92L459.344 62.296C460.048 62.872 460.912 63.688 461.328 64.232ZM459.984 72.008L458.944 71.48C459.408 70.248 460.048 68.2 460.48 66.44L461.424 66.968C461.024 68.616 460.464 70.552 459.984 72.008ZM468.608 66.696L467.92 67.048C467.696 66.456 467.2 65.544 466.736 64.888L467.392 64.6C467.856 65.256 468.384 66.152 468.608 66.696ZM471.84 66.616L471.136 66.936C470.944 66.392 470.432 65.496 470 64.856L470.672 64.6C471.104 65.224 471.632 66.088 471.84 66.616ZM469.984 62.76H472.56C471.552 61.928 470.688 60.952 469.92 59.544C469.264 60.84 468.352 61.96 467.264 62.76H469.568V69.336C470.176 68.808 471.04 68.024 471.888 67.24V63.72H469.984V62.76ZM462.96 64.792V66.072H465.36V64.792H462.96ZM462.96 62.68V63.928H465.36V62.68H462.96ZM469.664 57.56L470.608 57.864C470.544 58.056 470.48 58.232 470.416 58.424C471.248 60.088 472.24 61.144 473.44 61.992C473.2 62.2 472.896 62.488 472.72 62.76H472.816V70.952C472.816 71.48 472.72 71.752 472.352 71.928C471.984 72.104 471.392 72.12 470.464 72.12C470.432 71.848 470.288 71.432 470.16 71.176C470.848 71.192 471.472 71.192 471.632 71.176C471.824 71.176 471.888 71.112 471.888 70.936V68.312C471.248 68.952 470.592 69.592 470.016 70.168L469.568 69.496V70.968C469.568 71.496 469.472 71.784 469.104 71.944C468.752 72.12 468.176 72.12 467.248 72.12C467.216 71.864 467.104 71.464 466.976 71.208C467.648 71.224 468.224 71.224 468.416 71.208C468.592 71.208 468.656 71.144 468.656 70.968V68.536C468.064 69.128 467.472 69.72 466.912 70.232L466.352 69.464L466.464 69.368H464.736V71.944H463.696V69.368H461.52V68.344H463.696V66.968H462.016V61.784H463.696V60.424H461.824V59.416H463.696V57.88H464.752V59.416H466.528V60.424H464.752V61.784H466.336V66.968H464.736V68.344H466.704V69.176C467.248 68.712 467.968 68.056 468.656 67.416V63.72H466.912V62.76H467.008C466.816 62.504 466.56 62.232 466.336 62.04C467.856 61.096 469.072 59.432 469.664 57.56ZM477.168 66.536H480.768V70.44H483.136V66.52H486.768V63.24H483.136V59.736H480.752V63.272H477.168V66.536ZM484.288 70.44H489.136V71.528H474.864V70.44H479.616V67.576H476.016V62.232H479.616V59.736H475.296V58.632H488.752V59.736H484.288V62.216H487.968V67.56H487.392V67.576H484.288V70.44ZM498.688 59.304V59.976C498.688 61.4 498.256 63.112 496.288 64.248C496.144 64.008 495.728 63.56 495.504 63.368C497.28 62.392 497.568 61.08 497.568 59.944V58.184H502.608V61.88C502.608 62.328 502.656 62.488 502.912 62.488H504.144C504.384 62.488 504.736 62.456 504.944 62.408C504.96 62.712 504.992 63.16 505.04 63.432C504.832 63.496 504.496 63.512 504.176 63.512H502.832C501.712 63.512 501.472 63.048 501.472 61.864V59.304H498.688ZM495.776 65.72L494.128 66.216V70.712C494.128 71.384 493.952 71.704 493.536 71.88C493.136 72.072 492.464 72.104 491.376 72.104C491.328 71.8 491.152 71.32 491.008 71C491.776 71.032 492.464 71.016 492.656 71.016C492.88 71.016 492.96 70.936 492.96 70.712V66.584L490.944 67.176L490.592 66.024C491.248 65.864 492.064 65.64 492.96 65.384V61.944H490.784V60.824H492.96V57.624H494.128V60.824H496.112V61.944H494.128V65.064L495.616 64.632L495.776 65.72ZM502.56 65.752H497.632C498.192 66.92 499.04 67.944 500.064 68.808C501.104 67.976 501.984 66.968 502.56 65.752ZM503.392 64.584L504.16 64.936C503.52 66.856 502.416 68.36 501.04 69.512C502.24 70.264 503.68 70.824 505.28 71.16C505.008 71.416 504.688 71.912 504.528 72.248C502.816 71.832 501.296 71.16 500.048 70.248C498.656 71.192 497.04 71.832 495.36 72.264C495.248 71.928 494.992 71.432 494.768 71.176C496.304 70.84 497.792 70.28 499.088 69.48C498 68.472 497.12 67.24 496.48 65.816L496.64 65.752H496.016V64.632H503.168L503.392 64.584ZM516.848 59.688L515.776 60.152C515.568 59.592 515.072 58.68 514.672 58.024L515.68 57.608C516.144 58.28 516.624 59.128 516.848 59.688ZM510.144 57.672L511.2 57.992C510.832 59.064 510.368 60.136 509.856 61.144V72.28H508.752V63.064C508.272 63.832 507.744 64.52 507.232 65.128C507.12 64.872 506.784 64.296 506.576 64.024C508.016 62.472 509.328 60.088 510.144 57.672ZM518.96 68.088H512.96V70.616H518.96V68.088ZM511.92 72.232V67.096H520.016V72.184H518.96V71.608H512.96V72.232H511.92ZM512.144 65.752V64.776H519.856V65.752H512.144ZM519.856 62.536V63.512H512.144V62.536H519.856ZM510.992 60.248H521.12V61.256H510.992V60.248Z" fill="#1C1C1C"/>
<rect x="550.5" y="48.5" width="99" height="31" rx="3.5" stroke="#ACACAC"/>
<path d="M571.792 59.992L570.992 60.648C570.624 60.072 569.792 59.208 569.104 58.6L569.872 58.04C570.56 58.616 571.408 59.448 571.792 59.992ZM571.328 64.232L570.544 64.936C570.128 64.376 569.296 63.512 568.592 62.92L569.344 62.296C570.048 62.872 570.912 63.688 571.328 64.232ZM569.984 72.008L568.944 71.48C569.408 70.248 570.048 68.2 570.48 66.44L571.424 66.968C571.024 68.616 570.464 70.552 569.984 72.008ZM578.608 66.696L577.92 67.048C577.696 66.456 577.2 65.544 576.736 64.888L577.392 64.6C577.856 65.256 578.384 66.152 578.608 66.696ZM581.84 66.616L581.136 66.936C580.944 66.392 580.432 65.496 580 64.856L580.672 64.6C581.104 65.224 581.632 66.088 581.84 66.616ZM579.984 62.76H582.56C581.552 61.928 580.688 60.952 579.92 59.544C579.264 60.84 578.352 61.96 577.264 62.76H579.568V69.336C580.176 68.808 581.04 68.024 581.888 67.24V63.72H579.984V62.76ZM572.96 64.792V66.072H575.36V64.792H572.96ZM572.96 62.68V63.928H575.36V62.68H572.96ZM579.664 57.56L580.608 57.864C580.544 58.056 580.48 58.232 580.416 58.424C581.248 60.088 582.24 61.144 583.44 61.992C583.2 62.2 582.896 62.488 582.72 62.76H582.816V70.952C582.816 71.48 582.72 71.752 582.352 71.928C581.984 72.104 581.392 72.12 580.464 72.12C580.432 71.848 580.288 71.432 580.16 71.176C580.848 71.192 581.472 71.192 581.632 71.176C581.824 71.176 581.888 71.112 581.888 70.936V68.312C581.248 68.952 580.592 69.592 580.016 70.168L579.568 69.496V70.968C579.568 71.496 579.472 71.784 579.104 71.944C578.752 72.12 578.176 72.12 577.248 72.12C577.216 71.864 577.104 71.464 576.976 71.208C577.648 71.224 578.224 71.224 578.416 71.208C578.592 71.208 578.656 71.144 578.656 70.968V68.536C578.064 69.128 577.472 69.72 576.912 70.232L576.352 69.464L576.464 69.368H574.736V71.944H573.696V69.368H571.52V68.344H573.696V66.968H572.016V61.784H573.696V60.424H571.824V59.416H573.696V57.88H574.752V59.416H576.528V60.424H574.752V61.784H576.336V66.968H574.736V68.344H576.704V69.176C577.248 68.712 577.968 68.056 578.656 67.416V63.72H576.912V62.76H577.008C576.816 62.504 576.56 62.232 576.336 62.04C577.856 61.096 579.072 59.432 579.664 57.56ZM587.168 66.536H590.768V70.44H593.136V66.52H596.768V63.24H593.136V59.736H590.752V63.272H587.168V66.536ZM594.288 70.44H599.136V71.528H584.864V70.44H589.616V67.576H586.016V62.232H589.616V59.736H585.296V58.632H598.752V59.736H594.288V62.216H597.968V67.56H597.392V67.576H594.288V70.44ZM608.688 59.304V59.976C608.688 61.4 608.256 63.112 606.288 64.248C606.144 64.008 605.728 63.56 605.504 63.368C607.28 62.392 607.568 61.08 607.568 59.944V58.184H612.608V61.88C612.608 62.328 612.656 62.488 612.912 62.488H614.144C614.384 62.488 614.736 62.456 614.944 62.408C614.96 62.712 614.992 63.16 615.04 63.432C614.832 63.496 614.496 63.512 614.176 63.512H612.832C611.712 63.512 611.472 63.048 611.472 61.864V59.304H608.688ZM605.776 65.72L604.128 66.216V70.712C604.128 71.384 603.952 71.704 603.536 71.88C603.136 72.072 602.464 72.104 601.376 72.104C601.328 71.8 601.152 71.32 601.008 71C601.776 71.032 602.464 71.016 602.656 71.016C602.88 71.016 602.96 70.936 602.96 70.712V66.584L600.944 67.176L600.592 66.024C601.248 65.864 602.064 65.64 602.96 65.384V61.944H600.784V60.824H602.96V57.624H604.128V60.824H606.112V61.944H604.128V65.064L605.616 64.632L605.776 65.72ZM612.56 65.752H607.632C608.192 66.92 609.04 67.944 610.064 68.808C611.104 67.976 611.984 66.968 612.56 65.752ZM613.392 64.584L614.16 64.936C613.52 66.856 612.416 68.36 611.04 69.512C612.24 70.264 613.68 70.824 615.28 71.16C615.008 71.416 614.688 71.912 614.528 72.248C612.816 71.832 611.296 71.16 610.048 70.248C608.656 71.192 607.04 71.832 605.36 72.264C605.248 71.928 604.992 71.432 604.768 71.176C606.304 70.84 607.792 70.28 609.088 69.48C608 68.472 607.12 67.24 606.48 65.816L606.64 65.752H606.016V64.632H613.168L613.392 64.584ZM626.848 59.688L625.776 60.152C625.568 59.592 625.072 58.68 624.672 58.024L625.68 57.608C626.144 58.28 626.624 59.128 626.848 59.688ZM620.144 57.672L621.2 57.992C620.832 59.064 620.368 60.136 619.856 61.144V72.28H618.752V63.064C618.272 63.832 617.744 64.52 617.232 65.128C617.12 64.872 616.784 64.296 616.576 64.024C618.016 62.472 619.328 60.088 620.144 57.672ZM628.96 68.088H622.96V70.616H628.96V68.088ZM621.92 72.232V67.096H630.016V72.184H628.96V71.608H622.96V72.232H621.92ZM622.144 65.752V64.776H629.856V65.752H622.144ZM629.856 62.536V63.512H622.144V62.536H629.856ZM620.992 60.248H631.12V61.256H620.992V60.248Z" fill="#1C1C1C"/>
<rect x="0.5" y="90.5" width="67" height="31" rx="3.5" stroke="#00A19B"/>
<path d="M23.2 108.68V99.864H24.368V114.248H23.2V109.816C20.288 110.888 19.824 111.112 19.52 111.368C19.44 111.064 19.2 110.536 19.04 110.28C19.264 110.136 19.584 109.832 19.584 109.208V101.384H20.752V109.496L23.2 108.68ZM27.392 103.832L27.296 104.072C27.76 105.864 28.384 107.56 29.232 109.032C30 107.592 30.512 105.848 30.848 103.832H27.392ZM33.232 103.832H32.048C31.6 106.36 30.944 108.424 29.92 110.136C30.864 111.448 32 112.52 33.376 113.192C33.104 113.432 32.72 113.848 32.544 114.168C31.248 113.448 30.16 112.408 29.248 111.144C28.304 112.408 27.104 113.432 25.584 114.248C25.456 113.992 25.072 113.512 24.816 113.272C26.416 112.488 27.648 111.432 28.576 110.104C27.792 108.76 27.152 107.224 26.672 105.544C26.304 106.312 25.872 107 25.408 107.592C25.232 107.352 24.816 106.824 24.56 106.6C25.92 104.984 26.768 102.376 27.216 99.608L28.432 99.816C28.256 100.808 28.016 101.784 27.76 102.712H33.232V103.832ZM45.792 108.888H38.368V112.2H45.792V108.888ZM37.168 114.2V107.832H47.024V114.136H45.792V113.304H38.368V114.2H37.168ZM38.432 104.808H45.984C44.576 103.944 43.296 102.936 42.096 101.656C41.056 102.856 39.792 103.912 38.432 104.808ZM42.256 99.576L43.296 100.088C43.136 100.344 42.96 100.568 42.784 100.808C44.656 102.792 46.88 104.104 49.424 105.176C49.12 105.432 48.784 105.88 48.608 106.248C47.696 105.8 46.832 105.352 46.016 104.824V105.912H38V105.096C37.2 105.576 36.384 106.024 35.552 106.392C35.344 106.072 35.024 105.624 34.688 105.352C37.712 104.152 40.64 102.04 42.256 99.576Z" fill="#00A19B"/>
</svg>
