<svg width="100" height="32" viewBox="0 0 100 32" fill="none" xmlns="http://www.w3.org/2000/svg">
<rect x="0.5" y="0.5" width="99" height="31" rx="3.5" stroke="#ACACAC"/>
<path d="M20.16 13.04V14.816H25.04V13.04H20.16ZM20.16 10.352V12.096H25.04V10.352H20.16ZM19.152 9.36H26.08V15.808H19.152V9.36ZM19.136 17.616H26.08V18.704H19.136V17.616ZM18.608 21.488C19.2587 21.4133 20.0053 21.3227 20.848 21.216C21.7013 21.0987 22.608 20.976 23.568 20.848C24.5387 20.72 25.5093 20.592 26.48 20.464L26.496 21.52C25.5787 21.6587 24.6507 21.7973 23.712 21.936C22.784 22.0747 21.8987 22.208 21.056 22.336C20.2133 22.464 19.4507 22.576 18.768 22.672L18.608 21.488ZM26.608 9.392H32.432V10.48H26.608V9.392ZM26.416 14.528H32.672V15.68H26.416V14.528ZM31.936 9.392H32.224L32.464 9.328L33.264 9.856C32.9867 10.272 32.6613 10.6987 32.288 11.136C31.9253 11.5733 31.5413 11.984 31.136 12.368C30.7307 12.752 30.3253 13.0933 29.92 13.392C29.8453 13.2747 29.7387 13.152 29.6 13.024C29.4613 12.8853 29.344 12.7787 29.248 12.704C29.5893 12.4373 29.9253 12.128 30.256 11.776C30.5973 11.4133 30.9173 11.0453 31.216 10.672C31.5147 10.288 31.7547 9.936 31.936 9.616V9.392ZM27.232 12.192L28 11.456C28.4693 11.6907 28.9493 11.968 29.44 12.288C29.9307 12.608 30.3893 12.9333 30.816 13.264C31.2427 13.5947 31.5947 13.8987 31.872 14.176L31.088 15.024C30.8213 14.7253 30.4747 14.4053 30.048 14.064C29.6213 13.7227 29.1627 13.3867 28.672 13.056C28.192 12.7253 27.712 12.4373 27.232 12.192ZM32.32 14.528H32.496L32.704 14.48L33.52 14.704C33.3173 15.3653 33.0987 16.048 32.864 16.752C32.6293 17.4453 32.3947 18.032 32.16 18.512L31.168 18.24C31.3067 17.9413 31.4453 17.5947 31.584 17.2C31.7227 16.8053 31.856 16.3947 31.984 15.968C32.112 15.5413 32.224 15.1307 32.32 14.736V14.528ZM28.992 15.104H30.192V21.824C30.192 22.1547 30.144 22.416 30.048 22.608C29.9627 22.8 29.7973 22.9493 29.552 23.056C29.3067 23.152 28.976 23.2107 28.56 23.232C28.144 23.2533 27.632 23.264 27.024 23.264C27.0027 23.0933 26.9547 22.8907 26.88 22.656C26.8053 22.432 26.7253 22.2347 26.64 22.064C27.12 22.0853 27.5467 22.096 27.92 22.096C28.2933 22.1067 28.544 22.1067 28.672 22.096C28.8 22.0853 28.8853 22.0587 28.928 22.016C28.9707 21.9733 28.992 21.8987 28.992 21.792V15.104ZM22.096 9.744H23.12V15.36H23.184V21.28H22.032V15.36H22.096V9.744ZM41.728 11.968H49.456V13.12H41.728V11.968ZM46.512 8.576H47.728V21.632C47.728 22.0587 47.6693 22.3733 47.552 22.576C47.4347 22.7893 47.2427 22.944 46.976 23.04C46.72 23.1467 46.3573 23.2107 45.888 23.232C45.4187 23.264 44.8373 23.28 44.144 23.28C44.1227 23.1627 44.0853 23.0293 44.032 22.88C43.9893 22.7307 43.936 22.576 43.872 22.416C43.8187 22.2667 43.76 22.1333 43.696 22.016C44.24 22.0267 44.736 22.032 45.184 22.032C45.6427 22.032 45.952 22.032 46.112 22.032C46.2613 22.0213 46.3627 21.9893 46.416 21.936C46.48 21.8827 46.512 21.7813 46.512 21.632V8.576ZM42.064 15.248L43.056 14.784C43.3547 15.168 43.6427 15.5947 43.92 16.064C44.208 16.5227 44.464 16.9707 44.688 17.408C44.912 17.8453 45.0773 18.24 45.184 18.592L44.096 19.152C43.9893 18.8 43.8293 18.4 43.616 17.952C43.4027 17.504 43.1627 17.0453 42.896 16.576C42.6293 16.096 42.352 15.6533 42.064 15.248ZM34.832 11.984H41.248V13.136H34.832V11.984ZM37.68 8.56H38.832V23.264H37.68V8.56ZM37.616 12.704L38.432 12.992C38.272 13.6427 38.0693 14.3147 37.824 15.008C37.5893 15.6907 37.328 16.3627 37.04 17.024C36.752 17.6853 36.4427 18.304 36.112 18.88C35.792 19.4453 35.4613 19.9253 35.12 20.32C35.0453 20.1493 34.9387 19.9573 34.8 19.744C34.672 19.5307 34.5547 19.3493 34.448 19.2C34.7787 18.8373 35.0987 18.4107 35.408 17.92C35.728 17.4187 36.0267 16.8747 36.304 16.288C36.5813 15.7013 36.832 15.104 37.056 14.496C37.2907 13.888 37.4773 13.2907 37.616 12.704ZM38.768 14.528C38.8853 14.6347 39.0613 14.816 39.296 15.072C39.5413 15.3173 39.8027 15.5893 40.08 15.888C40.3573 16.1867 40.6133 16.464 40.848 16.72C41.0827 16.976 41.2427 17.1627 41.328 17.28L40.56 18.288C40.4427 18.096 40.2773 17.856 40.064 17.568C39.8507 17.28 39.6213 16.9813 39.376 16.672C39.1307 16.352 38.896 16.0587 38.672 15.792C38.448 15.5147 38.2613 15.296 38.112 15.136L38.768 14.528ZM50.544 17.024C51.1947 16.864 51.968 16.6613 52.864 16.416C53.76 16.16 54.672 15.8987 55.6 15.632L55.76 16.736C54.9173 16.992 54.0693 17.248 53.216 17.504C52.3627 17.7493 51.5893 17.9787 50.896 18.192L50.544 17.024ZM50.736 11.792H56.096V12.928H50.736V11.792ZM52.928 8.56H54.096V21.76C54.096 22.0907 54.0533 22.3467 53.968 22.528C53.8827 22.7093 53.7333 22.848 53.52 22.944C53.3067 23.0293 53.024 23.0827 52.672 23.104C52.32 23.136 51.872 23.152 51.328 23.152C51.3067 23.0027 51.2587 22.8213 51.184 22.608C51.12 22.3947 51.0453 22.208 50.96 22.048C51.3333 22.0587 51.6747 22.064 51.984 22.064C52.304 22.064 52.512 22.064 52.608 22.064C52.7253 22.0533 52.8053 22.0267 52.848 21.984C52.9013 21.9413 52.928 21.8667 52.928 21.76V8.56ZM57.872 9.136H62.064V10.256H57.872V9.136ZM56.016 15.632H63.392V16.752H56.016V15.632ZM62.976 15.632H63.216L63.44 15.584L64.224 15.92C63.8613 16.976 63.3813 17.9093 62.784 18.72C62.1867 19.5307 61.4987 20.2347 60.72 20.832C59.9413 21.4293 59.0933 21.9307 58.176 22.336C57.2693 22.7413 56.3253 23.0667 55.344 23.312C55.3227 23.1947 55.2747 23.0667 55.2 22.928C55.136 22.8 55.0613 22.6667 54.976 22.528C54.9013 22.4 54.8213 22.2933 54.736 22.208C55.6533 22.016 56.5387 21.744 57.392 21.392C58.256 21.04 59.0507 20.6027 59.776 20.08C60.512 19.5467 61.152 18.928 61.696 18.224C62.2507 17.5093 62.6773 16.7093 62.976 15.824V15.632ZM57.504 16.448C57.9413 17.4187 58.5333 18.2933 59.28 19.072C60.0267 19.84 60.912 20.4907 61.936 21.024C62.96 21.5467 64.096 21.936 65.344 22.192C65.2587 22.2773 65.1627 22.384 65.056 22.512C64.96 22.6507 64.8693 22.7893 64.784 22.928C64.6987 23.0667 64.6293 23.1893 64.576 23.296C62.6453 22.8373 60.9973 22.0587 59.632 20.96C58.2667 19.8613 57.2107 18.4853 56.464 16.832L57.504 16.448ZM57.568 9.136H58.704V10.928C58.704 11.4187 58.64 11.9253 58.512 12.448C58.384 12.96 58.144 13.4613 57.792 13.952C57.4507 14.432 56.9493 14.8587 56.288 15.232C56.2347 15.1467 56.16 15.0507 56.064 14.944C55.968 14.8267 55.8667 14.7147 55.76 14.608C55.6533 14.4907 55.5627 14.4053 55.488 14.352C56.096 14.0213 56.544 13.664 56.832 13.28C57.1307 12.8853 57.328 12.4853 57.424 12.08C57.52 11.6747 57.568 11.28 57.568 10.896V9.136ZM61.504 9.136H62.656V12.848C62.656 13.072 62.672 13.232 62.704 13.328C62.7467 13.4133 62.832 13.456 62.96 13.456C63.0347 13.456 63.1573 13.456 63.328 13.456C63.4987 13.456 63.6693 13.456 63.84 13.456C64.0107 13.456 64.128 13.456 64.192 13.456C64.32 13.456 64.4587 13.4507 64.608 13.44C64.7573 13.4187 64.8853 13.3973 64.992 13.376C65.0133 13.5253 65.0293 13.7013 65.04 13.904C65.0507 14.1067 65.072 14.2773 65.104 14.416C64.9973 14.448 64.864 14.4693 64.704 14.48C64.544 14.4907 64.384 14.496 64.224 14.496C64.1387 14.496 64 14.496 63.808 14.496C63.616 14.496 63.4293 14.496 63.248 14.496C63.0773 14.496 62.9547 14.496 62.88 14.496C62.5067 14.496 62.2187 14.4427 62.016 14.336C61.8133 14.2293 61.6747 14.0533 61.6 13.808C61.536 13.5627 61.504 13.232 61.504 12.816V9.136ZM72.112 13.504H79.904V14.496H72.112V13.504ZM72.112 15.776H79.904V16.752H72.112V15.776ZM72.608 21.648H79.376V22.64H72.608V21.648ZM70.96 11.2H81.152V12.224H70.96V11.2ZM71.904 18.112H80.064V23.232H78.976V19.104H72.944V23.28H71.904V18.112ZM74.656 8.96L75.696 8.56C75.9307 8.88 76.1547 9.23733 76.368 9.632C76.592 10.016 76.7573 10.352 76.864 10.64L75.792 11.12C75.6853 10.832 75.52 10.4853 75.296 10.08C75.0827 9.67467 74.8693 9.30133 74.656 8.96ZM70.096 8.624L71.168 8.944C70.8587 9.84 70.496 10.7253 70.08 11.6C69.664 12.4747 69.2053 13.3013 68.704 14.08C68.2133 14.848 67.7067 15.5307 67.184 16.128C67.1413 16.0427 67.0827 15.9307 67.008 15.792C66.9333 15.6427 66.848 15.4987 66.752 15.36C66.6667 15.2107 66.5867 15.0933 66.512 15.008C66.992 14.4853 67.4507 13.8827 67.888 13.2C68.336 12.5067 68.7467 11.7707 69.12 10.992C69.504 10.2133 69.8293 9.424 70.096 8.624ZM68.704 12.784L69.792 11.696L69.808 11.712V23.328H68.704V12.784Z" fill="black"/>
</svg>
