<svg width="68" height="32" viewBox="0 0 68 32" fill="none" xmlns="http://www.w3.org/2000/svg">
<rect x="0.5" y="0.5" width="67" height="31" rx="3.5" stroke="#00A19B"/>
<path d="M19.152 9.568H32.864V10.64H26.576V12.032H31.536V18.368H26.384C26.192 19.424 25.888 20.272 25.44 20.912C27.68 21.856 30.336 22.384 33.408 22.48L33.12 23.584C29.904 23.456 27.104 22.832 24.72 21.744C23.6 22.704 21.76 23.312 19.216 23.6L18.72 22.544C20.944 22.368 22.576 21.92 23.6 21.184C22.672 20.672 21.808 20.08 21.024 19.408L21.904 18.8C22.656 19.424 23.488 19.968 24.384 20.432C24.768 19.888 25.056 19.2 25.216 18.368H20.528V12.032H25.424V10.64H19.152V9.568ZM30.4 17.36V15.664H26.576V16.224L26.528 17.36H30.4ZM25.376 17.36C25.408 16.992 25.424 16.608 25.424 16.224V15.664H21.664V17.36H25.376ZM21.664 14.704H25.424V13.024H21.664V14.704ZM26.576 13.024V14.704H30.4V13.024H26.576ZM41.936 8.88L42.96 9.424C42.672 9.744 42.368 10.048 42.048 10.336H46.64V11.248C44.912 14.32 41.696 16.048 37.024 16.416L36.528 15.376C37.968 15.28 39.248 15.072 40.4 14.736C39.904 14.128 39.376 13.568 38.832 13.072L39.84 12.592C40.416 13.136 40.96 13.712 41.472 14.352C43.136 13.68 44.432 12.672 45.328 11.36H40.656C39.408 12.096 37.936 12.656 36.224 13.04L35.552 11.984C38.4 11.44 40.528 10.416 41.936 8.88ZM41.328 18.88C41.936 19.504 42.528 20.176 43.072 20.896C44.848 20.128 46.24 19.024 47.264 17.616H42.528C41.12 18.288 39.456 18.8 37.52 19.136L36.832 18.112C40.32 17.76 42.896 16.688 44.56 14.928L45.552 15.472C45.168 15.856 44.768 16.224 44.32 16.56H48.704V17.472C46.432 21.248 42.208 23.2 36 23.344L35.536 22.24C38.032 22.224 40.192 21.92 42 21.312C41.456 20.592 40.896 19.936 40.304 19.36L41.328 18.88Z" fill="#00A19B"/>
</svg>
