<svg width="640" height="82" viewBox="0 0 640 82" fill="none" xmlns="http://www.w3.org/2000/svg">
<rect x="0.5" y="4.5" width="67" height="31" rx="3.5" stroke="#ACACAC"/>
<path d="M21.6 18.32C20.88 18.704 20.112 19.072 19.28 19.408L18.624 18.336C21.504 17.328 23.616 16.048 24.96 14.48H21.904V13.44H26.624C27.904 15.376 30.112 16.928 33.28 18.096L32.512 19.136C31.712 18.816 30.992 18.464 30.32 18.112V19.168H26.592V21.984H31.216V23.088H26.592V25.984H32.672V27.12H19.424V25.984H25.424V23.088H20.768V21.984H25.424V19.168H21.6V18.32ZM30.24 18.064C28.48 17.072 27.088 15.92 26.064 14.592C25.12 15.904 23.776 17.056 22.048 18.064H30.24ZM43.616 13.568H48.912V14.432C48.384 16.128 47.808 17.696 47.2 19.136C48.464 20.704 49.104 22 49.12 22.992C49.12 23.92 48.912 24.576 48.496 24.928C48.048 25.312 47.152 25.504 45.808 25.504L45.456 24.288C45.888 24.336 46.256 24.368 46.56 24.368C47.152 24.336 47.536 24.24 47.712 24.064C47.872 23.872 47.968 23.52 47.984 22.992C47.968 22.016 47.296 20.736 45.968 19.136C46.544 17.856 47.12 16.368 47.664 14.64H44.736V27.568H43.616V13.568ZM35.088 14.528H38.24C38.064 13.984 37.888 13.488 37.696 13.04L38.864 12.848C39.024 13.344 39.2 13.904 39.36 14.528H42.608V15.632H41.84C41.52 16.848 41.152 17.952 40.736 18.912H42.736V20.016H34.816V18.912H36.864C36.608 17.744 36.288 16.656 35.92 15.632H35.088V14.528ZM39.664 18.912C40.064 17.872 40.416 16.784 40.72 15.632H37.04C37.36 16.576 37.664 17.664 37.952 18.912H39.664ZM41.984 21.552V27.568H40.848V26.704H36.88V27.568H35.76V21.552H41.984ZM36.88 25.616H40.848V22.656H36.88V25.616Z" fill="#1C1C1C"/>
<line x1="73.5" y1="4" x2="73.5" y2="36" stroke="#D9D9D9"/>
<rect x="78.5" y="4.5" width="99" height="31" rx="3.5" stroke="#ACACAC"/>
<path d="M98.224 18.072V19.816H100.128V18.072H98.224ZM98.224 15.4V17.144H100.128V15.4H98.224ZM103.04 17.144V15.4H101.152V17.144H103.04ZM103.04 19.816V18.072H101.152V19.816H103.04ZM101.216 23.704V25.88C102.272 25.736 103.376 25.592 104.464 25.432L104.496 26.488C101.744 26.904 98.832 27.32 96.832 27.624L96.688 26.456C97.616 26.36 98.784 26.2 100.064 26.024V23.704H97.184V22.616H100.064V20.808H97.216V14.408H104.08V20.808H101.216V22.616H104.08V23.704H101.216ZM110.64 19.512L111.44 19.72C111.04 21.048 110.56 22.552 110.096 23.496L109.12 23.224C109.408 22.584 109.76 21.624 110.032 20.68H108.144V26.776C108.144 27.448 108 27.8 107.504 28.008C107.024 28.2 106.208 28.216 105.024 28.216C104.976 27.864 104.8 27.384 104.624 27.032C105.568 27.064 106.4 27.064 106.656 27.048C106.912 27.048 106.976 26.968 106.976 26.744V20.68H104.4V19.56H108.56C107.696 18.76 106.4 17.832 105.216 17.224L105.968 16.504C106.496 16.76 107.04 17.08 107.568 17.448C108.192 16.888 108.832 16.184 109.328 15.512H104.608V14.44H110.16L110.416 14.376L111.184 14.92C110.48 15.992 109.424 17.16 108.4 18.024C108.96 18.424 109.456 18.856 109.808 19.208L109.472 19.56H110.448L110.64 19.512ZM116.864 18.152V19.608C117.424 20.136 118.96 21.816 119.344 22.264L118.576 23.272C118.24 22.728 117.488 21.768 116.864 21V28.2H115.712V20.44C115.024 22.344 114.096 24.168 113.168 25.272C113.04 24.936 112.72 24.456 112.528 24.168C113.712 22.824 114.928 20.36 115.552 18.152H112.896V17.032H115.712V13.608H116.864V17.032H119.264V18.152H116.864ZM127.392 17.016V18.136H125.68V26.584C125.68 27.416 125.472 27.784 124.944 27.992C124.416 28.184 123.504 28.216 122.128 28.216C122.064 27.88 121.888 27.32 121.696 26.968C122.768 27 123.776 27 124.08 26.984C124.368 26.984 124.464 26.888 124.464 26.584V18.136H119.728V17.016H124.464V13.624H125.68V17.016H127.392ZM123.152 23.576L122.08 24.136C121.776 23.096 120.912 21.464 120.064 20.248L121.056 19.784C121.936 20.968 122.816 22.552 123.152 23.576ZM136.688 15.304V15.976C136.688 17.4 136.256 19.112 134.288 20.248C134.144 20.008 133.728 19.56 133.504 19.368C135.28 18.392 135.568 17.08 135.568 15.944V14.184H140.608V17.88C140.608 18.328 140.656 18.488 140.912 18.488H142.144C142.384 18.488 142.736 18.456 142.944 18.408C142.96 18.712 142.992 19.16 143.04 19.432C142.832 19.496 142.496 19.512 142.176 19.512H140.832C139.712 19.512 139.472 19.048 139.472 17.864V15.304H136.688ZM133.776 21.72L132.128 22.216V26.712C132.128 27.384 131.952 27.704 131.536 27.88C131.136 28.072 130.464 28.104 129.376 28.104C129.328 27.8 129.152 27.32 129.008 27C129.776 27.032 130.464 27.016 130.656 27.016C130.88 27.016 130.96 26.936 130.96 26.712V22.584L128.944 23.176L128.592 22.024C129.248 21.864 130.064 21.64 130.96 21.384V17.944H128.784V16.824H130.96V13.624H132.128V16.824H134.112V17.944H132.128V21.064L133.616 20.632L133.776 21.72ZM140.56 21.752H135.632C136.192 22.92 137.04 23.944 138.064 24.808C139.104 23.976 139.984 22.968 140.56 21.752ZM141.392 20.584L142.16 20.936C141.52 22.856 140.416 24.36 139.04 25.512C140.24 26.264 141.68 26.824 143.28 27.16C143.008 27.416 142.688 27.912 142.528 28.248C140.816 27.832 139.296 27.16 138.048 26.248C136.656 27.192 135.04 27.832 133.36 28.264C133.248 27.928 132.992 27.432 132.768 27.176C134.304 26.84 135.792 26.28 137.088 25.48C136 24.472 135.12 23.24 134.48 21.816L134.64 21.752H134.016V20.632H141.168L141.392 20.584ZM154.848 15.688L153.776 16.152C153.568 15.592 153.072 14.68 152.672 14.024L153.68 13.608C154.144 14.28 154.624 15.128 154.848 15.688ZM148.144 13.672L149.2 13.992C148.832 15.064 148.368 16.136 147.856 17.144V28.28H146.752V19.064C146.272 19.832 145.744 20.52 145.232 21.128C145.12 20.872 144.784 20.296 144.576 20.024C146.016 18.472 147.328 16.088 148.144 13.672ZM156.96 24.088H150.96V26.616H156.96V24.088ZM149.92 28.232V23.096H158.016V28.184H156.96V27.608H150.96V28.232H149.92ZM150.144 21.752V20.776H157.856V21.752H150.144ZM157.856 18.536V19.512H150.144V18.536H157.856ZM148.992 16.248H159.12V17.256H148.992V16.248Z" fill="#1C1C1C"/>
<rect x="188.5" y="4.5" width="99" height="31" rx="3.5" stroke="#ACACAC"/>
<path d="M208.224 18.072V19.816H210.128V18.072H208.224ZM208.224 15.4V17.144H210.128V15.4H208.224ZM213.04 17.144V15.4H211.152V17.144H213.04ZM213.04 19.816V18.072H211.152V19.816H213.04ZM211.216 23.704V25.88C212.272 25.736 213.376 25.592 214.464 25.432L214.496 26.488C211.744 26.904 208.832 27.32 206.832 27.624L206.688 26.456C207.616 26.36 208.784 26.2 210.064 26.024V23.704H207.184V22.616H210.064V20.808H207.216V14.408H214.08V20.808H211.216V22.616H214.08V23.704H211.216ZM220.64 19.512L221.44 19.72C221.04 21.048 220.56 22.552 220.096 23.496L219.12 23.224C219.408 22.584 219.76 21.624 220.032 20.68H218.144V26.776C218.144 27.448 218 27.8 217.504 28.008C217.024 28.2 216.208 28.216 215.024 28.216C214.976 27.864 214.8 27.384 214.624 27.032C215.568 27.064 216.4 27.064 216.656 27.048C216.912 27.048 216.976 26.968 216.976 26.744V20.68H214.4V19.56H218.56C217.696 18.76 216.4 17.832 215.216 17.224L215.968 16.504C216.496 16.76 217.04 17.08 217.568 17.448C218.192 16.888 218.832 16.184 219.328 15.512H214.608V14.44H220.16L220.416 14.376L221.184 14.92C220.48 15.992 219.424 17.16 218.4 18.024C218.96 18.424 219.456 18.856 219.808 19.208L219.472 19.56H220.448L220.64 19.512ZM226.864 18.152V19.608C227.424 20.136 228.96 21.816 229.344 22.264L228.576 23.272C228.24 22.728 227.488 21.768 226.864 21V28.2H225.712V20.44C225.024 22.344 224.096 24.168 223.168 25.272C223.04 24.936 222.72 24.456 222.528 24.168C223.712 22.824 224.928 20.36 225.552 18.152H222.896V17.032H225.712V13.608H226.864V17.032H229.264V18.152H226.864ZM237.392 17.016V18.136H235.68V26.584C235.68 27.416 235.472 27.784 234.944 27.992C234.416 28.184 233.504 28.216 232.128 28.216C232.064 27.88 231.888 27.32 231.696 26.968C232.768 27 233.776 27 234.08 26.984C234.368 26.984 234.464 26.888 234.464 26.584V18.136H229.728V17.016H234.464V13.624H235.68V17.016H237.392ZM233.152 23.576L232.08 24.136C231.776 23.096 230.912 21.464 230.064 20.248L231.056 19.784C231.936 20.968 232.816 22.552 233.152 23.576ZM246.688 15.304V15.976C246.688 17.4 246.256 19.112 244.288 20.248C244.144 20.008 243.728 19.56 243.504 19.368C245.28 18.392 245.568 17.08 245.568 15.944V14.184H250.608V17.88C250.608 18.328 250.656 18.488 250.912 18.488H252.144C252.384 18.488 252.736 18.456 252.944 18.408C252.96 18.712 252.992 19.16 253.04 19.432C252.832 19.496 252.496 19.512 252.176 19.512H250.832C249.712 19.512 249.472 19.048 249.472 17.864V15.304H246.688ZM243.776 21.72L242.128 22.216V26.712C242.128 27.384 241.952 27.704 241.536 27.88C241.136 28.072 240.464 28.104 239.376 28.104C239.328 27.8 239.152 27.32 239.008 27C239.776 27.032 240.464 27.016 240.656 27.016C240.88 27.016 240.96 26.936 240.96 26.712V22.584L238.944 23.176L238.592 22.024C239.248 21.864 240.064 21.64 240.96 21.384V17.944H238.784V16.824H240.96V13.624H242.128V16.824H244.112V17.944H242.128V21.064L243.616 20.632L243.776 21.72ZM250.56 21.752H245.632C246.192 22.92 247.04 23.944 248.064 24.808C249.104 23.976 249.984 22.968 250.56 21.752ZM251.392 20.584L252.16 20.936C251.52 22.856 250.416 24.36 249.04 25.512C250.24 26.264 251.68 26.824 253.28 27.16C253.008 27.416 252.688 27.912 252.528 28.248C250.816 27.832 249.296 27.16 248.048 26.248C246.656 27.192 245.04 27.832 243.36 28.264C243.248 27.928 242.992 27.432 242.768 27.176C244.304 26.84 245.792 26.28 247.088 25.48C246 24.472 245.12 23.24 244.48 21.816L244.64 21.752H244.016V20.632H251.168L251.392 20.584ZM264.848 15.688L263.776 16.152C263.568 15.592 263.072 14.68 262.672 14.024L263.68 13.608C264.144 14.28 264.624 15.128 264.848 15.688ZM258.144 13.672L259.2 13.992C258.832 15.064 258.368 16.136 257.856 17.144V28.28H256.752V19.064C256.272 19.832 255.744 20.52 255.232 21.128C255.12 20.872 254.784 20.296 254.576 20.024C256.016 18.472 257.328 16.088 258.144 13.672ZM266.96 24.088H260.96V26.616H266.96V24.088ZM259.92 28.232V23.096H268.016V28.184H266.96V27.608H260.96V28.232H259.92ZM260.144 21.752V20.776H267.856V21.752H260.144ZM267.856 18.536V19.512H260.144V18.536H267.856ZM258.992 16.248H269.12V17.256H258.992V16.248Z" fill="#1C1C1C"/>
<rect x="298.5" y="4.5" width="115" height="31" rx="3.5" stroke="#ACACAC"/>
<path d="M320.624 15.72H319.248C318.752 16.52 318.192 17.224 317.616 17.784C317.456 17.576 317.04 17.192 316.784 17C317.76 16.12 318.656 14.84 319.2 13.512L320.24 13.8C320.112 14.12 319.968 14.44 319.808 14.76H323.904V15.72H320.88C321.408 16.168 322.016 16.76 322.32 17.16L321.536 17.816C321.232 17.368 320.56 16.68 320.016 16.184L320.624 15.72ZM323.328 21.592H319.728C319.648 22.088 319.568 22.616 319.488 23.08H323.328V21.592ZM324.496 19.112V20.584H328.688V19.112H324.496ZM324.496 23.08H330.384C330.384 23.08 330.368 23.4 330.352 23.576C330.128 25.784 329.92 26.76 329.504 27.144C329.248 27.432 328.944 27.528 328.512 27.544C328.096 27.576 327.312 27.576 326.496 27.544C326.48 27.192 326.352 26.744 326.176 26.44C326.96 26.52 327.696 26.52 327.984 26.52C328.256 26.52 328.416 26.504 328.56 26.392C328.768 26.168 328.944 25.544 329.104 24.104H324.496V28.232H323.328V24.552C321.92 26.136 319.856 27.512 317.952 28.248C317.776 27.96 317.456 27.528 317.184 27.304C319.04 26.696 321.072 25.464 322.384 24.104H318.16C318.368 23.144 318.592 21.72 318.72 20.584H323.328V19.112H318.16V18.104H329.856V21.592H324.496V23.08ZM326.4 14.776H331.232V15.72H327.792C328.352 16.168 329.024 16.744 329.376 17.16L328.592 17.832C328.224 17.416 327.52 16.744 326.944 16.28L327.632 15.72H325.84C325.472 16.28 325.056 16.776 324.624 17.192C324.432 17 323.984 16.632 323.728 16.488C324.608 15.752 325.328 14.664 325.712 13.512L326.816 13.768C326.688 14.12 326.544 14.44 326.4 14.776ZM332.768 20.12H347.296V21.416H332.768V20.12ZM352.272 18.376H359.904C358.464 17.528 357.056 16.456 356.016 15.368C354.96 16.52 353.68 17.544 352.272 18.376ZM360.096 19.48H356.576V21.656H362.16V22.744H356.576V26.648H362.88V27.752H349.136V26.648H355.344V22.744H349.856V21.656H355.344V19.48H351.888V18.6C351.072 19.048 350.208 19.448 349.344 19.752C349.168 19.432 348.848 18.968 348.544 18.68C351.52 17.704 354.464 15.832 355.984 13.464L357.072 13.976C356.96 14.152 356.816 14.36 356.672 14.552C358.256 16.248 361.072 17.912 363.504 18.68C363.216 18.92 362.848 19.4 362.672 19.704C361.84 19.4 360.96 18.984 360.096 18.488V19.48ZM358.928 26.424L358.032 26.04C358.592 25.256 359.312 23.992 359.696 23.096L360.832 23.528C360.24 24.536 359.504 25.672 358.928 26.424ZM351.2 23.496L352.192 23.096C352.8 23.992 353.456 25.192 353.712 25.96L352.672 26.392C352.448 25.656 351.808 24.392 351.2 23.496ZM372.688 15.304V15.976C372.688 17.4 372.256 19.112 370.288 20.248C370.144 20.008 369.728 19.56 369.504 19.368C371.28 18.392 371.568 17.08 371.568 15.944V14.184H376.608V17.88C376.608 18.328 376.656 18.488 376.912 18.488H378.144C378.384 18.488 378.736 18.456 378.944 18.408C378.96 18.712 378.992 19.16 379.04 19.432C378.832 19.496 378.496 19.512 378.176 19.512H376.832C375.712 19.512 375.472 19.048 375.472 17.864V15.304H372.688ZM369.776 21.72L368.128 22.216V26.712C368.128 27.384 367.952 27.704 367.536 27.88C367.136 28.072 366.464 28.104 365.376 28.104C365.328 27.8 365.152 27.32 365.008 27C365.776 27.032 366.464 27.016 366.656 27.016C366.88 27.016 366.96 26.936 366.96 26.712V22.584L364.944 23.176L364.592 22.024C365.248 21.864 366.064 21.64 366.96 21.384V17.944H364.784V16.824H366.96V13.624H368.128V16.824H370.112V17.944H368.128V21.064L369.616 20.632L369.776 21.72ZM376.56 21.752H371.632C372.192 22.92 373.04 23.944 374.064 24.808C375.104 23.976 375.984 22.968 376.56 21.752ZM377.392 20.584L378.16 20.936C377.52 22.856 376.416 24.36 375.04 25.512C376.24 26.264 377.68 26.824 379.28 27.16C379.008 27.416 378.688 27.912 378.528 28.248C376.816 27.832 375.296 27.16 374.048 26.248C372.656 27.192 371.04 27.832 369.36 28.264C369.248 27.928 368.992 27.432 368.768 27.176C370.304 26.84 371.792 26.28 373.088 25.48C372 24.472 371.12 23.24 370.48 21.816L370.64 21.752H370.016V20.632H377.168L377.392 20.584ZM390.848 15.688L389.776 16.152C389.568 15.592 389.072 14.68 388.672 14.024L389.68 13.608C390.144 14.28 390.624 15.128 390.848 15.688ZM384.144 13.672L385.2 13.992C384.832 15.064 384.368 16.136 383.856 17.144V28.28H382.752V19.064C382.272 19.832 381.744 20.52 381.232 21.128C381.12 20.872 380.784 20.296 380.576 20.024C382.016 18.472 383.328 16.088 384.144 13.672ZM392.96 24.088H386.96V26.616H392.96V24.088ZM385.92 28.232V23.096H394.016V28.184H392.96V27.608H386.96V28.232H385.92ZM386.144 21.752V20.776H393.856V21.752H386.144ZM393.856 18.536V19.512H386.144V18.536H393.856ZM384.992 16.248H395.12V17.256H384.992V16.248Z" fill="#1C1C1C"/>
<rect x="424.5" y="4.5" width="99" height="31" rx="3.5" stroke="#ACACAC"/>
<path d="M457.152 15.896H444.992V19.848C444.992 22.296 444.8 25.88 443.456 28.28C443.264 28.056 442.784 27.688 442.544 27.544C443.776 25.32 443.888 22.152 443.888 19.848V14.888H449.936C449.808 14.52 449.648 14.136 449.504 13.8L450.656 13.528C450.864 13.944 451.104 14.472 451.248 14.888H457.152V15.896ZM454.096 20.712H453.152V17.864H451.072V16.952H453.152V16.104H454.096V16.952H456.576V17.864H454.096V20.712ZM452.336 18.296V18.936C452.336 19.672 452.224 20.472 451.616 21.064C451.472 20.888 451.168 20.648 450.976 20.536C451.504 20.152 451.6 19.432 451.6 18.904V18.296H452.336ZM456.288 20.744H455.584C454.928 20.744 454.8 20.472 454.8 19.8V18.28H455.568V19.8C455.568 20.088 455.584 20.152 455.776 20.152H456.272C456.416 20.152 456.704 20.152 456.848 20.104C456.864 20.296 456.864 20.52 456.896 20.696C456.768 20.744 456.512 20.744 456.288 20.744ZM448.672 21.096H447.728V17.864H445.696V16.952H447.728V16.104H448.672V16.952H450.64V17.864H448.672V21.096ZM446.848 18.296V18.952C446.848 19.736 446.72 20.6 445.888 21.192C445.744 21.016 445.44 20.76 445.248 20.648C445.984 20.232 446.096 19.496 446.096 18.936V18.296H446.848ZM450.4 20.648H450.048C449.456 20.648 449.344 20.36 449.344 19.72V18.344H450.08V19.736C450.08 19.992 450.096 20.072 450.24 20.072H450.384C450.48 20.072 450.72 20.056 450.864 20.024L450.912 20.6C450.784 20.632 450.56 20.648 450.4 20.648ZM457.2 24.984V25.832H451.792V27.032C451.792 27.688 451.616 27.96 451.104 28.104C450.576 28.248 449.712 28.248 448.336 28.248C448.256 27.96 448.096 27.592 447.952 27.32C448.992 27.352 450 27.352 450.256 27.336C450.528 27.32 450.624 27.24 450.624 27.016V25.832H445.168V24.984H450.624V23.944H446.016V23.112H450.624V22.136C449.232 22.232 447.808 22.296 446.496 22.328C446.48 22.104 446.368 21.768 446.272 21.576C449.28 21.496 452.992 21.24 454.928 20.84L455.696 21.528C454.624 21.752 453.264 21.928 451.792 22.04V23.112H456.464V23.944H451.792V24.984H457.2ZM462.384 13.608V16.68H464.256V17.8H462.384V18.552C462.8 19.112 463.968 20.952 464.24 21.416L463.52 22.264C463.312 21.752 462.816 20.792 462.384 20.008V28.216H461.296V20.392C460.752 22.184 460.016 23.928 459.264 24.984C459.136 24.648 458.832 24.12 458.624 23.848C459.664 22.504 460.672 19.976 461.168 17.8H458.848V16.68H461.296V13.608H462.384ZM466.048 18.28V20.264H470.832V18.28H466.048ZM470.832 15.368H466.048V17.288H470.832V15.368ZM472.128 21.816L472.928 22.648C472.112 23.304 471.056 24.024 470.16 24.536C470.992 25.672 472.064 26.568 473.392 27.096C473.12 27.32 472.768 27.8 472.576 28.104C470 26.936 468.464 24.504 467.632 21.304H466.048V26.632L468.96 25.928C468.944 26.264 468.976 26.712 469.008 26.968C465.712 27.864 465.232 28.024 464.928 28.232C464.848 27.96 464.592 27.464 464.432 27.224C464.64 27.112 464.88 26.888 464.88 26.28V14.312H471.984V21.304H468.656C468.896 22.168 469.232 22.968 469.632 23.688C470.464 23.16 471.488 22.408 472.128 21.816ZM482.688 15.304V15.976C482.688 17.4 482.256 19.112 480.288 20.248C480.144 20.008 479.728 19.56 479.504 19.368C481.28 18.392 481.568 17.08 481.568 15.944V14.184H486.608V17.88C486.608 18.328 486.656 18.488 486.912 18.488H488.144C488.384 18.488 488.736 18.456 488.944 18.408C488.96 18.712 488.992 19.16 489.04 19.432C488.832 19.496 488.496 19.512 488.176 19.512H486.832C485.712 19.512 485.472 19.048 485.472 17.864V15.304H482.688ZM479.776 21.72L478.128 22.216V26.712C478.128 27.384 477.952 27.704 477.536 27.88C477.136 28.072 476.464 28.104 475.376 28.104C475.328 27.8 475.152 27.32 475.008 27C475.776 27.032 476.464 27.016 476.656 27.016C476.88 27.016 476.96 26.936 476.96 26.712V22.584L474.944 23.176L474.592 22.024C475.248 21.864 476.064 21.64 476.96 21.384V17.944H474.784V16.824H476.96V13.624H478.128V16.824H480.112V17.944H478.128V21.064L479.616 20.632L479.776 21.72ZM486.56 21.752H481.632C482.192 22.92 483.04 23.944 484.064 24.808C485.104 23.976 485.984 22.968 486.56 21.752ZM487.392 20.584L488.16 20.936C487.52 22.856 486.416 24.36 485.04 25.512C486.24 26.264 487.68 26.824 489.28 27.16C489.008 27.416 488.688 27.912 488.528 28.248C486.816 27.832 485.296 27.16 484.048 26.248C482.656 27.192 481.04 27.832 479.36 28.264C479.248 27.928 478.992 27.432 478.768 27.176C480.304 26.84 481.792 26.28 483.088 25.48C482 24.472 481.12 23.24 480.48 21.816L480.64 21.752H480.016V20.632H487.168L487.392 20.584ZM500.848 15.688L499.776 16.152C499.568 15.592 499.072 14.68 498.672 14.024L499.68 13.608C500.144 14.28 500.624 15.128 500.848 15.688ZM494.144 13.672L495.2 13.992C494.832 15.064 494.368 16.136 493.856 17.144V28.28H492.752V19.064C492.272 19.832 491.744 20.52 491.232 21.128C491.12 20.872 490.784 20.296 490.576 20.024C492.016 18.472 493.328 16.088 494.144 13.672ZM502.96 24.088H496.96V26.616H502.96V24.088ZM495.92 28.232V23.096H504.016V28.184H502.96V27.608H496.96V28.232H495.92ZM496.144 21.752V20.776H503.856V21.752H496.144ZM503.856 18.536V19.512H496.144V18.536H503.856ZM494.992 16.248H505.12V17.256H494.992V16.248Z" fill="#1C1C1C"/>
<rect x="534.5" y="4.5" width="99" height="31" rx="3.5" stroke="#ACACAC"/>
<path d="M560.528 26.424H567.136V27.592H552.896V26.424H559.28V21.352H554.352V20.184H559.28V15.832H553.68V14.664H566.352V15.832H560.528V20.184H565.728V21.352H560.528V26.424ZM561.984 22.776L562.832 22.104C563.824 23 565.136 24.232 565.792 24.984L564.896 25.768C564.256 25 562.976 23.704 561.984 22.776ZM581.024 16.904H582.24V28.168H581.024V26.984H569.776V16.92H570.992V25.784H575.376V13.8H576.592V25.784H581.024V16.904ZM592.688 15.304V15.976C592.688 17.4 592.256 19.112 590.288 20.248C590.144 20.008 589.728 19.56 589.504 19.368C591.28 18.392 591.568 17.08 591.568 15.944V14.184H596.608V17.88C596.608 18.328 596.656 18.488 596.912 18.488H598.144C598.384 18.488 598.736 18.456 598.944 18.408C598.96 18.712 598.992 19.16 599.04 19.432C598.832 19.496 598.496 19.512 598.176 19.512H596.832C595.712 19.512 595.472 19.048 595.472 17.864V15.304H592.688ZM589.776 21.72L588.128 22.216V26.712C588.128 27.384 587.952 27.704 587.536 27.88C587.136 28.072 586.464 28.104 585.376 28.104C585.328 27.8 585.152 27.32 585.008 27C585.776 27.032 586.464 27.016 586.656 27.016C586.88 27.016 586.96 26.936 586.96 26.712V22.584L584.944 23.176L584.592 22.024C585.248 21.864 586.064 21.64 586.96 21.384V17.944H584.784V16.824H586.96V13.624H588.128V16.824H590.112V17.944H588.128V21.064L589.616 20.632L589.776 21.72ZM596.56 21.752H591.632C592.192 22.92 593.04 23.944 594.064 24.808C595.104 23.976 595.984 22.968 596.56 21.752ZM597.392 20.584L598.16 20.936C597.52 22.856 596.416 24.36 595.04 25.512C596.24 26.264 597.68 26.824 599.28 27.16C599.008 27.416 598.688 27.912 598.528 28.248C596.816 27.832 595.296 27.16 594.048 26.248C592.656 27.192 591.04 27.832 589.36 28.264C589.248 27.928 588.992 27.432 588.768 27.176C590.304 26.84 591.792 26.28 593.088 25.48C592 24.472 591.12 23.24 590.48 21.816L590.64 21.752H590.016V20.632H597.168L597.392 20.584ZM610.848 15.688L609.776 16.152C609.568 15.592 609.072 14.68 608.672 14.024L609.68 13.608C610.144 14.28 610.624 15.128 610.848 15.688ZM604.144 13.672L605.2 13.992C604.832 15.064 604.368 16.136 603.856 17.144V28.28H602.752V19.064C602.272 19.832 601.744 20.52 601.232 21.128C601.12 20.872 600.784 20.296 600.576 20.024C602.016 18.472 603.328 16.088 604.144 13.672ZM612.96 24.088H606.96V26.616H612.96V24.088ZM605.92 28.232V23.096H614.016V28.184H612.96V27.608H606.96V28.232H605.92ZM606.144 21.752V20.776H613.856V21.752H606.144ZM613.856 18.536V19.512H606.144V18.536H613.856ZM604.992 16.248H615.12V17.256H604.992V16.248Z" fill="#1C1C1C"/>
<rect x="0.5" y="46.5" width="99" height="31" rx="3.5" stroke="#ACACAC"/>
<path d="M21.792 57.992L20.992 58.648C20.624 58.072 19.792 57.208 19.104 56.6L19.872 56.04C20.56 56.616 21.408 57.448 21.792 57.992ZM21.328 62.232L20.544 62.936C20.128 62.376 19.296 61.512 18.592 60.92L19.344 60.296C20.048 60.872 20.912 61.688 21.328 62.232ZM19.984 70.008L18.944 69.48C19.408 68.248 20.048 66.2 20.48 64.44L21.424 64.968C21.024 66.616 20.464 68.552 19.984 70.008ZM28.608 64.696L27.92 65.048C27.696 64.456 27.2 63.544 26.736 62.888L27.392 62.6C27.856 63.256 28.384 64.152 28.608 64.696ZM31.84 64.616L31.136 64.936C30.944 64.392 30.432 63.496 30 62.856L30.672 62.6C31.104 63.224 31.632 64.088 31.84 64.616ZM29.984 60.76H32.56C31.552 59.928 30.688 58.952 29.92 57.544C29.264 58.84 28.352 59.96 27.264 60.76H29.568V67.336C30.176 66.808 31.04 66.024 31.888 65.24V61.72H29.984V60.76ZM22.96 62.792V64.072H25.36V62.792H22.96ZM22.96 60.68V61.928H25.36V60.68H22.96ZM29.664 55.56L30.608 55.864C30.544 56.056 30.48 56.232 30.416 56.424C31.248 58.088 32.24 59.144 33.44 59.992C33.2 60.2 32.896 60.488 32.72 60.76H32.816V68.952C32.816 69.48 32.72 69.752 32.352 69.928C31.984 70.104 31.392 70.12 30.464 70.12C30.432 69.848 30.288 69.432 30.16 69.176C30.848 69.192 31.472 69.192 31.632 69.176C31.824 69.176 31.888 69.112 31.888 68.936V66.312C31.248 66.952 30.592 67.592 30.016 68.168L29.568 67.496V68.968C29.568 69.496 29.472 69.784 29.104 69.944C28.752 70.12 28.176 70.12 27.248 70.12C27.216 69.864 27.104 69.464 26.976 69.208C27.648 69.224 28.224 69.224 28.416 69.208C28.592 69.208 28.656 69.144 28.656 68.968V66.536C28.064 67.128 27.472 67.72 26.912 68.232L26.352 67.464L26.464 67.368H24.736V69.944H23.696V67.368H21.52V66.344H23.696V64.968H22.016V59.784H23.696V58.424H21.824V57.416H23.696V55.88H24.752V57.416H26.528V58.424H24.752V59.784H26.336V64.968H24.736V66.344H26.704V67.176C27.248 66.712 27.968 66.056 28.656 65.416V61.72H26.912V60.76H27.008C26.816 60.504 26.56 60.232 26.336 60.04C27.856 59.096 29.072 57.432 29.664 55.56ZM37.168 64.536H40.768V68.44H43.136V64.52H46.768V61.24H43.136V57.736H40.752V61.272H37.168V64.536ZM44.288 68.44H49.136V69.528H34.864V68.44H39.616V65.576H36.016V60.232H39.616V57.736H35.296V56.632H48.752V57.736H44.288V60.216H47.968V65.56H47.392V65.576H44.288V68.44ZM58.688 57.304V57.976C58.688 59.4 58.256 61.112 56.288 62.248C56.144 62.008 55.728 61.56 55.504 61.368C57.28 60.392 57.568 59.08 57.568 57.944V56.184H62.608V59.88C62.608 60.328 62.656 60.488 62.912 60.488H64.144C64.384 60.488 64.736 60.456 64.944 60.408C64.96 60.712 64.992 61.16 65.04 61.432C64.832 61.496 64.496 61.512 64.176 61.512H62.832C61.712 61.512 61.472 61.048 61.472 59.864V57.304H58.688ZM55.776 63.72L54.128 64.216V68.712C54.128 69.384 53.952 69.704 53.536 69.88C53.136 70.072 52.464 70.104 51.376 70.104C51.328 69.8 51.152 69.32 51.008 69C51.776 69.032 52.464 69.016 52.656 69.016C52.88 69.016 52.96 68.936 52.96 68.712V64.584L50.944 65.176L50.592 64.024C51.248 63.864 52.064 63.64 52.96 63.384V59.944H50.784V58.824H52.96V55.624H54.128V58.824H56.112V59.944H54.128V63.064L55.616 62.632L55.776 63.72ZM62.56 63.752H57.632C58.192 64.92 59.04 65.944 60.064 66.808C61.104 65.976 61.984 64.968 62.56 63.752ZM63.392 62.584L64.16 62.936C63.52 64.856 62.416 66.36 61.04 67.512C62.24 68.264 63.68 68.824 65.28 69.16C65.008 69.416 64.688 69.912 64.528 70.248C62.816 69.832 61.296 69.16 60.048 68.248C58.656 69.192 57.04 69.832 55.36 70.264C55.248 69.928 54.992 69.432 54.768 69.176C56.304 68.84 57.792 68.28 59.088 67.48C58 66.472 57.12 65.24 56.48 63.816L56.64 63.752H56.016V62.632H63.168L63.392 62.584ZM76.848 57.688L75.776 58.152C75.568 57.592 75.072 56.68 74.672 56.024L75.68 55.608C76.144 56.28 76.624 57.128 76.848 57.688ZM70.144 55.672L71.2 55.992C70.832 57.064 70.368 58.136 69.856 59.144V70.28H68.752V61.064C68.272 61.832 67.744 62.52 67.232 63.128C67.12 62.872 66.784 62.296 66.576 62.024C68.016 60.472 69.328 58.088 70.144 55.672ZM78.96 66.088H72.96V68.616H78.96V66.088ZM71.92 70.232V65.096H80.016V70.184H78.96V69.608H72.96V70.232H71.92ZM72.144 63.752V62.776H79.856V63.752H72.144ZM79.856 60.536V61.512H72.144V60.536H79.856ZM70.992 58.248H81.12V59.256H70.992V58.248Z" fill="#1C1C1C"/>
<rect x="110.5" y="46.5" width="99" height="31" rx="3.5" stroke="#ACACAC"/>
<path d="M131.792 57.992L130.992 58.648C130.624 58.072 129.792 57.208 129.104 56.6L129.872 56.04C130.56 56.616 131.408 57.448 131.792 57.992ZM131.328 62.232L130.544 62.936C130.128 62.376 129.296 61.512 128.592 60.92L129.344 60.296C130.048 60.872 130.912 61.688 131.328 62.232ZM129.984 70.008L128.944 69.48C129.408 68.248 130.048 66.2 130.48 64.44L131.424 64.968C131.024 66.616 130.464 68.552 129.984 70.008ZM138.608 64.696L137.92 65.048C137.696 64.456 137.2 63.544 136.736 62.888L137.392 62.6C137.856 63.256 138.384 64.152 138.608 64.696ZM141.84 64.616L141.136 64.936C140.944 64.392 140.432 63.496 140 62.856L140.672 62.6C141.104 63.224 141.632 64.088 141.84 64.616ZM139.984 60.76H142.56C141.552 59.928 140.688 58.952 139.92 57.544C139.264 58.84 138.352 59.96 137.264 60.76H139.568V67.336C140.176 66.808 141.04 66.024 141.888 65.24V61.72H139.984V60.76ZM132.96 62.792V64.072H135.36V62.792H132.96ZM132.96 60.68V61.928H135.36V60.68H132.96ZM139.664 55.56L140.608 55.864C140.544 56.056 140.48 56.232 140.416 56.424C141.248 58.088 142.24 59.144 143.44 59.992C143.2 60.2 142.896 60.488 142.72 60.76H142.816V68.952C142.816 69.48 142.72 69.752 142.352 69.928C141.984 70.104 141.392 70.12 140.464 70.12C140.432 69.848 140.288 69.432 140.16 69.176C140.848 69.192 141.472 69.192 141.632 69.176C141.824 69.176 141.888 69.112 141.888 68.936V66.312C141.248 66.952 140.592 67.592 140.016 68.168L139.568 67.496V68.968C139.568 69.496 139.472 69.784 139.104 69.944C138.752 70.12 138.176 70.12 137.248 70.12C137.216 69.864 137.104 69.464 136.976 69.208C137.648 69.224 138.224 69.224 138.416 69.208C138.592 69.208 138.656 69.144 138.656 68.968V66.536C138.064 67.128 137.472 67.72 136.912 68.232L136.352 67.464L136.464 67.368H134.736V69.944H133.696V67.368H131.52V66.344H133.696V64.968H132.016V59.784H133.696V58.424H131.824V57.416H133.696V55.88H134.752V57.416H136.528V58.424H134.752V59.784H136.336V64.968H134.736V66.344H136.704V67.176C137.248 66.712 137.968 66.056 138.656 65.416V61.72H136.912V60.76H137.008C136.816 60.504 136.56 60.232 136.336 60.04C137.856 59.096 139.072 57.432 139.664 55.56ZM147.168 64.536H150.768V68.44H153.136V64.52H156.768V61.24H153.136V57.736H150.752V61.272H147.168V64.536ZM154.288 68.44H159.136V69.528H144.864V68.44H149.616V65.576H146.016V60.232H149.616V57.736H145.296V56.632H158.752V57.736H154.288V60.216H157.968V65.56H157.392V65.576H154.288V68.44ZM168.688 57.304V57.976C168.688 59.4 168.256 61.112 166.288 62.248C166.144 62.008 165.728 61.56 165.504 61.368C167.28 60.392 167.568 59.08 167.568 57.944V56.184H172.608V59.88C172.608 60.328 172.656 60.488 172.912 60.488H174.144C174.384 60.488 174.736 60.456 174.944 60.408C174.96 60.712 174.992 61.16 175.04 61.432C174.832 61.496 174.496 61.512 174.176 61.512H172.832C171.712 61.512 171.472 61.048 171.472 59.864V57.304H168.688ZM165.776 63.72L164.128 64.216V68.712C164.128 69.384 163.952 69.704 163.536 69.88C163.136 70.072 162.464 70.104 161.376 70.104C161.328 69.8 161.152 69.32 161.008 69C161.776 69.032 162.464 69.016 162.656 69.016C162.88 69.016 162.96 68.936 162.96 68.712V64.584L160.944 65.176L160.592 64.024C161.248 63.864 162.064 63.64 162.96 63.384V59.944H160.784V58.824H162.96V55.624H164.128V58.824H166.112V59.944H164.128V63.064L165.616 62.632L165.776 63.72ZM172.56 63.752H167.632C168.192 64.92 169.04 65.944 170.064 66.808C171.104 65.976 171.984 64.968 172.56 63.752ZM173.392 62.584L174.16 62.936C173.52 64.856 172.416 66.36 171.04 67.512C172.24 68.264 173.68 68.824 175.28 69.16C175.008 69.416 174.688 69.912 174.528 70.248C172.816 69.832 171.296 69.16 170.048 68.248C168.656 69.192 167.04 69.832 165.36 70.264C165.248 69.928 164.992 69.432 164.768 69.176C166.304 68.84 167.792 68.28 169.088 67.48C168 66.472 167.12 65.24 166.48 63.816L166.64 63.752H166.016V62.632H173.168L173.392 62.584ZM186.848 57.688L185.776 58.152C185.568 57.592 185.072 56.68 184.672 56.024L185.68 55.608C186.144 56.28 186.624 57.128 186.848 57.688ZM180.144 55.672L181.2 55.992C180.832 57.064 180.368 58.136 179.856 59.144V70.28H178.752V61.064C178.272 61.832 177.744 62.52 177.232 63.128C177.12 62.872 176.784 62.296 176.576 62.024C178.016 60.472 179.328 58.088 180.144 55.672ZM188.96 66.088H182.96V68.616H188.96V66.088ZM181.92 70.232V65.096H190.016V70.184H188.96V69.608H182.96V70.232H181.92ZM182.144 63.752V62.776H189.856V63.752H182.144ZM189.856 60.536V61.512H182.144V60.536H189.856ZM180.992 58.248H191.12V59.256H180.992V58.248Z" fill="#1C1C1C"/>
<rect x="220.5" y="46.5" width="99" height="31" rx="3.5" stroke="#ACACAC"/>
<path d="M241.792 57.992L240.992 58.648C240.624 58.072 239.792 57.208 239.104 56.6L239.872 56.04C240.56 56.616 241.408 57.448 241.792 57.992ZM241.328 62.232L240.544 62.936C240.128 62.376 239.296 61.512 238.592 60.92L239.344 60.296C240.048 60.872 240.912 61.688 241.328 62.232ZM239.984 70.008L238.944 69.48C239.408 68.248 240.048 66.2 240.48 64.44L241.424 64.968C241.024 66.616 240.464 68.552 239.984 70.008ZM248.608 64.696L247.92 65.048C247.696 64.456 247.2 63.544 246.736 62.888L247.392 62.6C247.856 63.256 248.384 64.152 248.608 64.696ZM251.84 64.616L251.136 64.936C250.944 64.392 250.432 63.496 250 62.856L250.672 62.6C251.104 63.224 251.632 64.088 251.84 64.616ZM249.984 60.76H252.56C251.552 59.928 250.688 58.952 249.92 57.544C249.264 58.84 248.352 59.96 247.264 60.76H249.568V67.336C250.176 66.808 251.04 66.024 251.888 65.24V61.72H249.984V60.76ZM242.96 62.792V64.072H245.36V62.792H242.96ZM242.96 60.68V61.928H245.36V60.68H242.96ZM249.664 55.56L250.608 55.864C250.544 56.056 250.48 56.232 250.416 56.424C251.248 58.088 252.24 59.144 253.44 59.992C253.2 60.2 252.896 60.488 252.72 60.76H252.816V68.952C252.816 69.48 252.72 69.752 252.352 69.928C251.984 70.104 251.392 70.12 250.464 70.12C250.432 69.848 250.288 69.432 250.16 69.176C250.848 69.192 251.472 69.192 251.632 69.176C251.824 69.176 251.888 69.112 251.888 68.936V66.312C251.248 66.952 250.592 67.592 250.016 68.168L249.568 67.496V68.968C249.568 69.496 249.472 69.784 249.104 69.944C248.752 70.12 248.176 70.12 247.248 70.12C247.216 69.864 247.104 69.464 246.976 69.208C247.648 69.224 248.224 69.224 248.416 69.208C248.592 69.208 248.656 69.144 248.656 68.968V66.536C248.064 67.128 247.472 67.72 246.912 68.232L246.352 67.464L246.464 67.368H244.736V69.944H243.696V67.368H241.52V66.344H243.696V64.968H242.016V59.784H243.696V58.424H241.824V57.416H243.696V55.88H244.752V57.416H246.528V58.424H244.752V59.784H246.336V64.968H244.736V66.344H246.704V67.176C247.248 66.712 247.968 66.056 248.656 65.416V61.72H246.912V60.76H247.008C246.816 60.504 246.56 60.232 246.336 60.04C247.856 59.096 249.072 57.432 249.664 55.56ZM257.168 64.536H260.768V68.44H263.136V64.52H266.768V61.24H263.136V57.736H260.752V61.272H257.168V64.536ZM264.288 68.44H269.136V69.528H254.864V68.44H259.616V65.576H256.016V60.232H259.616V57.736H255.296V56.632H268.752V57.736H264.288V60.216H267.968V65.56H267.392V65.576H264.288V68.44ZM278.688 57.304V57.976C278.688 59.4 278.256 61.112 276.288 62.248C276.144 62.008 275.728 61.56 275.504 61.368C277.28 60.392 277.568 59.08 277.568 57.944V56.184H282.608V59.88C282.608 60.328 282.656 60.488 282.912 60.488H284.144C284.384 60.488 284.736 60.456 284.944 60.408C284.96 60.712 284.992 61.16 285.04 61.432C284.832 61.496 284.496 61.512 284.176 61.512H282.832C281.712 61.512 281.472 61.048 281.472 59.864V57.304H278.688ZM275.776 63.72L274.128 64.216V68.712C274.128 69.384 273.952 69.704 273.536 69.88C273.136 70.072 272.464 70.104 271.376 70.104C271.328 69.8 271.152 69.32 271.008 69C271.776 69.032 272.464 69.016 272.656 69.016C272.88 69.016 272.96 68.936 272.96 68.712V64.584L270.944 65.176L270.592 64.024C271.248 63.864 272.064 63.64 272.96 63.384V59.944H270.784V58.824H272.96V55.624H274.128V58.824H276.112V59.944H274.128V63.064L275.616 62.632L275.776 63.72ZM282.56 63.752H277.632C278.192 64.92 279.04 65.944 280.064 66.808C281.104 65.976 281.984 64.968 282.56 63.752ZM283.392 62.584L284.16 62.936C283.52 64.856 282.416 66.36 281.04 67.512C282.24 68.264 283.68 68.824 285.28 69.16C285.008 69.416 284.688 69.912 284.528 70.248C282.816 69.832 281.296 69.16 280.048 68.248C278.656 69.192 277.04 69.832 275.36 70.264C275.248 69.928 274.992 69.432 274.768 69.176C276.304 68.84 277.792 68.28 279.088 67.48C278 66.472 277.12 65.24 276.48 63.816L276.64 63.752H276.016V62.632H283.168L283.392 62.584ZM296.848 57.688L295.776 58.152C295.568 57.592 295.072 56.68 294.672 56.024L295.68 55.608C296.144 56.28 296.624 57.128 296.848 57.688ZM290.144 55.672L291.2 55.992C290.832 57.064 290.368 58.136 289.856 59.144V70.28H288.752V61.064C288.272 61.832 287.744 62.52 287.232 63.128C287.12 62.872 286.784 62.296 286.576 62.024C288.016 60.472 289.328 58.088 290.144 55.672ZM298.96 66.088H292.96V68.616H298.96V66.088ZM291.92 70.232V65.096H300.016V70.184H298.96V69.608H292.96V70.232H291.92ZM292.144 63.752V62.776H299.856V63.752H292.144ZM299.856 60.536V61.512H292.144V60.536H299.856ZM290.992 58.248H301.12V59.256H290.992V58.248Z" fill="#1C1C1C"/>
<rect x="330.5" y="46.5" width="99" height="31" rx="3.5" stroke="#ACACAC"/>
<path d="M351.792 57.992L350.992 58.648C350.624 58.072 349.792 57.208 349.104 56.6L349.872 56.04C350.56 56.616 351.408 57.448 351.792 57.992ZM351.328 62.232L350.544 62.936C350.128 62.376 349.296 61.512 348.592 60.92L349.344 60.296C350.048 60.872 350.912 61.688 351.328 62.232ZM349.984 70.008L348.944 69.48C349.408 68.248 350.048 66.2 350.48 64.44L351.424 64.968C351.024 66.616 350.464 68.552 349.984 70.008ZM358.608 64.696L357.92 65.048C357.696 64.456 357.2 63.544 356.736 62.888L357.392 62.6C357.856 63.256 358.384 64.152 358.608 64.696ZM361.84 64.616L361.136 64.936C360.944 64.392 360.432 63.496 360 62.856L360.672 62.6C361.104 63.224 361.632 64.088 361.84 64.616ZM359.984 60.76H362.56C361.552 59.928 360.688 58.952 359.92 57.544C359.264 58.84 358.352 59.96 357.264 60.76H359.568V67.336C360.176 66.808 361.04 66.024 361.888 65.24V61.72H359.984V60.76ZM352.96 62.792V64.072H355.36V62.792H352.96ZM352.96 60.68V61.928H355.36V60.68H352.96ZM359.664 55.56L360.608 55.864C360.544 56.056 360.48 56.232 360.416 56.424C361.248 58.088 362.24 59.144 363.44 59.992C363.2 60.2 362.896 60.488 362.72 60.76H362.816V68.952C362.816 69.48 362.72 69.752 362.352 69.928C361.984 70.104 361.392 70.12 360.464 70.12C360.432 69.848 360.288 69.432 360.16 69.176C360.848 69.192 361.472 69.192 361.632 69.176C361.824 69.176 361.888 69.112 361.888 68.936V66.312C361.248 66.952 360.592 67.592 360.016 68.168L359.568 67.496V68.968C359.568 69.496 359.472 69.784 359.104 69.944C358.752 70.12 358.176 70.12 357.248 70.12C357.216 69.864 357.104 69.464 356.976 69.208C357.648 69.224 358.224 69.224 358.416 69.208C358.592 69.208 358.656 69.144 358.656 68.968V66.536C358.064 67.128 357.472 67.72 356.912 68.232L356.352 67.464L356.464 67.368H354.736V69.944H353.696V67.368H351.52V66.344H353.696V64.968H352.016V59.784H353.696V58.424H351.824V57.416H353.696V55.88H354.752V57.416H356.528V58.424H354.752V59.784H356.336V64.968H354.736V66.344H356.704V67.176C357.248 66.712 357.968 66.056 358.656 65.416V61.72H356.912V60.76H357.008C356.816 60.504 356.56 60.232 356.336 60.04C357.856 59.096 359.072 57.432 359.664 55.56ZM367.168 64.536H370.768V68.44H373.136V64.52H376.768V61.24H373.136V57.736H370.752V61.272H367.168V64.536ZM374.288 68.44H379.136V69.528H364.864V68.44H369.616V65.576H366.016V60.232H369.616V57.736H365.296V56.632H378.752V57.736H374.288V60.216H377.968V65.56H377.392V65.576H374.288V68.44ZM388.688 57.304V57.976C388.688 59.4 388.256 61.112 386.288 62.248C386.144 62.008 385.728 61.56 385.504 61.368C387.28 60.392 387.568 59.08 387.568 57.944V56.184H392.608V59.88C392.608 60.328 392.656 60.488 392.912 60.488H394.144C394.384 60.488 394.736 60.456 394.944 60.408C394.96 60.712 394.992 61.16 395.04 61.432C394.832 61.496 394.496 61.512 394.176 61.512H392.832C391.712 61.512 391.472 61.048 391.472 59.864V57.304H388.688ZM385.776 63.72L384.128 64.216V68.712C384.128 69.384 383.952 69.704 383.536 69.88C383.136 70.072 382.464 70.104 381.376 70.104C381.328 69.8 381.152 69.32 381.008 69C381.776 69.032 382.464 69.016 382.656 69.016C382.88 69.016 382.96 68.936 382.96 68.712V64.584L380.944 65.176L380.592 64.024C381.248 63.864 382.064 63.64 382.96 63.384V59.944H380.784V58.824H382.96V55.624H384.128V58.824H386.112V59.944H384.128V63.064L385.616 62.632L385.776 63.72ZM392.56 63.752H387.632C388.192 64.92 389.04 65.944 390.064 66.808C391.104 65.976 391.984 64.968 392.56 63.752ZM393.392 62.584L394.16 62.936C393.52 64.856 392.416 66.36 391.04 67.512C392.24 68.264 393.68 68.824 395.28 69.16C395.008 69.416 394.688 69.912 394.528 70.248C392.816 69.832 391.296 69.16 390.048 68.248C388.656 69.192 387.04 69.832 385.36 70.264C385.248 69.928 384.992 69.432 384.768 69.176C386.304 68.84 387.792 68.28 389.088 67.48C388 66.472 387.12 65.24 386.48 63.816L386.64 63.752H386.016V62.632H393.168L393.392 62.584ZM406.848 57.688L405.776 58.152C405.568 57.592 405.072 56.68 404.672 56.024L405.68 55.608C406.144 56.28 406.624 57.128 406.848 57.688ZM400.144 55.672L401.2 55.992C400.832 57.064 400.368 58.136 399.856 59.144V70.28H398.752V61.064C398.272 61.832 397.744 62.52 397.232 63.128C397.12 62.872 396.784 62.296 396.576 62.024C398.016 60.472 399.328 58.088 400.144 55.672ZM408.96 66.088H402.96V68.616H408.96V66.088ZM401.92 70.232V65.096H410.016V70.184H408.96V69.608H402.96V70.232H401.92ZM402.144 63.752V62.776H409.856V63.752H402.144ZM409.856 60.536V61.512H402.144V60.536H409.856ZM400.992 58.248H411.12V59.256H400.992V58.248Z" fill="#1C1C1C"/>
<rect x="440.5" y="46.5" width="99" height="31" rx="3.5" stroke="#ACACAC"/>
<path d="M461.792 57.992L460.992 58.648C460.624 58.072 459.792 57.208 459.104 56.6L459.872 56.04C460.56 56.616 461.408 57.448 461.792 57.992ZM461.328 62.232L460.544 62.936C460.128 62.376 459.296 61.512 458.592 60.92L459.344 60.296C460.048 60.872 460.912 61.688 461.328 62.232ZM459.984 70.008L458.944 69.48C459.408 68.248 460.048 66.2 460.48 64.44L461.424 64.968C461.024 66.616 460.464 68.552 459.984 70.008ZM468.608 64.696L467.92 65.048C467.696 64.456 467.2 63.544 466.736 62.888L467.392 62.6C467.856 63.256 468.384 64.152 468.608 64.696ZM471.84 64.616L471.136 64.936C470.944 64.392 470.432 63.496 470 62.856L470.672 62.6C471.104 63.224 471.632 64.088 471.84 64.616ZM469.984 60.76H472.56C471.552 59.928 470.688 58.952 469.92 57.544C469.264 58.84 468.352 59.96 467.264 60.76H469.568V67.336C470.176 66.808 471.04 66.024 471.888 65.24V61.72H469.984V60.76ZM462.96 62.792V64.072H465.36V62.792H462.96ZM462.96 60.68V61.928H465.36V60.68H462.96ZM469.664 55.56L470.608 55.864C470.544 56.056 470.48 56.232 470.416 56.424C471.248 58.088 472.24 59.144 473.44 59.992C473.2 60.2 472.896 60.488 472.72 60.76H472.816V68.952C472.816 69.48 472.72 69.752 472.352 69.928C471.984 70.104 471.392 70.12 470.464 70.12C470.432 69.848 470.288 69.432 470.16 69.176C470.848 69.192 471.472 69.192 471.632 69.176C471.824 69.176 471.888 69.112 471.888 68.936V66.312C471.248 66.952 470.592 67.592 470.016 68.168L469.568 67.496V68.968C469.568 69.496 469.472 69.784 469.104 69.944C468.752 70.12 468.176 70.12 467.248 70.12C467.216 69.864 467.104 69.464 466.976 69.208C467.648 69.224 468.224 69.224 468.416 69.208C468.592 69.208 468.656 69.144 468.656 68.968V66.536C468.064 67.128 467.472 67.72 466.912 68.232L466.352 67.464L466.464 67.368H464.736V69.944H463.696V67.368H461.52V66.344H463.696V64.968H462.016V59.784H463.696V58.424H461.824V57.416H463.696V55.88H464.752V57.416H466.528V58.424H464.752V59.784H466.336V64.968H464.736V66.344H466.704V67.176C467.248 66.712 467.968 66.056 468.656 65.416V61.72H466.912V60.76H467.008C466.816 60.504 466.56 60.232 466.336 60.04C467.856 59.096 469.072 57.432 469.664 55.56ZM477.168 64.536H480.768V68.44H483.136V64.52H486.768V61.24H483.136V57.736H480.752V61.272H477.168V64.536ZM484.288 68.44H489.136V69.528H474.864V68.44H479.616V65.576H476.016V60.232H479.616V57.736H475.296V56.632H488.752V57.736H484.288V60.216H487.968V65.56H487.392V65.576H484.288V68.44ZM498.688 57.304V57.976C498.688 59.4 498.256 61.112 496.288 62.248C496.144 62.008 495.728 61.56 495.504 61.368C497.28 60.392 497.568 59.08 497.568 57.944V56.184H502.608V59.88C502.608 60.328 502.656 60.488 502.912 60.488H504.144C504.384 60.488 504.736 60.456 504.944 60.408C504.96 60.712 504.992 61.16 505.04 61.432C504.832 61.496 504.496 61.512 504.176 61.512H502.832C501.712 61.512 501.472 61.048 501.472 59.864V57.304H498.688ZM495.776 63.72L494.128 64.216V68.712C494.128 69.384 493.952 69.704 493.536 69.88C493.136 70.072 492.464 70.104 491.376 70.104C491.328 69.8 491.152 69.32 491.008 69C491.776 69.032 492.464 69.016 492.656 69.016C492.88 69.016 492.96 68.936 492.96 68.712V64.584L490.944 65.176L490.592 64.024C491.248 63.864 492.064 63.64 492.96 63.384V59.944H490.784V58.824H492.96V55.624H494.128V58.824H496.112V59.944H494.128V63.064L495.616 62.632L495.776 63.72ZM502.56 63.752H497.632C498.192 64.92 499.04 65.944 500.064 66.808C501.104 65.976 501.984 64.968 502.56 63.752ZM503.392 62.584L504.16 62.936C503.52 64.856 502.416 66.36 501.04 67.512C502.24 68.264 503.68 68.824 505.28 69.16C505.008 69.416 504.688 69.912 504.528 70.248C502.816 69.832 501.296 69.16 500.048 68.248C498.656 69.192 497.04 69.832 495.36 70.264C495.248 69.928 494.992 69.432 494.768 69.176C496.304 68.84 497.792 68.28 499.088 67.48C498 66.472 497.12 65.24 496.48 63.816L496.64 63.752H496.016V62.632H503.168L503.392 62.584ZM516.848 57.688L515.776 58.152C515.568 57.592 515.072 56.68 514.672 56.024L515.68 55.608C516.144 56.28 516.624 57.128 516.848 57.688ZM510.144 55.672L511.2 55.992C510.832 57.064 510.368 58.136 509.856 59.144V70.28H508.752V61.064C508.272 61.832 507.744 62.52 507.232 63.128C507.12 62.872 506.784 62.296 506.576 62.024C508.016 60.472 509.328 58.088 510.144 55.672ZM518.96 66.088H512.96V68.616H518.96V66.088ZM511.92 70.232V65.096H520.016V70.184H518.96V69.608H512.96V70.232H511.92ZM512.144 63.752V62.776H519.856V63.752H512.144ZM519.856 60.536V61.512H512.144V60.536H519.856ZM510.992 58.248H521.12V59.256H510.992V58.248Z" fill="#1C1C1C"/>
<rect x="550.5" y="46.5" width="67" height="31" rx="3.5" stroke="#00A19B"/>
<path d="M569.152 55.568H582.864V56.64H576.576V58.032H581.536V64.368H576.384C576.192 65.424 575.888 66.272 575.44 66.912C577.68 67.856 580.336 68.384 583.408 68.48L583.12 69.584C579.904 69.456 577.104 68.832 574.72 67.744C573.6 68.704 571.76 69.312 569.216 69.6L568.72 68.544C570.944 68.368 572.576 67.92 573.6 67.184C572.672 66.672 571.808 66.08 571.024 65.408L571.904 64.8C572.656 65.424 573.488 65.968 574.384 66.432C574.768 65.888 575.056 65.2 575.216 64.368H570.528V58.032H575.424V56.64H569.152V55.568ZM580.4 63.36V61.664H576.576V62.224L576.528 63.36H580.4ZM575.376 63.36C575.408 62.992 575.424 62.608 575.424 62.224V61.664H571.664V63.36H575.376ZM571.664 60.704H575.424V59.024H571.664V60.704ZM576.576 59.024V60.704H580.4V59.024H576.576ZM591.936 54.88L592.96 55.424C592.672 55.744 592.368 56.048 592.048 56.336H596.64V57.248C594.912 60.32 591.696 62.048 587.024 62.416L586.528 61.376C587.968 61.28 589.248 61.072 590.4 60.736C589.904 60.128 589.376 59.568 588.832 59.072L589.84 58.592C590.416 59.136 590.96 59.712 591.472 60.352C593.136 59.68 594.432 58.672 595.328 57.36H590.656C589.408 58.096 587.936 58.656 586.224 59.04L585.552 57.984C588.4 57.44 590.528 56.416 591.936 54.88ZM591.328 64.88C591.936 65.504 592.528 66.176 593.072 66.896C594.848 66.128 596.24 65.024 597.264 63.616H592.528C591.12 64.288 589.456 64.8 587.52 65.136L586.832 64.112C590.32 63.76 592.896 62.688 594.56 60.928L595.552 61.472C595.168 61.856 594.768 62.224 594.32 62.56H598.704V63.472C596.432 67.248 592.208 69.2 586 69.344L585.536 68.24C588.032 68.224 590.192 67.92 592 67.312C591.456 66.592 590.896 65.936 590.304 65.36L591.328 64.88Z" fill="#00A19B"/>
</svg>
