<svg width="100" height="32" viewBox="0 0 100 32" fill="none" xmlns="http://www.w3.org/2000/svg">
<rect width="100" height="32" rx="4" fill="#00A19B"/>
<path d="M19.488 10.4H32.528V13.648H31.264V11.536H20.688V13.648H19.488V10.4ZM28.88 13.424L30.304 13.552C30.048 15.1307 29.664 16.48 29.152 17.6C28.64 18.72 27.968 19.6533 27.136 20.4C26.3147 21.1467 25.312 21.7493 24.128 22.208C22.9547 22.6667 21.568 23.0347 19.968 23.312C19.936 23.2053 19.872 23.0773 19.776 22.928C19.6907 22.7787 19.5947 22.6293 19.488 22.48C19.3813 22.3413 19.2853 22.224 19.2 22.128C20.768 21.9147 22.1173 21.6107 23.248 21.216C24.3893 20.8213 25.344 20.2933 26.112 19.632C26.88 18.96 27.488 18.1173 27.936 17.104C28.384 16.0907 28.6987 14.864 28.88 13.424ZM19.104 15.008H32.96V16.16H19.104V15.008ZM24.688 8.784L25.968 8.464C26.1707 8.80533 26.3787 9.184 26.592 9.6C26.8053 10.016 26.9653 10.3627 27.072 10.64L25.744 11.04C25.6373 10.752 25.4827 10.3947 25.28 9.968C25.088 9.53067 24.8907 9.136 24.688 8.784ZM21.072 18.432L21.888 17.536C22.7947 17.8133 23.7493 18.1333 24.752 18.496C25.7653 18.8587 26.768 19.2533 27.76 19.68C28.752 20.096 29.6747 20.5227 30.528 20.96C31.392 21.3973 32.1333 21.8187 32.752 22.224L31.84 23.264C31.2533 22.8693 30.544 22.448 29.712 22C28.88 21.5627 27.9733 21.1253 26.992 20.688C26.0107 20.2507 25.0133 19.84 24 19.456C22.9867 19.0613 22.0107 18.72 21.072 18.432ZM21.072 18.432C21.3707 18.0373 21.68 17.5893 22 17.088C22.3307 16.576 22.6507 16.0427 22.96 15.488C23.28 14.9227 23.5733 14.3627 23.84 13.808C24.1173 13.2427 24.352 12.704 24.544 12.192L25.904 12.448C25.6907 12.9707 25.4453 13.5093 25.168 14.064C24.9013 14.6187 24.6133 15.168 24.304 15.712C24.0053 16.256 23.7067 16.768 23.408 17.248C23.1093 17.728 22.8267 18.1493 22.56 18.512L21.072 18.432ZM34.768 9.248H40.08V10.336H34.768V9.248ZM36.256 12.608H39.04V13.616H36.256V12.608ZM36.256 15.904H39.04V16.928H36.256V15.904ZM35.568 9.792H36.576V20.032H35.568V9.792ZM38.4 9.792H39.44V23.28H38.4V9.792ZM34.608 19.84C35.184 19.7547 35.8667 19.6533 36.656 19.536C37.4453 19.4187 38.2613 19.2907 39.104 19.152L39.168 20.16C38.4 20.2987 37.6427 20.4373 36.896 20.576C36.1493 20.704 35.4613 20.8267 34.832 20.944L34.608 19.84ZM43.008 13.696L43.76 13.504C43.8667 13.7813 43.9733 14.0853 44.08 14.416C44.1973 14.736 44.2987 15.0453 44.384 15.344C44.4693 15.6427 44.5333 15.8987 44.576 16.112L43.792 16.384C43.7173 16.0427 43.6053 15.616 43.456 15.104C43.3067 14.592 43.1573 14.1227 43.008 13.696ZM40.24 13.04C40.2293 12.9547 40.2027 12.8427 40.16 12.704C40.128 12.5653 40.0907 12.4267 40.048 12.288C40.016 12.1493 39.9787 12.032 39.936 11.936C40.0533 11.904 40.1653 11.8453 40.272 11.76C40.3787 11.664 40.4907 11.536 40.608 11.376C40.6827 11.2693 40.8053 11.0773 40.976 10.8C41.1573 10.5227 41.3493 10.2027 41.552 9.84C41.7547 9.46667 41.9253 9.08267 42.064 8.688L42.992 9.088C42.6827 9.71733 42.3413 10.3307 41.968 10.928C41.5947 11.5147 41.232 12.0053 40.88 12.4V12.432C40.88 12.432 40.8267 12.464 40.72 12.528C40.6133 12.592 40.5067 12.672 40.4 12.768C40.2933 12.864 40.24 12.9547 40.24 13.04ZM40.24 13.04V12.32L40.688 12.016L42.944 11.92C42.9013 12.048 42.8587 12.192 42.816 12.352C42.7733 12.5013 42.7413 12.6293 42.72 12.736C42.0907 12.768 41.6053 12.8053 41.264 12.848C40.9333 12.88 40.6933 12.912 40.544 12.944C40.4053 12.9653 40.304 12.9973 40.24 13.04ZM40.112 16.112C40.112 16.0267 40.0907 15.92 40.048 15.792C40.016 15.6533 39.9787 15.5147 39.936 15.376C39.904 15.2267 39.8667 15.104 39.824 15.008C39.952 14.976 40.096 14.896 40.256 14.768C40.416 14.6293 40.5867 14.448 40.768 14.224C40.896 14.0853 41.0987 13.8293 41.376 13.456C41.664 13.072 41.9787 12.6293 42.32 12.128C42.6613 11.616 42.9707 11.088 43.248 10.544L44.096 11.008C43.5947 11.8507 43.0507 12.6667 42.464 13.456C41.888 14.2453 41.3173 14.9227 40.752 15.488V15.52C40.752 15.52 40.6987 15.552 40.592 15.616C40.4853 15.68 40.3787 15.7547 40.272 15.84C40.1653 15.9253 40.112 16.016 40.112 16.112ZM40.112 16.112V15.344L40.576 15.024L43.952 14.688C43.9627 14.816 43.9787 14.96 44 15.12C44.032 15.2693 44.0533 15.392 44.064 15.488C43.2533 15.584 42.5973 15.664 42.096 15.728C41.6053 15.792 41.2267 15.8507 40.96 15.904C40.704 15.9467 40.512 15.984 40.384 16.016C40.2667 16.0373 40.176 16.0693 40.112 16.112ZM47.696 13.52L48.432 13.296C48.624 13.7227 48.8213 14.192 49.024 14.704C49.2267 15.216 49.376 15.6373 49.472 15.968L48.704 16.288C48.608 15.936 48.464 15.4987 48.272 14.976C48.08 14.4533 47.888 13.968 47.696 13.52ZM44.816 12.96C44.7947 12.8747 44.768 12.768 44.736 12.64C44.704 12.512 44.672 12.384 44.64 12.256C44.608 12.1173 44.5707 12 44.528 11.904C44.7307 11.8613 44.9387 11.6853 45.152 11.376C45.2373 11.28 45.3653 11.0987 45.536 10.832C45.7067 10.5547 45.888 10.2347 46.08 9.872C46.2827 9.49867 46.4533 9.12533 46.592 8.752L47.44 9.152C47.152 9.76 46.832 10.3467 46.48 10.912C46.128 11.4773 45.7813 11.952 45.44 12.336V12.352C45.44 12.352 45.3867 12.384 45.28 12.448C45.184 12.512 45.0827 12.592 44.976 12.688C44.8693 12.784 44.816 12.8747 44.816 12.96ZM44.816 12.96V12.224L45.264 11.936L47.424 11.84C47.3813 11.9573 47.3333 12.096 47.28 12.256C47.2373 12.416 47.2053 12.5493 47.184 12.656C46.5867 12.6987 46.128 12.736 45.808 12.768C45.488 12.8 45.2587 12.832 45.12 12.864C44.9813 12.896 44.88 12.928 44.816 12.96ZM44.928 16.032C44.9173 15.9467 44.896 15.84 44.864 15.712C44.832 15.5733 44.7947 15.44 44.752 15.312C44.72 15.1733 44.6827 15.056 44.64 14.96C44.768 14.9387 44.9013 14.8587 45.04 14.72C45.1893 14.5813 45.344 14.4053 45.504 14.192C45.6213 14.0533 45.808 13.7973 46.064 13.424C46.3307 13.0507 46.6133 12.6133 46.912 12.112C47.2107 11.6 47.4773 11.0773 47.712 10.544L48.56 10.992C48.1227 11.824 47.648 12.6293 47.136 13.408C46.6347 14.1867 46.128 14.8533 45.616 15.408V15.424C45.616 15.424 45.5787 15.4453 45.504 15.488C45.44 15.52 45.36 15.568 45.264 15.632C45.1787 15.6853 45.0987 15.7493 45.024 15.824C44.96 15.8987 44.928 15.968 44.928 16.032ZM44.928 16.032L44.912 15.264L45.376 14.944L48.784 14.56C48.7947 14.6773 48.8053 14.816 48.816 14.976C48.8373 15.1253 48.8587 15.248 48.88 15.344C48.0693 15.4507 47.4187 15.5413 46.928 15.616C46.4373 15.6907 46.0587 15.7547 45.792 15.808C45.5253 15.8507 45.328 15.8933 45.2 15.936C45.0827 15.968 44.992 16 44.928 16.032ZM43.056 16.48H44.096V18.96C44.096 19.472 44.0213 20 43.872 20.544C43.7333 21.088 43.4613 21.6053 43.056 22.096C42.6613 22.5973 42.0747 23.0347 41.296 23.408C41.264 23.3227 41.2053 23.2267 41.12 23.12C41.0347 23.0133 40.9493 22.9067 40.864 22.8C40.7787 22.704 40.6987 22.6293 40.624 22.576C41.328 22.2453 41.8507 21.8827 42.192 21.488C42.544 21.0827 42.7733 20.6613 42.88 20.224C42.9973 19.7867 43.056 19.36 43.056 18.944V16.48ZM40.96 18.992H43.664V20.032H40.96V18.992ZM45.184 16.464H46.224V23.312H45.184V16.464ZM40.688 16.48H41.696V20.032H40.688V16.48ZM47.6 16.608H48.592V20.624H47.6V16.608ZM45.776 18.96H48.128V20.016H45.776V18.96ZM50.544 17.024C51.1947 16.864 51.968 16.6613 52.864 16.416C53.76 16.16 54.672 15.8987 55.6 15.632L55.76 16.736C54.9173 16.992 54.0693 17.248 53.216 17.504C52.3627 17.7493 51.5893 17.9787 50.896 18.192L50.544 17.024ZM50.736 11.792H56.096V12.928H50.736V11.792ZM52.928 8.56H54.096V21.76C54.096 22.0907 54.0533 22.3467 53.968 22.528C53.8827 22.7093 53.7333 22.848 53.52 22.944C53.3067 23.0293 53.024 23.0827 52.672 23.104C52.32 23.136 51.872 23.152 51.328 23.152C51.3067 23.0027 51.2587 22.8213 51.184 22.608C51.12 22.3947 51.0453 22.208 50.96 22.048C51.3333 22.0587 51.6747 22.064 51.984 22.064C52.304 22.064 52.512 22.064 52.608 22.064C52.7253 22.0533 52.8053 22.0267 52.848 21.984C52.9013 21.9413 52.928 21.8667 52.928 21.76V8.56ZM57.872 9.136H62.064V10.256H57.872V9.136ZM56.016 15.632H63.392V16.752H56.016V15.632ZM62.976 15.632H63.216L63.44 15.584L64.224 15.92C63.8613 16.976 63.3813 17.9093 62.784 18.72C62.1867 19.5307 61.4987 20.2347 60.72 20.832C59.9413 21.4293 59.0933 21.9307 58.176 22.336C57.2693 22.7413 56.3253 23.0667 55.344 23.312C55.3227 23.1947 55.2747 23.0667 55.2 22.928C55.136 22.8 55.0613 22.6667 54.976 22.528C54.9013 22.4 54.8213 22.2933 54.736 22.208C55.6533 22.016 56.5387 21.744 57.392 21.392C58.256 21.04 59.0507 20.6027 59.776 20.08C60.512 19.5467 61.152 18.928 61.696 18.224C62.2507 17.5093 62.6773 16.7093 62.976 15.824V15.632ZM57.504 16.448C57.9413 17.4187 58.5333 18.2933 59.28 19.072C60.0267 19.84 60.912 20.4907 61.936 21.024C62.96 21.5467 64.096 21.936 65.344 22.192C65.2587 22.2773 65.1627 22.384 65.056 22.512C64.96 22.6507 64.8693 22.7893 64.784 22.928C64.6987 23.0667 64.6293 23.1893 64.576 23.296C62.6453 22.8373 60.9973 22.0587 59.632 20.96C58.2667 19.8613 57.2107 18.4853 56.464 16.832L57.504 16.448ZM57.568 9.136H58.704V10.928C58.704 11.4187 58.64 11.9253 58.512 12.448C58.384 12.96 58.144 13.4613 57.792 13.952C57.4507 14.432 56.9493 14.8587 56.288 15.232C56.2347 15.1467 56.16 15.0507 56.064 14.944C55.968 14.8267 55.8667 14.7147 55.76 14.608C55.6533 14.4907 55.5627 14.4053 55.488 14.352C56.096 14.0213 56.544 13.664 56.832 13.28C57.1307 12.8853 57.328 12.4853 57.424 12.08C57.52 11.6747 57.568 11.28 57.568 10.896V9.136ZM61.504 9.136H62.656V12.848C62.656 13.072 62.672 13.232 62.704 13.328C62.7467 13.4133 62.832 13.456 62.96 13.456C63.0347 13.456 63.1573 13.456 63.328 13.456C63.4987 13.456 63.6693 13.456 63.84 13.456C64.0107 13.456 64.128 13.456 64.192 13.456C64.32 13.456 64.4587 13.4507 64.608 13.44C64.7573 13.4187 64.8853 13.3973 64.992 13.376C65.0133 13.5253 65.0293 13.7013 65.04 13.904C65.0507 14.1067 65.072 14.2773 65.104 14.416C64.9973 14.448 64.864 14.4693 64.704 14.48C64.544 14.4907 64.384 14.496 64.224 14.496C64.1387 14.496 64 14.496 63.808 14.496C63.616 14.496 63.4293 14.496 63.248 14.496C63.0773 14.496 62.9547 14.496 62.88 14.496C62.5067 14.496 62.2187 14.4427 62.016 14.336C61.8133 14.2293 61.6747 14.0533 61.6 13.808C61.536 13.5627 61.504 13.232 61.504 12.816V9.136ZM72.112 13.504H79.904V14.496H72.112V13.504ZM72.112 15.776H79.904V16.752H72.112V15.776ZM72.608 21.648H79.376V22.64H72.608V21.648ZM70.96 11.2H81.152V12.224H70.96V11.2ZM71.904 18.112H80.064V23.232H78.976V19.104H72.944V23.28H71.904V18.112ZM74.656 8.96L75.696 8.56C75.9307 8.88 76.1547 9.23733 76.368 9.632C76.592 10.016 76.7573 10.352 76.864 10.64L75.792 11.12C75.6853 10.832 75.52 10.4853 75.296 10.08C75.0827 9.67467 74.8693 9.30133 74.656 8.96ZM70.096 8.624L71.168 8.944C70.8587 9.84 70.496 10.7253 70.08 11.6C69.664 12.4747 69.2053 13.3013 68.704 14.08C68.2133 14.848 67.7067 15.5307 67.184 16.128C67.1413 16.0427 67.0827 15.9307 67.008 15.792C66.9333 15.6427 66.848 15.4987 66.752 15.36C66.6667 15.2107 66.5867 15.0933 66.512 15.008C66.992 14.4853 67.4507 13.8827 67.888 13.2C68.336 12.5067 68.7467 11.7707 69.12 10.992C69.504 10.2133 69.8293 9.424 70.096 8.624ZM68.704 12.784L69.792 11.696L69.808 11.712V23.328H68.704V12.784Z" fill="white"/>
</svg>
