<svg width="74" height="32" viewBox="0 0 74 32" fill="none" xmlns="http://www.w3.org/2000/svg">
<rect x="0.5" y="0.5" width="67" height="31" rx="3.5" stroke="#ACACAC"/>
<path d="M21.6 14.32C20.88 14.704 20.112 15.072 19.28 15.408L18.624 14.336C21.504 13.328 23.616 12.048 24.96 10.48H21.904V9.44H26.624C27.904 11.376 30.112 12.928 33.28 14.096L32.512 15.136C31.712 14.816 30.992 14.464 30.32 14.112V15.168H26.592V17.984H31.216V19.088H26.592V21.984H32.672V23.12H19.424V21.984H25.424V19.088H20.768V17.984H25.424V15.168H21.6V14.32ZM30.24 14.064C28.48 13.072 27.088 11.92 26.064 10.592C25.12 11.904 23.776 13.056 22.048 14.064H30.24ZM43.616 9.568H48.912V10.432C48.384 12.128 47.808 13.696 47.2 15.136C48.464 16.704 49.104 18 49.12 18.992C49.12 19.92 48.912 20.576 48.496 20.928C48.048 21.312 47.152 21.504 45.808 21.504L45.456 20.288C45.888 20.336 46.256 20.368 46.56 20.368C47.152 20.336 47.536 20.24 47.712 20.064C47.872 19.872 47.968 19.52 47.984 18.992C47.968 18.016 47.296 16.736 45.968 15.136C46.544 13.856 47.12 12.368 47.664 10.64H44.736V23.568H43.616V9.568ZM35.088 10.528H38.24C38.064 9.984 37.888 9.488 37.696 9.04L38.864 8.848C39.024 9.344 39.2 9.904 39.36 10.528H42.608V11.632H41.84C41.52 12.848 41.152 13.952 40.736 14.912H42.736V16.016H34.816V14.912H36.864C36.608 13.744 36.288 12.656 35.92 11.632H35.088V10.528ZM39.664 14.912C40.064 13.872 40.416 12.784 40.72 11.632H37.04C37.36 12.576 37.664 13.664 37.952 14.912H39.664ZM41.984 17.552V23.568H40.848V22.704H36.88V23.568H35.76V17.552H41.984ZM36.88 21.616H40.848V18.656H36.88V21.616Z" fill="#1C1C1C"/>
<line x1="73.5" y1="2.18557e-08" x2="73.5" y2="32" stroke="#D9D9D9"/>
</svg>
