<svg width="640" height="56" viewBox="0 0 640 56" fill="none" xmlns="http://www.w3.org/2000/svg">
<rect y="12" width="68" height="32" rx="4" fill="#00A19B"/>
<path d="M21.6 26.32C20.88 26.704 20.112 27.072 19.28 27.408L18.624 26.336C21.504 25.328 23.616 24.048 24.96 22.48H21.904V21.44H26.624C27.904 23.376 30.112 24.928 33.28 26.096L32.512 27.136C31.712 26.816 30.992 26.464 30.32 26.112V27.168H26.592V29.984H31.216V31.088H26.592V33.984H32.672V35.12H19.424V33.984H25.424V31.088H20.768V29.984H25.424V27.168H21.6V26.32ZM30.24 26.064C28.48 25.072 27.088 23.92 26.064 22.592C25.12 23.904 23.776 25.056 22.048 26.064H30.24ZM43.616 21.568H48.912V22.432C48.384 24.128 47.808 25.696 47.2 27.136C48.464 28.704 49.104 30 49.12 30.992C49.12 31.92 48.912 32.576 48.496 32.928C48.048 33.312 47.152 33.504 45.808 33.504L45.456 32.288C45.888 32.336 46.256 32.368 46.56 32.368C47.152 32.336 47.536 32.24 47.712 32.064C47.872 31.872 47.968 31.52 47.984 30.992C47.968 30.016 47.296 28.736 45.968 27.136C46.544 25.856 47.12 24.368 47.664 22.64H44.736V35.568H43.616V21.568ZM35.088 22.528H38.24C38.064 21.984 37.888 21.488 37.696 21.04L38.864 20.848C39.024 21.344 39.2 21.904 39.36 22.528H42.608V23.632H41.84C41.52 24.848 41.152 25.952 40.736 26.912H42.736V28.016H34.816V26.912H36.864C36.608 25.744 36.288 24.656 35.92 23.632H35.088V22.528ZM39.664 26.912C40.064 25.872 40.416 24.784 40.72 23.632H37.04C37.36 24.576 37.664 25.664 37.952 26.912H39.664ZM41.984 29.552V35.568H40.848V34.704H36.88V35.568H35.76V29.552H41.984ZM36.88 33.616H40.848V30.656H36.88V33.616Z" fill="white"/>
<line x1="73.5" y1="12" x2="73.5" y2="44" stroke="#D9D9D9"/>
<rect x="78.5" y="12.5" width="99" height="31" rx="3.5" stroke="#ACACAC"/>
<path d="M98.16 25.04V26.816H103.04V25.04H98.16ZM98.16 22.352V24.096H103.04V22.352H98.16ZM97.152 21.36H104.08V27.808H97.152V21.36ZM97.136 29.616H104.08V30.704H97.136V29.616ZM96.608 33.488C97.2587 33.4133 98.0053 33.3227 98.848 33.216C99.7013 33.0987 100.608 32.976 101.568 32.848C102.539 32.72 103.509 32.592 104.48 32.464L104.496 33.52C103.579 33.6587 102.651 33.7973 101.712 33.936C100.784 34.0747 99.8987 34.208 99.056 34.336C98.2133 34.464 97.4507 34.576 96.768 34.672L96.608 33.488ZM104.608 21.392H110.432V22.48H104.608V21.392ZM104.416 26.528H110.672V27.68H104.416V26.528ZM109.936 21.392H110.224L110.464 21.328L111.264 21.856C110.987 22.272 110.661 22.6987 110.288 23.136C109.925 23.5733 109.541 23.984 109.136 24.368C108.731 24.752 108.325 25.0933 107.92 25.392C107.845 25.2747 107.739 25.152 107.6 25.024C107.461 24.8853 107.344 24.7787 107.248 24.704C107.589 24.4373 107.925 24.128 108.256 23.776C108.597 23.4133 108.917 23.0453 109.216 22.672C109.515 22.288 109.755 21.936 109.936 21.616V21.392ZM105.232 24.192L106 23.456C106.469 23.6907 106.949 23.968 107.44 24.288C107.931 24.608 108.389 24.9333 108.816 25.264C109.243 25.5947 109.595 25.8987 109.872 26.176L109.088 27.024C108.821 26.7253 108.475 26.4053 108.048 26.064C107.621 25.7227 107.163 25.3867 106.672 25.056C106.192 24.7253 105.712 24.4373 105.232 24.192ZM110.32 26.528H110.496L110.704 26.48L111.52 26.704C111.317 27.3653 111.099 28.048 110.864 28.752C110.629 29.4453 110.395 30.032 110.16 30.512L109.168 30.24C109.307 29.9413 109.445 29.5947 109.584 29.2C109.723 28.8053 109.856 28.3947 109.984 27.968C110.112 27.5413 110.224 27.1307 110.32 26.736V26.528ZM106.992 27.104H108.192V33.824C108.192 34.1547 108.144 34.416 108.048 34.608C107.963 34.8 107.797 34.9493 107.552 35.056C107.307 35.152 106.976 35.2107 106.56 35.232C106.144 35.2533 105.632 35.264 105.024 35.264C105.003 35.0933 104.955 34.8907 104.88 34.656C104.805 34.432 104.725 34.2347 104.64 34.064C105.12 34.0853 105.547 34.096 105.92 34.096C106.293 34.1067 106.544 34.1067 106.672 34.096C106.8 34.0853 106.885 34.0587 106.928 34.016C106.971 33.9733 106.992 33.8987 106.992 33.792V27.104ZM100.096 21.744H101.12V27.36H101.184V33.28H100.032V27.36H100.096V21.744ZM119.728 23.968H127.456V25.12H119.728V23.968ZM124.512 20.576H125.728V33.632C125.728 34.0587 125.669 34.3733 125.552 34.576C125.435 34.7893 125.243 34.944 124.976 35.04C124.72 35.1467 124.357 35.2107 123.888 35.232C123.419 35.264 122.837 35.28 122.144 35.28C122.123 35.1627 122.085 35.0293 122.032 34.88C121.989 34.7307 121.936 34.576 121.872 34.416C121.819 34.2667 121.76 34.1333 121.696 34.016C122.24 34.0267 122.736 34.032 123.184 34.032C123.643 34.032 123.952 34.032 124.112 34.032C124.261 34.0213 124.363 33.9893 124.416 33.936C124.48 33.8827 124.512 33.7813 124.512 33.632V20.576ZM120.064 27.248L121.056 26.784C121.355 27.168 121.643 27.5947 121.92 28.064C122.208 28.5227 122.464 28.9707 122.688 29.408C122.912 29.8453 123.077 30.24 123.184 30.592L122.096 31.152C121.989 30.8 121.829 30.4 121.616 29.952C121.403 29.504 121.163 29.0453 120.896 28.576C120.629 28.096 120.352 27.6533 120.064 27.248ZM112.832 23.984H119.248V25.136H112.832V23.984ZM115.68 20.56H116.832V35.264H115.68V20.56ZM115.616 24.704L116.432 24.992C116.272 25.6427 116.069 26.3147 115.824 27.008C115.589 27.6907 115.328 28.3627 115.04 29.024C114.752 29.6853 114.443 30.304 114.112 30.88C113.792 31.4453 113.461 31.9253 113.12 32.32C113.045 32.1493 112.939 31.9573 112.8 31.744C112.672 31.5307 112.555 31.3493 112.448 31.2C112.779 30.8373 113.099 30.4107 113.408 29.92C113.728 29.4187 114.027 28.8747 114.304 28.288C114.581 27.7013 114.832 27.104 115.056 26.496C115.291 25.888 115.477 25.2907 115.616 24.704ZM116.768 26.528C116.885 26.6347 117.061 26.816 117.296 27.072C117.541 27.3173 117.803 27.5893 118.08 27.888C118.357 28.1867 118.613 28.464 118.848 28.72C119.083 28.976 119.243 29.1627 119.328 29.28L118.56 30.288C118.443 30.096 118.277 29.856 118.064 29.568C117.851 29.28 117.621 28.9813 117.376 28.672C117.131 28.352 116.896 28.0587 116.672 27.792C116.448 27.5147 116.261 27.296 116.112 27.136L116.768 26.528ZM128.544 29.024C129.195 28.864 129.968 28.6613 130.864 28.416C131.76 28.16 132.672 27.8987 133.6 27.632L133.76 28.736C132.917 28.992 132.069 29.248 131.216 29.504C130.363 29.7493 129.589 29.9787 128.896 30.192L128.544 29.024ZM128.736 23.792H134.096V24.928H128.736V23.792ZM130.928 20.56H132.096V33.76C132.096 34.0907 132.053 34.3467 131.968 34.528C131.883 34.7093 131.733 34.848 131.52 34.944C131.307 35.0293 131.024 35.0827 130.672 35.104C130.32 35.136 129.872 35.152 129.328 35.152C129.307 35.0027 129.259 34.8213 129.184 34.608C129.12 34.3947 129.045 34.208 128.96 34.048C129.333 34.0587 129.675 34.064 129.984 34.064C130.304 34.064 130.512 34.064 130.608 34.064C130.725 34.0533 130.805 34.0267 130.848 33.984C130.901 33.9413 130.928 33.8667 130.928 33.76V20.56ZM135.872 21.136H140.064V22.256H135.872V21.136ZM134.016 27.632H141.392V28.752H134.016V27.632ZM140.976 27.632H141.216L141.44 27.584L142.224 27.92C141.861 28.976 141.381 29.9093 140.784 30.72C140.187 31.5307 139.499 32.2347 138.72 32.832C137.941 33.4293 137.093 33.9307 136.176 34.336C135.269 34.7413 134.325 35.0667 133.344 35.312C133.323 35.1947 133.275 35.0667 133.2 34.928C133.136 34.8 133.061 34.6667 132.976 34.528C132.901 34.4 132.821 34.2933 132.736 34.208C133.653 34.016 134.539 33.744 135.392 33.392C136.256 33.04 137.051 32.6027 137.776 32.08C138.512 31.5467 139.152 30.928 139.696 30.224C140.251 29.5093 140.677 28.7093 140.976 27.824V27.632ZM135.504 28.448C135.941 29.4187 136.533 30.2933 137.28 31.072C138.027 31.84 138.912 32.4907 139.936 33.024C140.96 33.5467 142.096 33.936 143.344 34.192C143.259 34.2773 143.163 34.384 143.056 34.512C142.96 34.6507 142.869 34.7893 142.784 34.928C142.699 35.0667 142.629 35.1893 142.576 35.296C140.645 34.8373 138.997 34.0587 137.632 32.96C136.267 31.8613 135.211 30.4853 134.464 28.832L135.504 28.448ZM135.568 21.136H136.704V22.928C136.704 23.4187 136.64 23.9253 136.512 24.448C136.384 24.96 136.144 25.4613 135.792 25.952C135.451 26.432 134.949 26.8587 134.288 27.232C134.235 27.1467 134.16 27.0507 134.064 26.944C133.968 26.8267 133.867 26.7147 133.76 26.608C133.653 26.4907 133.563 26.4053 133.488 26.352C134.096 26.0213 134.544 25.664 134.832 25.28C135.131 24.8853 135.328 24.4853 135.424 24.08C135.52 23.6747 135.568 23.28 135.568 22.896V21.136ZM139.504 21.136H140.656V24.848C140.656 25.072 140.672 25.232 140.704 25.328C140.747 25.4133 140.832 25.456 140.96 25.456C141.035 25.456 141.157 25.456 141.328 25.456C141.499 25.456 141.669 25.456 141.84 25.456C142.011 25.456 142.128 25.456 142.192 25.456C142.32 25.456 142.459 25.4507 142.608 25.44C142.757 25.4187 142.885 25.3973 142.992 25.376C143.013 25.5253 143.029 25.7013 143.04 25.904C143.051 26.1067 143.072 26.2773 143.104 26.416C142.997 26.448 142.864 26.4693 142.704 26.48C142.544 26.4907 142.384 26.496 142.224 26.496C142.139 26.496 142 26.496 141.808 26.496C141.616 26.496 141.429 26.496 141.248 26.496C141.077 26.496 140.955 26.496 140.88 26.496C140.507 26.496 140.219 26.4427 140.016 26.336C139.813 26.2293 139.675 26.0533 139.6 25.808C139.536 25.5627 139.504 25.232 139.504 24.816V21.136ZM150.112 25.504H157.904V26.496H150.112V25.504ZM150.112 27.776H157.904V28.752H150.112V27.776ZM150.608 33.648H157.376V34.64H150.608V33.648ZM148.96 23.2H159.152V24.224H148.96V23.2ZM149.904 30.112H158.064V35.232H156.976V31.104H150.944V35.28H149.904V30.112ZM152.656 20.96L153.696 20.56C153.931 20.88 154.155 21.2373 154.368 21.632C154.592 22.016 154.757 22.352 154.864 22.64L153.792 23.12C153.685 22.832 153.52 22.4853 153.296 22.08C153.083 21.6747 152.869 21.3013 152.656 20.96ZM148.096 20.624L149.168 20.944C148.859 21.84 148.496 22.7253 148.08 23.6C147.664 24.4747 147.205 25.3013 146.704 26.08C146.213 26.848 145.707 27.5307 145.184 28.128C145.141 28.0427 145.083 27.9307 145.008 27.792C144.933 27.6427 144.848 27.4987 144.752 27.36C144.667 27.2107 144.587 27.0933 144.512 27.008C144.992 26.4853 145.451 25.8827 145.888 25.2C146.336 24.5067 146.747 23.7707 147.12 22.992C147.504 22.2133 147.829 21.424 148.096 20.624ZM146.704 24.784L147.792 23.696L147.808 23.712V35.328H146.704V24.784Z" fill="#1C1C1C"/>
<rect x="188.5" y="12.5" width="99" height="31" rx="3.5" stroke="#ACACAC"/>
<path d="M208.16 25.04V26.816H213.04V25.04H208.16ZM208.16 22.352V24.096H213.04V22.352H208.16ZM207.152 21.36H214.08V27.808H207.152V21.36ZM207.136 29.616H214.08V30.704H207.136V29.616ZM206.608 33.488C207.259 33.4133 208.005 33.3227 208.848 33.216C209.701 33.0987 210.608 32.976 211.568 32.848C212.539 32.72 213.509 32.592 214.48 32.464L214.496 33.52C213.579 33.6587 212.651 33.7973 211.712 33.936C210.784 34.0747 209.899 34.208 209.056 34.336C208.213 34.464 207.451 34.576 206.768 34.672L206.608 33.488ZM214.608 21.392H220.432V22.48H214.608V21.392ZM214.416 26.528H220.672V27.68H214.416V26.528ZM219.936 21.392H220.224L220.464 21.328L221.264 21.856C220.987 22.272 220.661 22.6987 220.288 23.136C219.925 23.5733 219.541 23.984 219.136 24.368C218.731 24.752 218.325 25.0933 217.92 25.392C217.845 25.2747 217.739 25.152 217.6 25.024C217.461 24.8853 217.344 24.7787 217.248 24.704C217.589 24.4373 217.925 24.128 218.256 23.776C218.597 23.4133 218.917 23.0453 219.216 22.672C219.515 22.288 219.755 21.936 219.936 21.616V21.392ZM215.232 24.192L216 23.456C216.469 23.6907 216.949 23.968 217.44 24.288C217.931 24.608 218.389 24.9333 218.816 25.264C219.243 25.5947 219.595 25.8987 219.872 26.176L219.088 27.024C218.821 26.7253 218.475 26.4053 218.048 26.064C217.621 25.7227 217.163 25.3867 216.672 25.056C216.192 24.7253 215.712 24.4373 215.232 24.192ZM220.32 26.528H220.496L220.704 26.48L221.52 26.704C221.317 27.3653 221.099 28.048 220.864 28.752C220.629 29.4453 220.395 30.032 220.16 30.512L219.168 30.24C219.307 29.9413 219.445 29.5947 219.584 29.2C219.723 28.8053 219.856 28.3947 219.984 27.968C220.112 27.5413 220.224 27.1307 220.32 26.736V26.528ZM216.992 27.104H218.192V33.824C218.192 34.1547 218.144 34.416 218.048 34.608C217.963 34.8 217.797 34.9493 217.552 35.056C217.307 35.152 216.976 35.2107 216.56 35.232C216.144 35.2533 215.632 35.264 215.024 35.264C215.003 35.0933 214.955 34.8907 214.88 34.656C214.805 34.432 214.725 34.2347 214.64 34.064C215.12 34.0853 215.547 34.096 215.92 34.096C216.293 34.1067 216.544 34.1067 216.672 34.096C216.8 34.0853 216.885 34.0587 216.928 34.016C216.971 33.9733 216.992 33.8987 216.992 33.792V27.104ZM210.096 21.744H211.12V27.36H211.184V33.28H210.032V27.36H210.096V21.744ZM229.728 23.968H237.456V25.12H229.728V23.968ZM234.512 20.576H235.728V33.632C235.728 34.0587 235.669 34.3733 235.552 34.576C235.435 34.7893 235.243 34.944 234.976 35.04C234.72 35.1467 234.357 35.2107 233.888 35.232C233.419 35.264 232.837 35.28 232.144 35.28C232.123 35.1627 232.085 35.0293 232.032 34.88C231.989 34.7307 231.936 34.576 231.872 34.416C231.819 34.2667 231.76 34.1333 231.696 34.016C232.24 34.0267 232.736 34.032 233.184 34.032C233.643 34.032 233.952 34.032 234.112 34.032C234.261 34.0213 234.363 33.9893 234.416 33.936C234.48 33.8827 234.512 33.7813 234.512 33.632V20.576ZM230.064 27.248L231.056 26.784C231.355 27.168 231.643 27.5947 231.92 28.064C232.208 28.5227 232.464 28.9707 232.688 29.408C232.912 29.8453 233.077 30.24 233.184 30.592L232.096 31.152C231.989 30.8 231.829 30.4 231.616 29.952C231.403 29.504 231.163 29.0453 230.896 28.576C230.629 28.096 230.352 27.6533 230.064 27.248ZM222.832 23.984H229.248V25.136H222.832V23.984ZM225.68 20.56H226.832V35.264H225.68V20.56ZM225.616 24.704L226.432 24.992C226.272 25.6427 226.069 26.3147 225.824 27.008C225.589 27.6907 225.328 28.3627 225.04 29.024C224.752 29.6853 224.443 30.304 224.112 30.88C223.792 31.4453 223.461 31.9253 223.12 32.32C223.045 32.1493 222.939 31.9573 222.8 31.744C222.672 31.5307 222.555 31.3493 222.448 31.2C222.779 30.8373 223.099 30.4107 223.408 29.92C223.728 29.4187 224.027 28.8747 224.304 28.288C224.581 27.7013 224.832 27.104 225.056 26.496C225.291 25.888 225.477 25.2907 225.616 24.704ZM226.768 26.528C226.885 26.6347 227.061 26.816 227.296 27.072C227.541 27.3173 227.803 27.5893 228.08 27.888C228.357 28.1867 228.613 28.464 228.848 28.72C229.083 28.976 229.243 29.1627 229.328 29.28L228.56 30.288C228.443 30.096 228.277 29.856 228.064 29.568C227.851 29.28 227.621 28.9813 227.376 28.672C227.131 28.352 226.896 28.0587 226.672 27.792C226.448 27.5147 226.261 27.296 226.112 27.136L226.768 26.528ZM238.544 29.024C239.195 28.864 239.968 28.6613 240.864 28.416C241.76 28.16 242.672 27.8987 243.6 27.632L243.76 28.736C242.917 28.992 242.069 29.248 241.216 29.504C240.363 29.7493 239.589 29.9787 238.896 30.192L238.544 29.024ZM238.736 23.792H244.096V24.928H238.736V23.792ZM240.928 20.56H242.096V33.76C242.096 34.0907 242.053 34.3467 241.968 34.528C241.883 34.7093 241.733 34.848 241.52 34.944C241.307 35.0293 241.024 35.0827 240.672 35.104C240.32 35.136 239.872 35.152 239.328 35.152C239.307 35.0027 239.259 34.8213 239.184 34.608C239.12 34.3947 239.045 34.208 238.96 34.048C239.333 34.0587 239.675 34.064 239.984 34.064C240.304 34.064 240.512 34.064 240.608 34.064C240.725 34.0533 240.805 34.0267 240.848 33.984C240.901 33.9413 240.928 33.8667 240.928 33.76V20.56ZM245.872 21.136H250.064V22.256H245.872V21.136ZM244.016 27.632H251.392V28.752H244.016V27.632ZM250.976 27.632H251.216L251.44 27.584L252.224 27.92C251.861 28.976 251.381 29.9093 250.784 30.72C250.187 31.5307 249.499 32.2347 248.72 32.832C247.941 33.4293 247.093 33.9307 246.176 34.336C245.269 34.7413 244.325 35.0667 243.344 35.312C243.323 35.1947 243.275 35.0667 243.2 34.928C243.136 34.8 243.061 34.6667 242.976 34.528C242.901 34.4 242.821 34.2933 242.736 34.208C243.653 34.016 244.539 33.744 245.392 33.392C246.256 33.04 247.051 32.6027 247.776 32.08C248.512 31.5467 249.152 30.928 249.696 30.224C250.251 29.5093 250.677 28.7093 250.976 27.824V27.632ZM245.504 28.448C245.941 29.4187 246.533 30.2933 247.28 31.072C248.027 31.84 248.912 32.4907 249.936 33.024C250.96 33.5467 252.096 33.936 253.344 34.192C253.259 34.2773 253.163 34.384 253.056 34.512C252.96 34.6507 252.869 34.7893 252.784 34.928C252.699 35.0667 252.629 35.1893 252.576 35.296C250.645 34.8373 248.997 34.0587 247.632 32.96C246.267 31.8613 245.211 30.4853 244.464 28.832L245.504 28.448ZM245.568 21.136H246.704V22.928C246.704 23.4187 246.64 23.9253 246.512 24.448C246.384 24.96 246.144 25.4613 245.792 25.952C245.451 26.432 244.949 26.8587 244.288 27.232C244.235 27.1467 244.16 27.0507 244.064 26.944C243.968 26.8267 243.867 26.7147 243.76 26.608C243.653 26.4907 243.563 26.4053 243.488 26.352C244.096 26.0213 244.544 25.664 244.832 25.28C245.131 24.8853 245.328 24.4853 245.424 24.08C245.52 23.6747 245.568 23.28 245.568 22.896V21.136ZM249.504 21.136H250.656V24.848C250.656 25.072 250.672 25.232 250.704 25.328C250.747 25.4133 250.832 25.456 250.96 25.456C251.035 25.456 251.157 25.456 251.328 25.456C251.499 25.456 251.669 25.456 251.84 25.456C252.011 25.456 252.128 25.456 252.192 25.456C252.32 25.456 252.459 25.4507 252.608 25.44C252.757 25.4187 252.885 25.3973 252.992 25.376C253.013 25.5253 253.029 25.7013 253.04 25.904C253.051 26.1067 253.072 26.2773 253.104 26.416C252.997 26.448 252.864 26.4693 252.704 26.48C252.544 26.4907 252.384 26.496 252.224 26.496C252.139 26.496 252 26.496 251.808 26.496C251.616 26.496 251.429 26.496 251.248 26.496C251.077 26.496 250.955 26.496 250.88 26.496C250.507 26.496 250.219 26.4427 250.016 26.336C249.813 26.2293 249.675 26.0533 249.6 25.808C249.536 25.5627 249.504 25.232 249.504 24.816V21.136ZM260.112 25.504H267.904V26.496H260.112V25.504ZM260.112 27.776H267.904V28.752H260.112V27.776ZM260.608 33.648H267.376V34.64H260.608V33.648ZM258.96 23.2H269.152V24.224H258.96V23.2ZM259.904 30.112H268.064V35.232H266.976V31.104H260.944V35.28H259.904V30.112ZM262.656 20.96L263.696 20.56C263.931 20.88 264.155 21.2373 264.368 21.632C264.592 22.016 264.757 22.352 264.864 22.64L263.792 23.12C263.685 22.832 263.52 22.4853 263.296 22.08C263.083 21.6747 262.869 21.3013 262.656 20.96ZM258.096 20.624L259.168 20.944C258.859 21.84 258.496 22.7253 258.08 23.6C257.664 24.4747 257.205 25.3013 256.704 26.08C256.213 26.848 255.707 27.5307 255.184 28.128C255.141 28.0427 255.083 27.9307 255.008 27.792C254.933 27.6427 254.848 27.4987 254.752 27.36C254.667 27.2107 254.587 27.0933 254.512 27.008C254.992 26.4853 255.451 25.8827 255.888 25.2C256.336 24.5067 256.747 23.7707 257.12 22.992C257.504 22.2133 257.829 21.424 258.096 20.624ZM256.704 24.784L257.792 23.696L257.808 23.712V35.328H256.704V24.784Z" fill="#1C1C1C"/>
<rect x="298.5" y="12.5" width="99" height="31" rx="3.5" stroke="#ACACAC"/>
<path d="M319.792 23.992L318.992 24.648C318.624 24.072 317.792 23.208 317.104 22.6L317.872 22.04C318.56 22.616 319.408 23.448 319.792 23.992ZM319.328 28.232L318.544 28.936C318.128 28.376 317.296 27.512 316.592 26.92L317.344 26.296C318.048 26.872 318.912 27.688 319.328 28.232ZM317.984 36.008L316.944 35.48C317.408 34.248 318.048 32.2 318.48 30.44L319.424 30.968C319.024 32.616 318.464 34.552 317.984 36.008ZM326.608 30.696L325.92 31.048C325.696 30.456 325.2 29.544 324.736 28.888L325.392 28.6C325.856 29.256 326.384 30.152 326.608 30.696ZM329.84 30.616L329.136 30.936C328.944 30.392 328.432 29.496 328 28.856L328.672 28.6C329.104 29.224 329.632 30.088 329.84 30.616ZM327.984 26.76H330.56C329.552 25.928 328.688 24.952 327.92 23.544C327.264 24.84 326.352 25.96 325.264 26.76H327.568V33.336C328.176 32.808 329.04 32.024 329.888 31.24V27.72H327.984V26.76ZM320.96 28.792V30.072H323.36V28.792H320.96ZM320.96 26.68V27.928H323.36V26.68H320.96ZM327.664 21.56L328.608 21.864C328.544 22.056 328.48 22.232 328.416 22.424C329.248 24.088 330.24 25.144 331.44 25.992C331.2 26.2 330.896 26.488 330.72 26.76H330.816V34.952C330.816 35.48 330.72 35.752 330.352 35.928C329.984 36.104 329.392 36.12 328.464 36.12C328.432 35.848 328.288 35.432 328.16 35.176C328.848 35.192 329.472 35.192 329.632 35.176C329.824 35.176 329.888 35.112 329.888 34.936V32.312C329.248 32.952 328.592 33.592 328.016 34.168L327.568 33.496V34.968C327.568 35.496 327.472 35.784 327.104 35.944C326.752 36.12 326.176 36.12 325.248 36.12C325.216 35.864 325.104 35.464 324.976 35.208C325.648 35.224 326.224 35.224 326.416 35.208C326.592 35.208 326.656 35.144 326.656 34.968V32.536C326.064 33.128 325.472 33.72 324.912 34.232L324.352 33.464L324.464 33.368H322.736V35.944H321.696V33.368H319.52V32.344H321.696V30.968H320.016V25.784H321.696V24.424H319.824V23.416H321.696V21.88H322.752V23.416H324.528V24.424H322.752V25.784H324.336V30.968H322.736V32.344H324.704V33.176C325.248 32.712 325.968 32.056 326.656 31.416V27.72H324.912V26.76H325.008C324.816 26.504 324.56 26.232 324.336 26.04C325.856 25.096 327.072 23.432 327.664 21.56ZM335.168 30.536H338.768V34.44H341.136V30.52H344.768V27.24H341.136V23.736H338.752V27.272H335.168V30.536ZM342.288 34.44H347.136V35.528H332.864V34.44H337.616V31.576H334.016V26.232H337.616V23.736H333.296V22.632H346.752V23.736H342.288V26.216H345.968V31.56H345.392V31.576H342.288V34.44ZM356.688 23.304V23.976C356.688 25.4 356.256 27.112 354.288 28.248C354.144 28.008 353.728 27.56 353.504 27.368C355.28 26.392 355.568 25.08 355.568 23.944V22.184H360.608V25.88C360.608 26.328 360.656 26.488 360.912 26.488H362.144C362.384 26.488 362.736 26.456 362.944 26.408C362.96 26.712 362.992 27.16 363.04 27.432C362.832 27.496 362.496 27.512 362.176 27.512H360.832C359.712 27.512 359.472 27.048 359.472 25.864V23.304H356.688ZM353.776 29.72L352.128 30.216V34.712C352.128 35.384 351.952 35.704 351.536 35.88C351.136 36.072 350.464 36.104 349.376 36.104C349.328 35.8 349.152 35.32 349.008 35C349.776 35.032 350.464 35.016 350.656 35.016C350.88 35.016 350.96 34.936 350.96 34.712V30.584L348.944 31.176L348.592 30.024C349.248 29.864 350.064 29.64 350.96 29.384V25.944H348.784V24.824H350.96V21.624H352.128V24.824H354.112V25.944H352.128V29.064L353.616 28.632L353.776 29.72ZM360.56 29.752H355.632C356.192 30.92 357.04 31.944 358.064 32.808C359.104 31.976 359.984 30.968 360.56 29.752ZM361.392 28.584L362.16 28.936C361.52 30.856 360.416 32.36 359.04 33.512C360.24 34.264 361.68 34.824 363.28 35.16C363.008 35.416 362.688 35.912 362.528 36.248C360.816 35.832 359.296 35.16 358.048 34.248C356.656 35.192 355.04 35.832 353.36 36.264C353.248 35.928 352.992 35.432 352.768 35.176C354.304 34.84 355.792 34.28 357.088 33.48C356 32.472 355.12 31.24 354.48 29.816L354.64 29.752H354.016V28.632H361.168L361.392 28.584ZM374.848 23.688L373.776 24.152C373.568 23.592 373.072 22.68 372.672 22.024L373.68 21.608C374.144 22.28 374.624 23.128 374.848 23.688ZM368.144 21.672L369.2 21.992C368.832 23.064 368.368 24.136 367.856 25.144V36.28H366.752V27.064C366.272 27.832 365.744 28.52 365.232 29.128C365.12 28.872 364.784 28.296 364.576 28.024C366.016 26.472 367.328 24.088 368.144 21.672ZM376.96 32.088H370.96V34.616H376.96V32.088ZM369.92 36.232V31.096H378.016V36.184H376.96V35.608H370.96V36.232H369.92ZM370.144 29.752V28.776H377.856V29.752H370.144ZM377.856 26.536V27.512H370.144V26.536H377.856ZM368.992 24.248H379.12V25.256H368.992V24.248Z" fill="#1C1C1C"/>
<rect x="408.5" y="12.5" width="99" height="31" rx="3.5" stroke="#ACACAC"/>
<path d="M429.792 23.992L428.992 24.648C428.624 24.072 427.792 23.208 427.104 22.6L427.872 22.04C428.56 22.616 429.408 23.448 429.792 23.992ZM429.328 28.232L428.544 28.936C428.128 28.376 427.296 27.512 426.592 26.92L427.344 26.296C428.048 26.872 428.912 27.688 429.328 28.232ZM427.984 36.008L426.944 35.48C427.408 34.248 428.048 32.2 428.48 30.44L429.424 30.968C429.024 32.616 428.464 34.552 427.984 36.008ZM436.608 30.696L435.92 31.048C435.696 30.456 435.2 29.544 434.736 28.888L435.392 28.6C435.856 29.256 436.384 30.152 436.608 30.696ZM439.84 30.616L439.136 30.936C438.944 30.392 438.432 29.496 438 28.856L438.672 28.6C439.104 29.224 439.632 30.088 439.84 30.616ZM437.984 26.76H440.56C439.552 25.928 438.688 24.952 437.92 23.544C437.264 24.84 436.352 25.96 435.264 26.76H437.568V33.336C438.176 32.808 439.04 32.024 439.888 31.24V27.72H437.984V26.76ZM430.96 28.792V30.072H433.36V28.792H430.96ZM430.96 26.68V27.928H433.36V26.68H430.96ZM437.664 21.56L438.608 21.864C438.544 22.056 438.48 22.232 438.416 22.424C439.248 24.088 440.24 25.144 441.44 25.992C441.2 26.2 440.896 26.488 440.72 26.76H440.816V34.952C440.816 35.48 440.72 35.752 440.352 35.928C439.984 36.104 439.392 36.12 438.464 36.12C438.432 35.848 438.288 35.432 438.16 35.176C438.848 35.192 439.472 35.192 439.632 35.176C439.824 35.176 439.888 35.112 439.888 34.936V32.312C439.248 32.952 438.592 33.592 438.016 34.168L437.568 33.496V34.968C437.568 35.496 437.472 35.784 437.104 35.944C436.752 36.12 436.176 36.12 435.248 36.12C435.216 35.864 435.104 35.464 434.976 35.208C435.648 35.224 436.224 35.224 436.416 35.208C436.592 35.208 436.656 35.144 436.656 34.968V32.536C436.064 33.128 435.472 33.72 434.912 34.232L434.352 33.464L434.464 33.368H432.736V35.944H431.696V33.368H429.52V32.344H431.696V30.968H430.016V25.784H431.696V24.424H429.824V23.416H431.696V21.88H432.752V23.416H434.528V24.424H432.752V25.784H434.336V30.968H432.736V32.344H434.704V33.176C435.248 32.712 435.968 32.056 436.656 31.416V27.72H434.912V26.76H435.008C434.816 26.504 434.56 26.232 434.336 26.04C435.856 25.096 437.072 23.432 437.664 21.56ZM445.168 30.536H448.768V34.44H451.136V30.52H454.768V27.24H451.136V23.736H448.752V27.272H445.168V30.536ZM452.288 34.44H457.136V35.528H442.864V34.44H447.616V31.576H444.016V26.232H447.616V23.736H443.296V22.632H456.752V23.736H452.288V26.216H455.968V31.56H455.392V31.576H452.288V34.44ZM466.688 23.304V23.976C466.688 25.4 466.256 27.112 464.288 28.248C464.144 28.008 463.728 27.56 463.504 27.368C465.28 26.392 465.568 25.08 465.568 23.944V22.184H470.608V25.88C470.608 26.328 470.656 26.488 470.912 26.488H472.144C472.384 26.488 472.736 26.456 472.944 26.408C472.96 26.712 472.992 27.16 473.04 27.432C472.832 27.496 472.496 27.512 472.176 27.512H470.832C469.712 27.512 469.472 27.048 469.472 25.864V23.304H466.688ZM463.776 29.72L462.128 30.216V34.712C462.128 35.384 461.952 35.704 461.536 35.88C461.136 36.072 460.464 36.104 459.376 36.104C459.328 35.8 459.152 35.32 459.008 35C459.776 35.032 460.464 35.016 460.656 35.016C460.88 35.016 460.96 34.936 460.96 34.712V30.584L458.944 31.176L458.592 30.024C459.248 29.864 460.064 29.64 460.96 29.384V25.944H458.784V24.824H460.96V21.624H462.128V24.824H464.112V25.944H462.128V29.064L463.616 28.632L463.776 29.72ZM470.56 29.752H465.632C466.192 30.92 467.04 31.944 468.064 32.808C469.104 31.976 469.984 30.968 470.56 29.752ZM471.392 28.584L472.16 28.936C471.52 30.856 470.416 32.36 469.04 33.512C470.24 34.264 471.68 34.824 473.28 35.16C473.008 35.416 472.688 35.912 472.528 36.248C470.816 35.832 469.296 35.16 468.048 34.248C466.656 35.192 465.04 35.832 463.36 36.264C463.248 35.928 462.992 35.432 462.768 35.176C464.304 34.84 465.792 34.28 467.088 33.48C466 32.472 465.12 31.24 464.48 29.816L464.64 29.752H464.016V28.632H471.168L471.392 28.584ZM484.848 23.688L483.776 24.152C483.568 23.592 483.072 22.68 482.672 22.024L483.68 21.608C484.144 22.28 484.624 23.128 484.848 23.688ZM478.144 21.672L479.2 21.992C478.832 23.064 478.368 24.136 477.856 25.144V36.28H476.752V27.064C476.272 27.832 475.744 28.52 475.232 29.128C475.12 28.872 474.784 28.296 474.576 28.024C476.016 26.472 477.328 24.088 478.144 21.672ZM486.96 32.088H480.96V34.616H486.96V32.088ZM479.92 36.232V31.096H488.016V36.184H486.96V35.608H480.96V36.232H479.92ZM480.144 29.752V28.776H487.856V29.752H480.144ZM487.856 26.536V27.512H480.144V26.536H487.856ZM478.992 24.248H489.12V25.256H478.992V24.248Z" fill="#1C1C1C"/>
<rect x="518.5" y="12.5" width="99" height="31" rx="3.5" stroke="#ACACAC"/>
<path d="M539.792 23.992L538.992 24.648C538.624 24.072 537.792 23.208 537.104 22.6L537.872 22.04C538.56 22.616 539.408 23.448 539.792 23.992ZM539.328 28.232L538.544 28.936C538.128 28.376 537.296 27.512 536.592 26.92L537.344 26.296C538.048 26.872 538.912 27.688 539.328 28.232ZM537.984 36.008L536.944 35.48C537.408 34.248 538.048 32.2 538.48 30.44L539.424 30.968C539.024 32.616 538.464 34.552 537.984 36.008ZM546.608 30.696L545.92 31.048C545.696 30.456 545.2 29.544 544.736 28.888L545.392 28.6C545.856 29.256 546.384 30.152 546.608 30.696ZM549.84 30.616L549.136 30.936C548.944 30.392 548.432 29.496 548 28.856L548.672 28.6C549.104 29.224 549.632 30.088 549.84 30.616ZM547.984 26.76H550.56C549.552 25.928 548.688 24.952 547.92 23.544C547.264 24.84 546.352 25.96 545.264 26.76H547.568V33.336C548.176 32.808 549.04 32.024 549.888 31.24V27.72H547.984V26.76ZM540.96 28.792V30.072H543.36V28.792H540.96ZM540.96 26.68V27.928H543.36V26.68H540.96ZM547.664 21.56L548.608 21.864C548.544 22.056 548.48 22.232 548.416 22.424C549.248 24.088 550.24 25.144 551.44 25.992C551.2 26.2 550.896 26.488 550.72 26.76H550.816V34.952C550.816 35.48 550.72 35.752 550.352 35.928C549.984 36.104 549.392 36.12 548.464 36.12C548.432 35.848 548.288 35.432 548.16 35.176C548.848 35.192 549.472 35.192 549.632 35.176C549.824 35.176 549.888 35.112 549.888 34.936V32.312C549.248 32.952 548.592 33.592 548.016 34.168L547.568 33.496V34.968C547.568 35.496 547.472 35.784 547.104 35.944C546.752 36.12 546.176 36.12 545.248 36.12C545.216 35.864 545.104 35.464 544.976 35.208C545.648 35.224 546.224 35.224 546.416 35.208C546.592 35.208 546.656 35.144 546.656 34.968V32.536C546.064 33.128 545.472 33.72 544.912 34.232L544.352 33.464L544.464 33.368H542.736V35.944H541.696V33.368H539.52V32.344H541.696V30.968H540.016V25.784H541.696V24.424H539.824V23.416H541.696V21.88H542.752V23.416H544.528V24.424H542.752V25.784H544.336V30.968H542.736V32.344H544.704V33.176C545.248 32.712 545.968 32.056 546.656 31.416V27.72H544.912V26.76H545.008C544.816 26.504 544.56 26.232 544.336 26.04C545.856 25.096 547.072 23.432 547.664 21.56ZM555.168 30.536H558.768V34.44H561.136V30.52H564.768V27.24H561.136V23.736H558.752V27.272H555.168V30.536ZM562.288 34.44H567.136V35.528H552.864V34.44H557.616V31.576H554.016V26.232H557.616V23.736H553.296V22.632H566.752V23.736H562.288V26.216H565.968V31.56H565.392V31.576H562.288V34.44ZM576.688 23.304V23.976C576.688 25.4 576.256 27.112 574.288 28.248C574.144 28.008 573.728 27.56 573.504 27.368C575.28 26.392 575.568 25.08 575.568 23.944V22.184H580.608V25.88C580.608 26.328 580.656 26.488 580.912 26.488H582.144C582.384 26.488 582.736 26.456 582.944 26.408C582.96 26.712 582.992 27.16 583.04 27.432C582.832 27.496 582.496 27.512 582.176 27.512H580.832C579.712 27.512 579.472 27.048 579.472 25.864V23.304H576.688ZM573.776 29.72L572.128 30.216V34.712C572.128 35.384 571.952 35.704 571.536 35.88C571.136 36.072 570.464 36.104 569.376 36.104C569.328 35.8 569.152 35.32 569.008 35C569.776 35.032 570.464 35.016 570.656 35.016C570.88 35.016 570.96 34.936 570.96 34.712V30.584L568.944 31.176L568.592 30.024C569.248 29.864 570.064 29.64 570.96 29.384V25.944H568.784V24.824H570.96V21.624H572.128V24.824H574.112V25.944H572.128V29.064L573.616 28.632L573.776 29.72ZM580.56 29.752H575.632C576.192 30.92 577.04 31.944 578.064 32.808C579.104 31.976 579.984 30.968 580.56 29.752ZM581.392 28.584L582.16 28.936C581.52 30.856 580.416 32.36 579.04 33.512C580.24 34.264 581.68 34.824 583.28 35.16C583.008 35.416 582.688 35.912 582.528 36.248C580.816 35.832 579.296 35.16 578.048 34.248C576.656 35.192 575.04 35.832 573.36 36.264C573.248 35.928 572.992 35.432 572.768 35.176C574.304 34.84 575.792 34.28 577.088 33.48C576 32.472 575.12 31.24 574.48 29.816L574.64 29.752H574.016V28.632H581.168L581.392 28.584ZM594.848 23.688L593.776 24.152C593.568 23.592 593.072 22.68 592.672 22.024L593.68 21.608C594.144 22.28 594.624 23.128 594.848 23.688ZM588.144 21.672L589.2 21.992C588.832 23.064 588.368 24.136 587.856 25.144V36.28H586.752V27.064C586.272 27.832 585.744 28.52 585.232 29.128C585.12 28.872 584.784 28.296 584.576 28.024C586.016 26.472 587.328 24.088 588.144 21.672ZM596.96 32.088H590.96V34.616H596.96V32.088ZM589.92 36.232V31.096H598.016V36.184H596.96V35.608H590.96V36.232H589.92ZM590.144 29.752V28.776H597.856V29.752H590.144ZM597.856 26.536V27.512H590.144V26.536H597.856ZM588.992 24.248H599.12V25.256H588.992V24.248Z" fill="#1C1C1C"/>
</svg>
