<svg width="662" height="110" viewBox="0 0 662 110" fill="none" xmlns="http://www.w3.org/2000/svg">
<rect x="0.5" y="32.5" width="67" height="31" rx="3.5" stroke="#ACACAC"/>
<path d="M21.6 46.32C20.88 46.704 20.112 47.072 19.28 47.408L18.624 46.336C21.504 45.328 23.616 44.048 24.96 42.48H21.904V41.44H26.624C27.904 43.376 30.112 44.928 33.28 46.096L32.512 47.136C31.712 46.816 30.992 46.464 30.32 46.112V47.168H26.592V49.984H31.216V51.088H26.592V53.984H32.672V55.12H19.424V53.984H25.424V51.088H20.768V49.984H25.424V47.168H21.6V46.32ZM30.24 46.064C28.48 45.072 27.088 43.92 26.064 42.592C25.12 43.904 23.776 45.056 22.048 46.064H30.24ZM43.616 41.568H48.912V42.432C48.384 44.128 47.808 45.696 47.2 47.136C48.464 48.704 49.104 50 49.12 50.992C49.12 51.92 48.912 52.576 48.496 52.928C48.048 53.312 47.152 53.504 45.808 53.504L45.456 52.288C45.888 52.336 46.256 52.368 46.56 52.368C47.152 52.336 47.536 52.24 47.712 52.064C47.872 51.872 47.968 51.52 47.984 50.992C47.968 50.016 47.296 48.736 45.968 47.136C46.544 45.856 47.12 44.368 47.664 42.64H44.736V55.568H43.616V41.568ZM35.088 42.528H38.24C38.064 41.984 37.888 41.488 37.696 41.04L38.864 40.848C39.024 41.344 39.2 41.904 39.36 42.528H42.608V43.632H41.84C41.52 44.848 41.152 45.952 40.736 46.912H42.736V48.016H34.816V46.912H36.864C36.608 45.744 36.288 44.656 35.92 43.632H35.088V42.528ZM39.664 46.912C40.064 45.872 40.416 44.784 40.72 43.632H37.04C37.36 44.576 37.664 45.664 37.952 46.912H39.664ZM41.984 49.552V55.568H40.848V54.704H36.88V55.568H35.76V49.552H41.984ZM36.88 53.616H40.848V50.656H36.88V53.616Z" fill="#1C1C1C"/>
<line x1="73.5" y1="32" x2="73.5" y2="64" stroke="#D9D9D9"/>
<rect x="78.5" y="32.5" width="99" height="31" rx="3.5" stroke="#ACACAC"/>
<path d="M98.224 46.072V47.816H100.128V46.072H98.224ZM98.224 43.4V45.144H100.128V43.4H98.224ZM103.04 45.144V43.4H101.152V45.144H103.04ZM103.04 47.816V46.072H101.152V47.816H103.04ZM101.216 51.704V53.88C102.272 53.736 103.376 53.592 104.464 53.432L104.496 54.488C101.744 54.904 98.832 55.32 96.832 55.624L96.688 54.456C97.616 54.36 98.784 54.2 100.064 54.024V51.704H97.184V50.616H100.064V48.808H97.216V42.408H104.08V48.808H101.216V50.616H104.08V51.704H101.216ZM110.64 47.512L111.44 47.72C111.04 49.048 110.56 50.552 110.096 51.496L109.12 51.224C109.408 50.584 109.76 49.624 110.032 48.68H108.144V54.776C108.144 55.448 108 55.8 107.504 56.008C107.024 56.2 106.208 56.216 105.024 56.216C104.976 55.864 104.8 55.384 104.624 55.032C105.568 55.064 106.4 55.064 106.656 55.048C106.912 55.048 106.976 54.968 106.976 54.744V48.68H104.4V47.56H108.56C107.696 46.76 106.4 45.832 105.216 45.224L105.968 44.504C106.496 44.76 107.04 45.08 107.568 45.448C108.192 44.888 108.832 44.184 109.328 43.512H104.608V42.44H110.16L110.416 42.376L111.184 42.92C110.48 43.992 109.424 45.16 108.4 46.024C108.96 46.424 109.456 46.856 109.808 47.208L109.472 47.56H110.448L110.64 47.512ZM116.864 46.152V47.608C117.424 48.136 118.96 49.816 119.344 50.264L118.576 51.272C118.24 50.728 117.488 49.768 116.864 49V56.2H115.712V48.44C115.024 50.344 114.096 52.168 113.168 53.272C113.04 52.936 112.72 52.456 112.528 52.168C113.712 50.824 114.928 48.36 115.552 46.152H112.896V45.032H115.712V41.608H116.864V45.032H119.264V46.152H116.864ZM127.392 45.016V46.136H125.68V54.584C125.68 55.416 125.472 55.784 124.944 55.992C124.416 56.184 123.504 56.216 122.128 56.216C122.064 55.88 121.888 55.32 121.696 54.968C122.768 55 123.776 55 124.08 54.984C124.368 54.984 124.464 54.888 124.464 54.584V46.136H119.728V45.016H124.464V41.624H125.68V45.016H127.392ZM123.152 51.576L122.08 52.136C121.776 51.096 120.912 49.464 120.064 48.248L121.056 47.784C121.936 48.968 122.816 50.552 123.152 51.576ZM136.688 43.304V43.976C136.688 45.4 136.256 47.112 134.288 48.248C134.144 48.008 133.728 47.56 133.504 47.368C135.28 46.392 135.568 45.08 135.568 43.944V42.184H140.608V45.88C140.608 46.328 140.656 46.488 140.912 46.488H142.144C142.384 46.488 142.736 46.456 142.944 46.408C142.96 46.712 142.992 47.16 143.04 47.432C142.832 47.496 142.496 47.512 142.176 47.512H140.832C139.712 47.512 139.472 47.048 139.472 45.864V43.304H136.688ZM133.776 49.72L132.128 50.216V54.712C132.128 55.384 131.952 55.704 131.536 55.88C131.136 56.072 130.464 56.104 129.376 56.104C129.328 55.8 129.152 55.32 129.008 55C129.776 55.032 130.464 55.016 130.656 55.016C130.88 55.016 130.96 54.936 130.96 54.712V50.584L128.944 51.176L128.592 50.024C129.248 49.864 130.064 49.64 130.96 49.384V45.944H128.784V44.824H130.96V41.624H132.128V44.824H134.112V45.944H132.128V49.064L133.616 48.632L133.776 49.72ZM140.56 49.752H135.632C136.192 50.92 137.04 51.944 138.064 52.808C139.104 51.976 139.984 50.968 140.56 49.752ZM141.392 48.584L142.16 48.936C141.52 50.856 140.416 52.36 139.04 53.512C140.24 54.264 141.68 54.824 143.28 55.16C143.008 55.416 142.688 55.912 142.528 56.248C140.816 55.832 139.296 55.16 138.048 54.248C136.656 55.192 135.04 55.832 133.36 56.264C133.248 55.928 132.992 55.432 132.768 55.176C134.304 54.84 135.792 54.28 137.088 53.48C136 52.472 135.12 51.24 134.48 49.816L134.64 49.752H134.016V48.632H141.168L141.392 48.584ZM154.848 43.688L153.776 44.152C153.568 43.592 153.072 42.68 152.672 42.024L153.68 41.608C154.144 42.28 154.624 43.128 154.848 43.688ZM148.144 41.672L149.2 41.992C148.832 43.064 148.368 44.136 147.856 45.144V56.28H146.752V47.064C146.272 47.832 145.744 48.52 145.232 49.128C145.12 48.872 144.784 48.296 144.576 48.024C146.016 46.472 147.328 44.088 148.144 41.672ZM156.96 52.088H150.96V54.616H156.96V52.088ZM149.92 56.232V51.096H158.016V56.184H156.96V55.608H150.96V56.232H149.92ZM150.144 49.752V48.776H157.856V49.752H150.144ZM157.856 46.536V47.512H150.144V46.536H157.856ZM148.992 44.248H159.12V45.256H148.992V44.248Z" fill="#1C1C1C"/>
<rect x="188.5" y="32.5" width="99" height="31" rx="3.5" stroke="#ACACAC"/>
<path d="M208.224 46.072V47.816H210.128V46.072H208.224ZM208.224 43.4V45.144H210.128V43.4H208.224ZM213.04 45.144V43.4H211.152V45.144H213.04ZM213.04 47.816V46.072H211.152V47.816H213.04ZM211.216 51.704V53.88C212.272 53.736 213.376 53.592 214.464 53.432L214.496 54.488C211.744 54.904 208.832 55.32 206.832 55.624L206.688 54.456C207.616 54.36 208.784 54.2 210.064 54.024V51.704H207.184V50.616H210.064V48.808H207.216V42.408H214.08V48.808H211.216V50.616H214.08V51.704H211.216ZM220.64 47.512L221.44 47.72C221.04 49.048 220.56 50.552 220.096 51.496L219.12 51.224C219.408 50.584 219.76 49.624 220.032 48.68H218.144V54.776C218.144 55.448 218 55.8 217.504 56.008C217.024 56.2 216.208 56.216 215.024 56.216C214.976 55.864 214.8 55.384 214.624 55.032C215.568 55.064 216.4 55.064 216.656 55.048C216.912 55.048 216.976 54.968 216.976 54.744V48.68H214.4V47.56H218.56C217.696 46.76 216.4 45.832 215.216 45.224L215.968 44.504C216.496 44.76 217.04 45.08 217.568 45.448C218.192 44.888 218.832 44.184 219.328 43.512H214.608V42.44H220.16L220.416 42.376L221.184 42.92C220.48 43.992 219.424 45.16 218.4 46.024C218.96 46.424 219.456 46.856 219.808 47.208L219.472 47.56H220.448L220.64 47.512ZM226.864 46.152V47.608C227.424 48.136 228.96 49.816 229.344 50.264L228.576 51.272C228.24 50.728 227.488 49.768 226.864 49V56.2H225.712V48.44C225.024 50.344 224.096 52.168 223.168 53.272C223.04 52.936 222.72 52.456 222.528 52.168C223.712 50.824 224.928 48.36 225.552 46.152H222.896V45.032H225.712V41.608H226.864V45.032H229.264V46.152H226.864ZM237.392 45.016V46.136H235.68V54.584C235.68 55.416 235.472 55.784 234.944 55.992C234.416 56.184 233.504 56.216 232.128 56.216C232.064 55.88 231.888 55.32 231.696 54.968C232.768 55 233.776 55 234.08 54.984C234.368 54.984 234.464 54.888 234.464 54.584V46.136H229.728V45.016H234.464V41.624H235.68V45.016H237.392ZM233.152 51.576L232.08 52.136C231.776 51.096 230.912 49.464 230.064 48.248L231.056 47.784C231.936 48.968 232.816 50.552 233.152 51.576ZM246.688 43.304V43.976C246.688 45.4 246.256 47.112 244.288 48.248C244.144 48.008 243.728 47.56 243.504 47.368C245.28 46.392 245.568 45.08 245.568 43.944V42.184H250.608V45.88C250.608 46.328 250.656 46.488 250.912 46.488H252.144C252.384 46.488 252.736 46.456 252.944 46.408C252.96 46.712 252.992 47.16 253.04 47.432C252.832 47.496 252.496 47.512 252.176 47.512H250.832C249.712 47.512 249.472 47.048 249.472 45.864V43.304H246.688ZM243.776 49.72L242.128 50.216V54.712C242.128 55.384 241.952 55.704 241.536 55.88C241.136 56.072 240.464 56.104 239.376 56.104C239.328 55.8 239.152 55.32 239.008 55C239.776 55.032 240.464 55.016 240.656 55.016C240.88 55.016 240.96 54.936 240.96 54.712V50.584L238.944 51.176L238.592 50.024C239.248 49.864 240.064 49.64 240.96 49.384V45.944H238.784V44.824H240.96V41.624H242.128V44.824H244.112V45.944H242.128V49.064L243.616 48.632L243.776 49.72ZM250.56 49.752H245.632C246.192 50.92 247.04 51.944 248.064 52.808C249.104 51.976 249.984 50.968 250.56 49.752ZM251.392 48.584L252.16 48.936C251.52 50.856 250.416 52.36 249.04 53.512C250.24 54.264 251.68 54.824 253.28 55.16C253.008 55.416 252.688 55.912 252.528 56.248C250.816 55.832 249.296 55.16 248.048 54.248C246.656 55.192 245.04 55.832 243.36 56.264C243.248 55.928 242.992 55.432 242.768 55.176C244.304 54.84 245.792 54.28 247.088 53.48C246 52.472 245.12 51.24 244.48 49.816L244.64 49.752H244.016V48.632H251.168L251.392 48.584ZM264.848 43.688L263.776 44.152C263.568 43.592 263.072 42.68 262.672 42.024L263.68 41.608C264.144 42.28 264.624 43.128 264.848 43.688ZM258.144 41.672L259.2 41.992C258.832 43.064 258.368 44.136 257.856 45.144V56.28H256.752V47.064C256.272 47.832 255.744 48.52 255.232 49.128C255.12 48.872 254.784 48.296 254.576 48.024C256.016 46.472 257.328 44.088 258.144 41.672ZM266.96 52.088H260.96V54.616H266.96V52.088ZM259.92 56.232V51.096H268.016V56.184H266.96V55.608H260.96V56.232H259.92ZM260.144 49.752V48.776H267.856V49.752H260.144ZM267.856 46.536V47.512H260.144V46.536H267.856ZM258.992 44.248H269.12V45.256H258.992V44.248Z" fill="#1C1C1C"/>
<rect x="298.5" y="32.5" width="115" height="31" rx="3.5" stroke="#ACACAC"/>
<path d="M320.624 43.72H319.248C318.752 44.52 318.192 45.224 317.616 45.784C317.456 45.576 317.04 45.192 316.784 45C317.76 44.12 318.656 42.84 319.2 41.512L320.24 41.8C320.112 42.12 319.968 42.44 319.808 42.76H323.904V43.72H320.88C321.408 44.168 322.016 44.76 322.32 45.16L321.536 45.816C321.232 45.368 320.56 44.68 320.016 44.184L320.624 43.72ZM323.328 49.592H319.728C319.648 50.088 319.568 50.616 319.488 51.08H323.328V49.592ZM324.496 47.112V48.584H328.688V47.112H324.496ZM324.496 51.08H330.384C330.384 51.08 330.368 51.4 330.352 51.576C330.128 53.784 329.92 54.76 329.504 55.144C329.248 55.432 328.944 55.528 328.512 55.544C328.096 55.576 327.312 55.576 326.496 55.544C326.48 55.192 326.352 54.744 326.176 54.44C326.96 54.52 327.696 54.52 327.984 54.52C328.256 54.52 328.416 54.504 328.56 54.392C328.768 54.168 328.944 53.544 329.104 52.104H324.496V56.232H323.328V52.552C321.92 54.136 319.856 55.512 317.952 56.248C317.776 55.96 317.456 55.528 317.184 55.304C319.04 54.696 321.072 53.464 322.384 52.104H318.16C318.368 51.144 318.592 49.72 318.72 48.584H323.328V47.112H318.16V46.104H329.856V49.592H324.496V51.08ZM326.4 42.776H331.232V43.72H327.792C328.352 44.168 329.024 44.744 329.376 45.16L328.592 45.832C328.224 45.416 327.52 44.744 326.944 44.28L327.632 43.72H325.84C325.472 44.28 325.056 44.776 324.624 45.192C324.432 45 323.984 44.632 323.728 44.488C324.608 43.752 325.328 42.664 325.712 41.512L326.816 41.768C326.688 42.12 326.544 42.44 326.4 42.776ZM332.768 48.12H347.296V49.416H332.768V48.12ZM352.272 46.376H359.904C358.464 45.528 357.056 44.456 356.016 43.368C354.96 44.52 353.68 45.544 352.272 46.376ZM360.096 47.48H356.576V49.656H362.16V50.744H356.576V54.648H362.88V55.752H349.136V54.648H355.344V50.744H349.856V49.656H355.344V47.48H351.888V46.6C351.072 47.048 350.208 47.448 349.344 47.752C349.168 47.432 348.848 46.968 348.544 46.68C351.52 45.704 354.464 43.832 355.984 41.464L357.072 41.976C356.96 42.152 356.816 42.36 356.672 42.552C358.256 44.248 361.072 45.912 363.504 46.68C363.216 46.92 362.848 47.4 362.672 47.704C361.84 47.4 360.96 46.984 360.096 46.488V47.48ZM358.928 54.424L358.032 54.04C358.592 53.256 359.312 51.992 359.696 51.096L360.832 51.528C360.24 52.536 359.504 53.672 358.928 54.424ZM351.2 51.496L352.192 51.096C352.8 51.992 353.456 53.192 353.712 53.96L352.672 54.392C352.448 53.656 351.808 52.392 351.2 51.496ZM372.688 43.304V43.976C372.688 45.4 372.256 47.112 370.288 48.248C370.144 48.008 369.728 47.56 369.504 47.368C371.28 46.392 371.568 45.08 371.568 43.944V42.184H376.608V45.88C376.608 46.328 376.656 46.488 376.912 46.488H378.144C378.384 46.488 378.736 46.456 378.944 46.408C378.96 46.712 378.992 47.16 379.04 47.432C378.832 47.496 378.496 47.512 378.176 47.512H376.832C375.712 47.512 375.472 47.048 375.472 45.864V43.304H372.688ZM369.776 49.72L368.128 50.216V54.712C368.128 55.384 367.952 55.704 367.536 55.88C367.136 56.072 366.464 56.104 365.376 56.104C365.328 55.8 365.152 55.32 365.008 55C365.776 55.032 366.464 55.016 366.656 55.016C366.88 55.016 366.96 54.936 366.96 54.712V50.584L364.944 51.176L364.592 50.024C365.248 49.864 366.064 49.64 366.96 49.384V45.944H364.784V44.824H366.96V41.624H368.128V44.824H370.112V45.944H368.128V49.064L369.616 48.632L369.776 49.72ZM376.56 49.752H371.632C372.192 50.92 373.04 51.944 374.064 52.808C375.104 51.976 375.984 50.968 376.56 49.752ZM377.392 48.584L378.16 48.936C377.52 50.856 376.416 52.36 375.04 53.512C376.24 54.264 377.68 54.824 379.28 55.16C379.008 55.416 378.688 55.912 378.528 56.248C376.816 55.832 375.296 55.16 374.048 54.248C372.656 55.192 371.04 55.832 369.36 56.264C369.248 55.928 368.992 55.432 368.768 55.176C370.304 54.84 371.792 54.28 373.088 53.48C372 52.472 371.12 51.24 370.48 49.816L370.64 49.752H370.016V48.632H377.168L377.392 48.584ZM390.848 43.688L389.776 44.152C389.568 43.592 389.072 42.68 388.672 42.024L389.68 41.608C390.144 42.28 390.624 43.128 390.848 43.688ZM384.144 41.672L385.2 41.992C384.832 43.064 384.368 44.136 383.856 45.144V56.28H382.752V47.064C382.272 47.832 381.744 48.52 381.232 49.128C381.12 48.872 380.784 48.296 380.576 48.024C382.016 46.472 383.328 44.088 384.144 41.672ZM392.96 52.088H386.96V54.616H392.96V52.088ZM385.92 56.232V51.096H394.016V56.184H392.96V55.608H386.96V56.232H385.92ZM386.144 49.752V48.776H393.856V49.752H386.144ZM393.856 46.536V47.512H386.144V46.536H393.856ZM384.992 44.248H395.12V45.256H384.992V44.248Z" fill="#1C1C1C"/>
<rect x="424.5" y="32.5" width="99" height="31" rx="3.5" stroke="#ACACAC"/>
<path d="M457.152 43.896H444.992V47.848C444.992 50.296 444.8 53.88 443.456 56.28C443.264 56.056 442.784 55.688 442.544 55.544C443.776 53.32 443.888 50.152 443.888 47.848V42.888H449.936C449.808 42.52 449.648 42.136 449.504 41.8L450.656 41.528C450.864 41.944 451.104 42.472 451.248 42.888H457.152V43.896ZM454.096 48.712H453.152V45.864H451.072V44.952H453.152V44.104H454.096V44.952H456.576V45.864H454.096V48.712ZM452.336 46.296V46.936C452.336 47.672 452.224 48.472 451.616 49.064C451.472 48.888 451.168 48.648 450.976 48.536C451.504 48.152 451.6 47.432 451.6 46.904V46.296H452.336ZM456.288 48.744H455.584C454.928 48.744 454.8 48.472 454.8 47.8V46.28H455.568V47.8C455.568 48.088 455.584 48.152 455.776 48.152H456.272C456.416 48.152 456.704 48.152 456.848 48.104C456.864 48.296 456.864 48.52 456.896 48.696C456.768 48.744 456.512 48.744 456.288 48.744ZM448.672 49.096H447.728V45.864H445.696V44.952H447.728V44.104H448.672V44.952H450.64V45.864H448.672V49.096ZM446.848 46.296V46.952C446.848 47.736 446.72 48.6 445.888 49.192C445.744 49.016 445.44 48.76 445.248 48.648C445.984 48.232 446.096 47.496 446.096 46.936V46.296H446.848ZM450.4 48.648H450.048C449.456 48.648 449.344 48.36 449.344 47.72V46.344H450.08V47.736C450.08 47.992 450.096 48.072 450.24 48.072H450.384C450.48 48.072 450.72 48.056 450.864 48.024L450.912 48.6C450.784 48.632 450.56 48.648 450.4 48.648ZM457.2 52.984V53.832H451.792V55.032C451.792 55.688 451.616 55.96 451.104 56.104C450.576 56.248 449.712 56.248 448.336 56.248C448.256 55.96 448.096 55.592 447.952 55.32C448.992 55.352 450 55.352 450.256 55.336C450.528 55.32 450.624 55.24 450.624 55.016V53.832H445.168V52.984H450.624V51.944H446.016V51.112H450.624V50.136C449.232 50.232 447.808 50.296 446.496 50.328C446.48 50.104 446.368 49.768 446.272 49.576C449.28 49.496 452.992 49.24 454.928 48.84L455.696 49.528C454.624 49.752 453.264 49.928 451.792 50.04V51.112H456.464V51.944H451.792V52.984H457.2ZM462.384 41.608V44.68H464.256V45.8H462.384V46.552C462.8 47.112 463.968 48.952 464.24 49.416L463.52 50.264C463.312 49.752 462.816 48.792 462.384 48.008V56.216H461.296V48.392C460.752 50.184 460.016 51.928 459.264 52.984C459.136 52.648 458.832 52.12 458.624 51.848C459.664 50.504 460.672 47.976 461.168 45.8H458.848V44.68H461.296V41.608H462.384ZM466.048 46.28V48.264H470.832V46.28H466.048ZM470.832 43.368H466.048V45.288H470.832V43.368ZM472.128 49.816L472.928 50.648C472.112 51.304 471.056 52.024 470.16 52.536C470.992 53.672 472.064 54.568 473.392 55.096C473.12 55.32 472.768 55.8 472.576 56.104C470 54.936 468.464 52.504 467.632 49.304H466.048V54.632L468.96 53.928C468.944 54.264 468.976 54.712 469.008 54.968C465.712 55.864 465.232 56.024 464.928 56.232C464.848 55.96 464.592 55.464 464.432 55.224C464.64 55.112 464.88 54.888 464.88 54.28V42.312H471.984V49.304H468.656C468.896 50.168 469.232 50.968 469.632 51.688C470.464 51.16 471.488 50.408 472.128 49.816ZM482.688 43.304V43.976C482.688 45.4 482.256 47.112 480.288 48.248C480.144 48.008 479.728 47.56 479.504 47.368C481.28 46.392 481.568 45.08 481.568 43.944V42.184H486.608V45.88C486.608 46.328 486.656 46.488 486.912 46.488H488.144C488.384 46.488 488.736 46.456 488.944 46.408C488.96 46.712 488.992 47.16 489.04 47.432C488.832 47.496 488.496 47.512 488.176 47.512H486.832C485.712 47.512 485.472 47.048 485.472 45.864V43.304H482.688ZM479.776 49.72L478.128 50.216V54.712C478.128 55.384 477.952 55.704 477.536 55.88C477.136 56.072 476.464 56.104 475.376 56.104C475.328 55.8 475.152 55.32 475.008 55C475.776 55.032 476.464 55.016 476.656 55.016C476.88 55.016 476.96 54.936 476.96 54.712V50.584L474.944 51.176L474.592 50.024C475.248 49.864 476.064 49.64 476.96 49.384V45.944H474.784V44.824H476.96V41.624H478.128V44.824H480.112V45.944H478.128V49.064L479.616 48.632L479.776 49.72ZM486.56 49.752H481.632C482.192 50.92 483.04 51.944 484.064 52.808C485.104 51.976 485.984 50.968 486.56 49.752ZM487.392 48.584L488.16 48.936C487.52 50.856 486.416 52.36 485.04 53.512C486.24 54.264 487.68 54.824 489.28 55.16C489.008 55.416 488.688 55.912 488.528 56.248C486.816 55.832 485.296 55.16 484.048 54.248C482.656 55.192 481.04 55.832 479.36 56.264C479.248 55.928 478.992 55.432 478.768 55.176C480.304 54.84 481.792 54.28 483.088 53.48C482 52.472 481.12 51.24 480.48 49.816L480.64 49.752H480.016V48.632H487.168L487.392 48.584ZM500.848 43.688L499.776 44.152C499.568 43.592 499.072 42.68 498.672 42.024L499.68 41.608C500.144 42.28 500.624 43.128 500.848 43.688ZM494.144 41.672L495.2 41.992C494.832 43.064 494.368 44.136 493.856 45.144V56.28H492.752V47.064C492.272 47.832 491.744 48.52 491.232 49.128C491.12 48.872 490.784 48.296 490.576 48.024C492.016 46.472 493.328 44.088 494.144 41.672ZM502.96 52.088H496.96V54.616H502.96V52.088ZM495.92 56.232V51.096H504.016V56.184H502.96V55.608H496.96V56.232H495.92ZM496.144 49.752V48.776H503.856V49.752H496.144ZM503.856 46.536V47.512H496.144V46.536H503.856ZM494.992 44.248H505.12V45.256H494.992V44.248Z" fill="#1C1C1C"/>
<rect x="534.5" y="32.5" width="99" height="31" rx="3.5" stroke="#ACACAC"/>
<path d="M560.528 54.424H567.136V55.592H552.896V54.424H559.28V49.352H554.352V48.184H559.28V43.832H553.68V42.664H566.352V43.832H560.528V48.184H565.728V49.352H560.528V54.424ZM561.984 50.776L562.832 50.104C563.824 51 565.136 52.232 565.792 52.984L564.896 53.768C564.256 53 562.976 51.704 561.984 50.776ZM581.024 44.904H582.24V56.168H581.024V54.984H569.776V44.92H570.992V53.784H575.376V41.8H576.592V53.784H581.024V44.904ZM592.688 43.304V43.976C592.688 45.4 592.256 47.112 590.288 48.248C590.144 48.008 589.728 47.56 589.504 47.368C591.28 46.392 591.568 45.08 591.568 43.944V42.184H596.608V45.88C596.608 46.328 596.656 46.488 596.912 46.488H598.144C598.384 46.488 598.736 46.456 598.944 46.408C598.96 46.712 598.992 47.16 599.04 47.432C598.832 47.496 598.496 47.512 598.176 47.512H596.832C595.712 47.512 595.472 47.048 595.472 45.864V43.304H592.688ZM589.776 49.72L588.128 50.216V54.712C588.128 55.384 587.952 55.704 587.536 55.88C587.136 56.072 586.464 56.104 585.376 56.104C585.328 55.8 585.152 55.32 585.008 55C585.776 55.032 586.464 55.016 586.656 55.016C586.88 55.016 586.96 54.936 586.96 54.712V50.584L584.944 51.176L584.592 50.024C585.248 49.864 586.064 49.64 586.96 49.384V45.944H584.784V44.824H586.96V41.624H588.128V44.824H590.112V45.944H588.128V49.064L589.616 48.632L589.776 49.72ZM596.56 49.752H591.632C592.192 50.92 593.04 51.944 594.064 52.808C595.104 51.976 595.984 50.968 596.56 49.752ZM597.392 48.584L598.16 48.936C597.52 50.856 596.416 52.36 595.04 53.512C596.24 54.264 597.68 54.824 599.28 55.16C599.008 55.416 598.688 55.912 598.528 56.248C596.816 55.832 595.296 55.16 594.048 54.248C592.656 55.192 591.04 55.832 589.36 56.264C589.248 55.928 588.992 55.432 588.768 55.176C590.304 54.84 591.792 54.28 593.088 53.48C592 52.472 591.12 51.24 590.48 49.816L590.64 49.752H590.016V48.632H597.168L597.392 48.584ZM610.848 43.688L609.776 44.152C609.568 43.592 609.072 42.68 608.672 42.024L609.68 41.608C610.144 42.28 610.624 43.128 610.848 43.688ZM604.144 41.672L605.2 41.992C604.832 43.064 604.368 44.136 603.856 45.144V56.28H602.752V47.064C602.272 47.832 601.744 48.52 601.232 49.128C601.12 48.872 600.784 48.296 600.576 48.024C602.016 46.472 603.328 44.088 604.144 41.672ZM612.96 52.088H606.96V54.616H612.96V52.088ZM605.92 56.232V51.096H614.016V56.184H612.96V55.608H606.96V56.232H605.92ZM606.144 49.752V48.776H613.856V49.752H606.144ZM613.856 46.536V47.512H606.144V46.536H613.856ZM604.992 44.248H615.12V45.256H604.992V44.248Z" fill="#1C1C1C"/>
<rect x="0.5" y="74.5" width="99" height="31" rx="3.5" stroke="#ACACAC"/>
<path d="M21.792 85.992L20.992 86.648C20.624 86.072 19.792 85.208 19.104 84.6L19.872 84.04C20.56 84.616 21.408 85.448 21.792 85.992ZM21.328 90.232L20.544 90.936C20.128 90.376 19.296 89.512 18.592 88.92L19.344 88.296C20.048 88.872 20.912 89.688 21.328 90.232ZM19.984 98.008L18.944 97.48C19.408 96.248 20.048 94.2 20.48 92.44L21.424 92.968C21.024 94.616 20.464 96.552 19.984 98.008ZM28.608 92.696L27.92 93.048C27.696 92.456 27.2 91.544 26.736 90.888L27.392 90.6C27.856 91.256 28.384 92.152 28.608 92.696ZM31.84 92.616L31.136 92.936C30.944 92.392 30.432 91.496 30 90.856L30.672 90.6C31.104 91.224 31.632 92.088 31.84 92.616ZM29.984 88.76H32.56C31.552 87.928 30.688 86.952 29.92 85.544C29.264 86.84 28.352 87.96 27.264 88.76H29.568V95.336C30.176 94.808 31.04 94.024 31.888 93.24V89.72H29.984V88.76ZM22.96 90.792V92.072H25.36V90.792H22.96ZM22.96 88.68V89.928H25.36V88.68H22.96ZM29.664 83.56L30.608 83.864C30.544 84.056 30.48 84.232 30.416 84.424C31.248 86.088 32.24 87.144 33.44 87.992C33.2 88.2 32.896 88.488 32.72 88.76H32.816V96.952C32.816 97.48 32.72 97.752 32.352 97.928C31.984 98.104 31.392 98.12 30.464 98.12C30.432 97.848 30.288 97.432 30.16 97.176C30.848 97.192 31.472 97.192 31.632 97.176C31.824 97.176 31.888 97.112 31.888 96.936V94.312C31.248 94.952 30.592 95.592 30.016 96.168L29.568 95.496V96.968C29.568 97.496 29.472 97.784 29.104 97.944C28.752 98.12 28.176 98.12 27.248 98.12C27.216 97.864 27.104 97.464 26.976 97.208C27.648 97.224 28.224 97.224 28.416 97.208C28.592 97.208 28.656 97.144 28.656 96.968V94.536C28.064 95.128 27.472 95.72 26.912 96.232L26.352 95.464L26.464 95.368H24.736V97.944H23.696V95.368H21.52V94.344H23.696V92.968H22.016V87.784H23.696V86.424H21.824V85.416H23.696V83.88H24.752V85.416H26.528V86.424H24.752V87.784H26.336V92.968H24.736V94.344H26.704V95.176C27.248 94.712 27.968 94.056 28.656 93.416V89.72H26.912V88.76H27.008C26.816 88.504 26.56 88.232 26.336 88.04C27.856 87.096 29.072 85.432 29.664 83.56ZM37.168 92.536H40.768V96.44H43.136V92.52H46.768V89.24H43.136V85.736H40.752V89.272H37.168V92.536ZM44.288 96.44H49.136V97.528H34.864V96.44H39.616V93.576H36.016V88.232H39.616V85.736H35.296V84.632H48.752V85.736H44.288V88.216H47.968V93.56H47.392V93.576H44.288V96.44ZM58.688 85.304V85.976C58.688 87.4 58.256 89.112 56.288 90.248C56.144 90.008 55.728 89.56 55.504 89.368C57.28 88.392 57.568 87.08 57.568 85.944V84.184H62.608V87.88C62.608 88.328 62.656 88.488 62.912 88.488H64.144C64.384 88.488 64.736 88.456 64.944 88.408C64.96 88.712 64.992 89.16 65.04 89.432C64.832 89.496 64.496 89.512 64.176 89.512H62.832C61.712 89.512 61.472 89.048 61.472 87.864V85.304H58.688ZM55.776 91.72L54.128 92.216V96.712C54.128 97.384 53.952 97.704 53.536 97.88C53.136 98.072 52.464 98.104 51.376 98.104C51.328 97.8 51.152 97.32 51.008 97C51.776 97.032 52.464 97.016 52.656 97.016C52.88 97.016 52.96 96.936 52.96 96.712V92.584L50.944 93.176L50.592 92.024C51.248 91.864 52.064 91.64 52.96 91.384V87.944H50.784V86.824H52.96V83.624H54.128V86.824H56.112V87.944H54.128V91.064L55.616 90.632L55.776 91.72ZM62.56 91.752H57.632C58.192 92.92 59.04 93.944 60.064 94.808C61.104 93.976 61.984 92.968 62.56 91.752ZM63.392 90.584L64.16 90.936C63.52 92.856 62.416 94.36 61.04 95.512C62.24 96.264 63.68 96.824 65.28 97.16C65.008 97.416 64.688 97.912 64.528 98.248C62.816 97.832 61.296 97.16 60.048 96.248C58.656 97.192 57.04 97.832 55.36 98.264C55.248 97.928 54.992 97.432 54.768 97.176C56.304 96.84 57.792 96.28 59.088 95.48C58 94.472 57.12 93.24 56.48 91.816L56.64 91.752H56.016V90.632H63.168L63.392 90.584ZM76.848 85.688L75.776 86.152C75.568 85.592 75.072 84.68 74.672 84.024L75.68 83.608C76.144 84.28 76.624 85.128 76.848 85.688ZM70.144 83.672L71.2 83.992C70.832 85.064 70.368 86.136 69.856 87.144V98.28H68.752V89.064C68.272 89.832 67.744 90.52 67.232 91.128C67.12 90.872 66.784 90.296 66.576 90.024C68.016 88.472 69.328 86.088 70.144 83.672ZM78.96 94.088H72.96V96.616H78.96V94.088ZM71.92 98.232V93.096H80.016V98.184H78.96V97.608H72.96V98.232H71.92ZM72.144 91.752V90.776H79.856V91.752H72.144ZM79.856 88.536V89.512H72.144V88.536H79.856ZM70.992 86.248H81.12V87.256H70.992V86.248Z" fill="#1C1C1C"/>
<rect x="110.5" y="74.5" width="99" height="31" rx="3.5" stroke="#ACACAC"/>
<path d="M131.792 85.992L130.992 86.648C130.624 86.072 129.792 85.208 129.104 84.6L129.872 84.04C130.56 84.616 131.408 85.448 131.792 85.992ZM131.328 90.232L130.544 90.936C130.128 90.376 129.296 89.512 128.592 88.92L129.344 88.296C130.048 88.872 130.912 89.688 131.328 90.232ZM129.984 98.008L128.944 97.48C129.408 96.248 130.048 94.2 130.48 92.44L131.424 92.968C131.024 94.616 130.464 96.552 129.984 98.008ZM138.608 92.696L137.92 93.048C137.696 92.456 137.2 91.544 136.736 90.888L137.392 90.6C137.856 91.256 138.384 92.152 138.608 92.696ZM141.84 92.616L141.136 92.936C140.944 92.392 140.432 91.496 140 90.856L140.672 90.6C141.104 91.224 141.632 92.088 141.84 92.616ZM139.984 88.76H142.56C141.552 87.928 140.688 86.952 139.92 85.544C139.264 86.84 138.352 87.96 137.264 88.76H139.568V95.336C140.176 94.808 141.04 94.024 141.888 93.24V89.72H139.984V88.76ZM132.96 90.792V92.072H135.36V90.792H132.96ZM132.96 88.68V89.928H135.36V88.68H132.96ZM139.664 83.56L140.608 83.864C140.544 84.056 140.48 84.232 140.416 84.424C141.248 86.088 142.24 87.144 143.44 87.992C143.2 88.2 142.896 88.488 142.72 88.76H142.816V96.952C142.816 97.48 142.72 97.752 142.352 97.928C141.984 98.104 141.392 98.12 140.464 98.12C140.432 97.848 140.288 97.432 140.16 97.176C140.848 97.192 141.472 97.192 141.632 97.176C141.824 97.176 141.888 97.112 141.888 96.936V94.312C141.248 94.952 140.592 95.592 140.016 96.168L139.568 95.496V96.968C139.568 97.496 139.472 97.784 139.104 97.944C138.752 98.12 138.176 98.12 137.248 98.12C137.216 97.864 137.104 97.464 136.976 97.208C137.648 97.224 138.224 97.224 138.416 97.208C138.592 97.208 138.656 97.144 138.656 96.968V94.536C138.064 95.128 137.472 95.72 136.912 96.232L136.352 95.464L136.464 95.368H134.736V97.944H133.696V95.368H131.52V94.344H133.696V92.968H132.016V87.784H133.696V86.424H131.824V85.416H133.696V83.88H134.752V85.416H136.528V86.424H134.752V87.784H136.336V92.968H134.736V94.344H136.704V95.176C137.248 94.712 137.968 94.056 138.656 93.416V89.72H136.912V88.76H137.008C136.816 88.504 136.56 88.232 136.336 88.04C137.856 87.096 139.072 85.432 139.664 83.56ZM147.168 92.536H150.768V96.44H153.136V92.52H156.768V89.24H153.136V85.736H150.752V89.272H147.168V92.536ZM154.288 96.44H159.136V97.528H144.864V96.44H149.616V93.576H146.016V88.232H149.616V85.736H145.296V84.632H158.752V85.736H154.288V88.216H157.968V93.56H157.392V93.576H154.288V96.44ZM168.688 85.304V85.976C168.688 87.4 168.256 89.112 166.288 90.248C166.144 90.008 165.728 89.56 165.504 89.368C167.28 88.392 167.568 87.08 167.568 85.944V84.184H172.608V87.88C172.608 88.328 172.656 88.488 172.912 88.488H174.144C174.384 88.488 174.736 88.456 174.944 88.408C174.96 88.712 174.992 89.16 175.04 89.432C174.832 89.496 174.496 89.512 174.176 89.512H172.832C171.712 89.512 171.472 89.048 171.472 87.864V85.304H168.688ZM165.776 91.72L164.128 92.216V96.712C164.128 97.384 163.952 97.704 163.536 97.88C163.136 98.072 162.464 98.104 161.376 98.104C161.328 97.8 161.152 97.32 161.008 97C161.776 97.032 162.464 97.016 162.656 97.016C162.88 97.016 162.96 96.936 162.96 96.712V92.584L160.944 93.176L160.592 92.024C161.248 91.864 162.064 91.64 162.96 91.384V87.944H160.784V86.824H162.96V83.624H164.128V86.824H166.112V87.944H164.128V91.064L165.616 90.632L165.776 91.72ZM172.56 91.752H167.632C168.192 92.92 169.04 93.944 170.064 94.808C171.104 93.976 171.984 92.968 172.56 91.752ZM173.392 90.584L174.16 90.936C173.52 92.856 172.416 94.36 171.04 95.512C172.24 96.264 173.68 96.824 175.28 97.16C175.008 97.416 174.688 97.912 174.528 98.248C172.816 97.832 171.296 97.16 170.048 96.248C168.656 97.192 167.04 97.832 165.36 98.264C165.248 97.928 164.992 97.432 164.768 97.176C166.304 96.84 167.792 96.28 169.088 95.48C168 94.472 167.12 93.24 166.48 91.816L166.64 91.752H166.016V90.632H173.168L173.392 90.584ZM186.848 85.688L185.776 86.152C185.568 85.592 185.072 84.68 184.672 84.024L185.68 83.608C186.144 84.28 186.624 85.128 186.848 85.688ZM180.144 83.672L181.2 83.992C180.832 85.064 180.368 86.136 179.856 87.144V98.28H178.752V89.064C178.272 89.832 177.744 90.52 177.232 91.128C177.12 90.872 176.784 90.296 176.576 90.024C178.016 88.472 179.328 86.088 180.144 83.672ZM188.96 94.088H182.96V96.616H188.96V94.088ZM181.92 98.232V93.096H190.016V98.184H188.96V97.608H182.96V98.232H181.92ZM182.144 91.752V90.776H189.856V91.752H182.144ZM189.856 88.536V89.512H182.144V88.536H189.856ZM180.992 86.248H191.12V87.256H180.992V86.248Z" fill="#1C1C1C"/>
<rect x="220.5" y="74.5" width="99" height="31" rx="3.5" stroke="#ACACAC"/>
<path d="M241.792 85.992L240.992 86.648C240.624 86.072 239.792 85.208 239.104 84.6L239.872 84.04C240.56 84.616 241.408 85.448 241.792 85.992ZM241.328 90.232L240.544 90.936C240.128 90.376 239.296 89.512 238.592 88.92L239.344 88.296C240.048 88.872 240.912 89.688 241.328 90.232ZM239.984 98.008L238.944 97.48C239.408 96.248 240.048 94.2 240.48 92.44L241.424 92.968C241.024 94.616 240.464 96.552 239.984 98.008ZM248.608 92.696L247.92 93.048C247.696 92.456 247.2 91.544 246.736 90.888L247.392 90.6C247.856 91.256 248.384 92.152 248.608 92.696ZM251.84 92.616L251.136 92.936C250.944 92.392 250.432 91.496 250 90.856L250.672 90.6C251.104 91.224 251.632 92.088 251.84 92.616ZM249.984 88.76H252.56C251.552 87.928 250.688 86.952 249.92 85.544C249.264 86.84 248.352 87.96 247.264 88.76H249.568V95.336C250.176 94.808 251.04 94.024 251.888 93.24V89.72H249.984V88.76ZM242.96 90.792V92.072H245.36V90.792H242.96ZM242.96 88.68V89.928H245.36V88.68H242.96ZM249.664 83.56L250.608 83.864C250.544 84.056 250.48 84.232 250.416 84.424C251.248 86.088 252.24 87.144 253.44 87.992C253.2 88.2 252.896 88.488 252.72 88.76H252.816V96.952C252.816 97.48 252.72 97.752 252.352 97.928C251.984 98.104 251.392 98.12 250.464 98.12C250.432 97.848 250.288 97.432 250.16 97.176C250.848 97.192 251.472 97.192 251.632 97.176C251.824 97.176 251.888 97.112 251.888 96.936V94.312C251.248 94.952 250.592 95.592 250.016 96.168L249.568 95.496V96.968C249.568 97.496 249.472 97.784 249.104 97.944C248.752 98.12 248.176 98.12 247.248 98.12C247.216 97.864 247.104 97.464 246.976 97.208C247.648 97.224 248.224 97.224 248.416 97.208C248.592 97.208 248.656 97.144 248.656 96.968V94.536C248.064 95.128 247.472 95.72 246.912 96.232L246.352 95.464L246.464 95.368H244.736V97.944H243.696V95.368H241.52V94.344H243.696V92.968H242.016V87.784H243.696V86.424H241.824V85.416H243.696V83.88H244.752V85.416H246.528V86.424H244.752V87.784H246.336V92.968H244.736V94.344H246.704V95.176C247.248 94.712 247.968 94.056 248.656 93.416V89.72H246.912V88.76H247.008C246.816 88.504 246.56 88.232 246.336 88.04C247.856 87.096 249.072 85.432 249.664 83.56ZM257.168 92.536H260.768V96.44H263.136V92.52H266.768V89.24H263.136V85.736H260.752V89.272H257.168V92.536ZM264.288 96.44H269.136V97.528H254.864V96.44H259.616V93.576H256.016V88.232H259.616V85.736H255.296V84.632H268.752V85.736H264.288V88.216H267.968V93.56H267.392V93.576H264.288V96.44ZM278.688 85.304V85.976C278.688 87.4 278.256 89.112 276.288 90.248C276.144 90.008 275.728 89.56 275.504 89.368C277.28 88.392 277.568 87.08 277.568 85.944V84.184H282.608V87.88C282.608 88.328 282.656 88.488 282.912 88.488H284.144C284.384 88.488 284.736 88.456 284.944 88.408C284.96 88.712 284.992 89.16 285.04 89.432C284.832 89.496 284.496 89.512 284.176 89.512H282.832C281.712 89.512 281.472 89.048 281.472 87.864V85.304H278.688ZM275.776 91.72L274.128 92.216V96.712C274.128 97.384 273.952 97.704 273.536 97.88C273.136 98.072 272.464 98.104 271.376 98.104C271.328 97.8 271.152 97.32 271.008 97C271.776 97.032 272.464 97.016 272.656 97.016C272.88 97.016 272.96 96.936 272.96 96.712V92.584L270.944 93.176L270.592 92.024C271.248 91.864 272.064 91.64 272.96 91.384V87.944H270.784V86.824H272.96V83.624H274.128V86.824H276.112V87.944H274.128V91.064L275.616 90.632L275.776 91.72ZM282.56 91.752H277.632C278.192 92.92 279.04 93.944 280.064 94.808C281.104 93.976 281.984 92.968 282.56 91.752ZM283.392 90.584L284.16 90.936C283.52 92.856 282.416 94.36 281.04 95.512C282.24 96.264 283.68 96.824 285.28 97.16C285.008 97.416 284.688 97.912 284.528 98.248C282.816 97.832 281.296 97.16 280.048 96.248C278.656 97.192 277.04 97.832 275.36 98.264C275.248 97.928 274.992 97.432 274.768 97.176C276.304 96.84 277.792 96.28 279.088 95.48C278 94.472 277.12 93.24 276.48 91.816L276.64 91.752H276.016V90.632H283.168L283.392 90.584ZM296.848 85.688L295.776 86.152C295.568 85.592 295.072 84.68 294.672 84.024L295.68 83.608C296.144 84.28 296.624 85.128 296.848 85.688ZM290.144 83.672L291.2 83.992C290.832 85.064 290.368 86.136 289.856 87.144V98.28H288.752V89.064C288.272 89.832 287.744 90.52 287.232 91.128C287.12 90.872 286.784 90.296 286.576 90.024C288.016 88.472 289.328 86.088 290.144 83.672ZM298.96 94.088H292.96V96.616H298.96V94.088ZM291.92 98.232V93.096H300.016V98.184H298.96V97.608H292.96V98.232H291.92ZM292.144 91.752V90.776H299.856V91.752H292.144ZM299.856 88.536V89.512H292.144V88.536H299.856ZM290.992 86.248H301.12V87.256H290.992V86.248Z" fill="#1C1C1C"/>
<rect x="330.5" y="74.5" width="99" height="31" rx="3.5" stroke="#ACACAC"/>
<path d="M351.792 85.992L350.992 86.648C350.624 86.072 349.792 85.208 349.104 84.6L349.872 84.04C350.56 84.616 351.408 85.448 351.792 85.992ZM351.328 90.232L350.544 90.936C350.128 90.376 349.296 89.512 348.592 88.92L349.344 88.296C350.048 88.872 350.912 89.688 351.328 90.232ZM349.984 98.008L348.944 97.48C349.408 96.248 350.048 94.2 350.48 92.44L351.424 92.968C351.024 94.616 350.464 96.552 349.984 98.008ZM358.608 92.696L357.92 93.048C357.696 92.456 357.2 91.544 356.736 90.888L357.392 90.6C357.856 91.256 358.384 92.152 358.608 92.696ZM361.84 92.616L361.136 92.936C360.944 92.392 360.432 91.496 360 90.856L360.672 90.6C361.104 91.224 361.632 92.088 361.84 92.616ZM359.984 88.76H362.56C361.552 87.928 360.688 86.952 359.92 85.544C359.264 86.84 358.352 87.96 357.264 88.76H359.568V95.336C360.176 94.808 361.04 94.024 361.888 93.24V89.72H359.984V88.76ZM352.96 90.792V92.072H355.36V90.792H352.96ZM352.96 88.68V89.928H355.36V88.68H352.96ZM359.664 83.56L360.608 83.864C360.544 84.056 360.48 84.232 360.416 84.424C361.248 86.088 362.24 87.144 363.44 87.992C363.2 88.2 362.896 88.488 362.72 88.76H362.816V96.952C362.816 97.48 362.72 97.752 362.352 97.928C361.984 98.104 361.392 98.12 360.464 98.12C360.432 97.848 360.288 97.432 360.16 97.176C360.848 97.192 361.472 97.192 361.632 97.176C361.824 97.176 361.888 97.112 361.888 96.936V94.312C361.248 94.952 360.592 95.592 360.016 96.168L359.568 95.496V96.968C359.568 97.496 359.472 97.784 359.104 97.944C358.752 98.12 358.176 98.12 357.248 98.12C357.216 97.864 357.104 97.464 356.976 97.208C357.648 97.224 358.224 97.224 358.416 97.208C358.592 97.208 358.656 97.144 358.656 96.968V94.536C358.064 95.128 357.472 95.72 356.912 96.232L356.352 95.464L356.464 95.368H354.736V97.944H353.696V95.368H351.52V94.344H353.696V92.968H352.016V87.784H353.696V86.424H351.824V85.416H353.696V83.88H354.752V85.416H356.528V86.424H354.752V87.784H356.336V92.968H354.736V94.344H356.704V95.176C357.248 94.712 357.968 94.056 358.656 93.416V89.72H356.912V88.76H357.008C356.816 88.504 356.56 88.232 356.336 88.04C357.856 87.096 359.072 85.432 359.664 83.56ZM367.168 92.536H370.768V96.44H373.136V92.52H376.768V89.24H373.136V85.736H370.752V89.272H367.168V92.536ZM374.288 96.44H379.136V97.528H364.864V96.44H369.616V93.576H366.016V88.232H369.616V85.736H365.296V84.632H378.752V85.736H374.288V88.216H377.968V93.56H377.392V93.576H374.288V96.44ZM388.688 85.304V85.976C388.688 87.4 388.256 89.112 386.288 90.248C386.144 90.008 385.728 89.56 385.504 89.368C387.28 88.392 387.568 87.08 387.568 85.944V84.184H392.608V87.88C392.608 88.328 392.656 88.488 392.912 88.488H394.144C394.384 88.488 394.736 88.456 394.944 88.408C394.96 88.712 394.992 89.16 395.04 89.432C394.832 89.496 394.496 89.512 394.176 89.512H392.832C391.712 89.512 391.472 89.048 391.472 87.864V85.304H388.688ZM385.776 91.72L384.128 92.216V96.712C384.128 97.384 383.952 97.704 383.536 97.88C383.136 98.072 382.464 98.104 381.376 98.104C381.328 97.8 381.152 97.32 381.008 97C381.776 97.032 382.464 97.016 382.656 97.016C382.88 97.016 382.96 96.936 382.96 96.712V92.584L380.944 93.176L380.592 92.024C381.248 91.864 382.064 91.64 382.96 91.384V87.944H380.784V86.824H382.96V83.624H384.128V86.824H386.112V87.944H384.128V91.064L385.616 90.632L385.776 91.72ZM392.56 91.752H387.632C388.192 92.92 389.04 93.944 390.064 94.808C391.104 93.976 391.984 92.968 392.56 91.752ZM393.392 90.584L394.16 90.936C393.52 92.856 392.416 94.36 391.04 95.512C392.24 96.264 393.68 96.824 395.28 97.16C395.008 97.416 394.688 97.912 394.528 98.248C392.816 97.832 391.296 97.16 390.048 96.248C388.656 97.192 387.04 97.832 385.36 98.264C385.248 97.928 384.992 97.432 384.768 97.176C386.304 96.84 387.792 96.28 389.088 95.48C388 94.472 387.12 93.24 386.48 91.816L386.64 91.752H386.016V90.632H393.168L393.392 90.584ZM406.848 85.688L405.776 86.152C405.568 85.592 405.072 84.68 404.672 84.024L405.68 83.608C406.144 84.28 406.624 85.128 406.848 85.688ZM400.144 83.672L401.2 83.992C400.832 85.064 400.368 86.136 399.856 87.144V98.28H398.752V89.064C398.272 89.832 397.744 90.52 397.232 91.128C397.12 90.872 396.784 90.296 396.576 90.024C398.016 88.472 399.328 86.088 400.144 83.672ZM408.96 94.088H402.96V96.616H408.96V94.088ZM401.92 98.232V93.096H410.016V98.184H408.96V97.608H402.96V98.232H401.92ZM402.144 91.752V90.776H409.856V91.752H402.144ZM409.856 88.536V89.512H402.144V88.536H409.856ZM400.992 86.248H411.12V87.256H400.992V86.248Z" fill="#1C1C1C"/>
<rect x="440.5" y="74.5" width="99" height="31" rx="3.5" stroke="#ACACAC"/>
<path d="M461.792 85.992L460.992 86.648C460.624 86.072 459.792 85.208 459.104 84.6L459.872 84.04C460.56 84.616 461.408 85.448 461.792 85.992ZM461.328 90.232L460.544 90.936C460.128 90.376 459.296 89.512 458.592 88.92L459.344 88.296C460.048 88.872 460.912 89.688 461.328 90.232ZM459.984 98.008L458.944 97.48C459.408 96.248 460.048 94.2 460.48 92.44L461.424 92.968C461.024 94.616 460.464 96.552 459.984 98.008ZM468.608 92.696L467.92 93.048C467.696 92.456 467.2 91.544 466.736 90.888L467.392 90.6C467.856 91.256 468.384 92.152 468.608 92.696ZM471.84 92.616L471.136 92.936C470.944 92.392 470.432 91.496 470 90.856L470.672 90.6C471.104 91.224 471.632 92.088 471.84 92.616ZM469.984 88.76H472.56C471.552 87.928 470.688 86.952 469.92 85.544C469.264 86.84 468.352 87.96 467.264 88.76H469.568V95.336C470.176 94.808 471.04 94.024 471.888 93.24V89.72H469.984V88.76ZM462.96 90.792V92.072H465.36V90.792H462.96ZM462.96 88.68V89.928H465.36V88.68H462.96ZM469.664 83.56L470.608 83.864C470.544 84.056 470.48 84.232 470.416 84.424C471.248 86.088 472.24 87.144 473.44 87.992C473.2 88.2 472.896 88.488 472.72 88.76H472.816V96.952C472.816 97.48 472.72 97.752 472.352 97.928C471.984 98.104 471.392 98.12 470.464 98.12C470.432 97.848 470.288 97.432 470.16 97.176C470.848 97.192 471.472 97.192 471.632 97.176C471.824 97.176 471.888 97.112 471.888 96.936V94.312C471.248 94.952 470.592 95.592 470.016 96.168L469.568 95.496V96.968C469.568 97.496 469.472 97.784 469.104 97.944C468.752 98.12 468.176 98.12 467.248 98.12C467.216 97.864 467.104 97.464 466.976 97.208C467.648 97.224 468.224 97.224 468.416 97.208C468.592 97.208 468.656 97.144 468.656 96.968V94.536C468.064 95.128 467.472 95.72 466.912 96.232L466.352 95.464L466.464 95.368H464.736V97.944H463.696V95.368H461.52V94.344H463.696V92.968H462.016V87.784H463.696V86.424H461.824V85.416H463.696V83.88H464.752V85.416H466.528V86.424H464.752V87.784H466.336V92.968H464.736V94.344H466.704V95.176C467.248 94.712 467.968 94.056 468.656 93.416V89.72H466.912V88.76H467.008C466.816 88.504 466.56 88.232 466.336 88.04C467.856 87.096 469.072 85.432 469.664 83.56ZM477.168 92.536H480.768V96.44H483.136V92.52H486.768V89.24H483.136V85.736H480.752V89.272H477.168V92.536ZM484.288 96.44H489.136V97.528H474.864V96.44H479.616V93.576H476.016V88.232H479.616V85.736H475.296V84.632H488.752V85.736H484.288V88.216H487.968V93.56H487.392V93.576H484.288V96.44ZM498.688 85.304V85.976C498.688 87.4 498.256 89.112 496.288 90.248C496.144 90.008 495.728 89.56 495.504 89.368C497.28 88.392 497.568 87.08 497.568 85.944V84.184H502.608V87.88C502.608 88.328 502.656 88.488 502.912 88.488H504.144C504.384 88.488 504.736 88.456 504.944 88.408C504.96 88.712 504.992 89.16 505.04 89.432C504.832 89.496 504.496 89.512 504.176 89.512H502.832C501.712 89.512 501.472 89.048 501.472 87.864V85.304H498.688ZM495.776 91.72L494.128 92.216V96.712C494.128 97.384 493.952 97.704 493.536 97.88C493.136 98.072 492.464 98.104 491.376 98.104C491.328 97.8 491.152 97.32 491.008 97C491.776 97.032 492.464 97.016 492.656 97.016C492.88 97.016 492.96 96.936 492.96 96.712V92.584L490.944 93.176L490.592 92.024C491.248 91.864 492.064 91.64 492.96 91.384V87.944H490.784V86.824H492.96V83.624H494.128V86.824H496.112V87.944H494.128V91.064L495.616 90.632L495.776 91.72ZM502.56 91.752H497.632C498.192 92.92 499.04 93.944 500.064 94.808C501.104 93.976 501.984 92.968 502.56 91.752ZM503.392 90.584L504.16 90.936C503.52 92.856 502.416 94.36 501.04 95.512C502.24 96.264 503.68 96.824 505.28 97.16C505.008 97.416 504.688 97.912 504.528 98.248C502.816 97.832 501.296 97.16 500.048 96.248C498.656 97.192 497.04 97.832 495.36 98.264C495.248 97.928 494.992 97.432 494.768 97.176C496.304 96.84 497.792 96.28 499.088 95.48C498 94.472 497.12 93.24 496.48 91.816L496.64 91.752H496.016V90.632H503.168L503.392 90.584ZM516.848 85.688L515.776 86.152C515.568 85.592 515.072 84.68 514.672 84.024L515.68 83.608C516.144 84.28 516.624 85.128 516.848 85.688ZM510.144 83.672L511.2 83.992C510.832 85.064 510.368 86.136 509.856 87.144V98.28H508.752V89.064C508.272 89.832 507.744 90.52 507.232 91.128C507.12 90.872 506.784 90.296 506.576 90.024C508.016 88.472 509.328 86.088 510.144 83.672ZM518.96 94.088H512.96V96.616H518.96V94.088ZM511.92 98.232V93.096H520.016V98.184H518.96V97.608H512.96V98.232H511.92ZM512.144 91.752V90.776H519.856V91.752H512.144ZM519.856 88.536V89.512H512.144V88.536H519.856ZM510.992 86.248H521.12V87.256H510.992V86.248Z" fill="#1C1C1C"/>
<rect x="550.5" y="74.5" width="67" height="31" rx="3.5" stroke="#00A19B"/>
<path d="M569.152 83.568H582.864V84.64H576.576V86.032H581.536V92.368H576.384C576.192 93.424 575.888 94.272 575.44 94.912C577.68 95.856 580.336 96.384 583.408 96.48L583.12 97.584C579.904 97.456 577.104 96.832 574.72 95.744C573.6 96.704 571.76 97.312 569.216 97.6L568.72 96.544C570.944 96.368 572.576 95.92 573.6 95.184C572.672 94.672 571.808 94.08 571.024 93.408L571.904 92.8C572.656 93.424 573.488 93.968 574.384 94.432C574.768 93.888 575.056 93.2 575.216 92.368H570.528V86.032H575.424V84.64H569.152V83.568ZM580.4 91.36V89.664H576.576V90.224L576.528 91.36H580.4ZM575.376 91.36C575.408 90.992 575.424 90.608 575.424 90.224V89.664H571.664V91.36H575.376ZM571.664 88.704H575.424V87.024H571.664V88.704ZM576.576 87.024V88.704H580.4V87.024H576.576ZM591.936 82.88L592.96 83.424C592.672 83.744 592.368 84.048 592.048 84.336H596.64V85.248C594.912 88.32 591.696 90.048 587.024 90.416L586.528 89.376C587.968 89.28 589.248 89.072 590.4 88.736C589.904 88.128 589.376 87.568 588.832 87.072L589.84 86.592C590.416 87.136 590.96 87.712 591.472 88.352C593.136 87.68 594.432 86.672 595.328 85.36H590.656C589.408 86.096 587.936 86.656 586.224 87.04L585.552 85.984C588.4 85.44 590.528 84.416 591.936 82.88ZM591.328 92.88C591.936 93.504 592.528 94.176 593.072 94.896C594.848 94.128 596.24 93.024 597.264 91.616H592.528C591.12 92.288 589.456 92.8 587.52 93.136L586.832 92.112C590.32 91.76 592.896 90.688 594.56 88.928L595.552 89.472C595.168 89.856 594.768 90.224 594.32 90.56H598.704V91.472C596.432 95.248 592.208 97.2 586 97.344L585.536 96.24C588.032 96.224 590.192 95.92 592 95.312C591.456 94.592 590.896 93.936 590.304 93.36L591.328 92.88Z" fill="#00A19B"/>
<path d="M188 28.7485L178 28.7485" stroke="#C92E34"/>
<path d="M178 30.4959L178 27" stroke="#C92E34"/>
<path d="M188 30.4959L188 27" stroke="#C92E34"/>
<path d="M188 30.4959L188 27" stroke="#C92E34"/>
<path d="M188 71.1377L188 30.1377" stroke="#C92E34" stroke-dasharray="1 1"/>
<path d="M178 71.1377L178 30.1377" stroke="#C92E34" stroke-dasharray="1 1"/>
<path d="M73 28.7485L68 28.7485" stroke="#C92E34"/>
<path d="M68 30.4959L68 27" stroke="#C92E34"/>
<path d="M73 30.4959L73 27" stroke="#C92E34"/>
<path d="M73 30.4959L73 27" stroke="#C92E34"/>
<path d="M73 71.1377L73 30.1377" stroke="#C92E34" stroke-dasharray="1 1"/>
<path d="M68 71.1377L68 30.1377" stroke="#C92E34" stroke-dasharray="1 1"/>
<path d="M64.85 8.868C65.5313 8.868 66.124 8.98467 66.628 9.218C67.132 9.45133 67.5193 9.78733 67.79 10.226C68.07 10.6553 68.21 11.1827 68.21 11.808C68.21 12.4987 68.0607 13.096 67.762 13.6C67.4633 14.0947 67.034 14.4773 66.474 14.748C65.9233 15.0093 65.256 15.14 64.472 15.14C63.9587 15.14 63.4733 15.0933 63.016 15C62.568 14.9067 62.19 14.7713 61.882 14.594V13.432C62.218 13.6373 62.624 13.8007 63.1 13.922C63.5853 14.034 64.0473 14.09 64.486 14.09C64.9807 14.09 65.41 14.0153 65.774 13.866C66.1473 13.7073 66.4367 13.4693 66.642 13.152C66.8473 12.8253 66.95 12.4193 66.95 11.934C66.95 11.2807 66.7493 10.7813 66.348 10.436C65.9467 10.0813 65.312 9.904 64.444 9.904C64.1827 9.904 63.884 9.92733 63.548 9.974C63.212 10.0207 62.9413 10.0673 62.736 10.114L62.12 9.722L62.498 5.004H67.51V6.124H63.548L63.31 9.022C63.4687 8.994 63.6833 8.96133 63.954 8.924C64.2247 8.88667 64.5233 8.868 64.85 8.868ZM73.7717 7.356C74.6957 7.356 75.4377 7.678 75.9977 8.322C76.5671 8.966 76.8517 9.93667 76.8517 11.234C76.8517 12.0833 76.7211 12.802 76.4597 13.39C76.2077 13.9687 75.8484 14.4073 75.3817 14.706C74.9244 14.9953 74.3831 15.14 73.7577 15.14C73.3751 15.14 73.0344 15.0887 72.7357 14.986C72.4371 14.8833 72.1804 14.7527 71.9657 14.594C71.7604 14.426 71.5831 14.244 71.4337 14.048H71.3497C71.3684 14.2067 71.3871 14.4073 71.4057 14.65C71.4244 14.8927 71.4337 15.1027 71.4337 15.28V18.36H70.2017V7.496H71.2097L71.3777 8.518H71.4337C71.5831 8.30333 71.7604 8.10733 71.9657 7.93C72.1804 7.75267 72.4324 7.61267 72.7217 7.51C73.0204 7.40733 73.3704 7.356 73.7717 7.356ZM73.5477 8.392C73.0437 8.392 72.6377 8.49 72.3297 8.686C72.0217 8.87267 71.7977 9.15733 71.6577 9.54C71.5177 9.92267 71.4431 10.408 71.4337 10.996V11.234C71.4337 11.85 71.4991 12.3727 71.6297 12.802C71.7604 13.2313 71.9797 13.558 72.2877 13.782C72.6051 14.006 73.0344 14.118 73.5757 14.118C74.0331 14.118 74.4064 13.992 74.6957 13.74C74.9944 13.488 75.2137 13.1473 75.3537 12.718C75.5031 12.2793 75.5777 11.78 75.5777 11.22C75.5777 10.3613 75.4097 9.67533 75.0737 9.162C74.7471 8.64867 74.2384 8.392 73.5477 8.392ZM80.3196 11.164L77.7296 7.496H79.1296L81.0616 10.324L82.9796 7.496H84.3656L81.7756 11.164L84.5056 15H83.1056L81.0616 12.004L78.9896 15H77.6036L80.3196 11.164Z" fill="#C92E34"/>
<path d="M175.97 15H174.766V8.014C174.766 7.74333 174.766 7.51467 174.766 7.328C174.775 7.14133 174.785 6.96867 174.794 6.81C174.803 6.642 174.813 6.46933 174.822 6.292C174.673 6.44133 174.537 6.56733 174.416 6.67C174.295 6.77267 174.141 6.90333 173.954 7.062L172.89 7.93L172.246 7.104L174.948 5.004H175.97V15ZM186.334 9.988C186.334 10.8 186.273 11.5233 186.152 12.158C186.03 12.7927 185.834 13.334 185.564 13.782C185.302 14.2207 184.957 14.5567 184.528 14.79C184.108 15.0233 183.599 15.14 183.002 15.14C182.255 15.14 181.634 14.9347 181.14 14.524C180.654 14.1133 180.29 13.5253 180.048 12.76C179.814 11.9853 179.698 11.0613 179.698 9.988C179.698 8.90533 179.805 7.98133 180.02 7.216C180.244 6.45067 180.598 5.86733 181.084 5.466C181.569 5.05533 182.208 4.85 183.002 4.85C183.748 4.85 184.369 5.05533 184.864 5.466C185.358 5.86733 185.727 6.45067 185.97 7.216C186.212 7.98133 186.334 8.90533 186.334 9.988ZM180.93 9.988C180.93 10.9027 180.995 11.6633 181.126 12.27C181.266 12.8767 181.485 13.334 181.784 13.642C182.092 13.9407 182.498 14.09 183.002 14.09C183.506 14.09 183.907 13.9407 184.206 13.642C184.514 13.3433 184.738 12.8907 184.878 12.284C185.018 11.668 185.088 10.9027 185.088 9.988C185.088 9.07333 185.018 8.31733 184.878 7.72C184.738 7.11333 184.514 6.66067 184.206 6.362C183.907 6.054 183.506 5.9 183.002 5.9C182.498 5.9 182.092 6.054 181.784 6.362C181.485 6.66067 181.266 7.11333 181.126 7.72C180.995 8.31733 180.93 9.07333 180.93 9.988ZM191.783 7.356C192.707 7.356 193.449 7.678 194.009 8.322C194.579 8.966 194.863 9.93667 194.863 11.234C194.863 12.0833 194.733 12.802 194.471 13.39C194.219 13.9687 193.86 14.4073 193.393 14.706C192.936 14.9953 192.395 15.14 191.769 15.14C191.387 15.14 191.046 15.0887 190.747 14.986C190.449 14.8833 190.192 14.7527 189.977 14.594C189.772 14.426 189.595 14.244 189.445 14.048H189.361C189.38 14.2067 189.399 14.4073 189.417 14.65C189.436 14.8927 189.445 15.1027 189.445 15.28V18.36H188.213V7.496H189.221L189.389 8.518H189.445C189.595 8.30333 189.772 8.10733 189.977 7.93C190.192 7.75267 190.444 7.61267 190.733 7.51C191.032 7.40733 191.382 7.356 191.783 7.356ZM191.559 8.392C191.055 8.392 190.649 8.49 190.341 8.686C190.033 8.87267 189.809 9.15733 189.669 9.54C189.529 9.92267 189.455 10.408 189.445 10.996V11.234C189.445 11.85 189.511 12.3727 189.641 12.802C189.772 13.2313 189.991 13.558 190.299 13.782C190.617 14.006 191.046 14.118 191.587 14.118C192.045 14.118 192.418 13.992 192.707 13.74C193.006 13.488 193.225 13.1473 193.365 12.718C193.515 12.2793 193.589 11.78 193.589 11.22C193.589 10.3613 193.421 9.67533 193.085 9.162C192.759 8.64867 192.25 8.392 191.559 8.392ZM198.331 11.164L195.741 7.496H197.141L199.073 10.324L200.991 7.496H202.377L199.787 11.164L202.517 15H201.117L199.073 12.004L197.001 15H195.615L198.331 11.164Z" fill="#C92E34"/>
<path d="M620.033 74V64" stroke="#C92E34"/>
<path d="M619.068 64H621" stroke="#C92E34"/>
<path d="M619.068 74H621" stroke="#C92E34"/>
<path d="M619.068 74H621" stroke="#C92E34"/>
<path d="M223 74H619.265" stroke="#C92E34" stroke-dasharray="1 1"/>
<path d="M223 64L619.265 64" stroke="#C92E34" stroke-dasharray="1 1"/>
<path d="M628.232 71V69.936H630.528V62.572H628.694V61.76C629.151 61.676 629.548 61.5733 629.884 61.452C630.229 61.3307 630.542 61.186 630.822 61.018H631.802V69.936H633.86V71H628.232ZM638.658 71.182C637.995 71.182 637.426 70.9813 636.95 70.58C636.474 70.1787 636.105 69.5907 635.844 68.816C635.592 68.0413 635.466 67.094 635.466 65.974C635.466 64.8633 635.592 63.9253 635.844 63.16C636.105 62.3947 636.474 61.816 636.95 61.424C637.426 61.032 637.995 60.836 638.658 60.836C639.32 60.836 639.89 61.032 640.366 61.424C640.842 61.816 641.206 62.3947 641.458 63.16C641.719 63.9253 641.85 64.8633 641.85 65.974C641.85 67.094 641.719 68.0413 641.458 68.816C641.206 69.5907 640.842 70.1787 640.366 70.58C639.89 70.9813 639.32 71.182 638.658 71.182ZM638.658 70.146C639.05 70.146 639.39 70.0013 639.68 69.712C639.978 69.4227 640.207 68.97 640.366 68.354C640.534 67.738 640.618 66.9447 640.618 65.974C640.618 65.0033 640.534 64.2147 640.366 63.608C640.207 63.0013 639.978 62.558 639.68 62.278C639.39 61.998 639.05 61.858 638.658 61.858C638.275 61.858 637.934 61.998 637.636 62.278C637.337 62.558 637.104 63.0013 636.936 63.608C636.777 64.2147 636.698 65.0033 636.698 65.974C636.698 66.9447 636.777 67.738 636.936 68.354C637.104 68.97 637.337 69.4227 637.636 69.712C637.934 70.0013 638.275 70.146 638.658 70.146ZM646.95 74.206V63.398H648L648.126 64.28H648.154C648.499 63.9907 648.877 63.7387 649.288 63.524C649.708 63.3093 650.137 63.202 650.576 63.202C651.229 63.202 651.78 63.3653 652.228 63.692C652.685 64.0093 653.026 64.4573 653.25 65.036C653.483 65.6147 653.6 66.296 653.6 67.08C653.6 67.948 653.441 68.69 653.124 69.306C652.816 69.9127 652.41 70.3793 651.906 70.706C651.411 71.0233 650.875 71.182 650.296 71.182C649.951 71.182 649.601 71.1073 649.246 70.958C648.891 70.7993 648.541 70.58 648.196 70.3L648.238 71.63V74.206H646.95ZM650.086 70.104C650.506 70.104 650.879 69.9873 651.206 69.754C651.542 69.5113 651.803 69.166 651.99 68.718C652.177 68.2607 652.27 67.7193 652.27 67.094C652.27 66.534 652.2 66.044 652.06 65.624C651.929 65.1947 651.719 64.8633 651.43 64.63C651.141 64.3967 650.749 64.28 650.254 64.28C649.937 64.28 649.61 64.3687 649.274 64.546C648.947 64.7233 648.602 64.98 648.238 65.316V69.32C648.574 69.6093 648.905 69.8147 649.232 69.936C649.559 70.048 649.843 70.104 650.086 70.104ZM654.253 71L656.759 67.038L654.449 63.398H655.835L656.857 65.064C656.969 65.2787 657.086 65.4933 657.207 65.708C657.338 65.9133 657.468 66.1233 657.599 66.338H657.669C657.772 66.1233 657.879 65.9133 657.991 65.708C658.112 65.4933 658.229 65.2787 658.341 65.064L659.279 63.398H660.609L658.299 67.164L660.805 71H659.405L658.285 69.222C658.154 68.9887 658.019 68.76 657.879 68.536C657.748 68.3027 657.608 68.0787 657.459 67.864H657.389C657.268 68.0787 657.142 68.3027 657.011 68.536C656.89 68.76 656.759 68.9887 656.619 69.222L655.597 71H654.253Z" fill="#C92E34"/>
</svg>
