<svg width="24" height="24" viewBox="0 0 24 24" fill="none" xmlns="http://www.w3.org/2000/svg">
<path fill-rule="evenodd" clip-rule="evenodd" d="M12 22.4C6.25624 22.4 1.6 17.7438 1.6 12C1.6 6.25625 6.25624 1.60001 12 1.60001C17.7438 1.60001 22.4 6.25625 22.4 12C22.4 17.7438 17.7438 22.4 12 22.4ZM12 21.2654C17.1172 21.2654 21.2654 17.1172 21.2654 12C21.2654 6.88284 17.1172 2.73455 12 2.73455C6.88283 2.73455 2.73454 6.88284 2.73454 12C2.73454 17.1172 6.88283 21.2654 12 21.2654ZM12.843 5.94286C12.605 5.70085 12.3273 5.60001 11.9901 5.60001C11.6529 5.60001 11.3752 5.70085 11.1372 5.94286C10.8992 6.14454 10.8 6.42689 10.8 6.78992C10.8 7.13278 10.8992 7.41513 11.1372 7.65715C11.3752 7.879 11.6529 8.00001 11.9901 8.00001C12.3273 8.00001 12.605 7.879 12.843 7.65715C13.081 7.41513 13.2 7.13278 13.2 6.78992C13.2 6.42689 13.081 6.14454 12.843 5.94286ZM12.8 18.4V9.60001H11.2V18.4H12.8Z" fill="#ACACAC"/>
<mask id="mask0_2606_6660" style="mask-type:luminance" maskUnits="userSpaceOnUse" x="1" y="1" width="22" height="22">
<path fill-rule="evenodd" clip-rule="evenodd" d="M12 22.4C6.25624 22.4 1.6 17.7438 1.6 12C1.6 6.25625 6.25624 1.60001 12 1.60001C17.7438 1.60001 22.4 6.25625 22.4 12C22.4 17.7438 17.7438 22.4 12 22.4ZM12 21.2654C17.1172 21.2654 21.2654 17.1172 21.2654 12C21.2654 6.88284 17.1172 2.73455 12 2.73455C6.88283 2.73455 2.73454 6.88284 2.73454 12C2.73454 17.1172 6.88283 21.2654 12 21.2654ZM12.843 5.94286C12.605 5.70085 12.3273 5.60001 11.9901 5.60001C11.6529 5.60001 11.3752 5.70085 11.1372 5.94286C10.8992 6.14454 10.8 6.42689 10.8 6.78992C10.8 7.13278 10.8992 7.41513 11.1372 7.65715C11.3752 7.879 11.6529 8.00001 11.9901 8.00001C12.3273 8.00001 12.605 7.879 12.843 7.65715C13.081 7.41513 13.2 7.13278 13.2 6.78992C13.2 6.42689 13.081 6.14454 12.843 5.94286ZM12.8 18.4V9.60001H11.2V18.4H12.8Z" fill="white"/>
</mask>
<g mask="url(#mask0_2606_6660)">
<path d="M24 0H0V24H24V0Z" fill="#ACACAC"/>
</g>
</svg>
