<svg width="251" height="99" viewBox="0 0 251 99" fill="none" xmlns="http://www.w3.org/2000/svg">
<g filter="url(#filter0_d_2267_1282)">
<rect x="6" y="6" width="239" height="87" rx="30" fill="white" shape-rendering="crispEdges"/>
<mask id="mask0_2267_1282" style="mask-type:luminance" maskUnits="userSpaceOnUse" x="110" y="51" width="32" height="32">
<path d="M110 83H142V51H110V83Z" fill="white"/>
</mask>
<g mask="url(#mask0_2267_1282)">
<path d="M125.75 70.383C126.007 70.3845 126.255 70.2932 126.45 70.126L132.911 64.426C133.002 64.3504 133.075 64.2556 133.126 64.1484C133.176 64.0413 133.202 63.9244 133.202 63.806C133.202 63.6876 133.176 63.5707 133.126 63.4636C133.075 63.3564 133.002 63.2616 132.911 63.186C132.714 63.02 132.465 62.929 132.208 62.929C131.951 62.929 131.702 63.02 131.505 63.186L125.747 68.267L119.989 63.186C119.792 63.02 119.543 62.929 119.286 62.929C119.029 62.929 118.78 63.02 118.583 63.186C118.492 63.2616 118.419 63.3564 118.368 63.4636C118.318 63.5707 118.292 63.6876 118.292 63.806C118.292 63.9244 118.318 64.0413 118.368 64.1484C118.419 64.2556 118.492 64.3504 118.583 64.426L125.044 70.126C125.24 70.2946 125.491 70.3859 125.75 70.383Z" fill="#00A19B"/>
</g>
<path d="M43.39 19.548H44.398V20.458H47.562V21.298H44.398V22.236H47.1V23.048H44.398V24.028H47.94V24.882H39.806V24.028H43.39V23.048H40.674V22.236H43.39V21.298H40.184V20.458H43.39V19.548ZM41.892 28.34V28.536C41.892 28.816 41.864 29.082 41.836 29.334H45.938V28.34H41.892ZM45.938 27.556V26.534H41.892V27.556H45.938ZM41.696 30.118C41.472 31.014 41.08 31.77 40.506 32.414L39.778 31.742C40.534 30.916 40.912 29.866 40.94 28.592V25.708H46.904V31.28C46.904 31.98 46.498 32.33 45.7 32.33H44.076L43.838 31.462C44.412 31.476 44.93 31.49 45.406 31.49C45.756 31.49 45.938 31.308 45.938 30.944V30.118H41.696ZM35.172 21.41H37.216C36.992 20.85 36.754 20.304 36.474 19.786L37.44 19.52C37.72 20.136 37.944 20.71 38.098 21.214L37.58 21.41H39.722V22.334H35.172V21.41ZM35.704 23.44H39.232V24.308H35.704V23.44ZM35.704 25.386H39.232V26.254H35.704V25.386ZM39.33 27.472V31.49H36.544V32.19H35.62V27.472H39.33ZM36.544 30.622H38.406V28.312H36.544V30.622ZM50.236 19.814C51.244 20.542 52.098 21.284 52.784 22.012L52.098 22.684C51.482 21.998 50.628 21.256 49.55 20.472L50.236 19.814ZM50.096 23.258C51.006 23.958 51.776 24.644 52.406 25.344L51.72 26.03C51.16 25.358 50.39 24.658 49.41 23.902L50.096 23.258ZM51.454 27.248L52.322 27.584C51.734 29.264 51.09 30.86 50.362 32.344L49.452 31.952C50.222 30.412 50.894 28.844 51.454 27.248ZM60.582 20.066V23.832H61.506V26.17H60.54V24.7H53.82V26.17H52.854V23.832H53.876V20.066H60.582ZM54.828 23.832H56.788V21.998H59.63V20.948H54.828V23.832ZM59.63 22.726H57.628V23.832H59.63V22.726ZM60.358 25.666V31.308C60.358 32.036 59.938 32.4 59.098 32.4H56.956L56.718 31.49C57.474 31.518 58.174 31.546 58.818 31.546C59.21 31.546 59.42 31.35 59.42 30.972V29.81C58.188 30.118 56.774 30.398 55.206 30.678L54.982 29.852C56.606 29.6 58.076 29.306 59.42 28.984V26.576H55.038V27.36C56.214 27.486 57.32 27.654 58.384 27.878L58.104 28.606C57.11 28.396 56.088 28.228 55.024 28.088C54.968 29.866 54.576 31.322 53.834 32.442L53.106 31.77C53.764 30.762 54.1 29.488 54.114 27.934V25.666H60.358ZM71.6 19.604H72.538V22.264H75.366C75.366 26.87 75.296 29.712 75.17 30.804C75.044 31.77 74.47 32.26 73.434 32.26C73.168 32.26 72.706 32.246 72.062 32.218L71.824 31.322C72.384 31.35 72.888 31.378 73.308 31.378C73.84 31.378 74.148 31.056 74.232 30.412C74.33 29.628 74.386 27.206 74.414 23.174H72.538V23.846C72.51 27.71 71.656 30.552 70.004 32.344L69.276 31.714C69.318 31.658 69.36 31.616 69.402 31.56C67.582 31.784 65.51 31.966 63.2 32.12L63.074 31.224C64.11 31.168 65.104 31.098 66.042 31.028V29.782H63.522V28.942H66.042V27.976H63.536V23.706H66.042V22.81H63.186V21.97H66.042V20.99C65.258 21.046 64.418 21.074 63.536 21.074L63.256 20.262C65.636 20.262 67.61 20.066 69.178 19.688L69.626 20.458C68.87 20.654 67.988 20.808 66.994 20.92V21.97H69.78V22.81H66.994V23.706H69.514V27.976H66.994V28.942H69.528V29.782H66.994V30.944C67.904 30.86 68.758 30.762 69.542 30.65V31.392C70.886 29.712 71.572 27.206 71.6 23.846V23.174H70.214V22.264H71.6V19.604ZM68.604 27.22V26.184H66.938V27.22H68.604ZM66.098 27.22V26.184H64.446V27.22H66.098ZM64.446 25.484H66.098V24.448H64.446V25.484ZM66.938 24.448V25.484H68.604V24.448H66.938ZM81.414 23.174H77.522V22.208H84.956C85.488 21.396 85.95 20.528 86.342 19.604L87.308 19.94C86.944 20.78 86.524 21.536 86.076 22.208H89.478V23.174H85.586V30.958H89.73V31.924H77.298V30.958H81.414V23.174ZM82.408 30.958H84.592V23.174H82.408V30.958ZM79.216 24.49C79.664 25.89 80.07 27.416 80.42 29.068L79.482 29.264C79.174 27.528 78.782 26.002 78.32 24.686L79.216 24.49ZM87.826 24.42L88.75 24.658C88.4 26.422 87.938 27.976 87.378 29.306L86.468 28.984C86.986 27.78 87.434 26.268 87.826 24.42ZM80.7 19.604C81.19 20.248 81.652 20.976 82.1 21.76L81.246 22.194C80.798 21.382 80.322 20.654 79.832 20.024L80.7 19.604ZM92.488 31.518V32.372H91.55V27.472H95.274V32.176H94.336V31.518H92.488ZM94.336 30.594V28.368H92.488V30.594H94.336ZM91.2 21.396H93.188C92.978 20.85 92.74 20.318 92.46 19.814L93.44 19.548C93.72 20.15 93.944 20.71 94.098 21.228L93.636 21.396H95.61V22.334H91.2V21.396ZM91.62 23.468H95.204V24.35H91.62V23.468ZM91.62 25.372H95.204V26.268H91.62V25.372ZM99.362 22.992H96.184V22.04H100.552C100.972 21.256 101.35 20.43 101.658 19.534L102.61 19.87C102.302 20.682 101.938 21.396 101.532 22.04H103.534V22.992H100.37V25.05H103.114V26.002H100.37V28.116H103.898V29.082H100.37V32.442H99.362V29.082H95.848V28.116H99.362V26.002H96.604V25.05H99.362V22.992ZM97.92 19.576C98.34 20.192 98.746 20.864 99.138 21.592L98.312 21.998C97.92 21.242 97.514 20.57 97.08 19.982L97.92 19.576ZM106.642 22.586V23.524H109.946V22.586H106.642ZM109.946 21.886V20.906H106.642V21.886H109.946ZM112.984 22.586V23.538H116.344V22.586H112.984ZM116.344 21.886V20.934H112.984V21.886H116.344ZM110.954 20.108V24.336H106.642V32.4H105.648V20.108H110.954ZM116.344 24.336H111.976V20.122H117.338V31.252C117.338 31.98 116.974 32.344 116.274 32.344C115.798 32.344 115.336 32.33 114.86 32.302L114.748 31.826C114.594 31.868 114.426 31.896 114.23 31.896H112.97C112.354 31.896 112.046 31.588 112.046 30.972V29.278H110.688C110.52 30.552 109.624 31.49 108.014 32.078L107.51 31.266C108.854 30.846 109.596 30.188 109.764 29.278H108.798V27.038C108.504 27.304 108.196 27.542 107.86 27.766L107.174 27.178C108.238 26.534 109.036 25.666 109.568 24.574L110.366 24.91C110.114 25.4 109.834 25.848 109.526 26.24H113.684C113.292 25.764 112.9 25.344 112.508 24.952L113.306 24.602C114.174 25.442 114.93 26.366 115.602 27.388L114.818 27.794C114.552 27.388 114.286 27.01 114.02 26.674V29.278H112.984V30.776C112.984 30.972 113.068 31.07 113.25 31.07H114.062C114.23 31.07 114.356 31.014 114.426 30.93C114.51 30.818 114.58 30.482 114.622 29.95L115.462 30.23C115.406 30.79 115.322 31.196 115.21 31.448C115.448 31.448 115.686 31.462 115.91 31.462C116.19 31.462 116.344 31.28 116.344 30.944V24.336ZM113.124 28.466V27.052H109.694V28.466H113.124ZM119.508 22.138H124.982V19.604H126.018V22.138H131.478V23.104H126.914C127.852 25.33 129.532 27.318 131.94 29.068L131.254 29.936C128.79 27.92 127.082 25.638 126.13 23.104H126.018V28.564H129.014V29.53H126.018V32.4H124.982V29.53H122.098V28.564H124.982V23.104H124.884C123.848 25.946 122.084 28.284 119.592 30.118L119.018 29.18C121.37 27.612 123.05 25.582 124.086 23.104H119.508V22.138ZM140.466 19.492L141.446 19.618C141.334 19.982 141.194 20.346 141.04 20.682H145.394V21.606H144.33C144.064 22.586 143.588 23.412 142.902 24.084C143.728 24.448 144.736 24.756 145.926 24.98L145.548 25.876C144.148 25.582 143.014 25.19 142.118 24.714C141.25 25.288 140.172 25.708 138.884 25.96L138.492 25.106C139.598 24.91 140.522 24.602 141.264 24.182C140.648 23.72 140.2 23.202 139.906 22.628L140.662 22.306C140.97 22.81 141.432 23.258 142.062 23.65C142.734 23.09 143.182 22.418 143.406 21.606H140.536C140.088 22.278 139.528 22.894 138.87 23.44L138.268 22.67C139.36 21.802 140.088 20.738 140.466 19.492ZM138.772 26.842H141.642V25.806H142.608V26.842H145.52V27.78H142.608V32.372H141.642V27.78H138.772V26.842ZM139.934 28.578L140.718 28.97C140.256 30.076 139.71 31.028 139.066 31.84L138.268 31.28C138.912 30.524 139.458 29.614 139.934 28.578ZM144.092 28.522C144.82 29.544 145.366 30.44 145.758 31.21L144.974 31.756C144.582 30.916 144.036 29.992 143.364 28.984L144.092 28.522ZM136.056 19.548L136.966 19.968C136.63 21.06 136.196 22.068 135.678 23.02V32.414H134.712V24.574C134.278 25.19 133.816 25.764 133.312 26.324L132.976 25.274C134.376 23.608 135.412 21.704 136.056 19.548ZM136.882 22.082H137.806V29.894H136.882V22.082ZM147.186 20.836H150.154V19.562H151.106V20.836H153.682V21.732H151.106V22.964H153.36V23.832H147.676V22.964H150.154V21.732H147.186V20.836ZM148.138 24.952H152.926V25.848H148.138V24.952ZM147.284 26.968H153.836V27.85H151.008V32.344H150.056V27.85H147.284V26.968ZM148.362 28.522L149.174 28.69C148.88 29.796 148.46 30.748 147.928 31.56L147.172 31.084C147.718 30.3 148.11 29.446 148.362 28.522ZM152.632 28.438C152.968 29.082 153.276 29.768 153.542 30.51L152.758 30.86C152.478 30.048 152.156 29.32 151.82 28.69L152.632 28.438ZM155.082 19.604L156.006 19.758C155.922 20.486 155.81 21.144 155.684 21.76H159.394V22.376C159.198 23.566 158.96 24.742 158.666 25.904L157.728 25.638C158.008 24.77 158.232 23.79 158.428 22.67H155.474C155.138 23.846 154.718 24.798 154.2 25.526L153.43 24.98C154.284 23.692 154.83 21.9 155.082 19.604ZM156.02 23.776H156.944C156.944 24.714 156.888 25.568 156.804 26.352C157.42 28.578 158.47 30.342 159.954 31.644L159.282 32.414C158.078 31.238 157.154 29.81 156.51 28.102C156.482 28.2 156.468 28.298 156.44 28.41C156.006 30.062 155.026 31.406 153.486 32.47L152.87 31.728C154.2 30.804 155.082 29.656 155.516 28.256C155.852 27.08 156.02 25.596 156.02 23.776ZM173.422 21.06V24.196H172.4V22.04H162.572V24.196H161.55V21.06H166.926C166.758 20.584 166.59 20.15 166.394 19.758L167.528 19.562C167.71 20.01 167.892 20.5 168.06 21.06H173.422ZM163.552 23.664H171.392V24.644H163.552V23.664ZM161.41 26.296H173.604V27.262H169.642V30.58C169.642 31 169.838 31.224 170.244 31.224H172.106C172.358 31.224 172.526 31.126 172.624 30.944C172.736 30.734 172.82 30.104 172.876 29.04L173.828 29.348C173.744 30.692 173.576 31.518 173.324 31.798C173.1 32.05 172.764 32.19 172.288 32.19H169.922C169.054 32.19 168.634 31.714 168.634 30.79V27.262H166.282V27.36C166.24 28.732 165.862 29.838 165.162 30.678C164.462 31.434 163.328 32.036 161.76 32.47L161.186 31.574C162.712 31.182 163.776 30.664 164.392 30.006C164.952 29.334 165.246 28.452 165.288 27.36V27.262H161.41V26.296ZM175.76 21.788H178.014V21.004H175.256V20.22H178.014V19.562H178.91V20.22H181.514V21.004H178.91V21.788H181.164V24.224H178.91V24.448C179.736 24.784 180.576 25.162 181.416 25.596L180.898 26.352C180.114 25.82 179.442 25.4 178.91 25.12V26.562H178.014V24.952C177.188 25.652 176.348 26.226 175.48 26.66L175.046 25.848C176.026 25.512 177.006 24.966 177.986 24.224H175.76V21.788ZM180.352 23.538V22.488H178.91V23.538H180.352ZM178.014 23.538V22.488H176.572V23.538H178.014ZM183.362 21.578C182.984 22.39 182.508 23.104 181.934 23.734L181.36 22.978C182.214 22.026 182.802 20.864 183.11 19.492L184.006 19.604C183.922 19.996 183.81 20.36 183.698 20.71H187.52V21.578H186.708C186.512 22.838 186.092 23.86 185.448 24.644C185.406 24.672 185.378 24.714 185.35 24.756C186.036 25.19 186.834 25.526 187.758 25.778L187.24 26.576C186.232 26.268 185.364 25.862 184.636 25.344C183.964 25.82 183.082 26.198 182.018 26.506L181.668 25.68C182.592 25.428 183.348 25.12 183.922 24.756C183.404 24.252 182.984 23.678 182.648 23.062L183.404 22.642C183.712 23.23 184.118 23.762 184.622 24.21L184.734 24.098C185.28 23.468 185.644 22.628 185.812 21.578H183.362ZM175.984 27.024H187.044V27.906H181.906V29.11H186.19V29.978H181.906V31.182H187.716V32.092H175.284V31.182H177.524V28.578H178.448V31.182H180.898V27.906H175.984V27.024ZM191.538 28.592C193.456 26.94 194.59 25.134 194.94 23.202H191.244V32.288H190.222V22.236H195.052C195.052 22.11 195.066 21.998 195.066 21.886V20.752H193.33V19.8H196.074V21.886C196.074 21.998 196.074 22.124 196.088 22.236H200.862V30.888C200.862 31.756 200.428 32.204 199.588 32.204H197.362L197.11 31.252L199.266 31.294C199.644 31.294 199.84 31.084 199.84 30.678V23.202H196.2C196.55 25.12 197.67 26.87 199.546 28.452L198.86 29.348C197.124 27.724 196.018 26.002 195.57 24.21C195.094 26.03 193.974 27.794 192.21 29.488L191.538 28.592ZM209.668 19.492C209.836 19.856 209.99 20.276 210.144 20.738H215.226V23.23H214.246V21.676H204.754V23.3H203.774V20.738H209.094C208.926 20.346 208.758 19.996 208.59 19.674L209.668 19.492ZM209.136 23.972H209.906C211.04 25.386 213 26.618 215.772 27.682L215.226 28.508C214.666 28.284 214.148 28.06 213.672 27.836V32.414H212.706V31.826H206.448V32.414H205.468V27.78C204.894 28.06 204.32 28.298 203.732 28.522L203.2 27.696C205.762 26.744 207.736 25.512 209.136 23.972ZM206.448 30.902H212.706V28.662H206.448V30.902ZM205.496 27.766H213.518C211.81 26.926 210.466 25.946 209.514 24.854C208.394 26.03 207.05 26.996 205.496 27.766ZM211.138 22.264C212.818 23.132 214.246 24 215.394 24.868L214.694 25.554C213.672 24.714 212.272 23.832 210.494 22.894L211.138 22.264ZM207.82 22.25L208.492 22.852C207.302 23.888 205.846 24.798 204.11 25.582L203.508 24.798C205.216 24.07 206.644 23.23 207.82 22.25ZM30.3299 40.808C31.4499 40.808 32.3459 41.06 32.9899 41.578C33.6619 42.11 34.0399 42.908 34.1379 43.958H33.0039C32.8779 43.23 32.5979 42.698 32.1639 42.348C31.7159 41.984 31.0859 41.816 30.2739 41.816C29.5319 41.816 28.9579 41.928 28.5379 42.18C28.0619 42.46 27.8239 42.88 27.8239 43.454C27.8239 43.958 28.1039 44.364 28.6779 44.672C28.9299 44.812 29.5459 45.022 30.5119 45.302C31.8279 45.694 32.6959 46.016 33.1159 46.268C33.9419 46.772 34.3619 47.472 34.3619 48.382C34.3619 49.25 34.0119 49.95 33.3119 50.454C32.6119 50.944 31.6739 51.196 30.4839 51.196C29.3079 51.196 28.3839 50.944 27.7119 50.44C26.9279 49.838 26.4939 48.928 26.4099 47.696H27.5439C27.6419 48.564 27.9499 49.208 28.4539 49.614C28.9159 49.978 29.5879 50.174 30.4839 50.174C31.2959 50.174 31.9679 50.02 32.4719 49.712C32.9759 49.404 33.2279 48.984 33.2279 48.452C33.2279 47.822 32.8919 47.332 32.2339 46.982C31.9539 46.814 31.2399 46.576 30.1199 46.254C28.9159 45.89 28.1459 45.61 27.8239 45.442C27.0539 44.994 26.6759 44.35 26.6759 43.51C26.6759 42.642 27.0399 41.956 27.7819 41.48C28.4399 41.032 29.2939 40.808 30.3299 40.808ZM38.7976 43.566C39.6936 43.566 40.4076 43.776 40.9536 44.196C41.5136 44.63 41.8496 45.288 41.9756 46.17H40.8696C40.7716 45.61 40.5476 45.19 40.1976 44.91C39.8336 44.63 39.3716 44.504 38.7976 44.504C38.0976 44.504 37.5376 44.77 37.1316 45.302C36.7396 45.82 36.5436 46.52 36.5436 47.402C36.5436 48.284 36.7256 48.984 37.1176 49.488C37.4956 49.992 38.0556 50.258 38.7836 50.258C40.0156 50.258 40.7296 49.628 40.8976 48.382H42.0176C41.8496 49.306 41.4996 50.02 40.9396 50.496C40.3936 50.958 39.6796 51.196 38.7836 51.196C37.6916 51.196 36.8516 50.832 36.2496 50.104C35.6756 49.418 35.3956 48.522 35.3956 47.416C35.3956 46.31 35.6756 45.414 36.2496 44.714C36.8656 43.944 37.7196 43.566 38.7976 43.566ZM46.5099 43.566C46.9019 43.566 47.2379 43.622 47.5039 43.734V44.854C47.1399 44.742 46.7759 44.7 46.4259 44.7C45.8659 44.7 45.3899 44.938 45.0119 45.442C44.6199 45.918 44.4379 46.492 44.4379 47.164V51H43.3319V43.762H44.4379V45.022C44.6339 44.602 44.8859 44.266 45.1939 44.028C45.5719 43.72 46.0059 43.566 46.5099 43.566ZM51.6791 43.566C52.7571 43.566 53.6251 43.93 54.2691 44.686C54.8851 45.4 55.1931 46.296 55.1931 47.388C55.1931 48.466 54.8851 49.362 54.2831 50.062C53.6251 50.818 52.7571 51.196 51.6791 51.196C50.5871 51.196 49.7331 50.818 49.0891 50.062C48.4731 49.362 48.1651 48.466 48.1651 47.388C48.1651 46.296 48.4731 45.4 49.0891 44.686C49.7331 43.93 50.5871 43.566 51.6791 43.566ZM51.6791 44.504C50.9091 44.504 50.3071 44.798 49.8871 45.386C49.4951 45.918 49.3131 46.576 49.3131 47.388C49.3131 48.186 49.4951 48.844 49.8871 49.376C50.3071 49.964 50.9091 50.258 51.6791 50.258C52.4351 50.258 53.0371 49.964 53.4851 49.376C53.8631 48.844 54.0591 48.172 54.0591 47.388C54.0591 46.576 53.8631 45.918 53.4851 45.386C53.0371 44.798 52.4351 44.504 51.6791 44.504ZM56.8723 40.808H57.9783V51H56.8723V40.808ZM60.1672 40.808H61.2732V51H60.1672V40.808ZM68.0402 41.004H71.6242C73.2062 41.004 74.3962 41.452 75.2082 42.376C75.9502 43.216 76.3282 44.434 76.3282 46.002C76.3282 47.542 75.9222 48.76 75.1242 49.628C74.2842 50.538 73.0802 51 71.5122 51H68.0402V41.004ZM69.1882 41.998V50.006H71.3162C72.6182 50.006 73.5982 49.656 74.2562 48.97C74.8722 48.298 75.1942 47.304 75.1942 46.002C75.1942 44.658 74.9002 43.664 74.3262 43.02C73.7102 42.334 72.7582 41.998 71.4422 41.998H69.1882ZM81.019 43.566C82.097 43.566 82.965 43.93 83.609 44.686C84.225 45.4 84.533 46.296 84.533 47.388C84.533 48.466 84.225 49.362 83.623 50.062C82.965 50.818 82.097 51.196 81.019 51.196C79.927 51.196 79.073 50.818 78.429 50.062C77.813 49.362 77.505 48.466 77.505 47.388C77.505 46.296 77.813 45.4 78.429 44.686C79.073 43.93 79.927 43.566 81.019 43.566ZM81.019 44.504C80.249 44.504 79.647 44.798 79.227 45.386C78.835 45.918 78.653 46.576 78.653 47.388C78.653 48.186 78.835 48.844 79.227 49.376C79.647 49.964 80.249 50.258 81.019 50.258C81.775 50.258 82.377 49.964 82.825 49.376C83.203 48.844 83.399 48.172 83.399 47.388C83.399 46.576 83.203 45.918 82.825 45.386C82.377 44.798 81.775 44.504 81.019 44.504ZM85.1901 43.762H86.4221L88.2001 49.628L89.8801 43.762H90.9301L92.6101 49.628L94.3881 43.762H95.6201L93.1561 51H92.0921L90.4121 45.176L88.7041 51H87.6541L85.1901 43.762ZM99.9445 43.566C101.736 43.566 102.646 44.56 102.646 46.548V51H101.526V46.632C101.526 45.218 100.882 44.518 99.6225 44.518C99.1185 44.518 98.6845 44.7 98.3205 45.064C97.9285 45.456 97.7185 45.974 97.6765 46.632V51H96.5565V43.762H97.6765V44.826C97.9285 44.42 98.2505 44.112 98.6425 43.902C99.0345 43.678 99.4685 43.566 99.9445 43.566ZM110.971 41.424V43.762H112.763V44.7H110.971V49.306C110.971 49.572 111.013 49.768 111.125 49.88C111.223 49.992 111.405 50.062 111.657 50.062H112.581V51H111.489C110.901 51 110.467 50.846 110.215 50.538C109.977 50.258 109.865 49.852 109.865 49.306V44.7H108.409V43.762H109.865V41.886L110.971 41.424ZM117.249 43.566C118.327 43.566 119.195 43.93 119.839 44.686C120.455 45.4 120.763 46.296 120.763 47.388C120.763 48.466 120.455 49.362 119.853 50.062C119.195 50.818 118.327 51.196 117.249 51.196C116.157 51.196 115.303 50.818 114.659 50.062C114.043 49.362 113.735 48.466 113.735 47.388C113.735 46.296 114.043 45.4 114.659 44.686C115.303 43.93 116.157 43.566 117.249 43.566ZM117.249 44.504C116.479 44.504 115.877 44.798 115.457 45.386C115.065 45.918 114.883 46.576 114.883 47.388C114.883 48.186 115.065 48.844 115.457 49.376C115.877 49.964 116.479 50.258 117.249 50.258C118.005 50.258 118.607 49.964 119.055 49.376C119.433 48.844 119.629 48.172 119.629 47.388C119.629 46.576 119.433 45.918 119.055 45.386C118.607 44.798 118.005 44.504 117.249 44.504ZM127.021 41.004H131.333C132.327 41.004 133.111 41.228 133.685 41.69C134.273 42.166 134.581 42.866 134.581 43.79C134.581 44.35 134.427 44.84 134.119 45.274C133.783 45.722 133.335 46.002 132.761 46.142V46.17C133.713 46.38 134.245 46.982 134.357 47.99L134.511 49.53C134.567 50.146 134.749 50.636 135.043 51H133.797C133.573 50.664 133.433 50.23 133.391 49.67L133.265 48.34C133.209 47.752 132.999 47.318 132.635 47.066C132.299 46.814 131.823 46.702 131.193 46.702H128.169V51H127.021V41.004ZM128.169 41.998V45.708H131.193C131.921 45.708 132.495 45.526 132.887 45.19C133.237 44.868 133.419 44.42 133.419 43.832C133.419 43.216 133.237 42.754 132.901 42.46C132.537 42.152 131.963 41.998 131.193 41.998H128.169ZM139.324 43.566C140.486 43.566 141.368 43.958 141.956 44.742C142.488 45.442 142.768 46.436 142.796 47.696H137.084C137.14 48.508 137.35 49.138 137.742 49.586C138.134 50.034 138.68 50.258 139.366 50.258C139.954 50.258 140.444 50.104 140.808 49.81C141.116 49.558 141.354 49.18 141.536 48.676H142.656C142.488 49.376 142.166 49.936 141.676 50.384C141.074 50.916 140.304 51.196 139.366 51.196C138.33 51.196 137.49 50.846 136.874 50.174C136.23 49.474 135.922 48.55 135.922 47.374C135.922 46.31 136.216 45.414 136.832 44.7C137.448 43.944 138.274 43.566 139.324 43.566ZM139.352 44.504C138.708 44.504 138.19 44.714 137.798 45.134C137.406 45.554 137.182 46.114 137.112 46.828H141.634C141.494 45.274 140.724 44.504 139.352 44.504ZM147.257 43.566C148.293 43.566 149.049 43.832 149.553 44.378C149.973 44.854 150.197 45.512 150.197 46.352V51H149.147V49.782C148.867 50.174 148.489 50.496 148.041 50.748C147.509 51.042 146.907 51.196 146.235 51.196C145.507 51.196 144.933 51.014 144.499 50.65C144.051 50.272 143.827 49.782 143.827 49.194C143.827 48.368 144.149 47.752 144.821 47.332C145.409 46.94 146.249 46.73 147.341 46.716L149.077 46.688V46.31C149.077 45.092 148.447 44.49 147.187 44.49C146.655 44.49 146.221 44.588 145.885 44.812C145.507 45.036 145.269 45.386 145.157 45.848L144.051 45.764C144.205 45.008 144.583 44.434 145.171 44.07C145.703 43.734 146.389 43.566 147.257 43.566ZM149.077 47.528L147.411 47.556C145.787 47.584 144.975 48.116 144.975 49.166C144.975 49.502 145.101 49.768 145.381 49.992C145.661 50.202 146.025 50.314 146.473 50.314C147.159 50.314 147.761 50.09 148.293 49.642C148.811 49.208 149.077 48.704 149.077 48.144V47.528ZM157.276 40.808H158.396V51H157.346V49.81C156.842 50.734 156.03 51.196 154.938 51.196C153.874 51.196 153.048 50.804 152.46 50.048C151.914 49.348 151.648 48.452 151.648 47.36C151.648 46.296 151.914 45.428 152.46 44.728C153.048 43.944 153.846 43.566 154.882 43.566C155.918 43.566 156.716 44.07 157.276 45.092V40.808ZM155.12 44.49C154.322 44.49 153.72 44.77 153.328 45.33C152.964 45.82 152.796 46.492 152.796 47.36C152.796 48.228 152.964 48.914 153.314 49.418C153.706 49.978 154.294 50.272 155.078 50.272C155.806 50.272 156.366 49.992 156.772 49.432C157.122 48.928 157.304 48.27 157.304 47.458V47.318C157.304 46.478 157.094 45.792 156.702 45.274C156.296 44.742 155.764 44.49 155.12 44.49ZM166.725 41.424V43.762H168.517V44.7H166.725V49.306C166.725 49.572 166.767 49.768 166.879 49.88C166.977 49.992 167.159 50.062 167.411 50.062H168.335V51H167.243C166.655 51 166.221 50.846 165.969 50.538C165.731 50.258 165.619 49.852 165.619 49.306V44.7H164.163V43.762H165.619V41.886L166.725 41.424ZM169.769 40.808H170.889V44.952C171.141 44.49 171.477 44.14 171.897 43.902C172.289 43.678 172.723 43.566 173.213 43.566C174.053 43.566 174.711 43.804 175.159 44.308C175.607 44.798 175.831 45.512 175.831 46.436V51H174.711V46.604C174.711 45.932 174.543 45.414 174.235 45.05C173.899 44.686 173.437 44.504 172.835 44.504C172.275 44.504 171.813 44.728 171.449 45.176C171.071 45.624 170.889 46.198 170.889 46.87V51H169.769V40.808ZM180.531 43.566C181.693 43.566 182.575 43.958 183.163 44.742C183.695 45.442 183.975 46.436 184.003 47.696H178.291C178.347 48.508 178.557 49.138 178.949 49.586C179.341 50.034 179.887 50.258 180.573 50.258C181.161 50.258 181.651 50.104 182.015 49.81C182.323 49.558 182.561 49.18 182.743 48.676H183.863C183.695 49.376 183.373 49.936 182.883 50.384C182.281 50.916 181.511 51.196 180.573 51.196C179.537 51.196 178.697 50.846 178.081 50.174C177.437 49.474 177.129 48.55 177.129 47.374C177.129 46.31 177.423 45.414 178.039 44.7C178.655 43.944 179.481 43.566 180.531 43.566ZM180.559 44.504C179.915 44.504 179.397 44.714 179.005 45.134C178.613 45.554 178.389 46.114 178.319 46.828H182.841C182.701 45.274 181.931 44.504 180.559 44.504ZM189.346 41.004H197.536V41.998H194.008V51H192.874V41.998H189.346V41.004ZM201.626 43.566C202.788 43.566 203.67 43.958 204.258 44.742C204.79 45.442 205.07 46.436 205.098 47.696H199.386C199.442 48.508 199.652 49.138 200.044 49.586C200.436 50.034 200.982 50.258 201.668 50.258C202.256 50.258 202.746 50.104 203.11 49.81C203.418 49.558 203.656 49.18 203.838 48.676H204.958C204.79 49.376 204.468 49.936 203.978 50.384C203.376 50.916 202.606 51.196 201.668 51.196C200.632 51.196 199.792 50.846 199.176 50.174C198.532 49.474 198.224 48.55 198.224 47.374C198.224 46.31 198.518 45.414 199.134 44.7C199.75 43.944 200.576 43.566 201.626 43.566ZM201.654 44.504C201.01 44.504 200.492 44.714 200.1 45.134C199.708 45.554 199.484 46.114 199.414 46.828H203.936C203.796 45.274 203.026 44.504 201.654 44.504ZM209.588 43.566C209.98 43.566 210.316 43.622 210.582 43.734V44.854C210.218 44.742 209.854 44.7 209.504 44.7C208.944 44.7 208.468 44.938 208.09 45.442C207.698 45.918 207.516 46.492 207.516 47.164V51H206.41V43.762H207.516V45.022C207.712 44.602 207.964 44.266 208.272 44.028C208.65 43.72 209.084 43.566 209.588 43.566ZM214.687 43.566C215.793 43.566 216.549 44.014 216.955 44.938C217.235 44.462 217.571 44.112 217.963 43.902C218.313 43.678 218.733 43.566 219.237 43.566C219.993 43.566 220.595 43.804 221.071 44.28C221.519 44.77 221.757 45.428 221.757 46.254V51H220.637V46.436C220.637 45.792 220.497 45.316 220.231 45.008C219.951 44.672 219.503 44.518 218.887 44.518C218.411 44.518 218.005 44.686 217.697 45.05C217.361 45.414 217.207 45.876 217.207 46.464V51H216.087V46.436C216.087 45.148 215.527 44.518 214.421 44.518C213.903 44.518 213.483 44.714 213.147 45.134C212.811 45.526 212.643 46.016 212.643 46.59V51H211.523V43.762H212.643V44.728C213.189 43.944 213.875 43.566 214.687 43.566ZM226.062 43.566C227.854 43.566 228.834 44.308 229.03 45.82H227.938C227.84 45.372 227.658 45.036 227.378 44.84C227.07 44.616 226.622 44.504 226.048 44.504C225.544 44.504 225.152 44.588 224.872 44.784C224.564 44.966 224.41 45.218 224.41 45.54C224.41 45.848 224.606 46.114 225.026 46.324C225.292 46.45 225.796 46.604 226.524 46.8C227.392 47.01 228.008 47.234 228.386 47.472C228.96 47.836 229.254 48.326 229.254 48.956C229.254 50.44 228.232 51.196 226.188 51.196C224.284 51.196 223.248 50.356 223.08 48.69H224.172C224.256 49.264 224.466 49.67 224.774 49.922C225.082 50.146 225.544 50.258 226.16 50.258C227.448 50.258 228.106 49.838 228.106 49.026C228.106 48.62 227.868 48.312 227.42 48.088C227.182 47.976 226.664 47.822 225.88 47.626C225.026 47.416 224.424 47.206 224.088 46.982C223.528 46.646 223.262 46.184 223.262 45.568C223.262 44.952 223.528 44.476 224.074 44.112C224.578 43.748 225.25 43.566 226.062 43.566Z" fill="#00A19B"/>
</g>
<defs>
<filter id="filter0_d_2267_1282" x="0" y="0" width="251" height="99" filterUnits="userSpaceOnUse" color-interpolation-filters="sRGB">
<feFlood flood-opacity="0" result="BackgroundImageFix"/>
<feColorMatrix in="SourceAlpha" type="matrix" values="0 0 0 0 0 0 0 0 0 0 0 0 0 0 0 0 0 0 127 0" result="hardAlpha"/>
<feMorphology radius="2" operator="dilate" in="SourceAlpha" result="effect1_dropShadow_2267_1282"/>
<feOffset/>
<feGaussianBlur stdDeviation="2"/>
<feComposite in2="hardAlpha" operator="out"/>
<feColorMatrix type="matrix" values="0 0 0 0 0.85098 0 0 0 0 0.85098 0 0 0 0 0.85098 0 0 0 1 0"/>
<feBlend mode="normal" in2="BackgroundImageFix" result="effect1_dropShadow_2267_1282"/>
<feBlend mode="normal" in="SourceGraphic" in2="effect1_dropShadow_2267_1282" result="shape"/>
</filter>
</defs>
</svg>
