<svg width="936" height="487" viewBox="0 0 936 487" fill="none" xmlns="http://www.w3.org/2000/svg">
<rect width="936" height="487" fill="#1C1C1C" fill-opacity="0.5"/>
<g filter="url(#filter0_d_2747_134)">
<rect x="64" y="77" width="800" height="329" rx="4" fill="white" shape-rendering="crispEdges"/>
<g clip-path="url(#clip0_2747_134)">
<mask id="mask0_2747_134" style="mask-type:luminance" maskUnits="userSpaceOnUse" x="432" y="97" width="64" height="64">
<path d="M496 97H432V161H496V97Z" fill="white"/>
</mask>
<g mask="url(#mask0_2747_134)">
<path d="M464 146.467C464.994 146.467 465.8 145.661 465.8 144.667C465.8 143.673 464.994 142.867 464 142.867C463.006 142.867 462.2 143.673 462.2 144.667C462.2 145.661 463.006 146.467 464 146.467Z" fill="#00A19B"/>
<path d="M464 140.667C463.267 140.667 462.667 140.067 462.667 139.333V132.233C462.667 131.5 463.267 130.9 464 130.9C468.4 130.9 472 127.3 472 122.9C472 118.5 468.4 114.9 464 114.9C459.6 114.9 456 118.5 456 122.9C456 123.533 456.067 124.2 456.233 124.8C456.4 125.533 455.967 126.233 455.267 126.4C454.533 126.567 453.833 126.133 453.667 125.433C453.467 124.6 453.367 123.767 453.367 122.9C453.367 117.033 458.167 112.233 464.033 112.233C469.9 112.233 474.7 117.033 474.7 122.9C474.7 128.333 470.633 132.833 465.367 133.5V139.333C465.333 140.067 464.733 140.667 464 140.667Z" fill="#00A19B"/>
<path d="M464 154.667C450.033 154.667 438.667 143.3 438.667 129.333C438.667 115.367 450.033 104 464 104C477.967 104 489.333 115.367 489.333 129.333C489.333 143.3 477.967 154.667 464 154.667ZM464 106.667C451.5 106.667 441.333 116.833 441.333 129.333C441.333 141.833 451.5 152 464 152C476.5 152 486.667 141.833 486.667 129.333C486.667 116.833 476.5 106.667 464 106.667Z" fill="#00A19B"/>
</g>
</g>
<path d="M395.864 193.544C395.12 194.336 394.304 195.128 393.44 195.92L392.744 193.616C395.576 190.976 397.472 188.432 398.456 185.96H393.272V183.896H396.224C395.888 182.84 395.504 181.832 395.072 180.872L397.28 180.272C397.784 181.616 398.168 182.816 398.432 183.896H400.664V185.744C400.112 187.472 399.248 189.152 398.072 190.832V190.952C398.312 191.12 398.528 191.288 398.768 191.48C399.368 190.952 399.944 190.184 400.52 189.224L401.816 190.496C401.264 191.36 400.664 192.056 400.04 192.584C400.616 193.088 401.144 193.616 401.624 194.192L400.424 196.088C399.632 194.936 398.84 193.976 398.072 193.184V202.496H395.864V193.544ZM401.456 183.008H407.096V180.392H409.256V183.008H412.016C411.608 182.408 411.128 181.784 410.6 181.112L412.16 180.152C412.88 180.992 413.432 181.736 413.816 182.384L412.952 183.008H415.064V185.12H409.256V186.944H414.224V199.976C414.224 201.536 413.48 202.328 412.04 202.328H410.456L409.88 200.264L411.368 200.336C411.848 200.336 412.112 200.048 412.112 199.496V197.36H409.256V202.352H407.096V197.36H404.336V202.424H402.224V186.944H407.096V185.12H401.456V183.008ZM407.096 189.008H404.336V191.168H407.096V189.008ZM404.336 193.16V195.392H407.096V193.16H404.336ZM412.112 195.392V193.16H409.256V195.392H412.112ZM412.112 191.168V189.008H409.256V191.168H412.112ZM432.92 186.056C434.84 188.528 436.328 190.688 437.36 192.536L435.488 193.832C435.032 193.016 434.528 192.176 433.976 191.312C433.064 191.432 432.152 191.552 431.24 191.648V198.992C431.24 199.616 431.552 199.928 432.224 199.928H434.84C435.176 199.928 435.488 199.808 435.776 199.568C436.064 199.304 436.28 198.224 436.4 196.352L438.56 197.024C438.32 199.52 437.96 200.984 437.504 201.416C436.976 201.848 436.304 202.064 435.44 202.112H431.552C429.824 202.112 428.984 201.2 428.984 199.376V191.888L426.008 192.176C425.768 194.912 425.216 196.928 424.4 198.224C423.392 199.808 421.688 201.2 419.312 202.352L417.848 200.528C419.936 199.592 421.424 198.488 422.336 197.216C423.056 196.16 423.512 194.552 423.704 192.368C422.552 192.464 421.4 192.536 420.248 192.608L419.72 190.52C420.032 190.472 420.296 190.4 420.536 190.304C421.544 189.584 422.888 187.856 424.52 185.12H418.064V182.984H425.744C426.2 182.168 426.68 181.28 427.184 180.344L429.368 181.184C429.008 181.808 428.648 182.408 428.312 182.984H437.96V185.12H427.016C425.624 187.352 424.376 189.128 423.272 190.448C426.44 190.184 429.608 189.872 432.752 189.512C432.224 188.744 431.648 187.976 431.072 187.208L432.92 186.056ZM452.216 183.416C451.472 184.4 450.56 185.288 449.48 186.056L448.232 184.4C449.912 183.248 451.064 181.856 451.688 180.176L453.776 180.416C453.632 180.8 453.488 181.184 453.32 181.544H461.744V183.128C461.12 184.4 460.424 185.456 459.68 186.272L458.12 185.048C458.576 184.568 458.984 184.04 459.368 183.416H452.216ZM441.896 181.568H447.848V183.488H441.896V181.568ZM441.416 185.888H448.352V187.832H441.416V185.888ZM454.664 183.632L456.584 184.016C456.488 184.352 456.392 184.664 456.272 184.976C457.976 186.56 460.136 187.52 462.728 187.832L461.792 189.704C461.144 189.608 460.52 189.464 459.944 189.272V199.112H455.192C457.76 199.52 460.232 200.096 462.608 200.84L461.864 202.64C459.32 201.728 456.632 201.032 453.848 200.552L454.592 199.112H449.072L450.056 200.384C448.28 201.32 445.736 202.064 442.424 202.616L441.392 200.864C444.464 200.384 446.816 199.808 448.496 199.112H444.08V189.2H449.864L448.952 187.808C452.168 187.232 454.064 185.84 454.664 183.632ZM451.016 189.2H459.728C458.072 188.624 456.632 187.736 455.384 186.512C454.376 187.76 452.936 188.672 451.016 189.2ZM457.712 197.288V196.112H446.312V197.288H457.712ZM446.312 194.624H457.712V193.568H446.312V194.624ZM446.312 192.056H457.712V190.928H446.312V192.056ZM473.816 189.992H476.48V183.44H473.888V181.256H484.088V189.008C484.088 193.568 484.28 196.712 484.688 198.44C484.856 199.184 485.024 199.568 485.168 199.568C485.216 199.568 485.288 199.232 485.384 198.584C485.432 197.912 485.456 197.12 485.456 196.184L487.232 197.048C487.136 199.352 486.92 200.816 486.584 201.488C486.344 201.944 486.032 202.184 485.672 202.184C484.784 202.184 484.04 201.632 483.44 200.552C482.384 198.656 481.856 194.816 481.856 189.008V183.44H478.688V189.992H481.352V192.176H478.688V202.352H476.48V192.176H473.816V189.992ZM465.104 183.2H468.344C468.056 182.384 467.72 181.592 467.36 180.848L469.544 180.248C469.976 181.328 470.288 182.312 470.48 183.2H473.408V185.312H465.104V183.2ZM465.944 186.776H472.52V188.768H465.944V186.776ZM465.944 190.112H472.52V192.128H465.944V190.112ZM472.736 193.688V202.088H470.648V201.056H467.816V202.28H465.728V193.688H472.736ZM467.816 198.992H470.648V195.752H467.816V198.992ZM494.528 190.304V202.424H492.392V190.832C491.72 192.872 490.856 194.744 489.848 196.472L488.864 193.952C490.424 191.792 491.552 189.344 492.248 186.584H489.632V184.472H492.392V180.32H494.528V184.472H496.952V186.584H494.528V187.76C495.536 188.888 496.544 190.136 497.552 191.48L496.232 193.472C495.584 192.2 495.008 191.144 494.528 190.304ZM497.768 184.4H501.248V182.984H497.216V181.064H510.656V182.984H506.816V184.4H510.296V190.28H497.768V184.4ZM504.944 182.984H503.144V184.4H504.944V182.984ZM508.328 188.552V186.128H506.648V188.552H508.328ZM504.92 188.552V186.128H503.168V188.552H504.92ZM501.44 188.552V186.128H499.736V188.552H501.44ZM498.464 191.432H509.744V193.352H498.464V191.432ZM497.36 194.552H510.704V196.472H504.944V202.352H502.832V196.472H497.36V194.552ZM499.928 197.072L501.368 198.32C500.312 199.856 499.04 201.176 497.504 202.328L496.232 200.648C497.672 199.64 498.92 198.44 499.928 197.072ZM507.752 197.096C509.12 198.32 510.272 199.544 511.208 200.744L509.72 202.208C508.928 201.056 507.824 199.784 506.384 198.44L507.752 197.096ZM529.16 199.976C531.776 199.976 533.72 199.928 535.016 199.832L534.632 202.088H529.664C523.976 202.088 520.424 201.776 519.008 201.176C517.856 200.696 516.848 199.856 515.96 198.68C515.552 200.024 515 201.296 514.328 202.472L512.72 201.056C513.92 198.944 514.592 196.568 514.712 193.976L516.68 194.216C516.632 194.984 516.56 195.752 516.464 196.472C516.968 197.192 517.496 197.792 518.072 198.272V192.992H513.512V190.976H523.544V192.992H520.064V195.176H523.136V197.216H520.064V199.352C520.088 199.352 520.112 199.376 520.136 199.376C521.432 199.76 524.456 199.976 529.16 199.976ZM514.64 181.112H522.752V189.8H514.64V181.112ZM520.64 187.928V186.32H516.776V187.928H520.64ZM516.776 184.592H520.64V182.984H516.776V184.592ZM524.672 184.496H527.504C527.648 184.04 527.744 183.584 527.84 183.104H523.976V181.136H534.536V183.104H530.048C529.952 183.584 529.832 184.04 529.688 184.496H533.72V195.752H531.464C532.664 196.52 533.696 197.264 534.56 198.032L533.168 199.448C532.352 198.584 531.2 197.672 529.712 196.712L530.72 195.752H527.24L528.464 196.808C527.432 197.816 526.16 198.728 524.672 199.52L523.496 197.984C524.792 197.336 525.896 196.592 526.808 195.752H524.672V184.496ZM531.68 193.976V192.464H526.736V193.976H531.68ZM526.736 190.784H531.68V189.464H526.736V190.784ZM526.736 187.784H531.68V186.272H526.736V187.784Z" fill="#00A19B"/>
<path d="M125.52 254.424V260.504H124.416V259.624H117.648V260.568H116.544V255.304C115.568 256.152 114.448 256.856 113.184 257.432L112.656 256.472C114.96 255.416 116.688 253.992 117.84 252.2H113.168V251.16H118.416C118.736 250.52 118.976 249.832 119.168 249.128L120.24 249.256C120.048 249.928 119.824 250.552 119.568 251.16H127.072V252.2H119.056C118.592 253.016 118.064 253.752 117.456 254.424H125.52ZM117.648 258.552H124.416V255.48H117.648V258.552ZM113.104 247.32H116.576V245.896H117.68V247.32H119.632V248.376H117.68V249.976H116.576V248.376H113.104V247.32ZM122.336 245.896H123.44V247.32H126.912V248.376H123.44V249.976H122.336V248.376H120.368V247.32H122.336V245.896ZM130.752 250.216C130.304 250.76 129.824 251.256 129.312 251.704L128.576 250.824C130.016 249.576 131.216 247.944 132.144 245.912L133.264 246.152C132.848 247.08 132.384 247.928 131.872 248.712V254.84H130.752V250.216ZM135.744 245.896L136.832 246.136C136.64 246.568 136.432 246.984 136.24 247.368H142.656V248.088C142.448 248.888 142.192 249.672 141.872 250.44L140.832 250.168C141.104 249.64 141.328 249.064 141.504 248.424H135.6C134.992 249.352 134.304 250.152 133.536 250.856L132.832 249.992C134.016 248.936 134.992 247.576 135.744 245.896ZM130.464 255.656L131.584 255.88C131.2 257.432 130.672 258.776 129.984 259.912L129.024 259.288C129.68 258.184 130.16 256.968 130.464 255.656ZM138.288 260.36H134.224C133.264 260.36 132.784 259.848 132.784 258.824V255.448H133.952V258.584C133.952 259.032 134.16 259.272 134.576 259.272H138.08C138.416 259.272 138.656 259.176 138.8 258.984C138.992 258.76 139.12 258.12 139.184 257.064L140.272 257.416C140.16 258.824 139.936 259.672 139.616 259.976C139.328 260.232 138.896 260.36 138.288 260.36ZM141.072 255.16C142.096 256.568 142.88 257.8 143.424 258.856L142.464 259.528C141.888 258.376 141.12 257.112 140.128 255.736L141.072 255.16ZM135.312 250.696L136.24 251.128C135.632 252.36 134.928 253.432 134.128 254.328L133.248 253.72C134.048 252.856 134.736 251.848 135.312 250.696ZM140.672 250.68C141.408 251.64 142.08 252.712 142.656 253.896L141.68 254.392C141.072 253.144 140.416 252.056 139.696 251.096L140.672 250.68ZM136.112 255.016C136.912 255.928 137.536 256.728 137.952 257.416L137.04 258.04C136.592 257.304 135.984 256.472 135.216 255.576L136.112 255.016ZM137.376 249.176H138.528V254.872H137.376V249.176ZM156.336 251.496V247.128H157.488V252.616H152.592V258.488H157.104V254.12H158.272V260.488H157.104V259.592H146.896V260.488H145.728V254.12H146.896V258.488H151.408V252.616H146.512V247.128H147.664V251.496H151.408V245.912H152.592V251.496H156.336ZM163.856 250.024C163.216 251.48 162.4 252.696 161.408 253.688L160.672 252.744C162.176 251.176 163.2 249.048 163.728 246.376L164.896 246.584C164.72 247.416 164.512 248.184 164.272 248.904H167.696V246.056H168.864V248.904H174.128V250.024H168.864V253.72H173.808V254.84H168.864V258.904H175.152V260.056H161.056V258.904H167.696V254.84H162.992V253.72H167.696V250.024H163.856ZM186.272 245.928H187.376V249.656L190.736 248.664C190.704 250.648 190.464 252.76 190.016 254.984L188.96 254.664C189.264 253.256 189.488 251.752 189.632 250.12L187.376 250.792V257.16H186.272V251.112L184.224 251.72V258.392C184.224 258.936 184.48 259.224 184.992 259.224H189.104C189.456 259.224 189.696 259.112 189.84 258.888C190.032 258.616 190.144 257.816 190.208 256.504L191.28 256.84C191.168 258.488 190.96 259.496 190.64 259.848C190.352 260.152 189.92 260.312 189.312 260.312H184.64C183.616 260.312 183.12 259.736 183.12 258.616V252.056L181.968 252.392V251.272L183.12 250.936V247.56H184.224V250.6L186.272 249.992V245.928ZM176.848 250.248H178.736V245.992H179.888V250.248H181.68V251.368H179.888V256.632C180.608 256.376 181.312 256.104 182 255.784V256.92C180.432 257.624 178.752 258.216 176.928 258.696L176.64 257.544C177.344 257.384 178.048 257.208 178.736 257.016V251.368H176.848V250.248ZM198.752 251.272C199.36 251.688 199.968 252.232 200.592 252.872C201.12 253.416 201.584 253.976 201.968 254.52L201.168 255.192C200.784 254.648 200.32 254.088 199.808 253.544C199.216 252.92 198.624 252.392 198.032 251.944L198.752 251.272ZM222.624 246.584V260.6H221.488V259.896H210.512V260.6H209.376V246.584H222.624ZM210.512 258.824H221.488V247.64H210.512V258.824ZM211.344 249.4H216.432C216.416 248.952 216.416 248.488 216.416 248.024H217.456C217.456 248.504 217.456 248.952 217.472 249.4H218.944C218.768 248.984 218.576 248.6 218.384 248.248L219.296 248.104C219.472 248.488 219.648 248.92 219.824 249.4H220.784V250.44H217.504C217.536 251.736 217.632 252.792 217.776 253.608C217.824 253.96 217.888 254.296 217.952 254.6C218.448 253.64 218.864 252.52 219.216 251.256L220.08 251.704C219.584 253.4 218.992 254.824 218.288 255.944L218.464 256.376C218.736 256.952 218.992 257.256 219.232 257.256C219.504 257.256 219.792 256.552 220.112 255.16L220.944 255.64C220.496 257.416 219.968 258.312 219.328 258.312C218.848 258.312 218.4 257.976 217.952 257.304C217.856 257.144 217.76 256.968 217.696 256.808C217.152 257.48 216.576 258.024 215.968 258.44L215.392 257.576C216.096 257.112 216.72 256.504 217.264 255.736C217.104 255.256 216.96 254.744 216.848 254.168C216.656 253.192 216.528 251.944 216.464 250.44H211.344V249.4ZM211.808 251.56H215.632V254.936H211.808V251.56ZM214.672 254.088V252.408H212.768V254.088H214.672ZM215.728 255.784V256.696C214.48 256.984 213.072 257.24 211.488 257.432L211.344 256.424C213.008 256.264 214.48 256.056 215.728 255.784ZM231.696 250.584H233.184V249.448H234.192V250.584H236.048V249.448H237.072V250.584H238.528V251.576H237.072V253H238.976V253.992H231.312V253H233.184V251.576H231.696V250.584ZM234.192 253H236.048V251.576H234.192V253ZM238.208 254.824V260.616H237.168V259.96H233.248V260.616H232.192V254.824H238.208ZM233.248 259H237.168V257.816H233.248V259ZM233.248 256.936H237.168V255.784H233.248V256.936ZM227.232 247.864C226.816 248.472 226.336 249.032 225.792 249.544L224.848 248.952C225.904 248.024 226.656 246.984 227.136 245.848L228.192 246.088C228.064 246.36 227.952 246.616 227.824 246.872H231.76V247.864H229.696C230 248.232 230.24 248.584 230.432 248.92L229.456 249.272C229.184 248.792 228.864 248.312 228.512 247.864H227.232ZM233.792 247.864C233.472 248.344 233.136 248.792 232.752 249.208L231.792 248.6C232.64 247.752 233.264 246.808 233.648 245.784L234.704 246.008C234.576 246.312 234.464 246.6 234.336 246.872H239.088V247.864H235.984C236.272 248.232 236.512 248.584 236.704 248.92L235.728 249.288C235.472 248.792 235.152 248.312 234.8 247.864H233.792ZM225.616 252.424H227.744V251.384C227.072 251.448 226.352 251.496 225.584 251.528L225.312 250.648C226.208 250.616 227.024 250.568 227.744 250.504V249.336H228.784V250.392C229.552 250.296 230.176 250.168 230.688 250.024L231.008 250.936C230.416 251.064 229.68 251.192 228.784 251.288V252.424H230.704V253.352H228.784V254.488H231.072V255.432H228.784V255.928C229.664 256.456 230.56 257.064 231.472 257.768L230.864 258.68C230.048 257.896 229.36 257.272 228.784 256.808V260.6H227.744V256.536C227.04 257.64 226.112 258.632 224.96 259.512L224.544 258.424C225.952 257.544 226.992 256.552 227.632 255.432H225.2V254.488H227.744V253.352H225.616V252.424ZM249.264 245.944H250.432V248.472H254.896V249.576H250.432V252.056H254.544V253.176H250.432V255.72H255.152V256.824H250.432V260.6H249.264V245.944ZM241.088 248.472H245.568V245.944H246.704V253.736C246.672 256.872 245.776 259.16 244.016 260.6L243.136 259.816C244.192 258.984 244.896 257.816 245.264 256.344C243.92 256.696 242.496 256.984 240.992 257.24L240.72 256.088C242.368 255.896 243.952 255.624 245.472 255.24C245.536 254.76 245.568 254.248 245.568 253.736V253.176H241.456V252.056H245.568V249.576H241.088V248.472ZM263.408 245.864H264.592V248.744H270.336V256.264H269.184V255.256H264.592V260.712H263.408V255.256H258.832V256.264H257.68V248.744H263.408V245.864ZM258.832 254.136H263.408V249.864H258.832V254.136ZM264.592 254.136H269.184V249.864H264.592V254.136ZM274.048 249.624H286.016V250.632H280.576V255.176H286.704V256.184H280.576V257.672H285.904V258.696H280.576V260.6H279.456V258.696H274.112V257.672H279.456V256.184H273.312V255.176H279.456V250.632H274.048V249.624ZM275.408 251.192H276.528V252.392H278.336V253.368H276.528V254.648H275.408V253.368H273.44V252.392H275.408V251.192ZM283.472 251.192H284.592V252.392H286.576V253.368H284.592V254.648H283.472V253.368H281.664V252.392H283.472V251.192ZM273.088 247H276.56V245.912H277.696V247H279.632V248.04H277.696V249.064H276.56V248.04H273.088V247ZM282.32 245.912H283.456V247H286.912V248.04H283.456V249.064H282.32V248.04H280.368V247H282.32V245.912ZM291.552 254.6V258.984C292.96 258.696 294.368 258.296 295.76 257.816L296.032 258.92C294.528 259.4 292.624 259.88 290.352 260.328L290.048 259.256C290.272 259.128 290.4 258.936 290.4 258.68V246.536H301.84V251.24H297.328C297.392 252.072 297.504 252.808 297.632 253.48H302.848V254.6H297.888C298 255.032 298.128 255.432 298.288 255.8C298.816 257 299.376 257.88 299.952 258.424C300.512 258.92 301.024 259.176 301.488 259.192C301.664 259.192 301.824 259.032 301.968 258.744C302.128 258.424 302.256 257.72 302.352 256.632L303.376 257.192C303.184 258.536 302.944 259.416 302.672 259.8C302.416 260.2 302.096 260.408 301.728 260.424C300.992 260.408 300.224 260.04 299.424 259.32C298.624 258.584 297.936 257.544 297.328 256.168C297.12 255.688 296.944 255.16 296.784 254.6H291.552ZM296.176 251.24H291.552V253.48H296.528C296.368 252.776 296.256 252.024 296.176 251.24ZM300.72 247.64H291.552V250.152H300.72V247.64ZM318.624 246.584V260.6H317.488V259.896H306.512V260.6H305.376V246.584H318.624ZM306.512 258.824H317.488V247.64H306.512V258.824ZM307.344 249.4H312.432C312.416 248.952 312.416 248.488 312.416 248.024H313.456C313.456 248.504 313.456 248.952 313.472 249.4H314.944C314.768 248.984 314.576 248.6 314.384 248.248L315.296 248.104C315.472 248.488 315.648 248.92 315.824 249.4H316.784V250.44H313.504C313.536 251.736 313.632 252.792 313.776 253.608C313.824 253.96 313.888 254.296 313.952 254.6C314.448 253.64 314.864 252.52 315.216 251.256L316.08 251.704C315.584 253.4 314.992 254.824 314.288 255.944L314.464 256.376C314.736 256.952 314.992 257.256 315.232 257.256C315.504 257.256 315.792 256.552 316.112 255.16L316.944 255.64C316.496 257.416 315.968 258.312 315.328 258.312C314.848 258.312 314.4 257.976 313.952 257.304C313.856 257.144 313.76 256.968 313.696 256.808C313.152 257.48 312.576 258.024 311.968 258.44L311.392 257.576C312.096 257.112 312.72 256.504 313.264 255.736C313.104 255.256 312.96 254.744 312.848 254.168C312.656 253.192 312.528 251.944 312.464 250.44H307.344V249.4ZM307.808 251.56H311.632V254.936H307.808V251.56ZM310.672 254.088V252.408H308.768V254.088H310.672ZM311.728 255.784V256.696C310.48 256.984 309.072 257.24 307.488 257.432L307.344 256.424C309.008 256.264 310.48 256.056 311.728 255.784ZM327.984 252.136C328.336 252.136 328.624 252.28 328.848 252.584C329.056 252.872 329.168 253.24 329.168 253.704C329.168 254.408 328.96 255.032 328.544 255.576C328.128 256.088 327.568 256.44 326.896 256.616V255.832C327.312 255.688 327.648 255.448 327.92 255.128C328.144 254.792 328.256 254.44 328.256 254.056C328.192 254.088 328.064 254.12 327.904 254.12C327.632 254.12 327.408 254.024 327.216 253.832C327.024 253.64 326.944 253.4 326.944 253.128C326.944 252.824 327.04 252.584 327.232 252.408C327.408 252.216 327.664 252.136 327.984 252.136ZM337.696 250.792H343.568V255.672H337.696V250.792ZM342.432 254.632V251.864H338.848V254.632H342.432ZM344.064 256.584V257.704C341.936 258.28 339.632 258.776 337.168 259.176L336.88 258.04C339.376 257.72 341.76 257.24 344.064 256.584ZM349.456 260.552C348.656 260.536 347.904 260.024 347.168 259C346.944 258.696 346.752 258.376 346.592 258.04C345.696 259.128 344.704 259.992 343.632 260.632L343.008 259.64C344.144 258.952 345.168 258.024 346.064 256.84C345.84 256.232 345.664 255.576 345.504 254.872C345.136 253.24 344.944 251.32 344.928 249.112H336.88V247.992H344.928V245.944H346.08V247.992H348.432C348.16 247.416 347.856 246.872 347.536 246.392L348.704 246.2C348.992 246.728 349.28 247.32 349.552 247.992H351.104V249.112H346.096C346.128 251.064 346.272 252.792 346.544 254.296C346.64 254.792 346.736 255.256 346.864 255.688C347.76 254.216 348.512 252.472 349.12 250.456L350.128 251C349.376 253.416 348.448 255.432 347.328 257.064C347.488 257.432 347.648 257.768 347.824 258.056C348.384 258.888 348.88 259.304 349.328 259.304C349.712 259.304 350.048 258.392 350.32 256.568L351.312 257.224C350.88 259.432 350.256 260.552 349.456 260.552ZM364.8 246.552V256.344H367.104V257.416H362.272C363.92 258.024 365.424 258.76 366.768 259.608L366.128 260.584C364.624 259.592 363.088 258.792 361.52 258.216L362.064 257.416H357.584L358.416 258.136C357.2 259.08 355.712 259.912 353.92 260.616L353.216 259.704C354.944 259.032 356.384 258.28 357.552 257.416H352.896V256.344H355.2V246.552H364.8ZM356.368 256.344H363.632V254.84H356.368V256.344ZM356.368 253.912H363.632V252.44H356.368V253.912ZM356.368 251.496H363.632V250.008H356.368V251.496ZM356.368 249.096H363.632V247.64H356.368V249.096ZM373.584 254.44V255.864C373.584 255.96 373.568 256.04 373.568 256.136H379.952V254.44H373.584ZM379.952 253.432V251.688H373.584V253.432H379.952ZM373.488 257.144C373.264 258.52 372.72 259.688 371.872 260.616L371.024 259.848C371.984 258.824 372.48 257.528 372.512 255.928V252.2C371.616 253.304 370.592 254.328 369.424 255.272L368.688 254.312C370.688 252.712 372.24 250.888 373.344 248.808H369.104V247.704H373.872C374.144 247.08 374.384 246.456 374.576 245.832L375.744 245.96C375.568 246.568 375.36 247.144 375.136 247.704H383.088V248.808H374.656C374.336 249.448 373.984 250.072 373.6 250.68H381.056V259.24C381.056 260.104 380.576 260.536 379.648 260.536H377.968L377.696 259.496C378.272 259.528 378.816 259.544 379.312 259.544C379.728 259.544 379.952 259.304 379.952 258.856V257.144H373.488ZM385.536 247.544H389.152C388.928 247 388.672 246.504 388.4 246.056L389.584 245.864C389.84 246.36 390.096 246.92 390.32 247.544H393.728C394.016 246.968 394.224 246.392 394.368 245.8L395.568 245.96C395.408 246.52 395.184 247.048 394.896 247.544H398.464V248.6H392.576V250.136H397.616V251.128H392.576V252.696H398.992V253.752H385.008V252.696H391.424V251.128H386.432V250.136H391.424V248.6H385.536V247.544ZM391.6 254.2L392.736 254.328C392.672 254.728 392.592 255.112 392.496 255.48H398.64V256.536H392.096C391.728 257.272 391.232 257.928 390.624 258.488C389.584 259.416 387.744 260.152 385.12 260.696L384.64 259.576C386.976 259.16 388.672 258.536 389.696 257.72C390.112 257.368 390.48 256.984 390.768 256.536H385.376V255.48H391.28C391.424 255.064 391.536 254.648 391.6 254.2ZM393.12 257.144C395.408 257.848 397.488 258.712 399.36 259.72L398.704 260.712C396.688 259.592 394.624 258.696 392.512 258.056L393.12 257.144ZM414.624 246.584V260.6H413.488V259.896H402.512V260.6H401.376V246.584H414.624ZM402.512 258.824H413.488V247.64H402.512V258.824ZM403.344 249.4H408.432C408.416 248.952 408.416 248.488 408.416 248.024H409.456C409.456 248.504 409.456 248.952 409.472 249.4H410.944C410.768 248.984 410.576 248.6 410.384 248.248L411.296 248.104C411.472 248.488 411.648 248.92 411.824 249.4H412.784V250.44H409.504C409.536 251.736 409.632 252.792 409.776 253.608C409.824 253.96 409.888 254.296 409.952 254.6C410.448 253.64 410.864 252.52 411.216 251.256L412.08 251.704C411.584 253.4 410.992 254.824 410.288 255.944L410.464 256.376C410.736 256.952 410.992 257.256 411.232 257.256C411.504 257.256 411.792 256.552 412.112 255.16L412.944 255.64C412.496 257.416 411.968 258.312 411.328 258.312C410.848 258.312 410.4 257.976 409.952 257.304C409.856 257.144 409.76 256.968 409.696 256.808C409.152 257.48 408.576 258.024 407.968 258.44L407.392 257.576C408.096 257.112 408.72 256.504 409.264 255.736C409.104 255.256 408.96 254.744 408.848 254.168C408.656 253.192 408.528 251.944 408.464 250.44H403.344V249.4ZM403.808 251.56H407.632V254.936H403.808V251.56ZM406.672 254.088V252.408H404.768V254.088H406.672ZM407.728 255.784V256.696C406.48 256.984 405.072 257.24 403.488 257.432L403.344 256.424C405.008 256.264 406.48 256.056 407.728 255.784ZM422.752 251.272C423.36 251.688 423.968 252.232 424.592 252.872C425.12 253.416 425.584 253.976 425.968 254.52L425.168 255.192C424.784 254.648 424.32 254.088 423.808 253.544C423.216 252.92 422.624 252.392 422.032 251.944L422.752 251.272ZM433.12 247.336H435.824V245.864H436.992V247.336H443.008V245.864H444.176V247.336H446.88V248.424H444.176V255.752H447.184V256.824H432.832V255.752H435.824V248.424H433.12V247.336ZM436.992 255.752H443.008V253.928H436.992V255.752ZM436.992 252.936H443.008V251.16H436.992V252.936ZM436.992 250.168H443.008V248.424H436.992V250.168ZM437.824 257.208L438.64 257.944C437.328 258.936 435.712 259.8 433.792 260.552L433.072 259.624C434.96 258.92 436.544 258.12 437.824 257.208ZM442.048 257.256C443.84 257.896 445.472 258.664 446.944 259.576L446.304 260.552C444.736 259.528 443.12 258.712 441.472 258.12L442.048 257.256ZM462.08 248.536C462.016 250.568 461.744 252.712 461.264 254.984L460.192 254.664C460.544 253.208 460.816 251.64 460.976 249.96L458.592 250.664V257.064H457.44V251.016L455.056 251.72V258.408C455.056 258.92 455.296 259.192 455.792 259.192H460.88C461.296 259.192 461.584 259.064 461.776 258.84C461.936 258.6 462.048 257.768 462.112 256.344L463.2 256.712C463.104 258.392 462.912 259.416 462.64 259.768C462.352 260.12 461.824 260.296 461.072 260.296H455.504C454.448 260.296 453.92 259.72 453.92 258.568V252.056L452.384 252.504V251.384L453.92 250.936V247.4H455.056V250.6L457.44 249.896V245.912H458.592V249.56L462.08 248.536ZM452.096 245.832L453.12 246.312C452.736 247.496 452.272 248.632 451.712 249.688V260.632H450.576V251.56C450.064 252.312 449.504 253.016 448.896 253.688L448.528 252.52C450.16 250.568 451.36 248.344 452.096 245.832ZM478.624 246.584V260.6H477.488V259.896H466.512V260.6H465.376V246.584H478.624ZM466.512 258.824H477.488V247.64H466.512V258.824ZM467.344 249.4H472.432C472.416 248.952 472.416 248.488 472.416 248.024H473.456C473.456 248.504 473.456 248.952 473.472 249.4H474.944C474.768 248.984 474.576 248.6 474.384 248.248L475.296 248.104C475.472 248.488 475.648 248.92 475.824 249.4H476.784V250.44H473.504C473.536 251.736 473.632 252.792 473.776 253.608C473.824 253.96 473.888 254.296 473.952 254.6C474.448 253.64 474.864 252.52 475.216 251.256L476.08 251.704C475.584 253.4 474.992 254.824 474.288 255.944L474.464 256.376C474.736 256.952 474.992 257.256 475.232 257.256C475.504 257.256 475.792 256.552 476.112 255.16L476.944 255.64C476.496 257.416 475.968 258.312 475.328 258.312C474.848 258.312 474.4 257.976 473.952 257.304C473.856 257.144 473.76 256.968 473.696 256.808C473.152 257.48 472.576 258.024 471.968 258.44L471.392 257.576C472.096 257.112 472.72 256.504 473.264 255.736C473.104 255.256 472.96 254.744 472.848 254.168C472.656 253.192 472.528 251.944 472.464 250.44H467.344V249.4ZM467.808 251.56H471.632V254.936H467.808V251.56ZM470.672 254.088V252.408H468.768V254.088H470.672ZM471.728 255.784V256.696C470.48 256.984 469.072 257.24 467.488 257.432L467.344 256.424C469.008 256.264 470.48 256.056 471.728 255.784ZM488.192 245.832C488.384 246.28 488.56 246.776 488.736 247.336H494.752V250.12H493.616V248.408H482.384V250.12H481.248V247.336H487.584C487.408 246.856 487.216 246.408 487.008 246.024L488.192 245.832ZM483.2 249.96H492.8V251.032H489.168C488.72 251.352 488.272 251.624 487.84 251.88C488.48 252.568 488.976 253.32 489.328 254.136C490.688 253.624 491.984 252.792 493.2 251.656L494 252.44C492.848 253.496 491.552 254.312 490.112 254.872C491.408 256.344 493.12 257.576 495.232 258.568L494.64 259.592C492.656 258.568 491.056 257.336 489.84 255.896C489.904 256.312 489.936 256.728 489.952 257.16C489.952 258.408 489.776 259.272 489.424 259.752C489.04 260.296 488.16 260.568 486.768 260.568H486.24L485.856 259.56H486.608C487.568 259.544 488.16 259.4 488.4 259.144C488.688 258.808 488.832 258.152 488.832 257.16C488.816 256.872 488.8 256.584 488.768 256.328C486.976 257.736 484.64 258.872 481.728 259.752L481.152 258.76C484.336 257.832 486.8 256.664 488.544 255.24C488.416 254.808 488.272 254.408 488.08 254.024C486.544 255.208 484.496 256.168 481.936 256.904L481.36 255.912C484.032 255.208 486.112 254.312 487.6 253.192C487.408 252.904 487.184 252.616 486.96 252.36C486.832 252.424 486.704 252.472 486.592 252.536C485.488 253.048 484.032 253.56 482.24 254.072L481.648 253.128C483.184 252.792 484.576 252.36 485.792 251.832C486.368 251.576 486.928 251.32 487.456 251.032H483.2V249.96ZM500.368 250.776V252.216H507.184V250.776H500.368ZM507.184 249.8V248.296H500.368V249.8H507.184ZM500.368 253.208V255.16C503.024 255.032 505.296 254.872 507.184 254.648V253.208H500.368ZM499.232 255.208V247.272H502.432C502.64 246.792 502.8 246.296 502.912 245.784L504.112 245.944C503.984 246.424 503.824 246.856 503.632 247.272H508.32V254.328C509.152 253.4 509.76 252.44 510.16 251.432L511.152 252.056C510.384 253.528 509.44 254.792 508.32 255.832V259.288C508.32 260.184 507.888 260.632 507.024 260.632H505.328L505.024 259.528L506.64 259.576C506.992 259.576 507.184 259.4 507.184 259.048V256.776C506.832 257.032 506.496 257.272 506.144 257.496C503.952 258.792 501.2 259.72 497.904 260.296L497.392 259.256C501.568 258.52 504.576 257.448 506.432 256.056L506.912 255.672C504.576 255.96 501.376 256.184 497.328 256.36L497.152 255.272L499.232 255.208ZM516.304 245.912L517.36 246.392C516.944 247.608 516.432 248.744 515.808 249.832V260.632H514.624V251.608C514.096 252.312 513.52 252.984 512.896 253.624L512.528 252.424C514.256 250.536 515.504 248.36 516.304 245.912ZM525.28 252.184C525.28 255.592 525.2 257.704 525.04 258.504C524.896 259.736 524.224 260.36 523.008 260.36C522.672 260.36 522.112 260.344 521.312 260.312L521.04 259.224C521.728 259.256 522.336 259.288 522.848 259.288C523.488 259.288 523.84 258.872 523.936 258.04C524.048 257.528 524.112 255.944 524.144 253.304H521.024V253.88C521.024 256.376 519.968 258.584 517.856 260.504L516.896 259.688C518.88 257.992 519.872 256.056 519.872 253.88V253.304H518.256V252.184H525.28ZM521.552 246.456H524.08C524.688 248.776 525.776 250.632 527.344 252.008L526.656 252.952C525.12 251.608 523.984 249.8 523.232 247.528H521.552V246.456ZM519.408 246.472L520.528 246.728C519.92 249.192 518.768 251.256 517.072 252.936L516.336 251.976C517.856 250.472 518.88 248.648 519.408 246.472ZM535.984 252.136C536.336 252.136 536.624 252.28 536.848 252.584C537.056 252.872 537.168 253.24 537.168 253.704C537.168 254.408 536.96 255.032 536.544 255.576C536.128 256.088 535.568 256.44 534.896 256.616V255.832C535.312 255.688 535.648 255.448 535.92 255.128C536.144 254.792 536.256 254.44 536.256 254.056C536.192 254.088 536.064 254.12 535.904 254.12C535.632 254.12 535.408 254.024 535.216 253.832C535.024 253.64 534.944 253.4 534.944 253.128C534.944 252.824 535.04 252.584 535.232 252.408C535.408 252.216 535.664 252.136 535.984 252.136ZM544.912 253.56H559.088V254.552H552.352L551.792 255.768H558.064V259.304C558.064 260.152 557.6 260.584 556.704 260.584H555.536L555.264 259.592L556.384 259.64C556.768 259.64 556.96 259.448 556.96 259.064V256.744H554.4V260.488H553.296V256.744H550.912V260.488H549.824V256.744H547.424V260.648H546.32V255.768H550.624L551.184 254.552H544.912V253.56ZM545.888 246.504H558.128V247.448H552.56V248.456H558.768V251.72H557.664V249.368H552.56V252.872H551.44V249.368H546.336V251.72H545.232V248.456H551.44V247.448H545.888V246.504ZM547.68 249.944C548.672 250.04 549.632 250.184 550.56 250.376L550.256 251.096C549.312 250.92 548.32 250.792 547.296 250.696L547.68 249.944ZM550.288 251.688L550.544 252.424C549.872 252.584 548.816 252.696 547.344 252.792L547.088 251.976C548.528 251.912 549.6 251.816 550.288 251.688ZM553.648 251.096L553.488 250.296C554.576 250.232 555.536 250.104 556.384 249.912L556.672 250.696C555.808 250.872 554.8 251 553.648 251.096ZM553.792 251.704C554.864 251.8 555.888 251.96 556.848 252.168L556.528 252.952C555.536 252.712 554.512 252.536 553.456 252.408L553.792 251.704ZM562.64 260.456H561.2L560.96 259.336C561.408 259.368 561.824 259.4 562.24 259.4C562.624 259.4 562.832 259.192 562.832 258.792V254.888C562.224 255.128 561.6 255.352 560.976 255.544L560.704 254.392C561.424 254.216 562.128 253.992 562.832 253.72V250.104H560.896V249H562.832V245.976H564.016V249H565.632V250.104H564.016V253.224C564.48 253 564.944 252.776 565.392 252.52V253.688C564.944 253.928 564.48 254.152 564.016 254.376V259.096C564.016 259.992 563.552 260.456 562.64 260.456ZM566.88 246.488H573.856V252.04H566.88V246.488ZM572.736 251.096V249.72H568V251.096H572.736ZM568 248.824H572.736V247.432H568V248.824ZM565.76 253.16H574.912V254.184H570.912V255.992H574.256V257.032H570.912V259.096C571.552 259.192 572.304 259.24 573.184 259.24C574.016 259.24 574.736 259.208 575.328 259.16L575.008 260.28C574.368 260.28 573.776 260.264 573.264 260.264C571.152 260.248 569.712 260.04 568.944 259.656C568.336 259.336 567.776 258.728 567.296 257.832C566.912 258.824 566.384 259.736 565.696 260.568L564.848 259.832C566.064 258.36 566.736 256.696 566.864 254.872L567.888 254.984C567.856 255.56 567.776 256.104 567.648 256.648C568.16 257.72 568.752 258.408 569.424 258.712C569.536 258.76 569.664 258.808 569.808 258.856V254.184H565.76V253.16ZM581.472 249.336H583.536V245.992H584.72V249.336H587.584V245.992H588.752V249.336H590.88V250.456H588.752V254.2H591.328V255.304H581.024V254.2H583.536V250.456H581.472V249.336ZM584.72 254.2H587.584V250.456H584.72V254.2ZM588.064 255.896C589.408 257.4 590.432 258.728 591.152 259.848L590.128 260.552C589.392 259.336 588.384 257.976 587.12 256.472L588.064 255.896ZM584.016 256.008L585.072 256.504C584.24 258.072 583.248 259.432 582.112 260.584L581.12 259.864C582.24 258.792 583.216 257.512 584.016 256.008ZM578.624 251.64C578.096 252.344 577.52 253.032 576.88 253.688L576.496 252.472C578.24 250.52 579.504 248.296 580.304 245.8L581.392 246.296C580.976 247.544 580.448 248.728 579.808 249.832V260.6H578.624V251.64ZM606.592 246.872V260.6H605.472V259.608H600.224V260.616H599.12V246.872H606.592ZM600.224 258.52H605.472V255.688H600.224V258.52ZM600.224 254.616H605.472V251.784H600.224V254.616ZM600.224 250.712H605.472V247.96H600.224V250.712ZM596.304 252.232V260.584H595.168V252.472C594.624 254.008 593.936 255.384 593.072 256.632L592.624 255.496C593.792 253.944 594.624 252.168 595.136 250.168H592.912V249.064H595.168V245.944H596.304V249.064H598.368V250.168H596.304V251.016C597.04 251.784 597.776 252.648 598.512 253.592L597.888 254.52C597.28 253.592 596.752 252.824 596.304 252.232ZM612.144 255.976H613.072V257.416H614.576C614.576 257.304 614.592 257.208 614.592 257.112V255.816H615.552V257.112C615.52 258.008 615.248 258.712 614.768 259.256C614.272 259.752 613.472 260.136 612.368 260.424L611.824 259.592C612.848 259.352 613.584 259.048 614 258.664C614.128 258.52 614.224 258.376 614.304 258.248H612.144V255.976ZM616.608 255.8H617.616V257.416H619.104V256.008H620.032V258.248H617.616V260.424H616.608V255.8ZM610.512 248.968V249.816H614.304V248.968H610.512ZM614.304 248.216V247.368H610.512V248.216H614.304ZM617.648 248.968V249.832H621.472V248.968H617.648ZM621.472 248.232V247.384H617.648V248.232H621.472ZM615.36 246.52V250.632H614.384L614.432 250.648C613.696 251.64 613.104 252.312 612.656 252.664L614.256 252.552C614.512 252.264 614.768 251.96 615.04 251.656L615.824 251.976C614.656 253.32 613.712 254.216 612.992 254.68L614.896 254.424C614.816 254.152 614.736 253.896 614.64 253.672L615.344 253.448C615.568 254.024 615.776 254.712 615.968 255.48L615.232 255.656C615.184 255.464 615.136 255.272 615.088 255.096C613.904 255.272 612.784 255.4 611.76 255.496L611.6 254.792C612.128 254.584 612.8 254.072 613.6 253.256C612.896 253.32 612.24 253.368 611.648 253.416L611.488 252.696C611.952 252.472 612.592 251.784 613.424 250.632H610.512V260.6H609.44V246.52H615.36ZM621.472 250.648H619.088C618.368 251.64 617.776 252.296 617.328 252.648C617.808 252.616 618.352 252.568 618.96 252.52C619.216 252.248 619.472 251.96 619.728 251.656L620.512 251.976C619.344 253.288 618.4 254.184 617.664 254.664L619.616 254.408C619.52 254.152 619.424 253.896 619.328 253.672L620.032 253.448C620.288 254.056 620.528 254.744 620.736 255.544L620 255.736C619.936 255.512 619.888 255.288 619.824 255.08C618.608 255.24 617.488 255.368 616.448 255.464L616.288 254.76C616.816 254.552 617.488 254.04 618.304 253.224C617.6 253.288 616.944 253.336 616.336 253.384L616.176 252.664C616.624 252.456 617.248 251.784 618.08 250.648H616.592V246.52H622.544V259.304C622.544 260.12 622.112 260.536 621.264 260.536C620.656 260.536 620.048 260.52 619.472 260.504L619.216 259.528C619.808 259.56 620.368 259.576 620.88 259.576C621.264 259.576 621.472 259.368 621.472 258.968V250.648ZM626.288 259.608V260.552H625.184V254.968H629.584V260.344H628.48V259.608H626.288ZM628.48 258.536V256.008H626.288V258.536H628.48ZM627.344 245.864C627.616 246.552 627.824 247.176 627.984 247.736L627.392 247.976H630.032V249.048H624.816V247.976H626.976C626.768 247.352 626.528 246.744 626.24 246.168L627.344 245.864ZM625.28 250.328H629.488V251.352H625.28V250.328ZM625.28 252.568H629.488V253.592H625.28V252.568ZM631.248 253.016H638.048V256.824H631.248V253.016ZM636.96 255.864V253.992H632.336V255.864H636.96ZM630.336 259.176H632.688C632.416 258.632 632.096 258.104 631.728 257.624L632.768 257.24C633.136 257.784 633.472 258.424 633.776 259.176H635.664C636.016 258.568 636.336 257.912 636.624 257.224L637.664 257.576C637.408 258.184 637.12 258.712 636.8 259.176H639.12V260.232H630.336V259.176ZM632.688 250.664C632.08 251.448 631.344 252.12 630.496 252.664L629.84 251.8C630.624 251.32 631.296 250.776 631.84 250.136C631.424 249.72 630.928 249.304 630.352 248.872L631.056 248.2C631.568 248.584 632.016 248.984 632.4 249.384C632.784 248.792 633.104 248.168 633.328 247.512H630.8V246.536H634.32V247.352C633.968 248.616 633.44 249.704 632.72 250.616H636.864V251.624H632.688V250.664ZM635.76 246.024C635.888 246.488 636.048 246.936 636.224 247.368C636.704 246.952 637.12 246.488 637.488 245.976L638.224 246.632C637.776 247.24 637.248 247.768 636.624 248.232C636.816 248.6 637.008 248.952 637.232 249.304C637.776 248.824 638.24 248.312 638.624 247.736L639.376 248.408C638.928 249.032 638.4 249.592 637.792 250.072C638.272 250.696 638.8 251.24 639.408 251.72L638.704 252.536C636.912 250.984 635.648 248.968 634.944 246.488L635.76 246.024ZM646.128 246.84V257.88H642.528V259.144H641.376V246.84H646.128ZM642.528 256.744H645.024V252.824H642.528V256.744ZM642.528 251.72H645.024V247.976H642.528V251.72ZM649.024 251.448V254.216H653.264V251.448H649.024ZM653.264 250.376V247.56H649.024V250.376H653.264ZM648.96 255.288C648.752 257.464 648.128 259.256 647.072 260.664L646.16 259.832C647.28 258.296 647.84 256.36 647.872 254.008V246.456H654.432V259C654.432 259.96 653.936 260.456 652.96 260.456H650.864L650.56 259.32C651.296 259.352 651.968 259.384 652.592 259.384C653.04 259.384 653.264 259.112 653.264 258.584V255.288H648.96ZM657.024 248.632H663.648C663.216 247.784 662.688 246.984 662.048 246.232L663.2 245.816C663.808 246.584 664.352 247.528 664.864 248.632H670.976V249.784H668.48C667.696 252.312 666.512 254.44 664.944 256.136C666.64 257.576 668.768 258.76 671.328 259.704L670.704 260.664C668.048 259.672 665.872 258.44 664.144 256.952C662.32 258.632 660.048 259.864 657.328 260.648L656.72 259.64C659.408 258.92 661.616 257.784 663.344 256.216C661.488 254.392 660.208 252.248 659.488 249.784H657.024V248.632ZM660.624 249.784C661.312 251.944 662.48 253.816 664.144 255.416C665.568 253.864 666.608 251.992 667.28 249.784H660.624ZM676.192 245.832L677.28 246.328C676.864 247.592 676.336 248.792 675.696 249.928V260.616H674.56V251.688C674.048 252.392 673.488 253.064 672.88 253.704L672.512 252.472C674.208 250.552 675.424 248.328 676.192 245.832ZM678.88 246.888L680.016 247.032C679.888 247.832 679.712 248.6 679.488 249.304H681.84V245.976H682.992V249.304H686.672V250.424H682.992V254.28H687.264V255.384H682.992V260.536H681.84V255.384H677.136V254.28H681.84V250.424H679.12C678.72 251.48 678.224 252.424 677.632 253.256L676.896 252.296C677.872 250.824 678.528 249.016 678.88 246.888ZM693.616 250.056H689.168V248.952H697.664C698.272 248.024 698.8 247.032 699.248 245.976L700.352 246.36C699.936 247.32 699.456 248.184 698.944 248.952H702.832V250.056H698.384V258.952H703.12V260.056H688.912V258.952H693.616V250.056ZM694.752 258.952H697.248V250.056H694.752V258.952ZM691.104 251.56C691.616 253.16 692.08 254.904 692.48 256.792L691.408 257.016C691.056 255.032 690.608 253.288 690.08 251.784L691.104 251.56ZM700.944 251.48L702 251.752C701.6 253.768 701.072 255.544 700.432 257.064L699.392 256.696C699.984 255.32 700.496 253.592 700.944 251.48ZM692.8 245.976C693.36 246.712 693.888 247.544 694.4 248.44L693.424 248.936C692.912 248.008 692.368 247.176 691.808 246.456L692.8 245.976ZM708.288 245.864C708.512 246.376 708.736 246.936 708.96 247.56H711.472V248.616H705.04V247.56H707.84C707.632 247.016 707.392 246.504 707.136 246.056L708.288 245.864ZM705.232 251.368H706.576C706.368 250.696 706.112 250.056 705.824 249.464L706.816 249.096C707.104 249.72 707.376 250.472 707.6 251.368H708.992C709.28 250.648 709.52 249.88 709.744 249.08L710.784 249.448C710.56 250.168 710.304 250.808 710.048 251.368H711.296V252.424H708.816V254.152H711.584V255.208H708.816V260.344H707.712V255.208H704.96V254.152H707.712V252.424H705.232V251.368ZM706.224 255.944L707.12 256.376C706.672 257.64 706.16 258.728 705.584 259.64L704.72 259.032C705.296 258.168 705.808 257.128 706.224 255.944ZM712.368 246.568H718.368V255.384H716.912V258.984C716.912 259.192 717.008 259.304 717.232 259.32H717.872C718.112 259.304 718.256 259.096 718.288 258.712C718.336 258.28 718.368 257.576 718.368 256.6L719.296 256.952C719.296 258.488 719.2 259.432 719.04 259.784C718.864 260.12 718.496 260.312 717.92 260.344H717.2C716.304 260.344 715.856 259.944 715.856 259.176V255.384H714.736C714.576 257.784 713.472 259.528 711.424 260.616L710.848 259.672C712.608 258.808 713.552 257.368 713.696 255.384H712.368V246.568ZM717.328 254.424V252.728H713.408V254.424H717.328ZM713.408 251.8H717.328V250.136H713.408V251.8ZM713.408 249.208H717.328V247.528H713.408V249.208ZM710.208 255.896C710.784 256.76 711.232 257.512 711.536 258.152L710.688 258.744C710.368 258.04 709.952 257.256 709.408 256.408L710.208 255.896ZM733.376 247.832V260.584H732.208V259.592H723.792V260.584H722.624V247.832H726.048C726.4 247.192 726.672 246.552 726.832 245.88L728 246.04C727.824 246.68 727.568 247.288 727.248 247.832H733.376ZM723.792 258.488H732.208V255.88H723.792V258.488ZM723.792 254.824H732.208V252.376H723.792V254.824ZM723.792 251.32H732.208V248.936H723.792V251.32ZM741.12 246.616L742.176 247.048C741.024 249.608 739.52 251.56 737.632 252.904L736.72 252.12C738.672 250.76 740.128 248.92 741.12 246.616ZM743.84 246.44H746.88C747.728 248.728 749.216 250.568 751.328 251.944L750.592 252.968C748.592 251.624 747.104 249.816 746.128 247.56H743.84V246.44ZM742.352 253.4H739.12V252.296H748.624C748.576 254.296 748.48 255.912 748.32 257.144C748.16 258.36 747.904 259.224 747.536 259.704C747.184 260.168 746.608 260.424 745.808 260.472H742.832L742.512 259.336C743.472 259.368 744.368 259.384 745.216 259.384C746.08 259.384 746.64 259.016 746.912 258.28C747.2 257.512 747.376 255.896 747.456 253.4H743.52C743.136 255.144 742.608 256.536 741.92 257.56C741.088 258.712 739.84 259.736 738.192 260.648L737.456 259.688C738.96 258.888 740.08 258.008 740.848 257.048C741.52 256.12 742.016 254.904 742.352 253.4ZM758.8 246.952H766.464V248.088H758.8V246.952ZM758.368 251.016H767.168V252.152H764.576V259.144C764.576 260.072 764.048 260.536 763.024 260.536H760.672L760.432 259.4C761.2 259.448 761.92 259.48 762.624 259.48C763.136 259.48 763.408 259.272 763.408 258.856V252.152H758.368V251.016ZM756.272 246.072L757.312 246.552C756.416 248.328 754.976 249.896 752.992 251.256L752.656 250.104C754.32 248.92 755.52 247.576 756.272 246.072ZM757.024 249.72L758.064 250.2C757.6 251.096 757.024 251.96 756.32 252.76V260.6H755.184V253.928C754.544 254.504 753.856 255.064 753.088 255.592L752.752 254.44C754.704 253.064 756.128 251.496 757.024 249.72ZM774.432 246.024H775.424V249.08H777.504C777.504 254.232 777.424 257.4 777.296 258.616C777.184 259.832 776.656 260.44 775.712 260.44C775.552 260.44 775.264 260.424 774.864 260.392L774.624 259.448C774.976 259.48 775.296 259.496 775.584 259.496C776 259.496 776.256 259.064 776.336 258.216C776.432 257.336 776.496 254.6 776.528 250.024H775.424V250.136C775.392 254.904 774.56 258.376 772.944 260.584L772.176 259.912C773.648 257.88 774.4 254.616 774.432 250.136V250.024H773.552V249.08H774.432V246.024ZM771.12 245.832C771.296 246.408 771.472 247.08 771.664 247.832H773.472V248.84H768.896V247.832H770.624C770.464 247.16 770.256 246.568 770.032 246.024L771.12 245.832ZM770.576 253.192H768.736V252.168H771.344C771.664 251.256 771.904 250.296 772.048 249.288L773.008 249.416C772.832 250.424 772.592 251.336 772.272 252.168H773.52V253.192H771.616C771.6 253.896 771.568 254.536 771.52 255.112H773.216V256.12H771.424C771.376 256.392 771.328 256.648 771.296 256.904C771.008 258.408 770.384 259.656 769.408 260.632L768.736 259.816C769.504 258.984 770.016 257.944 770.272 256.696L770.368 256.12H768.928V255.112H770.48C770.528 254.504 770.56 253.864 770.576 253.192ZM769.888 249.32C770.24 250.008 770.56 250.744 770.816 251.528L769.968 251.88C769.68 251.032 769.376 250.296 769.04 249.656L769.888 249.32ZM780.144 253.16H778.08V252.136H780.928C781.28 251.192 781.552 250.216 781.712 249.208L782.672 249.336C782.48 250.328 782.224 251.272 781.872 252.136H783.28V253.16H781.2V255.144H783.168V256.152H781.2V260.568H780.144V256.152H778.208V255.144H780.144V253.16ZM780.72 245.88C780.88 246.456 781.024 247.096 781.184 247.832H783.168V248.84H778.128V247.832H780.144C779.984 247.176 779.808 246.584 779.632 246.072L780.72 245.88ZM779.424 249.336C779.776 249.992 780.064 250.696 780.32 251.464L779.504 251.816C779.216 251 778.912 250.28 778.592 249.656L779.424 249.336ZM790.656 246.568H798.48V253.96H795.152V255.848H798.752V256.936H795.152V259.016H799.344V260.12H789.712V259.016H794V256.936H790.384V255.848H794V253.96H790.656V246.568ZM797.376 252.936V250.776H795.152V252.936H797.376ZM794 252.936V250.776H791.76V252.936H794ZM791.76 249.768H794V247.592H791.76V249.768ZM795.152 247.592V249.768H797.376V247.592H795.152ZM785.008 251.864H786.752V248.072H784.784V246.984H789.888V248.072H787.936V251.864H789.696V252.968H787.936V256.6C788.544 256.392 789.12 256.168 789.696 255.912V257.032C788.224 257.64 786.64 258.152 784.944 258.568L784.656 257.464C785.36 257.336 786.064 257.176 786.752 256.984V252.968H785.008V251.864ZM803.6 255.448H805.728V253.608H804.032V252.616H811.792V253.608H810.24V255.448H812.304V256.472H810.24V260.152H809.184V256.472H806.688C806.592 257.32 806.4 258.04 806.112 258.616C805.728 259.368 805.072 259.96 804.176 260.376L803.6 259.464C804.384 259.08 804.944 258.568 805.264 257.928C805.44 257.512 805.568 257.016 805.648 256.472H803.6V255.448ZM809.184 255.448V253.608H806.768V255.448H809.184ZM802.544 249.352V250.52H806.144V249.352H802.544ZM806.144 248.536V247.304H802.544V248.536H806.144ZM809.728 249.352V250.488H813.424V249.352H809.728ZM813.424 248.536V247.336H809.728V248.536H813.424ZM807.264 246.392V251.448H802.544V260.456H801.392V246.392H807.264ZM813.424 251.4H808.608V246.408H814.56V258.808C814.56 259.864 814.08 260.392 813.12 260.392C812.544 260.392 811.968 260.376 811.392 260.344L811.12 259.32C811.696 259.352 812.224 259.384 812.704 259.384C813.184 259.384 813.424 259.064 813.424 258.456V251.4ZM461.328 270.056L461.904 271.096C458.848 271.688 455.424 272.024 451.632 272.12V274.008H462V279.064H451.392C451.072 281.24 450.432 283.08 449.504 284.552L448.672 283.688C449.824 281.864 450.448 279.352 450.528 276.136V271.096C454.528 271.048 458.128 270.696 461.328 270.056ZM451.52 277.944H460.88V275.128H451.632V276.136C451.616 276.76 451.584 277.368 451.52 277.944ZM472 275.224C472.576 275.224 473.056 275.416 473.472 275.8C473.872 276.184 474.08 276.664 474.08 277.24C474.08 277.8 473.872 278.28 473.472 278.664C473.056 279.048 472.576 279.256 472 279.256C471.424 279.256 470.928 279.048 470.528 278.664C470.112 278.28 469.92 277.816 469.92 277.24C469.92 276.664 470.112 276.184 470.528 275.8C470.928 275.416 471.424 275.224 472 275.224ZM472 276.072C471.664 276.072 471.376 276.184 471.152 276.408C470.896 276.632 470.784 276.904 470.784 277.24C470.784 277.56 470.896 277.848 471.152 278.072C471.376 278.296 471.664 278.408 472 278.408C472.32 278.408 472.608 278.296 472.848 278.072C473.088 277.832 473.216 277.56 473.216 277.24C473.216 276.92 473.088 276.632 472.848 276.408C472.608 276.184 472.32 276.072 472 276.072Z" fill="black"/>
<rect x="470" y="321" width="200" height="65" rx="4" fill="#00A19B"/>
<path d="M538.14 345.114L539.724 345.852C539.328 347.166 538.842 348.408 538.23 349.596V361.872H536.52V352.404C536.07 353.016 535.602 353.61 535.116 354.186L534.54 352.368C536.16 350.28 537.366 347.868 538.14 345.114ZM545.25 345.114C545.394 345.546 545.556 346.032 545.718 346.572H550.74V348.084H539.544V346.572H544.008C543.864 346.158 543.702 345.762 543.522 345.402L545.25 345.114ZM540.624 348.876H549.408V352.476H540.624V348.876ZM547.752 351.198V350.136H542.298V351.198H547.752ZM550.83 353.268V356.562H549.786V357.516H546.06V360.054C546.06 361.17 545.448 361.728 544.26 361.728H542.262L541.884 360.072C542.496 360.126 543.09 360.162 543.666 360.162C544.098 360.162 544.332 359.982 544.332 359.64V357.516H540.552V356.562H539.292V353.268H550.83ZM540.93 356.076H549.192V354.744H540.93V356.076ZM567.516 353.628V361.854H565.842V361.188H556.23V361.872H554.556V353.628H567.516ZM556.23 359.586H560.244V358.164H556.23V359.586ZM561.936 359.586H565.842V358.164H561.936V359.586ZM556.23 356.652H560.244V355.212H556.23V356.652ZM561.936 355.212V356.652H565.842V355.212H561.936ZM559.164 347.94C559.902 349.668 560.478 351.27 560.874 352.71L559.236 353.304C559.092 352.8 558.948 352.314 558.804 351.846C557.436 352.404 555.726 352.926 553.692 353.412L553.08 351.846C553.476 351.558 553.674 351.162 553.674 350.658V346.572C556.032 346.356 557.994 345.852 559.56 345.096L560.406 346.518C559.074 347.202 557.382 347.688 555.33 347.94V351.342C556.536 350.982 557.526 350.658 558.3 350.334C558.066 349.668 557.814 349.02 557.562 348.39L559.164 347.94ZM562.71 347.562H560.964V345.888H568.398C568.326 348.948 568.164 350.874 567.894 351.648C567.57 352.602 566.85 353.088 565.77 353.106C565.374 353.106 564.924 353.07 564.42 353.034L563.916 351.522C564.582 351.576 565.14 351.612 565.59 351.612C566.058 351.594 566.364 351.27 566.49 350.658C566.598 350.244 566.652 349.218 566.688 347.562H564.348C564.168 348.804 563.952 349.812 563.664 350.586C563.268 351.558 562.692 352.44 561.918 353.214L560.91 351.936C561.468 351.306 561.9 350.604 562.188 349.848C562.404 349.236 562.566 348.48 562.71 347.562ZM575.472 345.42H577.146V350.91H579.684V352.566H577.146V358.29C578.1 358.038 579 357.768 579.864 357.498V359.226C577.254 360.09 574.284 360.792 570.936 361.314L570.702 359.586C571.134 359.514 571.566 359.46 571.962 359.388V348.768H573.636V359.082C574.266 358.956 574.878 358.83 575.472 358.704V345.42ZM584.976 361.296H582.366C581.07 361.296 580.422 360.576 580.422 359.154V345.24H582.132V351.018L586.614 350.712V352.332L582.132 352.656V358.794C582.132 359.37 582.384 359.658 582.906 359.658H584.652C584.94 359.658 585.138 359.496 585.264 359.172C585.408 358.812 585.516 357.714 585.57 355.896L587.19 356.4C587.046 358.776 586.812 360.18 586.47 360.648C586.146 361.08 585.66 361.296 584.976 361.296ZM591.006 348.624H595.704C595.83 348.192 595.92 347.778 595.992 347.346H589.242V345.798H604.794V347.346H597.666C597.594 347.778 597.522 348.21 597.414 348.624H603.264V358.812H599.772C601.752 359.28 603.57 359.856 605.208 360.504L604.29 361.89C602.418 361.026 600.51 360.36 598.53 359.874L599.25 358.812H594.552L595.416 359.946C594.03 360.756 592.05 361.422 589.458 361.926L588.648 360.54C591.204 360.09 593.166 359.514 594.498 358.812H591.006V348.624ZM601.59 357.228V355.77H592.662V357.228H601.59ZM592.662 354.33H601.59V352.926H592.662V354.33ZM592.662 351.486H601.59V350.19H592.662V351.486Z" fill="white"/>
<rect x="258.5" y="321.5" width="199" height="64" rx="3.5" fill="white"/>
<rect x="258.5" y="321.5" width="199" height="64" rx="3.5" stroke="#00A19B"/>
<path d="M323.188 357.21L324.466 357.372C324.394 358.938 324.25 360.324 324.034 361.53L322.702 361.098C322.954 359.982 323.116 358.686 323.188 357.21ZM326.122 356.958C326.302 358.092 326.446 359.316 326.59 360.648L325.276 360.936C325.186 359.532 325.078 358.29 324.952 357.21L326.122 356.958ZM327.796 352.332C328.12 353.376 328.408 354.564 328.66 355.896L327.418 356.202C327.364 355.914 327.31 355.662 327.256 355.41C325.834 355.896 324.466 356.238 323.17 356.418L322.774 355.032C323.044 354.924 323.278 354.762 323.458 354.582C323.962 354.006 324.574 353.052 325.33 351.684C324.61 351.828 323.872 351.954 323.134 352.098L322.72 350.694C322.972 350.586 323.206 350.406 323.386 350.118C324.07 348.642 324.664 346.986 325.168 345.15L326.662 345.726C325.96 347.724 325.24 349.344 324.502 350.586C325.006 350.496 325.528 350.406 326.05 350.298C326.392 349.614 326.752 348.858 327.148 348.048L328.552 348.57C327.094 351.45 325.888 353.538 324.916 354.798C325.618 354.654 326.32 354.474 327.004 354.258C326.878 353.736 326.734 353.232 326.59 352.728L327.796 352.332ZM327.796 356.49C328.12 357.426 328.39 358.434 328.624 359.514L327.454 360.036C327.22 358.848 326.968 357.786 326.716 356.868L327.796 356.49ZM330.406 353.376V360.144H339.028V361.512H328.948V345.456H330.406V352.08H339.01V353.376H330.406ZM338.542 357.048C338.722 357.786 338.866 358.614 339.01 359.55L338.056 359.802C338.02 359.568 337.984 359.352 337.948 359.154C337.012 359.316 336.148 359.46 335.356 359.568L335.104 358.596C335.5 358.362 335.986 357.786 336.562 356.868C336.04 356.94 335.518 356.994 334.978 357.066L334.708 356.112C334.87 356.04 335.014 355.896 335.14 355.698C335.536 355.05 335.896 354.312 336.202 353.52L337.3 353.934C336.886 354.78 336.472 355.482 336.076 356.022C336.454 355.968 336.814 355.914 337.174 355.842C337.39 355.464 337.606 355.068 337.822 354.654L338.83 355.05C337.912 356.724 337.156 357.876 336.562 358.506L337.786 358.254C337.714 357.93 337.66 357.642 337.588 357.354L338.542 357.048ZM334.438 357.174C334.618 357.894 334.78 358.704 334.942 359.64L333.988 359.892C333.952 359.64 333.916 359.406 333.88 359.19C332.872 359.388 331.936 359.55 331.072 359.676L330.82 358.704C331.252 358.452 331.792 357.876 332.44 356.976C331.936 357.012 331.414 357.048 330.91 357.102L330.64 356.148C330.82 356.076 330.964 355.932 331.09 355.734C331.522 355.068 331.9 354.33 332.224 353.52L333.34 353.934C332.908 354.798 332.476 355.518 332.044 356.076C332.404 356.04 332.764 355.986 333.124 355.95C333.358 355.554 333.61 355.14 333.862 354.708L334.924 355.122C333.88 356.778 333.034 357.93 332.368 358.578C332.782 358.488 333.232 358.38 333.718 358.272C333.664 357.984 333.61 357.714 333.556 357.462L334.438 357.174ZM338.542 349.02C338.722 349.74 338.866 350.568 339.01 351.504L338.056 351.738L337.948 351.108C337.012 351.288 336.148 351.432 335.356 351.54L335.104 350.568C335.5 350.334 335.986 349.758 336.562 348.822C336.04 348.894 335.518 348.966 334.978 349.02L334.708 348.066C334.87 347.994 335.014 347.85 335.14 347.67C335.536 347.004 335.896 346.266 336.202 345.474L337.3 345.906C336.904 346.734 336.49 347.418 336.094 347.976C336.454 347.922 336.814 347.868 337.174 347.796C337.39 347.418 337.606 347.022 337.822 346.608L338.83 347.022C337.894 348.714 337.12 349.866 336.544 350.478C336.922 350.406 337.336 350.316 337.786 350.208C337.714 349.902 337.66 349.614 337.588 349.326L338.542 349.02ZM334.42 349.146C334.6 349.83 334.78 350.658 334.942 351.594L333.988 351.828L333.88 351.144C332.854 351.342 331.918 351.504 331.072 351.63L330.82 350.676C331.252 350.424 331.792 349.848 332.44 348.93C331.936 348.966 331.414 349.02 330.91 349.056L330.64 348.102C330.82 348.012 330.964 347.886 331.09 347.706C331.522 347.022 331.882 346.284 332.206 345.474L333.322 345.906C332.89 346.752 332.476 347.454 332.062 348.03C332.422 347.994 332.764 347.94 333.124 347.904C333.358 347.508 333.61 347.112 333.862 346.68L334.924 347.094C333.862 348.768 332.998 349.92 332.35 350.55C332.764 350.46 333.214 350.352 333.718 350.244C333.646 349.956 333.592 349.668 333.538 349.416L334.42 349.146ZM341.278 357.192L342.646 357.372C342.574 358.938 342.376 360.324 342.088 361.512L340.666 361.062C340.99 359.946 341.206 358.65 341.278 357.192ZM344.572 356.922C344.77 358.038 344.95 359.262 345.112 360.594L343.69 360.936C343.564 359.532 343.42 358.272 343.276 357.192L344.572 356.922ZM346.408 352.368C346.732 353.376 347.02 354.546 347.272 355.86L345.922 356.202L345.778 355.428C344.212 355.896 342.718 356.238 341.296 356.418L340.882 354.996C341.17 354.888 341.404 354.744 341.584 354.564C342.142 353.988 342.826 353.016 343.654 351.648L341.08 352.026L340.702 350.658C340.936 350.55 341.152 350.37 341.332 350.1C342.196 348.642 342.952 347.022 343.6 345.258L345.094 345.834C344.266 347.742 343.42 349.308 342.556 350.514C343.186 350.442 343.816 350.352 344.446 350.244C344.806 349.578 345.184 348.858 345.58 348.102L347.056 348.642C345.472 351.486 344.158 353.538 343.114 354.798C343.924 354.654 344.716 354.456 345.508 354.24C345.382 353.736 345.256 353.25 345.13 352.8L346.408 352.368ZM346.462 356.454C346.786 357.39 347.074 358.398 347.308 359.46L346.048 360.036C345.796 358.848 345.544 357.786 345.256 356.868L346.462 356.454ZM347.434 346.104H351.412V345.222H353.05V346.104H357.028V347.274H353.05V347.994H356.506V349.074H347.956V347.994H351.412V347.274H347.434V346.104ZM347.56 349.758H356.848V352.908H347.56V349.758ZM355.426 351.882V350.784H354.004V351.882H355.426ZM352.888 351.882V350.784H351.484V351.882H352.888ZM350.368 351.882V350.784H348.982V351.882H350.368ZM348.082 353.574H356.362V359.676H354.328C355.444 360 356.47 360.378 357.406 360.828L356.65 361.98C355.426 361.332 354.184 360.828 352.906 360.468L353.428 359.676H350.836L351.502 360.432C350.386 361.044 349.018 361.53 347.398 361.926L346.786 360.684C348.1 360.396 349.198 360.072 350.08 359.676H348.082V353.574ZM354.796 358.578V357.822H349.612V358.578H354.796ZM349.612 356.958H354.796V356.238H349.612V356.958ZM349.612 355.374H354.796V354.582H349.612V355.374ZM366.172 345.312H367.9V347.85H373.606V358.164H371.932V357.21H367.9V361.764H366.172V357.21H362.068V358.29H360.394V347.85H366.172V345.312ZM362.068 355.59H366.172V353.268H362.068V355.59ZM367.9 355.59H371.932V353.268H367.9V355.59ZM362.068 351.738H366.172V349.452H362.068V351.738ZM367.9 351.738H371.932V349.452H367.9V351.738ZM387.232 345.222H388.942V346.284H392.83V347.67H388.942V348.552H392.236V349.902H388.942V350.838H393.316V352.26H382.804V350.838H387.232V349.902H383.92V348.552H387.232V347.67H383.29V346.284H387.232V345.222ZM385.738 356.724V356.814C385.738 357.12 385.72 357.426 385.684 357.714H390.472V356.724H385.738ZM390.472 355.428V354.42H385.738V355.428H390.472ZM385.45 359.01C385.144 360.108 384.604 361.062 383.848 361.872L382.606 360.756C383.596 359.748 384.1 358.47 384.136 356.922V353.052H392.11V360.216C392.11 361.242 391.498 361.764 390.31 361.764H388.33L387.934 360.288C388.618 360.324 389.248 360.36 389.824 360.36C390.256 360.36 390.472 360.108 390.472 359.64V359.01H385.45ZM376.792 347.418H379.15C378.898 346.806 378.628 346.212 378.322 345.636L379.942 345.186C380.302 346.014 380.59 346.752 380.788 347.418H382.696V348.966H376.792V347.418ZM377.44 350.118H382.12V351.558H377.44V350.118ZM377.44 352.62H382.12V354.06H377.44V352.62ZM382.3 355.302V360.756H378.862V361.584H377.278V355.302H382.3ZM378.862 359.298H380.752V356.706H378.862V359.298Z" fill="#00A19B"/>
</g>
<g clip-path="url(#clip1_2747_134)">
<mask id="mask1_2747_134" style="mask-type:luminance" maskUnits="userSpaceOnUse" x="829" y="92" width="18" height="23">
<path d="M847 92H829V114.5H847V92Z" fill="white"/>
</mask>
<g mask="url(#mask1_2747_134)">
<path d="M830.125 95.375L845.875 111.125" stroke="#1C1C1C" stroke-width="2" stroke-linecap="round"/>
<path d="M845.875 95.375L830.125 111.125" stroke="#1C1C1C" stroke-width="2" stroke-linecap="round"/>
</g>
</g>
<path d="M104 406H64L64 77H104L104 406Z" fill="#FF685D" fill-opacity="0.2"/>
<path d="M864 406H824V77H864V406Z" fill="#FF685D" fill-opacity="0.2"/>
<path d="M830.628 256.534V252.098L827.49 256.534H830.628ZM830.648 260V257.607H826.355V256.404L830.84 250.184H831.879V256.534H833.321V257.607H831.879V260H830.648ZM837.58 250.211C838.847 250.211 839.763 250.733 840.328 251.776C840.766 252.583 840.984 253.688 840.984 255.092C840.984 256.423 840.786 257.523 840.39 258.394C839.815 259.642 838.877 260.267 837.573 260.267C836.397 260.267 835.522 259.756 834.948 258.735C834.47 257.883 834.23 256.739 834.23 255.304C834.23 254.192 834.374 253.237 834.661 252.439C835.199 250.954 836.172 250.211 837.58 250.211ZM837.566 259.146C838.204 259.146 838.713 258.863 839.091 258.298C839.469 257.733 839.658 256.68 839.658 255.14C839.658 254.028 839.521 253.114 839.248 252.398C838.975 251.678 838.444 251.318 837.655 251.318C836.931 251.318 836.4 251.66 836.062 252.344C835.73 253.023 835.563 254.025 835.563 255.352C835.563 256.35 835.671 257.152 835.885 257.758C836.213 258.683 836.773 259.146 837.566 259.146ZM849.475 259.173C850.049 259.173 850.525 258.934 850.903 258.455C851.286 257.972 851.478 257.252 851.478 256.295C851.478 255.712 851.393 255.21 851.225 254.791C850.906 253.984 850.322 253.581 849.475 253.581C848.622 253.581 848.039 254.007 847.725 254.859C847.556 255.315 847.472 255.894 847.472 256.596C847.472 257.161 847.556 257.642 847.725 258.038C848.044 258.795 848.627 259.173 849.475 259.173ZM846.289 252.713H847.485V253.684C847.731 253.351 848 253.093 848.292 252.911C848.707 252.638 849.194 252.501 849.755 252.501C850.584 252.501 851.288 252.82 851.867 253.458C852.446 254.091 852.735 254.998 852.735 256.179C852.735 257.774 852.318 258.913 851.484 259.597C850.956 260.03 850.34 260.246 849.639 260.246C849.087 260.246 848.625 260.125 848.251 259.884C848.032 259.747 847.788 259.512 847.52 259.18V262.919H846.289V252.713ZM853.48 252.679H855.073L856.755 255.256L858.457 252.679L859.954 252.713L857.486 256.247L860.063 260H858.491L856.673 257.252L854.909 260H853.351L855.928 256.247L853.48 252.679Z" fill="#C92E34"/>
<path d="M70.6279 256.534V252.098L67.4902 256.534H70.6279ZM70.6484 260V257.607H66.3555V256.404L70.8398 250.184H71.8789V256.534H73.3213V257.607H71.8789V260H70.6484ZM77.5801 250.211C78.847 250.211 79.763 250.733 80.3281 251.776C80.7656 252.583 80.9844 253.688 80.9844 255.092C80.9844 256.423 80.7861 257.523 80.3896 258.394C79.8154 259.642 78.8766 260.267 77.5732 260.267C76.3975 260.267 75.5225 259.756 74.9482 258.735C74.4697 257.883 74.2305 256.739 74.2305 255.304C74.2305 254.192 74.374 253.237 74.6611 252.439C75.1989 250.954 76.1719 250.211 77.5801 250.211ZM77.5664 259.146C78.2044 259.146 78.7126 258.863 79.0908 258.298C79.4691 257.733 79.6582 256.68 79.6582 255.14C79.6582 254.028 79.5215 253.114 79.248 252.398C78.9746 251.678 78.4437 251.318 77.6553 251.318C76.9307 251.318 76.3997 251.66 76.0625 252.344C75.7298 253.023 75.5635 254.025 75.5635 255.352C75.5635 256.35 75.6706 257.152 75.8848 257.758C76.2129 258.683 76.7734 259.146 77.5664 259.146ZM89.4746 259.173C90.0488 259.173 90.5251 258.934 90.9033 258.455C91.2861 257.972 91.4775 257.252 91.4775 256.295C91.4775 255.712 91.3932 255.21 91.2246 254.791C90.9056 253.984 90.3223 253.581 89.4746 253.581C88.6224 253.581 88.0391 254.007 87.7246 254.859C87.556 255.315 87.4717 255.894 87.4717 256.596C87.4717 257.161 87.556 257.642 87.7246 258.038C88.0436 258.795 88.627 259.173 89.4746 259.173ZM86.2891 252.713H87.4854V253.684C87.7314 253.351 88.0003 253.093 88.292 252.911C88.7067 252.638 89.1943 252.501 89.7549 252.501C90.5843 252.501 91.2884 252.82 91.8672 253.458C92.446 254.091 92.7354 254.998 92.7354 256.179C92.7354 257.774 92.3184 258.913 91.4844 259.597C90.9557 260.03 90.3405 260.246 89.6387 260.246C89.0872 260.246 88.6247 260.125 88.251 259.884C88.0322 259.747 87.7884 259.512 87.5195 259.18V262.919H86.2891V252.713ZM93.4805 252.679H95.0732L96.7549 255.256L98.457 252.679L99.9541 252.713L97.4863 256.247L100.063 260H98.4912L96.6729 257.252L94.9092 260H93.3506L95.9277 256.247L93.4805 252.679Z" fill="#C92E34"/>
<path d="M864 77L864 97L64 97L64 77L864 77Z" fill="#FF685D" fill-opacity="0.2"/>
<path d="M864 386L864 406L64 406L64 386L864 386Z" fill="#FF685D" fill-opacity="0.2"/>
<path d="M446.438 92C446.483 91.1569 446.656 90.4232 446.957 89.7988C447.262 89.1745 447.855 88.6071 448.734 88.0967L450.047 87.3379C450.635 86.9961 451.047 86.7044 451.284 86.4629C451.658 86.0846 451.845 85.6517 451.845 85.1641C451.845 84.5944 451.674 84.1432 451.332 83.8105C450.99 83.4733 450.535 83.3047 449.965 83.3047C449.122 83.3047 448.538 83.6237 448.215 84.2617C448.042 84.6035 447.946 85.0775 447.928 85.6836H446.677C446.69 84.8314 446.848 84.1364 447.148 83.5986C447.682 82.6507 448.623 82.1768 449.972 82.1768C451.093 82.1768 451.911 82.4798 452.426 83.0859C452.945 83.6921 453.205 84.3665 453.205 85.1094C453.205 85.8932 452.929 86.5632 452.378 87.1191C452.059 87.4427 451.487 87.8346 450.662 88.2949L449.726 88.8145C449.279 89.0605 448.928 89.2952 448.673 89.5186C448.217 89.915 447.93 90.3548 447.812 90.8379H453.157V92H446.438ZM457.58 82.2109C458.847 82.2109 459.763 82.7327 460.328 83.7764C460.766 84.583 460.984 85.6882 460.984 87.0918C460.984 88.4225 460.786 89.5231 460.39 90.3936C459.815 91.6423 458.877 92.2666 457.573 92.2666C456.397 92.2666 455.522 91.7562 454.948 90.7354C454.47 89.8831 454.23 88.7393 454.23 87.3037C454.23 86.1917 454.374 85.237 454.661 84.4395C455.199 82.9538 456.172 82.2109 457.58 82.2109ZM457.566 91.1455C458.204 91.1455 458.713 90.863 459.091 90.2979C459.469 89.7327 459.658 88.68 459.658 87.1396C459.658 86.0277 459.521 85.1139 459.248 84.3984C458.975 83.6784 458.444 83.3184 457.655 83.3184C456.931 83.3184 456.4 83.6602 456.062 84.3438C455.73 85.0228 455.563 86.0254 455.563 87.3516C455.563 88.3496 455.671 89.1517 455.885 89.7578C456.213 90.6829 456.773 91.1455 457.566 91.1455ZM469.475 91.1729C470.049 91.1729 470.525 90.9336 470.903 90.4551C471.286 89.972 471.478 89.252 471.478 88.2949C471.478 87.7116 471.393 87.2103 471.225 86.791C470.906 85.9844 470.322 85.5811 469.475 85.5811C468.622 85.5811 468.039 86.0072 467.725 86.8594C467.556 87.3151 467.472 87.8939 467.472 88.5957C467.472 89.1608 467.556 89.6416 467.725 90.0381C468.044 90.7946 468.627 91.1729 469.475 91.1729ZM466.289 84.7129H467.485V85.6836C467.731 85.3509 468 85.0934 468.292 84.9111C468.707 84.6377 469.194 84.501 469.755 84.501C470.584 84.501 471.288 84.82 471.867 85.458C472.446 86.0915 472.735 86.9984 472.735 88.1787C472.735 89.7738 472.318 90.9131 471.484 91.5967C470.956 92.0296 470.34 92.2461 469.639 92.2461C469.087 92.2461 468.625 92.1253 468.251 91.8838C468.032 91.7471 467.788 91.5124 467.52 91.1797V94.9189H466.289V84.7129ZM473.48 84.6787H475.073L476.755 87.2559L478.457 84.6787L479.954 84.7129L477.486 88.2471L480.063 92H478.491L476.673 89.252L474.909 92H473.351L475.928 88.2471L473.48 84.6787Z" fill="#C92E34"/>
<path d="M446.438 401C446.483 400.157 446.656 399.423 446.957 398.799C447.262 398.174 447.855 397.607 448.734 397.097L450.047 396.338C450.635 395.996 451.047 395.704 451.284 395.463C451.658 395.085 451.845 394.652 451.845 394.164C451.845 393.594 451.674 393.143 451.332 392.811C450.99 392.473 450.535 392.305 449.965 392.305C449.122 392.305 448.538 392.624 448.215 393.262C448.042 393.604 447.946 394.077 447.928 394.684H446.677C446.69 393.831 446.848 393.136 447.148 392.599C447.682 391.651 448.623 391.177 449.972 391.177C451.093 391.177 451.911 391.48 452.426 392.086C452.945 392.692 453.205 393.367 453.205 394.109C453.205 394.893 452.929 395.563 452.378 396.119C452.059 396.443 451.487 396.835 450.662 397.295L449.726 397.814C449.279 398.061 448.928 398.295 448.673 398.519C448.217 398.915 447.93 399.355 447.812 399.838H453.157V401H446.438ZM457.58 391.211C458.847 391.211 459.763 391.733 460.328 392.776C460.766 393.583 460.984 394.688 460.984 396.092C460.984 397.423 460.786 398.523 460.39 399.394C459.815 400.642 458.877 401.267 457.573 401.267C456.397 401.267 455.522 400.756 454.948 399.735C454.47 398.883 454.23 397.739 454.23 396.304C454.23 395.192 454.374 394.237 454.661 393.439C455.199 391.954 456.172 391.211 457.58 391.211ZM457.566 400.146C458.204 400.146 458.713 399.863 459.091 399.298C459.469 398.733 459.658 397.68 459.658 396.14C459.658 395.028 459.521 394.114 459.248 393.398C458.975 392.678 458.444 392.318 457.655 392.318C456.931 392.318 456.4 392.66 456.062 393.344C455.73 394.023 455.563 395.025 455.563 396.352C455.563 397.35 455.671 398.152 455.885 398.758C456.213 399.683 456.773 400.146 457.566 400.146ZM469.475 400.173C470.049 400.173 470.525 399.934 470.903 399.455C471.286 398.972 471.478 398.252 471.478 397.295C471.478 396.712 471.393 396.21 471.225 395.791C470.906 394.984 470.322 394.581 469.475 394.581C468.622 394.581 468.039 395.007 467.725 395.859C467.556 396.315 467.472 396.894 467.472 397.596C467.472 398.161 467.556 398.642 467.725 399.038C468.044 399.795 468.627 400.173 469.475 400.173ZM466.289 393.713H467.485V394.684C467.731 394.351 468 394.093 468.292 393.911C468.707 393.638 469.194 393.501 469.755 393.501C470.584 393.501 471.288 393.82 471.867 394.458C472.446 395.091 472.735 395.998 472.735 397.179C472.735 398.774 472.318 399.913 471.484 400.597C470.956 401.03 470.34 401.246 469.639 401.246C469.087 401.246 468.625 401.125 468.251 400.884C468.032 400.747 467.788 400.512 467.52 400.18V403.919H466.289V393.713ZM473.48 393.679H475.073L476.755 396.256L478.457 393.679L479.954 393.713L477.486 397.247L480.063 401H478.491L476.673 398.252L474.909 401H473.351L475.928 397.247L473.48 393.679Z" fill="#C92E34"/>
<path d="M822.251 240V208" stroke="#C92E34"/>
<path d="M820.504 208H824" stroke="#C92E34"/>
<path d="M820.504 240H824" stroke="#C92E34"/>
<path d="M820.504 240H824" stroke="#C92E34"/>
<path d="M104 240H820.862" stroke="#C92E34" stroke-dasharray="1 1"/>
<path d="M104 208L820.862 208" stroke="#C92E34" stroke-dasharray="1 1"/>
<path d="M822.251 174V162" stroke="#C92E34"/>
<path d="M820.504 162H824" stroke="#C92E34"/>
<path d="M820.504 174H824" stroke="#C92E34"/>
<path d="M820.504 174H824" stroke="#C92E34"/>
<path d="M104 174H820.862" stroke="#C92E34" stroke-dasharray="1 1"/>
<path d="M104 162L820.862 162" stroke="#C92E34" stroke-dasharray="1 1"/>
<path d="M864.389 87V77" stroke="#C92E34"/>
<path d="M862.642 77H866.138" stroke="#C92E34"/>
<path d="M862.642 87H866.138" stroke="#C92E34"/>
<path d="M862.642 87H866.138" stroke="#C92E34"/>
<path d="M822 87L863 87" stroke="#C92E34" stroke-dasharray="1 1"/>
<path d="M822 77L863 77" stroke="#C92E34" stroke-dasharray="1 1"/>
<path d="M864 76.7485L854 76.7485" stroke="#C92E34"/>
<path d="M854 78.4961L854 75.0002" stroke="#C92E34"/>
<path d="M864 78.4961L864 75.0002" stroke="#C92E34"/>
<path d="M864 78.4961L864 75.0002" stroke="#C92E34"/>
<path d="M864 119.138L864 78.1377" stroke="#C92E34" stroke-dasharray="1 1"/>
<path d="M854 119.138L854 78.1377" stroke="#C92E34" stroke-dasharray="1 1"/>
<path d="M822.251 322V290" stroke="#C92E34"/>
<path d="M820.504 290H824" stroke="#C92E34"/>
<path d="M820.504 322H824" stroke="#C92E34"/>
<path d="M820.504 322H824" stroke="#C92E34"/>
<path d="M104 322H820.862" stroke="#C92E34" stroke-dasharray="1 1"/>
<path d="M104 290H820.862" stroke="#C92E34" stroke-dasharray="1 1"/>
<path d="M782.637 229.267C781.479 229.267 780.638 228.95 780.114 228.316C779.595 227.678 779.335 226.904 779.335 225.992H780.62C780.675 226.626 780.793 227.086 780.976 227.373C781.295 227.888 781.871 228.146 782.705 228.146C783.352 228.146 783.872 227.972 784.264 227.626C784.656 227.28 784.852 226.833 784.852 226.286C784.852 225.612 784.644 225.14 784.229 224.871C783.819 224.602 783.247 224.468 782.514 224.468C782.432 224.468 782.347 224.47 782.261 224.475C782.179 224.475 782.094 224.477 782.008 224.481V223.395C782.135 223.408 782.243 223.417 782.329 223.422C782.416 223.426 782.509 223.429 782.609 223.429C783.07 223.429 783.448 223.356 783.744 223.21C784.264 222.955 784.523 222.499 784.523 221.843C784.523 221.355 784.35 220.979 784.004 220.715C783.658 220.451 783.254 220.318 782.794 220.318C781.974 220.318 781.406 220.592 781.092 221.139C780.919 221.439 780.821 221.868 780.798 222.424H779.581C779.581 221.695 779.727 221.075 780.019 220.564C780.52 219.653 781.402 219.197 782.664 219.197C783.662 219.197 784.435 219.421 784.981 219.867C785.528 220.309 785.802 220.952 785.802 221.795C785.802 222.396 785.64 222.884 785.316 223.258C785.116 223.49 784.856 223.673 784.537 223.805C785.052 223.946 785.453 224.219 785.74 224.625C786.032 225.026 786.178 225.518 786.178 226.102C786.178 227.036 785.87 227.797 785.255 228.385C784.64 228.973 783.767 229.267 782.637 229.267ZM787.23 229C787.276 228.157 787.449 227.423 787.75 226.799C788.055 226.174 788.648 225.607 789.527 225.097L790.84 224.338C791.428 223.996 791.84 223.704 792.077 223.463C792.451 223.085 792.638 222.652 792.638 222.164C792.638 221.594 792.467 221.143 792.125 220.811C791.783 220.473 791.327 220.305 790.758 220.305C789.915 220.305 789.331 220.624 789.008 221.262C788.835 221.604 788.739 222.077 788.721 222.684H787.47C787.483 221.831 787.641 221.136 787.941 220.599C788.475 219.651 789.416 219.177 790.765 219.177C791.886 219.177 792.704 219.48 793.219 220.086C793.738 220.692 793.998 221.367 793.998 222.109C793.998 222.893 793.722 223.563 793.171 224.119C792.852 224.443 792.28 224.835 791.455 225.295L790.519 225.814C790.072 226.061 789.721 226.295 789.466 226.519C789.01 226.915 788.723 227.355 788.604 227.838H793.95V229H787.23ZM802.475 228.173C803.049 228.173 803.525 227.934 803.903 227.455C804.286 226.972 804.478 226.252 804.478 225.295C804.478 224.712 804.393 224.21 804.225 223.791C803.906 222.984 803.322 222.581 802.475 222.581C801.622 222.581 801.039 223.007 800.725 223.859C800.556 224.315 800.472 224.894 800.472 225.596C800.472 226.161 800.556 226.642 800.725 227.038C801.044 227.795 801.627 228.173 802.475 228.173ZM799.289 221.713H800.485V222.684C800.731 222.351 801 222.093 801.292 221.911C801.707 221.638 802.194 221.501 802.755 221.501C803.584 221.501 804.288 221.82 804.867 222.458C805.446 223.091 805.735 223.998 805.735 225.179C805.735 226.774 805.318 227.913 804.484 228.597C803.956 229.03 803.34 229.246 802.639 229.246C802.087 229.246 801.625 229.125 801.251 228.884C801.032 228.747 800.788 228.512 800.52 228.18V231.919H799.289V221.713ZM806.48 221.679H808.073L809.755 224.256L811.457 221.679L812.954 221.713L810.486 225.247L813.063 229H811.491L809.673 226.252L807.909 229H806.351L808.928 225.247L806.48 221.679Z" fill="#C92E34"/>
<path d="M780.34 167.068V166.125C781.229 166.038 781.848 165.895 782.199 165.694C782.55 165.489 782.812 165.008 782.985 164.252H783.956V174H782.644V167.068H780.34ZM787.23 174C787.276 173.157 787.449 172.423 787.75 171.799C788.055 171.174 788.648 170.607 789.527 170.097L790.84 169.338C791.428 168.996 791.84 168.704 792.077 168.463C792.451 168.085 792.638 167.652 792.638 167.164C792.638 166.594 792.467 166.143 792.125 165.811C791.783 165.473 791.327 165.305 790.758 165.305C789.915 165.305 789.331 165.624 789.008 166.262C788.835 166.604 788.739 167.077 788.721 167.684H787.47C787.483 166.831 787.641 166.136 787.941 165.599C788.475 164.651 789.416 164.177 790.765 164.177C791.886 164.177 792.704 164.48 793.219 165.086C793.738 165.692 793.998 166.367 793.998 167.109C793.998 167.893 793.722 168.563 793.171 169.119C792.852 169.443 792.28 169.835 791.455 170.295L790.519 170.814C790.072 171.061 789.721 171.295 789.466 171.519C789.01 171.915 788.723 172.355 788.604 172.838H793.95V174H787.23ZM802.475 173.173C803.049 173.173 803.525 172.934 803.903 172.455C804.286 171.972 804.478 171.252 804.478 170.295C804.478 169.712 804.393 169.21 804.225 168.791C803.906 167.984 803.322 167.581 802.475 167.581C801.622 167.581 801.039 168.007 800.725 168.859C800.556 169.315 800.472 169.894 800.472 170.596C800.472 171.161 800.556 171.642 800.725 172.038C801.044 172.795 801.627 173.173 802.475 173.173ZM799.289 166.713H800.485V167.684C800.731 167.351 801 167.093 801.292 166.911C801.707 166.638 802.194 166.501 802.755 166.501C803.584 166.501 804.288 166.82 804.867 167.458C805.446 168.091 805.735 168.998 805.735 170.179C805.735 171.774 805.318 172.913 804.484 173.597C803.956 174.03 803.34 174.246 802.639 174.246C802.087 174.246 801.625 174.125 801.251 173.884C801.032 173.747 800.788 173.512 800.52 173.18V176.919H799.289V166.713ZM806.48 166.679H808.073L809.755 169.256L811.457 166.679L812.954 166.713L810.486 170.247L813.063 174H811.491L809.673 171.252L807.909 174H806.351L808.928 170.247L806.48 166.679Z" fill="#C92E34"/>
<path d="M872.34 93.0684V92.125C873.229 92.0384 873.848 91.8949 874.199 91.6943C874.55 91.4893 874.812 91.0085 874.985 90.252H875.956V100H874.644V93.0684H872.34ZM882.58 90.2109C883.847 90.2109 884.763 90.7327 885.328 91.7764C885.766 92.583 885.984 93.6882 885.984 95.0918C885.984 96.4225 885.786 97.5231 885.39 98.3936C884.815 99.6423 883.877 100.267 882.573 100.267C881.397 100.267 880.522 99.7562 879.948 98.7354C879.47 97.8831 879.23 96.7393 879.23 95.3037C879.23 94.1917 879.374 93.237 879.661 92.4395C880.199 90.9538 881.172 90.2109 882.58 90.2109ZM882.566 99.1455C883.204 99.1455 883.713 98.863 884.091 98.2979C884.469 97.7327 884.658 96.68 884.658 95.1396C884.658 94.0277 884.521 93.1139 884.248 92.3984C883.975 91.6784 883.444 91.3184 882.655 91.3184C881.931 91.3184 881.4 91.6602 881.062 92.3438C880.73 93.0228 880.563 94.0254 880.563 95.3516C880.563 96.3496 880.671 97.1517 880.885 97.7578C881.213 98.6829 881.773 99.1455 882.566 99.1455ZM894.475 99.1729C895.049 99.1729 895.525 98.9336 895.903 98.4551C896.286 97.972 896.478 97.252 896.478 96.2949C896.478 95.7116 896.393 95.2103 896.225 94.791C895.906 93.9844 895.322 93.5811 894.475 93.5811C893.622 93.5811 893.039 94.0072 892.725 94.8594C892.556 95.3151 892.472 95.8939 892.472 96.5957C892.472 97.1608 892.556 97.6416 892.725 98.0381C893.044 98.7946 893.627 99.1729 894.475 99.1729ZM891.289 92.7129H892.485V93.6836C892.731 93.3509 893 93.0934 893.292 92.9111C893.707 92.6377 894.194 92.501 894.755 92.501C895.584 92.501 896.288 92.82 896.867 93.458C897.446 94.0915 897.735 94.9984 897.735 96.1787C897.735 97.7738 897.318 98.9131 896.484 99.5967C895.956 100.03 895.34 100.246 894.639 100.246C894.087 100.246 893.625 100.125 893.251 99.8838C893.032 99.7471 892.788 99.5124 892.52 99.1797V102.919H891.289V92.7129ZM898.48 92.6787H900.073L901.755 95.2559L903.457 92.6787L904.954 92.7129L902.486 96.2471L905.063 100H903.491L901.673 97.252L899.909 100H898.351L900.928 96.2471L898.48 92.6787Z" fill="white"/>
<path d="M828.34 61.0684V60.125C829.229 60.0384 829.848 59.8949 830.199 59.6943C830.55 59.4893 830.812 59.0085 830.985 58.252H831.956V68H830.644V61.0684H828.34ZM838.58 58.2109C839.847 58.2109 840.763 58.7327 841.328 59.7764C841.766 60.583 841.984 61.6882 841.984 63.0918C841.984 64.4225 841.786 65.5231 841.39 66.3936C840.815 67.6423 839.877 68.2666 838.573 68.2666C837.397 68.2666 836.522 67.7562 835.948 66.7354C835.47 65.8831 835.23 64.7393 835.23 63.3037C835.23 62.1917 835.374 61.237 835.661 60.4395C836.199 58.9538 837.172 58.2109 838.58 58.2109ZM838.566 67.1455C839.204 67.1455 839.713 66.863 840.091 66.2979C840.469 65.7327 840.658 64.68 840.658 63.1396C840.658 62.0277 840.521 61.1139 840.248 60.3984C839.975 59.6784 839.444 59.3184 838.655 59.3184C837.931 59.3184 837.4 59.6602 837.062 60.3438C836.73 61.0228 836.563 62.0254 836.563 63.3516C836.563 64.3496 836.671 65.1517 836.885 65.7578C837.213 66.6829 837.773 67.1455 838.566 67.1455ZM850.475 67.1729C851.049 67.1729 851.525 66.9336 851.903 66.4551C852.286 65.972 852.478 65.252 852.478 64.2949C852.478 63.7116 852.393 63.2103 852.225 62.791C851.906 61.9844 851.322 61.5811 850.475 61.5811C849.622 61.5811 849.039 62.0072 848.725 62.8594C848.556 63.3151 848.472 63.8939 848.472 64.5957C848.472 65.1608 848.556 65.6416 848.725 66.0381C849.044 66.7946 849.627 67.1729 850.475 67.1729ZM847.289 60.7129H848.485V61.6836C848.731 61.3509 849 61.0934 849.292 60.9111C849.707 60.6377 850.194 60.501 850.755 60.501C851.584 60.501 852.288 60.82 852.867 61.458C853.446 62.0915 853.735 62.9984 853.735 64.1787C853.735 65.7738 853.318 66.9131 852.484 67.5967C851.956 68.0296 851.34 68.2461 850.639 68.2461C850.087 68.2461 849.625 68.1253 849.251 67.8838C849.032 67.7471 848.788 67.5124 848.52 67.1797V70.9189H847.289V60.7129ZM854.48 60.6787H856.073L857.755 63.2559L859.457 60.6787L860.954 60.7129L858.486 64.2471L861.063 68H859.491L857.673 65.252L855.909 68H854.351L856.928 64.2471L854.48 60.6787Z" fill="white"/>
<path d="M782.637 311.267C781.479 311.267 780.638 310.95 780.114 310.316C779.595 309.678 779.335 308.904 779.335 307.992H780.62C780.675 308.626 780.793 309.086 780.976 309.373C781.295 309.888 781.871 310.146 782.705 310.146C783.352 310.146 783.872 309.972 784.264 309.626C784.656 309.28 784.852 308.833 784.852 308.286C784.852 307.612 784.644 307.14 784.229 306.871C783.819 306.602 783.247 306.468 782.514 306.468C782.432 306.468 782.347 306.47 782.261 306.475C782.179 306.475 782.094 306.477 782.008 306.481V305.395C782.135 305.408 782.243 305.417 782.329 305.422C782.416 305.426 782.509 305.429 782.609 305.429C783.07 305.429 783.448 305.356 783.744 305.21C784.264 304.955 784.523 304.499 784.523 303.843C784.523 303.355 784.35 302.979 784.004 302.715C783.658 302.451 783.254 302.318 782.794 302.318C781.974 302.318 781.406 302.592 781.092 303.139C780.919 303.439 780.821 303.868 780.798 304.424H779.581C779.581 303.695 779.727 303.075 780.019 302.564C780.52 301.653 781.402 301.197 782.664 301.197C783.662 301.197 784.435 301.421 784.981 301.867C785.528 302.309 785.802 302.952 785.802 303.795C785.802 304.396 785.64 304.884 785.316 305.258C785.116 305.49 784.856 305.673 784.537 305.805C785.052 305.946 785.453 306.219 785.74 306.625C786.032 307.026 786.178 307.518 786.178 308.102C786.178 309.036 785.87 309.797 785.255 310.385C784.64 310.973 783.767 311.267 782.637 311.267ZM787.23 311C787.276 310.157 787.449 309.423 787.75 308.799C788.055 308.174 788.648 307.607 789.527 307.097L790.84 306.338C791.428 305.996 791.84 305.704 792.077 305.463C792.451 305.085 792.638 304.652 792.638 304.164C792.638 303.594 792.467 303.143 792.125 302.811C791.783 302.473 791.327 302.305 790.758 302.305C789.915 302.305 789.331 302.624 789.008 303.262C788.835 303.604 788.739 304.077 788.721 304.684H787.47C787.483 303.831 787.641 303.136 787.941 302.599C788.475 301.651 789.416 301.177 790.765 301.177C791.886 301.177 792.704 301.48 793.219 302.086C793.738 302.692 793.998 303.367 793.998 304.109C793.998 304.893 793.722 305.563 793.171 306.119C792.852 306.443 792.28 306.835 791.455 307.295L790.519 307.814C790.072 308.061 789.721 308.295 789.466 308.519C789.01 308.915 788.723 309.355 788.604 309.838H793.95V311H787.23ZM802.475 310.173C803.049 310.173 803.525 309.934 803.903 309.455C804.286 308.972 804.478 308.252 804.478 307.295C804.478 306.712 804.393 306.21 804.225 305.791C803.906 304.984 803.322 304.581 802.475 304.581C801.622 304.581 801.039 305.007 800.725 305.859C800.556 306.315 800.472 306.894 800.472 307.596C800.472 308.161 800.556 308.642 800.725 309.038C801.044 309.795 801.627 310.173 802.475 310.173ZM799.289 303.713H800.485V304.684C800.731 304.351 801 304.093 801.292 303.911C801.707 303.638 802.194 303.501 802.755 303.501C803.584 303.501 804.288 303.82 804.867 304.458C805.446 305.091 805.735 305.998 805.735 307.179C805.735 308.774 805.318 309.913 804.484 310.597C803.956 311.03 803.34 311.246 802.639 311.246C802.087 311.246 801.625 311.125 801.251 310.884C801.032 310.747 800.788 310.512 800.52 310.18V313.919H799.289V303.713ZM806.48 303.679H808.073L809.755 306.256L811.457 303.679L812.954 303.713L810.486 307.247L813.063 311H811.491L809.673 308.252L807.909 311H806.351L808.928 307.247L806.48 303.679Z" fill="#C92E34"/>
<defs>
<filter id="filter0_d_2747_134" x="59" y="72" width="810" height="339" filterUnits="userSpaceOnUse" color-interpolation-filters="sRGB">
<feFlood flood-opacity="0" result="BackgroundImageFix"/>
<feColorMatrix in="SourceAlpha" type="matrix" values="0 0 0 0 0 0 0 0 0 0 0 0 0 0 0 0 0 0 127 0" result="hardAlpha"/>
<feOffset/>
<feGaussianBlur stdDeviation="2.5"/>
<feComposite in2="hardAlpha" operator="out"/>
<feColorMatrix type="matrix" values="0 0 0 0 0 0 0 0 0 0 0 0 0 0 0 0 0 0 0.9 0"/>
<feBlend mode="normal" in2="BackgroundImageFix" result="effect1_dropShadow_2747_134"/>
<feBlend mode="normal" in="SourceGraphic" in2="effect1_dropShadow_2747_134" result="shape"/>
</filter>
<clipPath id="clip0_2747_134">
<rect width="64" height="64" fill="white" transform="translate(432 97)"/>
</clipPath>
<clipPath id="clip1_2747_134">
<rect width="32" height="32" fill="white" transform="translate(822 87)"/>
</clipPath>
</defs>
</svg>
