<svg width="1250" height="200" viewBox="0 0 1250 200" fill="none" xmlns="http://www.w3.org/2000/svg">
<rect width="1250" height="200" fill="white"/>
<rect y="2" width="1181" height="112" fill="#F5F5F5"/>
<g filter="url(#filter0_d_4_1002)">
<rect x="18" y="21" width="1145" height="70" fill="white"/>
</g>
<path d="M653.094 56.399V59.493H646.867V56.399H653.094ZM645.892 60.988H646.867V60.416H653.094V60.962H654.121V55.489H645.892V60.988ZM651.586 51.16C652.145 51.628 652.73 52.174 653.276 52.733C651.261 52.824 649.22 52.915 647.439 52.98C648.167 51.927 648.947 50.601 649.545 49.444L648.479 49.08C647.972 50.276 647.088 51.875 646.321 53.032C645.606 53.058 644.943 53.084 644.371 53.097L644.436 54.059C646.815 53.955 650.559 53.825 654.095 53.63C654.472 54.085 654.797 54.514 655.018 54.878L655.85 54.241C655.187 53.175 653.653 51.654 652.34 50.614L651.586 51.16ZM662.35 49.366C662.142 49.821 661.752 50.51 661.44 50.952L662.038 51.212C662.376 50.809 662.779 50.224 663.156 49.678L662.35 49.366ZM659.334 50.848C659.178 50.445 658.801 49.847 658.424 49.405L657.748 49.717C658.099 50.159 658.463 50.796 658.619 51.212L659.334 50.848ZM667.628 56.425H663.429V55.632H662.493V56.425H658.541V60.351H659.49V57.27H662.493V60.988H663.429V57.27H666.679V59.298C666.679 59.467 666.614 59.519 666.406 59.532C666.198 59.532 665.431 59.532 664.599 59.519C664.729 59.74 664.885 60.078 664.937 60.312C666.016 60.312 666.692 60.312 667.108 60.182C667.511 60.052 667.628 59.792 667.628 59.311V56.425ZM659.1 52.395C659.009 53.123 658.866 53.825 658.554 54.371C658.71 54.423 658.957 54.553 659.061 54.631C659.373 54.098 659.555 53.279 659.659 52.499L659.1 52.395ZM663.065 51.277H660.803V49.132H659.958V51.277H657.709V55.762H658.45V51.927H660.062V55.619H660.725V51.927H662.324V54.826C662.324 54.93 662.298 54.969 662.181 54.969H661.31C661.401 55.138 661.518 55.424 661.544 55.619C662.116 55.619 662.506 55.619 662.74 55.489C663.013 55.385 663.065 55.177 663.065 54.826V51.277ZM667.16 51.225C666.913 51.966 666.549 52.59 666.081 53.123C665.6 52.564 665.223 51.914 664.963 51.225H667.16ZM668.85 51.225V50.458H665.301C665.483 50.094 665.639 49.704 665.756 49.301L664.924 49.132C664.586 50.302 663.923 51.355 663.065 52.057C663.26 52.2 663.572 52.512 663.689 52.655C663.949 52.434 664.196 52.161 664.43 51.875C664.716 52.525 665.08 53.123 665.522 53.643C664.898 54.15 664.144 54.54 663.286 54.826C663.442 54.995 663.689 55.372 663.78 55.567C664.651 55.229 665.431 54.8 666.081 54.267C666.744 54.904 667.524 55.411 668.408 55.749C668.525 55.528 668.772 55.203 668.954 55.06C668.083 54.774 667.303 54.319 666.653 53.721C667.29 53.045 667.758 52.226 668.07 51.225H668.85ZM662.077 54.124C662.025 53.669 661.83 52.941 661.596 52.408L661.102 52.538C661.323 53.097 661.505 53.825 661.544 54.28L662.077 54.124ZM681.655 51.745V50.809H675.038C675.22 50.341 675.389 49.86 675.532 49.379L674.518 49.119C674.362 49.678 674.18 50.25 673.959 50.809H670.358V51.745H673.556C672.724 53.526 671.528 55.19 669.955 56.308C670.124 56.516 670.371 56.945 670.475 57.192C671.021 56.802 671.528 56.36 671.983 55.866V60.962H672.945V54.722C673.621 53.799 674.193 52.798 674.648 51.745H681.655ZM681.902 56.529H678.457V55.866C679.38 55.268 680.394 54.41 681.083 53.617L680.459 53.136L680.264 53.201H674.973V54.072H679.419C678.964 54.527 678.405 54.995 677.872 55.333H677.495V56.529H673.868V57.439H677.495V59.844C677.495 60.026 677.443 60.078 677.209 60.091C676.975 60.091 676.221 60.104 675.35 60.078C675.48 60.338 675.61 60.715 675.662 60.988C676.767 60.988 677.482 60.975 677.911 60.845C678.34 60.689 678.457 60.416 678.457 59.857V57.439H681.902V56.529ZM694.876 59.48H684.697V50.601H694.538V49.73H683.748V61.001H684.697V60.364H694.876V59.48ZM690.963 54.15H689.299V53.149H690.963V54.15ZM690.963 55.905H689.299V54.839H690.963V55.905ZM690.963 57.712H689.299V56.594H690.963V57.712ZM689.299 58.934V58.453H694.317V57.712H691.821V56.594H693.862V55.905H691.821V54.839H693.862V54.15H691.821V53.149H694.161V52.395H691.899C692.081 52.018 692.276 51.576 692.471 51.16L691.574 50.926C691.457 51.355 691.236 51.927 691.015 52.395H689.468C689.689 51.953 689.897 51.498 690.066 51.043L689.26 50.822C688.753 52.226 687.921 53.591 686.972 54.475C687.154 54.631 687.44 54.982 687.57 55.125C687.869 54.826 688.168 54.475 688.441 54.098V58.934H689.299ZM684.775 53.682C685.399 53.955 686.127 54.423 686.478 54.761L687.011 54.15C686.647 53.812 685.893 53.383 685.282 53.136L684.775 53.682ZM687.635 51.992C687.297 51.641 686.582 51.212 685.997 50.939L685.464 51.472C686.062 51.771 686.764 52.226 687.089 52.577L687.635 51.992ZM686.855 55.736C686.374 56.672 685.763 57.699 685.321 58.336L685.997 58.934C686.478 58.128 687.024 57.127 687.44 56.269L686.855 55.736Z" fill="#4A4A4A"/>
<path d="M754.089 49.886C753.556 49.6 752.568 49.275 751.814 49.119L751.346 49.626C752.126 49.821 753.088 50.172 753.595 50.445L754.089 49.886ZM747.472 50.861L747.563 51.615L750.189 51.459C751.151 52.759 752.672 53.552 753.985 53.552C754.791 53.552 755.129 53.253 755.259 52.083C755.012 52.018 754.713 51.888 754.518 51.732C754.466 52.473 754.362 52.694 754.024 52.694C753.153 52.707 752.087 52.226 751.294 51.394L755.116 51.16L755.038 50.406L750.722 50.666C750.423 50.211 750.215 49.691 750.137 49.119H749.24C749.318 49.704 749.487 50.237 749.734 50.731L747.472 50.861ZM746.328 57.374H752.841V58.284H746.328V57.374ZM746.328 55.853H752.841V56.75H746.328V55.853ZM746.328 54.358H752.841V55.229H746.328V54.358ZM745.392 58.921H753.803V53.708H745.392V58.921ZM745.99 53.344H746.913V50.627C747.381 50.237 747.81 49.821 748.161 49.392L747.29 49.067C746.406 50.12 744.898 51.108 743.481 51.732C743.702 51.888 744.053 52.239 744.196 52.421C744.781 52.122 745.392 51.758 745.99 51.342V53.344ZM747.55 59.051C746.627 59.571 745.067 60.026 743.741 60.299C743.962 60.468 744.287 60.845 744.456 61.027C745.743 60.676 747.368 60.078 748.421 59.467L747.55 59.051ZM750.579 59.584C751.996 60.052 753.4 60.598 754.206 61.014L755.272 60.533C754.323 60.104 752.776 59.545 751.372 59.09L750.579 59.584ZM759.237 52.291H757.014V53.097H762.409V52.291H760.147V51.173H762.669V50.354H760.147V49.171H759.237V50.354H756.715V51.173H759.237V52.291ZM757.56 57.14C757.313 58.115 756.91 59.077 756.364 59.74C756.572 59.831 756.949 60.026 757.105 60.143C757.638 59.441 758.106 58.362 758.366 57.296L757.56 57.14ZM762.799 56.698V55.866H756.559V56.698H759.25V60C759.25 60.13 759.211 60.169 759.055 60.169C758.925 60.182 758.457 60.182 757.95 60.169C758.067 60.403 758.197 60.754 758.236 61.001C758.977 61.001 759.445 60.988 759.744 60.845C760.069 60.715 760.147 60.455 760.147 60.013V56.698H762.799ZM762.591 59.064C762.422 58.557 762.019 57.738 761.629 57.127L760.901 57.426C761.265 58.063 761.655 58.921 761.824 59.441L762.591 59.064ZM765.763 52.356H767.297C767.18 53.201 767.024 54.124 766.855 54.722L767.622 54.956C767.895 54.098 768.129 52.733 768.298 51.602L767.674 51.42L767.518 51.459H764.346C764.502 50.757 764.632 50.016 764.736 49.262L763.774 49.106C763.514 51.134 763.059 53.11 762.253 54.384V54.072H757.144V54.878H762.253V54.475C762.487 54.592 762.89 54.878 763.046 55.021C763.475 54.293 763.826 53.383 764.112 52.356H764.814V54.111C764.827 55.177 764.45 58.492 761.733 60.221C761.902 60.403 762.175 60.806 762.279 61.001C764.398 59.61 765.165 57.205 765.295 56.1C765.412 57.166 766.088 59.675 767.921 60.988C768.051 60.767 768.35 60.39 768.519 60.182C766.14 58.492 765.75 55.138 765.763 54.111V52.356Z" fill="#4A4A4A"/>
<path d="M829.955 58.453H832.672V57.66H829.955V56.568H828.993V57.66H826.341V58.453H828.993V59.818H824.638V60.637H834.44V59.818H829.955V58.453ZM827.16 54.41H831.879V55.333H827.16V54.41ZM831.879 51.186V52.057H827.16V51.186H831.879ZM827.16 52.785H831.879V53.682H827.16V52.785ZM835.363 56.152V55.333H832.854V51.186H834.804V50.38H832.854V49.132H831.879V50.38H827.16V49.132H826.211V50.38H824.235V51.186H826.211V55.333H823.637V56.152H826.445C825.704 57.075 824.586 57.894 823.507 58.323C823.728 58.505 823.988 58.83 824.131 59.064C825.392 58.479 826.705 57.361 827.524 56.152H831.593C832.373 57.296 833.634 58.375 834.895 58.895C835.038 58.674 835.311 58.336 835.532 58.154C834.44 57.764 833.335 57.01 832.607 56.152H835.363ZM839.406 53.058C840.68 52.096 841.772 51.017 842.448 50.042C843.202 51.056 844.372 52.135 845.646 53.058H839.406ZM842.942 56.503H847.401V55.658H842.942V53.916H845.724V53.11C846.439 53.63 847.18 54.098 847.895 54.462C848.051 54.176 848.285 53.851 848.519 53.604C846.504 52.707 844.255 50.965 842.877 49.106H841.915C840.901 50.731 838.769 52.642 836.533 53.773C836.741 53.968 837.014 54.306 837.118 54.527C837.859 54.137 838.587 53.669 839.263 53.175V53.916H841.941V55.658H837.586V56.503H841.941V59.714H837.001V60.572H848.025V59.714H842.942V56.503ZM838.665 57.153C839.172 57.894 839.679 58.895 839.848 59.545L840.68 59.181C840.498 58.531 839.978 57.569 839.445 56.854L838.665 57.153ZM844.736 59.545C845.23 58.934 845.841 57.998 846.322 57.179L845.412 56.828C845.087 57.556 844.489 58.583 844.021 59.22L844.736 59.545Z" fill="#4A4A4A"/>
<path d="M894.771 52.07H892.08V50.432H894.771V52.07ZM894.771 54.488H892.08V52.837H894.771V54.488ZM894.771 56.945H892.08V55.255H894.771V56.945ZM895.707 49.626H891.17V57.725H895.707V49.626ZM892.067 58.011C891.729 58.934 891.144 59.831 890.481 60.429C890.702 60.559 891.092 60.845 891.261 61.001C891.924 60.338 892.587 59.285 892.99 58.245L892.067 58.011ZM893.9 58.375C894.42 59.025 894.992 59.922 895.265 60.507L896.084 60.078C895.811 59.506 895.226 58.648 894.667 58.011L893.9 58.375ZM902.454 52.2H900.79V49.171H899.841V52.2H896.11V53.097H899.49C898.671 55.151 897.28 57.205 895.824 58.232C896.032 58.388 896.318 58.713 896.487 58.947C897.748 57.933 898.97 56.23 899.841 54.345V59.779C899.841 60 899.763 60.065 899.555 60.065C899.36 60.078 898.723 60.078 897.995 60.065C898.138 60.312 898.294 60.741 898.333 61.001C899.321 61.001 899.919 60.962 900.283 60.806C900.647 60.637 900.79 60.351 900.79 59.779V53.097H902.454V52.2ZM908.993 57.075V58.102H905.977V57.075H908.993ZM913.075 58.102H909.929V57.075H913.075V58.102ZM909.929 59.831V58.778H913.075V59.831H909.929ZM905.977 58.778H908.993V59.831H905.977V58.778ZM905.054 60.988H905.977V60.572H913.075V60.936H914.024V56.347H905.054V60.988ZM913.218 51.667H905.821V52.369H913.218V51.667ZM906.796 53.825H912.256V54.93H906.796V53.825ZM913.192 55.619V53.136H905.912V55.619H913.192ZM909.955 49.977V49.119H908.98V49.977H904.092V52.421H905.015V50.809H913.998V52.421H914.947V49.977H909.955ZM925.984 58.544V59.805H919.887V58.544H925.984ZM925.152 55.06V56.165H919.887V55.06H925.152ZM919.887 56.906H926.101V54.319H918.977V61.001H919.887V60.559H925.984V60.975H926.933V57.79H919.887V56.906ZM928.402 50.107H923.995C924.151 49.847 924.281 49.561 924.398 49.288L923.475 49.067C923.215 49.717 922.812 50.328 922.331 50.861V50.107H918.925C919.068 49.847 919.198 49.574 919.302 49.301L918.405 49.067C918.015 50.081 917.313 51.095 916.533 51.771C916.767 51.888 917.144 52.148 917.326 52.291C917.703 51.914 918.093 51.446 918.444 50.913H919.003C919.25 51.368 919.51 51.888 919.614 52.239L920.472 51.979C920.381 51.693 920.186 51.29 919.965 50.913H922.279C922.032 51.186 921.759 51.42 921.473 51.628C921.616 51.693 921.824 51.81 922.006 51.927V52.746H917.105V55.177H918.015V53.513H927.05V55.177H927.986V52.746H922.929V51.732H922.734C922.981 51.485 923.228 51.212 923.462 50.913H924.502C924.866 51.368 925.23 51.901 925.373 52.278L926.257 51.979C926.114 51.68 925.841 51.277 925.555 50.913H928.402V50.107ZM933.589 57.387L932.172 57.855V54.631H933.472V53.734H932.172V50.913H933.667V50.003H929.637V50.913H931.249V53.734H929.78V54.631H931.249V58.141C930.586 58.362 929.988 58.544 929.507 58.687L929.728 59.662C930.885 59.285 932.367 58.778 933.758 58.31L933.589 57.387ZM935.188 53.006H937.164V54.657H935.188V53.006ZM935.188 50.562H937.164V52.2H935.188V50.562ZM939.985 52.2H937.996V50.562H939.985V52.2ZM939.985 54.657H937.996V53.006H939.985V54.657ZM938.074 59.688V57.907H941.103V57.023H938.074V55.502H940.908V49.717H934.304V55.502H937.099V57.023H934.148V57.907H937.099V59.688H933.147V60.572H941.519V59.688H938.074Z" fill="#4A4A4A"/>
<path d="M208.916 47.9782C207.226 50.2074 205.184 52.1511 202.869 53.7341L201.286 50.4887C203.101 49.262 204.708 47.7566 206.047 46.0289C206.993 46.6719 207.939 47.3352 208.916 47.9782Z" fill="#009D95"/>
<path d="M222.463 46.5997H210.051V49.9165H222.463V46.5997Z" fill="#009D95"/>
<path d="M223.372 53.4685V56.6832H220.071L219.999 65.8682C219.919 66.2336 219.756 66.5761 219.522 66.8697C219.289 67.1632 218.991 67.4001 218.651 67.5623C217.129 68.195 215.206 67.9603 213.51 67.9603L212.193 64.6129L216.245 64.5415C216.416 64.4475 216.548 64.2953 216.615 64.1128V56.7445L208.913 56.6526C208.913 55.8464 208.913 55.0095 208.841 54.2748C208.508 54.8562 208.137 55.4153 207.73 55.9485V68.1338H204.347C204.347 65.4906 204.347 62.8065 204.347 60.1633C203.771 60.6021 203.236 61.1328 202.701 61.6023L201.179 57.9895C203.364 56.2689 205.188 54.14 206.547 51.7234L208.913 53.4379L223.372 53.4685Z" fill="#009D95"/>
<path d="M192.631 63.7662C192.364 63.8376 192.497 63.5315 192.261 63.5315C192.189 63.2967 191.963 63.2355 191.798 63.062C191.633 62.8885 191.448 62.8375 191.489 62.5007C191.582 62.5007 191.489 62.1639 191.726 62.2966V62.1946C191.994 62.0458 192.252 61.8787 192.497 61.6945C192.569 61.5924 192.734 61.5924 192.775 61.4598C192.816 61.3271 192.867 61.4598 192.939 61.4598V61.3883C192.939 61.3169 193.073 61.3883 193.104 61.3883V61.2965C193.104 61.225 193.207 61.2965 193.238 61.2965V61.225C193.238 61.1536 193.371 61.225 193.413 61.225V61.123C193.474 61.0515 193.546 61.123 193.608 61.123V61.0209C193.608 61.0209 193.68 61.0209 193.711 61.0209V60.9597C193.711 60.8883 193.814 60.9597 193.855 60.9597V60.4188C193.577 60.3576 193.711 59.9494 193.413 59.8881C193.31 59.8881 193.413 59.684 193.279 59.7554C193.135 59.6228 193.176 59.4187 193.001 59.3472C192.826 59.2758 192.898 59.0819 192.806 59.0207C192.713 58.9594 192.672 58.6839 192.497 58.6431C192.418 58.3595 192.239 58.1134 191.993 57.9491C191.932 58.0103 191.891 58.1124 191.757 58.0818C191.623 58.0511 191.757 58.1736 191.757 58.1736C191.345 58.3471 191.078 58.8165 190.636 58.9798C190.502 59.1839 190.266 59.2452 190.07 59.3881C189.875 59.5309 189.793 59.2146 189.69 59.1125C189.628 58.6839 189.258 58.092 189.69 57.7756H193.063V46.3863H182.368L182.306 49.8051C180.811 48.8705 179.599 47.5516 178.799 45.9883H175.786C174.743 47.8908 173.323 49.5641 171.611 50.9073C171.981 52.0809 172.382 53.3158 172.855 54.4894L173.729 53.9587C173.904 54.122 173.801 54.4588 173.832 54.6935H175.55C175.55 54.9691 175.55 55.265 175.55 55.5304H172.176V58.4798L175.58 58.5512V63.9397L174.974 64.205L172.104 64.4398L172.279 67.7871C175.179 67.3891 178.049 66.8482 180.846 66.2461C181.391 66.4808 181.082 67.2667 181.185 67.7157C181.491 67.8231 181.825 67.8231 182.131 67.7157C182.635 67.7871 182.769 67.4198 183.273 67.5524C183.417 67.2871 183.91 67.5524 184.085 67.3585C184.71 67.2741 185.328 67.148 185.936 66.9809C186.329 66.936 186.715 66.847 187.088 66.7156C187.458 66.6135 188.003 66.7156 188.271 66.4196V64.2765L188.435 64.1744C188.532 64.2199 188.614 64.2904 188.674 64.3784C188.734 64.4663 188.768 64.5686 188.775 64.6745C188.98 64.7459 189.011 65.0113 189.217 65.1133C189.422 65.2154 189.217 65.348 189.35 65.2766C189.35 65.6134 189.751 65.5113 189.751 65.8481C190.06 65.9093 190.06 66.2869 190.327 66.3482C190.43 66.6135 190.667 66.685 190.831 66.8482C190.996 67.0115 191.212 67.0524 191.212 67.3177C191.458 67.4383 191.684 67.5968 191.88 67.7871C192.117 67.7871 192.014 67.8586 192.25 67.7871C192.408 67.5647 192.545 67.329 192.662 67.083C192.796 66.9809 192.857 66.787 192.991 66.7156C193.125 66.6441 193.166 66.5115 193.166 66.3482C193.33 66.3482 193.33 66.1441 193.402 66.0522C193.583 65.8192 193.742 65.5698 193.875 65.3072C194.009 65.3072 194.009 65.1439 194.112 65.0113V64.8072C193.608 64.5407 193.149 64.1962 192.754 63.7866L192.631 63.7662ZM177.329 49.9276C177.92 50.4082 178.412 50.9972 178.779 51.6625H176.146C176.485 51.036 176.881 50.4415 177.329 49.8868V49.9276ZM182.357 64.3173H181.617C181.617 63.8785 181.617 63.4498 181.617 63.0416C181.483 63.0416 181.452 62.9089 181.422 62.8477C181.751 61.7353 181.884 60.6025 182.121 59.5003C181.318 59.2387 180.496 59.0374 179.663 58.8982L178.953 62.3068L179.025 62.4803L180.907 62.9089C180.2 63.1489 179.463 63.2965 178.717 63.3478V58.5818H181.854V55.5202L178.768 55.459V54.714C179.468 54.6527 180.218 54.714 180.959 54.714C181.014 54.2945 181.038 53.8715 181.031 53.4485C181.195 53.275 181.36 53.5811 181.535 53.5811C181.895 53.1117 182.069 52.4994 182.378 52.0401L182.357 64.3173ZM185.803 49.8153L185.967 49.6827H189.608C189.772 49.948 189.68 50.3868 189.71 50.7542L189.608 50.8257H185.967C185.628 50.693 185.864 50.1521 185.803 49.8051V49.8153ZM185.628 63.7356V57.9797C185.833 57.8062 186.543 57.6735 186.471 58.2042C186.706 59.9241 187.17 61.6055 187.849 63.2049C187.133 63.4778 186.388 63.6661 185.628 63.7662V63.7356ZM185.895 54.8568C185.781 54.4982 185.781 54.1133 185.895 53.7546H189.608C189.844 53.9894 189.71 54.4588 189.741 54.7752C188.471 54.8622 187.198 54.8827 185.926 54.8364" fill="#009D95"/>
<path d="M172.801 63.8377C173.346 63.7356 173.881 63.6029 174.415 63.5009C174.621 63.3988 174.961 63.4294 175.033 63.2355C175.033 61.8578 174.724 60.5515 174.662 59.2758C174.323 59.0513 173.912 59.2758 173.541 59.2758C173.171 59.2758 172.626 59.5105 172.163 59.6126L172.39 63.7968L172.503 63.8581C172.626 63.8581 172.77 63.9295 172.801 63.7968" fill="#009D95"/>
<path d="M98.3546 50.0788C99.5285 53.0887 99.7559 56.381 99.0069 59.5218C98.2579 62.6626 96.5677 65.5045 94.1588 67.673C92.0009 69.5818 89.3757 70.8948 86.5458 71.4804C83.7159 72.0661 80.7807 71.9039 78.0338 71.0102C75.0501 70.0416 72.4191 68.224 70.4681 65.7834C68.517 63.3429 67.3319 60.387 67.0601 57.2833C66.7884 54.1797 67.4419 51.0652 68.9396 48.3272C70.4372 45.5893 72.7128 43.3486 75.4834 41.8838C78.1792 40.4852 81.2091 39.8447 84.2452 40.0318C87.2813 40.2189 90.2081 41.2263 92.7088 42.9452C95.2484 44.7409 97.2179 47.2195 98.3855 50.089" fill="#009D95"/>
<path d="M82.426 47.4162C83.0019 47.2529 83.732 46.8141 84.3079 47.2529C84.709 47.855 85.8197 48.0489 85.5111 48.8858C86.0779 49.6411 86.7339 50.3264 87.4651 50.9269C87.6296 50.9269 87.6913 50.8554 87.7633 50.7534L87.5679 50.6513C87.7941 50.4472 88.37 50.784 88.7403 50.5799C88.8779 50.5734 89.0153 50.5964 89.1431 50.6475C89.2709 50.6986 89.386 50.7765 89.4807 50.8758C89.5952 51.1818 89.7399 51.4758 89.9126 51.7535L90.0463 51.6821C90.1738 51.9691 90.318 52.2485 90.4782 52.5189C91.6917 52.9169 92.2676 54.3457 93.3371 54.9478C94.6259 55.972 96.0519 56.8135 97.5741 57.4481C97.5021 57.642 97.7386 57.642 97.8414 57.7135C97.6374 57.5928 97.3976 57.5459 97.1627 57.5808C97.3684 57.8768 97.8723 57.7441 97.9751 58.0809H97.4404C97.4404 58.1829 97.5741 58.1829 97.6358 58.2136C97.3684 58.1115 97.101 58.3156 96.9262 57.9788C95.8558 57.4812 94.8245 56.9047 93.841 56.2541V56.2541C94.6768 56.9462 95.5915 57.5388 96.5662 58.0197C96.8645 58.1829 97.2964 58.285 97.4712 58.581C97.3684 58.581 97.1936 58.581 97.1627 58.7544L96.9262 58.6218C96.8645 58.6218 96.9262 58.7136 96.9262 58.7544L97.0907 58.8871C95.8505 58.3663 94.688 57.6796 93.6354 56.846C93.1314 56.5092 92.607 56.2439 92.1236 55.8255C92.0619 55.8255 91.9591 55.8255 91.918 55.8969C92.4938 56.3255 93.1006 56.5909 93.6662 56.9889C92.4992 56.458 91.4504 55.7017 90.5811 54.7641C90.2211 54.3967 89.6761 53.6313 89.0385 53.7436C88.8122 53.8864 88.442 53.8456 88.1746 53.9783C87.9073 54.111 87.7941 53.7436 87.5988 53.9171C87.4342 54.2845 86.8995 53.9783 86.7966 54.3865C86.4573 54.5192 85.8505 54.3865 85.7682 54.8151V54.9784C85.0895 55.2846 84.1845 55.1825 83.7115 55.8153C83.5675 55.9479 83.3001 55.8153 83.1664 55.9479C83.1664 55.8867 83.1664 55.8153 83.0739 55.8153C82.9813 55.8153 82.7962 55.9173 82.6625 55.9479C82.5597 55.7847 82.7962 55.7438 82.7654 55.652C82.4671 55.5193 82.3334 55.9173 82.0969 56.05C82.0969 55.7847 82.4363 55.7438 82.5288 55.5193C82.3643 55.4173 82.2306 55.5805 82.0969 55.6112C82.1586 55.6112 82.3026 55.356 82.0969 55.356C82.2615 55.0805 82.6317 55.1825 82.7345 54.8866H82.426L83.2281 54.2538C83.1253 54.2538 82.9299 53.9783 82.7551 54.2538C82.7551 54.2538 82.8271 54.1926 82.7551 54.162C82.6831 54.1314 82.4466 54.2538 82.282 54.2538C82.282 54.2538 82.282 54.162 82.2203 54.1212H82.1175C82.2203 54.0599 82.354 53.8864 82.4774 53.7844L82.426 53.8456C82.9299 53.5497 83.4544 53.2129 83.9377 52.9782L84.0406 52.8761C84.0068 52.8372 83.9649 52.8061 83.9179 52.7847C83.8709 52.7633 83.8198 52.7522 83.768 52.7522C83.7163 52.7522 83.6652 52.7633 83.6182 52.7847C83.5711 52.8061 83.5293 52.8372 83.4955 52.8761C83.9377 52.8761 83.4955 52.376 83.9686 52.3148C84.0205 52.1444 84.1064 51.9861 84.2212 51.8493C84.3361 51.7126 84.4775 51.6002 84.637 51.5188C84.2051 51.1106 84.0406 50.3758 83.5366 50.1512C83.5366 49.8451 83.1973 50.1512 83.1664 49.8451C82.5597 49.8451 81.8501 50.1104 81.449 49.5797C81.1098 49.5104 80.7599 49.5104 80.4207 49.5797C80.2 49.8259 80.0195 50.1048 79.8859 50.4064C79.6652 50.6545 79.4816 50.9329 79.3409 51.233C79.0499 51.6834 78.6313 52.0385 78.1376 52.2536V52.2536C77.7674 52.7536 76.9653 52.5597 76.4922 53.0904V52.9577C76.4571 52.947 76.4202 52.9435 76.3836 52.9476C76.3471 52.9517 76.3118 52.9631 76.28 52.9813C76.2481 52.9995 76.2204 53.024 76.1986 53.0533C76.1767 53.0827 76.1611 53.1161 76.1529 53.1516V53.2231C75.9163 53.1516 75.7518 53.417 75.649 53.5497C75.0731 54.1518 74.1372 54.1518 73.5305 54.6518C73.4688 54.6518 73.5305 54.6518 73.5305 54.6518C72.4198 54.8866 71.8851 55.6724 71.1447 56.5194C70.9117 56.8169 70.6423 57.0843 70.3425 57.3155C70.4145 57.5808 70.0031 57.6829 69.8695 57.8155C70.0031 57.5808 70.3117 57.3869 70.3425 57.1216C70.0751 57.2542 70.0031 57.5502 69.7049 57.6829C69.5404 57.5502 69.8695 57.4481 69.7666 57.3155L69.3656 57.6216L69.7358 57.1216C69.5404 57.1216 69.3347 57.489 69.0982 57.5196C69.0365 57.6216 68.9336 57.6216 68.7999 57.6216C69.0021 57.4596 69.1912 57.2821 69.3656 57.091C69.129 56.9583 68.8616 57.2542 68.6971 57.2236C68.5326 57.193 68.6971 57.0195 68.5017 57.091C68.6747 56.99 68.8141 56.841 68.9028 56.6623C68.7691 56.6623 68.5943 56.7236 68.4606 56.795C68.4606 56.6215 68.8308 56.5194 68.728 56.2541C68.296 56.1929 68.3577 56.6215 67.9978 56.7236C68.3577 56.2235 68.9028 55.9275 69.2627 55.3968C69.9862 54.6954 70.8154 54.1101 71.7205 53.6619C72.4198 53.2639 73.3557 53.07 73.8699 52.3964C74.071 52.1578 74.25 51.9016 74.4046 51.631C74.5075 51.631 74.5383 51.5698 74.5692 51.4984C75.0611 51.1851 75.6303 51.0122 76.2146 50.9983C76.4819 50.733 76.9859 50.8962 77.243 50.5288C77.9423 49.7022 78.2199 48.6714 78.8164 47.8346C79.0221 47.5693 79.2586 47.1304 79.6596 47.0386C80.5911 47.0838 81.5168 47.2101 82.426 47.4162" fill="white"/>
<path d="M89.9204 51.3779L89.7891 50.9485L89.9204 51.3165V51.3779Z" fill="white"/>
<path d="M90.1612 52.0523C90.0263 52.0523 90.0574 51.9183 89.9951 51.8153C90.0768 51.8725 90.1356 51.9564 90.1612 52.0523Z" fill="white"/>
<path d="M74.1339 52.2549C74.0412 52.0607 74.3091 51.9994 74.4121 51.8256C74.374 51.997 74.2753 52.1493 74.1339 52.2549" fill="#00A28D"/>
<path d="M77.3677 52.348V52.3151H77.4704L77.3677 52.348Z" fill="#00A28D"/>
<path d="M76.6569 52.5506C76.5946 52.6124 76.5635 52.7154 76.4596 52.6845C76.3558 52.6536 76.5946 52.4785 76.6569 52.5506Z" fill="#00A28D"/>
<path d="M83.107 53.1116C82.9424 53.2443 82.6031 53.3464 82.5722 53.5505C82.274 53.5505 82.0683 53.8158 81.8318 53.8158C81.8318 53.5505 82.274 53.7138 82.3048 53.4484L82.5722 53.2443V53.3464C82.6751 53.2443 83.0144 53.3464 82.9116 53.0504L83.107 53.1116Z" fill="white"/>
<path d="M82.0383 53.2749C82 53.3438 81.9468 53.4034 81.8825 53.4495C81.8182 53.4956 81.7445 53.527 81.6665 53.5414C81.7285 53.3774 81.8627 53.3774 82.0383 53.2749Z" fill="white"/>
<path d="M75.1086 53.7133C75.1793 53.8153 75.0481 53.7133 75.0078 53.7847C74.9674 53.8562 75.0784 53.7133 75.1086 53.7133Z" fill="#00A28D"/>
<path d="M82.7749 53.8767H82.6736V53.9792H82.7749V53.8767Z" fill="white"/>
<path d="M82.5367 54.112C82.5367 54.1842 82.4641 54.1842 82.4329 54.246H82.3291C82.3291 54.1429 82.4018 54.112 82.4641 54.0811C82.5264 54.0502 82.4641 54.0811 82.5367 54.0811" fill="white"/>
<path d="M83.1787 54.7441C83.1787 54.8778 82.9714 54.8778 82.9092 54.9087C82.847 54.9395 82.9092 54.847 82.9092 54.7749C82.9092 54.7029 83.044 54.7132 83.1476 54.7749" fill="white"/>
<path d="M83.2409 54.9482C83.2409 55.0811 82.973 55.0811 82.8391 55.1833C82.8391 55.0504 83.0039 54.9789 83.107 54.9175C83.21 54.8562 83.2409 54.9175 83.2409 54.9175" fill="#00A28D"/>
<path d="M91.3022 55.3155C91.4359 55.3768 91.5078 55.5401 91.6107 55.6421L91.5078 55.7442C91.2915 55.5218 91.1173 55.2625 90.9937 54.9788C91.0965 55.0808 91.1685 55.2441 91.3022 55.3155Z" fill="#00A28D"/>
<path d="M96.1366 57.0512C96.0334 57.1127 95.8991 56.9795 95.8062 56.9487L96.1366 57.0512Z" fill="white"/>
<path d="M97.0791 57.5507C96.8014 57.3773 96.4415 57.3773 96.2358 57.1833C96.5444 57.2307 96.8351 57.3574 97.0791 57.5507" fill="white"/>
<path d="M94.1245 57.5103L93.7124 57.2139L93.9803 57.3468L94.1245 57.5103Z" fill="white"/>
<path d="M96.979 58.5101L97.0093 58.4489L97.1102 58.5101H96.979Z" fill="white"/>
<path d="M96.816 58.6834H96.6848V58.6119C96.6848 58.6119 96.7756 58.6119 96.816 58.6834Z" fill="white"/>
<path d="M155.211 62.8573H160.106V48.7228H163.613V67.5518H160.106V66.2864L146.624 66.2455L146.594 67.46H142.984V48.5595H146.594V62.8573L151.561 62.8267V45.4774H155.211V62.8573Z" fill="#009D95"/>
<path d="M133.391 49.3863L125.421 49.4067L125.359 49.4679V54.2849L132.856 54.3564V57.765H125.329L125.287 63.8372L134.368 63.8678V67.3581H112.597V63.8985L121.647 63.8678V57.8058L114.212 57.765V54.3257H121.647V49.3761L113.708 49.2944V45.8756H133.391V49.3863Z" fill="#009D95"/>
<path d="M131.168 59.6836C131.328 59.9439 131.434 60.2332 131.48 60.5346C131.526 60.8359 131.511 61.1434 131.436 61.4389C131.337 61.7783 131.155 62.0886 130.908 62.3429C130.661 62.5972 130.355 62.7879 130.017 62.8983C129.599 63.022 129.154 63.0212 128.738 62.896C128.321 62.7708 127.95 62.5267 127.672 62.1941C127.489 61.9756 127.352 61.7232 127.269 61.4516C127.186 61.1799 127.159 60.8946 127.189 60.6123C127.24 60.1992 127.409 59.8093 127.677 59.4891C127.945 59.1689 128.3 58.9318 128.7 58.8059C129.152 58.665 129.637 58.6745 130.083 58.833C130.529 58.9915 130.91 59.2902 131.168 59.6836" fill="#009D95"/>
<line x1="234.5" y1="47" x2="234.5" y2="69" stroke="#D9D9D9"/>
<path d="M311.287 45.0775V46.3965C311.315 46.3159 311.358 46.2413 311.415 46.1766C311.472 46.1166 311.538 46.0648 311.609 46.0228C311.681 45.9777 311.76 45.9443 311.843 45.9238C311.926 45.9131 312.01 45.9131 312.093 45.9238C312.252 45.9206 312.41 45.9526 312.555 46.0173C312.684 46.0803 312.797 46.1726 312.883 46.2866C312.973 46.4009 313.039 46.5316 313.078 46.6713C313.159 46.9775 313.159 47.2993 313.078 47.6055C313.038 47.7447 312.972 47.8752 312.883 47.9902C312.796 48.1025 312.684 48.1929 312.555 48.254C312.411 48.3233 312.253 48.3572 312.093 48.3529C311.916 48.3557 311.74 48.3101 311.587 48.221C311.441 48.1373 311.328 48.0077 311.265 47.8528V47.8528V48.287H311.003V45.0775H311.287ZM312.822 46.7537C312.796 46.6425 312.751 46.5365 312.688 46.4404C312.627 46.3508 312.547 46.2742 312.455 46.2151C312.347 46.1584 312.226 46.13 312.104 46.1327C311.973 46.1282 311.843 46.1566 311.726 46.2151C311.626 46.2722 311.539 46.3489 311.47 46.4404C311.406 46.5362 311.359 46.6422 311.331 46.7537C311.303 46.8707 311.288 46.9906 311.287 47.1109C311.288 47.2295 311.303 47.3475 311.331 47.4626C311.358 47.5762 311.405 47.6841 311.47 47.7814C311.539 47.873 311.626 47.9496 311.726 48.0067C311.843 48.0652 311.973 48.0936 312.104 48.0891C312.226 48.0918 312.347 48.0634 312.455 48.0067C312.549 47.9412 312.629 47.857 312.688 47.7594C312.752 47.6619 312.797 47.5539 312.822 47.4406C312.854 47.3261 312.869 47.2077 312.866 47.0889C312.866 46.9758 312.851 46.8631 312.822 46.7537V46.7537Z" fill="#54565A"/>
<path d="M313.633 45.9623L314.401 47.9242L315.118 45.9623H315.413L314.401 48.6057C314.374 48.6924 314.34 48.7769 314.3 48.8585C314.27 48.9142 314.231 48.9644 314.184 49.0069C314.139 49.0459 314.086 49.0742 314.028 49.0893C313.954 49.0992 313.879 49.0992 313.805 49.0893H313.672C313.645 49.0956 313.616 49.0956 313.589 49.0893V48.8585H313.683H313.744C313.795 48.8708 313.849 48.8708 313.9 48.8585C313.94 48.8431 313.977 48.8187 314.006 48.787C314.036 48.7517 314.062 48.7129 314.084 48.6716C314.084 48.6277 314.128 48.5782 314.15 48.5288L314.25 48.2705L313.322 45.9788L313.633 45.9623Z" fill="#54565A"/>
<path d="M319.213 45.0775V45.3358H317.299V46.4844H319.09V46.7427H317.299V48.0012H319.235V48.2595H317.01V45.0775H319.213Z" fill="#54565A"/>
<path d="M319.779 47.7871H320.158V48.2597H319.779V47.7871Z" fill="#54565A"/>
<path d="M321.136 47.6221C321.189 47.7274 321.267 47.8181 321.364 47.8859C321.466 47.953 321.579 48.0014 321.698 48.0288C321.835 48.0562 321.975 48.0691 322.115 48.0672C322.207 48.0661 322.298 48.0551 322.388 48.0342C322.487 48.013 322.581 47.9739 322.666 47.9188C322.75 47.8692 322.823 47.8016 322.877 47.721C322.939 47.6342 322.97 47.5301 322.966 47.4242C322.968 47.3432 322.947 47.2632 322.905 47.1934C322.865 47.1284 322.812 47.0723 322.749 47.0285C322.683 46.9812 322.61 46.9441 322.532 46.9186C322.458 46.8906 322.382 46.8668 322.304 46.8472L321.587 46.6603C321.493 46.6393 321.402 46.6099 321.314 46.5724C321.228 46.5401 321.149 46.4916 321.081 46.4295C321.012 46.3704 320.957 46.2973 320.919 46.2152C320.877 46.1143 320.856 46.0057 320.858 45.8964C320.861 45.8051 320.876 45.7146 320.903 45.6272C320.938 45.5173 320.997 45.4161 321.075 45.3304C321.17 45.2289 321.286 45.1484 321.414 45.0941C321.592 45.0267 321.781 44.995 321.971 45.0006C322.125 45.0011 322.278 45.0214 322.427 45.0611C322.563 45.1009 322.691 45.1642 322.805 45.248C322.912 45.3328 323 45.4397 323.061 45.5612C323.13 45.6935 323.165 45.8409 323.161 45.9899H322.855C322.852 45.8788 322.823 45.7698 322.772 45.6711C322.722 45.5842 322.656 45.5076 322.577 45.4458C322.494 45.3828 322.4 45.3362 322.299 45.3084C322.193 45.2747 322.082 45.258 321.971 45.2589C321.87 45.2588 321.769 45.2698 321.67 45.2919C321.579 45.3117 321.492 45.349 321.414 45.4018C321.338 45.4502 321.275 45.5163 321.231 45.5942C321.184 45.6859 321.161 45.788 321.164 45.8909C321.164 45.957 321.177 46.0223 321.203 46.0833C321.229 46.1373 321.264 46.1858 321.309 46.2262C321.355 46.2656 321.408 46.2971 321.464 46.3196L321.654 46.3801L322.438 46.5669C322.555 46.5999 322.66 46.6384 322.76 46.6768C322.857 46.719 322.947 46.7745 323.027 46.8417C323.105 46.9035 323.166 46.9827 323.205 47.0725C323.253 47.178 323.275 47.2925 323.272 47.4077C323.272 47.4407 323.272 47.4902 323.272 47.5506C323.26 47.6238 323.236 47.6944 323.2 47.7595C323.171 47.8335 323.13 47.9023 323.077 47.9628C323.02 48.0399 322.946 48.1037 322.861 48.1497C322.756 48.2118 322.641 48.2563 322.521 48.2816C322.189 48.3619 321.842 48.3619 321.509 48.2816C321.358 48.2427 321.217 48.1755 321.092 48.0837C320.978 47.9906 320.888 47.8719 320.83 47.7375C320.765 47.579 320.739 47.4078 320.753 47.2374H321.058C321.056 47.3697 321.082 47.5009 321.136 47.6221V47.6221Z" fill="#54565A"/>
<path d="M324.036 45.0775V47.0505C324.034 47.2083 324.055 47.3656 324.098 47.5176C324.134 47.6371 324.199 47.7463 324.287 47.8363C324.368 47.9186 324.47 47.9791 324.582 48.0122C324.843 48.0855 325.121 48.0855 325.382 48.0122C325.494 47.9791 325.596 47.9186 325.677 47.8363C325.765 47.7463 325.83 47.6371 325.866 47.5176C325.909 47.3656 325.93 47.2083 325.928 47.0505V45.0775H326.233V47.1164C326.235 47.275 326.211 47.4328 326.161 47.5835C326.118 47.7258 326.044 47.8571 325.944 47.9682C325.835 48.0807 325.702 48.1687 325.555 48.2265C325.185 48.3602 324.779 48.3602 324.409 48.2265C324.262 48.1687 324.13 48.0807 324.02 47.9682C323.92 47.8571 323.846 47.7258 323.803 47.5835C323.753 47.4328 323.729 47.275 323.731 47.1164V45.0775H324.036Z" fill="#54565A"/>
<path d="M327.188 45.0775L329.063 47.7594V45.0775H329.369V48.2595H329.024L327.16 45.5611V48.254H326.854V45.0775H327.188Z" fill="#54565A"/>
<path d="M332.657 45.0776C332.789 45.0763 332.922 45.0892 333.052 45.1161C333.168 45.1408 333.279 45.1854 333.38 45.248C333.473 45.3083 333.551 45.3892 333.608 45.4843C333.667 45.5999 333.696 45.7285 333.691 45.858C333.692 45.9402 333.679 46.022 333.652 46.0998C333.627 46.1777 333.587 46.2503 333.536 46.3141C333.488 46.3785 333.43 46.4343 333.363 46.479C333.293 46.5236 333.216 46.5552 333.135 46.5724V46.5724C333.326 46.5935 333.502 46.6835 333.63 46.8252C333.759 46.979 333.825 47.1753 333.814 47.3748C333.814 47.4243 333.814 47.4792 333.814 47.5452C333.802 47.6111 333.784 47.6756 333.758 47.7375C333.729 47.8103 333.69 47.8788 333.641 47.9409C333.583 48.0086 333.513 48.0662 333.435 48.1112C333.336 48.165 333.229 48.2057 333.118 48.2321C332.97 48.2631 332.819 48.2779 332.668 48.2761H331.305V45.0776H332.657ZM332.657 46.4735C332.766 46.4751 332.875 46.4603 332.979 46.4295C333.062 46.4057 333.139 46.3666 333.207 46.3141C333.263 46.2666 333.308 46.2087 333.341 46.1438C333.369 46.0777 333.384 46.0068 333.385 45.9349C333.385 45.5338 333.141 45.3359 332.657 45.3359H331.606V46.4735H332.657ZM332.657 48.0013C332.767 48.0008 332.876 47.9916 332.985 47.9738C333.066 47.9509 333.143 47.9157 333.213 47.8694C333.294 47.8201 333.359 47.7497 333.402 47.6661C333.45 47.5666 333.473 47.4573 333.469 47.3473C333.473 47.2588 333.455 47.1706 333.418 47.0902C333.38 47.0098 333.323 46.9396 333.252 46.8857C333.073 46.7784 332.866 46.725 332.657 46.7318H331.606V48.0013H332.657Z" fill="#54565A"/>
<path d="M334.292 46.3194C334.338 46.2257 334.405 46.1431 334.487 46.0776C334.574 46.0114 334.674 45.9645 334.781 45.9402C334.901 45.9081 335.025 45.8933 335.149 45.8963C335.25 45.8852 335.353 45.8852 335.454 45.8963C335.554 45.9122 335.649 45.9497 335.733 46.0062C335.819 46.0615 335.889 46.1395 335.933 46.2315C335.992 46.3662 336.013 46.5144 335.994 46.6602V47.8527C335.994 47.9681 336.05 48.0231 336.161 48.0231C336.192 48.0288 336.224 48.0288 336.255 48.0231V48.2594H336.166H336.066C336.009 48.2696 335.951 48.2696 335.894 48.2594C335.854 48.2411 335.819 48.2127 335.794 48.177C335.77 48.1377 335.754 48.095 335.744 48.0506C335.741 47.9957 335.741 47.9406 335.744 47.8857V47.8857C335.697 47.9557 335.645 48.0219 335.588 48.0835C335.537 48.1419 335.477 48.1919 335.41 48.2319C335.34 48.2711 335.265 48.3007 335.188 48.3199C335.086 48.3301 334.983 48.3264 334.882 48.3089C334.78 48.3076 334.68 48.2947 334.581 48.2704C334.49 48.2471 334.405 48.2059 334.331 48.1495C334.259 48.0944 334.202 48.0227 334.164 47.9407C334.122 47.8453 334.102 47.7423 334.103 47.6384C334.095 47.5039 334.132 47.3706 334.209 47.2592C334.285 47.1676 334.385 47.0975 334.498 47.0559C334.626 47.0043 334.761 46.9692 334.898 46.9514L335.354 46.8965H335.51C335.551 46.8922 335.589 46.877 335.621 46.8525C335.654 46.8291 335.679 46.7966 335.694 46.7591C335.703 46.7101 335.703 46.6597 335.694 46.6107C335.697 46.5297 335.681 46.449 335.649 46.3744C335.618 46.3158 335.572 46.2665 335.516 46.2315C335.457 46.1929 335.391 46.1667 335.321 46.1546C335.243 46.1487 335.165 46.1487 335.087 46.1546C334.929 46.1461 334.772 46.1906 334.642 46.281C334.583 46.3307 334.536 46.3932 334.505 46.4638C334.474 46.5343 334.46 46.6109 334.464 46.6877H334.181C334.191 46.5585 334.229 46.433 334.292 46.3194V46.3194ZM335.716 47.0064C335.69 47.0399 335.652 47.0633 335.61 47.0723L335.477 47.1053L335.104 47.1603C334.985 47.1757 334.868 47.2014 334.754 47.2372C334.657 47.2638 334.568 47.3107 334.492 47.3746C334.457 47.409 334.431 47.4503 334.413 47.4958C334.396 47.5413 334.389 47.5899 334.392 47.6384C334.392 47.7033 334.407 47.7674 334.437 47.8253C334.464 47.8795 334.502 47.928 334.548 47.9681C334.598 48.0077 334.655 48.0392 334.715 48.0616C334.779 48.0696 334.845 48.0696 334.909 48.0616C335.015 48.0621 335.121 48.0454 335.221 48.0121C335.317 47.9854 335.406 47.9385 335.482 47.8747C335.555 47.8091 335.616 47.7309 335.66 47.6439C335.702 47.5485 335.723 47.4455 335.721 47.3416V47.0064H335.716Z" fill="#54565A"/>
<path d="M336.856 45.9624V46.358C336.912 46.2175 337.013 46.0995 337.145 46.0228C337.281 45.938 337.44 45.8941 337.601 45.8964C337.741 45.8908 337.881 45.9113 338.013 45.9569C338.112 45.9945 338.202 46.0547 338.274 46.1327C338.342 46.214 338.39 46.3101 338.413 46.413C338.443 46.5335 338.458 46.6571 338.458 46.7812V48.2595H338.168V46.8252C338.177 46.7338 338.177 46.6418 338.168 46.5504C338.151 46.4721 338.119 46.3976 338.074 46.3306C338.024 46.2686 337.962 46.218 337.89 46.1822C337.798 46.1465 337.7 46.1297 337.601 46.1327C337.496 46.1293 337.391 46.15 337.295 46.1932C337.21 46.2317 337.134 46.2879 337.073 46.358C337.007 46.4295 336.958 46.5137 336.928 46.6054C336.892 46.706 336.873 46.8119 336.872 46.9186V48.2595H336.55V45.9624H336.856Z" fill="#54565A"/>
<path d="M339.281 45.0775V47.0724L340.571 45.9733H340.949L339.959 46.8251L340.999 48.2595H340.644L339.726 47.0065L339.264 47.3857V48.2595H338.98V45.0775H339.281Z" fill="#54565A"/>
<path d="M284.639 52.8101H277.87C277.455 52.8101 277.119 53.1422 277.119 53.552V55.7832C277.119 56.193 277.455 56.5251 277.87 56.5251H284.639C285.053 56.5251 285.39 56.193 285.39 55.7832V53.552C285.39 53.1422 285.053 52.8101 284.639 52.8101Z" fill="#00A4EF"/>
<path d="M308.128 58.0088C308.125 56.2859 307.431 54.6345 306.197 53.4168C304.964 52.1991 303.292 51.5144 301.548 51.5129C300.571 51.515 299.607 51.7348 298.728 52.1559C298.7 51.9802 298.61 51.82 298.474 51.7042C298.337 51.5883 298.163 51.5244 297.983 51.5239H295.725C295.626 51.5232 295.528 51.5419 295.437 51.5789C295.345 51.6159 295.262 51.6706 295.192 51.7396C295.122 51.8086 295.067 51.8907 295.03 51.9811C294.992 52.0714 294.973 52.1682 294.974 52.2658V64.697C294.974 64.8938 295.053 65.0825 295.194 65.2216C295.335 65.3608 295.526 65.4389 295.725 65.4389H297.977C298.176 65.4375 298.366 65.3589 298.507 65.2201C298.647 65.0812 298.727 64.8934 298.728 64.697V58.0088C298.711 57.6329 298.772 57.2574 298.906 56.9052C299.04 56.5529 299.244 56.2311 299.508 55.9591C299.771 55.6872 300.087 55.4708 300.437 55.3229C300.788 55.175 301.165 55.0988 301.545 55.0988C301.926 55.0988 302.303 55.175 302.653 55.3229C303.004 55.4708 303.32 55.6872 303.583 55.9591C303.847 56.2311 304.051 56.5529 304.185 56.9052C304.319 57.2574 304.38 57.6329 304.363 58.0088V64.7135C304.363 64.9103 304.442 65.099 304.583 65.2381C304.723 65.3773 304.914 65.4554 305.114 65.4554H307.372C307.471 65.4562 307.568 65.4375 307.66 65.4004C307.751 65.3634 307.834 65.3088 307.904 65.2398C307.974 65.1707 308.029 65.0886 308.067 64.9983C308.104 64.908 308.123 64.8111 308.123 64.7135V58.0088H308.128Z" fill="#FFC517"/>
<path d="M333.97 51.513C332.576 51.5097 331.211 51.9153 330.05 52.6784C328.889 53.4415 327.983 54.5279 327.447 55.7999C326.912 57.0719 326.77 58.4725 327.04 59.8242C327.31 61.176 327.98 62.4182 328.964 63.3937C329.949 64.3691 331.205 65.0339 332.572 65.3039C333.94 65.5739 335.358 65.437 336.646 64.9105C337.935 64.384 339.037 63.4915 339.812 62.3461C340.587 61.2007 341 59.8538 341 58.476C340.998 56.633 340.256 54.8661 338.939 53.5614C337.622 52.2567 335.835 51.5202 333.97 51.513V51.513ZM333.97 61.7239C333.319 61.7239 332.682 61.5329 332.14 61.1752C331.599 60.8175 331.176 60.309 330.927 59.7142C330.678 59.1194 330.613 58.465 330.741 57.8337C330.869 57.2025 331.183 56.6228 331.644 56.168C332.105 55.7132 332.692 55.4038 333.331 55.2789C333.97 55.154 334.632 55.2192 335.234 55.4663C335.836 55.7134 336.349 56.1312 336.711 56.667C337.072 57.2027 337.264 57.8323 337.263 58.476C337.261 59.3379 336.914 60.164 336.296 60.7729C335.679 61.3819 334.842 61.7239 333.97 61.7239V61.7239Z" fill="#ED4848"/>
<path d="M291.401 51.5129H289.143C288.729 51.5129 288.392 51.8451 288.392 52.2549V64.697C288.392 65.1068 288.729 65.4389 289.143 65.4389H291.401C291.816 65.4389 292.152 65.1068 292.152 64.697V52.2549C292.152 51.8451 291.816 51.5129 291.401 51.5129Z" fill="#00C08B"/>
<path d="M324.314 51.513H322.062C321.963 51.5122 321.864 51.5309 321.773 51.5678C321.681 51.6048 321.597 51.6593 321.527 51.7283C321.457 51.7973 321.401 51.8793 321.363 51.9697C321.325 52.0601 321.305 52.157 321.305 52.2549V52.9089C320.258 52.1319 319.013 51.6584 317.71 51.5415C316.406 51.4245 315.095 51.6688 313.923 52.2468C312.752 52.8249 311.767 53.7139 311.079 54.8141C310.39 55.9144 310.025 57.1824 310.025 58.476C310.025 59.7695 310.39 61.0375 311.079 62.1378C311.767 63.238 312.752 64.127 313.923 64.7051C315.095 65.2831 316.406 65.5274 317.71 65.4105C319.013 65.2935 320.258 64.82 321.305 64.0431V67.2965C321.297 68.1363 320.974 68.9431 320.397 69.5604C319.821 70.1776 319.033 70.5612 318.187 70.6366C317.34 70.7119 316.495 70.4737 315.817 69.9681C315.138 69.4626 314.674 68.7259 314.514 67.901C314.484 67.7307 314.393 67.5766 314.259 67.4659C314.125 67.3552 313.955 67.2952 313.78 67.2965H311.499C311.393 67.2957 311.289 67.3173 311.192 67.3597C311.095 67.402 311.009 67.4643 310.938 67.5423C310.868 67.6203 310.815 67.7122 310.783 67.812C310.751 67.9117 310.741 68.017 310.754 68.1208C310.97 69.9164 311.871 71.5628 313.274 72.7238C314.677 73.8848 316.476 74.4727 318.302 74.3675C320.129 74.2623 321.847 73.4718 323.104 72.1576C324.36 70.8434 325.062 69.1046 325.065 67.2965V52.2549C325.066 52.1572 325.047 52.0604 325.01 51.9701C324.972 51.8797 324.917 51.7977 324.847 51.7286C324.777 51.6596 324.694 51.605 324.603 51.5679C324.511 51.5309 324.413 51.5122 324.314 51.513ZM317.084 61.7239C316.432 61.725 315.795 61.535 315.252 61.1779C314.71 60.8208 314.287 60.3127 314.037 59.718C313.787 59.1233 313.721 58.4687 313.848 57.8371C313.975 57.2055 314.289 56.6253 314.75 56.1699C315.211 55.7146 315.798 55.4046 316.437 55.2793C317.076 55.1539 317.739 55.2188 318.341 55.4657C318.943 55.7127 319.457 56.1305 319.818 56.6664C320.18 57.2023 320.372 57.832 320.371 58.476C320.369 59.3369 320.023 60.1622 319.406 60.771C318.79 61.3798 317.955 61.7224 317.084 61.7239V61.7239Z" fill="#FF9900"/>
<path d="M282.753 45.0117H272.247C272.146 45.008 272.046 45.0245 271.952 45.0602C271.858 45.0959 271.772 45.15 271.7 45.2194C271.627 45.2887 271.57 45.3718 271.531 45.4636C271.492 45.5555 271.473 45.6541 271.474 45.7537V64.6972C271.474 64.894 271.553 65.0827 271.694 65.2218C271.834 65.3609 272.025 65.4391 272.225 65.4391H274.483C274.681 65.4377 274.872 65.359 275.012 65.2202C275.153 65.0814 275.232 64.8935 275.234 64.6972V48.7268H286.491C286.491 47.7453 286.098 46.8037 285.398 46.1076C284.697 45.4115 283.747 45.0176 282.753 45.0117V45.0117Z" fill="#00A4EF"/>
<path d="M267.709 65.3674C268.748 65.3674 269.589 64.5358 269.589 63.5099C269.589 62.484 268.748 61.6523 267.709 61.6523C266.671 61.6523 265.829 62.484 265.829 63.5099C265.829 64.5358 266.671 65.3674 267.709 65.3674Z" fill="#00C08B"/>
<path d="M290.94 45.4679C290.874 45.3548 290.78 45.261 290.665 45.1957C290.551 45.1304 290.422 45.0961 290.29 45.0961C290.158 45.0961 290.028 45.1304 289.914 45.1957C289.799 45.261 289.705 45.3548 289.639 45.4679L288.432 47.5232C288.371 47.6363 288.34 47.763 288.343 47.8911C288.346 48.0192 288.382 48.1445 288.448 48.2548C288.514 48.3652 288.607 48.457 288.719 48.5213C288.831 48.5857 288.958 48.6205 289.088 48.6224H291.496C291.626 48.6211 291.754 48.5866 291.866 48.5222C291.978 48.4579 292.072 48.3658 292.137 48.2551C292.203 48.1444 292.238 48.0187 292.24 47.8905C292.242 47.7622 292.21 47.6357 292.147 47.5232L290.94 45.4679Z" fill="#00C08B"/>
<path d="M255.527 48.7103C254.054 48.6997 252.604 49.0691 251.319 49.782C250.035 50.4949 248.961 51.5266 248.204 52.7752C247.447 54.0238 247.032 55.446 247.002 56.9013C246.971 58.3565 247.326 59.7945 248.03 61.073C248.734 62.3514 249.764 63.4262 251.017 64.1911C252.271 64.9559 253.704 65.3843 255.177 65.434C256.649 65.4837 258.109 65.1528 259.412 64.4742C260.715 63.7956 261.817 62.7927 262.608 61.5646C262.687 61.4526 262.732 61.3212 262.741 61.1849C262.749 61.0487 262.719 60.9129 262.654 60.7924C262.589 60.672 262.491 60.5716 262.372 60.5023C262.253 60.433 262.117 60.3974 261.979 60.3996H259.02C258.838 60.4008 258.662 60.4672 258.525 60.5864C257.942 61.083 257.244 61.4304 256.494 61.5982C255.743 61.766 254.962 61.749 254.219 61.5488C253.477 61.3485 252.795 60.9711 252.235 60.4497C251.674 59.9283 251.252 59.2789 251.005 58.5585H263.131C263.318 58.558 263.499 58.4885 263.638 58.3636C263.777 58.2387 263.863 58.0672 263.881 57.8826C263.911 57.572 263.924 57.2602 263.92 56.9483C263.88 54.7664 262.981 52.6859 261.414 51.148C259.847 49.61 257.736 48.7357 255.527 48.7103V48.7103ZM251.005 55.5854C251.324 54.6698 251.924 53.8753 252.722 53.3129C253.519 52.7506 254.475 52.4483 255.455 52.4483C256.435 52.4483 257.39 52.7506 258.188 53.3129C258.986 53.8753 259.586 54.6698 259.905 55.5854H251.005Z" fill="#00C08B"/>
<rect x="993" y="38" width="124" height="37" rx="1" fill="#00A19B"/>
<path d="M1038.88 51.92H1033.4V49.31H1031.54V51.92H1026.22V53.675H1038.88V51.92ZM1031.26 59.99C1031.11 58.4 1030.55 56.075 1029.85 54.23L1028.14 54.68C1028.8 56.51 1029.32 58.91 1029.43 60.47L1031.26 59.99ZM1035.1 60.935C1035.74 59.18 1036.45 56.75 1036.97 54.545L1034.92 54.17C1034.6 56.33 1033.88 59.12 1033.21 60.935H1025.74V62.72H1039.31V60.935H1035.1ZM1045.67 51.68V52.925H1043.21V51.68H1045.67ZM1043.21 55.715V54.485H1045.67V55.715H1043.21ZM1044.17 58.355C1044.46 58.775 1044.74 59.24 1045.01 59.705L1043.21 60.155V57.365H1047.32V50.03H1041.5V60.545C1041.14 60.635 1040.8 60.71 1040.49 60.77L1041.01 62.6C1042.37 62.225 1044.13 61.745 1045.82 61.265C1046.05 61.745 1046.23 62.195 1046.33 62.585L1047.91 61.79C1047.53 60.635 1046.54 58.94 1045.61 57.68L1044.17 58.355ZM1053.95 50H1048.16V63.29H1049.98V51.8H1052.11V59C1052.11 59.195 1052.05 59.27 1051.85 59.27C1051.64 59.27 1051.03 59.285 1050.44 59.24C1050.71 59.735 1051 60.65 1051.06 61.19C1052.02 61.19 1052.72 61.145 1053.28 60.815C1053.82 60.485 1053.95 59.9 1053.95 59.06V50ZM1060.31 51.14V51.905H1057.96V51.14H1060.31ZM1057.96 53.885V53.075H1060.31V53.885H1057.96ZM1061.99 55.175V49.865H1056.22V63.305H1057.96V55.175H1061.99ZM1061.75 58.475V57.35H1063.15V58.475H1061.75ZM1066.36 59.93V58.475H1064.71V57.35H1066.12V55.94H1058.87V57.35H1060.24V58.475H1058.66V59.93H1060.18C1060.03 60.695 1059.61 61.67 1058.65 62.27C1058.99 62.51 1059.53 62.975 1059.79 63.29C1061.06 62.42 1061.56 60.965 1061.71 59.93H1063.15V63.02H1064.71V59.93H1066.36ZM1064.68 53.915V53.075H1067.11V53.915H1064.68ZM1067.11 51.14V51.905H1064.68V51.14H1067.11ZM1068.86 49.865H1062.98V55.205H1067.11V61.205C1067.11 61.415 1067.03 61.505 1066.79 61.505C1066.57 61.52 1065.83 61.52 1065.16 61.49C1065.4 61.955 1065.64 62.765 1065.7 63.26C1066.84 63.26 1067.62 63.215 1068.16 62.915C1068.7 62.63 1068.86 62.135 1068.86 61.22V49.865ZM1074.26 57.095C1074.34 56.3 1074.37 55.55 1074.37 54.905H1080.97V57.095H1074.26ZM1074.37 53.255V52.205C1077.14 51.875 1080.19 51.35 1082.47 50.645L1081.04 49.31C1079.27 49.925 1076.41 50.465 1073.74 50.795L1072.55 50.465V54.83C1072.55 57.005 1072.37 59.96 1070.53 62.09C1070.98 62.315 1071.68 62.915 1071.95 63.305C1073.09 62.03 1073.69 60.365 1074.02 58.745H1080.97V59.51H1082.78V53.255H1074.37Z" fill="white"/>
<defs>
<filter id="filter0_d_4_1002" x="10" y="13" width="1169" height="94" filterUnits="userSpaceOnUse" color-interpolation-filters="sRGB">
<feFlood flood-opacity="0" result="BackgroundImageFix"/>
<feColorMatrix in="SourceAlpha" type="matrix" values="0 0 0 0 0 0 0 0 0 0 0 0 0 0 0 0 0 0 127 0" result="hardAlpha"/>
<feOffset dx="4" dy="4"/>
<feGaussianBlur stdDeviation="6"/>
<feComposite in2="hardAlpha" operator="out"/>
<feColorMatrix type="matrix" values="0 0 0 0 0.679167 0 0 0 0 0.679167 0 0 0 0 0.679167 0 0 0 0.25 0"/>
<feBlend mode="normal" in2="BackgroundImageFix" result="effect1_dropShadow_4_1002"/>
<feBlend mode="normal" in="SourceGraphic" in2="effect1_dropShadow_4_1002" result="shape"/>
</filter>
</defs>
</svg>
