<svg width="1250" height="200" viewBox="0 0 1250 200" fill="none" xmlns="http://www.w3.org/2000/svg">
<rect width="1250" height="200" fill="white"/>
<rect x="17" y="24" width="1181" height="148" fill="#F5F5F5"/>
<rect x="35" y="48" width="1145" height="101" fill="white"/>
<line x1="35" y1="78.5" x2="1180" y2="78.5" stroke="#D9D9D9"/>
<path d="M1121.85 64.5088H1118.64V66.915H1122.39V68H1117.28V60.1797H1122.36V61.2754H1118.64V63.4346H1121.85V64.5088ZM1129.7 68H1128.34L1124.86 62.4517V68H1123.5V60.1797H1124.86L1128.36 65.7495V60.1797H1129.7V68Z" fill="#7C7C7C"/>
<path d="M1078.65 66.24C1078.45 66.713 1078.13 67.373 1077.86 67.791L1078.21 67.89H1075.56L1076.07 67.736C1075.94 67.318 1075.67 66.713 1075.37 66.24H1078.65ZM1074.77 64.117H1079.21V65.558H1074.77V64.117ZM1078.91 66.24H1080.03V63.435H1073.99V66.24H1075.23L1074.61 66.405C1074.88 66.856 1075.14 67.461 1075.25 67.89H1072.26V68.583H1081.76V67.89H1078.63C1078.89 67.483 1079.19 66.922 1079.45 66.383L1078.91 66.24ZM1081.14 60.179C1080.77 60.575 1080.17 61.092 1079.63 61.488C1079.37 61.235 1079.11 60.96 1078.88 60.674C1079.41 60.3 1080.04 59.805 1080.54 59.332L1079.93 58.892C1079.56 59.277 1079 59.783 1078.51 60.179C1078.2 59.75 1077.95 59.288 1077.74 58.826L1077.04 59.046C1077.51 60.08 1078.14 61.026 1078.9 61.84H1075.17C1075.81 61.158 1076.35 60.355 1076.7 59.453L1076.19 59.178L1076.03 59.211H1072.91V59.904H1075.64C1075.35 60.443 1074.97 60.96 1074.53 61.422C1074.18 61.048 1073.58 60.608 1073.06 60.3L1072.61 60.751C1073.12 61.07 1073.7 61.532 1074.04 61.884C1073.36 62.5 1072.58 63.006 1071.83 63.314C1072 63.457 1072.22 63.743 1072.33 63.908C1073.24 63.49 1074.17 62.852 1074.98 62.049V62.544H1079.02V61.961C1079.77 62.731 1080.64 63.358 1081.58 63.776C1081.7 63.567 1081.93 63.27 1082.12 63.105C1081.41 62.83 1080.73 62.412 1080.11 61.917C1080.65 61.543 1081.27 61.059 1081.75 60.608L1081.14 60.179ZM1091.45 64.304V67.351H1088.36V63.6H1091.85V59.838H1091V62.808H1088.36V58.859H1087.53V62.808H1085.01V59.838H1084.19V63.6H1087.53V67.351H1084.59V64.304H1083.78V68.836H1084.59V68.154H1091.45V68.814H1092.29V64.304H1091.45Z" fill="#00A19B"/>
<path d="M765.094 114.399V117.493H758.867V114.399H765.094ZM757.892 118.988H758.867V118.416H765.094V118.962H766.121V113.489H757.892V118.988ZM763.586 109.16C764.145 109.628 764.73 110.174 765.276 110.733C763.261 110.824 761.22 110.915 759.439 110.98C760.167 109.927 760.947 108.601 761.545 107.444L760.479 107.08C759.972 108.276 759.088 109.875 758.321 111.032C757.606 111.058 756.943 111.084 756.371 111.097L756.436 112.059C758.815 111.955 762.559 111.825 766.095 111.63C766.472 112.085 766.797 112.514 767.018 112.878L767.85 112.241C767.187 111.175 765.653 109.654 764.34 108.614L763.586 109.16ZM774.35 107.366C774.142 107.821 773.752 108.51 773.44 108.952L774.038 109.212C774.376 108.809 774.779 108.224 775.156 107.678L774.35 107.366ZM771.334 108.848C771.178 108.445 770.801 107.847 770.424 107.405L769.748 107.717C770.099 108.159 770.463 108.796 770.619 109.212L771.334 108.848ZM779.628 114.425H775.429V113.632H774.493V114.425H770.541V118.351H771.49V115.27H774.493V118.988H775.429V115.27H778.679V117.298C778.679 117.467 778.614 117.519 778.406 117.532C778.198 117.532 777.431 117.532 776.599 117.519C776.729 117.74 776.885 118.078 776.937 118.312C778.016 118.312 778.692 118.312 779.108 118.182C779.511 118.052 779.628 117.792 779.628 117.311V114.425ZM771.1 110.395C771.009 111.123 770.866 111.825 770.554 112.371C770.71 112.423 770.957 112.553 771.061 112.631C771.373 112.098 771.555 111.279 771.659 110.499L771.1 110.395ZM775.065 109.277H772.803V107.132H771.958V109.277H769.709V113.762H770.45V109.927H772.062V113.619H772.725V109.927H774.324V112.826C774.324 112.93 774.298 112.969 774.181 112.969H773.31C773.401 113.138 773.518 113.424 773.544 113.619C774.116 113.619 774.506 113.619 774.74 113.489C775.013 113.385 775.065 113.177 775.065 112.826V109.277ZM779.16 109.225C778.913 109.966 778.549 110.59 778.081 111.123C777.6 110.564 777.223 109.914 776.963 109.225H779.16ZM780.85 109.225V108.458H777.301C777.483 108.094 777.639 107.704 777.756 107.301L776.924 107.132C776.586 108.302 775.923 109.355 775.065 110.057C775.26 110.2 775.572 110.512 775.689 110.655C775.949 110.434 776.196 110.161 776.43 109.875C776.716 110.525 777.08 111.123 777.522 111.643C776.898 112.15 776.144 112.54 775.286 112.826C775.442 112.995 775.689 113.372 775.78 113.567C776.651 113.229 777.431 112.8 778.081 112.267C778.744 112.904 779.524 113.411 780.408 113.749C780.525 113.528 780.772 113.203 780.954 113.06C780.083 112.774 779.303 112.319 778.653 111.721C779.29 111.045 779.758 110.226 780.07 109.225H780.85ZM774.077 112.124C774.025 111.669 773.83 110.941 773.596 110.408L773.102 110.538C773.323 111.097 773.505 111.825 773.544 112.28L774.077 112.124ZM793.655 109.745V108.809H787.038C787.22 108.341 787.389 107.86 787.532 107.379L786.518 107.119C786.362 107.678 786.18 108.25 785.959 108.809H782.358V109.745H785.556C784.724 111.526 783.528 113.19 781.955 114.308C782.124 114.516 782.371 114.945 782.475 115.192C783.021 114.802 783.528 114.36 783.983 113.866V118.962H784.945V112.722C785.621 111.799 786.193 110.798 786.648 109.745H793.655ZM793.902 114.529H790.457V113.866C791.38 113.268 792.394 112.41 793.083 111.617L792.459 111.136L792.264 111.201H786.973V112.072H791.419C790.964 112.527 790.405 112.995 789.872 113.333H789.495V114.529H785.868V115.439H789.495V117.844C789.495 118.026 789.443 118.078 789.209 118.091C788.975 118.091 788.221 118.104 787.35 118.078C787.48 118.338 787.61 118.715 787.662 118.988C788.767 118.988 789.482 118.975 789.911 118.845C790.34 118.689 790.457 118.416 790.457 117.857V115.439H793.902V114.529ZM806.876 117.48H796.697V108.601H806.538V107.73H795.748V119.001H796.697V118.364H806.876V117.48ZM802.963 112.15H801.299V111.149H802.963V112.15ZM802.963 113.905H801.299V112.839H802.963V113.905ZM802.963 115.712H801.299V114.594H802.963V115.712ZM801.299 116.934V116.453H806.317V115.712H803.821V114.594H805.862V113.905H803.821V112.839H805.862V112.15H803.821V111.149H806.161V110.395H803.899C804.081 110.018 804.276 109.576 804.471 109.16L803.574 108.926C803.457 109.355 803.236 109.927 803.015 110.395H801.468C801.689 109.953 801.897 109.498 802.066 109.043L801.26 108.822C800.753 110.226 799.921 111.591 798.972 112.475C799.154 112.631 799.44 112.982 799.57 113.125C799.869 112.826 800.168 112.475 800.441 112.098V116.934H801.299ZM796.775 111.682C797.399 111.955 798.127 112.423 798.478 112.761L799.011 112.15C798.647 111.812 797.893 111.383 797.282 111.136L796.775 111.682ZM799.635 109.992C799.297 109.641 798.582 109.212 797.997 108.939L797.464 109.472C798.062 109.771 798.764 110.226 799.089 110.577L799.635 109.992ZM798.855 113.736C798.374 114.672 797.763 115.699 797.321 116.336L797.997 116.934C798.478 116.128 799.024 115.127 799.44 114.269L798.855 113.736Z" fill="#4A4A4A"/>
<path d="M853.089 107.886C852.556 107.6 851.568 107.275 850.814 107.119L850.346 107.626C851.126 107.821 852.088 108.172 852.595 108.445L853.089 107.886ZM846.472 108.861L846.563 109.615L849.189 109.459C850.151 110.759 851.672 111.552 852.985 111.552C853.791 111.552 854.129 111.253 854.259 110.083C854.012 110.018 853.713 109.888 853.518 109.732C853.466 110.473 853.362 110.694 853.024 110.694C852.153 110.707 851.087 110.226 850.294 109.394L854.116 109.16L854.038 108.406L849.722 108.666C849.423 108.211 849.215 107.691 849.137 107.119H848.24C848.318 107.704 848.487 108.237 848.734 108.731L846.472 108.861ZM845.328 115.374H851.841V116.284H845.328V115.374ZM845.328 113.853H851.841V114.75H845.328V113.853ZM845.328 112.358H851.841V113.229H845.328V112.358ZM844.392 116.921H852.803V111.708H844.392V116.921ZM844.99 111.344H845.913V108.627C846.381 108.237 846.81 107.821 847.161 107.392L846.29 107.067C845.406 108.12 843.898 109.108 842.481 109.732C842.702 109.888 843.053 110.239 843.196 110.421C843.781 110.122 844.392 109.758 844.99 109.342V111.344ZM846.55 117.051C845.627 117.571 844.067 118.026 842.741 118.299C842.962 118.468 843.287 118.845 843.456 119.027C844.743 118.676 846.368 118.078 847.421 117.467L846.55 117.051ZM849.579 117.584C850.996 118.052 852.4 118.598 853.206 119.014L854.272 118.533C853.323 118.104 851.776 117.545 850.372 117.09L849.579 117.584ZM858.237 110.291H856.014V111.097H861.409V110.291H859.147V109.173H861.669V108.354H859.147V107.171H858.237V108.354H855.715V109.173H858.237V110.291ZM856.56 115.14C856.313 116.115 855.91 117.077 855.364 117.74C855.572 117.831 855.949 118.026 856.105 118.143C856.638 117.441 857.106 116.362 857.366 115.296L856.56 115.14ZM861.799 114.698V113.866H855.559V114.698H858.25V118C858.25 118.13 858.211 118.169 858.055 118.169C857.925 118.182 857.457 118.182 856.95 118.169C857.067 118.403 857.197 118.754 857.236 119.001C857.977 119.001 858.445 118.988 858.744 118.845C859.069 118.715 859.147 118.455 859.147 118.013V114.698H861.799ZM861.591 117.064C861.422 116.557 861.019 115.738 860.629 115.127L859.901 115.426C860.265 116.063 860.655 116.921 860.824 117.441L861.591 117.064ZM864.763 110.356H866.297C866.18 111.201 866.024 112.124 865.855 112.722L866.622 112.956C866.895 112.098 867.129 110.733 867.298 109.602L866.674 109.42L866.518 109.459H863.346C863.502 108.757 863.632 108.016 863.736 107.262L862.774 107.106C862.514 109.134 862.059 111.11 861.253 112.384V112.072H856.144V112.878H861.253V112.475C861.487 112.592 861.89 112.878 862.046 113.021C862.475 112.293 862.826 111.383 863.112 110.356H863.814V112.111C863.827 113.177 863.45 116.492 860.733 118.221C860.902 118.403 861.175 118.806 861.279 119.001C863.398 117.61 864.165 115.205 864.295 114.1C864.412 115.166 865.088 117.675 866.921 118.988C867.051 118.767 867.35 118.39 867.519 118.182C865.14 116.492 864.75 113.138 864.763 112.111V110.356Z" fill="#4A4A4A"/>
<path d="M905.955 116.453H908.672V115.66H905.955V114.568H904.993V115.66H902.341V116.453H904.993V117.818H900.638V118.637H910.44V117.818H905.955V116.453ZM903.16 112.41H907.879V113.333H903.16V112.41ZM907.879 109.186V110.057H903.16V109.186H907.879ZM903.16 110.785H907.879V111.682H903.16V110.785ZM911.363 114.152V113.333H908.854V109.186H910.804V108.38H908.854V107.132H907.879V108.38H903.16V107.132H902.211V108.38H900.235V109.186H902.211V113.333H899.637V114.152H902.445C901.704 115.075 900.586 115.894 899.507 116.323C899.728 116.505 899.988 116.83 900.131 117.064C901.392 116.479 902.705 115.361 903.524 114.152H907.593C908.373 115.296 909.634 116.375 910.895 116.895C911.038 116.674 911.311 116.336 911.532 116.154C910.44 115.764 909.335 115.01 908.607 114.152H911.363ZM915.406 111.058C916.68 110.096 917.772 109.017 918.448 108.042C919.202 109.056 920.372 110.135 921.646 111.058H915.406ZM918.942 114.503H923.401V113.658H918.942V111.916H921.724V111.11C922.439 111.63 923.18 112.098 923.895 112.462C924.051 112.176 924.285 111.851 924.519 111.604C922.504 110.707 920.255 108.965 918.877 107.106H917.915C916.901 108.731 914.769 110.642 912.533 111.773C912.741 111.968 913.014 112.306 913.118 112.527C913.859 112.137 914.587 111.669 915.263 111.175V111.916H917.941V113.658H913.586V114.503H917.941V117.714H913.001V118.572H924.025V117.714H918.942V114.503ZM914.665 115.153C915.172 115.894 915.679 116.895 915.848 117.545L916.68 117.181C916.498 116.531 915.978 115.569 915.445 114.854L914.665 115.153ZM920.736 117.545C921.23 116.934 921.841 115.998 922.322 115.179L921.412 114.828C921.087 115.556 920.489 116.583 920.021 117.22L920.736 117.545Z" fill="#4A4A4A"/>
<path d="M958.771 110.07H956.08V108.432H958.771V110.07ZM958.771 112.488H956.08V110.837H958.771V112.488ZM958.771 114.945H956.08V113.255H958.771V114.945ZM959.707 107.626H955.17V115.725H959.707V107.626ZM956.067 116.011C955.729 116.934 955.144 117.831 954.481 118.429C954.702 118.559 955.092 118.845 955.261 119.001C955.924 118.338 956.587 117.285 956.99 116.245L956.067 116.011ZM957.9 116.375C958.42 117.025 958.992 117.922 959.265 118.507L960.084 118.078C959.811 117.506 959.226 116.648 958.667 116.011L957.9 116.375ZM966.454 110.2H964.79V107.171H963.841V110.2H960.11V111.097H963.49C962.671 113.151 961.28 115.205 959.824 116.232C960.032 116.388 960.318 116.713 960.487 116.947C961.748 115.933 962.97 114.23 963.841 112.345V117.779C963.841 118 963.763 118.065 963.555 118.065C963.36 118.078 962.723 118.078 961.995 118.065C962.138 118.312 962.294 118.741 962.333 119.001C963.321 119.001 963.919 118.962 964.283 118.806C964.647 118.637 964.79 118.351 964.79 117.779V111.097H966.454V110.2ZM972.993 115.075V116.102H969.977V115.075H972.993ZM977.075 116.102H973.929V115.075H977.075V116.102ZM973.929 117.831V116.778H977.075V117.831H973.929ZM969.977 116.778H972.993V117.831H969.977V116.778ZM969.054 118.988H969.977V118.572H977.075V118.936H978.024V114.347H969.054V118.988ZM977.218 109.667H969.821V110.369H977.218V109.667ZM970.796 111.825H976.256V112.93H970.796V111.825ZM977.192 113.619V111.136H969.912V113.619H977.192ZM973.955 107.977V107.119H972.98V107.977H968.092V110.421H969.015V108.809H977.998V110.421H978.947V107.977H973.955ZM989.984 116.544V117.805H983.887V116.544H989.984ZM989.152 113.06V114.165H983.887V113.06H989.152ZM983.887 114.906H990.101V112.319H982.977V119.001H983.887V118.559H989.984V118.975H990.933V115.79H983.887V114.906ZM992.402 108.107H987.995C988.151 107.847 988.281 107.561 988.398 107.288L987.475 107.067C987.215 107.717 986.812 108.328 986.331 108.861V108.107H982.925C983.068 107.847 983.198 107.574 983.302 107.301L982.405 107.067C982.015 108.081 981.313 109.095 980.533 109.771C980.767 109.888 981.144 110.148 981.326 110.291C981.703 109.914 982.093 109.446 982.444 108.913H983.003C983.25 109.368 983.51 109.888 983.614 110.239L984.472 109.979C984.381 109.693 984.186 109.29 983.965 108.913H986.279C986.032 109.186 985.759 109.42 985.473 109.628C985.616 109.693 985.824 109.81 986.006 109.927V110.746H981.105V113.177H982.015V111.513H991.05V113.177H991.986V110.746H986.929V109.732H986.734C986.981 109.485 987.228 109.212 987.462 108.913H988.502C988.866 109.368 989.23 109.901 989.373 110.278L990.257 109.979C990.114 109.68 989.841 109.277 989.555 108.913H992.402V108.107ZM997.589 115.387L996.172 115.855V112.631H997.472V111.734H996.172V108.913H997.667V108.003H993.637V108.913H995.249V111.734H993.78V112.631H995.249V116.141C994.586 116.362 993.988 116.544 993.507 116.687L993.728 117.662C994.885 117.285 996.367 116.778 997.758 116.31L997.589 115.387ZM999.188 111.006H1001.16V112.657H999.188V111.006ZM999.188 108.562H1001.16V110.2H999.188V108.562ZM1003.99 110.2H1002V108.562H1003.99V110.2ZM1003.99 112.657H1002V111.006H1003.99V112.657ZM1002.07 117.688V115.907H1005.1V115.023H1002.07V113.502H1004.91V107.717H998.304V113.502H1001.1V115.023H998.148V115.907H1001.1V117.688H997.147V118.572H1005.52V117.688H1002.07Z" fill="#4A4A4A"/>
<path d="M1039.62 107.184C1038.97 109.147 1037.93 111.097 1036.77 112.358C1036.94 112.592 1037.2 113.125 1037.28 113.333C1037.72 112.839 1038.14 112.254 1038.54 111.617V119.001H1039.46V109.953C1039.87 109.147 1040.22 108.289 1040.5 107.431L1039.62 107.184ZM1045.86 115.556H1043.66V113.541H1045.86V115.556ZM1047.13 111.383V110.642H1045.13V109.173H1044.34V110.642H1042.39V111.383H1044.34V112.813H1042.92V116.271H1046.63V112.813H1045.13V111.383H1047.13ZM1041.86 117.35V108.757H1047.58V117.35H1041.86ZM1040.96 107.912V118.975H1041.86V118.208H1047.58V118.871H1048.5V107.912H1040.96ZM1055.34 107.522C1055.25 109.238 1055.25 115.439 1049.98 118.13C1050.28 118.325 1050.59 118.637 1050.76 118.871C1054.05 117.09 1055.39 113.957 1055.96 111.357C1056.59 113.957 1058.02 117.285 1061.37 118.871C1061.51 118.611 1061.81 118.286 1062.08 118.078C1057.2 115.842 1056.49 109.836 1056.38 108.12C1056.39 107.899 1056.39 107.691 1056.4 107.522H1055.34ZM1067.47 107.574H1063.72V108.354H1067.47V107.574ZM1067.95 109.277H1063.05V110.07H1067.95V109.277ZM1066.65 115.283V117.467H1064.48V115.283H1066.65ZM1067.49 114.49H1063.63V118.845H1064.48V118.247H1067.49V114.49ZM1063.66 113.528H1067.51V112.748H1063.66V113.528ZM1063.66 111.799H1067.51V111.032H1063.66V111.799ZM1069.88 108.393H1072.11V110.707C1072.11 111.63 1072.34 111.877 1073.13 111.877H1074.03C1074.72 111.877 1074.95 111.5 1075.03 109.979C1074.79 109.927 1074.41 109.784 1074.23 109.628C1074.2 110.876 1074.15 111.045 1073.91 111.045H1073.26C1073.06 111.045 1073.02 110.993 1073.02 110.707V107.535H1068.96V109.095C1068.96 109.992 1068.77 111.071 1067.52 111.864C1067.71 111.994 1068.08 112.332 1068.22 112.501C1069.6 111.591 1069.88 110.226 1069.88 109.108V108.393ZM1073.63 112.67L1073.46 112.709H1068.12V113.593H1073.03C1072.64 114.594 1072.06 115.439 1071.33 116.128C1070.6 115.413 1070.03 114.568 1069.65 113.619L1068.79 113.879C1069.23 114.971 1069.84 115.92 1070.61 116.713C1069.7 117.389 1068.65 117.857 1067.54 118.143C1067.73 118.338 1067.97 118.754 1068.06 118.988C1069.25 118.637 1070.37 118.117 1071.33 117.376C1072.21 118.091 1073.24 118.624 1074.42 118.975C1074.55 118.741 1074.84 118.351 1075.05 118.156C1073.9 117.87 1072.9 117.389 1072.06 116.752C1073.04 115.777 1073.81 114.516 1074.25 112.917L1073.63 112.67ZM1077.55 109.524H1086.41V111.422H1087.4V108.614H1082.48V107.132H1081.48V108.614H1076.61V111.422H1077.55V109.524ZM1082.48 115.049H1086.33V114.152H1082.48V111.994H1085.8V111.084H1078.27V111.994H1081.49V117.441C1080.43 117.038 1079.6 116.297 1079.1 114.932C1079.23 114.386 1079.34 113.814 1079.41 113.203L1078.43 113.112C1078.14 115.439 1077.44 117.285 1075.99 118.403C1076.23 118.546 1076.63 118.884 1076.79 119.053C1077.63 118.312 1078.27 117.35 1078.72 116.154C1079.91 118.351 1081.84 118.819 1084.54 118.819H1087.55C1087.59 118.533 1087.76 118.078 1087.92 117.844C1087.29 117.857 1085.06 117.857 1084.59 117.857C1083.83 117.857 1083.12 117.818 1082.48 117.701V115.049ZM1092.83 116.219C1092.04 116.934 1090.48 117.818 1089.23 118.325C1089.46 118.507 1089.79 118.832 1089.96 119.014C1091.18 118.468 1092.73 117.584 1093.73 116.804L1092.83 116.219ZM1096.2 116.83C1097.59 117.519 1099.07 118.39 1099.93 119.027L1100.82 118.364C1099.86 117.727 1098.32 116.869 1096.9 116.193L1096.2 116.83ZM1099.56 115.101C1099.67 113.203 1099.75 110.2 1099.76 107.951H1096.99V108.783H1098.86C1098.86 109.277 1098.85 109.797 1098.84 110.317H1097.12V111.136H1098.82C1098.81 111.669 1098.78 112.202 1098.77 112.722H1097.09V113.541H1098.73C1098.71 114.113 1098.68 114.633 1098.64 115.101H1096.48V110.733H1094.44V109.381H1096.73V108.562H1094.44V107.236H1093.6V111.513H1095.64V115.101H1094.39V112.085H1093.58V115.101H1091.35L1091.3 113.541H1092.95V112.722H1091.26L1091.2 111.136H1092.93V110.317H1091.18L1091.13 108.939C1091.87 108.64 1092.67 108.289 1093.35 107.938L1092.6 107.249C1092.18 107.535 1091.52 107.912 1090.87 108.224L1090.22 108.029L1090.46 115.101H1089.12V116.011H1100.9V115.101H1099.56ZM1103.8 113.71C1103.81 113.19 1103.83 112.683 1103.83 112.241V111.526H1105.79V113.71H1103.8ZM1105.79 108.497V110.629H1103.83V108.497H1105.79ZM1106.69 107.6H1102.94V112.241C1102.94 114.152 1102.88 116.726 1101.98 118.546C1102.22 118.637 1102.61 118.858 1102.77 119.014C1103.36 117.792 1103.63 116.167 1103.75 114.633H1105.79V117.831C1105.79 118.013 1105.73 118.065 1105.54 118.078C1105.39 118.091 1104.84 118.091 1104.24 118.078C1104.37 118.325 1104.5 118.754 1104.52 119.001C1105.4 119.001 1105.92 118.988 1106.25 118.819C1106.58 118.65 1106.69 118.364 1106.69 117.844V107.6ZM1112.63 112.917C1112.33 114.022 1111.89 114.997 1111.33 115.829C1110.73 114.971 1110.26 113.983 1109.91 112.917H1112.63ZM1113.12 111.994L1112.95 112.02H1108.74V108.536H1112.38V110.122C1112.38 110.278 1112.33 110.33 1112.12 110.33C1111.93 110.343 1111.25 110.343 1110.46 110.33C1110.59 110.564 1110.73 110.889 1110.77 111.149C1111.74 111.149 1112.39 111.149 1112.81 111.019C1113.2 110.876 1113.32 110.629 1113.32 110.135V107.639H1107.83V119.001H1108.74V112.917H1109.07C1109.5 114.256 1110.07 115.504 1110.8 116.557C1110.2 117.259 1109.52 117.818 1108.81 118.208C1109 118.377 1109.25 118.702 1109.38 118.923C1110.09 118.507 1110.76 117.948 1111.34 117.259C1111.97 117.987 1112.67 118.572 1113.45 119.014C1113.59 118.78 1113.85 118.455 1114.07 118.273C1113.25 117.87 1112.52 117.285 1111.9 116.57C1112.72 115.413 1113.34 113.957 1113.68 112.189L1113.12 111.994ZM1124.74 109.303C1124.45 109.966 1124.02 110.512 1123.48 110.98C1122.87 110.499 1122.37 109.927 1122.01 109.303H1124.74ZM1119.54 114.945C1119.83 114.412 1120.09 113.671 1120.31 112.917C1120.45 113.099 1120.6 113.294 1120.66 113.424C1121.72 113.099 1122.68 112.67 1123.5 112.098C1124.35 112.709 1125.36 113.177 1126.45 113.476C1126.58 113.216 1126.86 112.852 1127.06 112.644C1126.02 112.423 1125.06 112.033 1124.24 111.513C1124.9 110.915 1125.43 110.187 1125.8 109.303H1126.8V108.484H1122.48C1122.7 108.12 1122.91 107.743 1123.08 107.366L1122.16 107.119C1121.64 108.354 1120.7 109.537 1119.69 110.291C1119.92 110.421 1120.3 110.694 1120.48 110.85C1120.79 110.59 1121.1 110.265 1121.42 109.927C1121.78 110.512 1122.24 111.045 1122.76 111.513C1122.09 111.942 1121.3 112.267 1120.43 112.514C1120.49 112.28 1120.56 112.046 1120.62 111.825L1120.04 111.617L1119.9 111.669H1118.93L1119.43 111.11C1119.15 110.863 1118.76 110.59 1118.34 110.33C1119.12 109.732 1119.95 108.9 1120.45 108.12L1119.83 107.73L1119.66 107.769H1115.29V108.614H1118.97C1118.58 109.069 1118.09 109.537 1117.61 109.901C1117.19 109.68 1116.75 109.472 1116.35 109.303L1115.75 109.927C1116.76 110.369 1117.96 111.097 1118.63 111.669H1115.15V112.514H1117.11C1116.63 113.84 1115.83 115.231 1115.02 115.998C1115.19 116.245 1115.42 116.622 1115.53 116.895C1116.24 116.167 1116.92 114.945 1117.43 113.697V117.87C1117.43 118.013 1117.37 118.052 1117.22 118.065C1117.05 118.065 1116.54 118.065 1115.98 118.052C1116.11 118.299 1116.24 118.702 1116.28 118.936C1117.06 118.936 1117.57 118.923 1117.91 118.793C1118.23 118.624 1118.34 118.364 1118.34 117.87V112.514H1119.58C1119.39 113.268 1119.13 114.074 1118.88 114.607L1119.54 114.945ZM1123.47 114.373C1123.55 113.957 1123.61 113.528 1123.65 113.086H1122.68C1122.64 113.528 1122.59 113.957 1122.51 114.373H1120.27V115.179H1122.3C1121.9 116.505 1121.08 117.597 1119.28 118.247C1119.48 118.416 1119.74 118.767 1119.86 118.988C1121.94 118.182 1122.85 116.83 1123.3 115.179H1125.49C1125.29 116.96 1125.1 117.688 1124.85 117.935C1124.72 118.052 1124.61 118.065 1124.41 118.065C1124.2 118.065 1123.68 118.052 1123.12 118C1123.26 118.247 1123.35 118.637 1123.38 118.897C1123.96 118.936 1124.51 118.923 1124.82 118.91C1125.16 118.871 1125.41 118.806 1125.63 118.572C1126.01 118.195 1126.25 117.207 1126.49 114.789C1126.5 114.633 1126.51 114.373 1126.51 114.373H1123.47Z" fill="#4A4A4A"/>
<path d="M225.916 105.978C224.226 108.207 222.184 110.151 219.869 111.734L218.286 108.489C220.101 107.262 221.708 105.757 223.047 104.029C223.993 104.672 224.939 105.335 225.916 105.978Z" fill="#009D95"/>
<path d="M239.463 104.6H227.051V107.917H239.463V104.6Z" fill="#009D95"/>
<path d="M240.372 111.469V114.683H237.071L236.999 123.868C236.919 124.234 236.756 124.576 236.522 124.87C236.289 125.163 235.991 125.4 235.651 125.562C234.129 126.195 232.206 125.96 230.51 125.96L229.193 122.613L233.245 122.541C233.416 122.448 233.548 122.295 233.615 122.113V114.744L225.913 114.653C225.913 113.846 225.913 113.01 225.841 112.275C225.508 112.856 225.137 113.415 224.73 113.948V126.134H221.347C221.347 123.491 221.347 120.807 221.347 118.163C220.771 118.602 220.236 119.133 219.701 119.602L218.179 115.99C220.364 114.269 222.188 112.14 223.547 109.723L225.913 111.438L240.372 111.469Z" fill="#009D95"/>
<path d="M209.631 121.766C209.364 121.838 209.497 121.531 209.261 121.531C209.189 121.297 208.963 121.236 208.798 121.062C208.633 120.889 208.448 120.837 208.49 120.501C208.582 120.501 208.49 120.164 208.726 120.297V120.195C208.995 120.046 209.252 119.879 209.497 119.694C209.569 119.592 209.734 119.592 209.775 119.46C209.816 119.327 209.868 119.46 209.94 119.46V119.388C209.94 119.317 210.073 119.388 210.104 119.388V119.296C210.104 119.225 210.207 119.296 210.238 119.296V119.225C210.238 119.154 210.371 119.225 210.413 119.225V119.123C210.474 119.052 210.546 119.123 210.608 119.123V119.021C210.608 119.021 210.68 119.021 210.711 119.021V118.96C210.711 118.888 210.814 118.96 210.855 118.96V118.419C210.577 118.358 210.711 117.949 210.413 117.888C210.31 117.888 210.413 117.684 210.279 117.755C210.135 117.623 210.176 117.419 210.001 117.347C209.826 117.276 209.898 117.082 209.806 117.021C209.713 116.959 209.672 116.684 209.497 116.643C209.418 116.36 209.239 116.113 208.993 115.949C208.932 116.01 208.891 116.112 208.757 116.082C208.623 116.051 208.757 116.174 208.757 116.174C208.346 116.347 208.078 116.817 207.636 116.98C207.502 117.184 207.266 117.245 207.07 117.388C206.875 117.531 206.793 117.215 206.69 117.113C206.628 116.684 206.258 116.092 206.69 115.776H210.063V104.386H199.368L199.306 107.805C197.811 106.871 196.599 105.552 195.799 103.988H192.786C191.743 105.891 190.323 107.564 188.611 108.907C188.981 110.081 189.382 111.316 189.855 112.489L190.729 111.959C190.904 112.122 190.801 112.459 190.832 112.694H192.55C192.55 112.969 192.55 113.265 192.55 113.53H189.177V116.48L192.58 116.551V121.94L191.974 122.205L189.105 122.44L189.279 125.787C192.179 125.389 195.049 124.848 197.846 124.246C198.391 124.481 198.082 125.267 198.185 125.716C198.491 125.823 198.825 125.823 199.131 125.716C199.635 125.787 199.769 125.42 200.273 125.552C200.417 125.287 200.91 125.552 201.085 125.359C201.71 125.274 202.328 125.148 202.936 124.981C203.329 124.936 203.715 124.847 204.088 124.716C204.458 124.614 205.003 124.716 205.271 124.42V122.276L205.435 122.174C205.532 122.22 205.614 122.29 205.674 122.378C205.734 122.466 205.768 122.569 205.775 122.674C205.98 122.746 206.011 123.011 206.217 123.113C206.422 123.215 206.217 123.348 206.35 123.277C206.35 123.613 206.752 123.511 206.752 123.848C207.06 123.909 207.06 124.287 207.327 124.348C207.43 124.614 207.667 124.685 207.831 124.848C207.996 125.012 208.212 125.052 208.212 125.318C208.458 125.438 208.684 125.597 208.88 125.787C209.117 125.787 209.014 125.859 209.251 125.787C209.408 125.565 209.546 125.329 209.662 125.083C209.796 124.981 209.857 124.787 209.991 124.716C210.125 124.644 210.166 124.511 210.166 124.348C210.33 124.348 210.33 124.144 210.402 124.052C210.583 123.819 210.742 123.57 210.875 123.307C211.009 123.307 211.009 123.144 211.112 123.011V122.807C210.608 122.541 210.149 122.196 209.754 121.787L209.631 121.766ZM194.329 107.928C194.92 108.408 195.412 108.997 195.779 109.663H193.146C193.485 109.036 193.881 108.442 194.329 107.887V107.928ZM199.357 122.317H198.617C198.617 121.878 198.617 121.45 198.617 121.042C198.483 121.042 198.453 120.909 198.422 120.848C198.751 119.735 198.884 118.603 199.121 117.5C198.318 117.239 197.496 117.037 196.663 116.898L195.954 120.307L196.026 120.48L197.907 120.909C197.2 121.149 196.463 121.296 195.717 121.348V116.582H198.854V113.52L195.768 113.459V112.714C196.468 112.653 197.218 112.714 197.959 112.714C198.014 112.294 198.039 111.871 198.031 111.448C198.195 111.275 198.36 111.581 198.535 111.581C198.895 111.112 199.07 110.499 199.378 110.04L199.357 122.317ZM202.803 107.815L202.967 107.683H206.608C206.772 107.948 206.68 108.387 206.71 108.754L206.608 108.826H202.967C202.628 108.693 202.864 108.152 202.803 107.805V107.815ZM202.628 121.736V115.98C202.833 115.806 203.543 115.674 203.471 116.204C203.706 117.924 204.17 119.605 204.849 121.205C204.133 121.478 203.388 121.666 202.628 121.766V121.736ZM202.895 112.857C202.781 112.498 202.781 112.113 202.895 111.755H206.608C206.844 111.989 206.71 112.459 206.741 112.775C205.471 112.862 204.198 112.883 202.926 112.836" fill="#009D95"/>
<path d="M189.801 121.838C190.346 121.736 190.881 121.603 191.416 121.501C191.621 121.399 191.961 121.429 192.033 121.236C192.033 119.858 191.724 118.551 191.662 117.276C191.323 117.051 190.912 117.276 190.541 117.276C190.171 117.276 189.626 117.511 189.163 117.613L189.39 121.797L189.503 121.858C189.626 121.858 189.77 121.93 189.801 121.797" fill="#009D95"/>
<path d="M115.355 108.079C116.529 111.089 116.756 114.381 116.007 117.522C115.258 120.663 113.568 123.504 111.159 125.673C109.001 127.582 106.376 128.895 103.546 129.48C100.716 130.066 97.7807 129.904 95.0338 129.01C92.0501 128.042 89.4191 126.224 87.4681 123.783C85.517 121.343 84.3319 118.387 84.0601 115.283C83.7884 112.18 84.4419 109.065 85.9396 106.327C87.4372 103.589 89.7128 101.349 92.4834 99.8838C95.1792 98.4852 98.2091 97.8447 101.245 98.0318C104.281 98.2189 107.208 99.2263 109.709 100.945C112.248 102.741 114.218 105.22 115.385 108.089" fill="#009D95"/>
<path d="M99.4261 105.416C100.002 105.253 100.732 104.814 101.308 105.253C101.709 105.855 102.82 106.049 102.511 106.886C103.078 107.641 103.734 108.326 104.465 108.927C104.63 108.927 104.691 108.855 104.763 108.753L104.568 108.651C104.794 108.447 105.37 108.784 105.74 108.58C105.878 108.573 106.015 108.596 106.143 108.648C106.271 108.699 106.386 108.776 106.481 108.876C106.595 109.182 106.74 109.476 106.913 109.753L107.046 109.682C107.174 109.969 107.318 110.249 107.478 110.519C108.692 110.917 109.268 112.346 110.337 112.948C111.626 113.972 113.052 114.813 114.574 115.448C114.502 115.642 114.739 115.642 114.841 115.713C114.637 115.593 114.398 115.546 114.163 115.581C114.368 115.877 114.872 115.744 114.975 116.081H114.44C114.44 116.183 114.574 116.183 114.636 116.214C114.368 116.111 114.101 116.316 113.926 115.979C112.856 115.481 111.825 114.905 110.841 114.254V114.254C111.677 114.946 112.592 115.539 113.566 116.02C113.865 116.183 114.296 116.285 114.471 116.581C114.368 116.581 114.194 116.581 114.163 116.754L113.926 116.622C113.865 116.622 113.926 116.714 113.926 116.754L114.091 116.887C112.851 116.366 111.688 115.68 110.635 114.846C110.132 114.509 109.607 114.244 109.124 113.825C109.062 113.825 108.959 113.825 108.918 113.897C109.494 114.326 110.101 114.591 110.666 114.989C109.499 114.458 108.45 113.702 107.581 112.764C107.221 112.397 106.676 111.631 106.039 111.744C105.812 111.886 105.442 111.846 105.175 111.978C104.907 112.111 104.794 111.744 104.599 111.917C104.434 112.284 103.9 111.978 103.797 112.387C103.457 112.519 102.851 112.387 102.768 112.815V112.978C102.09 113.285 101.185 113.183 100.712 113.815C100.568 113.948 100.3 113.815 100.166 113.948C100.166 113.887 100.166 113.815 100.074 113.815C99.9814 113.815 99.7963 113.917 99.6626 113.948C99.5597 113.785 99.7963 113.744 99.7654 113.652C99.4672 113.519 99.3335 113.917 99.097 114.05C99.097 113.785 99.4363 113.744 99.5289 113.519C99.3644 113.417 99.2307 113.581 99.097 113.611C99.1587 113.611 99.3027 113.356 99.097 113.356C99.2615 113.08 99.6317 113.183 99.7346 112.887H99.4261L100.228 112.254C100.125 112.254 99.93 111.978 99.7551 112.254C99.7551 112.254 99.8271 112.193 99.7551 112.162C99.6832 112.131 99.4466 112.254 99.2821 112.254C99.2821 112.254 99.2821 112.162 99.2204 112.121H99.1175C99.2204 112.06 99.3541 111.886 99.4775 111.784L99.4261 111.846C99.93 111.55 100.454 111.213 100.938 110.978L101.041 110.876C101.007 110.837 100.965 110.806 100.918 110.785C100.871 110.763 100.82 110.752 100.768 110.752C100.716 110.752 100.665 110.763 100.618 110.785C100.571 110.806 100.529 110.837 100.496 110.876C100.938 110.876 100.496 110.376 100.969 110.315C101.021 110.144 101.106 109.986 101.221 109.849C101.336 109.713 101.478 109.6 101.637 109.519C101.205 109.111 101.041 108.376 100.537 108.151C100.537 107.845 100.197 108.151 100.166 107.845C99.5597 107.845 98.8502 108.11 98.4491 107.58C98.1099 107.51 97.7599 107.51 97.4207 107.58C97.2 107.826 97.0196 108.105 96.886 108.406C96.6652 108.655 96.4817 108.933 96.3409 109.233C96.0499 109.683 95.6314 110.038 95.1377 110.254V110.254C94.7675 110.754 93.9653 110.56 93.4923 111.09V110.958C93.4572 110.947 93.4202 110.944 93.3837 110.948C93.3472 110.952 93.3119 110.963 93.2801 110.981C93.2482 111 93.2205 111.024 93.1986 111.053C93.1767 111.083 93.1612 111.116 93.1529 111.152V111.223C92.9164 111.152 92.7519 111.417 92.649 111.55C92.0731 112.152 91.1373 112.152 90.5306 112.652C90.4689 112.652 90.5306 112.652 90.5306 112.652C89.4199 112.887 88.8851 113.672 88.1447 114.519C87.9118 114.817 87.6423 115.084 87.3426 115.315C87.4146 115.581 87.0032 115.683 86.8695 115.816C87.0032 115.581 87.3117 115.387 87.3426 115.122C87.0752 115.254 87.0032 115.55 86.705 115.683C86.5404 115.55 86.8695 115.448 86.7667 115.315L86.3656 115.622L86.7358 115.122C86.5404 115.122 86.3348 115.489 86.0982 115.52C86.0365 115.622 85.9337 115.622 85.8 115.622C86.0021 115.46 86.1912 115.282 86.3656 115.091C86.1291 114.958 85.8617 115.254 85.6972 115.224C85.5326 115.193 85.6972 115.02 85.5018 115.091C85.6747 114.99 85.8142 114.841 85.9028 114.662C85.7691 114.662 85.5943 114.724 85.4606 114.795C85.4606 114.622 85.8309 114.519 85.728 114.254C85.2961 114.193 85.3578 114.622 84.9979 114.724C85.3578 114.223 85.9028 113.928 86.2628 113.397C86.9863 112.695 87.8155 112.11 88.7206 111.662C89.4199 111.264 90.3557 111.07 90.8699 110.396C91.071 110.158 91.25 109.902 91.4047 109.631C91.5075 109.631 91.5384 109.57 91.5692 109.498C92.0611 109.185 92.6303 109.012 93.2146 108.998C93.482 108.733 93.9859 108.896 94.243 108.529C94.9423 107.702 95.22 106.671 95.8164 105.835C96.0221 105.569 96.2586 105.13 96.6597 105.039C97.5912 105.084 98.5169 105.21 99.4261 105.416" fill="white"/>
<path d="M106.92 109.378L106.789 108.948L106.92 109.317V109.378Z" fill="white"/>
<path d="M107.161 110.052C107.026 110.052 107.057 109.918 106.995 109.815C107.077 109.872 107.136 109.956 107.161 110.052Z" fill="white"/>
<path d="M91.1339 110.255C91.0412 110.061 91.309 109.999 91.412 109.826C91.3739 109.997 91.2752 110.149 91.1339 110.255" fill="#00A28D"/>
<path d="M94.3676 110.348V110.315H94.4704L94.3676 110.348Z" fill="#00A28D"/>
<path d="M93.657 110.551C93.5947 110.612 93.5635 110.715 93.4597 110.685C93.3559 110.654 93.5947 110.478 93.657 110.551Z" fill="#00A28D"/>
<path d="M100.107 111.112C99.9426 111.244 99.6032 111.346 99.5723 111.55C99.2741 111.55 99.0684 111.816 98.8319 111.816C98.8319 111.55 99.2741 111.714 99.305 111.448L99.5723 111.244V111.346C99.6752 111.244 100.015 111.346 99.9117 111.05L100.107 111.112Z" fill="white"/>
<path d="M99.0383 111.275C98.9999 111.344 98.9467 111.403 98.8825 111.45C98.8182 111.496 98.7444 111.527 98.6664 111.541C98.7284 111.377 98.8627 111.377 99.0383 111.275Z" fill="white"/>
<path d="M92.1086 111.713C92.1793 111.815 92.0481 111.713 92.0078 111.785C91.9674 111.856 92.0784 111.713 92.1086 111.713Z" fill="#00A28D"/>
<path d="M99.7749 111.877H99.6736V111.979H99.7749V111.877Z" fill="white"/>
<path d="M99.5369 112.112C99.5369 112.184 99.4642 112.184 99.433 112.246H99.3292C99.3292 112.143 99.4019 112.112 99.4642 112.081C99.5265 112.05 99.4642 112.081 99.5369 112.081" fill="white"/>
<path d="M100.179 112.744C100.179 112.878 99.9715 112.878 99.9094 112.909C99.8472 112.94 99.9094 112.847 99.9094 112.775C99.9094 112.703 100.044 112.713 100.148 112.775" fill="white"/>
<path d="M100.241 112.948C100.241 113.081 99.973 113.081 99.8391 113.183C99.8391 113.05 100.004 112.979 100.107 112.918C100.21 112.856 100.241 112.918 100.241 112.918" fill="#00A28D"/>
<path d="M108.302 113.316C108.436 113.377 108.508 113.54 108.611 113.642L108.508 113.744C108.291 113.522 108.117 113.262 107.994 112.979C108.096 113.081 108.168 113.244 108.302 113.316Z" fill="#00A28D"/>
<path d="M113.137 115.051C113.033 115.113 112.899 114.979 112.806 114.949L113.137 115.051Z" fill="white"/>
<path d="M114.079 115.551C113.801 115.377 113.442 115.377 113.236 115.183C113.544 115.231 113.835 115.357 114.079 115.551" fill="white"/>
<path d="M111.125 115.51L110.712 115.214L110.98 115.347L111.125 115.51Z" fill="white"/>
<path d="M113.979 116.51L114.009 116.449L114.11 116.51H113.979Z" fill="white"/>
<path d="M113.816 116.683H113.685V116.612C113.685 116.612 113.776 116.612 113.816 116.683Z" fill="white"/>
<path d="M172.211 120.857H177.107V106.723H180.613V125.552H177.107V124.286L163.624 124.246L163.594 125.46H159.984V106.559H163.594V120.857L168.561 120.827V103.477H172.211V120.857Z" fill="#009D95"/>
<path d="M150.391 107.386L142.421 107.407L142.359 107.468V112.285L149.856 112.356V115.765H142.328L142.287 121.837L151.368 121.868V125.358H129.597V121.898L138.647 121.868V115.806L131.212 115.765V112.326H138.647V107.376L130.708 107.294V103.876H150.391V107.386Z" fill="#009D95"/>
<path d="M148.168 117.684C148.328 117.944 148.434 118.233 148.48 118.535C148.526 118.836 148.511 119.143 148.436 119.439C148.337 119.778 148.156 120.089 147.908 120.343C147.661 120.597 147.355 120.788 147.017 120.898C146.599 121.022 146.155 121.021 145.738 120.896C145.321 120.771 144.95 120.527 144.672 120.194C144.489 119.976 144.353 119.723 144.27 119.452C144.187 119.18 144.159 118.895 144.189 118.612C144.24 118.199 144.41 117.809 144.678 117.489C144.946 117.169 145.301 116.932 145.7 116.806C146.152 116.665 146.637 116.675 147.083 116.833C147.529 116.991 147.91 117.29 148.168 117.684" fill="#009D95"/>
<path d="M1186.65 149.354C1186.84 149.549 1187.16 149.549 1187.35 149.354L1190.54 146.172C1190.73 145.976 1190.73 145.66 1190.54 145.464C1190.34 145.269 1190.02 145.269 1189.83 145.464L1187 148.293L1184.17 145.464C1183.98 145.269 1183.66 145.269 1183.46 145.464C1183.27 145.66 1183.27 145.976 1183.46 146.172L1186.65 149.354ZM1187.35 47.6464C1187.16 47.4512 1186.84 47.4512 1186.65 47.6464L1183.46 50.8284C1183.27 51.0237 1183.27 51.3403 1183.46 51.5355C1183.66 51.7308 1183.98 51.7308 1184.17 51.5355L1187 48.7071L1189.83 51.5355C1190.02 51.7308 1190.34 51.7308 1190.54 51.5355C1190.73 51.3403 1190.73 51.0237 1190.54 50.8284L1187.35 47.6464ZM1187.5 149L1187.5 48L1186.5 48L1186.5 149L1187.5 149Z" fill="#E73525"/>
<path d="M83.6464 142.646C83.4512 142.842 83.4512 143.158 83.6464 143.354L86.8284 146.536C87.0237 146.731 87.3403 146.731 87.5355 146.536C87.7308 146.34 87.7308 146.024 87.5355 145.828L84.7071 143L87.5355 140.172C87.7308 139.976 87.7308 139.66 87.5355 139.464C87.3403 139.269 87.0237 139.269 86.8284 139.464L83.6464 142.646ZM240.354 143.354C240.549 143.158 240.549 142.842 240.354 142.646L237.172 139.464C236.976 139.269 236.66 139.269 236.464 139.464C236.269 139.66 236.269 139.976 236.464 140.172L239.293 143L236.464 145.828C236.269 146.024 236.269 146.34 236.464 146.536C236.66 146.731 236.976 146.731 237.172 146.536L240.354 143.354ZM84 143.5L240 143.5L240 142.5L84 142.5L84 143.5Z" fill="#E73525"/>
<path d="M812.646 126.646C812.451 126.842 812.451 127.158 812.646 127.354L815.828 130.536C816.024 130.731 816.34 130.731 816.536 130.536C816.731 130.34 816.731 130.024 816.536 129.828L813.707 127L816.536 124.172C816.731 123.976 816.731 123.66 816.536 123.464C816.34 123.269 816.024 123.269 815.828 123.464L812.646 126.646ZM839.354 127.354C839.549 127.158 839.549 126.842 839.354 126.646L836.172 123.464C835.976 123.269 835.66 123.269 835.464 123.464C835.269 123.66 835.269 123.976 835.464 124.172L838.293 127L835.464 129.828C835.269 130.024 835.269 130.34 835.464 130.536C835.66 130.731 835.976 130.731 836.172 130.536L839.354 127.354ZM813 127.5L839 127.5L839 126.5L813 126.5L813 127.5Z" fill="#E73525"/>
<path d="M1153.65 126.646C1153.45 126.842 1153.45 127.158 1153.65 127.354L1156.83 130.536C1157.02 130.731 1157.34 130.731 1157.54 130.536C1157.73 130.34 1157.73 130.024 1157.54 129.828L1154.71 127L1157.54 124.172C1157.73 123.976 1157.73 123.66 1157.54 123.464C1157.34 123.269 1157.02 123.269 1156.83 123.464L1153.65 126.646ZM1180.35 127.354C1180.55 127.158 1180.55 126.842 1180.35 126.646L1177.17 123.464C1176.98 123.269 1176.66 123.269 1176.46 123.464C1176.27 123.66 1176.27 123.976 1176.46 124.172L1179.29 127L1176.46 129.828C1176.27 130.024 1176.27 130.34 1176.46 130.536C1176.66 130.731 1176.98 130.731 1177.17 130.536L1180.35 127.354ZM1154 127.5L1180 127.5L1180 126.5L1154 126.5L1154 127.5Z" fill="#E73525"/>
<path d="M37.6464 126.646C37.4512 126.842 37.4512 127.158 37.6464 127.354L40.8284 130.536C41.0237 130.731 41.3403 130.731 41.5355 130.536C41.7308 130.34 41.7308 130.024 41.5355 129.828L38.7071 127L41.5355 124.172C41.7308 123.976 41.7308 123.66 41.5355 123.464C41.3403 123.269 41.0237 123.269 40.8284 123.464L37.6464 126.646ZM64.3536 127.354C64.5488 127.158 64.5488 126.842 64.3536 126.646L61.1716 123.464C60.9763 123.269 60.6597 123.269 60.4645 123.464C60.2692 123.66 60.2692 123.976 60.4645 124.172L63.2929 127L60.4645 129.828C60.2692 130.024 60.2692 130.34 60.4645 130.536C60.6597 130.731 60.9763 130.731 61.1716 130.536L64.3536 127.354ZM38 127.5L64 127.5L64 126.5L38 126.5L38 127.5Z" fill="#E73525"/>
<path d="M150.708 169H144.187V168.091L147.632 164.263C148.142 163.684 148.493 163.215 148.685 162.854C148.881 162.49 148.979 162.114 148.979 161.727C148.979 161.207 148.821 160.781 148.507 160.448C148.192 160.116 147.773 159.949 147.249 159.949C146.62 159.949 146.13 160.129 145.779 160.489C145.433 160.845 145.26 161.341 145.26 161.979H143.995C143.995 161.063 144.289 160.323 144.877 159.758C145.469 159.193 146.26 158.91 147.249 158.91C148.174 158.91 148.906 159.154 149.443 159.642C149.981 160.125 150.25 160.77 150.25 161.576C150.25 162.556 149.626 163.723 148.377 165.076L145.711 167.968H150.708V169ZM152.629 164.01L153.135 159.047H158.234V160.216H154.208L153.907 162.93C154.395 162.643 154.949 162.499 155.568 162.499C156.475 162.499 157.195 162.8 157.729 163.401C158.262 163.998 158.528 164.807 158.528 165.828C158.528 166.854 158.25 167.662 157.694 168.255C157.143 168.843 156.37 169.137 155.377 169.137C154.497 169.137 153.78 168.893 153.224 168.405C152.668 167.918 152.351 167.243 152.273 166.382H153.47C153.547 166.951 153.75 167.382 154.078 167.674C154.406 167.961 154.839 168.104 155.377 168.104C155.965 168.104 156.425 167.904 156.758 167.503C157.095 167.102 157.264 166.548 157.264 165.842C157.264 165.176 157.081 164.643 156.717 164.242C156.357 163.837 155.876 163.634 155.274 163.634C154.723 163.634 154.29 163.755 153.976 163.996L153.641 164.27L152.629 164.01ZM164.872 159.04V160.113H164.64C163.655 160.132 162.871 160.423 162.288 160.988C161.705 161.553 161.368 162.349 161.276 163.374C161.8 162.772 162.516 162.472 163.423 162.472C164.289 162.472 164.979 162.777 165.494 163.388C166.014 163.998 166.273 164.787 166.273 165.753C166.273 166.778 165.993 167.599 165.433 168.214C164.877 168.829 164.129 169.137 163.19 169.137C162.238 169.137 161.465 168.772 160.873 168.043C160.281 167.309 159.984 166.366 159.984 165.213V164.728C159.984 162.896 160.374 161.496 161.153 160.53C161.937 159.56 163.102 159.063 164.646 159.04H164.872ZM163.211 163.524C162.778 163.524 162.379 163.654 162.015 163.914C161.65 164.174 161.397 164.5 161.256 164.892V165.356C161.256 166.177 161.44 166.838 161.81 167.339C162.179 167.84 162.639 168.091 163.19 168.091C163.76 168.091 164.207 167.881 164.53 167.462C164.858 167.043 165.022 166.493 165.022 165.814C165.022 165.131 164.856 164.579 164.523 164.16C164.195 163.736 163.758 163.524 163.211 163.524ZM174.148 165.384C174.148 166.509 173.891 167.416 173.376 168.104C172.861 168.793 172.164 169.137 171.284 169.137C170.386 169.137 169.68 168.852 169.165 168.282V171.844H167.9V161.604H169.056L169.117 162.424C169.632 161.786 170.348 161.467 171.264 161.467C172.152 161.467 172.854 161.802 173.369 162.472C173.889 163.142 174.148 164.074 174.148 165.268V165.384ZM172.884 165.24C172.884 164.406 172.706 163.748 172.351 163.265C171.995 162.782 171.507 162.54 170.888 162.54C170.122 162.54 169.548 162.88 169.165 163.559V167.093C169.543 167.767 170.122 168.104 170.901 168.104C171.507 168.104 171.988 167.865 172.344 167.387C172.704 166.904 172.884 166.188 172.884 165.24ZM178.134 164.304L179.774 161.604H181.251L178.831 165.261L181.326 169H179.863L178.154 166.231L176.445 169H174.976L177.471 165.261L175.051 161.604H176.514L178.134 164.304Z" fill="black"/>
<path d="M816.456 93.6572H817.837V94.6895H816.456V97H815.185V94.6895H810.652V93.9443L815.109 87.0469H816.456V93.6572ZM812.088 93.6572H815.185V88.7764L815.034 89.0498L812.088 93.6572ZM825.22 92.7549C825.22 94.236 824.967 95.3366 824.461 96.0566C823.955 96.7767 823.164 97.1367 822.089 97.1367C821.027 97.1367 820.241 96.7858 819.73 96.084C819.22 95.3776 818.956 94.3249 818.938 92.9258V91.2373C818.938 89.7744 819.19 88.6875 819.696 87.9766C820.202 87.2656 820.995 86.9102 822.075 86.9102C823.146 86.9102 823.935 87.2542 824.44 87.9424C824.946 88.626 825.206 89.6833 825.22 91.1143V92.7549ZM823.955 91.0254C823.955 89.9544 823.805 89.1751 823.504 88.6875C823.203 88.1953 822.727 87.9492 822.075 87.9492C821.428 87.9492 820.956 88.193 820.66 88.6807C820.364 89.1683 820.211 89.918 820.202 90.9297V92.9531C820.202 94.0286 820.357 94.8239 820.667 95.3389C820.981 95.8493 821.455 96.1045 822.089 96.1045C822.713 96.1045 823.176 95.863 823.477 95.3799C823.782 94.8968 823.941 94.1357 823.955 93.0967V91.0254ZM833.218 93.3838C833.218 94.5094 832.96 95.4163 832.445 96.1045C831.93 96.7926 831.233 97.1367 830.354 97.1367C829.456 97.1367 828.749 96.8519 828.234 96.2822V99.8438H826.97V89.6035H828.125L828.187 90.4238C828.701 89.7858 829.417 89.4668 830.333 89.4668C831.222 89.4668 831.924 89.8018 832.438 90.4717C832.958 91.1416 833.218 92.0736 833.218 93.2676V93.3838ZM831.953 93.2402C831.953 92.4062 831.775 91.7477 831.42 91.2646C831.064 90.7816 830.577 90.54 829.957 90.54C829.191 90.54 828.617 90.8796 828.234 91.5586V95.0928C828.613 95.7673 829.191 96.1045 829.971 96.1045C830.577 96.1045 831.058 95.8652 831.413 95.3867C831.773 94.9036 831.953 94.1882 831.953 93.2402ZM837.203 92.3037L838.844 89.6035H840.32L837.9 93.2607L840.396 97H838.933L837.224 94.2314L835.515 97H834.045L836.54 93.2607L834.12 89.6035H835.583L837.203 92.3037Z" fill="black"/>
<path d="M1158.46 161.657H1159.84V162.689H1158.46V165H1157.18V162.689H1152.65V161.944L1157.11 155.047H1158.46V161.657ZM1154.09 161.657H1157.18V156.776L1157.03 157.05L1154.09 161.657ZM1167.22 160.755C1167.22 162.236 1166.97 163.337 1166.46 164.057C1165.96 164.777 1165.16 165.137 1164.09 165.137C1163.03 165.137 1162.24 164.786 1161.73 164.084C1161.22 163.378 1160.96 162.325 1160.94 160.926V159.237C1160.94 157.774 1161.19 156.688 1161.7 155.977C1162.2 155.266 1163 154.91 1164.08 154.91C1165.15 154.91 1165.93 155.254 1166.44 155.942C1166.95 156.626 1167.21 157.683 1167.22 159.114V160.755ZM1165.96 159.025C1165.96 157.954 1165.8 157.175 1165.5 156.688C1165.2 156.195 1164.73 155.949 1164.08 155.949C1163.43 155.949 1162.96 156.193 1162.66 156.681C1162.36 157.168 1162.21 157.918 1162.2 158.93V160.953C1162.2 162.029 1162.36 162.824 1162.67 163.339C1162.98 163.849 1163.46 164.104 1164.09 164.104C1164.71 164.104 1165.18 163.863 1165.48 163.38C1165.78 162.897 1165.94 162.136 1165.96 161.097V159.025ZM1175.22 161.384C1175.22 162.509 1174.96 163.416 1174.45 164.104C1173.93 164.793 1173.23 165.137 1172.35 165.137C1171.46 165.137 1170.75 164.852 1170.23 164.282V167.844H1168.97V157.604H1170.12L1170.19 158.424C1170.7 157.786 1171.42 157.467 1172.33 157.467C1173.22 157.467 1173.92 157.802 1174.44 158.472C1174.96 159.142 1175.22 160.074 1175.22 161.268V161.384ZM1173.95 161.24C1173.95 160.406 1173.78 159.748 1173.42 159.265C1173.06 158.782 1172.58 158.54 1171.96 158.54C1171.19 158.54 1170.62 158.88 1170.23 159.559V163.093C1170.61 163.767 1171.19 164.104 1171.97 164.104C1172.58 164.104 1173.06 163.865 1173.41 163.387C1173.77 162.904 1173.95 162.188 1173.95 161.24ZM1179.2 160.304L1180.84 157.604H1182.32L1179.9 161.261L1182.4 165H1180.93L1179.22 162.231L1177.51 165H1176.04L1178.54 161.261L1176.12 157.604H1177.58L1179.2 160.304Z" fill="black"/>
<path d="M42.4561 161.657H43.8369V162.689H42.4561V165H41.1846V162.689H36.6523V161.944L41.1094 155.047H42.4561V161.657ZM38.0879 161.657H41.1846V156.776L41.0342 157.05L38.0879 161.657ZM51.2197 160.755C51.2197 162.236 50.9668 163.337 50.4609 164.057C49.9551 164.777 49.1644 165.137 48.0889 165.137C47.027 165.137 46.2409 164.786 45.7305 164.084C45.2201 163.378 44.9557 162.325 44.9375 160.926V159.237C44.9375 157.774 45.1904 156.688 45.6963 155.977C46.2021 155.266 46.9951 154.91 48.0752 154.91C49.1462 154.91 49.9346 155.254 50.4404 155.942C50.9463 156.626 51.2061 157.683 51.2197 159.114V160.755ZM49.9551 159.025C49.9551 157.954 49.8047 157.175 49.5039 156.688C49.2031 156.195 48.7269 155.949 48.0752 155.949C47.4281 155.949 46.9564 156.193 46.6602 156.681C46.3639 157.168 46.2113 157.918 46.2021 158.93V160.953C46.2021 162.029 46.3571 162.824 46.667 163.339C46.9814 163.849 47.4554 164.104 48.0889 164.104C48.7132 164.104 49.1758 163.863 49.4766 163.38C49.7819 162.897 49.9414 162.136 49.9551 161.097V159.025ZM59.2178 161.384C59.2178 162.509 58.9603 163.416 58.4453 164.104C57.9303 164.793 57.2331 165.137 56.3535 165.137C55.4557 165.137 54.7493 164.852 54.2344 164.282V167.844H52.9697V157.604H54.125L54.1865 158.424C54.7015 157.786 55.417 157.467 56.333 157.467C57.2217 157.467 57.9235 157.802 58.4385 158.472C58.958 159.142 59.2178 160.074 59.2178 161.268V161.384ZM57.9531 161.24C57.9531 160.406 57.7754 159.748 57.4199 159.265C57.0645 158.782 56.5768 158.54 55.957 158.54C55.1914 158.54 54.6172 158.88 54.2344 159.559V163.093C54.6126 163.767 55.1914 164.104 55.9707 164.104C56.5768 164.104 57.0576 163.865 57.4131 163.387C57.7731 162.904 57.9531 162.188 57.9531 161.24ZM63.2031 160.304L64.8438 157.604H66.3203L63.9004 161.261L66.3955 165H64.9326L63.2236 162.231L61.5146 165H60.0449L62.54 161.261L60.1201 157.604H61.583L63.2031 160.304Z" fill="black"/>
<path d="M1199.34 108H1198.07V99.5713L1195.52 100.508V99.3594L1199.14 97.999H1199.34V108ZM1208.01 98.04V99.1133H1207.78C1206.79 99.1315 1206.01 99.4232 1205.43 99.9883C1204.84 100.553 1204.51 101.349 1204.42 102.374C1204.94 101.772 1205.65 101.472 1206.56 101.472C1207.43 101.472 1208.12 101.777 1208.63 102.388C1209.15 102.998 1209.41 103.787 1209.41 104.753C1209.41 105.778 1209.13 106.599 1208.57 107.214C1208.02 107.829 1207.27 108.137 1206.33 108.137C1205.38 108.137 1204.6 107.772 1204.01 107.043C1203.42 106.309 1203.12 105.366 1203.12 104.213V103.728C1203.12 101.896 1203.51 100.496 1204.29 99.5303C1205.08 98.5596 1206.24 98.0628 1207.79 98.04H1208.01ZM1206.35 102.524C1205.92 102.524 1205.52 102.654 1205.15 102.914C1204.79 103.174 1204.54 103.5 1204.39 103.892V104.356C1204.39 105.177 1204.58 105.838 1204.95 106.339C1205.32 106.84 1205.78 107.091 1206.33 107.091C1206.9 107.091 1207.35 106.881 1207.67 106.462C1208 106.043 1208.16 105.493 1208.16 104.814C1208.16 104.131 1207.99 103.579 1207.66 103.16C1207.33 102.736 1206.9 102.524 1206.35 102.524ZM1216.95 100.645C1216.95 101.141 1216.81 101.583 1216.55 101.971C1216.29 102.358 1215.94 102.661 1215.49 102.88C1216.01 103.103 1216.42 103.429 1216.72 103.857C1217.03 104.286 1217.18 104.771 1217.18 105.313C1217.18 106.175 1216.89 106.861 1216.3 107.371C1215.72 107.882 1214.96 108.137 1214.01 108.137C1213.06 108.137 1212.29 107.882 1211.71 107.371C1211.13 106.856 1210.85 106.17 1210.85 105.313C1210.85 104.776 1210.99 104.29 1211.29 103.857C1211.58 103.424 1211.99 103.096 1212.51 102.873C1212.07 102.654 1211.72 102.351 1211.46 101.964C1211.21 101.576 1211.08 101.137 1211.08 100.645C1211.08 99.806 1211.35 99.1406 1211.89 98.6484C1212.42 98.1562 1213.13 97.9102 1214.01 97.9102C1214.89 97.9102 1215.59 98.1562 1216.13 98.6484C1216.67 99.1406 1216.95 99.806 1216.95 100.645ZM1215.91 105.286C1215.91 104.73 1215.74 104.277 1215.38 103.926C1215.03 103.575 1214.57 103.399 1214 103.399C1213.43 103.399 1212.97 103.573 1212.62 103.919C1212.28 104.265 1212.11 104.721 1212.11 105.286C1212.11 105.851 1212.28 106.296 1212.61 106.619C1212.95 106.943 1213.42 107.104 1214.01 107.104C1214.61 107.104 1215.07 106.943 1215.41 106.619C1215.74 106.291 1215.91 105.847 1215.91 105.286ZM1214.01 98.9492C1213.52 98.9492 1213.11 99.1042 1212.8 99.4141C1212.5 99.7194 1212.34 100.136 1212.34 100.665C1212.34 101.171 1212.5 101.581 1212.8 101.896C1213.1 102.205 1213.51 102.36 1214.01 102.36C1214.52 102.36 1214.92 102.205 1215.22 101.896C1215.53 101.581 1215.68 101.171 1215.68 100.665C1215.68 100.159 1215.52 99.7467 1215.21 99.4277C1214.89 99.1087 1214.5 98.9492 1214.01 98.9492ZM1225.15 104.384C1225.15 105.509 1224.89 106.416 1224.38 107.104C1223.86 107.793 1223.16 108.137 1222.28 108.137C1221.39 108.137 1220.68 107.852 1220.17 107.282V110.844H1218.9V100.604H1220.06L1220.12 101.424C1220.63 100.786 1221.35 100.467 1222.26 100.467C1223.15 100.467 1223.85 100.802 1224.37 101.472C1224.89 102.142 1225.15 103.074 1225.15 104.268V104.384ZM1223.88 104.24C1223.88 103.406 1223.71 102.748 1223.35 102.265C1223 101.782 1222.51 101.54 1221.89 101.54C1221.12 101.54 1220.55 101.88 1220.17 102.559V106.093C1220.54 106.767 1221.12 107.104 1221.9 107.104C1222.51 107.104 1222.99 106.865 1223.34 106.387C1223.7 105.904 1223.88 105.188 1223.88 104.24ZM1229.13 103.304L1230.77 100.604H1232.25L1229.83 104.261L1232.33 108H1230.86L1229.15 105.231L1227.45 108H1225.98L1228.47 104.261L1226.05 100.604H1227.51L1229.13 103.304Z" fill="black"/>
<path d="M266.906 107.79C266.096 110.382 264.728 112.956 263.234 114.594C263.558 115.134 264.08 116.394 264.242 116.916C264.656 116.448 265.052 115.926 265.448 115.368V124.584H267.482V111.822C268.022 110.688 268.49 109.536 268.886 108.402L266.906 107.79ZM275.384 119.202H273.548V117.312H275.384V119.202ZM277.436 114.288V112.74H275.258V110.904H273.602V112.74H271.532V114.288H273.602V115.836H272V120.66H276.986V115.836H275.258V114.288H277.436ZM271.082 121.65V110.526H277.85V121.65H271.082ZM269.138 108.672V124.548H271.082V123.504H277.85V124.386H279.884V108.672H269.138ZM288.506 108.168C288.38 110.544 288.632 118.716 281.45 122.694C282.17 123.198 282.872 123.846 283.25 124.404C287.048 122.082 288.938 118.608 289.91 115.368C290.918 118.68 292.934 122.388 297.002 124.404C297.344 123.828 297.992 123.09 298.658 122.586C291.944 119.436 291.044 111.678 290.9 109.194C290.918 108.816 290.936 108.456 290.954 108.168H288.506ZM300.206 118.284C300.062 119.796 299.81 121.398 299.288 122.46C299.72 122.622 300.494 122.964 300.854 123.216C301.358 122.064 301.754 120.282 301.916 118.572L300.206 118.284ZM311.258 120.228C311.024 120.228 310.988 120.084 310.988 119.634V118.05H313.598V116.43H311.996V115.026H313.544V113.406H312.68C312.968 112.794 313.31 111.966 313.688 111.192L312.068 110.724C311.942 111.426 311.636 112.488 311.366 113.154L312.086 113.406H309.854L310.718 113.1C310.646 112.488 310.358 111.516 309.998 110.814L308.738 111.264C309.008 111.912 309.242 112.794 309.332 113.406H308.684V115.026H310.196V116.43H308.63V118.05H309.206V119.616C309.206 121.308 309.566 121.902 311.258 121.902H312.464C312.878 121.902 313.256 121.884 313.526 121.776C313.472 121.362 313.418 120.552 313.382 120.12C313.13 120.192 312.716 120.228 312.464 120.228H311.258ZM315.974 108.528H306.308V115.908C306.002 115.116 305.588 114.27 305.174 113.55L303.662 114.18C303.86 114.54 304.058 114.936 304.238 115.332L302.672 115.422C303.806 113.982 305.03 112.2 306.02 110.688L304.274 109.878C303.86 110.76 303.284 111.786 302.654 112.794C302.492 112.578 302.294 112.326 302.078 112.092C302.744 111.084 303.482 109.662 304.112 108.42L302.258 107.772C301.97 108.69 301.466 109.896 300.962 110.886C300.818 110.76 300.674 110.634 300.548 110.508L299.504 111.948C300.224 112.686 301.052 113.658 301.556 114.468C301.286 114.846 301.016 115.206 300.746 115.53L299.45 115.602L299.666 117.456L302.168 117.258V124.566H304.004V117.114L304.904 117.042C305.012 117.438 305.12 117.798 305.174 118.104L306.308 117.582V120.084C306.128 119.454 305.912 118.77 305.66 118.212L304.166 118.662C304.562 119.688 304.904 121.02 304.994 121.902L306.308 121.47V124.602H308.216V110.382H314.03V122.442C314.03 122.694 313.94 122.784 313.688 122.802C313.436 122.802 312.626 122.802 311.906 122.766C312.158 123.252 312.41 124.062 312.464 124.566C313.724 124.584 314.57 124.53 315.182 124.224C315.776 123.918 315.974 123.432 315.974 122.442V108.528ZM327.404 117.888C328.196 117.402 328.934 116.88 329.618 116.25C330.302 116.862 331.04 117.402 331.868 117.888H327.404ZM327.89 122.082V119.688H331.274V122.082H327.89ZM324.83 116.484H322.85V114.378H324.65V113.226C325.136 113.55 325.784 114.126 326.09 114.45C326.45 114.072 326.81 113.658 327.152 113.208C327.476 113.73 327.836 114.27 328.268 114.792C327.26 115.728 326.072 116.502 324.83 117.042V116.484ZM320.312 110.256H322.688V112.542H320.312V110.256ZM330.842 111.282C330.482 112.038 330.05 112.74 329.528 113.406C329.024 112.794 328.574 112.164 328.214 111.552L328.358 111.282H330.842ZM332.12 109.392L331.742 109.464H329.222C329.384 109.068 329.528 108.654 329.672 108.258L327.638 107.754C327.044 109.716 325.964 111.624 324.65 112.884V108.42H318.44V114.378H320.96V121.146L320.06 121.326V115.638H318.314V121.686L317.504 121.83L317.882 123.882C319.916 123.414 322.652 122.784 325.172 122.154L324.974 120.264L322.85 120.75V118.356H324.83V117.834C325.082 118.176 325.352 118.572 325.496 118.86L325.91 118.68V124.53H327.89V123.918H331.274V124.476H333.326V118.59L333.362 118.608C333.65 118.05 334.262 117.204 334.694 116.808C333.254 116.358 332.012 115.638 330.968 114.81C332.066 113.478 332.912 111.858 333.47 109.968L332.12 109.392ZM345.602 116.556H346.61C346.934 118.266 347.384 119.796 348.032 121.092C347.222 121.272 346.394 121.452 345.602 121.632V116.556ZM349.598 110.31V111.552H345.602V110.31H349.598ZM345.602 114.666V113.352H349.598V114.666H345.602ZM337.952 112.2C338.708 111.372 339.284 110.526 339.77 109.752C340.526 110.472 341.336 111.444 341.876 112.2H337.952ZM350.894 117.006C350.444 117.492 349.742 118.104 349.112 118.59C348.86 117.96 348.68 117.276 348.518 116.556H351.632V108.42H343.604V122.028L343.01 122.136L342.956 121.164C342.128 121.308 341.282 121.434 340.454 121.578V117.114H342.83V115.296H340.454V113.982H342.434V112.272L343.532 110.976C342.866 110.004 341.444 108.672 340.346 107.772H338.6C337.97 109.158 336.872 110.85 335.27 112.128C335.702 112.416 336.296 113.118 336.584 113.55L336.872 113.298V113.982H338.6V115.296H336.08V117.114H338.6V121.866C337.556 122.028 336.602 122.154 335.828 122.262L336.242 124.17C337.988 123.882 340.274 123.486 342.47 123.072L342.83 124.368C344.414 124.008 346.412 123.54 348.284 123.072L348.05 121.164C348.824 122.658 349.85 123.828 351.308 124.602C351.596 124.044 352.208 123.234 352.676 122.82C351.47 122.262 350.552 121.362 349.868 120.21C350.642 119.724 351.578 119.076 352.334 118.464L350.894 117.006ZM336.242 118.158C336.53 119.148 336.8 120.426 336.854 121.29L338.33 120.876C338.24 120.048 337.952 118.77 337.646 117.798L336.242 118.158ZM341.894 121.038C342.2 120.264 342.56 119.094 342.92 118.032L341.3 117.636C341.192 118.518 340.886 119.832 340.634 120.66L341.894 121.038ZM369.794 108.78H361.046V110.814H369.794V108.78ZM357.59 107.754C356.726 109.014 355.016 110.634 353.522 111.588C353.9 112.002 354.44 112.866 354.71 113.334C356.42 112.146 358.364 110.292 359.66 108.6L357.59 107.754ZM358.274 111.642C357.122 113.676 355.16 115.764 353.324 117.024C353.756 117.474 354.476 118.446 354.782 118.878C355.268 118.482 355.754 118.032 356.258 117.546V124.584H358.4V115.188C359.12 114.288 359.786 113.352 360.326 112.434L358.274 111.642ZM370.244 113.73H360.29V115.764H365.6V122.028C365.6 122.298 365.474 122.37 365.15 122.37C364.826 122.388 363.638 122.388 362.612 122.334C362.9 122.964 363.17 123.882 363.26 124.512C364.862 124.512 366.014 124.476 366.77 124.152C367.562 123.828 367.778 123.234 367.778 122.082V115.764H370.244V113.73Z" fill="#4A4A4A"/>
<rect x="938" y="54" width="108.19" height="18.1832" rx="1" fill="#F5F5F5"/>
<path d="M1037.16 67.9648C1037.13 67.9648 1037.09 67.958 1037.06 67.9447C1037.03 67.9314 1037 67.9119 1036.97 67.8872L1034.09 65.0015C1034.04 64.9518 1034.01 64.8843 1034.01 64.8139C1034.01 64.7435 1034.04 64.6761 1034.09 64.6263C1034.14 64.5765 1034.21 64.5486 1034.28 64.5486C1034.35 64.5486 1034.41 64.5765 1034.46 64.6263L1037.35 67.5127C1037.38 67.5498 1037.41 67.597 1037.42 67.6484C1037.43 67.6997 1037.42 67.7529 1037.4 67.8013C1037.38 67.8496 1037.35 67.8909 1037.31 67.92C1037.26 67.9491 1037.21 67.9647 1037.16 67.9648V67.9648Z" fill="#1C1C1C"/>
<path d="M1031.53 66.0875C1031.4 66.0875 1031.26 66.0802 1031.13 66.0669C1030.34 65.987 1029.59 65.6745 1028.98 65.1689C1028.36 64.6633 1027.91 63.9874 1027.69 63.2266C1027.46 62.4657 1027.46 61.6542 1027.69 60.8946C1027.92 60.1349 1028.38 59.4613 1028.99 58.959C1029.49 58.5522 1030.08 58.2711 1030.71 58.1393C1031.34 58.0075 1031.99 58.0288 1032.61 58.2015C1033.23 58.3742 1033.8 58.6932 1034.27 59.1317C1034.74 59.5702 1035.1 60.1153 1035.31 60.7212C1035.53 61.3271 1035.6 61.976 1035.51 62.6134C1035.42 63.2508 1035.19 63.8579 1034.82 64.3839C1034.45 64.9098 1033.95 65.339 1033.38 65.6355C1032.81 65.9319 1032.18 66.0869 1031.53 66.0875ZM1031.53 58.5838C1030.62 58.5847 1029.74 58.9411 1029.09 59.5769C1028.44 60.2126 1028.06 61.0775 1028.04 61.9871C1028.02 62.8967 1028.35 63.7791 1028.97 64.446C1029.59 65.113 1030.45 65.5118 1031.35 65.5574C1032.26 65.603 1033.15 65.2918 1033.84 64.6901C1034.52 64.0885 1034.94 63.244 1035.01 62.3368C1035.08 61.4295 1034.79 60.5312 1034.2 59.8335C1033.62 59.1357 1032.79 58.6937 1031.88 58.6017C1031.76 58.5897 1031.64 58.5838 1031.53 58.5838Z" fill="#1C1C1C"/>
<path d="M1034.34 62.6197H1034.31C1034.28 62.6163 1034.25 62.606 1034.22 62.5895C1034.18 62.573 1034.16 62.5505 1034.14 62.5234C1034.11 62.4963 1034.1 62.4651 1034.09 62.4315C1034.08 62.398 1034.07 62.3628 1034.08 62.328C1034.13 61.8097 1034.02 61.2882 1033.77 60.8326C1033.51 60.3771 1033.13 60.009 1032.66 59.777C1032.63 59.7623 1032.6 59.7412 1032.58 59.7151C1032.55 59.6889 1032.54 59.6582 1032.52 59.6247C1032.51 59.5913 1032.51 59.5558 1032.51 59.5204C1032.51 59.4849 1032.52 59.4502 1032.54 59.4184C1032.55 59.3866 1032.57 59.3582 1032.6 59.335C1032.63 59.3118 1032.66 59.2943 1032.69 59.2834C1032.73 59.2725 1032.76 59.2685 1032.8 59.2717C1032.83 59.2748 1032.87 59.285 1032.9 59.3017C1033.46 59.5813 1033.93 60.0254 1034.23 60.5754C1034.54 61.1253 1034.67 61.755 1034.61 62.381C1034.6 62.4467 1034.57 62.5075 1034.52 62.5516C1034.47 62.5957 1034.41 62.62 1034.34 62.6197Z" fill="#1C1C1C"/>
<path d="M946.832 63.9297L946.722 63.1927L945.49 63.5557V61.3887H946.711V60.6407H945.49V58.4407H944.698V60.6407H943.18V61.3887H944.698V63.7867C944.082 63.9627 943.51 64.1167 943.048 64.2377L943.257 65.0407L944.698 64.5897V67.5377C944.698 67.6917 944.654 67.7467 944.5 67.7467C944.357 67.7467 943.906 67.7467 943.411 67.7357C943.521 67.9447 943.62 68.2747 943.653 68.4727C944.379 68.4727 944.819 68.4507 945.105 68.3407C945.38 68.2087 945.49 67.9777 945.49 67.5377V64.3477L946.832 63.9297ZM951.617 65.1397C951.199 65.7667 950.605 66.2617 949.901 66.6577C949.219 66.2507 948.658 65.7337 948.273 65.1397H951.617ZM952.233 64.4137L952.09 64.4467H950.231V63.4567H952.761V59.3317H950.638V60.0027H952.035V61.0587H950.682V61.6857H952.035V62.7747H950.231V58.4407H949.505V62.7747H947.822V61.6857H948.999V61.0587H947.822V60.0797C948.361 59.8927 948.933 59.6507 949.395 59.3757L948.79 58.8367C948.493 59.0787 947.998 59.3317 947.514 59.5297L947.096 59.3977V63.4567H949.505V64.4467H946.81V65.1397H948.02L947.514 65.3267C947.921 65.9977 948.46 66.5697 949.109 67.0427C948.218 67.4167 947.206 67.6587 946.183 67.8017C946.315 67.9667 946.469 68.2857 946.546 68.4837C947.712 68.2967 948.845 67.9887 949.835 67.5047C950.693 67.9887 951.705 68.3297 952.805 68.5387C952.915 68.3297 953.135 67.9997 953.311 67.8237C952.332 67.6697 951.43 67.4167 950.638 67.0537C951.54 66.4597 952.277 65.6787 952.739 64.6557L952.233 64.4137ZM962.683 58.8697H955.5V59.4527H961.891V60.1127H955.764V60.6627H961.891V61.3227H955.434V61.8947H962.683V58.8697ZM954.521 64.9417C955.676 64.8427 957.293 64.7217 958.877 64.5897V63.9737C958.25 64.0177 957.623 64.0617 957.018 64.1057V63.0717H958.657V62.4557H954.664V63.0717H956.248V64.1607C955.566 64.2047 954.95 64.2487 954.444 64.2817L954.521 64.9417ZM960.175 63.0277H962.683V64.1057H960.175V63.0277ZM964.146 65.3817H961.88V64.6777H963.497V62.4557H959.416V64.6777H961.077V65.3817H954.235V66.0857H956.512L956.05 66.4817C956.699 66.8557 957.436 67.4387 957.788 67.8567L958.371 67.3287C958.019 66.9547 957.348 66.4377 956.743 66.0857H961.077V67.5707C961.077 67.7137 961.033 67.7577 960.846 67.7687C960.659 67.7797 959.999 67.7797 959.284 67.7577C959.394 67.9667 959.515 68.2637 959.548 68.4727C960.505 68.4727 961.066 68.4727 961.429 68.3517C961.781 68.2417 961.88 68.0217 961.88 67.5817V66.0857H964.146V65.3817ZM969.459 64.5017C968.876 64.6557 968.271 64.8207 967.699 64.9747V60.5087H969.294V59.7277H965.29V60.5087H966.896V65.1947C966.225 65.3597 965.62 65.5137 965.136 65.6237L965.345 66.4597C966.5 66.1407 968.073 65.7007 969.558 65.2607L969.459 64.5017ZM972.022 60.9267C972.044 60.1787 972.055 59.4087 972.055 58.6167H971.241C971.241 59.4197 971.23 60.1897 971.208 60.9267H969.371V61.7187H971.175C971.01 64.3807 970.405 66.6027 968.073 67.8457C968.271 67.9887 968.546 68.2857 968.656 68.4947C971.164 67.0867 971.802 64.6337 971.978 61.7187H974.178C974.013 65.6127 973.837 67.0867 973.529 67.4387C973.408 67.5707 973.276 67.6037 973.067 67.6037C972.825 67.6037 972.198 67.6037 971.527 67.5377C971.67 67.7687 971.769 68.1097 971.78 68.3407C972.396 68.3847 973.045 68.3957 973.397 68.3627C973.782 68.3187 974.002 68.2307 974.244 67.9337C974.662 67.4277 974.805 65.8547 974.981 61.3447C974.992 61.2347 974.992 60.9267 974.992 60.9267H972.022ZM984.947 63.2257C985.816 63.2257 986.069 62.8737 986.168 61.5427C985.926 61.4877 985.596 61.3557 985.42 61.2237C985.376 62.3127 985.299 62.4887 984.881 62.4887H983.132C982.637 62.4887 982.549 62.4227 982.549 62.0707V60.9597C983.605 60.6517 984.771 60.2557 985.64 59.8487L985.09 59.2547C984.463 59.5847 983.484 59.9807 982.549 60.2887V58.4517H981.746V62.0817C981.746 62.9837 982.021 63.2257 983.066 63.2257H984.947ZM977.588 65.6017V64.5897H979.909V65.6017H977.588ZM979.909 63.0057V63.9517H977.588V63.0057H979.909ZM980.712 62.3237H976.829V68.4617H977.588V66.2287H979.909V67.5267C979.909 67.6697 979.876 67.7027 979.733 67.7027C979.579 67.7137 979.117 67.7247 978.6 67.7027C978.71 67.9007 978.82 68.2307 978.864 68.4397C979.557 68.4397 980.03 68.4287 980.338 68.3077C980.635 68.1757 980.712 67.9447 980.712 67.5377V62.3237ZM979.359 59.4637C979.612 59.8047 979.865 60.2007 980.096 60.5967L977.841 60.6957C978.182 60.0687 978.534 59.2987 978.831 58.6277L978.006 58.4297C977.775 59.1007 977.368 60.0357 976.994 60.7287C976.686 60.7397 976.411 60.7507 976.158 60.7617L976.235 61.5317C977.357 61.4657 978.941 61.3887 980.481 61.3007C980.602 61.5427 980.701 61.7627 980.767 61.9497L981.46 61.6417C981.229 60.9707 980.602 59.9587 980.03 59.1997L979.359 59.4637ZM983.165 67.6587C982.648 67.6587 982.549 67.5927 982.549 67.2297V65.9537C983.66 65.6347 984.914 65.2167 985.761 64.7327L985.222 64.1167C984.595 64.5237 983.55 64.9527 982.549 65.2717V63.5337H981.746V67.2297C981.746 68.1317 982.032 68.3737 983.077 68.3737H985.035C985.948 68.3737 986.19 67.9887 986.3 66.5147C986.069 66.4707 985.75 66.3387 985.563 66.2067C985.508 67.4387 985.431 67.6587 984.969 67.6587H983.165ZM991.206 66.3387C991.206 66.4157 991.206 66.4817 991.195 66.5587H990.161V65.5357H989.6V67.0757H991.063C990.898 67.4057 990.546 67.7027 989.831 67.9227C989.974 68.0327 990.161 68.2637 990.238 68.3957C991.591 67.9227 991.8 67.1747 991.8 66.3497V65.3707H991.206V66.3387ZM988.456 60.8607H990.909V61.6637H988.456V60.8607ZM990.909 59.4967V60.3107H988.456V59.4967H990.909ZM991.096 64.1497C991.195 64.2817 991.294 64.4357 991.382 64.5897L990.48 64.6337C990.953 64.1937 991.459 63.6327 991.877 63.1377L991.393 62.9177C991.206 63.1817 990.953 63.5007 990.678 63.8197C990.568 63.6877 990.436 63.5337 990.282 63.4017C990.546 63.1157 990.854 62.7307 991.129 62.3787L990.843 62.2577H991.679V58.9027H987.675V68.4837H988.456V62.2577H990.546C990.392 62.5107 990.161 62.8407 989.952 63.1047C989.842 63.0167 989.743 62.9397 989.644 62.8737L989.303 63.2037C989.688 63.4677 990.095 63.8747 990.337 64.1937C990.172 64.3697 990.018 64.5237 989.864 64.6667L989.171 64.6997L989.237 65.2167C989.93 65.1727 990.744 65.1287 991.613 65.0627C991.668 65.1727 991.701 65.2827 991.723 65.3707L992.185 65.1837C992.097 64.8537 991.833 64.3697 991.536 64.0067L991.096 64.1497ZM994.737 67.0757V65.5357H994.176V66.5587H993.109V65.3707H992.504V68.2747H993.109V67.0757H994.737ZM993.439 61.6637V60.8607H995.969V61.6637H993.439ZM995.969 59.4967V60.3107H993.439V59.4967H995.969ZM996.761 58.9027H992.658V62.2577H993.252C993.087 62.5217 992.856 62.8407 992.647 63.1157C992.537 63.0277 992.427 62.9507 992.317 62.8737L991.965 63.1817C992.35 63.4677 992.768 63.8637 993.01 64.1937C992.834 64.3697 992.658 64.5347 992.493 64.6777L992.097 64.6997L992.218 65.2167C992.933 65.1617 993.769 65.1177 994.616 65.0517C994.682 65.1837 994.726 65.3047 994.759 65.4147L995.232 65.2277C995.133 64.8647 994.814 64.3257 994.506 63.9407L994.044 64.0947C994.154 64.2487 994.275 64.4137 994.374 64.5897C993.934 64.6117 993.527 64.6227 993.142 64.6447C993.637 64.2047 994.176 63.6437 994.605 63.1707L994.11 62.9507C993.923 63.2037 993.659 63.5227 993.373 63.8197C993.263 63.6877 993.131 63.5447 992.988 63.4127C993.263 63.1157 993.582 62.7307 993.868 62.3567L993.637 62.2577H995.969V67.4497C995.969 67.5927 995.925 67.6477 995.782 67.6477C995.639 67.6587 995.166 67.6587 994.682 67.6367C994.803 67.8457 994.902 68.2307 994.946 68.4507C995.628 68.4507 996.09 68.4287 996.376 68.2967C996.673 68.1537 996.761 67.9007 996.761 67.4497V58.9027ZM1007.08 60.0027V60.8167H1006.17V60.0027H1007.08ZM1006.17 62.3237V61.4657H1007.08V62.3237H1006.17ZM1005.48 60.8167H1003.83V61.4657H1005.48V62.3237H1004.34V62.9617H1005.48V63.7977H1004.18V64.4687H1005.48V65.3267H1003.92V66.0197H1005.48V67.2077H1006.17V66.0197H1008.15V65.3267H1006.17V64.4687H1007.83V63.7977H1006.17V62.9617H1007.71V61.5097H1008.29V60.7837H1007.71V59.3647H1006.17V58.4627H1005.48V59.3647H1004.33V60.0027H1005.48V60.8167ZM1003.68 62.4007L1003.55 62.4227H1002.87C1003.24 61.3117 1003.61 60.0797 1003.86 59.2217L1003.38 59.1117L1003.26 59.1447H1001.87V59.8707H1002.98C1002.69 60.8497 1002.26 62.2247 1001.89 63.2367L1002.55 63.3797L1002.65 63.0827H1003.37C1003.27 63.9737 1003.12 64.7437 1002.91 65.3927C1002.76 64.9637 1002.64 64.4467 1002.54 63.8307L1001.96 63.9957C1002.12 64.9197 1002.33 65.6457 1002.58 66.2177C1002.39 66.6137 1002.17 66.9437 1001.93 67.2297L1001.89 66.7017L1000.46 66.9877V63.6877H1001.76V62.9837H1000.46V61.8397H1001.58V61.1577H999.016C999.577 60.4977 999.995 59.8047 1000.3 59.2217C1000.79 59.7607 1001.29 60.4977 1001.56 60.9487L1002.09 60.3767C1001.78 59.8377 1001.1 59.0127 1000.52 58.4407H999.841C999.5 59.3097 998.851 60.4317 997.905 61.2787C998.059 61.3777 998.312 61.6197 998.422 61.7847C998.521 61.6967 998.62 61.5977 998.708 61.4987V61.8397H999.775V62.9837H998.268V63.6877H999.775V67.1197C999.159 67.2407 998.598 67.3397 998.147 67.4167L998.334 68.1427C999.291 67.9447 1000.55 67.6807 1001.76 67.4277C1001.54 67.6477 1001.29 67.8347 1001.03 67.9997C1001.18 68.0987 1001.45 68.3517 1001.56 68.4837C1002.12 68.1207 1002.59 67.6147 1002.97 66.9327C1003.69 67.9997 1004.7 68.2747 1006.03 68.2747H1008.09C1008.12 68.0767 1008.23 67.7467 1008.34 67.5597C1007.96 67.5707 1006.35 67.5707 1006.07 67.5707C1004.88 67.5707 1003.94 67.3177 1003.31 66.2507C1003.7 65.2827 1003.96 64.0507 1004.09 62.4777L1003.68 62.4007ZM998.455 64.4247C998.642 65.0957 998.796 65.9427 998.807 66.5147L999.379 66.3717C999.346 65.8217 999.192 64.9637 998.983 64.3037L998.455 64.4247ZM1001.24 66.2837C1001.38 65.7667 1001.56 64.9857 1001.7 64.3147L1001.14 64.1827C1001.06 64.7547 1000.88 65.6347 1000.74 66.1627L1001.24 66.2837ZM1010.4 60.3877H1017.93V62.1917H1018.76V59.6287H1014.59V58.4187H1013.75V59.6287H1009.6V62.1917H1010.4V60.3877ZM1018.9 64.3257H1014.63V63.9847C1015.56 63.4677 1016.54 62.6977 1017.2 61.9497L1016.66 61.5427L1016.48 61.5867H1011.27V62.3457H1015.73C1015.29 62.7637 1014.72 63.1927 1014.17 63.5117H1013.77V64.3257H1009.5V65.1067H1013.77V67.4497C1013.77 67.6037 1013.71 67.6477 1013.51 67.6587C1013.33 67.6697 1012.61 67.6697 1011.86 67.6477C1012.01 67.8677 1012.17 68.2197 1012.24 68.4507C1013.15 68.4507 1013.73 68.4397 1014.11 68.3187C1014.49 68.1867 1014.63 67.9447 1014.63 67.4607V65.1067H1018.9V64.3257Z" fill="#ACACAC"/>
<line x1="251.5" y1="105" x2="251.5" y2="127" stroke="#D9D9D9"/>
</svg>
