<svg width="1250" height="200" viewBox="0 0 1250 200" fill="none" xmlns="http://www.w3.org/2000/svg">
<rect width="1250" height="200" fill="white"/>
<rect x="17" y="26" width="1181" height="148" fill="#F5F5F5"/>
<rect x="35" y="50" width="1145" height="101" fill="white"/>
<rect x="1027.58" y="99.5" width="111.736" height="32.639" rx="0.5" stroke="#00A19B"/>
<path d="M1063.41 117.316C1063.24 117.748 1062.99 118.288 1062.78 118.648L1063.11 118.72H1060.74L1061.2 118.588C1061.1 118.228 1060.89 117.724 1060.62 117.316H1063.41ZM1059.9 115.12H1063.99V116.188H1059.9V115.12ZM1064.39 117.316H1065.47V113.992H1058.52V117.316H1059.83L1059.21 117.472C1059.43 117.844 1059.64 118.324 1059.76 118.72H1056.85V119.896H1067.17V118.72H1064.16C1064.37 118.372 1064.61 117.904 1064.86 117.412L1064.39 117.316ZM1066.35 110.428C1066.01 110.812 1065.49 111.28 1065 111.664C1064.81 111.472 1064.62 111.268 1064.44 111.052C1064.97 110.692 1065.57 110.236 1066.08 109.804L1065 109.036C1064.69 109.396 1064.25 109.816 1063.8 110.176C1063.55 109.792 1063.35 109.384 1063.17 108.964L1061.94 109.348C1062.37 110.368 1062.93 111.304 1063.59 112.12H1060.5C1061.07 111.436 1061.53 110.656 1061.86 109.78L1060.93 109.3L1060.69 109.36H1057.55V110.512H1060.01C1059.76 110.92 1059.46 111.328 1059.11 111.7C1058.77 111.364 1058.21 110.992 1057.75 110.728L1056.97 111.508C1057.41 111.784 1057.92 112.18 1058.26 112.516C1057.62 113.032 1056.93 113.464 1056.23 113.752C1056.52 113.992 1056.89 114.484 1057.08 114.796C1058.04 114.328 1058.98 113.692 1059.79 112.9V113.308H1064.21V112.816C1064.95 113.572 1065.82 114.196 1066.78 114.628C1066.99 114.256 1067.4 113.704 1067.73 113.44C1067.05 113.176 1066.42 112.816 1065.84 112.396C1066.36 112.036 1066.91 111.592 1067.39 111.172L1066.35 110.428ZM1070.76 109.6V111.052H1073.5C1073.53 111.46 1073.58 111.892 1073.67 112.348L1072.93 112.216C1072.27 115.372 1070.85 117.688 1068.35 118.948C1068.72 119.224 1069.39 119.812 1069.66 120.112C1071.75 118.864 1073.19 116.872 1074.09 114.184C1074.75 116.332 1076.02 118.6 1078.5 120.1C1078.75 119.728 1079.34 119.104 1079.65 118.852C1075.24 116.248 1074.91 111.868 1074.91 109.6H1070.76Z" fill="#00A19B"/>
<path d="M1099.81 113.547L1105.27 118.092L1110.72 113.547" stroke="#00A19B" stroke-width="0.5"/>
<line x1="35" y1="80.5" x2="1180" y2="80.5" stroke="#D9D9D9"/>
<rect x="905.249" y="99" width="112.736" height="33.639" rx="1" fill="#00A19B"/>
<path d="M946.566 111.684H941.456V109.248H939.72V111.684H934.75V113.322H946.566V111.684ZM939.454 119.216C939.314 117.732 938.796 115.562 938.138 113.84L936.542 114.26C937.158 115.968 937.648 118.208 937.746 119.664L939.454 119.216ZM943.038 120.098C943.64 118.46 944.298 116.192 944.788 114.134L942.87 113.784C942.576 115.8 941.904 118.404 941.274 120.098H934.302V121.764H946.972V120.098H943.038ZM952.908 111.46V112.622H950.612V111.46H952.908ZM950.612 115.226V114.078H952.908V115.226H950.612ZM951.508 117.69C951.774 118.082 952.04 118.516 952.292 118.95L950.612 119.37V116.766H954.448V109.92H949.016V119.734C948.68 119.818 948.358 119.888 948.078 119.944L948.554 121.652C949.828 121.302 951.466 120.854 953.048 120.406C953.258 120.854 953.426 121.274 953.524 121.638L954.994 120.896C954.644 119.818 953.72 118.236 952.852 117.06L951.508 117.69ZM960.636 109.892H955.232V122.296H956.926V111.572H958.914V118.292C958.914 118.474 958.858 118.544 958.676 118.544C958.48 118.544 957.906 118.558 957.36 118.516C957.612 118.978 957.878 119.832 957.934 120.336C958.83 120.336 959.488 120.294 960.006 119.986C960.51 119.678 960.636 119.132 960.636 118.348V109.892ZM966.572 110.956V111.67H964.374V110.956H966.572ZM964.374 113.518V112.762H966.572V113.518H964.374ZM968.14 114.722V109.766H962.75V122.31H964.374V114.722H968.14ZM967.916 117.802V116.752H969.218V117.802H967.916ZM972.214 119.16V117.802H970.674V116.752H971.99V115.436H965.228V116.752H966.502V117.802H965.032V119.16H966.446C966.306 119.874 965.914 120.784 965.018 121.344C965.34 121.568 965.844 122.002 966.082 122.296C967.272 121.484 967.734 120.126 967.874 119.16H969.218V122.044H970.674V119.16H972.214ZM970.646 113.546V112.762H972.914V113.546H970.646ZM972.914 110.956V111.67H970.646V110.956H972.914ZM974.552 109.766H969.064V114.75H972.914V120.35C972.914 120.546 972.844 120.63 972.62 120.63C972.41 120.644 971.724 120.644 971.094 120.616C971.318 121.05 971.542 121.806 971.598 122.268C972.662 122.268 973.39 122.226 973.894 121.946C974.398 121.68 974.552 121.218 974.552 120.364V109.766ZM979.592 116.514C979.662 115.772 979.69 115.072 979.69 114.47H985.85V116.514H979.592ZM979.69 112.93V111.95C982.28 111.642 985.122 111.152 987.25 110.494L985.92 109.248C984.268 109.822 981.594 110.326 979.102 110.634L977.996 110.326V114.4C977.996 116.43 977.828 119.188 976.106 121.176C976.526 121.386 977.184 121.946 977.436 122.31C978.5 121.12 979.06 119.566 979.368 118.054H985.85V118.768H987.544V112.93H979.69Z" fill="white"/>
<path d="M89.12 61.184C88.47 63.147 87.43 65.097 86.273 66.358C86.442 66.592 86.702 67.125 86.78 67.333C87.222 66.839 87.638 66.254 88.041 65.617V73.001H88.964V63.953C89.367 63.147 89.718 62.289 90.004 61.431L89.12 61.184ZM95.36 69.556H93.163V67.541H95.36V69.556ZM96.634 65.383V64.642H94.632V63.173H93.839V64.642H91.889V65.383H93.839V66.813H92.422V70.271H96.127V66.813H94.632V65.383H96.634ZM91.356 71.35V62.757H97.076V71.35H91.356ZM90.459 61.912V72.975H91.356V72.208H97.076V72.871H97.999V61.912H90.459ZM104.837 61.522C104.746 63.238 104.746 69.439 99.481 72.13C99.78 72.325 100.092 72.637 100.261 72.871C103.55 71.09 104.889 67.957 105.461 65.357C106.085 67.957 107.515 71.285 110.869 72.871C111.012 72.611 111.311 72.286 111.584 72.078C106.696 69.842 105.994 63.836 105.877 62.12C105.89 61.899 105.89 61.691 105.903 61.522H104.837Z" fill="#4A4A4A"/>
<path d="M141.545 61.314V71.649C141.545 71.909 141.441 72 141.168 72C140.921 72.013 139.985 72.026 139.036 71.987C139.192 72.26 139.374 72.715 139.439 72.988C140.648 73.001 141.454 72.975 141.922 72.819C142.377 72.65 142.572 72.364 142.572 71.649V61.314H141.545ZM144.652 64.59C145.757 66.449 146.797 68.867 147.109 70.401L148.123 69.972C147.798 68.425 146.706 66.059 145.562 64.239L144.652 64.59ZM138.152 64.33C137.84 66.072 137.125 68.308 135.968 69.673C136.228 69.777 136.644 70.011 136.878 70.18C138.048 68.737 138.802 66.41 139.218 64.525L138.152 64.33ZM160.07 61.21H159.147V66.969C159.147 67.151 159.095 67.203 158.9 67.203C158.705 67.229 158.055 67.229 157.314 67.203C157.457 67.463 157.6 67.827 157.639 68.087C158.562 68.087 159.186 68.074 159.576 67.931C159.966 67.775 160.07 67.528 160.07 66.995V61.21ZM157.639 61.86H156.742V66.189H157.639V61.86ZM151.958 64.213V62.51H153.557V64.291H151.958V64.213ZM153.557 65.149V67.931H154.467V65.149H155.936V64.291H154.467V62.51H155.676V61.652H149.852V62.51H151.061V64.187V64.291H149.423V65.149H150.996C150.84 66.02 150.437 66.891 149.306 67.58C149.488 67.723 149.813 68.074 149.943 68.256C151.256 67.424 151.737 66.267 151.893 65.149H153.557ZM155.559 71.649V70.011H159.485V69.127H155.559V67.671H154.584V69.127H150.502V70.011H154.584V71.649H149.163V72.559H160.837V71.649H155.559ZM167.402 61.093C166.401 62.874 164.243 65.019 161.981 66.293C162.202 66.488 162.475 66.826 162.592 67.047C164.802 65.734 166.908 63.719 167.948 62.042C169.118 63.81 171.38 65.799 173.408 66.969C173.577 66.696 173.824 66.371 174.045 66.137C172.004 65.097 169.729 63.121 168.377 61.093H167.402ZM168.572 68.503H172.303V67.632H168.572V64.603H167.571V71.727H165.114V66.943H164.152V71.727H162.527V72.624H173.512V71.727H168.572V68.503ZM182.937 64.252C182.755 64.694 182.495 65.227 182.274 65.604L182.404 65.643H179.349L179.765 65.552C179.661 65.201 179.388 64.655 179.115 64.252H182.937ZM186.668 69.907V69.088H181.455V68.126H185.524V67.385H181.455V66.436H186.161V65.643H183.21C183.47 65.253 183.756 64.746 184.016 64.252H186.616V63.42H184.601C184.965 62.926 185.381 62.211 185.745 61.548L184.757 61.288C184.523 61.873 184.107 62.718 183.769 63.264L184.25 63.42H182.677V61.119H181.767V63.42H180.22V61.119H179.323V63.42H177.724L178.387 63.173C178.192 62.653 177.724 61.847 177.282 61.262L176.463 61.535C176.853 62.12 177.308 62.9 177.49 63.42H175.423V64.252H178.595L178.14 64.343C178.4 64.733 178.66 65.253 178.777 65.643H175.943V66.436H180.506V67.385H176.593V68.126H180.506V69.088H175.371V69.907H179.622C178.452 70.817 176.645 71.597 175.033 71.961C175.241 72.169 175.527 72.533 175.657 72.78C177.36 72.286 179.258 71.35 180.506 70.219V72.988H181.455V70.154C182.703 71.35 184.601 72.325 186.343 72.819C186.473 72.546 186.772 72.169 186.993 71.961C185.329 71.61 183.535 70.843 182.352 69.907H186.668Z" fill="#4A4A4A"/>
<path d="M982.693 62.542H990.305V63.84H991.119V61.783H986.906V60.804H986.081V61.783H981.912V63.84H982.693V62.542ZM984.233 67.481C985.036 67.195 985.817 66.854 986.543 66.447C987.324 66.876 988.193 67.217 989.128 67.481H984.233ZM984.31 69.758V68.163H988.754V69.758H984.31ZM984.915 64.192H988.226C987.786 64.698 987.214 65.16 986.554 65.567C985.883 65.182 985.311 64.742 984.882 64.236L984.915 64.192ZM988.93 63.51L988.787 63.543H985.542C985.729 63.334 985.894 63.114 986.048 62.894L985.168 62.729C984.618 63.576 983.551 64.533 982.044 65.204C982.231 65.336 982.473 65.6 982.594 65.787C983.243 65.468 983.815 65.105 984.31 64.709C984.728 65.193 985.234 65.622 985.795 65.996C984.475 66.678 982.924 67.173 981.45 67.437C981.604 67.613 981.78 67.943 981.857 68.152C982.407 68.031 982.968 67.888 983.529 67.712V70.825H984.31V70.462H988.754V70.814H989.579V67.602C990.063 67.723 990.558 67.822 991.064 67.899C991.174 67.657 991.394 67.316 991.581 67.118C990.03 66.92 988.545 66.535 987.313 65.963C988.193 65.369 988.952 64.665 989.48 63.851L988.93 63.51ZM993.968 66.37C993.979 65.93 993.99 65.501 993.99 65.127V64.522H995.651V66.37H993.968ZM995.651 61.959V63.763H993.99V61.959H995.651ZM996.41 61.2H993.242V65.127C993.242 66.744 993.187 68.922 992.428 70.462C992.626 70.539 992.956 70.726 993.099 70.858C993.594 69.824 993.825 68.449 993.924 67.151H995.651V69.857C995.651 70.011 995.596 70.055 995.442 70.066C995.31 70.077 994.848 70.077 994.342 70.066C994.452 70.275 994.562 70.638 994.573 70.847C995.321 70.847 995.761 70.836 996.036 70.693C996.322 70.55 996.41 70.308 996.41 69.868V61.2ZM1001.44 65.699C1001.18 66.634 1000.81 67.459 1000.34 68.163C999.831 67.437 999.435 66.601 999.138 65.699H1001.44ZM1001.86 64.918L1001.71 64.94H998.148V61.992H1001.23V63.334C1001.23 63.466 1001.18 63.51 1001.01 63.51C1000.84 63.521 1000.27 63.521 999.6 63.51C999.71 63.708 999.831 63.983 999.864 64.203C1000.69 64.203 1001.24 64.203 1001.59 64.093C1001.92 63.972 1002.02 63.763 1002.02 63.345V61.233H997.378V70.847H998.148V65.699H998.423C998.786 66.832 999.27 67.888 999.886 68.779C999.38 69.373 998.808 69.846 998.203 70.176C998.368 70.319 998.577 70.594 998.687 70.781C999.292 70.429 999.853 69.956 1000.35 69.373C1000.88 69.989 1001.47 70.484 1002.13 70.858C1002.25 70.66 1002.47 70.385 1002.66 70.231C1001.97 69.89 1001.35 69.395 1000.82 68.79C1001.51 67.811 1002.04 66.579 1002.33 65.083L1001.86 64.918ZM1010.03 66.2939C1010.03 67.0352 1009.91 67.6779 1009.68 68.2222C1009.44 68.7629 1009.12 69.1925 1008.69 69.5112L1010.04 70.5586L1009.16 71.3535L1007.49 70.0376C1007.27 70.0841 1007.04 70.1074 1006.79 70.1074C1006.16 70.1074 1005.59 69.9535 1005.09 69.6455C1004.6 69.334 1004.22 68.8918 1003.95 68.3188C1003.68 67.7459 1003.54 67.0853 1003.54 66.3369V65.8965C1003.54 65.1338 1003.67 64.4606 1003.94 63.877C1004.21 63.2933 1004.59 62.8475 1005.08 62.5396C1005.58 62.228 1006.14 62.0723 1006.78 62.0723C1007.42 62.0723 1007.99 62.2262 1008.48 62.5342C1008.97 62.8385 1009.35 63.279 1009.62 63.8555C1009.89 64.4284 1010.03 65.0962 1010.03 65.8589V66.2939ZM1008.67 65.8857C1008.67 65.0049 1008.5 64.3371 1008.17 63.8823C1007.84 63.4276 1007.38 63.2002 1006.78 63.2002C1006.19 63.2002 1005.73 63.4312 1005.4 63.8931C1005.07 64.3514 1004.9 64.9995 1004.9 65.8374V66.2939C1004.9 67.139 1005.06 67.7996 1005.39 68.2759C1005.72 68.7521 1006.19 68.9902 1006.79 68.9902C1007.39 68.9902 1007.86 68.7611 1008.18 68.3027C1008.5 67.8444 1008.67 67.1748 1008.67 66.2939V65.8857ZM1011.08 67.8892C1011.08 67.5275 1011.18 67.1963 1011.37 66.8955C1011.57 66.5911 1011.96 66.2313 1012.54 65.8159C1012.23 65.4328 1012.02 65.1069 1011.9 64.8384C1011.78 64.5698 1011.72 64.3102 1011.72 64.0596C1011.72 63.4473 1011.91 62.9639 1012.28 62.6094C1012.65 62.2513 1013.15 62.0723 1013.79 62.0723C1014.35 62.0723 1014.82 62.2406 1015.18 62.5771C1015.55 62.9102 1015.73 63.3237 1015.73 63.8179C1015.73 64.1437 1015.65 64.4445 1015.48 64.7202C1015.32 64.9924 1015.05 65.2645 1014.67 65.5366L1014.14 65.9233L1015.65 67.7065C1015.87 67.2769 1015.98 66.7988 1015.98 66.2725H1017.11C1017.11 67.2357 1016.88 68.0252 1016.43 68.6411L1017.58 70H1016.07L1015.63 69.479C1015.07 69.8979 1014.4 70.1074 1013.63 70.1074C1012.86 70.1074 1012.24 69.9033 1011.77 69.4951C1011.31 69.0833 1011.08 68.548 1011.08 67.8892ZM1013.67 69.0654C1014.11 69.0654 1014.52 68.9186 1014.9 68.625L1013.19 66.6108L1013.03 66.729C1012.6 67.0549 1012.38 67.4272 1012.38 67.8462C1012.38 68.2078 1012.5 68.5015 1012.73 68.7271C1012.97 68.9526 1013.28 69.0654 1013.67 69.0654ZM1012.95 64.0273C1012.95 64.3281 1013.13 64.7059 1013.5 65.1606L1014.1 64.7524L1014.26 64.6182C1014.49 64.4212 1014.6 64.1688 1014.6 63.8608C1014.6 63.6567 1014.52 63.4831 1014.37 63.3398C1014.21 63.193 1014.02 63.1196 1013.78 63.1196C1013.53 63.1196 1013.32 63.2056 1013.17 63.3774C1013.02 63.5493 1012.95 63.766 1012.95 64.0273ZM1022.82 68.1792H1019.8L1019.16 70H1017.75L1020.7 62.1797H1021.92L1024.88 70H1023.46L1022.82 68.1792ZM1020.18 67.0835H1022.44L1021.31 63.8394L1020.18 67.0835Z" fill="#7C7C7C"/>
<path d="M926.021 68.702C926.021 68.779 926.021 68.845 926.01 68.922H924.976V67.899H924.415V69.439H925.878C925.713 69.769 925.361 70.066 924.646 70.286C924.789 70.396 924.976 70.627 925.053 70.759C926.406 70.286 926.615 69.538 926.615 68.713V67.734H926.021V68.702ZM923.271 63.224H925.724V64.027H923.271V63.224ZM925.724 61.86V62.674H923.271V61.86H925.724ZM925.911 66.513C926.01 66.645 926.109 66.799 926.197 66.953L925.295 66.997C925.768 66.557 926.274 65.996 926.692 65.501L926.208 65.281C926.021 65.545 925.768 65.864 925.493 66.183C925.383 66.051 925.251 65.897 925.097 65.765C925.361 65.479 925.669 65.094 925.944 64.742L925.658 64.621H926.494V61.266H922.49V70.847H923.271V64.621H925.361C925.207 64.874 924.976 65.204 924.767 65.468C924.657 65.38 924.558 65.303 924.459 65.237L924.118 65.567C924.503 65.831 924.91 66.238 925.152 66.557C924.987 66.733 924.833 66.887 924.679 67.03L923.986 67.063L924.052 67.58C924.745 67.536 925.559 67.492 926.428 67.426C926.483 67.536 926.516 67.646 926.538 67.734L927 67.547C926.912 67.217 926.648 66.733 926.351 66.37L925.911 66.513ZM929.552 69.439V67.899H928.991V68.922H927.924V67.734H927.319V70.638H927.924V69.439H929.552ZM928.254 64.027V63.224H930.784V64.027H928.254ZM930.784 61.86V62.674H928.254V61.86H930.784ZM931.576 61.266H927.473V64.621H928.067C927.902 64.885 927.671 65.204 927.462 65.479C927.352 65.391 927.242 65.314 927.132 65.237L926.78 65.545C927.165 65.831 927.583 66.227 927.825 66.557C927.649 66.733 927.473 66.898 927.308 67.041L926.912 67.063L927.033 67.58C927.748 67.525 928.584 67.481 929.431 67.415C929.497 67.547 929.541 67.668 929.574 67.778L930.047 67.591C929.948 67.228 929.629 66.689 929.321 66.304L928.859 66.458C928.969 66.612 929.09 66.777 929.189 66.953C928.749 66.975 928.342 66.986 927.957 67.008C928.452 66.568 928.991 66.007 929.42 65.534L928.925 65.314C928.738 65.567 928.474 65.886 928.188 66.183C928.078 66.051 927.946 65.908 927.803 65.776C928.078 65.479 928.397 65.094 928.683 64.72L928.452 64.621H930.784V69.813C930.784 69.956 930.74 70.011 930.597 70.011C930.454 70.022 929.981 70.022 929.497 70C929.618 70.209 929.717 70.594 929.761 70.814C930.443 70.814 930.905 70.792 931.191 70.66C931.488 70.517 931.576 70.264 931.576 69.813V61.266ZM934.986 64.852C934.997 64.357 935.019 63.851 935.019 63.345H937.681V62.586H935.767V60.815H934.964V62.586H933.028V63.345H934.216C934.183 66.15 934.062 68.823 932.874 70.297C933.072 70.44 933.358 70.704 933.479 70.88C934.469 69.637 934.81 67.745 934.942 65.6H936.35C936.284 68.636 936.207 69.714 936.02 69.967C935.932 70.088 935.844 70.121 935.679 70.11C935.514 70.11 935.096 70.11 934.645 70.077C934.777 70.275 934.854 70.594 934.865 70.814C935.327 70.836 935.789 70.836 936.053 70.814C936.339 70.781 936.537 70.704 936.702 70.462C936.988 70.088 937.065 68.856 937.142 65.237C937.153 65.116 937.153 64.852 937.153 64.852H934.986ZM938.066 68.482C939.397 69.098 941.003 70.099 941.762 70.836L942.29 70.132C941.498 69.395 939.881 68.438 938.561 67.855L938.066 68.482ZM941.52 66.645C941.113 66.139 940.222 65.457 939.474 65.006L938.946 65.523C939.694 65.996 940.563 66.711 940.959 67.217L941.52 66.645ZM939.683 60.804C939.276 62.289 938.308 63.939 937.208 64.797C937.362 64.995 937.549 65.325 937.637 65.545C938.748 64.632 939.683 63.07 940.134 61.739C940.651 63.125 941.608 64.632 942.708 65.523C942.818 65.281 942.994 64.951 943.137 64.742C942.092 63.983 941.08 62.41 940.508 60.804H939.683ZM949.363 69.604V66.117H952.938V65.314H949.363V62.322H953.367V61.519H944.655V62.322H948.505V65.314H945.117V66.117H948.505V69.604H944.116V70.407H953.906V69.604H949.363ZM950.364 67.096C951.046 67.734 951.926 68.625 952.366 69.153L952.982 68.614C952.531 68.097 951.629 67.25 950.947 66.634L950.364 67.096ZM963.509 63.389V68.988H960.374V61.024H959.538V68.988H956.513V63.4H955.688V70.704H956.513V69.813H963.509V70.66H964.345V63.389H963.509Z" fill="#7C7C7C"/>
<path d="M212.803 62.549C212.257 62.081 211.152 61.535 210.255 61.21L209.735 61.925C210.632 62.276 211.724 62.887 212.257 63.342L212.803 62.549ZM212.127 65.942C211.555 65.526 210.424 65.032 209.553 64.746L209.046 65.487C209.943 65.799 211.061 66.345 211.607 66.761L212.127 65.942ZM211.828 68.035C211.126 69.517 210.164 71.194 209.501 72.208L210.32 72.832C211.048 71.623 211.906 70.024 212.556 68.659L211.828 68.035ZM221.032 72.507C220.59 71.48 219.524 69.92 218.549 68.776L217.73 69.205C218.185 69.764 218.653 70.414 219.069 71.051C217.535 71.155 215.988 71.246 214.649 71.311C215.221 70.18 215.832 68.698 216.313 67.463H220.811V66.54H217.119V64.161H220.2V63.251H217.119V61.132H216.131V63.251H213.167V64.161H216.131V66.54H212.517V67.463H215.169C214.779 68.698 214.155 70.271 213.609 71.376L212.53 71.428L212.673 72.39C214.467 72.273 217.08 72.104 219.589 71.909C219.823 72.312 220.005 72.689 220.135 73.014L221.032 72.507ZM227.337 61.522C227.246 63.238 227.246 69.439 221.981 72.13C222.28 72.325 222.592 72.637 222.761 72.871C226.05 71.09 227.389 67.957 227.961 65.357C228.585 67.957 230.015 71.285 233.369 72.871C233.512 72.611 233.811 72.286 234.084 72.078C229.196 69.842 228.494 63.836 228.377 62.12C228.39 61.899 228.39 61.691 228.403 61.522H227.337ZM236.801 67.71C236.814 67.19 236.827 66.683 236.827 66.241V65.526H238.79V67.71H236.801ZM238.79 62.497V64.629H236.827V62.497H238.79ZM239.687 61.6H235.943V66.241C235.943 68.152 235.878 70.726 234.981 72.546C235.215 72.637 235.605 72.858 235.774 73.014C236.359 71.792 236.632 70.167 236.749 68.633H238.79V71.831C238.79 72.013 238.725 72.065 238.543 72.078C238.387 72.091 237.841 72.091 237.243 72.078C237.373 72.325 237.503 72.754 237.516 73.001C238.4 73.001 238.92 72.988 239.245 72.819C239.583 72.65 239.687 72.364 239.687 71.844V61.6ZM245.628 66.917C245.329 68.022 244.887 68.997 244.328 69.829C243.73 68.971 243.262 67.983 242.911 66.917H245.628ZM246.122 65.994L245.953 66.02H241.741V62.536H245.381V64.122C245.381 64.278 245.329 64.33 245.121 64.33C244.926 64.343 244.25 64.343 243.457 64.33C243.587 64.564 243.73 64.889 243.769 65.149C244.744 65.149 245.394 65.149 245.81 65.019C246.2 64.876 246.317 64.629 246.317 64.135V61.639H240.831V73.001H241.741V66.917H242.066C242.495 68.256 243.067 69.504 243.795 70.557C243.197 71.259 242.521 71.818 241.806 72.208C242.001 72.377 242.248 72.702 242.378 72.923C243.093 72.507 243.756 71.948 244.341 71.259C244.965 71.987 245.667 72.572 246.447 73.014C246.59 72.78 246.85 72.455 247.071 72.273C246.252 71.87 245.524 71.285 244.9 70.57C245.719 69.413 246.343 67.957 246.681 66.189L246.122 65.994ZM257.744 63.303C257.445 63.966 257.016 64.512 256.483 64.98C255.872 64.499 255.365 63.927 255.014 63.303H257.744ZM252.544 68.945C252.83 68.412 253.09 67.671 253.311 66.917C253.454 67.099 253.597 67.294 253.662 67.424C254.715 67.099 255.677 66.67 256.496 66.098C257.354 66.709 258.355 67.177 259.447 67.476C259.577 67.216 259.863 66.852 260.058 66.644C259.018 66.423 258.056 66.033 257.237 65.513C257.9 64.915 258.433 64.187 258.797 63.303H259.798V62.484H255.482C255.703 62.12 255.911 61.743 256.08 61.366L255.157 61.119C254.637 62.354 253.701 63.537 252.687 64.291C252.921 64.421 253.298 64.694 253.48 64.85C253.792 64.59 254.104 64.265 254.416 63.927C254.78 64.512 255.235 65.045 255.755 65.513C255.092 65.942 254.299 66.267 253.428 66.514C253.493 66.28 253.558 66.046 253.623 65.825L253.038 65.617L252.895 65.669H251.933L252.427 65.11C252.154 64.863 251.764 64.59 251.335 64.33C252.115 63.732 252.947 62.9 253.454 62.12L252.83 61.73L252.661 61.769H248.293V62.614H251.972C251.582 63.069 251.088 63.537 250.607 63.901C250.191 63.68 249.749 63.472 249.346 63.303L248.748 63.927C249.762 64.369 250.958 65.097 251.634 65.669H248.15V66.514H250.113C249.632 67.84 248.826 69.231 248.02 69.998C248.189 70.245 248.423 70.622 248.527 70.895C249.242 70.167 249.918 68.945 250.425 67.697V71.87C250.425 72.013 250.373 72.052 250.217 72.065C250.048 72.065 249.541 72.065 248.982 72.052C249.112 72.299 249.242 72.702 249.281 72.936C250.061 72.936 250.568 72.923 250.906 72.793C251.231 72.624 251.335 72.364 251.335 71.87V66.514H252.583C252.388 67.268 252.128 68.074 251.881 68.607L252.544 68.945ZM256.47 68.373C256.548 67.957 256.613 67.528 256.652 67.086H255.677C255.638 67.528 255.586 67.957 255.508 68.373H253.272V69.179H255.3C254.897 70.505 254.078 71.597 252.284 72.247C252.479 72.416 252.739 72.767 252.856 72.988C254.936 72.182 255.846 70.83 256.301 69.179H258.485C258.29 70.96 258.095 71.688 257.848 71.935C257.718 72.052 257.614 72.065 257.406 72.065C257.198 72.065 256.678 72.052 256.119 72C256.262 72.247 256.353 72.637 256.379 72.897C256.964 72.936 257.51 72.923 257.822 72.91C258.16 72.871 258.407 72.806 258.628 72.572C259.005 72.195 259.252 71.207 259.486 68.789C259.499 68.633 259.512 68.373 259.512 68.373H256.47Z" fill="#4A4A4A"/>
<path d="M1043.45 66.37C1043.46 65.93 1043.47 65.501 1043.47 65.127V64.522H1045.13V66.37H1043.45ZM1045.13 61.959V63.763H1043.47V61.959H1045.13ZM1045.89 61.2H1042.72V65.127C1042.72 66.744 1042.67 68.922 1041.91 70.462C1042.11 70.539 1042.44 70.726 1042.58 70.858C1043.07 69.824 1043.3 68.449 1043.4 67.151H1045.13V69.857C1045.13 70.011 1045.08 70.055 1044.92 70.066C1044.79 70.077 1044.33 70.077 1043.82 70.066C1043.93 70.275 1044.04 70.638 1044.05 70.847C1044.8 70.847 1045.24 70.836 1045.52 70.693C1045.8 70.55 1045.89 70.308 1045.89 69.868V61.2ZM1050.92 65.699C1050.66 66.634 1050.29 67.459 1049.82 68.163C1049.31 67.437 1048.91 66.601 1048.62 65.699H1050.92ZM1051.33 64.918L1051.19 64.94H1047.63V61.992H1050.71V63.334C1050.71 63.466 1050.66 63.51 1050.49 63.51C1050.32 63.521 1049.75 63.521 1049.08 63.51C1049.19 63.708 1049.31 63.983 1049.34 64.203C1050.17 64.203 1050.72 64.203 1051.07 64.093C1051.4 63.972 1051.5 63.763 1051.5 63.345V61.233H1046.86V70.847H1047.63V65.699H1047.9C1048.27 66.832 1048.75 67.888 1049.37 68.779C1048.86 69.373 1048.29 69.846 1047.68 70.176C1047.85 70.319 1048.06 70.594 1048.17 70.781C1048.77 70.429 1049.33 69.956 1049.83 69.373C1050.36 69.989 1050.95 70.484 1051.61 70.858C1051.73 70.66 1051.95 70.385 1052.14 70.231C1051.44 69.89 1050.83 69.395 1050.3 68.79C1050.99 67.811 1051.52 66.579 1051.81 65.083L1051.33 64.918ZM1061.17 62.641C1060.92 63.202 1060.55 63.664 1060.1 64.06C1059.58 63.653 1059.16 63.169 1058.86 62.641H1061.17ZM1056.77 67.415C1057.01 66.964 1057.23 66.337 1057.42 65.699C1057.54 65.853 1057.66 66.018 1057.71 66.128C1058.61 65.853 1059.42 65.49 1060.11 65.006C1060.84 65.523 1061.69 65.919 1062.61 66.172C1062.72 65.952 1062.96 65.644 1063.13 65.468C1062.25 65.281 1061.43 64.951 1060.74 64.511C1061.3 64.005 1061.75 63.389 1062.06 62.641H1062.91V61.948H1059.25C1059.44 61.64 1059.62 61.321 1059.76 61.002L1058.98 60.793C1058.54 61.838 1057.75 62.839 1056.89 63.477C1057.09 63.587 1057.41 63.818 1057.56 63.95C1057.82 63.73 1058.09 63.455 1058.35 63.169C1058.66 63.664 1059.05 64.115 1059.49 64.511C1058.92 64.874 1058.25 65.149 1057.52 65.358C1057.57 65.16 1057.63 64.962 1057.68 64.775L1057.19 64.599L1057.07 64.643H1056.25L1056.67 64.17C1056.44 63.961 1056.11 63.73 1055.75 63.51C1056.41 63.004 1057.11 62.3 1057.54 61.64L1057.01 61.31L1056.87 61.343H1053.17V62.058H1056.28C1055.95 62.443 1055.54 62.839 1055.13 63.147C1054.78 62.96 1054.4 62.784 1054.06 62.641L1053.56 63.169C1054.41 63.543 1055.43 64.159 1056 64.643H1053.05V65.358H1054.71C1054.3 66.48 1053.62 67.657 1052.94 68.306C1053.08 68.515 1053.28 68.834 1053.37 69.065C1053.97 68.449 1054.55 67.415 1054.98 66.359V69.89C1054.98 70.011 1054.93 70.044 1054.8 70.055C1054.66 70.055 1054.23 70.055 1053.75 70.044C1053.86 70.253 1053.97 70.594 1054.01 70.792C1054.67 70.792 1055.1 70.781 1055.38 70.671C1055.66 70.528 1055.75 70.308 1055.75 69.89V65.358H1056.8C1056.64 65.996 1056.42 66.678 1056.21 67.129L1056.77 67.415ZM1060.09 66.931C1060.16 66.579 1060.21 66.216 1060.24 65.842H1059.42C1059.39 66.216 1059.34 66.579 1059.28 66.931H1057.38V67.613H1059.1C1058.76 68.735 1058.07 69.659 1056.55 70.209C1056.71 70.352 1056.93 70.649 1057.03 70.836C1058.79 70.154 1059.56 69.01 1059.95 67.613H1061.8C1061.63 69.12 1061.47 69.736 1061.26 69.945C1061.15 70.044 1061.06 70.055 1060.88 70.055C1060.71 70.055 1060.27 70.044 1059.79 70C1059.91 70.209 1059.99 70.539 1060.01 70.759C1060.51 70.792 1060.97 70.781 1061.23 70.77C1061.52 70.737 1061.73 70.682 1061.92 70.484C1062.24 70.165 1062.44 69.329 1062.64 67.283C1062.65 67.151 1062.66 66.931 1062.66 66.931H1060.09ZM1067.16 65.413C1066.8 65.534 1066.43 65.655 1066.07 65.765V63.752H1067.09V63.004H1066.07V60.804H1065.34V63.004H1064V63.752H1065.34V65.996C1064.78 66.172 1064.26 66.326 1063.84 66.436L1064.05 67.228C1064.44 67.107 1064.88 66.964 1065.34 66.81V69.912C1065.34 70.066 1065.28 70.11 1065.15 70.11C1065.02 70.11 1064.59 70.11 1064.12 70.099C1064.23 70.308 1064.33 70.649 1064.36 70.836C1065.04 70.847 1065.46 70.814 1065.71 70.704C1065.99 70.561 1066.07 70.341 1066.07 69.912V66.568C1066.47 66.436 1066.88 66.304 1067.27 66.172L1067.16 65.413ZM1068.2 63.301H1073.05C1072.96 63.62 1072.85 63.939 1072.75 64.17L1073.38 64.302C1073.57 63.928 1073.76 63.312 1073.91 62.784L1073.41 62.663L1073.28 62.685H1070.75V62.091H1073.33V61.486H1070.75V60.815H1069.97V62.685H1067.49V65.798C1067.49 67.217 1067.38 69.087 1066.4 70.407C1066.57 70.484 1066.88 70.715 1067.01 70.825C1068.05 69.428 1068.2 67.338 1068.2 65.798V63.301ZM1072.64 65.479C1073.26 65.479 1073.47 65.314 1073.52 64.643C1073.35 64.599 1073.08 64.522 1072.94 64.434C1072.92 64.896 1072.85 64.962 1072.55 64.962H1071.06C1070.65 64.962 1070.58 64.929 1070.58 64.709V64.445L1072.43 64.269L1072.37 63.763L1070.58 63.928V63.334H1069.88V63.994L1068.46 64.126L1068.52 64.643L1069.88 64.511V64.709C1069.88 65.336 1070.11 65.479 1071 65.479H1072.64ZM1073.33 66.832C1073.07 67.085 1072.65 67.426 1072.27 67.712C1072.09 67.327 1071.95 66.909 1071.84 66.48H1073.88V65.908H1068.52V66.48H1070.58C1070.01 66.887 1069.14 67.25 1068.4 67.47C1068.47 67.569 1068.62 67.778 1068.67 67.899C1069.1 67.767 1069.55 67.591 1069.98 67.371C1070.1 67.459 1070.21 67.558 1070.31 67.657C1069.83 68.064 1068.98 68.471 1068.3 68.669C1068.42 68.779 1068.56 68.999 1068.63 69.12C1069.29 68.867 1070.08 68.416 1070.62 67.998C1070.72 68.13 1070.79 68.262 1070.86 68.394C1070.22 69.032 1069 69.725 1068.03 70.044C1068.16 70.165 1068.31 70.385 1068.38 70.528C1069.26 70.165 1070.34 69.516 1071.05 68.889C1071.19 69.45 1071.1 69.934 1070.88 70.132C1070.76 70.253 1070.62 70.275 1070.45 70.275C1070.29 70.275 1070.06 70.264 1069.8 70.231C1069.91 70.407 1069.97 70.671 1069.98 70.836C1070.2 70.858 1070.4 70.858 1070.57 70.858C1070.88 70.847 1071.11 70.792 1071.35 70.572C1071.97 70.044 1071.96 68.218 1070.49 67.107C1070.78 66.931 1071.06 66.744 1071.29 66.546C1071.67 68.24 1072.45 69.67 1073.7 70.341C1073.8 70.154 1074.02 69.901 1074.16 69.758C1073.47 69.45 1072.92 68.878 1072.5 68.174C1072.93 67.91 1073.42 67.558 1073.82 67.206L1073.33 66.832ZM1078.31 64.082C1078.49 63.642 1078.7 62.938 1078.9 62.366L1078.42 62.19C1078.32 62.696 1078.11 63.466 1077.94 63.939L1078.31 64.082ZM1076.18 62.333C1076.37 62.861 1076.5 63.554 1076.52 64.005L1076.96 63.884C1076.93 63.444 1076.79 62.751 1076.59 62.223L1076.18 62.333ZM1076.03 61.794H1077.22V64.434H1076.03V61.794ZM1079.04 64.434H1077.78V61.794H1079.04V64.434ZM1075.12 68.097C1076.38 68.031 1078.17 67.921 1079.92 67.789L1079.95 67.129C1079.24 67.173 1078.54 67.217 1077.87 67.25V66.436H1079.77V65.787H1077.87V65.028H1079.7V61.2H1075.39V65.028H1077.13V65.787H1075.31V66.436H1077.13V67.294C1076.35 67.327 1075.64 67.371 1075.07 67.393L1075.12 68.097ZM1075.45 70.836C1075.93 70.352 1076.1 69.505 1076.21 68.691L1075.62 68.537C1075.53 69.296 1075.33 70.088 1074.9 70.539L1075.45 70.836ZM1076.56 68.57C1076.71 69.186 1076.82 69.967 1076.82 70.484L1077.38 70.407C1077.38 69.901 1077.26 69.109 1077.09 68.515L1076.56 68.57ZM1077.6 68.515C1077.84 69.076 1078.08 69.802 1078.13 70.286L1078.69 70.165C1078.61 69.681 1078.37 68.955 1078.12 68.405L1077.6 68.515ZM1078.65 68.372C1079.01 68.878 1079.4 69.582 1079.55 70.044L1080.1 69.802C1079.93 69.351 1079.54 68.669 1079.15 68.163L1078.65 68.372ZM1083.83 69.571H1081.06V66.744H1083.83V69.571ZM1085.04 63.95V63.18H1082.7V60.815H1081.89V65.985H1080.31V70.825H1081.06V70.308H1083.83V70.781H1084.6V65.985H1082.7V63.95H1085.04Z" fill="#7C7C7C"/>
<path d="M286.383 68.659C286.058 68.334 284.641 67.008 284.16 66.605V65.825H286.435V64.902H284.16V62.588C284.94 62.393 285.681 62.172 286.266 61.925L285.551 61.21C284.446 61.717 282.418 62.159 280.676 62.432C280.793 62.64 280.923 62.965 280.975 63.186C281.69 63.082 282.457 62.952 283.211 62.796V64.902H280.702V65.825H283.029C282.418 67.359 281.365 69.101 280.429 70.037C280.585 70.284 280.832 70.674 280.936 70.947C281.729 70.063 282.574 68.646 283.211 67.229V72.949H284.16V67.593C284.745 68.191 285.486 68.984 285.785 69.4L286.383 68.659ZM292.493 72.663C292.207 71.272 291.323 69.101 290.413 67.437L289.503 67.723C290.01 68.672 290.504 69.79 290.868 70.83C289.62 70.96 288.372 71.09 287.267 71.207C288.021 68.516 288.866 64.629 289.373 61.574L288.294 61.392C287.878 64.46 287.02 68.607 286.266 71.311C285.811 71.35 285.408 71.389 285.044 71.428L285.278 72.429C286.838 72.247 289.035 71.974 291.167 71.688C291.31 72.169 291.427 72.611 291.492 72.988L292.493 72.663ZM298.837 61.522C298.746 63.238 298.746 69.439 293.481 72.13C293.78 72.325 294.092 72.637 294.261 72.871C297.55 71.09 298.889 67.957 299.461 65.357C300.085 67.957 301.515 71.285 304.869 72.871C305.012 72.611 305.311 72.286 305.584 72.078C300.696 69.842 299.994 63.836 299.877 62.12C299.89 61.899 299.89 61.691 299.903 61.522H298.837ZM311.824 70.765L309.796 71.155V67.359H311.733V66.514H309.796V65.149H311.395V64.317H307.755C308.496 63.537 309.042 62.718 309.445 62.016C310.199 62.705 311.031 63.667 311.46 64.278L312.11 63.537C311.603 62.861 310.576 61.834 309.731 61.132H308.873C308.405 62.159 307.56 63.472 306.338 64.46C306.52 64.59 306.806 64.889 306.949 65.084C307.131 64.928 307.313 64.759 307.482 64.59V65.149H308.951V66.514H306.832V67.359H308.951V71.311C308.08 71.467 307.287 71.623 306.663 71.727L306.884 72.598C308.249 72.325 310.134 71.961 311.889 71.584L311.824 70.765ZM307.092 68.269C307.365 69.036 307.586 70.024 307.625 70.687L308.353 70.479C308.288 69.842 308.054 68.854 307.768 68.1L307.092 68.269ZM310.81 70.531C311.044 69.92 311.343 68.971 311.59 68.178L310.836 67.944C310.706 68.646 310.407 69.686 310.199 70.31L310.81 70.531ZM313.319 64.824H316.894V66.358H313.319V64.824ZM316.894 62.536V63.979H313.319V62.536H316.894ZM317.674 67.749C317.258 68.191 316.595 68.75 316.01 69.192C315.75 68.568 315.542 67.905 315.373 67.203H317.817V61.665H312.409V71.688C312.006 71.779 311.642 71.857 311.317 71.922L311.59 72.845C312.786 72.572 314.346 72.182 315.815 71.792L315.724 70.908C314.905 71.103 314.086 71.298 313.319 71.48V67.203H314.502C315.074 69.855 316.153 71.974 318.038 73.014C318.181 72.767 318.467 72.39 318.675 72.208C317.7 71.74 316.946 70.934 316.374 69.92C316.998 69.504 317.752 68.932 318.337 68.399L317.674 67.749ZM330.999 61.912H324.655V62.822H330.999V61.912ZM322.484 61.119C321.834 62.042 320.586 63.212 319.507 63.94C319.676 64.122 319.936 64.499 320.079 64.707C321.236 63.888 322.562 62.627 323.407 61.483L322.484 61.119ZM323.017 63.888C322.12 65.357 320.716 66.852 319.377 67.801C319.572 67.996 319.91 68.412 320.053 68.607C320.534 68.23 321.028 67.762 321.522 67.255V73.027H322.484V66.189C323.017 65.552 323.511 64.889 323.914 64.226L323.017 63.888ZM331.376 65.461H324.096V66.384H328.438V71.74C328.438 71.961 328.36 72.013 328.113 72.026C327.866 72.039 327.008 72.039 326.085 72.013C326.228 72.286 326.358 72.689 326.397 72.949C327.671 72.949 328.399 72.949 328.841 72.806C329.27 72.65 329.413 72.351 329.413 71.753V66.384H331.376V65.461Z" fill="#4A4A4A"/>
<path d="M1121.85 66.5088H1118.64V68.915H1122.39V70H1117.28V62.1797H1122.36V63.2754H1118.64V65.4346H1121.85V66.5088ZM1129.7 70H1128.34L1124.86 64.4517V70H1123.5V62.1797H1124.86L1128.36 67.7495V62.1797H1129.7V70Z" fill="#7C7C7C"/>
<path d="M487.073 118.349H490.18V117.582H487.073V116.282H490.492V115.489H487.073V114.449H486.124V115.489H484.096C484.239 115.203 484.369 114.891 484.473 114.592L483.615 114.41C483.264 115.372 482.666 116.334 481.99 116.984C482.198 117.088 482.562 117.335 482.718 117.478C483.043 117.153 483.355 116.737 483.641 116.282H486.124V117.582H483.186V118.349H486.124V119.909H482.016V120.728H491.22V119.909H487.073V118.349ZM482.575 113.357C483.654 113.136 484.798 112.824 485.864 112.447C486.774 112.759 487.606 113.084 488.256 113.357H482.575ZM487.58 110.991C487.112 111.264 486.54 111.524 485.903 111.745C485.019 111.472 484.109 111.199 483.277 110.991H487.58ZM488.607 113.357L489.088 112.915C488.503 112.655 487.723 112.369 486.865 112.07C487.541 111.784 488.165 111.459 488.659 111.108L488.451 110.991H490.687V110.198H485.955V109.132H485.006V110.198H480.469V110.991H482.939L482.393 111.433C483.16 111.615 483.992 111.849 484.811 112.109C483.81 112.408 482.744 112.642 481.808 112.811C481.925 112.941 482.055 113.188 482.146 113.357H480.664V115.424C480.664 116.906 480.521 118.973 479.468 120.481C479.676 120.598 480.079 120.91 480.222 121.092C481.366 119.467 481.587 117.075 481.587 115.437V114.163H491.324V113.357H488.607ZM501.1 113.058H495.939V110.601H501.1V113.058ZM502.075 109.678H495.003V113.981H502.075V109.678ZM496.758 116.282V119.363H494.041V116.282H496.758ZM493.118 121.001H494.041V120.299H496.758V120.884H497.707V115.346H493.118V121.001ZM500.06 119.363V116.282H503.011V119.363H500.06ZM499.124 115.346V121.001H500.06V120.299H503.011V120.91H503.96V115.346H499.124ZM509.329 118.219C508.536 118.934 506.976 119.818 505.728 120.325C505.962 120.507 506.287 120.832 506.456 121.014C507.678 120.468 509.225 119.584 510.226 118.804L509.329 118.219ZM512.696 118.83C514.087 119.519 515.569 120.39 516.427 121.027L517.324 120.364C516.362 119.727 514.815 118.869 513.398 118.193L512.696 118.83ZM516.063 117.101C516.167 115.203 516.245 112.2 516.258 109.951H513.489V110.783H515.361C515.361 111.277 515.348 111.797 515.335 112.317H513.619V113.136H515.322C515.309 113.669 515.283 114.202 515.27 114.722H513.593V115.541H515.231C515.205 116.113 515.179 116.633 515.14 117.101H512.982V112.733H510.941V111.381H513.229V110.562H510.941V109.236H510.096V113.513H512.137V117.101H510.889V114.085H510.083V117.101H507.847L507.795 115.541H509.446V114.722H507.756L507.704 113.136H509.433V112.317H507.678L507.626 110.939C508.367 110.64 509.173 110.289 509.849 109.938L509.095 109.249C508.679 109.535 508.016 109.912 507.366 110.224L506.716 110.029L506.963 117.101H505.624V118.011H517.402V117.101H516.063ZM520.301 115.71C520.314 115.19 520.327 114.683 520.327 114.241V113.526H522.29V115.71H520.301ZM522.29 110.497V112.629H520.327V110.497H522.29ZM523.187 109.6H519.443V114.241C519.443 116.152 519.378 118.726 518.481 120.546C518.715 120.637 519.105 120.858 519.274 121.014C519.859 119.792 520.132 118.167 520.249 116.633H522.29V119.831C522.29 120.013 522.225 120.065 522.043 120.078C521.887 120.091 521.341 120.091 520.743 120.078C520.873 120.325 521.003 120.754 521.016 121.001C521.9 121.001 522.42 120.988 522.745 120.819C523.083 120.65 523.187 120.364 523.187 119.844V109.6ZM529.128 114.917C528.829 116.022 528.387 116.997 527.828 117.829C527.23 116.971 526.762 115.983 526.411 114.917H529.128ZM529.622 113.994L529.453 114.02H525.241V110.536H528.881V112.122C528.881 112.278 528.829 112.33 528.621 112.33C528.426 112.343 527.75 112.343 526.957 112.33C527.087 112.564 527.23 112.889 527.269 113.149C528.244 113.149 528.894 113.149 529.31 113.019C529.7 112.876 529.817 112.629 529.817 112.135V109.639H524.331V121.001H525.241V114.917H525.566C525.995 116.256 526.567 117.504 527.295 118.557C526.697 119.259 526.021 119.818 525.306 120.208C525.501 120.377 525.748 120.702 525.878 120.923C526.593 120.507 527.256 119.948 527.841 119.259C528.465 119.987 529.167 120.572 529.947 121.014C530.09 120.78 530.35 120.455 530.571 120.273C529.752 119.87 529.024 119.285 528.4 118.57C529.219 117.413 529.843 115.957 530.181 114.189L529.622 113.994ZM541.244 111.303C540.945 111.966 540.516 112.512 539.983 112.98C539.372 112.499 538.865 111.927 538.514 111.303H541.244ZM536.044 116.945C536.33 116.412 536.59 115.671 536.811 114.917C536.954 115.099 537.097 115.294 537.162 115.424C538.215 115.099 539.177 114.67 539.996 114.098C540.854 114.709 541.855 115.177 542.947 115.476C543.077 115.216 543.363 114.852 543.558 114.644C542.518 114.423 541.556 114.033 540.737 113.513C541.4 112.915 541.933 112.187 542.297 111.303H543.298V110.484H538.982C539.203 110.12 539.411 109.743 539.58 109.366L538.657 109.119C538.137 110.354 537.201 111.537 536.187 112.291C536.421 112.421 536.798 112.694 536.98 112.85C537.292 112.59 537.604 112.265 537.916 111.927C538.28 112.512 538.735 113.045 539.255 113.513C538.592 113.942 537.799 114.267 536.928 114.514C536.993 114.28 537.058 114.046 537.123 113.825L536.538 113.617L536.395 113.669H535.433L535.927 113.11C535.654 112.863 535.264 112.59 534.835 112.33C535.615 111.732 536.447 110.9 536.954 110.12L536.33 109.73L536.161 109.769H531.793V110.614H535.472C535.082 111.069 534.588 111.537 534.107 111.901C533.691 111.68 533.249 111.472 532.846 111.303L532.248 111.927C533.262 112.369 534.458 113.097 535.134 113.669H531.65V114.514H533.613C533.132 115.84 532.326 117.231 531.52 117.998C531.689 118.245 531.923 118.622 532.027 118.895C532.742 118.167 533.418 116.945 533.925 115.697V119.87C533.925 120.013 533.873 120.052 533.717 120.065C533.548 120.065 533.041 120.065 532.482 120.052C532.612 120.299 532.742 120.702 532.781 120.936C533.561 120.936 534.068 120.923 534.406 120.793C534.731 120.624 534.835 120.364 534.835 119.87V114.514H536.083C535.888 115.268 535.628 116.074 535.381 116.607L536.044 116.945ZM539.97 116.373C540.048 115.957 540.113 115.528 540.152 115.086H539.177C539.138 115.528 539.086 115.957 539.008 116.373H536.772V117.179H538.8C538.397 118.505 537.578 119.597 535.784 120.247C535.979 120.416 536.239 120.767 536.356 120.988C538.436 120.182 539.346 118.83 539.801 117.179H541.985C541.79 118.96 541.595 119.688 541.348 119.935C541.218 120.052 541.114 120.065 540.906 120.065C540.698 120.065 540.178 120.052 539.619 120C539.762 120.247 539.853 120.637 539.879 120.897C540.464 120.936 541.01 120.923 541.322 120.91C541.66 120.871 541.907 120.806 542.128 120.572C542.505 120.195 542.752 119.207 542.986 116.789C542.999 116.633 543.012 116.373 543.012 116.373H539.97Z" fill="#4A4A4A"/>
<path d="M582.764 112.421C582.569 114.02 582.257 115.398 581.776 116.581C581.308 115.398 580.996 114.033 580.775 112.59C580.788 112.525 580.801 112.473 580.814 112.421H582.764ZM578.11 115.528H576.407V114.67H578.11V115.528ZM573.95 114.67H575.562V115.528H573.95V114.67ZM577.369 117.686C577.161 118.232 576.862 118.661 576.446 119.025C575.913 118.778 575.341 118.557 574.769 118.362C574.886 118.154 575.016 117.946 575.133 117.725L577.369 117.686ZM574.275 112.746V111.992H575.562V112.746H574.275ZM575.562 110.588V111.329H574.275V110.588H575.562ZM577.798 110.588V111.329H576.407V110.588H577.798ZM576.407 112.746V111.992H577.798V112.746H576.407ZM584.441 112.421V111.511H581.048C581.217 110.783 581.347 110.029 581.464 109.262L580.541 109.119C580.255 111.212 579.761 113.279 578.955 114.683V114.02H576.407V113.422H578.656V112.031H579.566V111.303H578.656V109.925H576.407V109.119H575.562V109.925H573.456V111.303H572.559V112.031H573.456V113.422H575.562V114.02H573.131V116.178H575.042C574.912 116.438 574.769 116.711 574.613 116.997C573.846 117.01 573.157 117.01 572.572 117.01L572.598 117.764L574.21 117.738C573.924 118.245 573.638 118.726 573.391 119.103L574.184 119.337L574.405 118.973C574.847 119.142 575.289 119.324 575.718 119.519C574.99 119.896 574.054 120.13 572.884 120.273C573.04 120.468 573.196 120.806 573.261 121.04C574.652 120.793 575.757 120.455 576.563 119.935C577.135 120.221 577.629 120.507 578.019 120.78L578.63 120.182C578.253 119.922 577.785 119.662 577.239 119.389C577.72 118.934 578.045 118.375 578.253 117.673L579.605 117.647L579.644 116.919C578.24 116.945 576.823 116.971 575.536 116.984C575.692 116.711 575.835 116.438 575.965 116.178H578.955V115.086C579.163 115.255 579.397 115.489 579.501 115.619C579.774 115.203 580.008 114.722 580.229 114.202C580.476 115.463 580.814 116.633 581.243 117.66C580.632 118.726 579.813 119.571 578.721 120.221C578.89 120.416 579.176 120.819 579.267 121.014C580.281 120.364 581.087 119.571 581.711 118.622C582.27 119.623 582.972 120.429 583.843 121.001C583.986 120.767 584.285 120.416 584.506 120.234C583.57 119.675 582.829 118.791 582.257 117.673C582.972 116.243 583.414 114.514 583.7 112.421H584.441ZM589.277 111.667V112.577H597.168V111.667H593.619V109.275H592.644V111.667H589.277ZM592.267 118.661C592.15 117.374 591.708 115.164 591.214 113.448L590.356 113.604C590.824 115.32 591.227 117.569 591.318 118.869L592.267 118.661ZM588.627 109.158C587.873 111.121 586.612 113.032 585.299 114.254C585.468 114.488 585.754 114.982 585.858 115.203C586.352 114.722 586.833 114.137 587.288 113.513V120.949H588.198V112.122C588.705 111.264 589.16 110.354 589.524 109.444L588.627 109.158ZM594.386 119.48C594.984 117.868 595.66 115.437 596.102 113.513L595.062 113.331C594.724 115.216 594.048 117.842 593.45 119.48H588.965V120.39H597.493V119.48H594.386ZM601.406 113.058C602.68 112.096 603.772 111.017 604.448 110.042C605.202 111.056 606.372 112.135 607.646 113.058H601.406ZM604.942 116.503H609.401V115.658H604.942V113.916H607.724V113.11C608.439 113.63 609.18 114.098 609.895 114.462C610.051 114.176 610.285 113.851 610.519 113.604C608.504 112.707 606.255 110.965 604.877 109.106H603.915C602.901 110.731 600.769 112.642 598.533 113.773C598.741 113.968 599.014 114.306 599.118 114.527C599.859 114.137 600.587 113.669 601.263 113.175V113.916H603.941V115.658H599.586V116.503H603.941V119.714H599.001V120.572H610.025V119.714H604.942V116.503ZM600.665 117.153C601.172 117.894 601.679 118.895 601.848 119.545L602.68 119.181C602.498 118.531 601.978 117.569 601.445 116.854L600.665 117.153ZM606.736 119.545C607.23 118.934 607.841 117.998 608.322 117.179L607.412 116.828C607.087 117.556 606.489 118.583 606.021 119.22L606.736 119.545ZM616.382 118.336V117.66H613.314V118.336H614.458V120.624H615.186V118.336H616.382ZM616.07 116.542C615.875 116.542 615.849 116.529 615.849 116.347V115.346H616.928V116.464C616.889 116.529 616.863 116.542 616.694 116.542H616.07ZM617.721 114.618H611.975V120.962H612.729V115.346H613.795V115.398C613.795 115.931 613.691 116.685 612.742 117.153C612.911 117.257 613.158 117.452 613.275 117.608C614.289 116.997 614.419 116.126 614.419 115.424V115.346H615.225V116.36C615.225 117.01 615.368 117.14 616.005 117.14H616.811H616.928V120.052C616.928 120.182 616.889 120.221 616.746 120.221C616.616 120.234 616.187 120.234 615.68 120.221C615.784 120.429 615.901 120.754 615.914 120.962C616.616 120.962 617.071 120.949 617.357 120.832C617.656 120.689 617.721 120.468 617.721 120.065V114.618ZM616.343 113.201H613.353V111.94H616.343V113.201ZM617.214 111.264H612.508V113.864H617.214V111.264ZM611.819 110.523H617.903V109.704H611.819V110.523ZM619.086 112.538H620.217V115.736H619.086V112.538ZM622.167 115.736H620.971V112.538H622.167V115.736ZM623.506 120.78C623.389 119.857 622.895 118.388 622.336 117.27L621.595 117.478C621.842 117.998 622.076 118.596 622.258 119.181L621.01 119.376V116.568H622.986V111.693H621.01V109.223H620.165V111.693H618.306V116.568H620.165V119.506C619.333 119.636 618.566 119.753 617.955 119.844L618.202 120.767C619.398 120.559 620.971 120.273 622.492 119.987C622.596 120.364 622.661 120.715 622.7 121.001L623.506 120.78Z" fill="#4A4A4A"/>
<path d="M659.02 119.649V116.347H663.193V115.411H659.02V112.577H663.674V111.628H659.02V109.132H658.032V111.628H655.393C655.679 110.965 655.913 110.263 656.121 109.548L655.146 109.34C654.639 111.186 653.807 112.98 652.741 114.124C653.001 114.254 653.43 114.54 653.625 114.696C654.106 114.111 654.561 113.396 654.977 112.577H658.032V115.411H654.171V116.347H658.032V119.649H652.767V120.585H664.285V119.649H659.02ZM669.186 110.627C668.64 110.263 667.548 109.665 666.755 109.288L666.222 109.977C667.015 110.406 668.094 111.03 668.627 111.407L669.186 110.627ZM668.523 114.137C667.951 113.773 666.872 113.201 666.118 112.824L665.585 113.526C666.378 113.942 667.444 114.566 667.977 114.93L668.523 114.137ZM666.703 120.819C667.47 119.623 668.38 118.011 669.056 116.646L668.354 116.009C667.6 117.478 666.599 119.194 665.897 120.169L666.703 120.819ZM675.621 119.545H671.006V116.867H675.621V119.545ZM677.389 113.838V112.902H673.827V110.653C674.945 110.458 675.985 110.211 676.83 109.925L676.076 109.171C674.633 109.691 672.02 110.094 669.784 110.328C669.875 110.549 670.005 110.913 670.057 111.147C670.98 111.056 671.955 110.939 672.904 110.796V112.902H669.16V113.838H672.904V115.97H670.109V120.988H671.006V120.442H675.621V120.923H676.544V115.97H673.827V113.838H677.389ZM681.406 113.058C682.68 112.096 683.772 111.017 684.448 110.042C685.202 111.056 686.372 112.135 687.646 113.058H681.406ZM684.942 116.503H689.401V115.658H684.942V113.916H687.724V113.11C688.439 113.63 689.18 114.098 689.895 114.462C690.051 114.176 690.285 113.851 690.519 113.604C688.504 112.707 686.255 110.965 684.877 109.106H683.915C682.901 110.731 680.769 112.642 678.533 113.773C678.741 113.968 679.014 114.306 679.118 114.527C679.859 114.137 680.587 113.669 681.263 113.175V113.916H683.941V115.658H679.586V116.503H683.941V119.714H679.001V120.572H690.025V119.714H684.942V116.503ZM680.665 117.153C681.172 117.894 681.679 118.895 681.848 119.545L682.68 119.181C682.498 118.531 681.978 117.569 681.445 116.854L680.665 117.153ZM686.736 119.545C687.23 118.934 687.841 117.998 688.322 117.179L687.412 116.828C687.087 117.556 686.489 118.583 686.021 119.22L686.736 119.545ZM696.382 118.336V117.66H693.314V118.336H694.458V120.624H695.186V118.336H696.382ZM696.07 116.542C695.875 116.542 695.849 116.529 695.849 116.347V115.346H696.928V116.464C696.889 116.529 696.863 116.542 696.694 116.542H696.07ZM697.721 114.618H691.975V120.962H692.729V115.346H693.795V115.398C693.795 115.931 693.691 116.685 692.742 117.153C692.911 117.257 693.158 117.452 693.275 117.608C694.289 116.997 694.419 116.126 694.419 115.424V115.346H695.225V116.36C695.225 117.01 695.368 117.14 696.005 117.14H696.811H696.928V120.052C696.928 120.182 696.889 120.221 696.746 120.221C696.616 120.234 696.187 120.234 695.68 120.221C695.784 120.429 695.901 120.754 695.914 120.962C696.616 120.962 697.071 120.949 697.357 120.832C697.656 120.689 697.721 120.468 697.721 120.065V114.618ZM696.343 113.201H693.353V111.94H696.343V113.201ZM697.214 111.264H692.508V113.864H697.214V111.264ZM691.819 110.523H697.903V109.704H691.819V110.523ZM699.086 112.538H700.217V115.736H699.086V112.538ZM702.167 115.736H700.971V112.538H702.167V115.736ZM703.506 120.78C703.389 119.857 702.895 118.388 702.336 117.27L701.595 117.478C701.842 117.998 702.076 118.596 702.258 119.181L701.01 119.376V116.568H702.986V111.693H701.01V109.223H700.165V111.693H698.306V116.568H700.165V119.506C699.333 119.636 698.566 119.753 697.955 119.844L698.202 120.767C699.398 120.559 700.971 120.273 702.492 119.987C702.596 120.364 702.661 120.715 702.7 121.001L703.506 120.78Z" fill="#4A4A4A"/>
<path d="M745.507 119.623V116.425H749.589V115.502H745.507V112.655H750.122V111.706H745.923L746.534 111.264C746.027 110.653 744.987 109.769 744.155 109.171L743.375 109.717C744.155 110.289 745.078 111.108 745.585 111.706H739.878V112.655H744.48V115.502H740.476V116.425H744.48V119.623H739.28V120.572H750.772V119.623H745.507ZM762.394 111.147H759.898V112.499C759.898 113.279 760.171 113.474 761.133 113.474H762.875C763.564 113.474 763.811 113.24 763.902 112.369C763.668 112.317 763.356 112.213 763.187 112.096C763.148 112.707 763.083 112.785 762.771 112.785H761.224C760.795 112.785 760.717 112.733 760.717 112.486V111.823H763.252V109.626H759.651V110.302H762.394V111.147ZM758.208 111.147H755.66V112.499C755.66 113.279 755.907 113.474 756.869 113.474H758.481C759.144 113.474 759.391 113.253 759.482 112.408C759.248 112.369 758.936 112.265 758.767 112.135C758.728 112.707 758.663 112.785 758.351 112.785H756.947C756.531 112.785 756.466 112.733 756.466 112.499V111.823H759.027V109.626H755.426V110.302H758.208V111.147ZM758.416 115.32H760.548V116.555H758.416V115.32ZM763.824 116.555H761.471V115.32H763.421V114.579H761.471V113.643H760.548V114.579H758.416V113.643H757.519V114.579H755.595V115.32H757.519V116.555H755.179V117.309H763.824V116.555ZM763.629 119.038C763.018 118.557 761.952 117.933 761.003 117.478L760.314 117.907C761.211 118.362 762.147 118.973 762.693 119.454L763.629 119.038ZM757.948 117.452C757.376 117.972 756.414 118.466 755.53 118.817C755.738 118.947 756.089 119.259 756.245 119.428C757.103 119.012 758.143 118.375 758.806 117.751L757.948 117.452ZM754.932 111.589C754.568 110.939 753.71 110.042 752.943 109.431L752.202 109.925C752.956 110.562 753.788 111.485 754.126 112.135L754.932 111.589ZM754.633 114.215H752.137V115.125H753.736V118.479C753.164 119.025 752.527 119.571 751.981 119.974L752.488 120.871C753.112 120.299 753.697 119.753 754.243 119.181C755.049 120.208 756.232 120.676 757.948 120.741C759.417 120.793 762.225 120.767 763.694 120.702C763.733 120.429 763.889 120 764.006 119.792C762.42 119.896 759.391 119.935 757.922 119.87C756.401 119.805 755.244 119.363 754.633 118.388V114.215ZM774.939 111.498H772.43V110.276H774.939V111.498ZM775.836 109.626H771.546V112.148H775.836V109.626ZM769.596 111.498H767.113V110.276H769.596V111.498ZM770.506 109.626H766.242V112.148H770.506V109.626ZM767.529 116.542V115.424H770.467V116.542H767.529ZM767.529 113.578H770.467V114.683H767.529V113.578ZM774.549 114.683H771.455V113.578H774.549V114.683ZM774.549 116.542H771.455V115.424H774.549V116.542ZM776.733 118.31H771.455V117.322H775.537V112.798H766.593V117.322H770.467V118.31H765.293V119.155H770.467V120.988H771.455V119.155H776.733V118.31Z" fill="#4A4A4A"/>
<path d="M225.916 107.978C224.226 110.207 222.184 112.151 219.869 113.734L218.286 110.489C220.101 109.262 221.708 107.757 223.047 106.029C223.993 106.672 224.939 107.335 225.916 107.978Z" fill="#009D95"/>
<path d="M239.463 106.6H227.051V109.917H239.463V106.6Z" fill="#009D95"/>
<path d="M240.372 113.469V116.683H237.071L236.999 125.868C236.919 126.234 236.756 126.576 236.522 126.87C236.289 127.163 235.991 127.4 235.651 127.562C234.129 128.195 232.206 127.96 230.51 127.96L229.193 124.613L233.245 124.541C233.416 124.448 233.548 124.295 233.615 124.113V116.744L225.913 116.653C225.913 115.846 225.913 115.01 225.841 114.275C225.508 114.856 225.137 115.415 224.73 115.948V128.134H221.347C221.347 125.491 221.347 122.807 221.347 120.163C220.771 120.602 220.236 121.133 219.701 121.602L218.179 117.99C220.364 116.269 222.188 114.14 223.547 111.723L225.913 113.438L240.372 113.469Z" fill="#009D95"/>
<path d="M209.631 123.766C209.364 123.838 209.497 123.531 209.261 123.531C209.189 123.297 208.963 123.236 208.798 123.062C208.633 122.889 208.448 122.837 208.49 122.501C208.582 122.501 208.49 122.164 208.726 122.297V122.195C208.995 122.046 209.252 121.879 209.497 121.694C209.569 121.592 209.734 121.592 209.775 121.46C209.816 121.327 209.868 121.46 209.94 121.46V121.388C209.94 121.317 210.073 121.388 210.104 121.388V121.296C210.104 121.225 210.207 121.296 210.238 121.296V121.225C210.238 121.154 210.371 121.225 210.413 121.225V121.123C210.474 121.052 210.546 121.123 210.608 121.123V121.021C210.608 121.021 210.68 121.021 210.711 121.021V120.96C210.711 120.888 210.814 120.96 210.855 120.96V120.419C210.577 120.358 210.711 119.949 210.413 119.888C210.31 119.888 210.413 119.684 210.279 119.755C210.135 119.623 210.176 119.419 210.001 119.347C209.826 119.276 209.898 119.082 209.806 119.021C209.713 118.959 209.672 118.684 209.497 118.643C209.418 118.36 209.239 118.113 208.993 117.949C208.932 118.01 208.891 118.112 208.757 118.082C208.623 118.051 208.757 118.174 208.757 118.174C208.346 118.347 208.078 118.817 207.636 118.98C207.502 119.184 207.266 119.245 207.07 119.388C206.875 119.531 206.793 119.215 206.69 119.113C206.628 118.684 206.258 118.092 206.69 117.776H210.063V106.386H199.368L199.306 109.805C197.811 108.871 196.599 107.552 195.799 105.988H192.786C191.743 107.891 190.323 109.564 188.611 110.907C188.981 112.081 189.382 113.316 189.855 114.489L190.729 113.959C190.904 114.122 190.801 114.459 190.832 114.694H192.55C192.55 114.969 192.55 115.265 192.55 115.53H189.177V118.48L192.58 118.551V123.94L191.974 124.205L189.105 124.44L189.279 127.787C192.179 127.389 195.049 126.848 197.846 126.246C198.391 126.481 198.082 127.267 198.185 127.716C198.491 127.823 198.825 127.823 199.131 127.716C199.635 127.787 199.769 127.42 200.273 127.552C200.417 127.287 200.91 127.552 201.085 127.359C201.71 127.274 202.328 127.148 202.936 126.981C203.329 126.936 203.715 126.847 204.088 126.716C204.458 126.614 205.003 126.716 205.271 126.42V124.276L205.435 124.174C205.532 124.22 205.614 124.29 205.674 124.378C205.734 124.466 205.768 124.569 205.775 124.674C205.98 124.746 206.011 125.011 206.217 125.113C206.422 125.215 206.217 125.348 206.35 125.277C206.35 125.613 206.752 125.511 206.752 125.848C207.06 125.909 207.06 126.287 207.327 126.348C207.43 126.614 207.667 126.685 207.831 126.848C207.996 127.012 208.212 127.052 208.212 127.318C208.458 127.438 208.684 127.597 208.88 127.787C209.117 127.787 209.014 127.859 209.251 127.787C209.408 127.565 209.546 127.329 209.662 127.083C209.796 126.981 209.857 126.787 209.991 126.716C210.125 126.644 210.166 126.511 210.166 126.348C210.33 126.348 210.33 126.144 210.402 126.052C210.583 125.819 210.742 125.57 210.875 125.307C211.009 125.307 211.009 125.144 211.112 125.011V124.807C210.608 124.541 210.149 124.196 209.754 123.787L209.631 123.766ZM194.329 109.928C194.92 110.408 195.412 110.997 195.779 111.663H193.146C193.485 111.036 193.881 110.442 194.329 109.887V109.928ZM199.357 124.317H198.617C198.617 123.878 198.617 123.45 198.617 123.042C198.483 123.042 198.453 122.909 198.422 122.848C198.751 121.735 198.884 120.603 199.121 119.5C198.318 119.239 197.496 119.037 196.663 118.898L195.954 122.307L196.026 122.48L197.907 122.909C197.2 123.149 196.463 123.296 195.717 123.348V118.582H198.854V115.52L195.768 115.459V114.714C196.468 114.653 197.218 114.714 197.959 114.714C198.014 114.294 198.039 113.871 198.031 113.448C198.195 113.275 198.36 113.581 198.535 113.581C198.895 113.112 199.07 112.499 199.378 112.04L199.357 124.317ZM202.803 109.815L202.967 109.683H206.608C206.772 109.948 206.68 110.387 206.71 110.754L206.608 110.826H202.967C202.628 110.693 202.864 110.152 202.803 109.805V109.815ZM202.628 123.736V117.98C202.833 117.806 203.543 117.674 203.471 118.204C203.706 119.924 204.17 121.605 204.849 123.205C204.133 123.478 203.388 123.666 202.628 123.766V123.736ZM202.895 114.857C202.781 114.498 202.781 114.113 202.895 113.755H206.608C206.844 113.989 206.71 114.459 206.741 114.775C205.471 114.862 204.198 114.883 202.926 114.836" fill="#009D95"/>
<path d="M189.801 123.838C190.346 123.736 190.881 123.603 191.416 123.501C191.621 123.399 191.961 123.429 192.033 123.236C192.033 121.858 191.724 120.551 191.662 119.276C191.323 119.051 190.912 119.276 190.541 119.276C190.171 119.276 189.626 119.511 189.163 119.613L189.39 123.797L189.503 123.858C189.626 123.858 189.77 123.93 189.801 123.797" fill="#009D95"/>
<path d="M115.355 110.079C116.529 113.089 116.756 116.381 116.007 119.522C115.258 122.663 113.568 125.504 111.159 127.673C109.001 129.582 106.376 130.895 103.546 131.48C100.716 132.066 97.7807 131.904 95.0338 131.01C92.0501 130.042 89.4191 128.224 87.4681 125.783C85.517 123.343 84.3319 120.387 84.0601 117.283C83.7884 114.18 84.4419 111.065 85.9396 108.327C87.4372 105.589 89.7128 103.349 92.4834 101.884C95.1792 100.485 98.2091 99.8447 101.245 100.032C104.281 100.219 107.208 101.226 109.709 102.945C112.248 104.741 114.218 107.22 115.385 110.089" fill="#009D95"/>
<path d="M99.4261 107.416C100.002 107.253 100.732 106.814 101.308 107.253C101.709 107.855 102.82 108.049 102.511 108.886C103.078 109.641 103.734 110.326 104.465 110.927C104.63 110.927 104.691 110.855 104.763 110.753L104.568 110.651C104.794 110.447 105.37 110.784 105.74 110.58C105.878 110.573 106.015 110.596 106.143 110.648C106.271 110.699 106.386 110.776 106.481 110.876C106.595 111.182 106.74 111.476 106.913 111.753L107.046 111.682C107.174 111.969 107.318 112.249 107.478 112.519C108.692 112.917 109.268 114.346 110.337 114.948C111.626 115.972 113.052 116.813 114.574 117.448C114.502 117.642 114.739 117.642 114.841 117.713C114.637 117.593 114.398 117.546 114.163 117.581C114.368 117.877 114.872 117.744 114.975 118.081H114.44C114.44 118.183 114.574 118.183 114.636 118.214C114.368 118.111 114.101 118.316 113.926 117.979C112.856 117.481 111.825 116.905 110.841 116.254V116.254C111.677 116.946 112.592 117.539 113.566 118.02C113.865 118.183 114.296 118.285 114.471 118.581C114.368 118.581 114.194 118.581 114.163 118.754L113.926 118.622C113.865 118.622 113.926 118.714 113.926 118.754L114.091 118.887C112.851 118.366 111.688 117.68 110.635 116.846C110.132 116.509 109.607 116.244 109.124 115.825C109.062 115.825 108.959 115.825 108.918 115.897C109.494 116.326 110.101 116.591 110.666 116.989C109.499 116.458 108.45 115.702 107.581 114.764C107.221 114.397 106.676 113.631 106.039 113.744C105.812 113.886 105.442 113.846 105.175 113.978C104.907 114.111 104.794 113.744 104.599 113.917C104.434 114.284 103.9 113.978 103.797 114.387C103.457 114.519 102.851 114.387 102.768 114.815V114.978C102.09 115.285 101.185 115.183 100.712 115.815C100.568 115.948 100.3 115.815 100.166 115.948C100.166 115.887 100.166 115.815 100.074 115.815C99.9814 115.815 99.7963 115.917 99.6626 115.948C99.5597 115.785 99.7963 115.744 99.7654 115.652C99.4672 115.519 99.3335 115.917 99.097 116.05C99.097 115.785 99.4363 115.744 99.5289 115.519C99.3644 115.417 99.2307 115.581 99.097 115.611C99.1587 115.611 99.3027 115.356 99.097 115.356C99.2615 115.08 99.6317 115.183 99.7346 114.887H99.4261L100.228 114.254C100.125 114.254 99.93 113.978 99.7551 114.254C99.7551 114.254 99.8271 114.193 99.7551 114.162C99.6832 114.131 99.4466 114.254 99.2821 114.254C99.2821 114.254 99.2821 114.162 99.2204 114.121H99.1175C99.2204 114.06 99.3541 113.886 99.4775 113.784L99.4261 113.846C99.93 113.55 100.454 113.213 100.938 112.978L101.041 112.876C101.007 112.837 100.965 112.806 100.918 112.785C100.871 112.763 100.82 112.752 100.768 112.752C100.716 112.752 100.665 112.763 100.618 112.785C100.571 112.806 100.529 112.837 100.496 112.876C100.938 112.876 100.496 112.376 100.969 112.315C101.021 112.144 101.106 111.986 101.221 111.849C101.336 111.713 101.478 111.6 101.637 111.519C101.205 111.111 101.041 110.376 100.537 110.151C100.537 109.845 100.197 110.151 100.166 109.845C99.5597 109.845 98.8502 110.11 98.4491 109.58C98.1099 109.51 97.7599 109.51 97.4207 109.58C97.2 109.826 97.0196 110.105 96.886 110.406C96.6652 110.655 96.4817 110.933 96.3409 111.233C96.0499 111.683 95.6314 112.038 95.1377 112.254V112.254C94.7675 112.754 93.9653 112.56 93.4923 113.09V112.958C93.4572 112.947 93.4202 112.944 93.3837 112.948C93.3472 112.952 93.3119 112.963 93.2801 112.981C93.2482 113 93.2205 113.024 93.1986 113.053C93.1767 113.083 93.1612 113.116 93.1529 113.152V113.223C92.9164 113.152 92.7519 113.417 92.649 113.55C92.0731 114.152 91.1373 114.152 90.5306 114.652C90.4689 114.652 90.5306 114.652 90.5306 114.652C89.4199 114.887 88.8851 115.672 88.1447 116.519C87.9118 116.817 87.6423 117.084 87.3426 117.315C87.4146 117.581 87.0032 117.683 86.8695 117.816C87.0032 117.581 87.3117 117.387 87.3426 117.122C87.0752 117.254 87.0032 117.55 86.705 117.683C86.5404 117.55 86.8695 117.448 86.7667 117.315L86.3656 117.622L86.7358 117.122C86.5404 117.122 86.3348 117.489 86.0982 117.52C86.0365 117.622 85.9337 117.622 85.8 117.622C86.0021 117.46 86.1912 117.282 86.3656 117.091C86.1291 116.958 85.8617 117.254 85.6972 117.224C85.5326 117.193 85.6972 117.02 85.5018 117.091C85.6747 116.99 85.8142 116.841 85.9028 116.662C85.7691 116.662 85.5943 116.724 85.4606 116.795C85.4606 116.622 85.8309 116.519 85.728 116.254C85.2961 116.193 85.3578 116.622 84.9979 116.724C85.3578 116.223 85.9028 115.928 86.2628 115.397C86.9863 114.695 87.8155 114.11 88.7206 113.662C89.4199 113.264 90.3557 113.07 90.8699 112.396C91.071 112.158 91.25 111.902 91.4047 111.631C91.5075 111.631 91.5384 111.57 91.5692 111.498C92.0611 111.185 92.6303 111.012 93.2146 110.998C93.482 110.733 93.9859 110.896 94.243 110.529C94.9423 109.702 95.22 108.671 95.8164 107.835C96.0221 107.569 96.2586 107.13 96.6597 107.039C97.5912 107.084 98.5169 107.21 99.4261 107.416" fill="white"/>
<path d="M106.92 111.378L106.789 110.948L106.92 111.317V111.378Z" fill="white"/>
<path d="M107.161 112.052C107.026 112.052 107.057 111.918 106.995 111.815C107.077 111.872 107.136 111.956 107.161 112.052Z" fill="white"/>
<path d="M91.1339 112.255C91.0412 112.061 91.309 111.999 91.412 111.826C91.3739 111.997 91.2752 112.149 91.1339 112.255" fill="#00A28D"/>
<path d="M94.3676 112.348V112.315H94.4704L94.3676 112.348Z" fill="#00A28D"/>
<path d="M93.657 112.551C93.5947 112.612 93.5635 112.715 93.4597 112.685C93.3559 112.654 93.5947 112.478 93.657 112.551Z" fill="#00A28D"/>
<path d="M100.107 113.112C99.9426 113.244 99.6032 113.346 99.5723 113.55C99.2741 113.55 99.0684 113.816 98.8319 113.816C98.8319 113.55 99.2741 113.714 99.305 113.448L99.5723 113.244V113.346C99.6752 113.244 100.015 113.346 99.9117 113.05L100.107 113.112Z" fill="white"/>
<path d="M99.0383 113.275C98.9999 113.344 98.9467 113.403 98.8825 113.45C98.8182 113.496 98.7444 113.527 98.6664 113.541C98.7284 113.377 98.8627 113.377 99.0383 113.275Z" fill="white"/>
<path d="M92.1086 113.713C92.1793 113.815 92.0481 113.713 92.0078 113.785C91.9674 113.856 92.0784 113.713 92.1086 113.713Z" fill="#00A28D"/>
<path d="M99.7749 113.877H99.6736V113.979H99.7749V113.877Z" fill="white"/>
<path d="M99.5369 114.112C99.5369 114.184 99.4642 114.184 99.433 114.246H99.3292C99.3292 114.143 99.4019 114.112 99.4642 114.081C99.5265 114.05 99.4642 114.081 99.5369 114.081" fill="white"/>
<path d="M100.179 114.744C100.179 114.878 99.9715 114.878 99.9094 114.909C99.8472 114.94 99.9094 114.847 99.9094 114.775C99.9094 114.703 100.044 114.713 100.148 114.775" fill="white"/>
<path d="M100.241 114.948C100.241 115.081 99.973 115.081 99.8391 115.183C99.8391 115.05 100.004 114.979 100.107 114.918C100.21 114.856 100.241 114.918 100.241 114.918" fill="#00A28D"/>
<path d="M108.302 115.316C108.436 115.377 108.508 115.54 108.611 115.642L108.508 115.744C108.291 115.522 108.117 115.262 107.994 114.979C108.096 115.081 108.168 115.244 108.302 115.316Z" fill="#00A28D"/>
<path d="M113.137 117.051C113.033 117.113 112.899 116.979 112.806 116.949L113.137 117.051Z" fill="white"/>
<path d="M114.079 117.551C113.801 117.377 113.442 117.377 113.236 117.183C113.544 117.231 113.835 117.357 114.079 117.551" fill="white"/>
<path d="M111.125 117.51L110.712 117.214L110.98 117.347L111.125 117.51Z" fill="white"/>
<path d="M113.979 118.51L114.009 118.449L114.11 118.51H113.979Z" fill="white"/>
<path d="M113.816 118.683H113.685V118.612C113.685 118.612 113.776 118.612 113.816 118.683Z" fill="white"/>
<path d="M172.211 122.857H177.107V108.723H180.613V127.552H177.107V126.286L163.624 126.246L163.594 127.46H159.984V108.559H163.594V122.857L168.561 122.827V105.477H172.211V122.857Z" fill="#009D95"/>
<path d="M150.391 109.386L142.421 109.407L142.359 109.468V114.285L149.856 114.356V117.765H142.328L142.287 123.837L151.368 123.868V127.358H129.597V123.898L138.647 123.868V117.806L131.212 117.765V114.326H138.647V109.376L130.708 109.294V105.876H150.391V109.386Z" fill="#009D95"/>
<path d="M148.168 119.684C148.328 119.944 148.434 120.233 148.48 120.535C148.526 120.836 148.511 121.143 148.436 121.439C148.337 121.778 148.156 122.089 147.908 122.343C147.661 122.597 147.355 122.788 147.017 122.898C146.599 123.022 146.155 123.021 145.738 122.896C145.321 122.771 144.95 122.527 144.672 122.194C144.489 121.976 144.353 121.723 144.27 121.452C144.187 121.18 144.159 120.895 144.189 120.612C144.24 120.199 144.41 119.809 144.678 119.489C144.946 119.169 145.301 118.932 145.7 118.806C146.152 118.665 146.637 118.675 147.083 118.833C147.529 118.991 147.91 119.29 148.168 119.684" fill="#009D95"/>
<path d="M859.522 104.06V105.08C859.544 105.018 859.577 104.96 859.621 104.91C859.665 104.864 859.716 104.824 859.772 104.791C859.827 104.756 859.888 104.731 859.952 104.715C860.017 104.706 860.082 104.706 860.146 104.715C860.269 104.712 860.391 104.737 860.503 104.787C860.603 104.836 860.69 104.907 860.757 104.995C860.826 105.084 860.878 105.185 860.908 105.293C860.971 105.53 860.971 105.779 860.908 106.016C860.877 106.123 860.826 106.224 860.757 106.313C860.69 106.4 860.603 106.47 860.503 106.517C860.392 106.571 860.269 106.597 860.146 106.594C860.008 106.596 859.873 106.561 859.754 106.492C859.641 106.427 859.553 106.327 859.505 106.207V106.207V106.543H859.302V104.06H859.522ZM860.71 105.357C860.689 105.271 860.655 105.189 860.606 105.114C860.558 105.045 860.497 104.986 860.426 104.94C860.342 104.896 860.249 104.874 860.154 104.876C860.053 104.873 859.952 104.895 859.862 104.94C859.785 104.984 859.717 105.043 859.664 105.114C859.614 105.188 859.578 105.27 859.556 105.357C859.534 105.447 859.523 105.54 859.522 105.633C859.523 105.725 859.534 105.816 859.556 105.905C859.577 105.993 859.614 106.076 859.664 106.152C859.717 106.223 859.785 106.282 859.862 106.326C859.952 106.371 860.053 106.393 860.154 106.39C860.249 106.392 860.342 106.37 860.426 106.326C860.499 106.275 860.56 106.21 860.606 106.135C860.655 106.059 860.69 105.976 860.71 105.888C860.734 105.799 860.746 105.708 860.744 105.616C860.744 105.528 860.732 105.441 860.71 105.357V105.357Z" fill="#54565A"/>
<path d="M861.337 104.744L861.931 106.262L862.486 104.744H862.714L861.931 106.789C861.91 106.856 861.884 106.921 861.854 106.985C861.83 107.028 861.8 107.067 861.763 107.099C861.729 107.13 861.687 107.151 861.643 107.163C861.586 107.171 861.528 107.171 861.471 107.163H861.367C861.346 107.168 861.324 107.168 861.303 107.163V106.985H861.376H861.423C861.463 106.994 861.504 106.994 861.544 106.985C861.575 106.973 861.603 106.954 861.626 106.929C861.649 106.902 861.669 106.872 861.686 106.84C861.686 106.806 861.72 106.768 861.737 106.73L861.815 106.53L861.096 104.757L861.337 104.744Z" fill="#54565A"/>
<path d="M865.655 104.06V104.26H864.174V105.148H865.56V105.348H864.174V106.322H865.672V106.522H863.951V104.06H865.655Z" fill="#54565A"/>
<path d="M866.093 106.156H866.387V106.523H866.093V106.156Z" fill="#54565A"/>
<path d="M867.142 106.029C867.183 106.11 867.244 106.18 867.319 106.233C867.397 106.285 867.485 106.322 867.577 106.343C867.683 106.364 867.791 106.374 867.9 106.373C867.971 106.372 868.041 106.363 868.11 106.347C868.187 106.331 868.26 106.301 868.326 106.258C868.391 106.22 868.447 106.167 868.489 106.105C868.537 106.038 868.561 105.957 868.558 105.875C868.559 105.813 868.543 105.751 868.511 105.697C868.48 105.647 868.439 105.603 868.39 105.569C868.339 105.533 868.282 105.504 868.222 105.484C868.165 105.463 868.106 105.444 868.046 105.429L867.491 105.284C867.419 105.268 867.348 105.245 867.28 105.216C867.213 105.191 867.152 105.154 867.099 105.106C867.046 105.06 867.004 105.004 866.974 104.94C866.941 104.862 866.925 104.778 866.927 104.694C866.929 104.623 866.941 104.553 866.962 104.485C866.989 104.4 867.035 104.322 867.095 104.256C867.168 104.177 867.258 104.115 867.357 104.073C867.495 104.021 867.641 103.996 867.788 104.001C867.907 104.001 868.026 104.017 868.141 104.047C868.246 104.078 868.345 104.127 868.433 104.192C868.516 104.257 868.584 104.34 868.631 104.434C868.685 104.536 868.711 104.651 868.709 104.766H868.472C868.469 104.68 868.447 104.596 868.407 104.519C868.369 104.452 868.318 104.393 868.257 104.345C868.193 104.296 868.12 104.26 868.042 104.239C867.96 104.212 867.874 104.2 867.788 104.2C867.71 104.2 867.632 104.209 867.555 104.226C867.484 104.241 867.417 104.27 867.357 104.311C867.299 104.348 867.25 104.399 867.215 104.46C867.179 104.531 867.161 104.61 867.164 104.689C867.164 104.74 867.174 104.791 867.194 104.838C867.214 104.88 867.241 104.917 867.276 104.949C867.312 104.979 867.352 105.003 867.396 105.021L867.542 105.068L868.149 105.212C868.24 105.238 868.321 105.267 868.399 105.297C868.473 105.33 868.543 105.373 868.605 105.425C868.665 105.473 868.712 105.534 868.743 105.603C868.78 105.685 868.797 105.774 868.795 105.863C868.795 105.888 868.795 105.926 868.795 105.973C868.785 106.03 868.767 106.085 868.739 106.135C868.716 106.192 868.684 106.245 868.644 106.292C868.599 106.352 868.542 106.401 868.476 106.437C868.395 106.485 868.306 106.519 868.214 106.539C867.956 106.601 867.688 106.601 867.431 106.539C867.314 106.509 867.204 106.457 867.108 106.386C867.02 106.314 866.95 106.222 866.906 106.118C866.855 105.995 866.835 105.863 866.845 105.731H867.082C867.08 105.833 867.101 105.935 867.142 106.029V106.029Z" fill="#54565A"/>
<path d="M869.386 104.06V105.586C869.384 105.708 869.4 105.83 869.433 105.948C869.462 106.04 869.512 106.125 869.58 106.194C869.643 106.258 869.721 106.305 869.808 106.33C870.01 106.387 870.225 106.387 870.427 106.33C870.514 106.305 870.592 106.258 870.655 106.194C870.723 106.125 870.773 106.04 870.802 105.948C870.835 105.83 870.851 105.708 870.849 105.586V104.06H871.086V105.637C871.087 105.76 871.068 105.882 871.03 105.999C870.996 106.109 870.939 106.21 870.862 106.296C870.777 106.383 870.674 106.451 870.561 106.496C870.275 106.599 869.961 106.599 869.674 106.496C869.561 106.451 869.458 106.383 869.373 106.296C869.296 106.21 869.239 106.109 869.205 105.999C869.167 105.882 869.148 105.76 869.149 105.637V104.06H869.386Z" fill="#54565A"/>
<path d="M871.824 104.06L873.274 106.135V104.06H873.511V106.522H873.244L871.803 104.434V106.517H871.566V104.06H871.824Z" fill="#54565A"/>
<path d="M876.054 104.06C876.157 104.059 876.259 104.069 876.36 104.09C876.45 104.109 876.536 104.143 876.614 104.192C876.686 104.238 876.746 104.301 876.79 104.375C876.836 104.464 876.858 104.564 876.855 104.664C876.856 104.727 876.845 104.791 876.825 104.851C876.805 104.911 876.774 104.967 876.734 105.017C876.698 105.066 876.652 105.11 876.601 105.144C876.547 105.179 876.487 105.203 876.424 105.216V105.216C876.572 105.233 876.709 105.302 876.807 105.412C876.907 105.531 876.958 105.683 876.949 105.837C876.949 105.875 876.949 105.918 876.949 105.969C876.941 106.02 876.926 106.07 876.906 106.118C876.884 106.174 876.853 106.227 876.816 106.275C876.771 106.328 876.717 106.372 876.657 106.407C876.58 106.449 876.497 106.48 876.412 106.5C876.297 106.524 876.18 106.536 876.063 106.534H875.009V104.06H876.054ZM876.054 105.14C876.139 105.141 876.223 105.13 876.304 105.106C876.368 105.087 876.428 105.057 876.48 105.017C876.523 104.98 876.558 104.935 876.584 104.885C876.606 104.834 876.617 104.779 876.618 104.723C876.618 104.413 876.429 104.26 876.054 104.26H875.241V105.14H876.054ZM876.054 106.322C876.139 106.321 876.224 106.314 876.308 106.301C876.371 106.283 876.43 106.256 876.485 106.22C876.547 106.182 876.598 106.127 876.631 106.063C876.668 105.986 876.686 105.901 876.683 105.816C876.686 105.747 876.672 105.679 876.643 105.617C876.614 105.555 876.57 105.501 876.515 105.459C876.376 105.376 876.216 105.334 876.054 105.34H875.241V106.322H876.054Z" fill="#54565A"/>
<path d="M877.319 105.021C877.355 104.949 877.406 104.885 877.47 104.834C877.537 104.783 877.615 104.747 877.698 104.728C877.79 104.703 877.886 104.692 877.982 104.694C878.061 104.685 878.14 104.685 878.219 104.694C878.296 104.706 878.369 104.735 878.434 104.779C878.501 104.822 878.554 104.882 878.589 104.953C878.635 105.058 878.651 105.172 878.636 105.285V106.208C878.636 106.297 878.679 106.339 878.765 106.339C878.789 106.344 878.814 106.344 878.838 106.339V106.522H878.769H878.692C878.648 106.53 878.603 106.53 878.559 106.522C878.527 106.508 878.501 106.486 878.481 106.458C878.463 106.428 878.45 106.395 878.442 106.361C878.44 106.318 878.44 106.276 878.442 106.233V106.233C878.406 106.287 878.366 106.338 878.322 106.386C878.282 106.431 878.236 106.47 878.184 106.501C878.13 106.531 878.072 106.554 878.012 106.569C877.933 106.577 877.853 106.574 877.775 106.56C877.697 106.559 877.619 106.549 877.543 106.531C877.473 106.513 877.407 106.481 877.349 106.437C877.294 106.395 877.249 106.339 877.22 106.276C877.188 106.202 877.172 106.122 877.173 106.042C877.167 105.938 877.195 105.835 877.255 105.748C877.314 105.678 877.391 105.623 877.478 105.591C877.578 105.551 877.682 105.524 877.788 105.51L878.141 105.468H878.262C878.293 105.464 878.323 105.453 878.348 105.434C878.373 105.416 878.393 105.39 878.404 105.361C878.411 105.324 878.411 105.285 878.404 105.247C878.406 105.184 878.394 105.122 878.369 105.064C878.345 105.019 878.31 104.98 878.266 104.953C878.22 104.923 878.169 104.903 878.115 104.894C878.055 104.889 877.995 104.889 877.935 104.894C877.812 104.887 877.691 104.922 877.59 104.992C877.544 105.03 877.508 105.078 877.484 105.133C877.46 105.188 877.45 105.247 877.453 105.306H877.233C877.241 105.206 877.271 105.109 877.319 105.021V105.021ZM878.421 105.553C878.4 105.579 878.372 105.597 878.339 105.604L878.236 105.629L877.947 105.672C877.856 105.684 877.765 105.704 877.676 105.731C877.602 105.752 877.533 105.788 877.474 105.838C877.447 105.864 877.426 105.896 877.413 105.931C877.4 105.967 877.394 106.004 877.397 106.042C877.396 106.092 877.408 106.141 877.431 106.186C877.452 106.228 877.482 106.266 877.517 106.297C877.556 106.327 877.6 106.352 877.646 106.369C877.696 106.375 877.747 106.375 877.797 106.369C877.879 106.37 877.96 106.357 878.038 106.331C878.112 106.31 878.181 106.274 878.24 106.225C878.297 106.174 878.343 106.113 878.378 106.046C878.41 105.972 878.426 105.892 878.425 105.812V105.553H878.421Z" fill="#54565A"/>
<path d="M879.303 104.745V105.051C879.347 104.942 879.425 104.851 879.527 104.792C879.633 104.726 879.755 104.692 879.88 104.694C879.988 104.69 880.096 104.705 880.198 104.741C880.276 104.77 880.345 104.816 880.401 104.877C880.453 104.94 880.49 105.014 880.508 105.094C880.532 105.187 880.543 105.282 880.543 105.378V106.522H880.319V105.412C880.326 105.342 880.326 105.271 880.319 105.2C880.305 105.139 880.28 105.082 880.246 105.03C880.207 104.982 880.159 104.943 880.104 104.915C880.032 104.887 879.956 104.874 879.88 104.877C879.798 104.874 879.717 104.89 879.643 104.924C879.577 104.953 879.519 104.997 879.471 105.051C879.421 105.106 879.382 105.172 879.359 105.242C879.331 105.32 879.317 105.402 879.316 105.485V106.522H879.067V104.745H879.303Z" fill="#54565A"/>
<path d="M881.179 104.06V105.603L882.177 104.753H882.47L881.704 105.412L882.509 106.522H882.233L881.523 105.552L881.166 105.846V106.522H880.947V104.06H881.179Z" fill="#54565A"/>
<path d="M838.906 110.042H833.67C833.349 110.042 833.089 110.299 833.089 110.616V112.342C833.089 112.659 833.349 112.916 833.67 112.916H838.906C839.227 112.916 839.487 112.659 839.487 112.342V110.616C839.487 110.299 839.227 110.042 838.906 110.042Z" fill="#00A4EF"/>
<path d="M857.078 114.064C857.076 112.731 856.538 111.454 855.584 110.511C854.63 109.569 853.336 109.04 851.987 109.039C851.232 109.04 850.486 109.21 849.806 109.536C849.784 109.4 849.715 109.276 849.609 109.187C849.503 109.097 849.369 109.047 849.229 109.047H847.482C847.406 109.047 847.33 109.061 847.259 109.09C847.189 109.118 847.124 109.161 847.07 109.214C847.016 109.267 846.973 109.331 846.944 109.401C846.915 109.471 846.901 109.546 846.901 109.621V119.238C846.901 119.39 846.963 119.536 847.072 119.644C847.18 119.752 847.328 119.812 847.482 119.812H849.225C849.379 119.811 849.526 119.75 849.634 119.643C849.743 119.535 849.805 119.39 849.806 119.238V114.064C849.793 113.773 849.839 113.483 849.943 113.21C850.047 112.938 850.205 112.689 850.409 112.478C850.612 112.268 850.857 112.1 851.128 111.986C851.399 111.872 851.691 111.813 851.985 111.813C852.28 111.813 852.572 111.872 852.843 111.986C853.113 112.1 853.358 112.268 853.562 112.478C853.765 112.689 853.924 112.938 854.028 113.21C854.131 113.483 854.178 113.773 854.165 114.064V119.251C854.165 119.403 854.226 119.549 854.335 119.657C854.444 119.764 854.592 119.825 854.746 119.825H856.493C856.569 119.825 856.645 119.811 856.716 119.782C856.786 119.754 856.851 119.711 856.905 119.658C856.959 119.605 857.002 119.541 857.031 119.471C857.06 119.401 857.074 119.326 857.074 119.251V114.064H857.078Z" fill="#FFC517"/>
<path d="M877.071 109.039C875.992 109.036 874.936 109.35 874.038 109.94C873.14 110.531 872.439 111.371 872.025 112.355C871.61 113.339 871.5 114.423 871.709 115.468C871.918 116.514 872.436 117.475 873.198 118.23C873.96 118.984 874.931 119.499 875.989 119.708C877.047 119.917 878.144 119.811 879.141 119.403C880.138 118.996 880.99 118.306 881.59 117.419C882.189 116.533 882.51 115.491 882.51 114.425C882.507 113 881.934 111.633 880.915 110.623C879.896 109.614 878.514 109.044 877.071 109.039V109.039ZM877.071 116.938C876.567 116.938 876.074 116.79 875.655 116.514C875.236 116.237 874.909 115.843 874.717 115.383C874.524 114.923 874.474 114.417 874.573 113.929C874.671 113.44 874.914 112.992 875.271 112.64C875.628 112.288 876.082 112.049 876.576 111.952C877.071 111.855 877.583 111.906 878.048 112.097C878.514 112.288 878.911 112.611 879.191 113.026C879.47 113.44 879.619 113.927 879.618 114.425C879.617 115.092 879.348 115.731 878.87 116.202C878.393 116.673 877.745 116.938 877.071 116.938V116.938Z" fill="#ED4848"/>
<path d="M844.138 109.039H842.391C842.07 109.039 841.81 109.296 841.81 109.613V119.238C841.81 119.555 842.07 119.812 842.391 119.812H844.138C844.459 119.812 844.719 119.555 844.719 119.238V109.613C844.719 109.296 844.459 109.039 844.138 109.039Z" fill="#00C08B"/>
<path d="M869.6 109.039H867.857C867.781 109.038 867.705 109.052 867.634 109.081C867.563 109.11 867.498 109.152 867.444 109.205C867.39 109.259 867.346 109.322 867.317 109.392C867.287 109.462 867.272 109.537 867.272 109.613V110.118C866.463 109.517 865.499 109.151 864.491 109.061C863.482 108.97 862.468 109.159 861.562 109.606C860.655 110.054 859.893 110.741 859.361 111.592C858.828 112.444 858.546 113.425 858.546 114.425C858.546 115.426 858.828 116.407 859.361 117.258C859.893 118.109 860.655 118.797 861.562 119.244C862.468 119.692 863.482 119.881 864.491 119.79C865.499 119.7 866.463 119.333 867.272 118.732V121.249C867.266 121.899 867.016 122.523 866.57 123.001C866.124 123.478 865.515 123.775 864.86 123.833C864.205 123.891 863.551 123.707 863.026 123.316C862.501 122.925 862.142 122.355 862.018 121.717C861.995 121.585 861.925 121.466 861.821 121.38C861.717 121.295 861.586 121.248 861.45 121.249H859.686C859.604 121.249 859.523 121.265 859.448 121.298C859.374 121.331 859.307 121.379 859.252 121.439C859.198 121.5 859.157 121.571 859.132 121.648C859.107 121.725 859.1 121.807 859.11 121.887C859.276 123.276 859.974 124.55 861.059 125.448C862.144 126.346 863.536 126.801 864.949 126.719C866.363 126.638 867.691 126.027 868.664 125.01C869.636 123.993 870.179 122.648 870.181 121.249V109.613C870.182 109.537 870.167 109.462 870.138 109.392C870.109 109.322 870.066 109.259 870.012 109.205C869.958 109.152 869.894 109.11 869.823 109.081C869.752 109.052 869.677 109.038 869.6 109.039ZM864.006 116.938C863.502 116.939 863.009 116.792 862.59 116.516C862.17 116.239 861.843 115.846 861.649 115.386C861.456 114.926 861.405 114.42 861.503 113.931C861.602 113.442 861.844 112.994 862.201 112.641C862.557 112.289 863.012 112.049 863.506 111.952C864.001 111.855 864.513 111.906 864.979 112.097C865.445 112.288 865.842 112.611 866.122 113.025C866.401 113.44 866.55 113.927 866.549 114.425C866.548 115.091 866.28 115.73 865.803 116.201C865.327 116.672 864.68 116.937 864.006 116.938V116.938Z" fill="#FF9900"/>
<path d="M837.447 104.009H829.319C829.241 104.006 829.164 104.018 829.091 104.046C829.018 104.074 828.952 104.116 828.896 104.169C828.84 104.223 828.796 104.287 828.766 104.358C828.736 104.429 828.72 104.506 828.721 104.583V119.238C828.721 119.39 828.782 119.536 828.891 119.644C829 119.751 829.148 119.812 829.302 119.812H831.049C831.203 119.811 831.35 119.75 831.459 119.642C831.567 119.535 831.629 119.39 831.63 119.238V106.883H840.339C840.339 106.123 840.035 105.395 839.493 104.856C838.951 104.318 838.216 104.013 837.447 104.009V104.009Z" fill="#00A4EF"/>
<path d="M825.809 119.757C826.612 119.757 827.263 119.114 827.263 118.32C827.263 117.526 826.612 116.883 825.809 116.883C825.006 116.883 824.355 117.526 824.355 118.32C824.355 119.114 825.006 119.757 825.809 119.757Z" fill="#00C08B"/>
<path d="M843.782 104.362C843.731 104.274 843.658 104.202 843.569 104.151C843.481 104.101 843.381 104.074 843.279 104.074C843.176 104.074 843.076 104.101 842.988 104.151C842.899 104.202 842.826 104.274 842.775 104.362L841.841 105.952C841.794 106.039 841.77 106.137 841.773 106.236C841.775 106.335 841.803 106.432 841.854 106.518C841.905 106.603 841.977 106.674 842.064 106.724C842.151 106.774 842.249 106.801 842.349 106.802H844.212C844.313 106.801 844.411 106.774 844.498 106.725C844.585 106.675 844.657 106.604 844.708 106.518C844.759 106.432 844.786 106.335 844.787 106.236C844.789 106.137 844.764 106.039 844.716 105.952L843.782 104.362Z" fill="#00C08B"/>
<path d="M816.385 106.87C815.245 106.862 814.123 107.148 813.13 107.699C812.136 108.251 811.305 109.049 810.719 110.015C810.134 110.981 809.813 112.081 809.789 113.207C809.766 114.333 810.04 115.445 810.585 116.435C811.13 117.424 811.926 118.255 812.896 118.847C813.866 119.438 814.975 119.77 816.114 119.808C817.253 119.847 818.382 119.591 819.39 119.066C820.399 118.541 821.251 117.765 821.863 116.815C821.924 116.728 821.959 116.627 821.965 116.521C821.972 116.416 821.948 116.311 821.898 116.217C821.848 116.124 821.773 116.047 821.681 115.993C821.588 115.939 821.483 115.912 821.376 115.914H819.087C818.946 115.915 818.81 115.966 818.704 116.058C818.253 116.442 817.714 116.711 817.133 116.841C816.552 116.971 815.948 116.958 815.373 116.803C814.799 116.648 814.271 116.356 813.838 115.952C813.404 115.549 813.078 115.047 812.887 114.489H822.267C822.412 114.489 822.552 114.435 822.66 114.338C822.767 114.242 822.834 114.109 822.848 113.966C822.871 113.726 822.881 113.485 822.878 113.244C822.847 111.556 822.151 109.946 820.939 108.756C819.727 107.566 818.093 106.89 816.385 106.87V106.87ZM812.887 112.189C813.133 111.481 813.597 110.866 814.215 110.431C814.832 109.996 815.571 109.762 816.329 109.762C817.087 109.762 817.826 109.996 818.443 110.431C819.061 110.866 819.525 111.481 819.771 112.189H812.887Z" fill="#00C08B"/>
<path d="M83.6464 144.646C83.4512 144.842 83.4512 145.158 83.6464 145.354L86.8284 148.536C87.0237 148.731 87.3403 148.731 87.5355 148.536C87.7308 148.34 87.7308 148.024 87.5355 147.828L84.7071 145L87.5355 142.172C87.7308 141.976 87.7308 141.66 87.5355 141.464C87.3403 141.269 87.0237 141.269 86.8284 141.464L83.6464 144.646ZM240.354 145.354C240.549 145.158 240.549 144.842 240.354 144.646L237.172 141.464C236.976 141.269 236.66 141.269 236.464 141.464C236.269 141.66 236.269 141.976 236.464 142.172L239.293 145L236.464 147.828C236.269 148.024 236.269 148.34 236.464 148.536C236.66 148.731 236.976 148.731 237.172 148.536L240.354 145.354ZM84 145.5L240 145.5L240 144.5L84 144.5L84 145.5Z" fill="#E73525"/>
<path d="M1186.65 151.354C1186.84 151.549 1187.16 151.549 1187.35 151.354L1190.54 148.172C1190.73 147.976 1190.73 147.66 1190.54 147.464C1190.34 147.269 1190.02 147.269 1189.83 147.464L1187 150.293L1184.17 147.464C1183.98 147.269 1183.66 147.269 1183.46 147.464C1183.27 147.66 1183.27 147.976 1183.46 148.172L1186.65 151.354ZM1187.35 49.6464C1187.16 49.4512 1186.84 49.4512 1186.65 49.6464L1183.46 52.8284C1183.27 53.0237 1183.27 53.3403 1183.46 53.5355C1183.66 53.7308 1183.98 53.7308 1184.17 53.5355L1187 50.7071L1189.83 53.5355C1190.02 53.7308 1190.34 53.7308 1190.54 53.5355C1190.73 53.3403 1190.73 53.0237 1190.54 52.8284L1187.35 49.6464ZM1187.5 151L1187.5 50L1186.5 50L1186.5 151L1187.5 151Z" fill="#E73525"/>
<path d="M543.646 144.646C543.451 144.842 543.451 145.158 543.646 145.354L546.828 148.536C547.024 148.731 547.34 148.731 547.536 148.536C547.731 148.34 547.731 148.024 547.536 147.828L544.707 145L547.536 142.172C547.731 141.976 547.731 141.66 547.536 141.464C547.34 141.269 547.024 141.269 546.828 141.464L543.646 144.646ZM570.354 145.354C570.549 145.158 570.549 144.842 570.354 144.646L567.172 141.464C566.976 141.269 566.66 141.269 566.464 141.464C566.269 141.66 566.269 141.976 566.464 142.172L569.293 145L566.464 147.828C566.269 148.024 566.269 148.34 566.464 148.536C566.66 148.731 566.976 148.731 567.172 148.536L570.354 145.354ZM544 145.5L570 145.5L570 144.5L544 144.5L544 145.5Z" fill="#E73525"/>
<path d="M1017.65 144.646C1017.45 144.842 1017.45 145.158 1017.65 145.354L1020.83 148.536C1021.02 148.731 1021.34 148.731 1021.54 148.536C1021.73 148.34 1021.73 148.024 1021.54 147.828L1018.71 145L1021.54 142.172C1021.73 141.976 1021.73 141.66 1021.54 141.464C1021.34 141.269 1021.02 141.269 1020.83 141.464L1017.65 144.646ZM1027.35 145.354C1027.55 145.158 1027.55 144.842 1027.35 144.646L1024.17 141.464C1023.98 141.269 1023.66 141.269 1023.46 141.464C1023.27 141.66 1023.27 141.976 1023.46 142.172L1026.29 145L1023.46 147.828C1023.27 148.024 1023.27 148.34 1023.46 148.536C1023.66 148.731 1023.98 148.731 1024.17 148.536L1027.35 145.354ZM1018 145.5L1027 145.5L1027 144.5L1018 144.5L1018 145.5Z" fill="#E73525"/>
<path d="M150.708 171H144.187V170.091L147.632 166.263C148.142 165.684 148.493 165.215 148.685 164.854C148.881 164.49 148.979 164.114 148.979 163.727C148.979 163.207 148.821 162.781 148.507 162.448C148.192 162.116 147.773 161.949 147.249 161.949C146.62 161.949 146.13 162.129 145.779 162.489C145.433 162.845 145.26 163.341 145.26 163.979H143.995C143.995 163.063 144.289 162.323 144.877 161.758C145.469 161.193 146.26 160.91 147.249 160.91C148.174 160.91 148.906 161.154 149.443 161.642C149.981 162.125 150.25 162.77 150.25 163.576C150.25 164.556 149.626 165.723 148.377 167.076L145.711 169.968H150.708V171ZM152.629 166.01L153.135 161.047H158.234V162.216H154.208L153.907 164.93C154.395 164.643 154.949 164.499 155.568 164.499C156.475 164.499 157.195 164.8 157.729 165.401C158.262 165.998 158.528 166.807 158.528 167.828C158.528 168.854 158.25 169.662 157.694 170.255C157.143 170.843 156.37 171.137 155.377 171.137C154.497 171.137 153.78 170.893 153.224 170.405C152.668 169.918 152.351 169.243 152.273 168.382H153.47C153.547 168.951 153.75 169.382 154.078 169.674C154.406 169.961 154.839 170.104 155.377 170.104C155.965 170.104 156.425 169.904 156.758 169.503C157.095 169.102 157.264 168.548 157.264 167.842C157.264 167.176 157.081 166.643 156.717 166.242C156.357 165.837 155.876 165.634 155.274 165.634C154.723 165.634 154.29 165.755 153.976 165.996L153.641 166.27L152.629 166.01ZM164.872 161.04V162.113H164.64C163.655 162.132 162.871 162.423 162.288 162.988C161.705 163.553 161.368 164.349 161.276 165.374C161.8 164.772 162.516 164.472 163.423 164.472C164.289 164.472 164.979 164.777 165.494 165.388C166.014 165.998 166.273 166.787 166.273 167.753C166.273 168.778 165.993 169.599 165.433 170.214C164.877 170.829 164.129 171.137 163.19 171.137C162.238 171.137 161.465 170.772 160.873 170.043C160.281 169.309 159.984 168.366 159.984 167.213V166.728C159.984 164.896 160.374 163.496 161.153 162.53C161.937 161.56 163.102 161.063 164.646 161.04H164.872ZM163.211 165.524C162.778 165.524 162.379 165.654 162.015 165.914C161.65 166.174 161.397 166.5 161.256 166.892V167.356C161.256 168.177 161.44 168.838 161.81 169.339C162.179 169.84 162.639 170.091 163.19 170.091C163.76 170.091 164.207 169.881 164.53 169.462C164.858 169.043 165.022 168.493 165.022 167.814C165.022 167.131 164.856 166.579 164.523 166.16C164.195 165.736 163.758 165.524 163.211 165.524ZM174.148 167.384C174.148 168.509 173.891 169.416 173.376 170.104C172.861 170.793 172.164 171.137 171.284 171.137C170.386 171.137 169.68 170.852 169.165 170.282V173.844H167.9V163.604H169.056L169.117 164.424C169.632 163.786 170.348 163.467 171.264 163.467C172.152 163.467 172.854 163.802 173.369 164.472C173.889 165.142 174.148 166.074 174.148 167.268V167.384ZM172.884 167.24C172.884 166.406 172.706 165.748 172.351 165.265C171.995 164.782 171.507 164.54 170.888 164.54C170.122 164.54 169.548 164.88 169.165 165.559V169.093C169.543 169.767 170.122 170.104 170.901 170.104C171.507 170.104 171.988 169.865 172.344 169.387C172.704 168.904 172.884 168.188 172.884 167.24ZM178.134 166.304L179.774 163.604H181.251L178.831 167.261L181.326 171H179.863L178.154 168.231L176.445 171H174.976L177.471 167.261L175.051 163.604H176.514L178.134 166.304Z" fill="black"/>
<path d="M546.456 167.657H547.837V168.689H546.456V171H545.185V168.689H540.652V167.944L545.109 161.047H546.456V167.657ZM542.088 167.657H545.185V162.776L545.034 163.05L542.088 167.657ZM555.22 166.755C555.22 168.236 554.967 169.337 554.461 170.057C553.955 170.777 553.164 171.137 552.089 171.137C551.027 171.137 550.241 170.786 549.73 170.084C549.22 169.378 548.956 168.325 548.938 166.926V165.237C548.938 163.774 549.19 162.688 549.696 161.977C550.202 161.266 550.995 160.91 552.075 160.91C553.146 160.91 553.935 161.254 554.44 161.942C554.946 162.626 555.206 163.683 555.22 165.114V166.755ZM553.955 165.025C553.955 163.954 553.805 163.175 553.504 162.688C553.203 162.195 552.727 161.949 552.075 161.949C551.428 161.949 550.956 162.193 550.66 162.681C550.364 163.168 550.211 163.918 550.202 164.93V166.953C550.202 168.029 550.357 168.824 550.667 169.339C550.981 169.849 551.455 170.104 552.089 170.104C552.713 170.104 553.176 169.863 553.477 169.38C553.782 168.897 553.941 168.136 553.955 167.097V165.025ZM563.218 167.384C563.218 168.509 562.96 169.416 562.445 170.104C561.93 170.793 561.233 171.137 560.354 171.137C559.456 171.137 558.749 170.852 558.234 170.282V173.844H556.97V163.604H558.125L558.187 164.424C558.701 163.786 559.417 163.467 560.333 163.467C561.222 163.467 561.924 163.802 562.438 164.472C562.958 165.142 563.218 166.074 563.218 167.268V167.384ZM561.953 167.24C561.953 166.406 561.775 165.748 561.42 165.265C561.064 164.782 560.577 164.54 559.957 164.54C559.191 164.54 558.617 164.88 558.234 165.559V169.093C558.613 169.767 559.191 170.104 559.971 170.104C560.577 170.104 561.058 169.865 561.413 169.387C561.773 168.904 561.953 168.188 561.953 167.24ZM567.203 166.304L568.844 163.604H570.32L567.9 167.261L570.396 171H568.933L567.224 168.231L565.515 171H564.045L566.54 167.261L564.12 163.604H565.583L567.203 166.304Z" fill="black"/>
<path d="M1010.27 171H1009V162.571L1006.45 163.508V162.359L1010.08 160.999H1010.27V171ZM1018.94 161.04V162.113H1018.71C1017.72 162.132 1016.94 162.423 1016.36 162.988C1015.77 163.553 1015.44 164.349 1015.35 165.374C1015.87 164.772 1016.59 164.472 1017.49 164.472C1018.36 164.472 1019.05 164.777 1019.56 165.388C1020.08 165.998 1020.34 166.787 1020.34 167.753C1020.34 168.778 1020.06 169.599 1019.5 170.214C1018.95 170.829 1018.2 171.137 1017.26 171.137C1016.31 171.137 1015.53 170.772 1014.94 170.043C1014.35 169.309 1014.05 168.366 1014.05 167.213V166.728C1014.05 164.896 1014.44 163.496 1015.22 162.53C1016.01 161.56 1017.17 161.063 1018.72 161.04H1018.94ZM1017.28 165.524C1016.85 165.524 1016.45 165.654 1016.08 165.914C1015.72 166.174 1015.47 166.5 1015.33 166.892V167.356C1015.33 168.177 1015.51 168.838 1015.88 169.339C1016.25 169.84 1016.71 170.091 1017.26 170.091C1017.83 170.091 1018.28 169.881 1018.6 169.462C1018.93 169.043 1019.09 168.493 1019.09 167.814C1019.09 167.131 1018.93 166.579 1018.59 166.16C1018.26 165.736 1017.83 165.524 1017.28 165.524ZM1028.22 167.384C1028.22 168.509 1027.96 169.416 1027.45 170.104C1026.93 170.793 1026.23 171.137 1025.35 171.137C1024.46 171.137 1023.75 170.852 1023.23 170.282V173.844H1021.97V163.604H1023.12L1023.19 164.424C1023.7 163.786 1024.42 163.467 1025.33 163.467C1026.22 163.467 1026.92 163.802 1027.44 164.472C1027.96 165.142 1028.22 166.074 1028.22 167.268V167.384ZM1026.95 167.24C1026.95 166.406 1026.78 165.748 1026.42 165.265C1026.06 164.782 1025.58 164.54 1024.96 164.54C1024.19 164.54 1023.62 164.88 1023.23 165.559V169.093C1023.61 169.767 1024.19 170.104 1024.97 170.104C1025.58 170.104 1026.06 169.865 1026.41 169.387C1026.77 168.904 1026.95 168.188 1026.95 167.24ZM1032.2 166.304L1033.84 163.604H1035.32L1032.9 167.261L1035.4 171H1033.93L1032.22 168.231L1030.51 171H1029.04L1031.54 167.261L1029.12 163.604H1030.58L1032.2 166.304Z" fill="black"/>
<path d="M1199.34 110H1198.07V101.571L1195.52 102.508V101.359L1199.14 99.999H1199.34V110ZM1208.01 100.04V101.113H1207.78C1206.79 101.132 1206.01 101.423 1205.43 101.988C1204.84 102.553 1204.51 103.349 1204.42 104.374C1204.94 103.772 1205.65 103.472 1206.56 103.472C1207.43 103.472 1208.12 103.777 1208.63 104.388C1209.15 104.998 1209.41 105.787 1209.41 106.753C1209.41 107.778 1209.13 108.599 1208.57 109.214C1208.02 109.829 1207.27 110.137 1206.33 110.137C1205.38 110.137 1204.6 109.772 1204.01 109.043C1203.42 108.309 1203.12 107.366 1203.12 106.213V105.728C1203.12 103.896 1203.51 102.496 1204.29 101.53C1205.08 100.56 1206.24 100.063 1207.79 100.04H1208.01ZM1206.35 104.524C1205.92 104.524 1205.52 104.654 1205.15 104.914C1204.79 105.174 1204.54 105.5 1204.39 105.892V106.356C1204.39 107.177 1204.58 107.838 1204.95 108.339C1205.32 108.84 1205.78 109.091 1206.33 109.091C1206.9 109.091 1207.35 108.881 1207.67 108.462C1208 108.043 1208.16 107.493 1208.16 106.814C1208.16 106.131 1207.99 105.579 1207.66 105.16C1207.33 104.736 1206.9 104.524 1206.35 104.524ZM1216.95 102.645C1216.95 103.141 1216.81 103.583 1216.55 103.971C1216.29 104.358 1215.94 104.661 1215.49 104.88C1216.01 105.103 1216.42 105.429 1216.72 105.857C1217.03 106.286 1217.18 106.771 1217.18 107.313C1217.18 108.175 1216.89 108.861 1216.3 109.371C1215.72 109.882 1214.96 110.137 1214.01 110.137C1213.06 110.137 1212.29 109.882 1211.71 109.371C1211.13 108.856 1210.85 108.17 1210.85 107.313C1210.85 106.776 1210.99 106.29 1211.29 105.857C1211.58 105.424 1211.99 105.096 1212.51 104.873C1212.07 104.654 1211.72 104.351 1211.46 103.964C1211.21 103.576 1211.08 103.137 1211.08 102.645C1211.08 101.806 1211.35 101.141 1211.89 100.648C1212.42 100.156 1213.13 99.9102 1214.01 99.9102C1214.89 99.9102 1215.59 100.156 1216.13 100.648C1216.67 101.141 1216.95 101.806 1216.95 102.645ZM1215.91 107.286C1215.91 106.73 1215.74 106.277 1215.38 105.926C1215.03 105.575 1214.57 105.399 1214 105.399C1213.43 105.399 1212.97 105.573 1212.62 105.919C1212.28 106.265 1212.11 106.721 1212.11 107.286C1212.11 107.851 1212.28 108.296 1212.61 108.619C1212.95 108.943 1213.42 109.104 1214.01 109.104C1214.61 109.104 1215.07 108.943 1215.41 108.619C1215.74 108.291 1215.91 107.847 1215.91 107.286ZM1214.01 100.949C1213.52 100.949 1213.11 101.104 1212.8 101.414C1212.5 101.719 1212.34 102.136 1212.34 102.665C1212.34 103.171 1212.5 103.581 1212.8 103.896C1213.1 104.205 1213.51 104.36 1214.01 104.36C1214.52 104.36 1214.92 104.205 1215.22 103.896C1215.53 103.581 1215.68 103.171 1215.68 102.665C1215.68 102.159 1215.52 101.747 1215.21 101.428C1214.89 101.109 1214.5 100.949 1214.01 100.949ZM1225.15 106.384C1225.15 107.509 1224.89 108.416 1224.38 109.104C1223.86 109.793 1223.16 110.137 1222.28 110.137C1221.39 110.137 1220.68 109.852 1220.17 109.282V112.844H1218.9V102.604H1220.06L1220.12 103.424C1220.63 102.786 1221.35 102.467 1222.26 102.467C1223.15 102.467 1223.85 102.802 1224.37 103.472C1224.89 104.142 1225.15 105.074 1225.15 106.268V106.384ZM1223.88 106.24C1223.88 105.406 1223.71 104.748 1223.35 104.265C1223 103.782 1222.51 103.54 1221.89 103.54C1221.12 103.54 1220.55 103.88 1220.17 104.559V108.093C1220.54 108.767 1221.12 109.104 1221.9 109.104C1222.51 109.104 1222.99 108.865 1223.34 108.387C1223.7 107.904 1223.88 107.188 1223.88 106.24ZM1229.13 105.304L1230.77 102.604H1232.25L1229.83 106.261L1232.33 110H1230.86L1229.15 107.231L1227.45 110H1225.98L1228.47 106.261L1226.05 102.604H1227.51L1229.13 105.304Z" fill="black"/>
</svg>
