<svg width="1250" height="200" viewBox="0 0 1250 200" fill="none" xmlns="http://www.w3.org/2000/svg">
<rect width="1250" height="200" fill="white"/>
<rect x="17" y="26" width="1181" height="112" fill="#F5F5F5"/>
<rect x="35" y="45" width="1145" height="70" fill="white"/>
<path d="M751.094 80.399V83.493H744.867V80.399H751.094ZM743.892 84.988H744.867V84.416H751.094V84.962H752.121V79.489H743.892V84.988ZM749.586 75.16C750.145 75.628 750.73 76.174 751.276 76.733C749.261 76.824 747.22 76.915 745.439 76.98C746.167 75.927 746.947 74.601 747.545 73.444L746.479 73.08C745.972 74.276 745.088 75.875 744.321 77.032C743.606 77.058 742.943 77.084 742.371 77.097L742.436 78.059C744.815 77.955 748.559 77.825 752.095 77.63C752.472 78.085 752.797 78.514 753.018 78.878L753.85 78.241C753.187 77.175 751.653 75.654 750.34 74.614L749.586 75.16ZM760.35 73.366C760.142 73.821 759.752 74.51 759.44 74.952L760.038 75.212C760.376 74.809 760.779 74.224 761.156 73.678L760.35 73.366ZM757.334 74.848C757.178 74.445 756.801 73.847 756.424 73.405L755.748 73.717C756.099 74.159 756.463 74.796 756.619 75.212L757.334 74.848ZM765.628 80.425H761.429V79.632H760.493V80.425H756.541V84.351H757.49V81.27H760.493V84.988H761.429V81.27H764.679V83.298C764.679 83.467 764.614 83.519 764.406 83.532C764.198 83.532 763.431 83.532 762.599 83.519C762.729 83.74 762.885 84.078 762.937 84.312C764.016 84.312 764.692 84.312 765.108 84.182C765.511 84.052 765.628 83.792 765.628 83.311V80.425ZM757.1 76.395C757.009 77.123 756.866 77.825 756.554 78.371C756.71 78.423 756.957 78.553 757.061 78.631C757.373 78.098 757.555 77.279 757.659 76.499L757.1 76.395ZM761.065 75.277H758.803V73.132H757.958V75.277H755.709V79.762H756.45V75.927H758.062V79.619H758.725V75.927H760.324V78.826C760.324 78.93 760.298 78.969 760.181 78.969H759.31C759.401 79.138 759.518 79.424 759.544 79.619C760.116 79.619 760.506 79.619 760.74 79.489C761.013 79.385 761.065 79.177 761.065 78.826V75.277ZM765.16 75.225C764.913 75.966 764.549 76.59 764.081 77.123C763.6 76.564 763.223 75.914 762.963 75.225H765.16ZM766.85 75.225V74.458H763.301C763.483 74.094 763.639 73.704 763.756 73.301L762.924 73.132C762.586 74.302 761.923 75.355 761.065 76.057C761.26 76.2 761.572 76.512 761.689 76.655C761.949 76.434 762.196 76.161 762.43 75.875C762.716 76.525 763.08 77.123 763.522 77.643C762.898 78.15 762.144 78.54 761.286 78.826C761.442 78.995 761.689 79.372 761.78 79.567C762.651 79.229 763.431 78.8 764.081 78.267C764.744 78.904 765.524 79.411 766.408 79.749C766.525 79.528 766.772 79.203 766.954 79.06C766.083 78.774 765.303 78.319 764.653 77.721C765.29 77.045 765.758 76.226 766.07 75.225H766.85ZM760.077 78.124C760.025 77.669 759.83 76.941 759.596 76.408L759.102 76.538C759.323 77.097 759.505 77.825 759.544 78.28L760.077 78.124ZM779.655 75.745V74.809H773.038C773.22 74.341 773.389 73.86 773.532 73.379L772.518 73.119C772.362 73.678 772.18 74.25 771.959 74.809H768.358V75.745H771.556C770.724 77.526 769.528 79.19 767.955 80.308C768.124 80.516 768.371 80.945 768.475 81.192C769.021 80.802 769.528 80.36 769.983 79.866V84.962H770.945V78.722C771.621 77.799 772.193 76.798 772.648 75.745H779.655ZM779.902 80.529H776.457V79.866C777.38 79.268 778.394 78.41 779.083 77.617L778.459 77.136L778.264 77.201H772.973V78.072H777.419C776.964 78.527 776.405 78.995 775.872 79.333H775.495V80.529H771.868V81.439H775.495V83.844C775.495 84.026 775.443 84.078 775.209 84.091C774.975 84.091 774.221 84.104 773.35 84.078C773.48 84.338 773.61 84.715 773.662 84.988C774.767 84.988 775.482 84.975 775.911 84.845C776.34 84.689 776.457 84.416 776.457 83.857V81.439H779.902V80.529ZM792.876 83.48H782.697V74.601H792.538V73.73H781.748V85.001H782.697V84.364H792.876V83.48ZM788.963 78.15H787.299V77.149H788.963V78.15ZM788.963 79.905H787.299V78.839H788.963V79.905ZM788.963 81.712H787.299V80.594H788.963V81.712ZM787.299 82.934V82.453H792.317V81.712H789.821V80.594H791.862V79.905H789.821V78.839H791.862V78.15H789.821V77.149H792.161V76.395H789.899C790.081 76.018 790.276 75.576 790.471 75.16L789.574 74.926C789.457 75.355 789.236 75.927 789.015 76.395H787.468C787.689 75.953 787.897 75.498 788.066 75.043L787.26 74.822C786.753 76.226 785.921 77.591 784.972 78.475C785.154 78.631 785.44 78.982 785.57 79.125C785.869 78.826 786.168 78.475 786.441 78.098V82.934H787.299ZM782.775 77.682C783.399 77.955 784.127 78.423 784.478 78.761L785.011 78.15C784.647 77.812 783.893 77.383 783.282 77.136L782.775 77.682ZM785.635 75.992C785.297 75.641 784.582 75.212 783.997 74.939L783.464 75.472C784.062 75.771 784.764 76.226 785.089 76.577L785.635 75.992ZM784.855 79.736C784.374 80.672 783.763 81.699 783.321 82.336L783.997 82.934C784.478 82.128 785.024 81.127 785.44 80.269L784.855 79.736Z" fill="#4A4A4A"/>
<path d="M829.089 73.886C828.556 73.6 827.568 73.275 826.814 73.119L826.346 73.626C827.126 73.821 828.088 74.172 828.595 74.445L829.089 73.886ZM822.472 74.861L822.563 75.615L825.189 75.459C826.151 76.759 827.672 77.552 828.985 77.552C829.791 77.552 830.129 77.253 830.259 76.083C830.012 76.018 829.713 75.888 829.518 75.732C829.466 76.473 829.362 76.694 829.024 76.694C828.153 76.707 827.087 76.226 826.294 75.394L830.116 75.16L830.038 74.406L825.722 74.666C825.423 74.211 825.215 73.691 825.137 73.119H824.24C824.318 73.704 824.487 74.237 824.734 74.731L822.472 74.861ZM821.328 81.374H827.841V82.284H821.328V81.374ZM821.328 79.853H827.841V80.75H821.328V79.853ZM821.328 78.358H827.841V79.229H821.328V78.358ZM820.392 82.921H828.803V77.708H820.392V82.921ZM820.99 77.344H821.913V74.627C822.381 74.237 822.81 73.821 823.161 73.392L822.29 73.067C821.406 74.12 819.898 75.108 818.481 75.732C818.702 75.888 819.053 76.239 819.196 76.421C819.781 76.122 820.392 75.758 820.99 75.342V77.344ZM822.55 83.051C821.627 83.571 820.067 84.026 818.741 84.299C818.962 84.468 819.287 84.845 819.456 85.027C820.743 84.676 822.368 84.078 823.421 83.467L822.55 83.051ZM825.579 83.584C826.996 84.052 828.4 84.598 829.206 85.014L830.272 84.533C829.323 84.104 827.776 83.545 826.372 83.09L825.579 83.584ZM834.237 76.291H832.014V77.097H837.409V76.291H835.147V75.173H837.669V74.354H835.147V73.171H834.237V74.354H831.715V75.173H834.237V76.291ZM832.56 81.14C832.313 82.115 831.91 83.077 831.364 83.74C831.572 83.831 831.949 84.026 832.105 84.143C832.638 83.441 833.106 82.362 833.366 81.296L832.56 81.14ZM837.799 80.698V79.866H831.559V80.698H834.25V84C834.25 84.13 834.211 84.169 834.055 84.169C833.925 84.182 833.457 84.182 832.95 84.169C833.067 84.403 833.197 84.754 833.236 85.001C833.977 85.001 834.445 84.988 834.744 84.845C835.069 84.715 835.147 84.455 835.147 84.013V80.698H837.799ZM837.591 83.064C837.422 82.557 837.019 81.738 836.629 81.127L835.901 81.426C836.265 82.063 836.655 82.921 836.824 83.441L837.591 83.064ZM840.763 76.356H842.297C842.18 77.201 842.024 78.124 841.855 78.722L842.622 78.956C842.895 78.098 843.129 76.733 843.298 75.602L842.674 75.42L842.518 75.459H839.346C839.502 74.757 839.632 74.016 839.736 73.262L838.774 73.106C838.514 75.134 838.059 77.11 837.253 78.384V78.072H832.144V78.878H837.253V78.475C837.487 78.592 837.89 78.878 838.046 79.021C838.475 78.293 838.826 77.383 839.112 76.356H839.814V78.111C839.827 79.177 839.45 82.492 836.733 84.221C836.902 84.403 837.175 84.806 837.279 85.001C839.398 83.61 840.165 81.205 840.295 80.1C840.412 81.166 841.088 83.675 842.921 84.988C843.051 84.767 843.35 84.39 843.519 84.182C841.14 82.492 840.75 79.138 840.763 78.111V76.356Z" fill="#4A4A4A"/>
<path d="M879.955 82.453H882.672V81.66H879.955V80.568H878.993V81.66H876.341V82.453H878.993V83.818H874.638V84.637H884.44V83.818H879.955V82.453ZM877.16 78.41H881.879V79.333H877.16V78.41ZM881.879 75.186V76.057H877.16V75.186H881.879ZM877.16 76.785H881.879V77.682H877.16V76.785ZM885.363 80.152V79.333H882.854V75.186H884.804V74.38H882.854V73.132H881.879V74.38H877.16V73.132H876.211V74.38H874.235V75.186H876.211V79.333H873.637V80.152H876.445C875.704 81.075 874.586 81.894 873.507 82.323C873.728 82.505 873.988 82.83 874.131 83.064C875.392 82.479 876.705 81.361 877.524 80.152H881.593C882.373 81.296 883.634 82.375 884.895 82.895C885.038 82.674 885.311 82.336 885.532 82.154C884.44 81.764 883.335 81.01 882.607 80.152H885.363ZM889.406 77.058C890.68 76.096 891.772 75.017 892.448 74.042C893.202 75.056 894.372 76.135 895.646 77.058H889.406ZM892.942 80.503H897.401V79.658H892.942V77.916H895.724V77.11C896.439 77.63 897.18 78.098 897.895 78.462C898.051 78.176 898.285 77.851 898.519 77.604C896.504 76.707 894.255 74.965 892.877 73.106H891.915C890.901 74.731 888.769 76.642 886.533 77.773C886.741 77.968 887.014 78.306 887.118 78.527C887.859 78.137 888.587 77.669 889.263 77.175V77.916H891.941V79.658H887.586V80.503H891.941V83.714H887.001V84.572H898.025V83.714H892.942V80.503ZM888.665 81.153C889.172 81.894 889.679 82.895 889.848 83.545L890.68 83.181C890.498 82.531 889.978 81.569 889.445 80.854L888.665 81.153ZM894.736 83.545C895.23 82.934 895.841 81.998 896.322 81.179L895.412 80.828C895.087 81.556 894.489 82.583 894.021 83.22L894.736 83.545Z" fill="#4A4A4A"/>
<path d="M934.771 76.07H932.08V74.432H934.771V76.07ZM934.771 78.488H932.08V76.837H934.771V78.488ZM934.771 80.945H932.08V79.255H934.771V80.945ZM935.707 73.626H931.17V81.725H935.707V73.626ZM932.067 82.011C931.729 82.934 931.144 83.831 930.481 84.429C930.702 84.559 931.092 84.845 931.261 85.001C931.924 84.338 932.587 83.285 932.99 82.245L932.067 82.011ZM933.9 82.375C934.42 83.025 934.992 83.922 935.265 84.507L936.084 84.078C935.811 83.506 935.226 82.648 934.667 82.011L933.9 82.375ZM942.454 76.2H940.79V73.171H939.841V76.2H936.11V77.097H939.49C938.671 79.151 937.28 81.205 935.824 82.232C936.032 82.388 936.318 82.713 936.487 82.947C937.748 81.933 938.97 80.23 939.841 78.345V83.779C939.841 84 939.763 84.065 939.555 84.065C939.36 84.078 938.723 84.078 937.995 84.065C938.138 84.312 938.294 84.741 938.333 85.001C939.321 85.001 939.919 84.962 940.283 84.806C940.647 84.637 940.79 84.351 940.79 83.779V77.097H942.454V76.2ZM948.993 81.075V82.102H945.977V81.075H948.993ZM953.075 82.102H949.929V81.075H953.075V82.102ZM949.929 83.831V82.778H953.075V83.831H949.929ZM945.977 82.778H948.993V83.831H945.977V82.778ZM945.054 84.988H945.977V84.572H953.075V84.936H954.024V80.347H945.054V84.988ZM953.218 75.667H945.821V76.369H953.218V75.667ZM946.796 77.825H952.256V78.93H946.796V77.825ZM953.192 79.619V77.136H945.912V79.619H953.192ZM949.955 73.977V73.119H948.98V73.977H944.092V76.421H945.015V74.809H953.998V76.421H954.947V73.977H949.955ZM965.984 82.544V83.805H959.887V82.544H965.984ZM965.152 79.06V80.165H959.887V79.06H965.152ZM959.887 80.906H966.101V78.319H958.977V85.001H959.887V84.559H965.984V84.975H966.933V81.79H959.887V80.906ZM968.402 74.107H963.995C964.151 73.847 964.281 73.561 964.398 73.288L963.475 73.067C963.215 73.717 962.812 74.328 962.331 74.861V74.107H958.925C959.068 73.847 959.198 73.574 959.302 73.301L958.405 73.067C958.015 74.081 957.313 75.095 956.533 75.771C956.767 75.888 957.144 76.148 957.326 76.291C957.703 75.914 958.093 75.446 958.444 74.913H959.003C959.25 75.368 959.51 75.888 959.614 76.239L960.472 75.979C960.381 75.693 960.186 75.29 959.965 74.913H962.279C962.032 75.186 961.759 75.42 961.473 75.628C961.616 75.693 961.824 75.81 962.006 75.927V76.746H957.105V79.177H958.015V77.513H967.05V79.177H967.986V76.746H962.929V75.732H962.734C962.981 75.485 963.228 75.212 963.462 74.913H964.502C964.866 75.368 965.23 75.901 965.373 76.278L966.257 75.979C966.114 75.68 965.841 75.277 965.555 74.913H968.402V74.107ZM973.589 81.387L972.172 81.855V78.631H973.472V77.734H972.172V74.913H973.667V74.003H969.637V74.913H971.249V77.734H969.78V78.631H971.249V82.141C970.586 82.362 969.988 82.544 969.507 82.687L969.728 83.662C970.885 83.285 972.367 82.778 973.758 82.31L973.589 81.387ZM975.188 77.006H977.164V78.657H975.188V77.006ZM975.188 74.562H977.164V76.2H975.188V74.562ZM979.985 76.2H977.996V74.562H979.985V76.2ZM979.985 78.657H977.996V77.006H979.985V78.657ZM978.074 83.688V81.907H981.103V81.023H978.074V79.502H980.908V73.717H974.304V79.502H977.099V81.023H974.148V81.907H977.099V83.688H973.147V84.572H981.519V83.688H978.074Z" fill="#4A4A4A"/>
<path d="M225.916 71.9782C224.226 74.2074 222.184 76.1511 219.869 77.7341L218.286 74.4887C220.101 73.262 221.708 71.7566 223.047 70.0289C223.993 70.6719 224.939 71.3352 225.916 71.9782Z" fill="#009D95"/>
<path d="M239.463 70.5997H227.051V73.9165H239.463V70.5997Z" fill="#009D95"/>
<path d="M240.372 77.4685V80.6832H237.071L236.999 89.8682C236.919 90.2336 236.756 90.5761 236.522 90.8697C236.289 91.1632 235.991 91.4001 235.651 91.5623C234.129 92.195 232.206 91.9603 230.51 91.9603L229.193 88.6129L233.245 88.5415C233.416 88.4475 233.548 88.2953 233.615 88.1128V80.7445L225.913 80.6526C225.913 79.8464 225.913 79.0095 225.841 78.2748C225.508 78.8562 225.137 79.4153 224.73 79.9485V92.1338H221.347C221.347 89.4906 221.347 86.8065 221.347 84.1633C220.771 84.6021 220.236 85.1328 219.701 85.6023L218.179 81.9895C220.364 80.2689 222.188 78.14 223.547 75.7234L225.913 77.4379L240.372 77.4685Z" fill="#009D95"/>
<path d="M209.631 87.7662C209.364 87.8376 209.497 87.5315 209.261 87.5315C209.189 87.2967 208.963 87.2355 208.798 87.062C208.633 86.8885 208.448 86.8375 208.489 86.5007C208.582 86.5007 208.489 86.1639 208.726 86.2966V86.1946C208.994 86.0458 209.252 85.8787 209.497 85.6945C209.569 85.5924 209.734 85.5924 209.775 85.4598C209.816 85.3271 209.867 85.4598 209.939 85.4598V85.3883C209.939 85.3169 210.073 85.3883 210.104 85.3883V85.2965C210.104 85.225 210.207 85.2965 210.238 85.2965V85.225C210.238 85.1536 210.371 85.225 210.413 85.225V85.123C210.474 85.0515 210.546 85.123 210.608 85.123V85.0209C210.608 85.0209 210.68 85.0209 210.711 85.0209V84.9597C210.711 84.8883 210.814 84.9597 210.855 84.9597V84.4188C210.577 84.3576 210.711 83.9494 210.413 83.8881C210.31 83.8881 210.413 83.684 210.279 83.7554C210.135 83.6228 210.176 83.4187 210.001 83.3472C209.826 83.2758 209.898 83.0819 209.806 83.0207C209.713 82.9594 209.672 82.6839 209.497 82.6431C209.418 82.3595 209.239 82.1134 208.993 81.9491C208.932 82.0103 208.891 82.1124 208.757 82.0818C208.623 82.0511 208.757 82.1736 208.757 82.1736C208.345 82.3471 208.078 82.8165 207.636 82.9798C207.502 83.1839 207.266 83.2452 207.07 83.3881C206.875 83.5309 206.793 83.2146 206.69 83.1125C206.628 82.6839 206.258 82.092 206.69 81.7756H210.063V70.3863H199.368L199.306 73.8051C197.811 72.8705 196.599 71.5516 195.799 69.9883H192.786C191.743 71.8908 190.323 73.5641 188.611 74.9073C188.981 76.0809 189.382 77.3158 189.855 78.4894L190.729 77.9587C190.904 78.122 190.801 78.4588 190.832 78.6935H192.55C192.55 78.9691 192.55 79.265 192.55 79.5304H189.176V82.4798L192.58 82.5512V87.9397L191.974 88.205L189.104 88.4398L189.279 91.7871C192.179 91.3891 195.049 90.8482 197.846 90.2461C198.391 90.4808 198.082 91.2667 198.185 91.7157C198.491 91.8231 198.825 91.8231 199.131 91.7157C199.635 91.7871 199.769 91.4198 200.273 91.5524C200.417 91.2871 200.91 91.5524 201.085 91.3585C201.71 91.2741 202.328 91.148 202.936 90.9809C203.329 90.936 203.715 90.847 204.088 90.7156C204.458 90.6135 205.003 90.7156 205.271 90.4196V88.2765L205.435 88.1744C205.532 88.2199 205.614 88.2904 205.674 88.3784C205.734 88.4663 205.768 88.5686 205.775 88.6745C205.98 88.7459 206.011 89.0113 206.217 89.1133C206.422 89.2154 206.217 89.348 206.35 89.2766C206.35 89.6134 206.751 89.5113 206.751 89.8481C207.06 89.9093 207.06 90.2869 207.327 90.3482C207.43 90.6135 207.667 90.685 207.831 90.8482C207.996 91.0115 208.212 91.0524 208.212 91.3177C208.458 91.4383 208.684 91.5968 208.88 91.7871C209.117 91.7871 209.014 91.8586 209.25 91.7871C209.408 91.5647 209.545 91.329 209.662 91.083C209.796 90.9809 209.857 90.787 209.991 90.7156C210.125 90.6441 210.166 90.5115 210.166 90.3482C210.33 90.3482 210.33 90.1441 210.402 90.0522C210.583 89.8192 210.742 89.5698 210.875 89.3072C211.009 89.3072 211.009 89.1439 211.112 89.0113V88.8072C210.608 88.5407 210.149 88.1962 209.754 87.7866L209.631 87.7662ZM194.329 73.9276C194.92 74.4082 195.412 74.9972 195.779 75.6625H193.146C193.485 75.036 193.881 74.4415 194.329 73.8868V73.9276ZM199.357 88.3173H198.617C198.617 87.8785 198.617 87.4498 198.617 87.0416C198.483 87.0416 198.452 86.9089 198.422 86.8477C198.751 85.7353 198.884 84.6025 199.121 83.5003C198.318 83.2387 197.496 83.0374 196.663 82.8982L195.953 86.3068L196.025 86.4803L197.907 86.9089C197.2 87.1489 196.463 87.2965 195.717 87.3478V82.5818H198.854V79.5202L195.768 79.459V78.714C196.468 78.6527 197.218 78.714 197.959 78.714C198.014 78.2945 198.038 77.8715 198.031 77.4485C198.195 77.275 198.36 77.5811 198.535 77.5811C198.895 77.1117 199.069 76.4994 199.378 76.0401L199.357 88.3173ZM202.803 73.8153L202.967 73.6827H206.608C206.772 73.948 206.68 74.3868 206.71 74.7542L206.608 74.8257H202.967C202.628 74.693 202.864 74.1521 202.803 73.8051V73.8153ZM202.628 87.7356V81.9797C202.833 81.8062 203.543 81.6735 203.471 82.2042C203.706 83.9241 204.17 85.6055 204.849 87.2049C204.133 87.4778 203.388 87.6661 202.628 87.7662V87.7356ZM202.895 78.8568C202.781 78.4982 202.781 78.1133 202.895 77.7546H206.608C206.844 77.9894 206.71 78.4588 206.741 78.7752C205.471 78.8622 204.198 78.8827 202.926 78.8364" fill="#009D95"/>
<path d="M189.801 87.8377C190.346 87.7356 190.881 87.6029 191.415 87.5009C191.621 87.3988 191.961 87.4294 192.033 87.2355C192.033 85.8578 191.724 84.5515 191.662 83.2758C191.323 83.0513 190.912 83.2758 190.541 83.2758C190.171 83.2758 189.626 83.5105 189.163 83.6126L189.39 87.7968L189.503 87.8581C189.626 87.8581 189.77 87.9295 189.801 87.7968" fill="#009D95"/>
<path d="M115.355 74.0788C116.529 77.0887 116.756 80.381 116.007 83.5218C115.258 86.6626 113.568 89.5045 111.159 91.673C109.001 93.5818 106.376 94.8948 103.546 95.4804C100.716 96.0661 97.7807 95.9039 95.0338 95.0102C92.0501 94.0416 89.4191 92.224 87.4681 89.7834C85.517 87.3429 84.3319 84.387 84.0601 81.2833C83.7884 78.1797 84.4419 75.0652 85.9396 72.3272C87.4372 69.5893 89.7128 67.3486 92.4834 65.8838C95.1792 64.4852 98.2091 63.8447 101.245 64.0318C104.281 64.2189 107.208 65.2263 109.709 66.9452C112.248 68.7409 114.218 71.2195 115.385 74.089" fill="#009D95"/>
<path d="M99.426 71.4162C100.002 71.2529 100.732 70.8141 101.308 71.2529C101.709 71.855 102.82 72.0489 102.511 72.8858C103.078 73.6411 103.734 74.3264 104.465 74.9269C104.63 74.9269 104.691 74.8554 104.763 74.7534L104.568 74.6513C104.794 74.4472 105.37 74.784 105.74 74.5799C105.878 74.5734 106.015 74.5964 106.143 74.6475C106.271 74.6986 106.386 74.7765 106.481 74.8758C106.595 75.1818 106.74 75.4758 106.913 75.7535L107.046 75.6821C107.174 75.9691 107.318 76.2485 107.478 76.5189C108.692 76.9169 109.268 78.3457 110.337 78.9478C111.626 79.972 113.052 80.8135 114.574 81.4481C114.502 81.642 114.739 81.642 114.841 81.7135C114.637 81.5928 114.398 81.5459 114.163 81.5808C114.368 81.8768 114.872 81.7441 114.975 82.0809H114.44C114.44 82.1829 114.574 82.1829 114.636 82.2136C114.368 82.1115 114.101 82.3156 113.926 81.9788C112.856 81.4812 111.825 80.9047 110.841 80.2541V80.2541C111.677 80.9462 112.591 81.5388 113.566 82.0197C113.864 82.1829 114.296 82.285 114.471 82.581C114.368 82.581 114.194 82.581 114.163 82.7544L113.926 82.6218C113.864 82.6218 113.926 82.7136 113.926 82.7544L114.091 82.8871C112.851 82.3663 111.688 81.6796 110.635 80.846C110.131 80.5092 109.607 80.2439 109.124 79.8255C109.062 79.8255 108.959 79.8255 108.918 79.8969C109.494 80.3255 110.101 80.5909 110.666 80.9889C109.499 80.458 108.45 79.7017 107.581 78.7641C107.221 78.3967 106.676 77.6313 106.038 77.7436C105.812 77.8864 105.442 77.8456 105.175 77.9783C104.907 78.111 104.794 77.7436 104.599 77.9171C104.434 78.2845 103.899 77.9783 103.797 78.3865C103.457 78.5192 102.851 78.3865 102.768 78.8151V78.9784C102.09 79.2846 101.185 79.1825 100.711 79.8153C100.567 79.9479 100.3 79.8153 100.166 79.9479C100.166 79.8867 100.166 79.8153 100.074 79.8153C99.9813 79.8153 99.7962 79.9173 99.6625 79.9479C99.5597 79.7847 99.7962 79.7438 99.7654 79.652C99.4671 79.5193 99.3334 79.9173 99.0969 80.05C99.0969 79.7847 99.4363 79.7438 99.5288 79.5193C99.3643 79.4173 99.2306 79.5805 99.0969 79.6112C99.1586 79.6112 99.3026 79.356 99.0969 79.356C99.2615 79.0805 99.6317 79.1825 99.7345 78.8866H99.426L100.228 78.2538C100.125 78.2538 99.9299 77.9783 99.7551 78.2538C99.7551 78.2538 99.8271 78.1926 99.7551 78.162C99.6831 78.1314 99.4466 78.2538 99.282 78.2538C99.282 78.2538 99.282 78.162 99.2203 78.1212H99.1175C99.2203 78.0599 99.354 77.8864 99.4774 77.7844L99.426 77.8456C99.9299 77.5497 100.454 77.2129 100.938 76.9782L101.041 76.8761C101.007 76.8372 100.965 76.8061 100.918 76.7847C100.871 76.7633 100.82 76.7522 100.768 76.7522C100.716 76.7522 100.665 76.7633 100.618 76.7847C100.571 76.8061 100.529 76.8372 100.496 76.8761C100.938 76.8761 100.496 76.376 100.969 76.3148C101.02 76.1444 101.106 75.9861 101.221 75.8493C101.336 75.7126 101.477 75.6002 101.637 75.5188C101.205 75.1106 101.041 74.3758 100.537 74.1512C100.537 73.8451 100.197 74.1512 100.166 73.8451C99.5597 73.8451 98.8501 74.1104 98.449 73.5797C98.1098 73.5104 97.7599 73.5104 97.4207 73.5797C97.2 73.8259 97.0195 74.1048 96.8859 74.4064C96.6652 74.6545 96.4816 74.9329 96.3409 75.233C96.0499 75.6834 95.6313 76.0385 95.1376 76.2536V76.2536C94.7674 76.7536 93.9653 76.5597 93.4922 77.0904V76.9577C93.4571 76.947 93.4202 76.9435 93.3836 76.9476C93.3471 76.9517 93.3118 76.9631 93.28 76.9813C93.2481 76.9995 93.2204 77.024 93.1986 77.0533C93.1767 77.0827 93.1611 77.1161 93.1529 77.1516V77.2231C92.9163 77.1516 92.7518 77.417 92.649 77.5497C92.0731 78.1518 91.1372 78.1518 90.5305 78.6518C90.4688 78.6518 90.5305 78.6518 90.5305 78.6518C89.4198 78.8866 88.8851 79.6724 88.1447 80.5194C87.9117 80.8169 87.6423 81.0843 87.3425 81.3155C87.4145 81.5808 87.0031 81.6829 86.8695 81.8155C87.0031 81.5808 87.3117 81.3869 87.3425 81.1216C87.0751 81.2542 87.0031 81.5502 86.7049 81.6829C86.5404 81.5502 86.8695 81.4481 86.7666 81.3155L86.3656 81.6216L86.7358 81.1216C86.5404 81.1216 86.3347 81.489 86.0982 81.5196C86.0365 81.6216 85.9336 81.6216 85.7999 81.6216C86.0021 81.4596 86.1912 81.2821 86.3656 81.091C86.129 80.9583 85.8616 81.2542 85.6971 81.2236C85.5326 81.193 85.6971 81.0195 85.5017 81.091C85.6747 80.99 85.8141 80.841 85.9028 80.6623C85.7691 80.6623 85.5943 80.7236 85.4606 80.795C85.4606 80.6215 85.8308 80.5194 85.728 80.2541C85.296 80.1929 85.3577 80.6215 84.9978 80.7236C85.3577 80.2235 85.9028 79.9275 86.2627 79.3968C86.9862 78.6954 87.8154 78.1101 88.7205 77.6619C89.4198 77.2639 90.3557 77.07 90.8699 76.3964C91.071 76.1578 91.25 75.9016 91.4046 75.631C91.5075 75.631 91.5383 75.5698 91.5692 75.4984C92.0611 75.1851 92.6303 75.0122 93.2146 74.9983C93.4819 74.733 93.9859 74.8962 94.243 74.5288C94.9423 73.7022 95.2199 72.6714 95.8164 71.8346C96.0221 71.5693 96.2586 71.1304 96.6596 71.0386C97.5911 71.0838 98.5168 71.2101 99.426 71.4162" fill="white"/>
<path d="M106.92 75.3779L106.789 74.9485L106.92 75.3165V75.3779Z" fill="white"/>
<path d="M107.161 76.0523C107.026 76.0523 107.057 75.9183 106.995 75.8153C107.077 75.8725 107.136 75.9564 107.161 76.0523Z" fill="white"/>
<path d="M91.1339 76.2549C91.0412 76.0607 91.3091 75.9994 91.4121 75.8256C91.374 75.997 91.2753 76.1493 91.1339 76.2549" fill="#00A28D"/>
<path d="M94.3677 76.348V76.3151H94.4704L94.3677 76.348Z" fill="#00A28D"/>
<path d="M93.6569 76.5506C93.5946 76.6124 93.5635 76.7154 93.4596 76.6845C93.3558 76.6536 93.5946 76.4785 93.6569 76.5506Z" fill="#00A28D"/>
<path d="M100.107 77.1116C99.9424 77.2443 99.6031 77.3464 99.5722 77.5505C99.274 77.5505 99.0683 77.8158 98.8318 77.8158C98.8318 77.5505 99.274 77.7138 99.3048 77.4484L99.5722 77.2443V77.3464C99.6751 77.2443 100.014 77.3464 99.9116 77.0504L100.107 77.1116Z" fill="white"/>
<path d="M99.0383 77.2749C99 77.3438 98.9468 77.4034 98.8825 77.4495C98.8182 77.4956 98.7445 77.527 98.6665 77.5414C98.7285 77.3774 98.8627 77.3774 99.0383 77.2749Z" fill="white"/>
<path d="M92.1086 77.7133C92.1793 77.8153 92.0481 77.7133 92.0078 77.7847C91.9674 77.8562 92.0784 77.7133 92.1086 77.7133Z" fill="#00A28D"/>
<path d="M99.7749 77.8767H99.6736V77.9792H99.7749V77.8767Z" fill="white"/>
<path d="M99.5367 78.112C99.5367 78.1842 99.4641 78.1842 99.4329 78.246H99.3291C99.3291 78.1429 99.4018 78.112 99.4641 78.0811C99.5264 78.0502 99.4641 78.0811 99.5367 78.0811" fill="white"/>
<path d="M100.179 78.7441C100.179 78.8778 99.9714 78.8778 99.9092 78.9087C99.847 78.9395 99.9092 78.847 99.9092 78.7749C99.9092 78.7029 100.044 78.7132 100.148 78.7749" fill="white"/>
<path d="M100.241 78.9482C100.241 79.0811 99.973 79.0811 99.8391 79.1833C99.8391 79.0504 100.004 78.9789 100.107 78.9175C100.21 78.8562 100.241 78.9175 100.241 78.9175" fill="#00A28D"/>
<path d="M108.302 79.3155C108.436 79.3768 108.508 79.5401 108.611 79.6421L108.508 79.7442C108.291 79.5218 108.117 79.2625 107.994 78.9788C108.096 79.0808 108.168 79.2441 108.302 79.3155Z" fill="#00A28D"/>
<path d="M113.137 81.0512C113.033 81.1127 112.899 80.9795 112.806 80.9487L113.137 81.0512Z" fill="white"/>
<path d="M114.079 81.5507C113.801 81.3773 113.442 81.3773 113.236 81.1833C113.544 81.2307 113.835 81.3574 114.079 81.5507" fill="white"/>
<path d="M111.124 81.5103L110.712 81.2139L110.98 81.3468L111.124 81.5103Z" fill="white"/>
<path d="M113.979 82.5101L114.009 82.4489L114.11 82.5101H113.979Z" fill="white"/>
<path d="M113.816 82.6834H113.685V82.6119C113.685 82.6119 113.776 82.6119 113.816 82.6834Z" fill="white"/>
<path d="M172.211 86.8573H177.106V72.7228H180.613V91.5518H177.106V90.2864L163.624 90.2455L163.594 91.46H159.984V72.5595H163.594V86.8573L168.561 86.8267V69.4774H172.211V86.8573Z" fill="#009D95"/>
<path d="M150.391 73.3863L142.421 73.4067L142.359 73.4679V78.2849L149.856 78.3564V81.765H142.329L142.287 87.8372L151.368 87.8678V91.3581H129.597V87.8985L138.647 87.8678V81.8058L131.212 81.765V78.3257H138.647V73.3761L130.708 73.2944V69.8756H150.391V73.3863Z" fill="#009D95"/>
<path d="M148.168 83.6836C148.328 83.9439 148.434 84.2332 148.48 84.5346C148.526 84.8359 148.511 85.1434 148.436 85.4389C148.337 85.7783 148.155 86.0886 147.908 86.3429C147.661 86.5972 147.355 86.7879 147.017 86.8983C146.599 87.022 146.154 87.0212 145.738 86.896C145.321 86.7708 144.95 86.5267 144.672 86.1941C144.489 85.9756 144.352 85.7232 144.269 85.4516C144.186 85.1799 144.159 84.8946 144.189 84.6123C144.24 84.1992 144.409 83.8093 144.677 83.4891C144.945 83.1689 145.3 82.9318 145.7 82.8059C146.152 82.665 146.637 82.6745 147.083 82.833C147.529 82.9915 147.91 83.2902 148.168 83.6836" fill="#009D95"/>
<path d="M83.6464 108.646C83.4512 108.842 83.4512 109.158 83.6464 109.354L86.8284 112.536C87.0237 112.731 87.3403 112.731 87.5355 112.536C87.7308 112.34 87.7308 112.024 87.5355 111.828L84.7071 109L87.5355 106.172C87.7308 105.976 87.7308 105.66 87.5355 105.464C87.3403 105.269 87.0237 105.269 86.8284 105.464L83.6464 108.646ZM240.354 109.354C240.549 109.158 240.549 108.842 240.354 108.646L237.172 105.464C236.976 105.269 236.66 105.269 236.464 105.464C236.269 105.66 236.269 105.976 236.464 106.172L239.293 109L236.464 111.828C236.269 112.024 236.269 112.34 236.464 112.536C236.66 112.731 236.976 112.731 237.172 112.536L240.354 109.354ZM84 109.5L240 109.5L240 108.5L84 108.5L84 109.5Z" fill="#E73525"/>
<path d="M263.646 108.646C263.451 108.842 263.451 109.158 263.646 109.354L266.828 112.536C267.024 112.731 267.34 112.731 267.536 112.536C267.731 112.34 267.731 112.024 267.536 111.828L264.707 109L267.536 106.172C267.731 105.976 267.731 105.66 267.536 105.464C267.34 105.269 267.024 105.269 266.828 105.464L263.646 108.646ZM358.354 109.354C358.549 109.158 358.549 108.842 358.354 108.646L355.172 105.464C354.976 105.269 354.66 105.269 354.464 105.464C354.269 105.66 354.269 105.976 354.464 106.172L357.293 109L354.464 111.828C354.269 112.024 354.269 112.34 354.464 112.536C354.66 112.731 354.976 112.731 355.172 112.536L358.354 109.354ZM264 109.5L358 109.5L358 108.5L264 108.5L264 109.5Z" fill="#E73525"/>
<path d="M983.646 79.6464C983.451 79.8417 983.451 80.1583 983.646 80.3536L986.828 83.5355C987.024 83.7308 987.34 83.7308 987.536 83.5355C987.731 83.3403 987.731 83.0237 987.536 82.8284L984.707 80L987.536 77.1716C987.731 76.9763 987.731 76.6597 987.536 76.4645C987.34 76.2692 987.024 76.2692 986.828 76.4645L983.646 79.6464ZM1010.35 80.3536C1010.55 80.1583 1010.55 79.8417 1010.35 79.6465L1007.17 76.4645C1006.98 76.2692 1006.66 76.2692 1006.46 76.4645C1006.27 76.6597 1006.27 76.9763 1006.46 77.1716L1009.29 80L1006.46 82.8284C1006.27 83.0237 1006.27 83.3403 1006.46 83.5355C1006.66 83.7308 1006.98 83.7308 1007.17 83.5355L1010.35 80.3536ZM984 80.5L1010 80.5L1010 79.5L984 79.5L984 80.5Z" fill="#E73525"/>
<path d="M150.708 135H144.187V134.091L147.632 130.263C148.142 129.684 148.493 129.215 148.685 128.854C148.881 128.49 148.979 128.114 148.979 127.727C148.979 127.207 148.821 126.781 148.507 126.448C148.192 126.116 147.773 125.949 147.249 125.949C146.62 125.949 146.13 126.129 145.779 126.489C145.433 126.845 145.26 127.341 145.26 127.979H143.995C143.995 127.063 144.289 126.323 144.877 125.758C145.469 125.193 146.26 124.91 147.249 124.91C148.174 124.91 148.906 125.154 149.443 125.642C149.981 126.125 150.25 126.77 150.25 127.576C150.25 128.556 149.626 129.723 148.377 131.076L145.711 133.968H150.708V135ZM152.629 130.01L153.135 125.047H158.234V126.216H154.208L153.907 128.93C154.395 128.643 154.949 128.499 155.568 128.499C156.475 128.499 157.195 128.8 157.729 129.401C158.262 129.998 158.528 130.807 158.528 131.828C158.528 132.854 158.25 133.662 157.694 134.255C157.143 134.843 156.37 135.137 155.377 135.137C154.497 135.137 153.78 134.893 153.224 134.405C152.668 133.918 152.351 133.243 152.273 132.382H153.47C153.547 132.951 153.75 133.382 154.078 133.674C154.406 133.961 154.839 134.104 155.377 134.104C155.965 134.104 156.425 133.904 156.758 133.503C157.095 133.102 157.264 132.548 157.264 131.842C157.264 131.176 157.081 130.643 156.717 130.242C156.357 129.837 155.876 129.634 155.274 129.634C154.723 129.634 154.29 129.755 153.976 129.996L153.641 130.27L152.629 130.01ZM164.872 125.04V126.113H164.64C163.655 126.132 162.871 126.423 162.288 126.988C161.705 127.553 161.368 128.349 161.276 129.374C161.8 128.772 162.516 128.472 163.423 128.472C164.289 128.472 164.979 128.777 165.494 129.388C166.014 129.998 166.273 130.787 166.273 131.753C166.273 132.778 165.993 133.599 165.433 134.214C164.877 134.829 164.129 135.137 163.19 135.137C162.238 135.137 161.465 134.772 160.873 134.043C160.281 133.309 159.984 132.366 159.984 131.213V130.728C159.984 128.896 160.374 127.496 161.153 126.53C161.937 125.56 163.102 125.063 164.646 125.04H164.872ZM163.211 129.524C162.778 129.524 162.379 129.654 162.015 129.914C161.65 130.174 161.397 130.5 161.256 130.892V131.356C161.256 132.177 161.44 132.838 161.81 133.339C162.179 133.84 162.639 134.091 163.19 134.091C163.76 134.091 164.207 133.881 164.53 133.462C164.858 133.043 165.022 132.493 165.022 131.814C165.022 131.131 164.856 130.579 164.523 130.16C164.195 129.736 163.758 129.524 163.211 129.524ZM174.148 131.384C174.148 132.509 173.891 133.416 173.376 134.104C172.861 134.793 172.164 135.137 171.284 135.137C170.386 135.137 169.68 134.852 169.165 134.282V137.844H167.9V127.604H169.056L169.117 128.424C169.632 127.786 170.348 127.467 171.264 127.467C172.152 127.467 172.854 127.802 173.369 128.472C173.889 129.142 174.148 130.074 174.148 131.268V131.384ZM172.884 131.24C172.884 130.406 172.706 129.748 172.351 129.265C171.995 128.782 171.507 128.54 170.888 128.54C170.122 128.54 169.548 128.88 169.165 129.559V133.093C169.543 133.767 170.122 134.104 170.901 134.104C171.507 134.104 171.988 133.865 172.344 133.387C172.704 132.904 172.884 132.188 172.884 131.24ZM178.134 130.304L179.774 127.604H181.251L178.831 131.261L181.326 135H179.863L178.154 132.231L176.445 135H174.976L177.471 131.261L175.051 127.604H176.514L178.134 130.304Z" fill="black"/>
<path d="M297.343 135H296.071V126.571L293.521 127.508V126.359L297.145 124.999H297.343V135ZM305.204 135H303.933V126.571L301.383 127.508V126.359L305.006 124.999H305.204V135ZM314.945 127.645C314.945 128.141 314.813 128.583 314.549 128.971C314.289 129.358 313.936 129.661 313.489 129.88C314.009 130.103 314.419 130.429 314.72 130.857C315.025 131.286 315.178 131.771 315.178 132.313C315.178 133.175 314.886 133.861 314.303 134.371C313.724 134.882 312.961 135.137 312.013 135.137C311.056 135.137 310.288 134.882 309.709 134.371C309.135 133.856 308.848 133.17 308.848 132.313C308.848 131.776 308.993 131.29 309.285 130.857C309.581 130.424 309.989 130.096 310.509 129.873C310.067 129.654 309.718 129.351 309.463 128.964C309.208 128.576 309.08 128.137 309.08 127.645C309.08 126.806 309.349 126.141 309.887 125.648C310.424 125.156 311.133 124.91 312.013 124.91C312.888 124.91 313.594 125.156 314.132 125.648C314.674 126.141 314.945 126.806 314.945 127.645ZM313.913 132.286C313.913 131.73 313.735 131.277 313.38 130.926C313.029 130.575 312.569 130.399 311.999 130.399C311.429 130.399 310.971 130.573 310.625 130.919C310.283 131.265 310.112 131.721 310.112 132.286C310.112 132.851 310.279 133.296 310.611 133.619C310.949 133.943 311.416 134.104 312.013 134.104C312.605 134.104 313.07 133.943 313.407 133.619C313.744 133.291 313.913 132.847 313.913 132.286ZM312.013 125.949C311.516 125.949 311.113 126.104 310.803 126.414C310.497 126.719 310.345 127.136 310.345 127.665C310.345 128.171 310.495 128.581 310.796 128.896C311.101 129.205 311.507 129.36 312.013 129.36C312.519 129.36 312.922 129.205 313.223 128.896C313.528 128.581 313.681 128.171 313.681 127.665C313.681 127.159 313.523 126.747 313.209 126.428C312.895 126.109 312.496 125.949 312.013 125.949ZM323.148 131.384C323.148 132.509 322.891 133.416 322.376 134.104C321.861 134.793 321.164 135.137 320.284 135.137C319.386 135.137 318.68 134.852 318.165 134.282V137.844H316.9V127.604H318.056L318.117 128.424C318.632 127.786 319.348 127.467 320.264 127.467C321.152 127.467 321.854 127.802 322.369 128.472C322.889 129.142 323.148 130.074 323.148 131.268V131.384ZM321.884 131.24C321.884 130.406 321.706 129.748 321.351 129.265C320.995 128.782 320.507 128.54 319.888 128.54C319.122 128.54 318.548 128.88 318.165 129.559V133.093C318.543 133.767 319.122 134.104 319.901 134.104C320.507 134.104 320.988 133.865 321.344 133.387C321.704 132.904 321.884 132.188 321.884 131.24ZM327.134 130.304L328.774 127.604H330.251L327.831 131.261L330.326 135H328.863L327.154 132.231L325.445 135H323.976L326.471 131.261L324.051 127.604H325.514L327.134 130.304Z" fill="black"/>
<path d="M987.456 46.6572H988.837V47.6895H987.456V50H986.185V47.6895H981.652V46.9443L986.109 40.0469H987.456V46.6572ZM983.088 46.6572H986.185V41.7764L986.034 42.0498L983.088 46.6572ZM996.22 45.7549C996.22 47.236 995.967 48.3366 995.461 49.0566C994.955 49.7767 994.164 50.1367 993.089 50.1367C992.027 50.1367 991.241 49.7858 990.73 49.084C990.22 48.3776 989.956 47.3249 989.938 45.9258V44.2373C989.938 42.7744 990.19 41.6875 990.696 40.9766C991.202 40.2656 991.995 39.9102 993.075 39.9102C994.146 39.9102 994.935 40.2542 995.44 40.9424C995.946 41.626 996.206 42.6833 996.22 44.1143V45.7549ZM994.955 44.0254C994.955 42.9544 994.805 42.1751 994.504 41.6875C994.203 41.1953 993.727 40.9492 993.075 40.9492C992.428 40.9492 991.956 41.193 991.66 41.6807C991.364 42.1683 991.211 42.918 991.202 43.9297V45.9531C991.202 47.0286 991.357 47.8239 991.667 48.3389C991.981 48.8493 992.455 49.1045 993.089 49.1045C993.713 49.1045 994.176 48.863 994.477 48.3799C994.782 47.8968 994.941 47.1357 994.955 46.0967V44.0254ZM1004.22 46.3838C1004.22 47.5094 1003.96 48.4163 1003.45 49.1045C1002.93 49.7926 1002.23 50.1367 1001.35 50.1367C1000.46 50.1367 999.749 49.8519 999.234 49.2822V52.8438H997.97V42.6035H999.125L999.187 43.4238C999.701 42.7858 1000.42 42.4668 1001.33 42.4668C1002.22 42.4668 1002.92 42.8018 1003.44 43.4717C1003.96 44.1416 1004.22 45.0736 1004.22 46.2676V46.3838ZM1002.95 46.2402C1002.95 45.4062 1002.78 44.7477 1002.42 44.2646C1002.06 43.7816 1001.58 43.54 1000.96 43.54C1000.19 43.54 999.617 43.8796 999.234 44.5586V48.0928C999.613 48.7673 1000.19 49.1045 1000.97 49.1045C1001.58 49.1045 1002.06 48.8652 1002.41 48.3867C1002.77 47.9036 1002.95 47.1882 1002.95 46.2402ZM1008.2 45.3037L1009.84 42.6035H1011.32L1008.9 46.2607L1011.4 50H1009.93L1008.22 47.2314L1006.51 50H1005.04L1007.54 46.2607L1005.12 42.6035H1006.58L1008.2 45.3037Z" fill="black"/>
<line x1="251.5" y1="71" x2="251.5" y2="93" stroke="#D9D9D9"/>
<circle cx="250" cy="45" r="12.5" fill="white" stroke="black"/>
<path d="M251.119 52H249.303V39.959L245.66 41.2969V39.6562L250.836 37.7129H251.119V52Z" fill="#1C1C1C"/>
<path d="M328.287 69.0775V70.3965C328.315 70.3159 328.358 70.2413 328.415 70.1766C328.472 70.1166 328.538 70.0648 328.609 70.0228C328.681 69.9777 328.76 69.9443 328.843 69.9238C328.926 69.9131 329.01 69.9131 329.093 69.9238C329.252 69.9206 329.41 69.9526 329.555 70.0173C329.684 70.0803 329.797 70.1726 329.883 70.2866C329.973 70.4009 330.039 70.5316 330.078 70.6713C330.159 70.9775 330.159 71.2993 330.078 71.6055C330.038 71.7447 329.972 71.8752 329.883 71.9902C329.796 72.1025 329.684 72.1929 329.555 72.254C329.411 72.3233 329.253 72.3572 329.093 72.3529C328.916 72.3557 328.74 72.3101 328.587 72.221C328.441 72.1373 328.328 72.0077 328.265 71.8528V71.8528V72.287H328.003V69.0775H328.287ZM329.822 70.7537C329.796 70.6425 329.751 70.5365 329.688 70.4404C329.627 70.3508 329.547 70.2742 329.455 70.2151C329.347 70.1584 329.226 70.13 329.104 70.1327C328.973 70.1282 328.843 70.1566 328.726 70.2151C328.626 70.2722 328.539 70.3489 328.47 70.4404C328.406 70.5362 328.359 70.6422 328.331 70.7537C328.303 70.8707 328.288 70.9906 328.287 71.1109C328.288 71.2295 328.303 71.3475 328.331 71.4626C328.358 71.5762 328.405 71.6841 328.47 71.7814C328.539 71.873 328.626 71.9496 328.726 72.0067C328.843 72.0652 328.973 72.0936 329.104 72.0891C329.226 72.0918 329.347 72.0634 329.455 72.0067C329.549 71.9412 329.629 71.857 329.688 71.7594C329.752 71.6619 329.797 71.5539 329.822 71.4406C329.854 71.3261 329.869 71.2077 329.866 71.0889C329.866 70.9758 329.851 70.8631 329.822 70.7537V70.7537Z" fill="#54565A"/>
<path d="M330.633 69.9623L331.401 71.9242L332.118 69.9623H332.413L331.401 72.6057C331.374 72.6924 331.34 72.7769 331.3 72.8585C331.27 72.9142 331.231 72.9644 331.184 73.0069C331.139 73.0459 331.086 73.0742 331.028 73.0893C330.954 73.0992 330.879 73.0992 330.805 73.0893H330.672C330.645 73.0956 330.616 73.0956 330.589 73.0893V72.8585H330.683H330.744C330.795 72.8708 330.849 72.8708 330.9 72.8585C330.94 72.8431 330.977 72.8187 331.006 72.787C331.036 72.7517 331.062 72.7129 331.084 72.6716C331.084 72.6277 331.128 72.5782 331.15 72.5288L331.25 72.2705L330.322 69.9788L330.633 69.9623Z" fill="#54565A"/>
<path d="M336.213 69.0775V69.3358H334.299V70.4844H336.09V70.7427H334.299V72.0012H336.235V72.2595H334.01V69.0775H336.213Z" fill="#54565A"/>
<path d="M336.779 71.7871H337.158V72.2597H336.779V71.7871Z" fill="#54565A"/>
<path d="M338.136 71.6221C338.189 71.7274 338.267 71.8181 338.364 71.8859C338.466 71.953 338.579 72.0014 338.698 72.0288C338.835 72.0562 338.975 72.0691 339.115 72.0672C339.207 72.0661 339.298 72.0551 339.388 72.0342C339.487 72.013 339.581 71.9739 339.666 71.9188C339.75 71.8692 339.823 71.8016 339.877 71.721C339.939 71.6342 339.97 71.5301 339.966 71.4242C339.968 71.3432 339.947 71.2632 339.905 71.1934C339.865 71.1284 339.812 71.0723 339.749 71.0285C339.683 70.9812 339.61 70.9441 339.532 70.9186C339.458 70.8906 339.382 70.8668 339.304 70.8472L338.587 70.6603C338.493 70.6393 338.402 70.6099 338.314 70.5724C338.228 70.5401 338.149 70.4916 338.081 70.4295C338.012 70.3704 337.957 70.2973 337.919 70.2152C337.877 70.1143 337.856 70.0057 337.858 69.8964C337.861 69.8051 337.876 69.7146 337.903 69.6272C337.938 69.5173 337.997 69.4161 338.075 69.3304C338.17 69.2289 338.286 69.1484 338.414 69.0941C338.592 69.0267 338.781 68.995 338.971 69.0006C339.125 69.0011 339.278 69.0214 339.427 69.0611C339.563 69.1009 339.691 69.1642 339.805 69.248C339.912 69.3328 340 69.4397 340.061 69.5612C340.13 69.6935 340.165 69.8409 340.161 69.9899H339.855C339.852 69.8788 339.823 69.7698 339.772 69.6711C339.722 69.5842 339.656 69.5076 339.577 69.4458C339.494 69.3828 339.4 69.3362 339.299 69.3084C339.193 69.2747 339.082 69.258 338.971 69.2589C338.87 69.2588 338.769 69.2698 338.67 69.2919C338.579 69.3117 338.492 69.349 338.414 69.4018C338.338 69.4502 338.275 69.5163 338.231 69.5942C338.184 69.6859 338.161 69.788 338.164 69.8909C338.164 69.957 338.177 70.0223 338.203 70.0833C338.229 70.1373 338.264 70.1858 338.309 70.2262C338.355 70.2656 338.408 70.2971 338.464 70.3196L338.654 70.3801L339.438 70.5669C339.555 70.5999 339.66 70.6384 339.76 70.6768C339.857 70.719 339.947 70.7745 340.027 70.8417C340.105 70.9035 340.166 70.9827 340.205 71.0725C340.253 71.178 340.275 71.2925 340.272 71.4077C340.272 71.4407 340.272 71.4902 340.272 71.5506C340.26 71.6238 340.236 71.6944 340.2 71.7595C340.171 71.8335 340.13 71.9023 340.077 71.9628C340.02 72.0399 339.946 72.1037 339.861 72.1497C339.756 72.2118 339.641 72.2563 339.521 72.2816C339.189 72.3619 338.842 72.3619 338.509 72.2816C338.358 72.2427 338.217 72.1755 338.092 72.0837C337.978 71.9906 337.888 71.8719 337.83 71.7375C337.765 71.579 337.739 71.4078 337.753 71.2374H338.058C338.056 71.3697 338.082 71.5009 338.136 71.6221V71.6221Z" fill="#54565A"/>
<path d="M341.036 69.0775V71.0505C341.034 71.2083 341.055 71.3656 341.098 71.5176C341.134 71.6371 341.199 71.7463 341.287 71.8363C341.368 71.9186 341.47 71.9791 341.582 72.0122C341.843 72.0855 342.121 72.0855 342.382 72.0122C342.494 71.9791 342.596 71.9186 342.677 71.8363C342.765 71.7463 342.83 71.6371 342.866 71.5176C342.909 71.3656 342.93 71.2083 342.928 71.0505V69.0775H343.233V71.1164C343.235 71.275 343.211 71.4328 343.161 71.5835C343.118 71.7258 343.044 71.8571 342.944 71.9682C342.835 72.0807 342.702 72.1687 342.555 72.2265C342.185 72.3602 341.779 72.3602 341.409 72.2265C341.262 72.1687 341.13 72.0807 341.02 71.9682C340.92 71.8571 340.846 71.7258 340.803 71.5835C340.753 71.4328 340.729 71.275 340.731 71.1164V69.0775H341.036Z" fill="#54565A"/>
<path d="M344.188 69.0775L346.063 71.7594V69.0775H346.369V72.2595H346.024L344.16 69.5611V72.254H343.854V69.0775H344.188Z" fill="#54565A"/>
<path d="M349.657 69.0776C349.789 69.0763 349.922 69.0892 350.052 69.1161C350.168 69.1408 350.279 69.1854 350.38 69.248C350.473 69.3083 350.551 69.3892 350.608 69.4843C350.667 69.5999 350.696 69.7285 350.691 69.858C350.692 69.9402 350.679 70.022 350.652 70.0998C350.627 70.1777 350.587 70.2503 350.536 70.3141C350.488 70.3785 350.43 70.4343 350.363 70.479C350.293 70.5236 350.216 70.5552 350.135 70.5724V70.5724C350.326 70.5935 350.502 70.6835 350.63 70.8252C350.759 70.979 350.825 71.1753 350.814 71.3748C350.814 71.4243 350.814 71.4792 350.814 71.5452C350.802 71.6111 350.784 71.6756 350.758 71.7375C350.729 71.8103 350.69 71.8788 350.641 71.9409C350.583 72.0086 350.513 72.0662 350.435 72.1112C350.336 72.165 350.229 72.2057 350.118 72.2321C349.97 72.2631 349.819 72.2779 349.668 72.2761H348.305V69.0776H349.657ZM349.657 70.4735C349.766 70.4751 349.875 70.4603 349.979 70.4295C350.062 70.4057 350.139 70.3666 350.207 70.3141C350.263 70.2666 350.308 70.2087 350.341 70.1438C350.369 70.0777 350.384 70.0068 350.385 69.9349C350.385 69.5338 350.141 69.3359 349.657 69.3359H348.606V70.4735H349.657ZM349.657 72.0013C349.767 72.0008 349.876 71.9916 349.985 71.9738C350.066 71.9509 350.143 71.9157 350.213 71.8694C350.294 71.8201 350.359 71.7497 350.402 71.6661C350.45 71.5666 350.473 71.4573 350.469 71.3473C350.473 71.2588 350.455 71.1706 350.418 71.0902C350.38 71.0098 350.323 70.9396 350.252 70.8857C350.073 70.7784 349.866 70.725 349.657 70.7318H348.606V72.0013H349.657Z" fill="#54565A"/>
<path d="M351.292 70.3194C351.338 70.2257 351.405 70.1431 351.487 70.0776C351.574 70.0114 351.674 69.9645 351.781 69.9402C351.901 69.9081 352.025 69.8933 352.149 69.8963C352.25 69.8852 352.353 69.8852 352.454 69.8963C352.554 69.9122 352.649 69.9497 352.733 70.0062C352.819 70.0615 352.889 70.1395 352.933 70.2315C352.992 70.3662 353.013 70.5144 352.994 70.6602V71.8527C352.994 71.9681 353.05 72.0231 353.161 72.0231C353.192 72.0288 353.224 72.0288 353.255 72.0231V72.2594H353.166H353.066C353.009 72.2696 352.951 72.2696 352.894 72.2594C352.854 72.2411 352.819 72.2127 352.794 72.177C352.77 72.1377 352.754 72.095 352.744 72.0506C352.741 71.9957 352.741 71.9406 352.744 71.8857V71.8857C352.697 71.9557 352.645 72.0219 352.588 72.0835C352.537 72.1419 352.477 72.1919 352.41 72.2319C352.34 72.2711 352.265 72.3007 352.188 72.3199C352.086 72.3301 351.983 72.3264 351.882 72.3089C351.78 72.3076 351.68 72.2947 351.581 72.2704C351.49 72.2471 351.405 72.2059 351.331 72.1495C351.259 72.0944 351.202 72.0227 351.164 71.9407C351.122 71.8453 351.102 71.7423 351.103 71.6384C351.095 71.5039 351.132 71.3706 351.209 71.2592C351.285 71.1676 351.385 71.0975 351.498 71.0559C351.626 71.0043 351.761 70.9692 351.898 70.9514L352.354 70.8965H352.51C352.551 70.8922 352.589 70.877 352.621 70.8525C352.654 70.8291 352.679 70.7966 352.694 70.7591C352.703 70.7101 352.703 70.6597 352.694 70.6107C352.697 70.5297 352.681 70.449 352.649 70.3744C352.618 70.3158 352.572 70.2665 352.516 70.2315C352.457 70.1929 352.391 70.1667 352.321 70.1546C352.243 70.1487 352.165 70.1487 352.087 70.1546C351.929 70.1461 351.772 70.1906 351.642 70.281C351.583 70.3307 351.536 70.3932 351.505 70.4638C351.474 70.5343 351.46 70.6109 351.464 70.6877H351.181C351.191 70.5585 351.229 70.433 351.292 70.3194V70.3194ZM352.716 71.0064C352.69 71.0399 352.652 71.0633 352.61 71.0723L352.477 71.1053L352.104 71.1603C351.985 71.1757 351.868 71.2014 351.754 71.2372C351.657 71.2638 351.568 71.3107 351.492 71.3746C351.457 71.409 351.431 71.4503 351.413 71.4958C351.396 71.5413 351.389 71.5899 351.392 71.6384C351.392 71.7033 351.407 71.7674 351.437 71.8253C351.464 71.8795 351.502 71.928 351.548 71.9681C351.598 72.0077 351.655 72.0392 351.715 72.0616C351.779 72.0696 351.845 72.0696 351.909 72.0616C352.015 72.0621 352.121 72.0454 352.221 72.0121C352.317 71.9854 352.406 71.9385 352.482 71.8747C352.555 71.8091 352.616 71.7309 352.66 71.6439C352.702 71.5485 352.723 71.4455 352.721 71.3416V71.0064H352.716Z" fill="#54565A"/>
<path d="M353.856 69.9624V70.358C353.912 70.2175 354.013 70.0995 354.145 70.0228C354.281 69.938 354.44 69.8941 354.601 69.8964C354.741 69.8908 354.881 69.9113 355.013 69.9569C355.112 69.9945 355.202 70.0547 355.274 70.1327C355.342 70.214 355.39 70.3101 355.413 70.413C355.443 70.5335 355.458 70.6571 355.458 70.7812V72.2595H355.168V70.8252C355.177 70.7338 355.177 70.6418 355.168 70.5504C355.151 70.4721 355.119 70.3976 355.074 70.3306C355.024 70.2686 354.962 70.218 354.89 70.1822C354.798 70.1465 354.7 70.1297 354.601 70.1327C354.496 70.1293 354.391 70.15 354.295 70.1932C354.21 70.2317 354.134 70.2879 354.073 70.358C354.007 70.4295 353.958 70.5137 353.928 70.6054C353.892 70.706 353.873 70.8119 353.872 70.9186V72.2595H353.55V69.9624H353.856Z" fill="#54565A"/>
<path d="M356.281 69.0775V71.0724L357.571 69.9733H357.949L356.959 70.8251L357.999 72.2595H357.644L356.726 71.0065L356.264 71.3857V72.2595H355.98V69.0775H356.281Z" fill="#54565A"/>
<path d="M301.639 76.8101H294.87C294.455 76.8101 294.119 77.1422 294.119 77.552V79.7832C294.119 80.193 294.455 80.5251 294.87 80.5251H301.639C302.053 80.5251 302.39 80.193 302.39 79.7832V77.552C302.39 77.1422 302.053 76.8101 301.639 76.8101Z" fill="#00A4EF"/>
<path d="M325.128 82.0088C325.125 80.2859 324.431 78.6345 323.197 77.4168C321.964 76.1991 320.292 75.5144 318.548 75.5129C317.571 75.515 316.607 75.7348 315.728 76.1559C315.7 75.9802 315.61 75.82 315.474 75.7042C315.337 75.5883 315.163 75.5244 314.983 75.5239H312.725C312.626 75.5232 312.528 75.5419 312.437 75.5789C312.345 75.6159 312.262 75.6706 312.192 75.7396C312.122 75.8086 312.067 75.8907 312.03 75.9811C311.992 76.0714 311.973 76.1682 311.974 76.2658V88.697C311.974 88.8938 312.053 89.0825 312.194 89.2216C312.335 89.3608 312.526 89.4389 312.725 89.4389H314.977C315.176 89.4375 315.366 89.3589 315.507 89.2201C315.647 89.0812 315.727 88.8934 315.728 88.697V82.0088C315.711 81.6329 315.772 81.2574 315.906 80.9052C316.04 80.5529 316.244 80.2311 316.508 79.9591C316.771 79.6872 317.087 79.4708 317.437 79.3229C317.788 79.175 318.165 79.0988 318.545 79.0988C318.926 79.0988 319.303 79.175 319.653 79.3229C320.004 79.4708 320.32 79.6872 320.583 79.9591C320.847 80.2311 321.051 80.5529 321.185 80.9052C321.319 81.2574 321.38 81.6329 321.363 82.0088V88.7135C321.363 88.9103 321.442 89.099 321.583 89.2381C321.723 89.3773 321.914 89.4554 322.114 89.4554H324.372C324.471 89.4562 324.568 89.4375 324.66 89.4004C324.751 89.3634 324.834 89.3088 324.904 89.2398C324.974 89.1707 325.029 89.0886 325.067 88.9983C325.104 88.908 325.123 88.8111 325.123 88.7135V82.0088H325.128Z" fill="#FFC517"/>
<path d="M350.97 75.513C349.576 75.5097 348.211 75.9153 347.05 76.6784C345.889 77.4415 344.983 78.5279 344.447 79.7999C343.912 81.0719 343.77 82.4725 344.04 83.8242C344.31 85.176 344.98 86.4182 345.964 87.3937C346.949 88.3691 348.205 89.0339 349.572 89.3039C350.94 89.5739 352.358 89.437 353.646 88.9105C354.935 88.384 356.037 87.4915 356.812 86.3461C357.587 85.2007 358 83.8538 358 82.476C357.998 80.633 357.256 78.8661 355.939 77.5614C354.622 76.2567 352.835 75.5202 350.97 75.513V75.513ZM350.97 85.7239C350.319 85.7239 349.682 85.5329 349.14 85.1752C348.599 84.8175 348.176 84.309 347.927 83.7142C347.678 83.1194 347.613 82.465 347.741 81.8337C347.869 81.2025 348.183 80.6228 348.644 80.168C349.105 79.7132 349.692 79.4038 350.331 79.2789C350.97 79.154 351.632 79.2192 352.234 79.4663C352.836 79.7134 353.349 80.1312 353.711 80.667C354.072 81.2027 354.264 81.8323 354.263 82.476C354.261 83.3379 353.914 84.164 353.296 84.7729C352.679 85.3819 351.842 85.7239 350.97 85.7239V85.7239Z" fill="#ED4848"/>
<path d="M308.401 75.5129H306.143C305.729 75.5129 305.392 75.8451 305.392 76.2549V88.697C305.392 89.1068 305.729 89.4389 306.143 89.4389H308.401C308.816 89.4389 309.152 89.1068 309.152 88.697V76.2549C309.152 75.8451 308.816 75.5129 308.401 75.5129Z" fill="#00C08B"/>
<path d="M341.314 75.513H339.062C338.963 75.5122 338.864 75.5309 338.773 75.5678C338.681 75.6048 338.597 75.6593 338.527 75.7283C338.457 75.7973 338.401 75.8793 338.363 75.9697C338.325 76.0601 338.305 76.157 338.305 76.2549V76.9089C337.258 76.1319 336.013 75.6584 334.71 75.5415C333.406 75.4245 332.095 75.6688 330.923 76.2468C329.752 76.8249 328.767 77.7139 328.079 78.8141C327.39 79.9144 327.025 81.1824 327.025 82.476C327.025 83.7695 327.39 85.0375 328.079 86.1378C328.767 87.238 329.752 88.127 330.923 88.7051C332.095 89.2831 333.406 89.5274 334.71 89.4105C336.013 89.2935 337.258 88.82 338.305 88.0431V91.2965C338.297 92.1363 337.974 92.9431 337.397 93.5604C336.821 94.1776 336.033 94.5612 335.187 94.6366C334.34 94.7119 333.495 94.4737 332.817 93.9681C332.138 93.4626 331.674 92.7259 331.514 91.901C331.484 91.7307 331.393 91.5766 331.259 91.4659C331.125 91.3552 330.955 91.2952 330.78 91.2965H328.499C328.393 91.2957 328.289 91.3173 328.192 91.3597C328.095 91.402 328.009 91.4643 327.938 91.5423C327.868 91.6203 327.815 91.7122 327.783 91.812C327.751 91.9117 327.741 92.017 327.754 92.1208C327.97 93.9164 328.871 95.5628 330.274 96.7238C331.677 97.8848 333.476 98.4727 335.302 98.3675C337.129 98.2623 338.847 97.4718 340.104 96.1576C341.36 94.8434 342.062 93.1046 342.065 91.2965V76.2549C342.066 76.1572 342.047 76.0604 342.01 75.9701C341.972 75.8797 341.917 75.7977 341.847 75.7286C341.777 75.6596 341.694 75.605 341.603 75.5679C341.511 75.5309 341.413 75.5122 341.314 75.513ZM334.084 85.7239C333.432 85.725 332.795 85.535 332.252 85.1779C331.71 84.8208 331.287 84.3127 331.037 83.718C330.787 83.1233 330.721 82.4687 330.848 81.8371C330.975 81.2055 331.289 80.6253 331.75 80.1699C332.211 79.7146 332.798 79.4046 333.437 79.2793C334.076 79.1539 334.739 79.2188 335.341 79.4657C335.943 79.7127 336.457 80.1305 336.818 80.6664C337.18 81.2023 337.372 81.832 337.371 82.476C337.369 83.3369 337.023 84.1622 336.406 84.771C335.79 85.3798 334.955 85.7224 334.084 85.7239V85.7239Z" fill="#FF9900"/>
<path d="M299.753 69.0117H289.247C289.146 69.008 289.046 69.0245 288.952 69.0602C288.858 69.0959 288.772 69.15 288.7 69.2194C288.627 69.2887 288.57 69.3718 288.531 69.4636C288.492 69.5555 288.473 69.6541 288.474 69.7537V88.6972C288.474 88.894 288.553 89.0827 288.694 89.2218C288.834 89.3609 289.025 89.4391 289.225 89.4391H291.483C291.681 89.4377 291.872 89.359 292.012 89.2202C292.153 89.0814 292.232 88.8935 292.234 88.6972V72.7268H303.491C303.491 71.7453 303.098 70.8037 302.398 70.1076C301.697 69.4115 300.747 69.0176 299.753 69.0117V69.0117Z" fill="#00A4EF"/>
<path d="M284.709 89.3674C285.748 89.3674 286.589 88.5358 286.589 87.5099C286.589 86.484 285.748 85.6523 284.709 85.6523C283.671 85.6523 282.829 86.484 282.829 87.5099C282.829 88.5358 283.671 89.3674 284.709 89.3674Z" fill="#00C08B"/>
<path d="M307.94 69.4679C307.874 69.3548 307.78 69.261 307.665 69.1957C307.551 69.1304 307.422 69.0961 307.29 69.0961C307.158 69.0961 307.028 69.1304 306.914 69.1957C306.799 69.261 306.705 69.3548 306.639 69.4679L305.432 71.5232C305.371 71.6363 305.34 71.763 305.343 71.8911C305.346 72.0192 305.382 72.1445 305.448 72.2548C305.514 72.3652 305.607 72.457 305.719 72.5213C305.831 72.5857 305.958 72.6205 306.088 72.6224H308.496C308.626 72.6211 308.754 72.5866 308.866 72.5222C308.978 72.4579 309.072 72.3658 309.137 72.2551C309.203 72.1444 309.238 72.0187 309.24 71.8905C309.242 71.7622 309.21 71.6357 309.147 71.5232L307.94 69.4679Z" fill="#00C08B"/>
<path d="M272.527 72.7103C271.054 72.6997 269.604 73.0691 268.319 73.782C267.035 74.4949 265.961 75.5266 265.204 76.7752C264.447 78.0238 264.032 79.446 264.002 80.9013C263.971 82.3565 264.326 83.7945 265.03 85.073C265.734 86.3514 266.764 87.4262 268.017 88.1911C269.271 88.9559 270.704 89.3843 272.177 89.434C273.649 89.4837 275.109 89.1528 276.412 88.4742C277.715 87.7956 278.817 86.7927 279.608 85.5646C279.687 85.4526 279.732 85.3212 279.741 85.1849C279.749 85.0487 279.719 84.9129 279.654 84.7924C279.589 84.672 279.491 84.5716 279.372 84.5023C279.253 84.433 279.117 84.3974 278.979 84.3996H276.02C275.838 84.4008 275.662 84.4672 275.525 84.5864C274.942 85.083 274.244 85.4304 273.494 85.5982C272.743 85.766 271.962 85.749 271.219 85.5488C270.477 85.3485 269.795 84.9711 269.235 84.4497C268.674 83.9283 268.252 83.2789 268.005 82.5585H280.131C280.318 82.558 280.499 82.4885 280.638 82.3636C280.777 82.2387 280.863 82.0672 280.881 81.8826C280.911 81.572 280.924 81.2602 280.92 80.9483C280.88 78.7664 279.981 76.6859 278.414 75.148C276.847 73.61 274.736 72.7357 272.527 72.7103V72.7103ZM268.005 79.5854C268.324 78.6698 268.924 77.8753 269.722 77.3129C270.519 76.7506 271.475 76.4483 272.455 76.4483C273.435 76.4483 274.39 76.7506 275.188 77.3129C275.986 77.8753 276.586 78.6698 276.905 79.5854H268.005Z" fill="#00C08B"/>
<path d="M1186.65 115.354C1186.84 115.549 1187.16 115.549 1187.35 115.354L1190.54 112.172C1190.73 111.976 1190.73 111.66 1190.54 111.464C1190.34 111.269 1190.02 111.269 1189.83 111.464L1187 114.293L1184.17 111.464C1183.98 111.269 1183.66 111.269 1183.46 111.464C1183.27 111.66 1183.27 111.976 1183.46 112.172L1186.65 115.354ZM1187.35 44.6464C1187.16 44.4512 1186.84 44.4512 1186.65 44.6464L1183.46 47.8284C1183.27 48.0237 1183.27 48.3403 1183.46 48.5355C1183.66 48.7308 1183.98 48.7308 1184.17 48.5355L1187 45.7071L1189.83 48.5355C1190.02 48.7308 1190.34 48.7308 1190.54 48.5355C1190.73 48.3403 1190.73 48.0237 1190.54 47.8284L1187.35 44.6464ZM1187.5 115L1187.5 45L1186.5 45L1186.5 115L1187.5 115Z" fill="#E73525"/>
<path d="M1199.34 87H1198.07V78.5713L1195.52 79.5078V78.3594L1199.14 76.999H1199.34V87ZM1207.2 87H1205.93V78.5713L1203.38 79.5078V78.3594L1207.01 76.999H1207.2V87ZM1217.43 87H1210.91V86.0908L1214.35 82.2627C1214.86 81.6839 1215.22 81.2145 1215.41 80.8545C1215.6 80.4899 1215.7 80.1139 1215.7 79.7266C1215.7 79.207 1215.54 78.7809 1215.23 78.4482C1214.92 78.1156 1214.5 77.9492 1213.97 77.9492C1213.34 77.9492 1212.85 78.1292 1212.5 78.4893C1212.16 78.8447 1211.98 79.3415 1211.98 79.9795H1210.72C1210.72 79.0635 1211.01 78.3229 1211.6 77.7578C1212.19 77.1927 1212.98 76.9102 1213.97 76.9102C1214.9 76.9102 1215.63 77.154 1216.17 77.6416C1216.7 78.1247 1216.97 78.7695 1216.97 79.5762C1216.97 80.556 1216.35 81.7227 1215.1 83.0762L1212.43 85.9678H1217.43V87ZM1225.15 83.3838C1225.15 84.5094 1224.89 85.4163 1224.38 86.1045C1223.86 86.7926 1223.16 87.1367 1222.28 87.1367C1221.39 87.1367 1220.68 86.8519 1220.17 86.2822V89.8438H1218.9V79.6035H1220.06L1220.12 80.4238C1220.63 79.7858 1221.35 79.4668 1222.26 79.4668C1223.15 79.4668 1223.85 79.8018 1224.37 80.4717C1224.89 81.1416 1225.15 82.0736 1225.15 83.2676V83.3838ZM1223.88 83.2402C1223.88 82.4062 1223.71 81.7477 1223.35 81.2646C1223 80.7816 1222.51 80.54 1221.89 80.54C1221.12 80.54 1220.55 80.8796 1220.17 81.5586V85.0928C1220.54 85.7673 1221.12 86.1045 1221.9 86.1045C1222.51 86.1045 1222.99 85.8652 1223.34 85.3867C1223.7 84.9036 1223.88 84.1882 1223.88 83.2402ZM1229.13 82.3037L1230.77 79.6035H1232.25L1229.83 83.2607L1232.33 87H1230.86L1229.15 84.2314L1227.45 87H1225.98L1228.47 83.2607L1226.05 79.6035H1227.51L1229.13 82.3037Z" fill="black"/>
<rect x="1010" y="62" width="124" height="37" rx="1" fill="#00A19B"/>
<path d="M1055.88 75.92H1050.4V73.31H1048.54V75.92H1043.22V77.675H1055.88V75.92ZM1048.26 83.99C1048.11 82.4 1047.55 80.075 1046.85 78.23L1045.14 78.68C1045.8 80.51 1046.32 82.91 1046.43 84.47L1048.26 83.99ZM1052.1 84.935C1052.74 83.18 1053.45 80.75 1053.97 78.545L1051.92 78.17C1051.6 80.33 1050.88 83.12 1050.21 84.935H1042.74V86.72H1056.31V84.935H1052.1ZM1062.67 75.68V76.925H1060.21V75.68H1062.67ZM1060.21 79.715V78.485H1062.67V79.715H1060.21ZM1061.17 82.355C1061.46 82.775 1061.74 83.24 1062.01 83.705L1060.21 84.155V81.365H1064.32V74.03H1058.5V84.545C1058.14 84.635 1057.8 84.71 1057.49 84.77L1058.01 86.6C1059.37 86.225 1061.13 85.745 1062.82 85.265C1063.05 85.745 1063.23 86.195 1063.33 86.585L1064.91 85.79C1064.53 84.635 1063.54 82.94 1062.61 81.68L1061.17 82.355ZM1070.95 74H1065.16V87.29H1066.98V75.8H1069.11V83C1069.11 83.195 1069.05 83.27 1068.85 83.27C1068.64 83.27 1068.03 83.285 1067.44 83.24C1067.71 83.735 1068 84.65 1068.06 85.19C1069.02 85.19 1069.72 85.145 1070.28 84.815C1070.82 84.485 1070.95 83.9 1070.95 83.06V74ZM1077.31 75.14V75.905H1074.96V75.14H1077.31ZM1074.96 77.885V77.075H1077.31V77.885H1074.96ZM1078.99 79.175V73.865H1073.22V87.305H1074.96V79.175H1078.99ZM1078.75 82.475V81.35H1080.15V82.475H1078.75ZM1083.36 83.93V82.475H1081.71V81.35H1083.12V79.94H1075.87V81.35H1077.24V82.475H1075.66V83.93H1077.18C1077.03 84.695 1076.61 85.67 1075.65 86.27C1075.99 86.51 1076.53 86.975 1076.79 87.29C1078.06 86.42 1078.56 84.965 1078.71 83.93H1080.15V87.02H1081.71V83.93H1083.36ZM1081.68 77.915V77.075H1084.11V77.915H1081.68ZM1084.11 75.14V75.905H1081.68V75.14H1084.11ZM1085.86 73.865H1079.98V79.205H1084.11V85.205C1084.11 85.415 1084.03 85.505 1083.79 85.505C1083.57 85.52 1082.83 85.52 1082.16 85.49C1082.4 85.955 1082.64 86.765 1082.7 87.26C1083.84 87.26 1084.62 87.215 1085.16 86.915C1085.7 86.63 1085.86 86.135 1085.86 85.22V73.865ZM1091.26 81.095C1091.34 80.3 1091.37 79.55 1091.37 78.905H1097.97V81.095H1091.26ZM1091.37 77.255V76.205C1094.14 75.875 1097.19 75.35 1099.47 74.645L1098.04 73.31C1096.27 73.925 1093.41 74.465 1090.74 74.795L1089.55 74.465V78.83C1089.55 81.005 1089.37 83.96 1087.53 86.09C1087.98 86.315 1088.68 86.915 1088.95 87.305C1090.09 86.03 1090.69 84.365 1091.02 82.745H1097.97V83.51H1099.78V77.255H1091.37Z" fill="white"/>
</svg>
