<?xml version="1.0" encoding="utf-8"?>
<!-- Generator: Adobe Illustrator 25.2.1, SVG Export Plug-In . SVG Version: 6.00 Build 0)  -->
<svg version="1.1" id="圖層_1" xmlns="http://www.w3.org/2000/svg" xmlns:xlink="http://www.w3.org/1999/xlink" x="0px" y="0px"
	 viewBox="0 0 1191 81" style="enable-background:new 0 0 1191 81;" xml:space="preserve">
<style type="text/css">
	.st0{fill:none;stroke:#ACACAC;stroke-linejoin:round;}
	.st1{fill:none;stroke:#00A19B;stroke-width:4;stroke-linecap:round;stroke-linejoin:round;}
	.st2{fill:#00A19B;}
	.st3{fill:#4D4D4D;}
	.st4{fill:#E73525;}
	.st5{fill:none;stroke:#00A19B;stroke-miterlimit:10;}
	.st6{fill:#FFFFFF;}
</style>
<path class="st0" d="M0,75h1191"/>
<path class="st1" d="M24,72.5h90.5"/>
<path class="st2" d="M32,33.3v1.4c0,1.2,0.3,1.5,1.4,1.5h1.3c0.9,0,1.2-0.4,1.3-1.7c-0.4-0.1-0.8-0.3-1.1-0.5c0,1-0.1,1.1-0.4,1.1
	h-1c-0.4,0-0.4,0-0.4-0.4v-1.4h2.6V32h-4v-1.6h3.3v-1.2H32v-1.5h-1.5v1.5h-3.2v1.2h3.2V32h-4v1.2H29c-0.2,1.4-1,2.1-2.9,2.6
	c0.3,0.2,0.6,0.7,0.7,1c2.4-0.6,3.2-1.7,3.5-3.6H32z M27.7,47.7c1.1-1,2.1-2.6,2.7-4l-1.5-0.4c-0.6,1.5-1.6,3-2.7,3.8L27.7,47.7z
	 M32.5,43.8c0.3,1.2,0.4,2.8,0.4,3.7l1.6-0.2c0-0.9-0.2-2.4-0.5-3.6L32.5,43.8z M37,43.8c0.5,1.2,1,2.7,1.2,3.7l1.6-0.3
	c-0.2-0.9-0.7-2.5-1.3-3.7L37,43.8z M41.6,43.7c1,1.3,2.2,2.9,2.7,4l1.6-0.6c-0.6-1.1-1.8-2.8-2.8-4L41.6,43.7z M44.2,41
	c-0.1,0-0.2,0-0.3-0.1c-0.1-0.1-0.1-0.5-0.1-1v-9.2h-3.5c0-1,0-2,0.1-3.1h-1.5c0,1.1,0,2.1,0,3.1h-2.4v1.5h2.4c0,1-0.1,2-0.2,2.8
	c-0.5-0.4-1.1-0.7-1.6-1l-0.7,1.2c0.7,0.4,1.4,0.9,2,1.4c-0.4,1.8-1.1,3.3-2.3,4.5l0-0.9c-1.3,0.1-2.7,0.3-3.9,0.4v-1.8h3.4v-1.3H32
	v-1.6h-1.5v1.6H27v1.3h3.5v2c-1.6,0.2-3.1,0.3-4.2,0.4l0.2,1.4c2.4-0.2,5.7-0.6,9-0.9l-0.2,0.2c0.3,0.2,0.8,0.7,1.1,1.1
	c1.7-1.3,2.7-3,3.2-5.2c0.7,0.6,1.4,1.1,1.8,1.6l0.8-1.3c-0.5-0.5-1.3-1.2-2.2-1.8c0.2-1.2,0.3-2.4,0.4-3.8h2.1v7.6
	c0,1.5,0.1,1.8,0.4,2.1c0.3,0.3,0.7,0.4,1.1,0.4h0.9c0.4,0,0.7-0.1,0.9-0.3c0.3-0.2,0.4-0.5,0.5-1c0.1-0.4,0.2-1.8,0.2-3
	c-0.4-0.1-0.8-0.3-1.1-0.6c0,1.3,0,2.2,0,2.6c0,0.4-0.1,0.6-0.2,0.7C44.9,41,44.8,41,44.6,41H44.2z M55.4,30v1.9h-4.7V30H55.4z
	 M50.7,35.3v-2.1h4.7v2.1H50.7z M56.9,28.6h-7.8v19.1h1.6v-11h6.2V28.6z M60.5,35.3v-2.1h4.9v2.1H60.5z M65.4,30v1.9h-4.9V30H65.4z
	 M67,28.6h-8.1v8.1h6.4v8.8c0,0.4-0.2,0.5-0.5,0.6c-0.5,0-2,0-3.5,0c0.2,0.5,0.5,1.2,0.6,1.7c2,0,3.3,0,4-0.3c0.7-0.3,1-0.8,1-1.9
	V28.6z M89.8,37.2v-1.6h-9.4v-3.3h7v-1.6h-7v-3.2h-1.7v8.1h-8.5v1.6h8.5v10.4h1.7v-7.2c2.4,0.7,5.4,1.8,6.9,2.6l0.8-1.5
	c-1.7-0.8-5.1-1.9-7.5-2.6l-0.3,0.5v-2.3H89.8z M96.7,34.9h14.1v-1.6h-6.2v-5.6h-1.7v5.6h-6.2v-5.1H95v7.3c0,3.8-0.3,7.9-3.1,11
	c0.4,0.3,1,0.9,1.3,1.3c2-2.2,2.9-4.9,3.2-7.6h9.2v7.6h1.7v-9.3H96.6c0.1-1,0.1-2,0.1-3V34.9z"/>
<path class="st3" d="M136.6,74.8h1v1.4h-1V78h-1.7v-1.8h-3.5l-0.1-1.1l3.6-5.6h1.7V74.8z M133,74.8h1.9v-3l-0.1,0.2L133,74.8z
	 M145.2,74.9c0,1-0.2,1.8-0.7,2.3c-0.4,0.6-1,0.9-1.8,0.9c-0.6,0-1.2-0.2-1.6-0.7v3h-1.7v-8.8h1.6l0.1,0.6c0.4-0.5,0.9-0.7,1.6-0.7
	c0.8,0,1.4,0.3,1.8,0.9C145,73,145.2,73.8,145.2,74.9L145.2,74.9z M143.6,74.8c0-0.6-0.1-1-0.3-1.4c-0.2-0.3-0.5-0.5-0.9-0.5
	c-0.5,0-0.9,0.2-1.1,0.6v2.6c0.2,0.4,0.6,0.6,1.1,0.6C143.1,76.8,143.6,76.1,143.6,74.8z M149.6,73.6l1.1-1.9h1.8l-1.8,3.1l1.9,3.2
	h-1.8l-1.1-2l-1.1,2h-1.8l1.9-3.2l-1.8-3.1h1.8L149.6,73.6z"/>
<path class="st4" d="M122,67l-2.9,5h5.8L122,67z M122,79l2.9-5h-5.8L122,79z M121.5,71.5v3h1v-3H121.5z"/>
<path d="M166.8,39.2v-4.6h4.1v4.6H166.8z M172.5,41.7v-7.1h3.4v-1.6h-3.4V28h-1.6v5.1h-4.1v-5.3h-1.6v5.3h-4.1v-4.9h-1.7v4.9h-3.3
	v1.6h3.3v13h1.7v-1.6h14.1v-1.6h-14.1v-9.9h4.1v7.2h1.6v-1.1h4.1v1H172.5z M183.9,41.3c0,1.7-0.4,3.8-4.2,5.2
	c0.4,0.3,0.9,0.9,1.1,1.3c4.2-1.7,4.8-4.4,4.8-6.4V40h-1.6V41.3z M182.1,33.3h5v2.4h-5V33.3z M182.1,29.7h5V32h-5V29.7z M193.9,32
	h-5.1v-2.3h5.1V32z M193.9,35.7h-5.1v-2.4h5.1V35.7z M195.5,37.1v-8.8h-15v8.8h4.4c-1.7,1.7-4.3,3.2-6.8,3.9
	c0.4,0.3,0.8,0.9,1.1,1.3c2.9-1,5.9-2.9,7.7-5.3h2.4c0.8,1.1,2,2.1,3.2,2.9h-1.6v7.6h1.7v-7.6c1.4,0.9,2.9,1.7,4.5,2.2
	c0.2-0.4,0.7-1.1,1.1-1.4c-2.6-0.7-5.2-2.1-6.9-3.8H195.5z M219.8,37.2v-1.6h-9.4v-3.3h7v-1.6h-7v-3.2h-1.7v8.1h-8.5v1.6h8.5v10.4
	h1.7v-7.2c2.4,0.7,5.4,1.8,6.9,2.6l0.8-1.5c-1.7-0.8-5.1-1.9-7.5-2.6l-0.3,0.5v-2.3H219.8z M222.9,47.3h-1.7l6.5-17h1.7L222.9,47.3z
	 M246.2,35.3h-2.6v-3.7h2.6V35.3z M246.2,40.5h-2.6v-3.8h2.6V40.5z M235.9,36.7h2.4v3.8h-2.4V36.7z M242.2,36.7v3.8h-2.6v-3.8H242.2
	z M239.7,35.3v-3.7h2.6v3.7H239.7z M235.9,31.6h2.4v3.7h-2.4V31.6z M234.4,35.3h-3.1v1.5h3.1v3.8h-2.7V42h18.9v-1.5h-2.8v-3.8h3.1
	v-1.5h-3.1v-3.7h2.3v-1.5h-13.9c0.4-0.7,0.8-1.4,1.2-2.1l-1.6-0.5c-1,2.2-2.8,4.4-4.7,5.7c0.4,0.2,1,0.8,1.3,1.1
	c0.7-0.5,1.3-1.2,2-2V35.3z M232.7,47.7c1.2-1,2.2-2.8,2.7-4.4l-1.5-0.4c-0.6,1.6-1.6,3.3-2.7,4.2L232.7,47.7z M237.7,43.4
	c0.3,1.3,0.4,3,0.5,4l1.6-0.2c0-1-0.3-2.7-0.5-4L237.7,43.4z M242.1,43.5c0.6,1.3,1.1,3,1.3,4l1.6-0.3c-0.2-1-0.8-2.7-1.4-4
	L242.1,43.5z M246.6,43.3c1.1,1.4,2.3,3.2,2.9,4.4l1.6-0.6c-0.6-1.2-1.9-3-3-4.3L246.6,43.3z M259.6,28.5l-0.3,0.1h-5.4v19.1h1.5V30
	h3.2c-0.5,1.5-1.3,3.5-2,5.1c1.7,1.7,2.2,3.1,2.2,4.4c0,0.7-0.1,1.3-0.5,1.5c-0.2,0.1-0.5,0.2-0.8,0.2c-0.4,0-0.9,0-1.4,0
	c0.3,0.4,0.4,1.1,0.4,1.5c0.5,0,1.2,0,1.6,0c0.5-0.1,0.9-0.2,1.2-0.4c0.7-0.4,0.9-1.3,0.9-2.5c0-1.4-0.4-2.9-2.2-4.7
	c0.8-1.7,1.7-4,2.4-5.8L259.6,28.5z M263.4,34.1h6.6v2.7h-6.6V34.1z M270.1,30v2.7h-6.6V30H270.1z M271.4,38.8
	c-0.7,0.8-1.9,1.8-2.9,2.6c-0.5-1-0.9-2-1.2-3.2h4.5v-9.7h-9.9v16.8c-0.9,0.2-1.8,0.3-2.5,0.5l0.5,1.6c2.1-0.5,5.1-1.1,7.8-1.8
	l-0.1-1.4c-1.4,0.3-2.8,0.6-4.2,0.8v-6.8h2.4c1.1,4.3,3.1,7.7,6.3,9.3c0.2-0.4,0.7-1,1.1-1.3c-1.7-0.8-3.1-2-4.1-3.7
	c1.1-0.8,2.5-1.9,3.5-2.9L271.4,38.8z M294.9,37.2v-1.6h-9.4v-3.3h7v-1.6h-7v-3.2h-1.7v8.1h-8.5v1.6h8.5v10.4h1.7v-7.2
	c2.4,0.7,5.4,1.8,6.9,2.6l0.8-1.5c-1.7-0.8-5.1-1.9-7.5-2.6l-0.3,0.5v-2.3H294.9z"/>
<path d="M346.9,43.9l-3.4,0.7v-6.4h3.3v-1.4h-3.3v-2.3h2.7V33H340c1.3-1.3,2.2-2.7,2.9-3.9c1.3,1.2,2.7,2.8,3.4,3.8l1.1-1.3
	c-0.9-1.1-2.6-2.9-4-4.1h-1.5c-0.8,1.7-2.2,4-4.3,5.6c0.3,0.2,0.8,0.7,1,1.1c0.3-0.3,0.6-0.6,0.9-0.8v0.9h2.5v2.3h-3.6v1.4h3.6v6.7
	c-1.5,0.3-2.8,0.5-3.9,0.7l0.4,1.5c2.3-0.5,5.5-1.1,8.5-1.7L346.9,43.9z M338.8,39.7c0.5,1.3,0.8,3,0.9,4.1l1.2-0.4
	c-0.1-1.1-0.5-2.8-1-4L338.8,39.7z M345.1,43.5c0.4-1,0.9-2.6,1.3-4l-1.3-0.4c-0.2,1.2-0.7,2.9-1.1,4L345.1,43.5z M349.4,33.9h6.1
	v2.6h-6.1V33.9z M355.4,30v2.4h-6.1V30H355.4z M356.8,38.8c-0.7,0.7-1.8,1.7-2.8,2.4c-0.4-1.1-0.8-2.2-1.1-3.4h4.1v-9.4h-9.2v17
	c-0.7,0.2-1.3,0.3-1.8,0.4l0.5,1.6c2-0.5,4.7-1.1,7.1-1.8l-0.2-1.5c-1.4,0.3-2.8,0.7-4.1,1v-7.2h2c1,4.5,2.8,8.1,6,9.8
	c0.2-0.4,0.7-1.1,1.1-1.4c-1.7-0.8-2.9-2.2-3.9-3.9c1.1-0.7,2.3-1.7,3.3-2.6L356.8,38.8z M379.3,28.9h-10.7v1.5h10.7V28.9z
	 M364.9,27.6c-1.1,1.6-3.2,3.5-5,4.8c0.3,0.3,0.7,0.9,1,1.3c2-1.4,4.2-3.5,5.6-5.5L364.9,27.6z M365.8,32.3c-1.5,2.5-3.9,5-6.2,6.6
	c0.3,0.3,0.9,1,1.1,1.4c0.8-0.6,1.6-1.4,2.5-2.3v9.8h1.6V36.2c0.9-1.1,1.7-2.2,2.4-3.3L365.8,32.3z M379.9,34.9h-12.3v1.6h7.3v9.1
	c0,0.4-0.1,0.5-0.5,0.5c-0.4,0-1.9,0-3.4,0c0.2,0.5,0.5,1.1,0.5,1.6c2.2,0,3.4,0,4.1-0.2c0.7-0.3,1-0.8,1-1.8v-9.1h3.3V34.9z
	 M401.8,37.2v-1.6h-9.4v-3.3h7v-1.6h-7v-3.2h-1.7v8.1h-8.5v1.6h8.5v10.4h1.7v-7.2c2.4,0.7,5.4,1.8,6.9,2.6l0.8-1.5
	c-1.7-0.8-5.1-1.9-7.5-2.6l-0.3,0.5v-2.3H401.8z"/>
<path d="M449.2,33.1h-2.5V30h2.5V33.1z M446.7,42.5V39h2.5v3L446.7,42.5z M446.7,34.5h2.5v3.1h-2.5V34.5z M451.8,30v-1.5h-7.7V30
	h1.1v12.7l-1.4,0.3l0.3,1.5c1.5-0.3,3.2-0.7,5-1.1v4.2h1.4V30H451.8z M455.3,41.5c0,0.3,0,0.5,0,0.8h-2v-3.5h-1.3v5.7h1.3v-1h1.8
	c-0.3,1.2-1.1,2.2-2.8,3.1c0.3,0.2,0.7,0.8,0.8,1.1c3.1-1.5,3.5-3.8,3.5-6.2V38h-1.3V41.5z M455.3,34.6c0.2,0.4,0.5,0.9,0.7,1.3
	l-2.1,0.2c1.1-1.6,2.3-3.7,3.3-5.4l-1.3-0.5c-0.3,0.7-0.7,1.6-1.2,2.4c-0.3-0.4-0.6-0.7-1-1.1c0.7-1,1.4-2.4,2-3.5l-1.4-0.5
	c-0.3,0.9-0.9,2.2-1.5,3.2c-0.2-0.2-0.4-0.3-0.5-0.4l-0.7,0.9c0.9,0.7,1.8,1.8,2.4,2.6c-0.5,0.8-1,1.6-1.5,2.3l-1.3,0.1l0.2,1.2
	c1.5-0.1,3.2-0.3,5-0.4c0.1,0.3,0.2,0.5,0.2,0.8l1.1-0.4c-0.2-0.9-0.8-2.2-1.4-3.1L455.3,34.6z M464.2,37.6
	c-0.2-0.9-0.9-2.3-1.6-3.4l-1.1,0.4c0.3,0.4,0.5,0.9,0.7,1.3l-2.2,0.2c1.1-1.6,2.4-3.7,3.3-5.4l-1.3-0.5c-0.3,0.7-0.7,1.6-1.2,2.5
	c-0.3-0.4-0.6-0.7-1-1.1c0.7-1,1.4-2.4,2-3.5l-1.4-0.5c-0.3,0.9-0.9,2.2-1.5,3.2c-0.2-0.2-0.4-0.4-0.6-0.5l-0.7,1
	c0.9,0.7,1.9,1.8,2.5,2.6c-0.5,0.8-1,1.6-1.4,2.3l-1,0.1l0.2,1.2c1.4-0.1,3.1-0.3,4.8-0.5c0.2,0.4,0.2,0.7,0.3,1L464.2,37.6z
	 M462,42.3h-2.1V38h-1.4v9.7h1.4v-4.1h2.1v0.9h1.3v-5.7H462V42.3z M473.8,45.3v-5.4h9v5.4H473.8z M479.2,31.3
	c-0.9,1.9-2.3,3.7-4,5.1c-1-1.1-2.7-2.5-4.2-3.5c0.6-0.5,1.1-1.1,1.6-1.6H479.2z M484.4,38.4h-9c2.6-2.2,4.7-4.9,6-8.1l-1.1-0.6
	l-0.3,0.1h-6.2c0.5-0.6,0.9-1.3,1.3-1.9l-1.8-0.4c-1.3,2.4-3.8,5.2-7.4,7.1c0.4,0.3,0.9,0.9,1.1,1.3c1.1-0.6,2-1.3,2.9-2
	c1.5,1.1,3.1,2.5,4,3.6c-2.5,2-5.4,3.4-8.2,4.2c0.4,0.3,0.8,1,1,1.4c1.8-0.6,3.7-1.4,5.4-2.5v7h1.6v-0.9h9v0.9h1.6V38.4z
	 M507.8,37.2v-1.6h-9.4v-3.3h7v-1.6h-7v-3.2h-1.7v8.1h-8.5v1.6h8.5v10.4h1.7v-7.2c2.4,0.7,5.4,1.8,6.9,2.6l0.8-1.5
	c-1.7-0.8-5.1-1.9-7.5-2.6l-0.3,0.5v-2.3H507.8z"/>
<path d="M565.9,31.9c-0.5-0.5-1.5-1.1-2.4-1.5l-0.8,0.8c0.9,0.4,1.9,1.1,2.4,1.5L565.9,31.9z M560,40.8c-2.5,0.4-4.9,0.9-6.6,1.1
	l0.2,1.2c1.8-0.3,4.1-0.8,6.4-1.2L560,40.8z M558.1,38.8h-2.5v-2.2h2.5V38.8z M554.4,35.6v4.3h4.9v-4.3H554.4z M564.2,35.2
	c-0.4,1.5-0.9,2.9-1.6,4c-0.4-1.4-0.6-3.2-0.8-5.1h4.7V33h-4.8c0-0.8-0.1-1.5-0.1-2.3h-1.4c0,0.8,0.1,1.6,0.2,2.3h-6.6v1.2h6.7
	c0.2,2.5,0.6,4.8,1.2,6.5c-0.9,1.1-2,2.1-3.3,2.9c0.3,0.2,0.8,0.8,1,1c1.1-0.7,2-1.5,2.9-2.5c0.6,1.2,1.3,1.9,2.3,2.1
	c1.1,0.4,1.9-0.4,2.2-2.8c-0.3-0.1-0.8-0.5-1.1-0.7c-0.2,1.4-0.4,2.4-0.7,2.3c-0.7-0.1-1.3-0.9-1.8-2c1.1-1.5,1.9-3.3,2.4-5.4
	L564.2,35.2z M552.4,45.3V30.1h15.1v15.2H552.4z M550.9,28.6v19.1h1.6v-1h15.1v1h1.6V28.6H550.9z M576.2,38.3v-3h5.8
	c0.1,1,0.2,2,0.4,3H576.2z M588.4,30.2v3.5h-12.2v-3.5H588.4z M591.7,39.8v-1.5h-7.6c-0.2-0.9-0.4-1.9-0.4-3h6.4v-6.5h-15.5v16.7
	l-2.3,0.3l0.4,1.7c2.8-0.4,6.8-1,10.5-1.6l-0.1-1.6c-2.3,0.3-4.8,0.7-6.9,1v-5.4h6.6c1.3,4.6,3.8,7.9,6.8,7.9c1.6,0,2.3-0.8,2.6-4.1
	c-0.5-0.1-1.1-0.4-1.5-0.8c-0.1,2.3-0.4,3.2-1,3.3c-2,0-4.1-2.5-5.2-6.3H591.7z M613.7,32v-1.5h-7.6c0.3-0.8,0.6-1.7,0.9-2.6
	l-1.6-0.3c-0.7,2.6-2,5.1-3.6,6.7c0.4,0.2,1.1,0.7,1.3,1c0.8-0.9,1.6-2,2.2-3.3H613.7z M602.2,35.5h-4.2v-2.9h4.9v-1.5h-3.5v-3.5
	h-1.6v3.5h-3.8v1.5h2.5v3c0,3.2-0.3,7.5-2.9,11.1c0.4,0.3,0.9,0.7,1.2,1c2.5-3.4,3-7.3,3.1-10.7h2.7c-0.2,6.2-0.3,8.4-0.7,8.9
	c-0.2,0.2-0.4,0.3-0.7,0.3s-1.1,0-2-0.1c0.2,0.4,0.4,1,0.4,1.5c0.9,0,1.8,0,2.4,0c0.5,0,0.9-0.2,1.3-0.7c0.6-0.7,0.7-3.2,0.9-10.6
	V35.5z M613,36.4c-0.8,0.9-2,1.9-3.1,2.8c-0.3-1.1-0.6-2.3-0.8-3.5c1.5-0.7,2.9-1.5,3.8-2.2l-1.2-0.9c-2,1.5-6.1,3.1-9.2,3.8
	c0.4,0.3,0.8,0.9,1,1.3c0.4-0.1,0.8-0.2,1.2-0.4v10.2h1.6V36.9c0.5-0.2,1-0.4,1.5-0.6c0.8,5,2.4,9.2,5.4,11.3
	c0.2-0.4,0.7-1.1,1.1-1.3c-1.8-1.2-3.1-3.2-4-5.7c1.2-0.9,2.8-2,3.9-3.1L613,36.4z M633,39.3h3v-1.4h-3v-0.9c0.9-0.9,2-2.1,2.7-3.2
	l-0.9-0.7l-0.3,0.1h-5.1v1.3h4.2c-0.4,0.5-0.8,1.1-1.3,1.5h-0.7v1.8h-2.9v1.4h2.9V43c0,0.2-0.1,0.3-0.3,0.3c-0.2,0-1.1,0-2,0
	c0.2,0.4,0.4,1,0.5,1.4c1.2,0,2.1,0,2.6-0.3c0.5-0.2,0.7-0.6,0.7-1.4V39.3z M626.5,35.6c-0.1,5.2-0.3,7-0.6,7.4
	c-0.1,0.2-0.3,0.2-0.5,0.2c-0.3,0-0.9,0-1.5-0.1c0.2,0.4,0.4,1,0.4,1.4c0.7,0,1.4,0,1.8,0c0.5,0,0.8-0.2,1.1-0.6
	c0.5-0.7,0.6-2.8,0.8-9c0-0.2,0-0.7,0-0.7h-3.5V32h3.9c-0.2,0.3-0.4,0.6-0.7,0.9c0.3,0.2,0.9,0.6,1.2,0.9c0.5-0.7,1-1.5,1.5-2.4h5.5
	V30h-4.9c0.3-0.7,0.5-1.4,0.7-2.2l-1.4-0.3c-0.3,1.5-0.9,3-1.6,4.2v-1.1h-3v-3h-1.5v3h-3V32h2v3.3c0,2.6-0.2,5.9-2.3,8.4
	c0.4,0.2,0.8,0.7,1.1,0.9c2.2-2.6,2.6-6,2.6-8.9H626.5z M620.5,31.9c-0.5-1.1-1.8-2.7-3.1-3.8l-1.3,0.8c1.2,1.1,2.5,2.7,3,3.9
	L620.5,31.9z M620.1,36.2h-4.1v1.5h2.6v5.7c-0.9,0.9-1.9,1.8-2.8,2.5l0.9,1.5c1-1,1.9-1.9,2.8-2.9c1.4,1.7,3.4,2.5,6.3,2.6
	c2.5,0.1,7.3,0,9.9-0.1c0.1-0.5,0.3-1.2,0.5-1.5c-2.7,0.2-7.9,0.2-10.4,0.1c-2.6-0.1-4.6-0.9-5.7-2.5V36.2z M657.8,37.2v-1.6h-9.4
	v-3.3h7v-1.6h-7v-3.2h-1.7v8.1h-8.5v1.6h8.5v10.4h1.7v-7.2c2.4,0.7,5.4,1.8,6.9,2.6l0.8-1.5c-1.7-0.8-5.1-1.9-7.5-2.6l-0.3,0.5v-2.3
	H657.8z M660.9,47.3h-1.7l6.5-17h1.7L660.9,47.3z M681.7,33.2h4.2c-0.4,2.9-1.1,5.4-2.2,7.4c-1-2-1.7-4.4-2.2-7L681.7,33.2z
	 M689.1,33.2v-1.5h-6.9c0.4-1.2,0.7-2.5,0.9-3.8l-1.6-0.3c-0.6,3.3-1.6,6.4-3.1,8.7v-0.8h-3v-4.8h3.8v-1.6h-10.1v1.6h4.7V43
	l-2.2,0.5V34h-1.5v9.8l-1.3,0.3l0.3,1.6c2.7-0.6,6.6-1.5,10.2-2.4l-0.2-1.5l-3.8,0.9v-5.6h2.5l-0.1,0.2c0.4,0.2,1,0.8,1.3,1.1
	c0.5-0.7,1-1.5,1.4-2.4c0.6,2.3,1.3,4.4,2.3,6.2c-1.2,1.8-2.8,3.1-5,4.2c0.3,0.4,0.8,1.1,0.9,1.4c2.1-1.1,3.7-2.4,5-4.1
	c1.2,1.7,2.6,3.1,4.4,4c0.3-0.4,0.8-1.1,1.1-1.4c-1.9-0.9-3.4-2.3-4.6-4.1c1.4-2.4,2.3-5.3,2.9-9H689.1z M698.8,32
	c-0.8,2.4-2.6,5-4.6,6.8c0-0.9,0.1-1.9,0.1-2.7v-4.5h16.7V30h-8.4v-2.4h-1.7V30h-8.2v6c0,3.2-0.2,7.6-1.8,10.7
	c0.4,0.2,1.1,0.6,1.4,0.9c1.3-2.4,1.8-5.5,2-8.4c0.3,0.3,0.6,0.7,0.7,0.9c0.8-0.6,1.6-1.4,2.2-2.3v9.7h1.5V35.8
	c0.7-1.1,1.3-2.2,1.7-3.3L698.8,32z M711,35.4h-2.6v-3.2h-1.6v3.2h-6.6v1.5h6.6v8.8c0,0.4-0.1,0.5-0.5,0.5c-0.4,0-1.7,0-3.1,0
	c0.2,0.4,0.5,1.1,0.5,1.5c1.8,0,3,0,3.7-0.3c0.7-0.2,0.9-0.7,0.9-1.7v-8.8h2.6V35.4z M704.7,42.7c-0.5-1.2-1.5-2.9-2.6-4.3l-1.3,0.5
	c1,1.3,2,3.2,2.5,4.4L704.7,42.7z M731.1,27.9c-2.6,0.8-7.2,1.3-11.1,1.5c0.2,0.4,0.4,0.9,0.4,1.3c4-0.2,8.8-0.7,11.8-1.6
	L731.1,27.9z M729.8,36.8c1-1.4,2.2-3.5,3.1-5.4l-1.5-0.6c-0.6,1.7-1.8,4-2.8,5.4L729.8,36.8z M727.2,35.1c-0.1-1.1-0.5-2.7-1.1-4
	l-1.4,0.3c0.6,1.3,1,3.1,1,4.1L727.2,35.1z M723.3,35.7c-0.2-1.1-0.9-2.8-1.7-4.1l-1.3,0.4c0.7,1.3,1.4,3,1.6,4.2L723.3,35.7z
	 M719.7,38.4l-0.2-1.5c-0.7,0.2-1.5,0.5-2.2,0.7v-4h2.4V32h-2.4v-4.4h-1.5V32h-2.8v1.5h2.8V38c-1.1,0.4-2.2,0.7-3,0.9l0.4,1.6
	l2.6-0.9v6.1c0,0.3-0.1,0.4-0.4,0.4c-0.3,0-1.1,0-2.1,0c0.2,0.4,0.4,1.1,0.5,1.5c1.4,0,2.2,0,2.7-0.3c0.5-0.3,0.7-0.7,0.7-1.6v-6.6
	L719.7,38.4z M732.8,39.8v-1.5h-5.6v-2.4h-1.5v2.4h-5.6v1.5h4.5c-1.3,2.2-3.5,4.2-5.8,5.2c0.4,0.3,0.9,0.9,1.1,1.3
	c2.2-1.2,4.3-3.3,5.7-5.6v6.8h1.5v-6.8c1.3,2.2,3.3,4.4,5.2,5.5c0.3-0.4,0.7-1,1.1-1.2c-1.9-1-4-3.1-5.3-5.2H732.8z M740.7,32.6
	h-3.3v-2.8h3.3V32.6z M740.7,36.7h-3.3v-2.8h3.3V36.7z M740.7,40.8h-3.3V38h3.3V40.8z M742.1,28.4H736v13.8h6.2V28.4z M737,42.6
	c-0.4,1.6-1.2,3.1-2.2,4.2c0.4,0.2,1,0.6,1.2,0.9c1-1.2,1.9-2.9,2.4-4.7L737,42.6z M739.8,43.2c0.7,1.1,1.5,2.5,1.8,3.5l1.3-0.6
	c-0.4-0.9-1.1-2.3-1.8-3.4L739.8,43.2z M749.5,42.8v-1.7h2.8v1.7H749.5z M745.4,41.2h2.7v1.7h-2.7V41.2z M748,38.5V40h-2.7v-1.6H748
	z M752.3,38.5V40h-2.8v-1.6H752.3z M747.2,33.3h3.3v1.5h-3.3V33.3z M747.2,30.7h3.3v1.3h-3.3V30.7z M755.1,42.8h-1.3v-5.6h-4.3v-1.3
	h5.5v-1.2h-3.1v-1.5h2.3v-1.2h-2.3v-1.3h2.7v-1.2h-2.7v-1.9h-1.5v1.9h-3.3v-1.9h-1.5v1.9H743v1.2h2.7v1.3h-2.1v1.2h2.1v1.5h-3.2v1.2
	h5.5v1.3h-4.2v5.6h-1.4v1.3h1.4v3.6h1.5v-3.6h7V46c0,0.3-0.1,0.4-0.4,0.4c-0.3,0-1.4,0-2.5,0c0.2,0.4,0.4,0.9,0.5,1.3
	c1.6,0,2.6,0,3.2-0.2c0.6-0.2,0.7-0.7,0.7-1.5v-1.9h1.3V42.8z M776.9,37.2v-1.6h-9.4v-3.3h7v-1.6h-7v-3.2h-1.7v8.1h-8.5v1.6h8.5
	v10.4h1.7v-7.2c2.4,0.7,5.4,1.8,6.9,2.6l0.8-1.5c-1.7-0.8-5.1-1.9-7.5-2.6l-0.3,0.5v-2.3H776.9z"/>
<path class="st2" d="M923.3,26.1c-0.8-0.8-2.6-1.8-3.9-2.4l-0.9,1.2c1.4,0.6,3.1,1.7,3.9,2.5L923.3,26.1z M922.3,31.9
	c-0.9-0.7-2.6-1.6-4-2.2l-0.9,1.2c1.4,0.6,3.2,1.6,4,2.3L922.3,31.9z M919.4,43.4c1.2-2,2.7-4.8,3.7-7.1l-1.2-1
	c-1.2,2.5-2.8,5.4-3.9,7.1L919.4,43.4z M926.8,38.5v-1.6h7.5v1.6H926.8z M934.3,34.1v1.6h-7.5v-1.6H934.3z M935.8,32.8h-10.5v10.8
	h1.5v-3.9h7.5v2.1c0,0.3-0.1,0.4-0.4,0.4c-0.3,0-1.3,0-2.5,0c0.2,0.4,0.4,1,0.5,1.4c1.6,0,2.6,0,3.2-0.2c0.6-0.2,0.8-0.7,0.8-1.5
	V32.8z M931.1,30.3v-1.5h5.2v-1.2h-5.2v-1.4h5.7V25h-5.7v-1.4h-1.6V25H924v1.2h5.4v1.4h-4.9v1.2h4.9v1.5h-6.2v1.3h14.2v-1.3H931.1z
	 M951.8,23.7c-1.2,2.2-3.6,4.8-6.2,6.3c0.3,0.3,0.7,0.9,0.9,1.3c2.5-1.6,4.8-4,6.1-6.1c1.4,2.2,3.9,4.5,6.2,6c0.2-0.4,0.6-1,0.9-1.4
	c-2.3-1.3-4.9-3.7-6.5-6.1H951.8z M945.5,24.5l-0.3,0.1h-4.9v19.1h1.5V26h2.9c-0.5,1.5-1.1,3.5-1.7,5.1c1.6,1.7,2,3.2,2,4.4
	c0,0.6-0.1,1.3-0.4,1.5c-0.2,0.1-0.4,0.2-0.7,0.2c-0.3,0-0.8,0-1.3,0c0.3,0.4,0.4,1,0.4,1.5c0.5,0,1,0,1.5,0c0.4,0,0.8-0.2,1.2-0.4
	c0.6-0.4,0.9-1.3,0.9-2.5c0-1.3-0.4-2.9-2-4.7c0.7-1.7,1.5-4,2.2-5.8L945.5,24.5z M948.5,36.7c-0.6,1.8-1.7,3.5-2.9,4.6
	c0.3,0.2,0.9,0.7,1.2,1c1.2-1.3,2.4-3.3,3.2-5.3L948.5,36.7z M958.7,35.5v-1.4h-5.3v-2.7h3.5V30h-8.4v1.4h3.4v2.7H947v1.4h4.9v6.3
	c0,0.3-0.1,0.4-0.4,0.4c-0.3,0-1.2,0-2.2,0c0.2,0.4,0.5,1.1,0.6,1.5c1.4,0,2.3,0,2.8-0.3c0.6-0.2,0.7-0.7,0.7-1.6v-6.3H958.7z
	 M955.1,37.2c1.2,1.6,2.4,3.7,3,5l1.3-0.7c-0.6-1.3-1.9-3.3-3.1-4.8L955.1,37.2z M970.2,30.8h4.8v2h-3.9v8.8h1.5v-7.4h2.4v9.5h1.5
	v-9.5h2.6v5.7c0,0.2,0,0.3-0.3,0.3s-0.8,0-1.7,0c0.2,0.4,0.4,1,0.4,1.4c1.1,0,1.9,0,2.4-0.2c0.5-0.3,0.6-0.7,0.6-1.4v-7.1h-4.1v-2
	h4.9v-1.4h-11.2V30.8z M968,34.1h-3.8v-2.4h3.8V34.1z M968.5,38.4V41h-4.3v-2.6H968.5z M974,25.3c0.3-0.4,0.5-0.9,0.7-1.4l-1.6-0.4
	c-0.4,1.1-1.1,2.2-1.9,3.1v-1.3h-5.8c0.2-0.4,0.5-0.9,0.6-1.4l-1.5-0.4c-0.7,1.7-1.8,3.4-3.2,4.5c0.4,0.2,1,0.6,1.3,0.9
	c0.6-0.6,1.3-1.4,1.9-2.3h1c0.3,0.6,0.7,1.3,0.9,1.9l-0.8-0.2c-0.2,0.6-0.6,1.3-0.9,2h-2v13.2h1.5v-1.2h4.3v0.9h1.5v-6.1h-5.8v-1.7
	h5.3v-5.1h-3.2c0.3-0.5,0.6-1.1,0.9-1.7l-0.1,0l0.9-0.2c-0.2-0.5-0.5-1.2-0.9-1.8h4c-0.5,0.5-0.9,1-1.5,1.4c0.4,0.2,1.1,0.6,1.4,0.8
	c0.7-0.6,1.4-1.3,2-2.2h1.7c0.6,0.8,1.2,1.7,1.5,2.3l1.5-0.5c-0.2-0.5-0.7-1.2-1.2-1.8h4.8v-1.4H974z M1000.9,27h-4.2v2.3
	c0,1.3,0.5,1.6,2.1,1.6h2.9c1.2,0,1.6-0.4,1.7-1.9c-0.4-0.1-0.9-0.3-1.2-0.5c-0.1,1-0.2,1.2-0.7,1.2h-2.6c-0.7,0-0.9-0.1-0.9-0.5
	v-1.1h4.3v-3.7h-6.1v1.1h4.6V27z M993.8,27h-4.3v2.3c0,1.3,0.4,1.6,2,1.6h2.7c1.1,0,1.5-0.4,1.7-1.8c-0.4-0.1-0.9-0.2-1.2-0.5
	c-0.1,1-0.2,1.1-0.7,1.1h-2.4c-0.7,0-0.8-0.1-0.8-0.5v-1.1h4.3v-3.7h-6.1v1.1h4.7V27z M994.2,34.1h3.6v2.1h-3.6V34.1z M1003.3,36.2
	h-4v-2.1h3.3v-1.3h-3.3v-1.6h-1.6v1.6h-3.6v-1.6h-1.5v1.6h-3.3v1.3h3.3v2.1h-4v1.3h14.6V36.2z M1003,40.4c-1-0.8-2.8-1.9-4.5-2.6
	l-1.2,0.7c1.5,0.8,3.1,1.8,4,2.6L1003,40.4z M993.4,37.7c-1,0.9-2.6,1.7-4.1,2.3c0.4,0.2,1,0.7,1.2,1c1.4-0.7,3.2-1.8,4.3-2.8
	L993.4,37.7z M988.3,27.8c-0.6-1.1-2.1-2.6-3.4-3.7l-1.2,0.8c1.3,1.1,2.7,2.6,3.2,3.7L988.3,27.8z M987.8,32.2h-4.2v1.5h2.7v5.7
	c-1,0.9-2,1.8-3,2.5l0.9,1.5c1.1-1,2-1.9,3-2.9c1.4,1.7,3.4,2.5,6.3,2.6c2.5,0.1,7.2,0,9.7-0.1c0.1-0.5,0.3-1.2,0.5-1.5
	c-2.7,0.2-7.8,0.2-10.3,0.1c-2.6-0.1-4.5-0.9-5.6-2.5V32.2z"/>
<path class="st3" d="M132.6,7.8h1v1.4h-1V11h-1.7V9.2h-3.5l-0.1-1.1l3.6-5.6h1.7V7.8z M129,7.8h1.9v-3L130.8,5L129,7.8z M141.2,7.5
	c0,1.2-0.2,2.1-0.7,2.7c-0.5,0.6-1.2,0.9-2.1,0.9c-0.9,0-1.6-0.3-2.1-0.9c-0.5-0.6-0.7-1.5-0.8-2.6V6c0-1.2,0.2-2.1,0.7-2.7
	c0.5-0.6,1.2-0.9,2.1-0.9c0.9,0,1.6,0.3,2.1,0.9c0.5,0.6,0.7,1.5,0.8,2.6V7.5z M139.5,5.8c0-0.7-0.1-1.2-0.3-1.5
	c-0.2-0.3-0.5-0.5-0.9-0.5c-0.4,0-0.7,0.2-0.9,0.5c-0.2,0.3-0.3,0.8-0.3,1.4v2.1c0,0.7,0.1,1.2,0.3,1.6c0.2,0.3,0.5,0.5,0.9,0.5
	c0.4,0,0.7-0.2,0.9-0.5c0.2-0.3,0.3-0.8,0.3-1.5V5.8z"/>
<path class="st3" d="M238.4,67h-5.8v-1.2l2.8-2.9c0.4-0.4,0.7-0.8,0.8-1.1c0.2-0.3,0.3-0.6,0.3-0.9c0-0.4-0.1-0.7-0.3-0.9
	c-0.2-0.2-0.5-0.3-0.8-0.3c-0.4,0-0.7,0.1-0.9,0.4c-0.2,0.3-0.3,0.6-0.3,1h-1.7c0-0.5,0.1-1,0.4-1.4c0.2-0.4,0.6-0.8,1.1-1
	c0.5-0.2,1-0.4,1.5-0.4c0.9,0,1.6,0.2,2,0.6c0.5,0.4,0.7,1,0.7,1.8c0,0.4-0.1,0.9-0.3,1.3c-0.2,0.4-0.6,0.9-1.1,1.5l-1.9,2h3.7V67z
	 M245.5,63.8h1v1.4h-1V67h-1.7v-1.8h-3.5l-0.1-1.1l3.6-5.6h1.7V63.8z M241.9,63.8h1.9v-3l-0.1,0.2L241.9,63.8z"/>
<path class="st3" d="M10.4,36H4.6v-1.2l2.8-2.9c0.4-0.4,0.7-0.8,0.8-1.1c0.2-0.3,0.3-0.6,0.3-0.9c0-0.4-0.1-0.7-0.3-0.9
	c-0.2-0.2-0.5-0.3-0.8-0.3c-0.4,0-0.7,0.1-0.9,0.4c-0.2,0.3-0.3,0.6-0.3,1H4.4c0-0.5,0.1-1,0.4-1.4c0.2-0.4,0.6-0.8,1.1-1
	c0.5-0.2,1-0.4,1.5-0.4c0.9,0,1.6,0.2,2,0.6c0.5,0.4,0.7,1,0.7,1.8c0,0.4-0.1,0.9-0.3,1.3c-0.2,0.4-0.6,0.9-1.1,1.5l-1.9,2h3.7V36z
	 M17.5,32.8h1v1.4h-1V36h-1.7v-1.8h-3.5l-0.1-1.1l3.6-5.6h1.7V32.8z M13.9,32.8h1.9v-3L15.7,30L13.9,32.8z"/>
<path class="st3" d="M1177.4,19h-5.9v-1.2l2.8-2.9c0.4-0.4,0.7-0.8,0.8-1.1c0.2-0.3,0.3-0.6,0.3-0.9c0-0.4-0.1-0.7-0.3-0.9
	c-0.2-0.2-0.5-0.3-0.8-0.3c-0.4,0-0.7,0.1-0.9,0.4c-0.2,0.3-0.3,0.6-0.3,1h-1.7c0-0.5,0.1-1,0.4-1.4s0.6-0.8,1-1
	c0.5-0.2,1-0.4,1.6-0.4c0.9,0,1.6,0.2,2,0.6c0.5,0.4,0.7,1,0.7,1.8c0,0.4-0.1,0.9-0.3,1.3c-0.2,0.4-0.6,0.9-1.1,1.5l-1.9,2h3.7V19z
	 M1184.5,15.8h1v1.4h-1V19h-1.7v-1.8h-3.5l-0.1-1.1l3.6-5.6h1.7V15.8z M1180.9,15.8h1.9v-3l-0.1,0.2L1180.9,15.8z"/>
<path class="st4" d="M115,25l5,2.9v-5.8L115,25z M155,25l-5-2.9v5.8L155,25z M119.5,25.5h31v-1h-31V25.5z"/>
<path class="st4" d="M222,51l-2.9,5h5.8L222,51z M222,75l2.9-5h-5.8L222,75z M221.5,55.5v15h1v-15H221.5z"/>
<path class="st4" d="M24,51l-5-2.9v5.8L24,51z M0,51l5,2.9v-5.8L0,51z M19.5,50.5h-15v1h15V50.5z"/>
<path class="st4" d="M1191,34l-5-2.9v5.8L1191,34z M1167,34l5,2.9v-5.8L1167,34z M1186.5,33.5h-15v1h15V33.5z"/>
<path class="st2" d="M1044.3,7.5h120c1.9,0,3.5,1.6,3.5,3.5v46c0,1.9-1.6,3.5-3.5,3.5h-120c-1.9,0-3.5-1.6-3.5-3.5V11
	C1040.8,9.1,1042.3,7.5,1044.3,7.5z"/>
<path class="st5" d="M900.5,7.5h120c1.9,0,3.5,1.6,3.5,3.5v46c0,1.9-1.6,3.5-3.5,3.5h-120c-1.9,0-3.5-1.6-3.5-3.5V11
	C897,9.1,898.6,7.5,900.5,7.5z"/>
<path class="st6" d="M1092,30.8h4.8v2h-3.9v8.8h1.5v-7.4h2.4v9.5h1.5v-9.5h2.6v5.7c0,0.2,0,0.3-0.3,0.3c-0.2,0-0.8,0-1.7,0
	c0.2,0.4,0.4,1,0.4,1.4c1.1,0,1.9,0,2.4-0.2c0.5-0.3,0.6-0.7,0.6-1.4v-7.1h-4.1v-2h4.9v-1.4H1092V30.8z M1089.8,34.1h-3.8v-2.4h3.8
	V34.1z M1090.3,38.4V41h-4.3v-2.6H1090.3z M1095.8,25.3c0.3-0.4,0.5-0.9,0.7-1.4l-1.6-0.4c-0.4,1.1-1.1,2.2-1.9,3.1v-1.3h-5.8
	c0.2-0.4,0.5-0.9,0.6-1.4l-1.5-0.4c-0.7,1.7-1.8,3.4-3.2,4.5c0.4,0.2,1,0.6,1.3,0.9c0.6-0.6,1.3-1.4,1.9-2.3h0.9
	c0.4,0.6,0.7,1.3,0.9,1.9l-0.8-0.2c-0.2,0.6-0.5,1.3-0.9,2h-2v13.2h1.5v-1.2h4.3v0.9h1.5v-6.1h-5.8v-1.7h5.3v-5.1h-3.2
	c0.3-0.5,0.6-1.1,0.9-1.7l-0.1,0l0.9-0.2c-0.2-0.5-0.5-1.2-0.9-1.8h4c-0.5,0.5-0.9,1-1.5,1.4c0.4,0.2,1.1,0.6,1.4,0.8
	c0.7-0.6,1.4-1.3,2-2.2h1.7c0.6,0.8,1.2,1.7,1.5,2.3l1.5-0.5c-0.2-0.5-0.7-1.2-1.2-1.8h4.8v-1.4H1095.8z M1122.7,27h-4.2v2.3
	c0,1.3,0.5,1.6,2.1,1.6h2.9c1.2,0,1.6-0.4,1.7-1.9c-0.4-0.1-0.9-0.3-1.2-0.5c-0.1,1-0.2,1.2-0.7,1.2h-2.6c-0.7,0-0.9-0.1-0.9-0.5
	v-1.1h4.3v-3.7h-6.1v1.1h4.7V27z M1115.6,27h-4.3v2.3c0,1.3,0.4,1.6,2.1,1.6h2.7c1.1,0,1.5-0.4,1.7-1.8c-0.4-0.1-0.9-0.2-1.2-0.5
	c-0.1,1-0.2,1.1-0.7,1.1h-2.4c-0.7,0-0.8-0.1-0.8-0.5v-1.1h4.3v-3.7h-6.1v1.1h4.7V27z M1116,34.1h3.6v2.1h-3.6V34.1z M1125.1,36.2
	h-4v-2.1h3.3v-1.3h-3.3v-1.6h-1.6v1.6h-3.6v-1.6h-1.5v1.6h-3.3v1.3h3.3v2.1h-4v1.3h14.6V36.2z M1124.8,40.4c-1-0.8-2.8-1.9-4.4-2.6
	l-1.2,0.7c1.5,0.8,3.1,1.8,4,2.6L1124.8,40.4z M1115.2,37.7c-1,0.9-2.6,1.7-4.1,2.3c0.4,0.2,0.9,0.7,1.2,1c1.4-0.7,3.2-1.8,4.3-2.8
	L1115.2,37.7z M1110.1,27.8c-0.6-1.1-2.1-2.6-3.4-3.7l-1.3,0.8c1.3,1.1,2.7,2.6,3.3,3.7L1110.1,27.8z M1109.6,32.2h-4.2v1.5h2.7v5.7
	c-1,0.9-2,1.8-3,2.5l0.9,1.5c1.1-1,2-1.9,3-2.9c1.4,1.7,3.4,2.5,6.3,2.6c2.5,0.1,7.2,0,9.7-0.1c0.1-0.5,0.3-1.2,0.5-1.5
	c-2.7,0.2-7.8,0.2-10.3,0.1c-2.6-0.1-4.5-0.9-5.6-2.5V32.2z"/>
</svg>
