<?xml version="1.0" encoding="utf-8"?>
<!-- Generator: Adobe Illustrator 25.2.1, SVG Export Plug-In . SVG Version: 6.00 Build 0)  -->
<svg version="1.1" id="圖層_1" xmlns="http://www.w3.org/2000/svg" xmlns:xlink="http://www.w3.org/1999/xlink" x="0px" y="0px"
	 viewBox="0 0 386 54" style="enable-background:new 0 0 386 54;" xml:space="preserve">
<style type="text/css">
	.st0{fill:none;stroke:#ACACAC;stroke-linejoin:round;}
	.st1{fill:none;stroke:#00A19B;stroke-width:4;stroke-linecap:round;stroke-linejoin:round;}
	.st2{fill:#00A19B;}
	.st3{fill:url(#SVGID_1_);}
	.st4{fill:#FFFFFF;}
	.st5{fill:#4D4D4D;}
	.st6{fill:#E73525;}
</style>
<path class="st0" d="M2,53h375"/>
<path class="st1" d="M14,51h63"/>
<path class="st2" d="M19.1,25.7v1c0,0.9,0.2,1.1,1,1.1h1c0.6,0,0.9-0.3,1-1.3c-0.3-0.1-0.6-0.2-0.8-0.3c0,0.7-0.1,0.8-0.3,0.8h-0.7
	C20,27,20,27,20,26.8v-1h1.9v-0.9h-2.9v-1.2h2.4v-0.9h-2.4v-1.1H18v1.1h-2.3v0.9H18v1.2H15v0.9h1.9c-0.2,1-0.7,1.5-2.1,1.9
	c0.2,0.2,0.4,0.5,0.5,0.7c1.7-0.4,2.3-1.2,2.6-2.6H19.1z M16,36.2c0.8-0.7,1.5-1.9,2-2.9L16.8,33c-0.4,1.1-1.2,2.2-2,2.8L16,36.2z
	 M19.5,33.4c0.2,0.9,0.3,2,0.3,2.7l1.2-0.1c0-0.7-0.2-1.8-0.4-2.6L19.5,33.4z M22.8,33.4c0.4,0.9,0.8,2,0.9,2.7l1.2-0.2
	c-0.1-0.7-0.5-1.8-0.9-2.7L22.8,33.4z M26,33.3c0.8,0.9,1.6,2.1,2,2.9l1.2-0.4c-0.4-0.8-1.3-2-2-2.9L26,33.3z M28,31.4
	c-0.1,0-0.2,0-0.2,0c0-0.1-0.1-0.3-0.1-0.7v-6.7h-2.6c0-0.7,0-1.5,0-2.3h-1.1c0,0.8,0,1.6,0,2.3h-1.8V25H24c0,0.7-0.1,1.4-0.2,2.1
	c-0.4-0.3-0.8-0.5-1.2-0.7l-0.5,0.8c0.5,0.3,1,0.6,1.5,1c-0.3,1.3-0.8,2.4-1.7,3.2l0-0.7c-1,0.1-1.9,0.2-2.9,0.3v-1.3h2.5v-0.9h-2.5
	v-1.2H18v1.2h-2.5v0.9H18v1.5c-1.2,0.1-2.2,0.2-3.1,0.3l0.1,1c1.7-0.2,4.2-0.4,6.6-0.7l-0.2,0.1c0.2,0.2,0.6,0.5,0.8,0.8
	c1.2-0.9,1.9-2.2,2.4-3.8c0.5,0.4,1,0.8,1.3,1.2l0.6-1c-0.4-0.4-1-0.9-1.6-1.3c0.1-0.8,0.2-1.8,0.3-2.7h1.5v5.6
	c0,1.1,0.1,1.3,0.3,1.5c0.2,0.2,0.5,0.3,0.8,0.3h0.6c0.3,0,0.5-0.1,0.7-0.2c0.2-0.1,0.3-0.4,0.4-0.7c0.1-0.3,0.1-1.3,0.1-2.2
	c-0.3-0.1-0.6-0.2-0.8-0.4c0,0.9,0,1.6,0,1.9c0,0.3-0.1,0.5-0.1,0.5c-0.1,0.1-0.2,0.1-0.3,0.1H28z M36.1,23.4v1.4h-3.4v-1.4H36.1z
	 M32.7,27.2v-1.5h3.4v1.5H32.7z M37.2,22.4h-5.7v13.9h1.2v-8h4.5V22.4z M39.8,27.2v-1.6h3.6v1.6H39.8z M43.4,23.4v1.4h-3.6v-1.4
	H43.4z M44.6,22.4h-5.9v5.9h4.7v6.4c0,0.3-0.1,0.4-0.4,0.4c-0.3,0-1.4,0-2.5,0c0.2,0.3,0.4,0.9,0.4,1.2c1.4,0,2.4,0,2.9-0.2
	c0.5-0.2,0.7-0.6,0.7-1.4V22.4z M61.1,28.6v-1.2h-6.8V25h5.1v-1.1h-5.1v-2.3h-1.2v5.9h-6.2v1.2h6.2v7.6h1.2V31
	c1.8,0.5,3.9,1.3,5,1.9l0.6-1.1c-1.3-0.6-3.7-1.4-5.4-1.9l-0.2,0.4v-1.7H61.1z M66.1,26.9h10.3v-1.2h-4.5v-4.1h-1.2v4.1h-4.5V22
	h-1.2v5.3c0,2.8-0.2,5.7-2.2,8c0.3,0.2,0.7,0.6,0.9,0.9c1.5-1.6,2.1-3.6,2.4-5.6h6.7v5.5h1.3v-6.7h-7.9c0-0.7,0.1-1.4,0.1-2.2V26.9z
	"/>
<path d="M98.6,30.1v-3.3h3v3.3H98.6z M102.8,31.9v-5.2h2.5v-1.1h-2.5v-3.7h-1.2v3.7h-3v-3.9h-1.2v3.9h-3V22h-1.2v3.6h-2.4v1.1h2.4
	v9.5h1.2V35h10.3v-1.2H94.4v-7.2h3V32h1.2v-0.8h3v0.7H102.8z M111,31.6c0,1.2-0.3,2.8-3.1,3.8c0.3,0.2,0.6,0.7,0.8,1
	c3.1-1.2,3.5-3.2,3.5-4.7v-1H111V31.6z M109.7,25.8h3.7v1.7h-3.7V25.8z M109.7,23.1h3.7v1.7h-3.7V23.1z M118.3,24.8h-3.7v-1.7h3.7
	V24.8z M118.3,27.5h-3.7v-1.7h3.7V27.5z M119.5,28.5v-6.4h-10.9v6.4h3.2c-1.2,1.2-3.1,2.3-5,2.8c0.3,0.2,0.6,0.7,0.8,1
	c2.1-0.7,4.3-2.1,5.6-3.8h1.8c0.6,0.8,1.4,1.5,2.3,2.1h-1.2v5.5h1.2v-5.5c1,0.7,2.1,1.2,3.3,1.6c0.2-0.3,0.5-0.8,0.8-1
	c-1.9-0.5-3.8-1.5-5-2.8H119.5z M137.1,28.6v-1.2h-6.8V25h5.1v-1.1h-5.1v-2.3h-1.2v5.9h-6.2v1.2h6.2v7.6h1.2V31
	c1.8,0.5,3.9,1.3,5,1.9l0.6-1.1c-1.3-0.6-3.7-1.4-5.4-1.9l-0.2,0.4v-1.7H137.1z M139.4,36h-1.2l4.8-12.4h1.2L139.4,36z M156.3,27.2
	h-1.9v-2.7h1.9V27.2z M156.3,31h-1.9v-2.7h1.9V31z M148.8,28.3h1.8V31h-1.8V28.3z M153.4,28.3V31h-1.9v-2.7H153.4z M151.6,27.2v-2.7
	h1.9v2.7H151.6z M148.8,24.5h1.8v2.7h-1.8V24.5z M147.7,27.2h-2.2v1.1h2.2V31h-2v1.1h13.7V31h-2v-2.7h2.2v-1.1h-2.2v-2.7h1.6v-1.1
	H149c0.3-0.5,0.6-1,0.8-1.5l-1.1-0.3c-0.8,1.6-2,3.2-3.4,4.2c0.3,0.2,0.8,0.6,1,0.8c0.5-0.4,1-0.9,1.4-1.4V27.2z M146.5,36.2
	c0.9-0.8,1.6-2,2-3.2l-1.1-0.3c-0.4,1.2-1.2,2.4-2,3L146.5,36.2z M150.1,33.1c0.2,1,0.3,2.2,0.3,2.9l1.1-0.2c0-0.7-0.2-1.9-0.4-2.9
	L150.1,33.1z M153.4,33.2c0.4,0.9,0.8,2.2,1,2.9l1.2-0.2c-0.2-0.8-0.6-2-1-2.9L153.4,33.2z M156.6,33c0.8,1,1.7,2.4,2.1,3.2l1.2-0.4
	c-0.4-0.9-1.4-2.2-2.2-3.1L156.6,33z M166.1,22.2l-0.2,0H162v13.9h1.1V23.4h2.4c-0.4,1.1-0.9,2.6-1.4,3.7c1.2,1.2,1.6,2.3,1.6,3.2
	c0,0.5-0.1,0.9-0.4,1.1c-0.2,0.1-0.3,0.1-0.6,0.1c-0.3,0-0.6,0-1,0c0.2,0.3,0.3,0.8,0.3,1.1c0.4,0,0.8,0,1.2,0
	c0.4,0,0.7-0.1,0.9-0.3c0.5-0.3,0.7-1,0.7-1.8c0-1-0.3-2.1-1.6-3.4c0.6-1.2,1.3-2.9,1.8-4.2L166.1,22.2z M168.9,26.3h4.8v2h-4.8
	V26.3z M173.7,23.4v2h-4.8v-2H173.7z M174.6,29.8c-0.5,0.6-1.4,1.3-2.1,1.9c-0.4-0.7-0.7-1.5-0.9-2.3h3.3v-7.1h-7.2v12.2
	c-0.7,0.1-1.3,0.2-1.8,0.3l0.4,1.2c1.6-0.4,3.7-0.8,5.7-1.3l-0.1-1c-1,0.2-2.1,0.4-3,0.6v-4.9h1.7c0.8,3.1,2.2,5.6,4.6,6.8
	c0.2-0.3,0.5-0.8,0.8-1c-1.2-0.6-2.2-1.5-3-2.7c0.8-0.6,1.8-1.4,2.6-2.1L174.6,29.8z M191.7,28.6v-1.2h-6.8V25h5.1v-1.1h-5.1v-2.3
	h-1.2v5.9h-6.2v1.2h6.2v7.6h1.2V31c1.8,0.5,3.9,1.3,5,1.9l0.6-1.1c-1.3-0.6-3.7-1.4-5.4-1.9l-0.2,0.4v-1.7H191.7z"/>
<path d="M212.2,33.5l-2.5,0.5v-4.7h2.4v-1h-2.4v-1.7h2v-1h-4.5c0.9-1,1.6-2,2.1-2.8c0.9,0.8,2,2,2.5,2.8l0.8-0.9
	c-0.6-0.8-1.9-2.1-2.9-3h-1.1c-0.6,1.3-1.6,2.9-3.1,4.1c0.2,0.2,0.6,0.5,0.8,0.8c0.2-0.2,0.4-0.4,0.7-0.6v0.7h1.8v1.7H206v1h2.6v4.9
	c-1.1,0.2-2,0.4-2.8,0.5l0.3,1.1c1.7-0.3,4-0.8,6.2-1.2L212.2,33.5z M206.3,30.4c0.3,0.9,0.6,2.2,0.7,3l0.9-0.3
	c-0.1-0.8-0.4-2-0.7-2.9L206.3,30.4z M210.9,33.2c0.3-0.8,0.7-1.9,1-2.9L211,30c-0.2,0.9-0.5,2.1-0.8,2.9L210.9,33.2z M214,26.2h4.4
	v1.9H214V26.2z M218.4,23.4v1.8H214v-1.8H218.4z M219.4,29.8c-0.5,0.5-1.3,1.2-2,1.8c-0.3-0.8-0.6-1.6-0.8-2.4h3v-6.8h-6.7v12.3
	c-0.5,0.1-0.9,0.2-1.3,0.3l0.3,1.1c1.5-0.3,3.4-0.8,5.2-1.3l-0.1-1.1c-1,0.2-2,0.5-3,0.7v-5.3h1.5c0.7,3.3,2,5.9,4.4,7.2
	c0.2-0.3,0.5-0.8,0.8-1c-1.2-0.6-2.1-1.6-2.8-2.8c0.8-0.5,1.7-1.2,2.4-1.9L219.4,29.8z M235.8,22.6H228v1.1h7.8V22.6z M225.3,21.6
	c-0.8,1.1-2.3,2.6-3.7,3.5c0.2,0.2,0.5,0.7,0.7,0.9c1.4-1,3.1-2.6,4.1-4L225.3,21.6z M225.9,25c-1.1,1.8-2.8,3.6-4.5,4.8
	c0.2,0.2,0.7,0.8,0.8,1c0.6-0.5,1.2-1,1.8-1.7v7.1h1.2v-8.4c0.7-0.8,1.3-1.6,1.8-2.4L225.9,25z M236.2,27h-9v1.1h5.3v6.6
	c0,0.3-0.1,0.3-0.4,0.4c-0.3,0-1.4,0-2.5,0c0.2,0.3,0.3,0.8,0.4,1.2c1.6,0,2.5,0,3-0.2c0.5-0.2,0.7-0.6,0.7-1.3v-6.6h2.4V27z
	 M252.1,28.6v-1.2h-6.8V25h5.1v-1.1h-5.1v-2.3h-1.2v5.9h-6.2v1.2h6.2v7.6h1.2V31c1.8,0.5,3.9,1.3,5,1.9l0.6-1.1
	c-1.3-0.6-3.7-1.4-5.4-1.9l-0.2,0.4v-1.7H252.1z"/>
<path d="M269.5,25.6h-1.8v-2.3h1.8V25.6z M267.7,32.4v-2.5h1.8v2.2L267.7,32.4z M267.7,26.6h1.8v2.3h-1.8V26.6z M271.4,23.4v-1.1
	h-5.6v1.1h0.8v9.3l-1,0.2l0.2,1.1c1.1-0.2,2.4-0.5,3.6-0.8v3.1h1V23.4H271.4z M274,31.7c0,0.2,0,0.4,0,0.6h-1.4v-2.6h-0.9v4.2h0.9
	v-0.7h1.3c-0.2,0.8-0.8,1.6-2,2.2c0.2,0.2,0.5,0.6,0.6,0.8c2.2-1.1,2.5-2.7,2.5-4.5v-2.5h-1V31.7z M274,26.7
	c0.2,0.3,0.4,0.6,0.5,0.9l-1.5,0.1c0.8-1.1,1.7-2.7,2.4-3.9l-0.9-0.3c-0.2,0.5-0.5,1.2-0.9,1.8c-0.2-0.3-0.4-0.5-0.7-0.8
	c0.5-0.7,1-1.7,1.5-2.6l-1-0.3c-0.2,0.7-0.7,1.6-1.1,2.4c-0.1-0.1-0.3-0.2-0.4-0.3l-0.5,0.7c0.6,0.5,1.3,1.3,1.7,1.9
	c-0.4,0.6-0.7,1.2-1.1,1.7l-0.9,0.1l0.1,0.9c1.1-0.1,2.3-0.2,3.6-0.3c0.1,0.2,0.1,0.4,0.1,0.6l0.8-0.3c-0.1-0.6-0.6-1.6-1-2.3
	L274,26.7z M280.4,28.9c-0.1-0.7-0.6-1.7-1.2-2.5l-0.8,0.3c0.2,0.3,0.4,0.6,0.5,1l-1.6,0.1c0.8-1.2,1.7-2.7,2.4-3.9l-1-0.4
	c-0.2,0.5-0.5,1.2-0.9,1.8c-0.2-0.3-0.4-0.5-0.7-0.8c0.5-0.7,1-1.7,1.5-2.6l-1-0.3c-0.2,0.7-0.7,1.6-1.1,2.3
	c-0.1-0.1-0.3-0.3-0.4-0.4l-0.5,0.7c0.7,0.5,1.4,1.3,1.8,1.9c-0.4,0.6-0.7,1.2-1,1.6l-0.7,0l0.2,0.9c1-0.1,2.2-0.2,3.5-0.3
	c0.1,0.3,0.2,0.5,0.2,0.7L280.4,28.9z M278.8,32.3h-1.5v-3.2h-1v7h1v-3h1.5v0.7h0.9v-4.1h-0.9V32.3z M287.4,34.5v-3.9h6.6v3.9H287.4
	z M291.4,24.3c-0.7,1.4-1.7,2.7-2.9,3.7c-0.7-0.8-2-1.8-3-2.6c0.4-0.4,0.8-0.8,1.1-1.2H291.4z M295.1,29.5h-6.5
	c1.9-1.6,3.4-3.5,4.4-5.9l-0.8-0.4l-0.2,0.1h-4.5c0.3-0.5,0.6-0.9,0.9-1.4l-1.3-0.3c-0.9,1.7-2.8,3.8-5.4,5.2
	c0.3,0.2,0.7,0.6,0.8,0.9c0.8-0.4,1.5-0.9,2.1-1.5c1.1,0.8,2.2,1.8,2.9,2.6c-1.8,1.4-3.9,2.5-5.9,3.1c0.3,0.2,0.6,0.7,0.7,1
	c1.3-0.4,2.7-1,3.9-1.8v5.1h1.2v-0.6h6.6v0.7h1.2V29.5z M312.1,28.6v-1.2h-6.8V25h5.1v-1.1h-5.1v-2.3h-1.2v5.9h-6.2v1.2h6.2v7.6h1.2
	V31c1.8,0.5,3.9,1.3,5,1.9l0.6-1.1c-1.3-0.6-3.7-1.4-5.4-1.9l-0.2,0.4v-1.7H312.1z"/>
<linearGradient id="SVGID_1_" gradientUnits="userSpaceOnUse" x1="320" y1="30.5" x2="204.5" y2="30.5" gradientTransform="matrix(1 0 0 -1 0 56)">
	<stop  offset="0.1719" style="stop-color:#FFFFFF"/>
	<stop  offset="1" style="stop-color:#FFFFFF;stop-opacity:0"/>
</linearGradient>
<rect x="89" class="st3" width="231" height="51"/>
<path class="st2" d="M309,0.5h52c1.9,0,3.5,1.6,3.5,3.5v40c0,1.9-1.6,3.5-3.5,3.5h-52c-1.9,0-3.5-1.6-3.5-3.5V4
	C305.5,2.1,307.1,0.5,309,0.5z"/>
<path class="st4" d="M326.1,21.8h3.5v1.5h-2.8v6.4h1.1v-5.4h1.7v6.9h1.1v-6.9h1.9v4.1c0,0.1,0,0.2-0.2,0.2s-0.6,0-1.2,0
	c0.1,0.3,0.3,0.7,0.3,1c0.8,0,1.4,0,1.8-0.2c0.4-0.2,0.5-0.5,0.5-1v-5.2h-3v-1.5h3.5v-1h-8.1V21.8z M324.5,24.2h-2.7v-1.8h2.7V24.2z
	 M324.9,27.4v1.9h-3.1v-1.9H324.9z M328.8,17.8c0.2-0.3,0.4-0.7,0.5-1l-1.1-0.3c-0.3,0.8-0.8,1.6-1.4,2.3v-1h-4.2
	c0.2-0.3,0.3-0.7,0.5-1l-1.1-0.3c-0.5,1.2-1.3,2.5-2.3,3.3c0.3,0.1,0.8,0.5,1,0.6c0.5-0.4,0.9-1,1.4-1.7h0.7c0.3,0.4,0.5,1,0.7,1.4
	l-0.6-0.1c-0.1,0.4-0.4,1-0.7,1.4h-1.5v9.6h1.1v-0.9h3.1v0.6h1.1v-4.5h-4.2v-1.2h3.9v-3.7h-2.3c0.2-0.4,0.4-0.8,0.7-1.2l-0.1,0
	l0.6-0.2c-0.1-0.4-0.4-0.8-0.6-1.3h2.9c-0.3,0.4-0.7,0.7-1.1,1c0.3,0.1,0.8,0.4,1,0.6c0.5-0.4,1-1,1.5-1.6h1.3
	c0.4,0.6,0.9,1.2,1.1,1.7l1.1-0.4c-0.2-0.4-0.5-0.9-0.8-1.3h3.5v-1H328.8z M348.4,19.1h-3.1v1.7c0,1,0.3,1.2,1.5,1.2h2.1
	c0.8,0,1.2-0.3,1.3-1.4c-0.3-0.1-0.7-0.2-0.9-0.3c0,0.8-0.1,0.8-0.5,0.8H347c-0.5,0-0.6-0.1-0.6-0.4v-0.8h3.1v-2.7H345v0.8h3.4V19.1
	z M343.3,19.1h-3.1v1.7c0,1,0.3,1.2,1.5,1.2h2c0.8,0,1.1-0.3,1.2-1.3c-0.3,0-0.7-0.2-0.9-0.3c0,0.7-0.1,0.8-0.5,0.8h-1.7
	c-0.5,0-0.6-0.1-0.6-0.4v-0.8h3.2v-2.7h-4.4v0.8h3.4V19.1z M343.5,24.2h2.6v1.5h-2.6V24.2z M350.2,25.8h-2.9v-1.5h2.4v-0.9h-2.4
	v-1.2h-1.1v1.2h-2.6v-1.2h-1.1v1.2H340v0.9h2.4v1.5h-2.9v0.9h10.6V25.8z M349.9,28.8c-0.8-0.6-2.1-1.4-3.2-1.9l-0.8,0.5
	c1.1,0.6,2.3,1.3,2.9,1.9L349.9,28.8z M342.9,26.9c-0.7,0.6-1.9,1.2-3,1.7c0.3,0.2,0.7,0.5,0.9,0.8c1.1-0.5,2.3-1.3,3.2-2.1
	L342.9,26.9z M339.2,19.6c-0.4-0.8-1.5-1.9-2.4-2.7l-0.9,0.6c0.9,0.8,2,1.9,2.4,2.7L339.2,19.6z M338.9,22.9h-3.1V24h2v4.1
	c-0.7,0.7-1.5,1.3-2.2,1.8l0.6,1.1c0.8-0.7,1.5-1.4,2.2-2.1c1,1.3,2.4,1.8,4.6,1.9c1.8,0.1,5.3,0,7.1,0c0-0.3,0.2-0.9,0.4-1.1
	c-2,0.1-5.7,0.2-7.5,0.1c-1.9-0.1-3.3-0.6-4-1.8V22.9z"/>
<path class="st5" d="M375.7,12H374V5.5l-2,0.6V4.7l3.5-1.3h0.2V12z M385.3,12h-5.8v-1.2l2.8-2.9c0.4-0.4,0.7-0.8,0.8-1.1
	c0.2-0.3,0.3-0.6,0.3-0.9c0-0.4-0.1-0.7-0.3-0.9c-0.2-0.2-0.5-0.3-0.8-0.3c-0.4,0-0.7,0.1-0.9,0.4c-0.2,0.3-0.3,0.6-0.3,1h-1.7
	c0-0.5,0.1-1,0.4-1.4c0.2-0.4,0.6-0.8,1.1-1c0.5-0.2,1-0.4,1.5-0.4c0.9,0,1.6,0.2,2,0.6c0.5,0.4,0.7,1,0.7,1.8
	c0,0.4-0.1,0.9-0.3,1.3s-0.6,0.9-1.1,1.5l-1.9,2h3.7V12z"/>
<path class="st5" d="M4.7,15H3V8.5L1,9.1V7.7l3.5-1.3h0.2V15z M14.3,15H8.5v-1.2l2.8-2.9c0.4-0.4,0.7-0.8,0.8-1.1
	c0.2-0.3,0.3-0.6,0.3-0.9c0-0.4-0.1-0.7-0.3-0.9c-0.2-0.2-0.5-0.3-0.8-0.3c-0.4,0-0.7,0.1-0.9,0.4c-0.2,0.3-0.3,0.6-0.3,1H8.3
	c0-0.5,0.1-1,0.4-1.4c0.2-0.4,0.6-0.8,1.1-1c0.5-0.2,1-0.4,1.5-0.4c0.9,0,1.6,0.2,2,0.6C13.8,7.4,14,8,14,8.8c0,0.4-0.1,0.9-0.3,1.3
	c-0.2,0.4-0.6,0.9-1.1,1.5l-1.9,2h3.7V15z"/>
<path class="st5" d="M81.7,15H80V8.5l-2,0.6V7.7l3.5-1.3h0.2V15z M91.3,15h-5.8v-1.2l2.8-2.9c0.4-0.4,0.7-0.8,0.8-1.1
	c0.2-0.3,0.3-0.6,0.3-0.9c0-0.4-0.1-0.7-0.3-0.9c-0.2-0.2-0.5-0.3-0.8-0.3c-0.4,0-0.7,0.1-0.9,0.4c-0.2,0.3-0.3,0.6-0.3,1h-1.7
	c0-0.5,0.1-1,0.4-1.4c0.2-0.4,0.6-0.8,1.1-1c0.5-0.2,1-0.4,1.5-0.4c0.9,0,1.6,0.2,2,0.6C90.8,7.4,91,8,91,8.8c0,0.4-0.1,0.9-0.3,1.3
	c-0.2,0.4-0.6,0.9-1.1,1.5l-1.9,2h3.7V15z"/>
<path class="st6" d="M365,26l5,2.9v-5.8L365,26z M377,26l-5-2.9v5.8L377,26z M369.5,26.5h3v-1h-3V26.5z"/>
<path class="st6" d="M2,26l5,2.9v-5.8L2,26z M14,26l-5-2.9v5.8L14,26z M6.5,26.5h3v-1h-3V26.5z"/>
<path class="st6" d="M79,26l5,2.9v-5.8L79,26z M91,26l-5-2.9v5.8L91,26z M83.5,26.5h3v-1h-3V26.5z"/>
</svg>
