<svg width="88" height="65" viewBox="0 0 88 65" fill="none" xmlns="http://www.w3.org/2000/svg">
<path d="M51.408 8.104H48.336V9.768C48.336 10.728 48.672 10.968 49.856 10.968H52C52.848 10.968 53.152 10.68 53.264 9.608C52.976 9.544 52.592 9.416 52.384 9.272C52.336 10.024 52.256 10.12 51.872 10.12H49.968C49.44 10.12 49.344 10.056 49.344 9.752V8.936H52.464V6.232H48.032V7.064H51.408V8.104ZM46.256 8.104H43.12V9.768C43.12 10.728 43.424 10.968 44.608 10.968H46.592C47.408 10.968 47.712 10.696 47.824 9.656C47.536 9.608 47.152 9.48 46.944 9.32C46.896 10.024 46.816 10.12 46.432 10.12H44.704C44.192 10.12 44.112 10.056 44.112 9.768V8.936H47.264V6.232H42.832V7.064H46.256V8.104ZM46.512 13.24H49.136V14.76H46.512V13.24ZM53.168 14.76H50.272V13.24H52.672V12.328H50.272V11.176H49.136V12.328H46.512V11.176H45.408V12.328H43.04V13.24H45.408V14.76H42.528V15.688H53.168V14.76ZM52.928 17.816C52.176 17.224 50.864 16.456 49.696 15.896L48.848 16.424C49.952 16.984 51.104 17.736 51.776 18.328L52.928 17.816ZM45.936 15.864C45.232 16.504 44.048 17.112 42.96 17.544C43.216 17.704 43.648 18.088 43.84 18.296C44.896 17.784 46.176 17 46.992 16.232L45.936 15.864ZM42.224 8.648C41.776 7.848 40.72 6.744 39.776 5.992L38.864 6.6C39.792 7.384 40.816 8.52 41.232 9.32L42.224 8.648ZM41.856 11.88H38.784V13H40.752V17.128C40.048 17.8 39.264 18.472 38.592 18.968L39.216 20.072C39.984 19.368 40.704 18.696 41.376 17.992C42.368 19.256 43.824 19.832 45.936 19.912C47.744 19.976 51.2 19.944 53.008 19.864C53.056 19.528 53.248 19 53.392 18.744C51.44 18.872 47.712 18.92 45.904 18.84C44.032 18.76 42.608 18.216 41.856 17.016V11.88ZM68.568 11.432H63.272V9.896H68.568V11.432ZM68.568 13.864H63.272V12.312H68.568V13.864ZM68.568 16.312H63.272V14.744H68.568V16.312ZM62.152 8.984V17.24H69.72V8.984H65.96C66.12 8.504 66.312 7.944 66.472 7.4H70.344V6.376H61.368V7.4H65.128C65.032 7.912 64.904 8.488 64.776 8.984H62.152ZM61.48 14.12L59.176 14.904V8.568H61.304V7.464H55.896V8.568H57.976V15.304C57.064 15.592 56.232 15.864 55.56 16.072L56.04 17.192C57.608 16.648 59.704 15.896 61.688 15.176L61.48 14.12ZM63.864 17.496C63.08 18.184 61.448 18.968 60.072 19.384C60.296 19.624 60.664 19.992 60.824 20.232C62.216 19.768 63.88 18.952 64.904 18.152L63.864 17.496ZM66.504 18.2C67.592 18.776 68.984 19.656 69.656 20.248L70.6 19.528C69.864 18.936 68.456 18.088 67.384 17.56L66.504 18.2ZM72.768 12.12V13.416H87.296V12.12H72.768Z" fill="#1C1C1C"/>
<path d="M22 35L26.966 37.9449L27.0333 32.1717L22 35ZM43.4375 35.25L38.4715 32.3051L38.4042 38.0783L43.4375 35.25ZM26.4939 35.5524L38.932 35.6975L38.9436 34.6976L26.5055 34.5525L26.4939 35.5524Z" fill="#E73525"/>
<path d="M23.2734 62H22.002V53.5713L19.4521 54.5078V53.3594L23.0752 51.999H23.2734V62ZM33.5 62H26.9785V61.0908L30.4238 57.2627C30.9342 56.6839 31.2852 56.2145 31.4766 55.8545C31.6725 55.4899 31.7705 55.1139 31.7705 54.7266C31.7705 54.207 31.6133 53.7809 31.2988 53.4482C30.9844 53.1156 30.5651 52.9492 30.041 52.9492C29.4121 52.9492 28.9222 53.1292 28.5713 53.4893C28.2249 53.8447 28.0518 54.3415 28.0518 54.9795H26.7871C26.7871 54.0635 27.0811 53.3229 27.6689 52.7578C28.2614 52.1927 29.0521 51.9102 30.041 51.9102C30.9661 51.9102 31.6976 52.154 32.2354 52.6416C32.7731 53.1247 33.042 53.7695 33.042 54.5762C33.042 55.556 32.4176 56.7227 31.1689 58.0762L28.5029 60.9678H33.5V62ZM41.2178 58.3838C41.2178 59.5094 40.9603 60.4163 40.4453 61.1045C39.9303 61.7926 39.2331 62.1367 38.3535 62.1367C37.4557 62.1367 36.7493 61.8519 36.2344 61.2822V64.8438H34.9697V54.6035H36.125L36.1865 55.4238C36.7015 54.7858 37.417 54.4668 38.333 54.4668C39.2217 54.4668 39.9235 54.8018 40.4385 55.4717C40.958 56.1416 41.2178 57.0736 41.2178 58.2676V58.3838ZM39.9531 58.2402C39.9531 57.4062 39.7754 56.7477 39.4199 56.2646C39.0645 55.7816 38.5768 55.54 37.957 55.54C37.1914 55.54 36.6172 55.8796 36.2344 56.5586V60.0928C36.6126 60.7673 37.1914 61.1045 37.9707 61.1045C38.5768 61.1045 39.0576 60.8652 39.4131 60.3867C39.7731 59.9036 39.9531 59.1882 39.9531 58.2402ZM45.2031 57.3037L46.8438 54.6035H48.3203L45.9004 58.2607L48.3955 62H46.9326L45.2236 59.2314L43.5146 62H42.0449L44.54 58.2607L42.1201 54.6035H43.583L45.2031 57.3037Z" fill="black"/>
<circle cx="12" cy="12" r="12" fill="#ACACAC"/>
<circle cx="12" cy="12" r="4" fill="white"/>
</svg>
