<svg xmlns="http://www.w3.org/2000/svg" viewBox="0 0 390 214.28"><defs><style>.cls-1{fill:#f4f8fa;}.cls-2{fill:#d8d8d8;}.cls-3{fill:#00a19b;}.cls-4{isolation:isolate;}.cls-5{fill:#fff;}.cls-6{fill:#1c1c1c;}.cls-7{fill:#d32432;}.cls-8{fill:none;stroke:#d32432;stroke-miterlimit:10;}</style></defs><g id="圖層_2" data-name="圖層 2"><g id="圖層_1-2" data-name="圖層 1"><rect class="cls-1" width="390" height="214.28"/><g id="Group_3885" data-name="Group 3885"><g id="Group_3862" data-name="Group 3862"><path id="Rectangle_1235" data-name="Rectangle 1235" class="cls-2" d="M82,124.65H301.28a2,2,0,0,1,2,2h0a2,2,0,0,1-2,2H82a2,2,0,0,1-2-2h0A2,2,0,0,1,82,124.65Z"/><path id="Rectangle_1249" data-name="Rectangle 1249" class="cls-3" d="M82,124.65h34.85a2,2,0,0,1,2,2h0a2,2,0,0,1-2,2H82a2,2,0,0,1-2-2h0A2,2,0,0,1,82,124.65Z"/></g><g id="Group_3914" data-name="Group 3914"><path id="Rectangle_1236" data-name="Rectangle 1236" class="cls-3" d="M121.2,110.65h71a16,16,0,0,1,16,16h0a16,16,0,0,1-16,16h-71a16,16,0,0,1-16-16h0A16,16,0,0,1,121.2,110.65Z"/><g id="Group_3830" data-name="Group 3830"><g id="產品選擇" class="cls-4"><g class="cls-4"><path class="cls-5" d="M138,125.6v2.09a8,8,0,0,1-1.5,5.17,3.34,3.34,0,0,0-.78-.67,6.79,6.79,0,0,0,1.27-4.52v-2.94h1.76a4.15,4.15,0,0,0-.5-.52c1.11-.21,2.38-.49,3.59-.82-1.07-.31-2.16-.59-3.15-.81l.61-.51H137v-.85h5.17c-.24-.35-.51-.73-.76-1l.74-.38a11.48,11.48,0,0,1,1.07,1.42h4.69v.85h-2.13l.56.34a14.89,14.89,0,0,1-2.14.94c1,.3,2,.61,2.68.86l-.57.52h2v.87Zm10.63,5.8v.87H138.22v-.87h4.58V130h-3.26v-.84h3.26V127.9h-2.93a7.68,7.68,0,0,1-1.33,1.72,4.46,4.46,0,0,0-.54-.85,7.9,7.9,0,0,0,1.85-2.93l.89.25c-.12.32-.25.63-.39,1h2.45v-1.19h1V127h3.77v.86h-3.77v1.25h3.46V130h-3.46v1.41ZM146,124.73c-.81-.3-1.84-.64-3-1-1.26.41-2.59.73-3.78,1Zm-6.43-2.66c1.09.27,2.32.59,3.52.94a14.61,14.61,0,0,0,2.33-.94Z"/><path class="cls-5" d="M150.4,126.64h4.94v6h-1V132h-2.93v.75h-1Zm1,1V131h2.93v-3.32Zm8.66-2.48h-7.62v-4.64h7.62ZM159,121.52h-5.56v2.65H159Zm3.08,5.12v6h-1V132h-3.18v.75h-1v-6.09Zm-1,4.33v-3.32h-3.18V131Z"/><path class="cls-5" d="M167.16,126.69A12.37,12.37,0,0,1,166,130.2c.28.15.62.43,1.18.77a7.48,7.48,0,0,0,3.91.7c1.8,0,4.07-.14,5.63-.3a3.69,3.69,0,0,0-.3,1.08c-1.05.07-3.71.15-5.36.15a7.74,7.74,0,0,1-4.11-.77c-.56-.33-1.06-.81-1.38-.81s-.79.88-1.19,1.77l-.72-.94a7.85,7.85,0,0,1,1.12-1.35h0a8.82,8.82,0,0,0,1.31-3.11h-1.82a29.66,29.66,0,0,0,1.21-3.12H163.9v-.94h2.91c-.35,1-.8,2.18-1.19,3.15h.77l.17,0Zm-1.58-4c-.21-.62-.59-1.62-.89-2.36l.93-.25c.31.73.71,1.68.92,2.28Zm10.85,6.15H167.3V128h2.42v-1.29h-1.89v-.81h1.89v-1h1v1H173v-1h1v1h2v.81h-2V128h2.51Zm-5.05-5.3c-.07.24-.16.57-.2.76a15.86,15.86,0,0,0-3.39.71,4.07,4.07,0,0,0-.36-.82.82.82,0,0,0,.36-.8v-2.86h3.74v2.35h-2.9v1.07Zm-.16,5.66a12.34,12.34,0,0,1-2.87,1.9,4.84,4.84,0,0,0-.78-.64,10.19,10.19,0,0,0,2.73-1.57Zm-2.59-8v.94h2v-.94Zm2.06,6.78H173v-1.29h-2.27Zm2.72-3.35c-1,0-1.19-.35-1.19-1.29V120.5H176v2.36h-2.95v.5c0,.38.06.5.37.5h1.81a6.05,6.05,0,0,0,.88,0c0,.22.05.54.08.74a3.93,3.93,0,0,1-.94.07Zm1.82,6.4a14.33,14.33,0,0,0-2.71-1.71l.68-.49a18,18,0,0,1,2.94,1.71Zm-2.15-9.82v.94h2v-.94Z"/><path class="cls-5" d="M182,126.79c-.48.17-.94.34-1.4.48v4.17c0,.58-.14.86-.49,1a4.47,4.47,0,0,1-1.74.19,4.23,4.23,0,0,0-.31-1,11.68,11.68,0,0,0,1.32,0c.17,0,.24-.05.24-.23V127.6c-.55.2-1.08.37-1.57.52l-.25-1c.5-.14,1.13-.34,1.82-.56v-2.86H177.9v-1h1.68V120h1v2.78H182v1h-1.41v2.55l1.26-.42Zm8.53,4h-3.74v1.92h-1v-1.92H182V130h3.79v-1h-3.32v-.81h1.85a8.88,8.88,0,0,0-.47-1.14l.8-.19h-2.46V126h3.6v-1h-3v-.8h3v-.82H182.6v-3h7.54v3h-3.39v.82h3.09v.8h-3.09v1h3.56v.83h-2.23l.83.22-.63,1.11H190V129h-3.25v1h3.74Zm-5.7-9.59h-1.33v1.45h1.33Zm-.12,5.63a6,6,0,0,1,.55,1.29l-.14,0h2.26c.19-.41.45-.94.58-1.33Zm.94-4.18H187v-1.45h-1.4Zm2.23,0h1.42v-1.45h-1.42Z"/></g></g><g id="_2" data-name=" 2" class="cls-4"><g class="cls-4"><path class="cls-5" d="M123.93,130.9c3.22-2.82,4.7-4.86,4.7-6.63a1.8,1.8,0,0,0-1.89-2,2.88,2.88,0,0,0-2.13,1.19l-.74-.73a3.92,3.92,0,0,1,3-1.51,2.81,2.81,0,0,1,3,3c0,2-1.61,4.13-4,6.41.53,0,1.16-.09,1.68-.09h2.84v1.1h-6.45Z"/></g></g></g></g><g id="Group_3815" data-name="Group 3815"><rect id="Rectangle_1241" data-name="Rectangle 1241" class="cls-3" x="66.89" y="113.65" width="26.31" height="26.31" rx="13.15"/><g id="_1" data-name=" 1" class="cls-4"><g class="cls-4"><path class="cls-5" d="M77.39,130.74h2.28v-7.66H77.85v-.81a6.61,6.61,0,0,0,2.13-.73h1v9.2H83v1.07H77.39Z"/></g></g></g><g id="Group_3887" data-name="Group 3887"><rect id="Rectangle_1241-2" data-name="Rectangle 1241-2" class="cls-2" x="220.2" y="113.65" width="26.31" height="26.31" rx="13.15"/><g id="_3" data-name=" 3" class="cls-4"><g class="cls-4"><path class="cls-6" d="M229.87,130.59l.64-.84a3.41,3.41,0,0,0,2.55,1.17,1.89,1.89,0,0,0,2.09-1.9c0-1.24-.83-2.06-3.19-2.06v-1c2.11,0,2.84-.86,2.84-2a1.61,1.61,0,0,0-1.74-1.66,3.22,3.22,0,0,0-2.13,1l-.68-.82a4.12,4.12,0,0,1,2.87-1.23c1.72,0,3,.93,3,2.58a2.56,2.56,0,0,1-1.83,2.48v0a2.64,2.64,0,0,1,2.18,2.61,3,3,0,0,1-3.29,2.93A4.27,4.27,0,0,1,229.87,130.59Z"/></g></g></g><g id="Group_3888" data-name="Group 3888"><rect id="Rectangle_1241-3" data-name="Rectangle 1241-3" class="cls-2" x="258.5" y="113.65" width="26.31" height="26.31" rx="13.15"/><g id="_4" data-name=" 4" class="cls-4"><g class="cls-4"><path class="cls-6" d="M275.09,129h-1.36v2.83h-1.22V129h-4.46v-.84l4.27-6.6h1.41V128h1.36Zm-2.58-1V124.8c0-.5.06-1.33.09-1.86h-.06c-.25.5-.53,1-.82,1.51l-2.34,3.5Z"/></g></g></g><g id="Group_3915" data-name="Group 3915"><rect id="Rectangle_1241-4" data-name="Rectangle 1241-4" class="cls-2" x="296.8" y="113.65" width="26.31" height="26.31" rx="13.15"/><g id="_5" data-name=" 5" class="cls-4"><g class="cls-4"><path class="cls-6" d="M306.46,130.63l.63-.84a3.38,3.38,0,0,0,2.53,1.13,2.21,2.21,0,0,0,2.18-2.42,2.08,2.08,0,0,0-2.13-2.34,2.8,2.8,0,0,0-1.71.6l-.68-.42.32-4.8h5v1.09h-3.88l-.25,3a3,3,0,0,1,1.52-.41,2.94,2.94,0,0,1,3.1,3.27,3.34,3.34,0,0,1-3.36,3.53A4.4,4.4,0,0,1,306.46,130.63Z"/></g></g></g></g><path class="cls-7" d="M182.34,51.2l.14-1.36h-7.69V45.45h17v4.39h-7.6L184,51.2h9.33v1.29h-9.52c-.09.47-.16.91-.26,1.33h6.8V64.17h3.4v1.36h-21V64.17h3.4V53.82h5.7c.1-.44.17-.89.26-1.33h-8.93V51.2Zm-2.44-4.5h-3.5v1.94h3.5Zm8.82,9.77V55H177.84v1.47Zm0,2.54V57.53H177.84V59Zm0,2.55V60.09H177.84v1.47Zm0,2.61V62.62H177.84v1.55ZM185.13,46.7h-3.71v1.94h3.71Zm5,0h-3.49v1.94h3.49Z"/><path class="cls-7" d="M210.52,44.47v4.22h8.42v11h-1.68V58.23h-6.74v8h-1.73v-8h-6.71v1.48h-1.69v-11h8.4V44.47Zm-1.73,12.12V50.33h-6.71v6.26Zm8.47,0V50.33h-6.74v6.26Z"/><line class="cls-8" x1="66.89" y1="79.4" x2="323.11" y2="79.4"/></g></g></svg>