<svg xmlns="http://www.w3.org/2000/svg" viewBox="0 0 996.46 126.1"><defs><style>.cls-1{fill:#d32432;}.cls-2,.cls-8{fill:none;}.cls-2{stroke:#d32432;stroke-miterlimit:10;}.cls-3{fill:#d8d8d8;}.cls-4{fill:#00a19b;}.cls-5{isolation:isolate;}.cls-6{fill:#fff;}.cls-7{fill:#1c1c1c;}</style></defs><g id="圖層_2" data-name="圖層 2"><g id="圖層_1-2" data-name="圖層 1"><path class="cls-1" d="M185.57,4.86v8.56h-1V6.06a4.57,4.57,0,0,1-2,1.17v-1a5.13,5.13,0,0,0,1.2-.52,4.93,4.93,0,0,0,1-.87Z"/><path class="cls-1" d="M194.81,7h-1a1.63,1.63,0,0,0-1.78-1.46,1.74,1.74,0,0,0-1.58,1,4.47,4.47,0,0,0-.56,2.4c0,.05,0,.16,0,.31h0a2.48,2.48,0,0,1,2.26-1.4,2.59,2.59,0,0,1,2,.79,2.87,2.87,0,0,1,.74,2,2.89,2.89,0,0,1-.81,2.1,2.83,2.83,0,0,1-2.08.84,2.68,2.68,0,0,1-2.35-1.17A5.35,5.35,0,0,1,189,9.37a6.16,6.16,0,0,1,.8-3.34,2.59,2.59,0,0,1,2.3-1.34A2.46,2.46,0,0,1,194.81,7Zm-4.18,2.23a2,2,0,0,0-.55,1.46,2.08,2.08,0,0,0,.53,1.48,1.8,1.8,0,0,0,1.43.61,1.83,1.83,0,0,0,1.4-.59,2.21,2.21,0,0,0,.54-1.52,2,2,0,0,0-.53-1.45A1.8,1.8,0,0,0,192,8.63,1.91,1.91,0,0,0,190.63,9.21Z"/><path class="cls-1" d="M202.87,8.05a3.58,3.58,0,0,1,.71,2.29,3.6,3.6,0,0,1-.7,2.26,2.47,2.47,0,0,1-2.07,1,2.23,2.23,0,0,1-2.05-1.3v3.5h-1V7.22h.9v1a2.2,2.2,0,0,1,2.06-1.19A2.48,2.48,0,0,1,202.87,8.05Zm-3.68.52a2.91,2.91,0,0,0-.47,1.71v.12a2.68,2.68,0,0,0,.53,1.74,1.64,1.64,0,0,0,1.36.66,1.79,1.79,0,0,0,1.52-.7,3,3,0,0,0,.47-1.76,3.1,3.1,0,0,0-.45-1.75,1.7,1.7,0,0,0-1.51-.75A1.66,1.66,0,0,0,199.19,8.57Z"/><path class="cls-1" d="M207,7.22l1.61,2.21,1.59-2.21h1.13l-2.2,2.91,2.46,3.29h-1.14l-1.84-2.58-1.86,2.58h-1.14l2.46-3.29-2.2-2.91Z"/><line class="cls-2" x1="191.56" y1="27.55" x2="200.68" y2="27.55"/><path class="cls-1" d="M185.53,27.55a30.31,30.31,0,0,1,8.55,4.75l-1.72-4.75,1.72-4.76A30.34,30.34,0,0,1,185.53,27.55Z"/><path class="cls-1" d="M206.71,27.55a30.31,30.31,0,0,0-8.55,4.75l1.72-4.75-1.72-4.76A30.34,30.34,0,0,0,206.71,27.55Z"/><path class="cls-1" d="M53,.17V8.73H52V1.37a4.57,4.57,0,0,1-2,1.17v-1A5.13,5.13,0,0,0,51.22,1a4.69,4.69,0,0,0,1-.87Z"/><path class="cls-1" d="M61.72,1.36a6,6,0,0,1,.68,3.09,6,6,0,0,1-.68,3.09A2.55,2.55,0,0,1,59.4,8.9a2.51,2.51,0,0,1-2.31-1.36,6,6,0,0,1-.68-3.09,6,6,0,0,1,.68-3.09A2.47,2.47,0,0,1,59.4,0,2.51,2.51,0,0,1,61.72,1.36Zm-4,.72a6.27,6.27,0,0,0-.36,2.37,6.44,6.44,0,0,0,.36,2.38,1.73,1.73,0,0,0,3.31,0,6.42,6.42,0,0,0,.37-2.38,6.25,6.25,0,0,0-.37-2.37,1.72,1.72,0,0,0-3.31,0Z"/><path class="cls-1" d="M70.32,3.36A3.58,3.58,0,0,1,71,5.65a3.69,3.69,0,0,1-.69,2.27,2.52,2.52,0,0,1-2.08,1,2.23,2.23,0,0,1-2.05-1.3v3.51h-1V2.53h.9v1a2.2,2.2,0,0,1,2.06-1.19A2.51,2.51,0,0,1,70.32,3.36Zm-3.68.53a2.85,2.85,0,0,0-.47,1.7v.12a2.68,2.68,0,0,0,.53,1.74,1.64,1.64,0,0,0,1.36.66,1.79,1.79,0,0,0,1.52-.7,3,3,0,0,0,.47-1.76A3.1,3.1,0,0,0,69.6,3.9a1.69,1.69,0,0,0-1.51-.75A1.65,1.65,0,0,0,66.64,3.89Z"/><path class="cls-1" d="M74.49,2.53,76.1,4.74l1.59-2.21h1.13l-2.2,2.92,2.46,3.28H77.94L76.1,6.15,74.24,8.73H73.1l2.46-3.28-2.2-2.92Z"/><line class="cls-2" x1="59.01" y1="22.86" x2="68.13" y2="22.86"/><path class="cls-1" d="M53,22.86a30.31,30.31,0,0,1,8.55,4.75l-1.72-4.75,1.72-4.76A30.1,30.1,0,0,1,53,22.86Z"/><path class="cls-1" d="M74.16,22.86a30.31,30.31,0,0,0-8.55,4.75l1.72-4.75L65.61,18.1A30.1,30.1,0,0,0,74.16,22.86Z"/><path class="cls-1" d="M77.86,115.16v8.57h-1v-7.37a4.61,4.61,0,0,1-2,1.18v-1a4.85,4.85,0,0,0,1.2-.51,5.24,5.24,0,0,0,1-.88Z"/><path class="cls-1" d="M86.35,115.69a2.08,2.08,0,0,1,.69,1.57,1.93,1.93,0,0,1-.32,1.15,2.08,2.08,0,0,1-1,.75v0a2.13,2.13,0,0,1,1.14.74,2.18,2.18,0,0,1,.5,1.44,2.3,2.3,0,0,1-.79,1.83,3.49,3.49,0,0,1-2.3.7,3.44,3.44,0,0,1-2.3-.7,2.31,2.31,0,0,1-.8-1.83,2.19,2.19,0,0,1,.51-1.44,2.06,2.06,0,0,1,1.14-.74v0a1.91,1.91,0,0,1-1.35-1.9,2,2,0,0,1,.7-1.57,2.94,2.94,0,0,1,2.1-.7A3,3,0,0,1,86.35,115.69Zm-3.7,4.43a1.74,1.74,0,0,0,0,2.48,2.35,2.35,0,0,0,1.6.49,2.4,2.4,0,0,0,1.61-.5,1.75,1.75,0,0,0,0-2.47,2.33,2.33,0,0,0-1.61-.52A2.25,2.25,0,0,0,82.65,120.12Zm.17-3.85a1.3,1.3,0,0,0-.44,1,1.43,1.43,0,0,0,.39,1,2.51,2.51,0,0,0,3,0,1.4,1.4,0,0,0,.4-1,1.36,1.36,0,0,0-.44-1,2,2,0,0,0-1.43-.47A2,2,0,0,0,82.82,116.27Z"/><path class="cls-1" d="M95.8,117.29h-1a1.63,1.63,0,0,0-1.77-1.47,1.76,1.76,0,0,0-1.59,1,4.54,4.54,0,0,0-.56,2.4s0,.15,0,.31h0a2.37,2.37,0,0,1,.92-1,2.33,2.33,0,0,1,1.33-.38,2.6,2.6,0,0,1,2,.8,2.82,2.82,0,0,1,.75,2,2.89,2.89,0,0,1-.82,2.09,2.77,2.77,0,0,1-2.07.84,2.65,2.65,0,0,1-2.35-1.16,5.29,5.29,0,0,1-.75-3.06,6.13,6.13,0,0,1,.81-3.33,2.59,2.59,0,0,1,2.3-1.35A2.46,2.46,0,0,1,95.8,117.29Zm-4.17,2.23a2,2,0,0,0-.55,1.46,2,2,0,0,0,.53,1.47,1.78,1.78,0,0,0,1.42.62,1.87,1.87,0,0,0,1.41-.59A2.21,2.21,0,0,0,95,121a2,2,0,0,0-.53-1.46,2,2,0,0,0-2.82,0Z"/><path class="cls-1" d="M103.87,118.35a3.65,3.65,0,0,1,.7,2.29,3.69,3.69,0,0,1-.69,2.27,2.48,2.48,0,0,1-2.08,1,2.25,2.25,0,0,1-2-1.29v3.5h-1v-8.58h.9v1a2.21,2.21,0,0,1,2.07-1.18A2.53,2.53,0,0,1,103.87,118.35Zm-3.69.53a2.87,2.87,0,0,0-.46,1.7v.12a2.65,2.65,0,0,0,.52,1.74,1.64,1.64,0,0,0,1.36.66,1.8,1.8,0,0,0,1.52-.69,2.93,2.93,0,0,0,.47-1.77,3.1,3.1,0,0,0-.44-1.75,1.72,1.72,0,0,0-1.51-.74A1.67,1.67,0,0,0,100.18,118.88Z"/><path class="cls-1" d="M108,117.52l1.61,2.21,1.6-2.21h1.12l-2.19,2.92,2.46,3.29h-1.14l-1.85-2.58-1.86,2.58h-1.14l2.46-3.29-2.19-2.92Z"/><line class="cls-2" x1="6.04" y1="105.38" x2="179.49" y2="105.38"/><path class="cls-1" d="M0,105.38a30.31,30.31,0,0,1,8.55,4.75l-1.72-4.75,1.72-4.76A30.1,30.1,0,0,1,0,105.38Z"/><path class="cls-1" d="M185.53,105.38a30.31,30.31,0,0,0-8.55,4.75l1.72-4.75L177,100.62A30.1,30.1,0,0,0,185.53,105.38Z"/><g id="Group_3920" data-name="Group 3920"><path id="Rectangle_1235" data-name="Rectangle 1235" class="cls-3" d="M4.46,62.45h990a2,2,0,0,1,2,2h0a2,2,0,0,1-2,2H4.46a2,2,0,0,1-2-2h0A2,2,0,0,1,4.46,62.45Z"/><path id="Rectangle_1236" data-name="Rectangle 1236" class="cls-4" d="M27,39.45H164A24.5,24.5,0,0,1,188.46,64h0A24.5,24.5,0,0,1,164,88.45H27A24.5,24.5,0,0,1,2.46,64h0A24.5,24.5,0,0,1,27,39.45Z"/><g id="Group_3845" data-name="Group 3845"><g id="身份驗證" class="cls-5"><g class="cls-5"><path class="cls-6" d="M84.35,61.52a20.35,20.35,0,0,1-3,3.33v4.56c0,.93-.22,1.38-.86,1.6a13.69,13.69,0,0,1-3.68.27,4.71,4.71,0,0,0-.48-1.41c1.4.06,2.77,0,3.17,0s.5-.14.5-.52V66A31.84,31.84,0,0,1,69.3,71.15a13.4,13.4,0,0,0-.9-1.2,30.59,30.59,0,0,0,10-4.43c-3.42.3-6.79.57-9.26.77L69,65.07c.69,0,1.44-.09,2.29-.16V56.64h3.63a15.7,15.7,0,0,0,.8-1.8l1.58.25a17.82,17.82,0,0,1-.88,1.55h4.95V63a15.45,15.45,0,0,0,1.71-2.09ZM72.63,57.83V59.5H80V57.83Zm0,4.27H80V60.53h-7.4Zm0,2.71c2.27-.16,4.88-.35,7.4-.55V63.12h-7.4Z"/><path class="cls-6" d="M91.55,55.33a29,29,0,0,1-1.86,3.85V71.3H88.38V61.21a17.57,17.57,0,0,1-1.78,2.2,9.66,9.66,0,0,0-.76-1.31A20.3,20.3,0,0,0,90.27,55Zm9.13,6.89s0,.42,0,.61c-.25,5.23-.49,7.1-1,7.73a1.47,1.47,0,0,1-1.13.56,13.4,13.4,0,0,1-2,0,3.76,3.76,0,0,0-.34-1.23c.77.07,1.46.07,1.76.07a.65.65,0,0,0,.6-.21c.36-.42.59-2,.81-6.29H96.21c-.45,3.8-1.69,6.23-4.32,7.82a6.67,6.67,0,0,0-.92-1c2.47-1.3,3.55-3.49,3.89-6.81H92.79V62.22Zm-5-6.14a14.06,14.06,0,0,1-3.78,6.61A5.5,5.5,0,0,0,91,61.54a11.67,11.67,0,0,0,3.37-5.78Zm3.71-.57a10.16,10.16,0,0,0,3.26,5.87,6.49,6.49,0,0,0-.86,1.35,13,13,0,0,1-3.41-5.95H96.28V55.51Z"/><path class="cls-6" d="M104.11,69.82a21.81,21.81,0,0,0,.81-3.94l.76.25a24.85,24.85,0,0,1-.78,4Zm7-5.42c-.15,4.39-.27,5.89-.65,6.39a1.14,1.14,0,0,1-.9.47,8.21,8.21,0,0,1-1.41,0,2.9,2.9,0,0,0-.3-1c.54,0,1,0,1.24,0a.41.41,0,0,0,.43-.2c.24-.3.36-1.56.47-5.06h-4.91V55.69h6v1.13h-2.25v1.66h1.89v1.06h-1.89v1.58h1.91v1.07h-1.91v1.69h2.27Zm-4.4,1.75c.13,1,.24,2.34.26,3.24l-.72.07a29.39,29.39,0,0,0-.22-3.24Zm-.55-9.33v1.66h1.6V56.82Zm1.6,2.72h-1.6v1.58h1.6Zm-1.6,4.34h1.6V62.19h-1.6Zm1.58,2a24.33,24.33,0,0,1,.72,2.89l-.68.17a24.54,24.54,0,0,0-.69-2.94Zm1.42,2.21a19.53,19.53,0,0,0-1-2.38l.61-.21a17,17,0,0,1,1,2.34Zm4-9a15.58,15.58,0,0,1-1.57,1.08,6.67,6.67,0,0,0-.86-.82,13.27,13.27,0,0,0,4.79-4.67l1.22.38a4.19,4.19,0,0,1-.34.58A16,16,0,0,0,120.75,59a4.34,4.34,0,0,0-.6,1.15,14.6,14.6,0,0,1-1.63-1.1v1h-5.35Zm1.1,7.17a10.63,10.63,0,0,1-.4,1.44,12.22,12.22,0,0,1,2,1.55l-.72.88a10.59,10.59,0,0,0-1.69-1.42,8,8,0,0,1-1.82,2.59,6.35,6.35,0,0,0-.9-.77,8.12,8.12,0,0,0,2.39-4.49Zm-2.43-4.92h3.54v4.15h-3.54Zm.93,3.21h1.62V62.31h-1.62Zm5.62-5.69a19,19,0,0,1-2.61-2.34,14.59,14.59,0,0,1-2.31,2.34Zm.4,7.29a11,11,0,0,1-.53,2,16.83,16.83,0,0,1,2.34,1.92l-.81.92a13.37,13.37,0,0,0-2-1.8,7.88,7.88,0,0,1-1.56,2.12,11.52,11.52,0,0,0-1-.77A7.45,7.45,0,0,0,117.58,66Zm-2.56-4.81h3.69v4.15h-3.69Zm1,3.21h1.71V62.31H117.2Z"/><path class="cls-6" d="M128.25,59h-6v-1.1h6Zm-.43,11.19H124v.85h-1.06V65h4.9Zm-.09-8.87h-4.79V60.3h4.79Zm-4.79,1.28h4.79V63.7h-4.79Zm1,3.51v3h2.76v-3Zm1.43-8.41a17.76,17.76,0,0,0-1.35-2.41l.91-.58a14.55,14.55,0,0,1,1.41,2.32Zm5.74,2.61a8.79,8.79,0,0,1-2.2,2.12,6.79,6.79,0,0,0-.81-.9,7.21,7.21,0,0,0,2.11-2,11.47,11.47,0,0,0-1.66-1.26l.74-.86a11.88,11.88,0,0,1,1.55,1.09,9.84,9.84,0,0,0,.83-1.87h-2.63v-1.1h3.08l.23,0,.78.27A12.1,12.1,0,0,1,131.4,60h4.29a15.18,15.18,0,0,1-2-4.7l1.12-.22a13,13,0,0,0,.5,1.53,14.71,14.71,0,0,0,1.37-1.26l.81.74a15.82,15.82,0,0,1-1.78,1.46,10.3,10.3,0,0,0,.57,1,13.54,13.54,0,0,0,1.55-1.2l.81.74a13.56,13.56,0,0,1-1.83,1.26,7.77,7.77,0,0,0,2.14,2,3.35,3.35,0,0,0-.9,1,8.51,8.51,0,0,1-2.22-2.22v1h-4.64Zm5.42,6.73c-.42.89-.94,1.91-1.39,2.69h3.39v1.09H128.43V69.77h5.49a19.88,19.88,0,0,0,1.35-3Zm.41-.5h-7V62.31h7Zm-5.43,3.15a8.38,8.38,0,0,0-1.05-2.61l1.17-.31a8.35,8.35,0,0,1,1.08,2.56Zm4.23-6.36h-4.7v2.15h4.7Z"/></g></g><g id="_1" data-name=" 1" class="cls-5"><g class="cls-5"><path class="cls-6" d="M51.05,69.08H54V59.23H51.65v-1a8.28,8.28,0,0,0,2.73-.93h1.26V69.08h2.65v1.37H51.05Z"/></g></g></g><g id="Group_3916" data-name="Group 3916"><path id="Rectangle_1242" data-name="Rectangle 1242" class="cls-3" d="M229,39.45H366A24.5,24.5,0,0,1,390.46,64h0A24.5,24.5,0,0,1,366,88.45H229A24.5,24.5,0,0,1,204.46,64h0A24.5,24.5,0,0,1,229,39.45Z"/><g id="Group_3846" data-name="Group 3846"><g id="產品選擇" class="cls-5"><g class="cls-5"><path class="cls-7" d="M274,63.67v2.68c0,2-.31,4.79-1.93,6.65a4.43,4.43,0,0,0-1-.87c1.46-1.67,1.64-4,1.64-5.8V62.55H275a5.82,5.82,0,0,0-.65-.66c1.42-.27,3.06-.64,4.61-1.07-1.37-.39-2.77-.75-4-1l.79-.65h-2.88V58h6.65c-.31-.45-.65-.93-1-1.33l1-.49A16,16,0,0,1,280.82,58h6v1.1h-2.74l.72.43a18.14,18.14,0,0,1-2.75,1.21c1.31.4,2.53.79,3.44,1.12l-.73.66h2.62v1.12Zm13.66,7.45v1.12H274.35V71.12h5.89V69.3H276V68.22h4.2v-1.6h-3.76a10.24,10.24,0,0,1-1.71,2.22,5.85,5.85,0,0,0-.71-1.1A10.09,10.09,0,0,0,276.44,64l1.15.33c-.16.41-.32.81-.5,1.22h3.15V64h1.31v1.53h4.85v1.1h-4.85v1.6H286V69.3h-4.45v1.82Zm-3.33-8.57c-1-.39-2.36-.83-3.81-1.28-1.62.53-3.34.94-4.87,1.28Zm-8.26-3.42c1.4.34,3,.76,4.52,1.21a20,20,0,0,0,3-1.21Z"/><path class="cls-7" d="M290,65h6.36v7.67h-1.32v-.81h-3.76v1H290Zm1.28,1.3v4.26h3.76V66.3Zm11.13-3.19h-9.8v-6h9.8Zm-1.35-4.68h-7.15v3.4h7.15ZM305,65v7.71h-1.32v-.85h-4.08v1h-1.3V65Zm-1.32,5.56V66.3h-4.08v4.26Z"/><path class="cls-7" d="M311.56,65.07a15.77,15.77,0,0,1-1.48,4.5c.36.2.79.56,1.51,1,1.28.78,2.9.9,5,.9,2.32,0,5.24-.18,7.24-.37a4.5,4.5,0,0,0-.38,1.38c-1.35.09-4.77.2-6.9.2-2.36,0-3.94-.2-5.27-1-.72-.43-1.37-1-1.79-1s-1,1.13-1.53,2.26l-.92-1.2A10.44,10.44,0,0,1,308.52,70l0,0a11.41,11.41,0,0,0,1.67-4h-2.34a37.64,37.64,0,0,0,1.57-4h-2V60.73h3.75c-.45,1.3-1,2.81-1.53,4.05h1l.21,0Zm-2-5.2c-.27-.79-.75-2.07-1.13-3l1.19-.32c.39.94.92,2.16,1.19,2.94Zm14,7.9H311.74V66.71h3.11V65.05h-2.43V64h2.43v-1.3h1.25V64H319v-1.3h1.24V64h2.51v1h-2.51v1.66h3.23ZM317,61c-.09.3-.2.74-.25,1-3.57.63-4.06.74-4.36.92a5.09,5.09,0,0,0-.47-1.06,1.05,1.05,0,0,0,.47-1V57.1h4.81v3h-3.73v1.37Zm-.2,7.27a16.12,16.12,0,0,1-3.69,2.45,5.8,5.8,0,0,0-1-.83,12.69,12.69,0,0,0,3.51-2ZM313.45,58v1.2H316V58Zm2.65,8.71H319V65.05H316.1Zm3.49-4.3c-1.23,0-1.53-.45-1.53-1.66V57.11H323v3h-3.79v.65c0,.48.08.65.47.65H322a6.6,6.6,0,0,0,1.13-.08c0,.29.07.71.11,1a5.56,5.56,0,0,1-1.21.09Zm2.34,8.23a18.43,18.43,0,0,0-3.48-2.2l.87-.63A22.23,22.23,0,0,1,323.1,70ZM319.17,58v1.21h2.62V58Z"/><path class="cls-7" d="M330.58,65.2c-.61.21-1.2.43-1.8.61v5.37c0,.73-.18,1.09-.63,1.31a5.35,5.35,0,0,1-2.23.25,5.65,5.65,0,0,0-.39-1.26,16.75,16.75,0,0,0,1.69,0c.21,0,.3-.07.3-.31v-5c-.7.26-1.38.47-2,.67l-.33-1.28c.65-.18,1.46-.43,2.34-.72V61.24h-2.16V60h2.16V56.41h1.26V60h1.82v1.24h-1.82v3.27L330.4,64Zm11,5.17h-4.81v2.46h-1.28V70.37h-4.88V69.32h4.88V68H331.2V67h2.37a9.88,9.88,0,0,0-.61-1.46l1-.25h-3.15V64.21h4.62V63h-3.85v-1h3.85V60.86h-4v-3.8h9.69v3.8h-4.36v1.06h4v1h-4v1.26h4.58v1.06h-2.87l1.07.29c-.28.48-.56,1-.82,1.42h2.22v1h-4.18v1.29h4.81ZM334.22,58h-1.71v1.88h1.71Zm-.14,7.24a7.8,7.8,0,0,1,.7,1.66l-.18,0h2.9c.25-.52.57-1.21.75-1.71Zm1.2-5.36h1.8V58h-1.8Zm2.87,0H340V58h-1.82Z"/></g></g><g id="_2" data-name=" 2" class="cls-5"><g class="cls-5"><path class="cls-7" d="M252.26,71c4.14-3.62,6.05-6.24,6.05-8.51a2.32,2.32,0,0,0-2.43-2.61,3.68,3.68,0,0,0-2.74,1.53l-.95-.94a5,5,0,0,1,3.89-1.94,3.61,3.61,0,0,1,3.83,3.9c0,2.63-2.07,5.31-5.17,8.25.69-.05,1.5-.13,2.16-.13h3.66V72h-8.3Z"/></g></g></g></g><g id="Group_3917" data-name="Group 3917"><path id="Rectangle_1243" data-name="Rectangle 1243" class="cls-3" d="M431,39.45H568A24.5,24.5,0,0,1,592.46,64h0A24.5,24.5,0,0,1,568,88.45H431A24.5,24.5,0,0,1,406.46,64h0A24.5,24.5,0,0,1,431,39.45Z"/><g id="Group_3847" data-name="Group 3847"><g id="資料上傳" class="cls-5"><g class="cls-5"><path class="cls-7" d="M478.55,61.33H473.4V60.25h5.15ZM480,70.62a24.39,24.39,0,0,1-5.49,2.19,7.78,7.78,0,0,0-1-1,21.3,21.3,0,0,0,5.27-1.73ZM478.1,58.5h-4.3v-1h4.3Zm-2.34,4.23h11.65V70H475.76Zm1.29,2.13h9V63.63h-9Zm0,2.09h9V65.72h-9Zm0,2.12h9V67.81h-9Zm4.33-10.43A9.27,9.27,0,0,1,480,60.45a6.65,6.65,0,0,0-1-.69,7.77,7.77,0,0,0,2.07-3.42l1.2.27c-.1.34-.25.67-.37,1h6l.21-.05.9.3a17.18,17.18,0,0,1-1.51,2.6l-1.06-.38a10.8,10.8,0,0,0,.85-1.43h-2.87v.24a4.27,4.27,0,0,1-.05.59c.95,1.08,2.92,1.78,5.27,2a5,5,0,0,0-.75,1.07,8.67,8.67,0,0,1-4.9-2.11c-.59.88-2,1.71-5.19,2.2a3.93,3.93,0,0,0-.72-1c4.67-.63,5.1-1.86,5.1-2.8v-.18Zm2.7,11.42A50.45,50.45,0,0,1,489.37,72l-1.17.78a42.87,42.87,0,0,0-5-2Z"/><path class="cls-7" d="M493.9,65a16.78,16.78,0,0,1-2.07,5.82,7.42,7.42,0,0,0-.7-1.48,13.61,13.61,0,0,0,1.8-4.65Zm1.6-1.35v9.18h-1.24V63.65h-2.88V62.39h2.88v-6h1.24v6h2.94v1.26Zm-3-1.89a18.63,18.63,0,0,0-1-4l1-.23a16.13,16.13,0,0,1,1.06,3.94Zm3.83,2.95c.34.52,1.64,3,1.91,3.58l-.95,1c-.33-1-1.32-3.28-1.7-4.06Zm2.11-6.95a35.54,35.54,0,0,1-1.48,4l-.88-.29a30.23,30.23,0,0,0,1.21-4Zm7,10v5.06H504.2V68l-5.58,1-.22-1.27,5.8-1V56.39h1.26V66.5l2.13-.38.19,1.22Zm-3.65-2.52a15.42,15.42,0,0,0-3-2.16l.63-.93a14.6,14.6,0,0,1,3,2Zm.77-4.35a14.85,14.85,0,0,0-2.83-2.33l.69-.9a13.75,13.75,0,0,1,2.82,2.2Z"/><path class="cls-7" d="M525.5,70.64V72H509.45V70.64h6.72v-14h1.4v5.51h6.7v1.34h-6.7v7.13Z"/><path class="cls-7" d="M532.51,56.83a26,26,0,0,1-1.85,3.88V72.78H529.4V62.68a17.87,17.87,0,0,1-1.82,2.21,7.77,7.77,0,0,0-.76-1.29,20.33,20.33,0,0,0,4.45-7.15Zm8.66,10.94h2.52v1.08h-2.52v2.56c0,.72-.16,1.06-.72,1.24a10.87,10.87,0,0,1-2.81.18,4.45,4.45,0,0,0-.43-1.13c1.12,0,2,0,2.31,0s.36-.07.36-.31V68.85h-8.16V67.77h8.16V66.6c-2.85.09-5.62.18-7.67.22l-.13-1.08c1.37,0,3.15,0,5.08-.06V64.59h-4.22V59.81h4.22v-1h-4.94v-1h4.94V56.52h1.29v1.24h5.06v1h-5.06v1h4.34v4.78h-1.33a15.19,15.19,0,0,1,2.34,2.12l-.95.61a9.26,9.26,0,0,0-.72-.79l-1,0Zm-5.29,4.14a14.87,14.87,0,0,0-2.25-2.43l1-.63a15.11,15.11,0,0,1,2.29,2.34Zm-1.71-10.13h3V60.66h-3Zm3,2V62.59h-3v1.15Zm1.29-3.08v1.12h3.07V60.66Zm3.07,1.93h-3.07v1.15h3.07Zm-3.07,3.06,2.67-.06c-.36-.3-.72-.59-1.06-.84l.28-.16h-1.89Z"/></g></g><g id="_3" data-name=" 3" class="cls-5"><g class="cls-5"><path class="cls-7" d="M454,70.38l.83-1.08a4.35,4.35,0,0,0,3.27,1.51,2.43,2.43,0,0,0,2.69-2.45c0-1.58-1.06-2.64-4.11-2.64V64.46c2.72,0,3.66-1.1,3.66-2.52a2.07,2.07,0,0,0-2.24-2.13,4.16,4.16,0,0,0-2.73,1.31l-.88-1a5.27,5.27,0,0,1,3.69-1.58c2.21,0,3.83,1.18,3.83,3.31A3.3,3.3,0,0,1,459.64,65v.07a3.39,3.39,0,0,1,2.81,3.35c0,2.36-1.89,3.76-4.23,3.76A5.44,5.44,0,0,1,454,70.38Z"/></g></g></g></g><g id="Group_3918" data-name="Group 3918"><path id="Rectangle_1244" data-name="Rectangle 1244" class="cls-3" d="M633,39.45H770A24.5,24.5,0,0,1,794.46,64h0A24.5,24.5,0,0,1,770,88.45H633A24.5,24.5,0,0,1,608.46,64h0A24.5,24.5,0,0,1,633,39.45Z"/><g id="Group_3848" data-name="Group 3848"><g id="資料填寫" class="cls-5"><g class="cls-5"><path class="cls-7" d="M681.55,61.33H676.4V60.25h5.15ZM683,70.62a24.39,24.39,0,0,1-5.49,2.19,7.78,7.78,0,0,0-1-1,21.3,21.3,0,0,0,5.27-1.73ZM681.1,58.5h-4.3v-1h4.3Zm-2.34,4.23h11.65V70H678.76Zm1.29,2.13h9V63.63h-9Zm0,2.09h9V65.72h-9Zm0,2.12h9V67.81h-9Zm4.33-10.43A8.92,8.92,0,0,1,683,60.45a6.09,6.09,0,0,0-1-.69,7.77,7.77,0,0,0,2.07-3.42l1.2.27c-.11.34-.25.67-.37,1h6l.21-.05.9.3a17.18,17.18,0,0,1-1.51,2.6l-1.06-.38a10.8,10.8,0,0,0,.85-1.43h-2.87v.24a4.27,4.27,0,0,1-.05.59c1,1.08,2.92,1.78,5.27,2a5,5,0,0,0-.75,1.07,8.67,8.67,0,0,1-4.9-2.11c-.59.88-2,1.71-5.19,2.2a3.93,3.93,0,0,0-.72-1c4.67-.63,5.1-1.86,5.1-2.8v-.18Zm2.7,11.42A50.45,50.45,0,0,1,692.37,72l-1.17.78a42.87,42.87,0,0,0-5-2Z"/><path class="cls-7" d="M696.9,65a16.78,16.78,0,0,1-2.07,5.82,7.42,7.42,0,0,0-.7-1.48,13.61,13.61,0,0,0,1.8-4.65Zm1.6-1.35v9.18h-1.24V63.65h-2.88V62.39h2.88v-6h1.24v6h2.94v1.26Zm-3-1.89a19.25,19.25,0,0,0-1-4l1-.23a16.13,16.13,0,0,1,1.06,3.94Zm3.83,2.95c.34.52,1.64,3,1.91,3.58l-1,1c-.33-1-1.32-3.28-1.7-4.06Zm2.11-6.95a35.54,35.54,0,0,1-1.48,4l-.88-.29a30.23,30.23,0,0,0,1.21-4Zm7,10v5.06H707.2V68l-5.58,1-.22-1.27,5.8-1V56.39h1.26V66.5l2.13-.38.19,1.22Zm-3.65-2.52a15.42,15.42,0,0,0-3-2.16l.63-.93a14.6,14.6,0,0,1,3,2Zm.77-4.35a14.85,14.85,0,0,0-2.83-2.33l.69-.9a13.75,13.75,0,0,1,2.82,2.2Z"/><path class="cls-7" d="M717.66,68.19c-1.75.75-3.59,1.55-5,2.12l-.5-1.33c.61-.18,1.33-.45,2.14-.76V62h-2V60.68h2V56.59h1.3v4.09h2V62h-2v5.76c.61-.22,1.24-.47,1.85-.72Zm4.59,2.07a22.18,22.18,0,0,1-4.2,2.57,6.31,6.31,0,0,0-.83-.93,15.68,15.68,0,0,0,3.87-2.4Zm6.44-2v1.18H717.51V68.29h1.6V60.35h2.65c.09-.37.18-.77.25-1.2H718.2v-1.1h4c.11-.58.18-1.15.24-1.64l1.42.09c-.11.49-.22,1-.34,1.55h4.68v1.1h-4.94c-.1.43-.21.83-.32,1.2h4.1v7.94Zm-8.39-7v1.15h5.53V61.29Zm5.53,2H720.3v1.07h5.53Zm-5.53,3h5.53V65.14H720.3Zm0,2h5.53v-1.2H720.3Zm4.56,1.19a25.5,25.5,0,0,1,3.56,2.42l-.88.93A25.66,25.66,0,0,0,724,70.29Z"/><path class="cls-7" d="M745.56,67s0,.38,0,.56c-.19,3.06-.39,4.3-.84,4.75a1.39,1.39,0,0,1-1.12.47,16.45,16.45,0,0,1-2.2,0,2.77,2.77,0,0,0-.37-1.17,18.1,18.1,0,0,0,2,.07c.31,0,.47,0,.62-.14s.43-1.21.59-3.42H734.5a15.47,15.47,0,0,1-3.4,2.09,9.48,9.48,0,0,0-.79-1.07,12,12,0,0,0,4.82-3.27H733V60.77a27.87,27.87,0,0,0,4.19-1.17l.83.85a26.63,26.63,0,0,1-3.81,1v1.21h3.49v1h-3.49v1.24h8.46V63.63h-3.42v-1h3.42V61.49H739v-1h4.95v5.35h-7.29a8.31,8.31,0,0,1-.94,1.15Zm.52-9.15V61H744.8V59H732.11v2h-1.24V57.85h6.87c-.18-.41-.39-.81-.59-1.17l1.33-.38a13.51,13.51,0,0,1,.81,1.55Zm-13.49,14a9.82,9.82,0,0,0,1.68-3.18l1.06.43a11.43,11.43,0,0,1-1.65,3.27Zm4.56-3a10.69,10.69,0,0,1,.65,3.11l-1.1.17a10.64,10.64,0,0,0-.59-3.15Zm2.18-.14a9.23,9.23,0,0,1,1.22,2.71l-1,.33a10,10,0,0,0-1.17-2.77Zm2.81,2.26a8.33,8.33,0,0,0-1.51-2l.88-.41a7.38,7.38,0,0,1,1.56,2Z"/></g></g><g id="_4" data-name=" 4" class="cls-5"><g class="cls-5"><path class="cls-7" d="M664.88,68.31h-1.74V72h-1.57V68.31h-5.74V67.23l5.49-8.48h1.82V67h1.74ZM661.57,67V62.94c0-.64.07-1.71.11-2.39h-.07c-.33.65-.69,1.3-1.06,1.94l-3,4.51Z"/></g></g></g></g><g id="Group_3919" data-name="Group 3919"><path id="Rectangle_1244-2" data-name="Rectangle 1244-2" class="cls-3" d="M835,39.45H972A24.5,24.5,0,0,1,996.46,64h0A24.5,24.5,0,0,1,972,88.45H835A24.5,24.5,0,0,1,810.46,64h0A24.5,24.5,0,0,1,835,39.45Z"/><g id="Group_3848-2" data-name="Group 3848-2"><g id="完成填寫" class="cls-5"><g class="cls-5"><path class="cls-7" d="M892.55,71.3c.68,0,.79-.32.87-2.37a3.69,3.69,0,0,0,1.22.52c-.16,2.48-.54,3.09-2,3.09h-2.76c-1.64,0-2-.41-2-1.83V66.22H884.7c-.27,3.73-1.21,5.68-5.67,6.63a3.64,3.64,0,0,0-.7-1.12c4-.79,4.8-2.32,5-5.51h-4.79V65h15.81v1.27H889.2v4.47c0,.52.13.61.87.61Zm-12.22-8.91H879V58.45h7a17.44,17.44,0,0,0-.9-1.84l1.33-.38a14.84,14.84,0,0,1,1.16,2.22h6.33v3.94h-1.37V59.72H880.33Zm1.26.49V61.63h9.7v1.25Z"/><path class="cls-7" d="M911.43,62.48a20.21,20.21,0,0,1-3.17,6.09c.67,1.76,1.5,2.79,2.42,2.79.5,0,.72-.94.84-3.33a3.34,3.34,0,0,0,1.16.72c-.26,3.06-.74,3.94-2.11,3.94s-2.47-1.1-3.3-3a16,16,0,0,1-3.71,3,6.76,6.76,0,0,0-1-1.06,14.3,14.3,0,0,0,4.14-3.33,35.62,35.62,0,0,1-1.31-7.58h-6.21v2.34h4.59v.58c-.09,4-.2,5.54-.58,6a1.38,1.38,0,0,1-1.08.52,18.66,18.66,0,0,1-2.14,0,2.8,2.8,0,0,0-.38-1.26c.83.08,1.6.09,1.91.09s.43,0,.54-.19.34-1.41.41-4.51h-3.27v.15c0,2.52-.27,6.14-1.89,8.48a5.33,5.33,0,0,0-1.12-.9c1.48-2.2,1.64-5.28,1.64-7.6v-5h7.51c-.07-1-.09-2-.11-3h1.39c0,1.05,0,2.05.07,3h5.81v1.31h-5.72a32.13,32.13,0,0,0,1,6.25,17.88,17.88,0,0,0,2.3-4.86Zm-3.11-6a16.88,16.88,0,0,1,3.22,2.05l-.83.92a18.25,18.25,0,0,0-3.18-2.16Z"/><path class="cls-7" d="M919.66,68.19c-1.75.75-3.59,1.55-5,2.12l-.5-1.33c.61-.18,1.33-.45,2.14-.76V62h-2V60.68h2V56.59h1.3v4.09h2V62h-2v5.76c.61-.22,1.24-.47,1.85-.72Zm4.59,2.07a22.18,22.18,0,0,1-4.2,2.57,6.31,6.31,0,0,0-.83-.93,15.68,15.68,0,0,0,3.87-2.4Zm6.44-2v1.18H919.51V68.29h1.6V60.35h2.65c.09-.37.18-.77.25-1.2H920.2v-1.1h4c.11-.58.18-1.15.24-1.64l1.42.09c-.11.49-.22,1-.34,1.55h4.68v1.1h-4.94c-.1.43-.21.83-.32,1.2h4.1v7.94Zm-8.39-7v1.15h5.53V61.29Zm5.53,2H922.3v1.07h5.53Zm-5.53,3h5.53V65.14H922.3Zm0,2h5.53v-1.2H922.3Zm4.56,1.19a25.5,25.5,0,0,1,3.56,2.42l-.88.93A25.66,25.66,0,0,0,926,70.29Z"/><path class="cls-7" d="M947.56,67s0,.38,0,.56c-.19,3.06-.39,4.3-.84,4.75a1.39,1.39,0,0,1-1.12.47,16.45,16.45,0,0,1-2.2,0,2.77,2.77,0,0,0-.37-1.17,18.1,18.1,0,0,0,2,.07c.31,0,.47,0,.62-.14s.43-1.21.59-3.42H936.5a15.47,15.47,0,0,1-3.4,2.09,9.48,9.48,0,0,0-.79-1.07,12,12,0,0,0,4.82-3.27H935V60.77a27.87,27.87,0,0,0,4.19-1.17l.83.85a26.63,26.63,0,0,1-3.81,1v1.21h3.49v1h-3.49v1.24h8.46V63.63h-3.42v-1h3.42V61.49H941v-1h4.95v5.35h-7.29a8.31,8.31,0,0,1-.94,1.15Zm.52-9.15V61H946.8V59H934.11v2h-1.24V57.85h6.87c-.18-.41-.39-.81-.59-1.17l1.33-.38a13.51,13.51,0,0,1,.81,1.55Zm-13.49,14a9.82,9.82,0,0,0,1.68-3.18l1.06.43a11.43,11.43,0,0,1-1.65,3.27Zm4.56-3a10.69,10.69,0,0,1,.65,3.11l-1.1.17a10.64,10.64,0,0,0-.59-3.15Zm2.18-.14a9.23,9.23,0,0,1,1.22,2.71l-1,.33a10,10,0,0,0-1.17-2.77Zm2.81,2.26a8.33,8.33,0,0,0-1.51-2l.88-.41a7.38,7.38,0,0,1,1.56,2Z"/></g></g><g id="_5" data-name=" 5" class="cls-5"><g class="cls-5"><path class="cls-7" d="M858,70.43l.81-1.08A4.33,4.33,0,0,0,862,70.81a2.85,2.85,0,0,0,2.81-3.11c0-1.89-1.08-3-2.74-3a3.59,3.59,0,0,0-2.19.77l-.88-.54.41-6.17h6.43v1.4h-5L860.55,64a3.81,3.81,0,0,1,2-.52c2.2,0,4,1.29,4,4.19a4.29,4.29,0,0,1-4.32,4.54A5.57,5.57,0,0,1,858,70.43Z"/></g></g></g></g></g><rect class="cls-8" x="3.28" y="39.45" width="185.18" height="52.37"/></g></g></svg>