<svg xmlns="http://www.w3.org/2000/svg" viewBox="0 0 310.39 98.25"><defs><style>.cls-1{fill:#d8d8d8;}.cls-2{fill:#00a19b;}.cls-3{isolation:isolate;}.cls-4{fill:#fff;}.cls-5{fill:#1c1c1c;}.cls-6{fill:#d32432;}.cls-7{fill:none;stroke:#d32432;stroke-miterlimit:10;}</style></defs><g id="圖層_2" data-name="圖層 2"><g id="圖層_1-2" data-name="圖層 1"><g id="Group_3885" data-name="Group 3885"><g id="Group_3862" data-name="Group 3862"><path id="Rectangle_1235" data-name="Rectangle 1235" class="cls-1" d="M15.15,45.3H234.39a2,2,0,0,1,2,2h0a2,2,0,0,1-2,2H15.15a2,2,0,0,1-2-2h0A2,2,0,0,1,15.15,45.3Z"/><path id="Rectangle_1249" data-name="Rectangle 1249" class="cls-2" d="M15.15,45.3H50a2,2,0,0,1,2,2h0a2,2,0,0,1-2,2H15.15a2,2,0,0,1-2-2h0A2,2,0,0,1,15.15,45.3Z"/></g><g id="Group_3914" data-name="Group 3914"><path id="Rectangle_1236" data-name="Rectangle 1236" class="cls-2" d="M54.3,31.3h71a16,16,0,0,1,16,16h0a16,16,0,0,1-16,16h-71a16,16,0,0,1-16-16h0A16,16,0,0,1,54.3,31.3Z"/><g id="Group_3830" data-name="Group 3830"><g id="產品選擇" class="cls-3"><g class="cls-3"><path class="cls-4" d="M71.08,46.25v2.08a7.94,7.94,0,0,1-1.5,5.17,3.88,3.88,0,0,0-.78-.67,6.77,6.77,0,0,0,1.27-4.51V45.38h1.76a5,5,0,0,0-.5-.52c1.11-.21,2.38-.49,3.59-.83-1.07-.3-2.16-.58-3.16-.81l.62-.5H70.14v-.86h5.17c-.24-.35-.51-.73-.76-1l.74-.38a12.2,12.2,0,0,1,1.07,1.41h4.69v.86H78.92l.56.33a13.86,13.86,0,0,1-2.14.94c1,.31,2,.62,2.67.87l-.56.52h2v.87Zm10.63,5.8v.87H71.33v-.87h4.58V50.63H72.65v-.84h3.26V48.54H73a7.53,7.53,0,0,1-1.33,1.73,5.51,5.51,0,0,0-.54-.86A7.86,7.86,0,0,0,73,46.49l.89.25c-.12.32-.25.63-.39.95h2.45V46.5h1v1.19H80.7v.85H76.93v1.25h3.46v.84H76.93v1.42Zm-2.59-6.67c-.81-.31-1.84-.65-3-1-1.26.41-2.59.73-3.78,1Zm-6.43-2.66c1.09.26,2.32.59,3.52.94a16.76,16.76,0,0,0,2.33-.94Z"/><path class="cls-4" d="M83.51,47.28h4.94v6h-1v-.63H84.5v.76h-1Zm1,1v3.32h2.93V48.29Zm8.66-2.48H85.54V41.18h7.62Zm-1-3.64H86.55v2.65h5.56Zm3.08,5.11v6h-1v-.66H91v.76H90v-6.1Zm-1,4.33V48.29H91v3.32Z"/><path class="cls-4" d="M100.27,47.34a12.31,12.31,0,0,1-1.15,3.5c.28.16.62.44,1.18.77a7.48,7.48,0,0,0,3.91.7c1.8,0,4.07-.14,5.63-.29a3.69,3.69,0,0,0-.3,1.08c-1.05.07-3.71.15-5.36.15a7.74,7.74,0,0,1-4.11-.77c-.56-.34-1.06-.81-1.38-.81s-.79.88-1.19,1.76l-.72-.93a7.85,7.85,0,0,1,1.12-1.35h0A8.9,8.9,0,0,0,99.18,48H97.36a29,29,0,0,0,1.21-3.13H97V44h2.91c-.35,1-.8,2.19-1.19,3.16h.77l.17,0Zm-1.58-4.05c-.21-.61-.59-1.61-.89-2.35l.93-.25c.31.73.71,1.68.92,2.28Zm10.85,6.15h-9.13v-.82h2.42V47.33h-1.89v-.82h1.89v-1h1v1h2.27v-1h1v1h2v.82h-2v1.29h2.51Zm-5.05-5.29c-.07.23-.16.57-.2.75-2.77.49-3.15.58-3.39.72a4.43,4.43,0,0,0-.36-.83.82.82,0,0,0,.36-.8V41.13h3.74v2.36h-2.9v1.06Zm-.16,5.66a12.89,12.89,0,0,1-2.87,1.9,4.36,4.36,0,0,0-.78-.64,10.19,10.19,0,0,0,2.73-1.57Zm-2.59-8v.94h2v-.94Zm2.06,6.79h2.27V47.33H103.8Zm2.72-3.35c-1,0-1.19-.35-1.19-1.29V41.15h3.81V43.5h-3V44c0,.37.06.5.37.5h1.81a6.05,6.05,0,0,0,.88,0c0,.22,0,.54.08.74a4.54,4.54,0,0,1-.94.07Zm1.82,6.4A14.66,14.66,0,0,0,105.63,50l.68-.49a17.32,17.32,0,0,1,2.94,1.71Zm-2.15-9.82v.94h2v-.94Z"/><path class="cls-4" d="M115.07,47.44c-.48.17-.94.33-1.4.47v4.18c0,.57-.14.85-.49,1a4.24,4.24,0,0,1-1.74.2,4,4,0,0,0-.31-1c.6,0,1.16,0,1.32,0s.24-.05.24-.24V48.25c-.55.2-1.08.37-1.57.52l-.25-1c.5-.14,1.13-.33,1.82-.56V44.36H111v-1h1.68V40.6h1v2.79h1.41v1h-1.41v2.55l1.26-.42Zm8.53,4h-3.74v1.92h-1V51.46h-3.79v-.81h3.79v-1h-3.32v-.81h1.85a8.33,8.33,0,0,0-.47-1.14l.8-.2h-2.46v-.82h3.6v-1h-3v-.8h3v-.83h-3.15v-3h7.54v3h-3.39v.83H123v.8h-3.09v1h3.56v.82h-2.23l.82.23-.62,1.11h1.72v.81h-3.25v1h3.74Zm-5.7-9.6h-1.33v1.46h1.33Zm-.12,5.63a6.23,6.23,0,0,1,.55,1.29l-.14,0h2.26c.19-.41.44-.94.58-1.34Zm.94-4.17h1.4V41.86h-1.4Zm2.23,0h1.42V41.86H121Z"/></g></g><g id="_2" data-name=" 2" class="cls-3"><g class="cls-3"><path class="cls-4" d="M57,51.54c3.22-2.81,4.7-4.86,4.7-6.62a1.8,1.8,0,0,0-1.89-2,2.85,2.85,0,0,0-2.13,1.19L57,43.35a3.93,3.93,0,0,1,3-1.52,2.82,2.82,0,0,1,3,3.05c0,2-1.61,4.13-4,6.41.53,0,1.16-.1,1.68-.1h2.84V52.3H57Z"/></g></g></g></g><g id="Group_3815" data-name="Group 3815"><rect id="Rectangle_1241" data-name="Rectangle 1241" class="cls-2" y="34.3" width="26.31" height="26.31" rx="13.15"/><g id="_1" data-name=" 1" class="cls-3"><g class="cls-3"><path class="cls-4" d="M10.5,51.39h2.28V43.72H11v-.81a6.38,6.38,0,0,0,2.13-.73h1v9.21h2.06v1.06H10.5Z"/></g></g></g><g id="Group_3887" data-name="Group 3887"><rect id="Rectangle_1241-2" data-name="Rectangle 1241-2" class="cls-1" x="153.3" y="34.3" width="26.31" height="26.31" rx="13.15"/><g id="_3" data-name=" 3" class="cls-3"><g class="cls-3"><path class="cls-5" d="M163,51.23l.64-.84a3.4,3.4,0,0,0,2.55,1.18,1.89,1.89,0,0,0,2.09-1.91c0-1.23-.83-2.06-3.2-2.06v-1c2.12,0,2.85-.85,2.85-2A1.61,1.61,0,0,0,166.17,43,3.26,3.26,0,0,0,164,44l-.68-.81A4.12,4.12,0,0,1,166.23,42c1.72,0,3,.92,3,2.57A2.55,2.55,0,0,1,167.38,47v.06a2.63,2.63,0,0,1,2.18,2.61,3,3,0,0,1-3.29,2.92A4.24,4.24,0,0,1,163,51.23Z"/></g></g></g><g id="Group_3888" data-name="Group 3888"><rect id="Rectangle_1241-3" data-name="Rectangle 1241-3" class="cls-1" x="191.61" y="34.3" width="26.31" height="26.31" rx="13.15"/><g id="_4" data-name=" 4" class="cls-3"><g class="cls-3"><path class="cls-5" d="M208.2,49.62h-1.36v2.83h-1.22V49.62h-4.46v-.84l4.27-6.6h1.41V48.6h1.36Zm-2.58-1V45.45c0-.51.06-1.33.09-1.87h-.06c-.25.51-.53,1-.82,1.52l-2.34,3.5Z"/></g></g></g><g id="Group_3915" data-name="Group 3915"><rect id="Rectangle_1241-4" data-name="Rectangle 1241-4" class="cls-1" x="229.91" y="34.3" width="26.31" height="26.31" rx="13.15"/><g id="_5" data-name=" 5" class="cls-3"><g class="cls-3"><path class="cls-5" d="M239.57,51.27l.63-.84a3.38,3.38,0,0,0,2.52,1.14,2.22,2.22,0,0,0,2.19-2.42,2.07,2.07,0,0,0-2.13-2.34,2.8,2.8,0,0,0-1.71.6l-.68-.42.32-4.81h5v1.1h-3.88l-.25,3a2.85,2.85,0,0,1,1.52-.41,2.93,2.93,0,0,1,3.1,3.26,3.33,3.33,0,0,1-3.36,3.53A4.37,4.37,0,0,1,239.57,51.27Z"/></g></g></g></g><path class="cls-6" d="M24.52.17V8.73h-1V1.37a4.54,4.54,0,0,1-2,1.17v-1A5.32,5.32,0,0,0,22.72,1a4.93,4.93,0,0,0,1-.87Z"/><path class="cls-6" d="M33,.68a2.37,2.37,0,0,1,.76,1.82,2.91,2.91,0,0,1-.83,2,12.22,12.22,0,0,1-1.78,1.38,4.24,4.24,0,0,0-1.87,2h4.5v.87H28.05a3,3,0,0,1,.85-2.12,10.22,10.22,0,0,1,1.86-1.52A10.76,10.76,0,0,0,32.1,4a2.25,2.25,0,0,0,.66-1.54,1.54,1.54,0,0,0-.47-1.21A1.84,1.84,0,0,0,31,.84a1.6,1.6,0,0,0-1.36.6,2.68,2.68,0,0,0-.53,1.71h-1a3.29,3.29,0,0,1,.8-2.29A2.75,2.75,0,0,1,31,0,2.89,2.89,0,0,1,33,.68Z"/><path class="cls-6" d="M41.82,3.36a3.58,3.58,0,0,1,.71,2.29,3.63,3.63,0,0,1-.7,2.27,2.48,2.48,0,0,1-2.07,1,2.23,2.23,0,0,1-2-1.3v3.51h-1V2.53h.9v1a2.19,2.19,0,0,1,2.06-1.19A2.51,2.51,0,0,1,41.82,3.36Zm-3.68.53a2.85,2.85,0,0,0-.47,1.7v.12a2.68,2.68,0,0,0,.53,1.74,1.62,1.62,0,0,0,1.35.66,1.8,1.8,0,0,0,1.53-.7,3,3,0,0,0,.47-1.76A3.1,3.1,0,0,0,41.1,3.9a1.7,1.7,0,0,0-1.51-.75A1.64,1.64,0,0,0,38.14,3.89Z"/><path class="cls-6" d="M46,2.53l1.6,2.21,1.6-2.21h1.13l-2.2,2.92,2.46,3.28H49.44L47.59,6.15,45.74,8.73H44.6l2.45-3.28L44.86,2.53Z"/><line class="cls-7" x1="30.51" y1="22.86" x2="39.62" y2="22.86"/><path class="cls-6" d="M24.48,22.86A30.12,30.12,0,0,1,33,27.61L31.3,22.86,33,18.1A29.91,29.91,0,0,1,24.48,22.86Z"/><path class="cls-6" d="M45.66,22.86a30.31,30.31,0,0,0-8.55,4.75l1.72-4.75L37.11,18.1A30.1,30.1,0,0,0,45.66,22.86Z"/><path class="cls-6" d="M237.16.68a2.37,2.37,0,0,1,.76,1.82,2.88,2.88,0,0,1-.84,2,12,12,0,0,1-1.77,1.38,4.18,4.18,0,0,0-1.87,2h4.5v.87h-5.71a3,3,0,0,1,.85-2.12,9.87,9.87,0,0,1,1.86-1.52A10.76,10.76,0,0,0,236.28,4a2.25,2.25,0,0,0,.66-1.54,1.57,1.57,0,0,0-.47-1.21,1.84,1.84,0,0,0-1.3-.43,1.6,1.6,0,0,0-1.36.6,2.57,2.57,0,0,0-.53,1.71h-1a3.24,3.24,0,0,1,.8-2.29A2.75,2.75,0,0,1,235.2,0,2.89,2.89,0,0,1,237.16.68Z"/><path class="cls-6" d="M246.64,2.29h-1A1.62,1.62,0,0,0,243.89.83a1.74,1.74,0,0,0-1.58,1,4.49,4.49,0,0,0-.57,2.4s0,.16,0,.31h.05a2.45,2.45,0,0,1,2.26-1.4,2.62,2.62,0,0,1,2,.79,2.87,2.87,0,0,1,.74,2,2.9,2.9,0,0,1-.82,2.1,2.8,2.8,0,0,1-2.07.84,2.69,2.69,0,0,1-2.35-1.16,5.31,5.31,0,0,1-.75-3.06,6.19,6.19,0,0,1,.81-3.34A2.58,2.58,0,0,1,243.9,0,2.48,2.48,0,0,1,246.64,2.29Zm-4.18,2.23A2,2,0,0,0,241.91,6a2.06,2.06,0,0,0,.53,1.47,1.78,1.78,0,0,0,1.42.61,1.83,1.83,0,0,0,1.41-.59A2.19,2.19,0,0,0,245.81,6a2,2,0,0,0-.53-1.45A1.85,1.85,0,0,0,243.86,4,1.88,1.88,0,0,0,242.46,4.52Z"/><path class="cls-6" d="M254.7,3.36a3.58,3.58,0,0,1,.71,2.29,3.63,3.63,0,0,1-.7,2.27,2.5,2.5,0,0,1-2.07,1,2.23,2.23,0,0,1-2-1.3v3.51h-1V2.53h.9v1a2.19,2.19,0,0,1,2.06-1.19A2.52,2.52,0,0,1,254.7,3.36ZM251,3.89a2.85,2.85,0,0,0-.47,1.7v.12a2.68,2.68,0,0,0,.53,1.74,1.62,1.62,0,0,0,1.35.66,1.81,1.81,0,0,0,1.53-.7,3,3,0,0,0,.46-1.76A3.1,3.1,0,0,0,254,3.9a1.7,1.7,0,0,0-1.51-.75A1.64,1.64,0,0,0,251,3.89Z"/><path class="cls-6" d="M258.87,2.53l1.6,2.21,1.6-2.21h1.13L261,5.45l2.46,3.28h-1.14l-1.85-2.58-1.86,2.58h-1.14l2.46-3.28-2.19-2.92Z"/><line class="cls-7" x1="241" y1="22.86" x2="250.11" y2="22.86"/><path class="cls-6" d="M235,22.86a30.12,30.12,0,0,1,8.54,4.75l-1.72-4.75,1.72-4.76A29.91,29.91,0,0,1,235,22.86Z"/><path class="cls-6" d="M256.15,22.86a30.31,30.31,0,0,0-8.55,4.75l1.72-4.75L247.6,18.1A30.1,30.1,0,0,0,256.15,22.86Z"/><path class="cls-6" d="M284.09,45.46a2.33,2.33,0,0,1,.76,1.81,2.88,2.88,0,0,1-.84,2,12,12,0,0,1-1.77,1.38,4.18,4.18,0,0,0-1.87,2h4.5v.87h-5.71a3.05,3.05,0,0,1,.85-2.12,10.28,10.28,0,0,1,1.86-1.52,10.76,10.76,0,0,0,1.34-1.07,2.25,2.25,0,0,0,.66-1.54A1.57,1.57,0,0,0,283.4,46a1.84,1.84,0,0,0-1.3-.43,1.6,1.6,0,0,0-1.36.6,2.58,2.58,0,0,0-.53,1.72h-1a3.25,3.25,0,0,1,.8-2.3,2.75,2.75,0,0,1,2.1-.86A2.84,2.84,0,0,1,284.09,45.46Z"/><path class="cls-6" d="M293.56,47.06h-1a1.62,1.62,0,0,0-1.77-1.46,1.74,1.74,0,0,0-1.58,1,4.49,4.49,0,0,0-.57,2.4s0,.16,0,.31h.05A2.45,2.45,0,0,1,291,47.9a2.66,2.66,0,0,1,2,.79,3.14,3.14,0,0,1-.08,4.14,2.8,2.8,0,0,1-2.07.84,2.68,2.68,0,0,1-2.35-1.16,5.29,5.29,0,0,1-.75-3.06,6.13,6.13,0,0,1,.81-3.33,2.57,2.57,0,0,1,2.3-1.35A2.46,2.46,0,0,1,293.56,47.06Zm-4.17,2.23a2.27,2.27,0,0,0,0,2.94,1.78,1.78,0,0,0,1.42.61,1.86,1.86,0,0,0,1.41-.58,2.24,2.24,0,0,0,.54-1.53,2,2,0,0,0-.53-1.45,1.85,1.85,0,0,0-1.42-.56A1.88,1.88,0,0,0,289.39,49.29Z"/><path class="cls-6" d="M301.63,48.13a4,4,0,0,1,0,4.56,2.5,2.5,0,0,1-2.07,1,2.24,2.24,0,0,1-2.05-1.29v3.5h-1V47.3h.9v1a2.19,2.19,0,0,1,2.06-1.19A2.52,2.52,0,0,1,301.63,48.13Zm-3.68.53a2.87,2.87,0,0,0-.47,1.7v.12a2.66,2.66,0,0,0,.53,1.74,1.62,1.62,0,0,0,1.35.66,1.81,1.81,0,0,0,1.53-.7,3,3,0,0,0,.46-1.76,3.1,3.1,0,0,0-.44-1.75,1.72,1.72,0,0,0-1.51-.74A1.64,1.64,0,0,0,298,48.66Z"/><path class="cls-6" d="M305.8,47.3l1.6,2.21L309,47.3h1.13l-2.2,2.92,2.46,3.28h-1.14l-1.85-2.58-1.86,2.58H304.4l2.46-3.28-2.19-2.92Z"/><line class="cls-7" x1="267.88" y1="53.85" x2="267.88" y2="44.74"/><path class="cls-6" d="M267.88,59.89a30.1,30.1,0,0,1,4.76-8.55l-4.76,1.72-4.75-1.72A30.31,30.31,0,0,1,267.88,59.89Z"/><path class="cls-6" d="M267.88,38.71a30.1,30.1,0,0,0,4.76,8.55l-4.76-1.72-4.75,1.72A30.31,30.31,0,0,0,267.88,38.71Z"/><path class="cls-6" d="M74.91,87.31v8.56h-1V88.51a4.61,4.61,0,0,1-2,1.18v-1a5.26,5.26,0,0,0,1.2-.51,5.6,5.6,0,0,0,1-.88Z"/><path class="cls-6" d="M83.6,88.5a7.29,7.29,0,0,1,0,6.19,2.66,2.66,0,0,1-4.63,0,7.38,7.38,0,0,1,0-6.19,2.65,2.65,0,0,1,4.63,0Zm-4,.72a6.27,6.27,0,0,0-.36,2.37A6.44,6.44,0,0,0,79.63,94a1.74,1.74,0,0,0,1.66,1.23A1.72,1.72,0,0,0,82.94,94a6.39,6.39,0,0,0,.38-2.38,6.23,6.23,0,0,0-.38-2.37A1.7,1.7,0,0,0,81.29,88,1.72,1.72,0,0,0,79.63,89.22Z"/><path class="cls-6" d="M92.06,87.83a2.31,2.31,0,0,1,.77,1.81,2.92,2.92,0,0,1-.84,2A12.56,12.56,0,0,1,90.22,93a4.18,4.18,0,0,0-1.87,2h4.49v.87h-5.7A3.05,3.05,0,0,1,88,93.75a9.92,9.92,0,0,1,1.86-1.52,10.76,10.76,0,0,0,1.34-1.07,2.25,2.25,0,0,0,.66-1.54,1.57,1.57,0,0,0-.47-1.21A1.9,1.9,0,0,0,90.07,88a1.59,1.59,0,0,0-1.35.6,2.6,2.6,0,0,0-.53,1.72h-1A3.21,3.21,0,0,1,88,88a2.72,2.72,0,0,1,2.1-.87A2.8,2.8,0,0,1,92.06,87.83Z"/><path class="cls-6" d="M100.91,90.5a4,4,0,0,1,0,4.56,2.47,2.47,0,0,1-2.07,1,2.26,2.26,0,0,1-2.06-1.29v3.5h-1V89.67h.9v1A2.22,2.22,0,0,1,98.8,89.5,2.53,2.53,0,0,1,100.91,90.5ZM97.23,91a2.8,2.8,0,0,0-.47,1.7v.12a2.66,2.66,0,0,0,.53,1.74,1.61,1.61,0,0,0,1.35.66,1.78,1.78,0,0,0,1.52-.7,2.87,2.87,0,0,0,.47-1.76,3.1,3.1,0,0,0-.44-1.75,1.72,1.72,0,0,0-1.51-.74A1.64,1.64,0,0,0,97.23,91Z"/><path class="cls-6" d="M105.07,89.67l1.61,2.21,1.6-2.21h1.12l-2.19,2.92,2.46,3.28h-1.14l-1.85-2.58-1.86,2.58h-1.14l2.46-3.28L104,89.67Z"/><line class="cls-7" x1="45.39" y1="77.53" x2="134.22" y2="77.53"/><path class="cls-6" d="M39.35,77.53a30.18,30.18,0,0,1,8.55,4.75l-1.72-4.75,1.72-4.76A30.2,30.2,0,0,1,39.35,77.53Z"/><path class="cls-6" d="M140.26,77.53a30.18,30.18,0,0,0-8.55,4.75l1.72-4.75-1.72-4.76A30.2,30.2,0,0,0,140.26,77.53Z"/></g></g></svg>