<svg width="780" height="308" viewBox="0 0 780 308" fill="none" xmlns="http://www.w3.org/2000/svg">
<mask id="mask0_746_7" style="mask-type:alpha" maskUnits="userSpaceOnUse" x="0" y="0" width="780" height="308">
<rect width="780" height="308" fill="#C4C4C4"/>
</mask>
<g mask="url(#mask0_746_7)">
<path d="M232.084 22.788C231.31 22.284 229.744 21.492 228.736 20.988L227.53 22.536C228.574 23.13 230.104 23.976 230.806 24.516L232.084 22.788ZM231.22 27.648C230.428 27.162 228.826 26.388 227.836 25.902L226.684 27.486C227.746 28.062 229.294 28.908 230.032 29.43L231.22 27.648ZM228.736 37.368C229.834 35.622 230.968 33.57 231.922 31.68L230.356 30.24C229.276 32.328 227.89 34.56 226.936 35.91L228.736 37.368ZM240.418 34.884H235.018V32.238H240.418V34.884ZM243.352 28.026V25.974H238.78V23.508C240.184 23.238 241.534 22.878 242.686 22.446L241.048 20.754C239.068 21.546 235.684 22.14 232.624 22.446C232.876 22.932 233.164 23.76 233.254 24.282C234.37 24.174 235.576 24.048 236.746 23.868V25.974H231.958V28.026H236.746V30.294H233.074V37.566H235.018V36.828H240.418V37.476H242.452V30.294H238.78V28.026H243.352ZM250.192 33.84H253.45V32.328H250.192V31.626H253.378V26.064H250.192V25.362H253.648V26.766H255.286C255.16 29.988 254.728 32.562 253.324 34.506C252.28 34.596 251.218 34.686 250.192 34.758V33.84ZM246.844 30.294V29.484H248.248V30.294H246.844ZM251.596 29.484V30.294H250.192V29.484H251.596ZM250.192 28.206V27.414H251.596V28.206H250.192ZM246.844 27.414H248.248V28.206H246.844V27.414ZM257.374 24.804C257.41 23.616 257.41 22.356 257.41 21.042H255.358C255.358 22.374 255.358 23.616 255.34 24.804H253.648V23.814H250.192V22.932C251.362 22.806 252.478 22.644 253.432 22.446L252.496 20.844C250.516 21.276 247.402 21.582 244.738 21.726C244.936 22.14 245.134 22.806 245.206 23.238C246.178 23.22 247.204 23.166 248.248 23.094V23.814H244.702V25.362H248.248V26.064H245.152V31.626H248.248V32.328H245.08V33.84H248.248V34.92C246.862 35.01 245.602 35.1 244.594 35.172L244.846 36.972C246.79 36.81 249.382 36.54 251.974 36.27C252.442 36.666 252.964 37.26 253.234 37.692C256.258 35.298 257.086 31.59 257.32 26.766H258.94C258.832 32.58 258.652 34.776 258.274 35.262C258.112 35.496 257.932 35.568 257.662 35.568C257.32 35.568 256.636 35.55 255.844 35.478C256.204 36.072 256.438 36.936 256.474 37.53C257.338 37.548 258.166 37.566 258.706 37.458C259.3 37.332 259.714 37.152 260.128 36.558C260.704 35.73 260.848 33.12 261.01 25.758C261.01 25.506 261.028 24.804 261.028 24.804H257.374ZM267.922 22.914V24.822H270.982C270.73 25.524 270.388 26.28 270.082 26.928C269.326 26.946 268.642 26.946 268.03 26.964L268.246 28.962C270.622 28.854 273.916 28.71 277.048 28.512C277.336 28.944 277.57 29.34 277.732 29.682L279.532 28.692C278.956 27.576 277.606 26.028 276.436 24.912L274.78 25.794C275.068 26.082 275.374 26.424 275.68 26.748C274.528 26.802 273.358 26.838 272.278 26.856C272.638 26.226 273.034 25.524 273.412 24.822H279.244V22.914H274.456V20.772H272.278V22.914H267.922ZM268.012 22.608C267.292 22.014 265.852 21.258 264.754 20.844L263.584 22.428C264.718 22.914 266.122 23.742 266.77 24.372L268.012 22.608ZM267.022 27.396C266.302 26.784 264.808 26.082 263.692 25.686L262.558 27.288C263.692 27.774 265.114 28.566 265.798 29.178L267.022 27.396ZM266.284 30.24C265.258 32.346 263.962 34.614 263.062 35.982L264.934 37.314C265.942 35.55 267.004 33.48 267.904 31.572L266.284 30.24ZM269.308 31.104C269.308 32.652 269.074 34.632 267.004 36.108C267.49 36.414 268.21 37.062 268.516 37.512C270.928 35.694 271.234 33.174 271.234 31.176V29.43H269.308V31.104ZM272.278 36.792H274.15V29.592H272.278V36.792ZM277.462 35.604C277.39 35.604 277.3 35.568 277.264 35.514C277.228 35.442 277.228 35.28 277.228 35.01V29.43H275.266V34.956C275.266 36.18 275.392 36.558 275.68 36.846C275.986 37.152 276.472 37.296 276.904 37.296H277.822C278.146 37.296 278.578 37.206 278.812 37.062C279.1 36.882 279.28 36.648 279.406 36.252C279.514 35.874 279.586 34.956 279.622 34.146C279.136 33.984 278.524 33.66 278.182 33.354C278.164 34.164 278.146 34.794 278.128 35.064C278.092 35.352 278.056 35.496 277.984 35.532C277.93 35.586 277.84 35.604 277.75 35.604H277.462ZM294.436 25.704H290.242V23.22H294.436V25.704ZM296.524 21.42H288.262V27.504H296.524V21.42ZM287.74 30.672C287.398 30.276 285.922 28.71 285.436 28.314V27.792H287.362V25.794H285.436V23.256C286.21 23.058 286.93 22.824 287.578 22.572L286.156 20.934C284.77 21.564 282.556 22.086 280.576 22.428C280.81 22.86 281.062 23.58 281.17 24.066C281.872 23.976 282.61 23.85 283.366 23.706V25.794H280.792V27.792H283.078C282.412 29.538 281.422 31.446 280.414 32.616C280.756 33.156 281.206 34.038 281.404 34.65C282.106 33.75 282.79 32.472 283.366 31.086V37.548H285.436V30.528C285.868 31.176 286.3 31.878 286.516 32.346L287.74 30.672ZM293.392 35.298V33.714H296.578V31.914H293.392V30.42H297.01V28.584H287.686V30.42H291.268V31.914H288.118V33.714H291.268V35.298H286.984V37.17H297.388V35.298H293.392Z" fill="#00A19B"/>
<path d="M344.152 22.464C343.48 22.016 342.136 21.28 341.16 20.816L340.504 21.664C341.48 22.192 342.808 22.96 343.464 23.424L344.152 22.464ZM343.336 26.784C342.632 26.336 341.304 25.632 340.376 25.168L339.72 26.032C340.696 26.544 342.008 27.312 342.664 27.76L343.336 26.784ZM341.096 35.008C342.04 33.536 343.16 31.552 343.992 29.872L343.128 29.088C342.2 30.896 340.968 33.008 340.104 34.208L341.096 35.008ZM352.072 33.44H346.392V30.144H352.072V33.44ZM354.248 26.416V25.264H349.864V22.496C351.24 22.256 352.52 21.952 353.56 21.6L352.632 20.672C350.856 21.312 347.64 21.808 344.888 22.096C345 22.368 345.16 22.816 345.224 23.104C346.36 22.992 347.56 22.848 348.728 22.672V25.264H344.12V26.416H348.728V29.04H345.288V35.216H346.392V34.544H352.072V35.136H353.208V29.04H349.864V26.416H354.248ZM357.176 29.184V28.016H359.192V29.184H357.176ZM357.176 26.08H359.192V27.232H357.176V26.08ZM362.36 26.08V27.232H360.264V26.08H362.36ZM362.36 29.184H360.264V28.016H362.36V29.184ZM366.568 24.32C366.6 23.2 366.6 22.016 366.6 20.816H365.48C365.48 22.032 365.48 23.2 365.448 24.32H363.544V25.44H365.416C365.272 28.432 364.84 31.008 363.464 32.896V32.832C362.392 32.96 361.304 33.072 360.264 33.168V31.904H363.4V30.992H360.264V30.016H363.368V25.264H360.264V24.256H363.656V23.328H360.264V22.16C361.432 22.032 362.52 21.888 363.384 21.696L362.792 20.784C361.144 21.152 358.264 21.44 355.896 21.568C356.024 21.808 356.136 22.192 356.184 22.448C357.128 22.416 358.168 22.352 359.192 22.272V23.328H355.736V24.256H359.192V25.264H356.2V30.016H359.192V30.992H356.168V31.904H359.192V33.28C357.88 33.408 356.68 33.52 355.72 33.6L355.896 34.64C357.688 34.448 360.168 34.176 362.584 33.888C362.376 34.08 362.152 34.272 361.896 34.448C362.184 34.64 362.6 35.04 362.776 35.296C365.592 33.184 366.328 29.696 366.52 25.44H368.808C368.648 31.248 368.456 33.36 368.088 33.824C367.928 34.032 367.784 34.08 367.512 34.08C367.208 34.08 366.504 34.064 365.736 34C365.912 34.304 366.04 34.8 366.072 35.12C366.808 35.168 367.56 35.184 368.008 35.12C368.488 35.072 368.808 34.944 369.08 34.528C369.624 33.856 369.768 31.632 369.944 24.928C369.944 24.768 369.96 24.32 369.96 24.32H366.568ZM372.664 29.696C372.424 31.088 372.072 32.512 371.48 33.488C371.752 33.584 372.264 33.824 372.456 33.968C373.032 32.96 373.48 31.408 373.736 29.888L372.664 29.696ZM376.408 29.952C376.92 30.928 377.448 32.224 377.656 33.072L378.648 32.688C378.44 31.856 377.896 30.576 377.352 29.6L376.408 29.952ZM375.976 26.064C376.264 26.464 376.568 26.928 376.84 27.408C375.816 27.456 374.808 27.504 373.896 27.536C375.112 26.192 376.488 24.384 377.528 22.912L376.488 22.4C375.96 23.28 375.24 24.352 374.472 25.376C374.2 25.04 373.816 24.656 373.4 24.288C374.088 23.392 374.888 22.144 375.528 21.088L374.44 20.624C374.024 21.536 373.336 22.768 372.696 23.68C372.536 23.552 372.392 23.44 372.248 23.328L371.672 24.128C372.44 24.736 373.32 25.552 373.832 26.224C373.448 26.72 373.048 27.184 372.68 27.6L371.576 27.632L371.704 28.704C372.536 28.672 373.544 28.624 374.632 28.56V35.216H375.752V28.496L377.368 28.384C377.56 28.768 377.72 29.12 377.832 29.424L378.792 28.928C378.472 28.032 377.64 26.672 376.872 25.648L375.976 26.064ZM381.304 34.032C380.424 34.032 380.264 33.904 380.264 33.28V27.568H384.328V28.496H385.512V21.488H378.632V22.608H384.328V26.448H379.08V33.28C379.08 34.768 379.576 35.136 381.208 35.136H384.408C385.944 35.136 386.312 34.464 386.456 32.032C386.136 31.936 385.64 31.76 385.352 31.552C385.272 33.632 385.144 34.032 384.344 34.032H381.304ZM396.952 31.248C395.848 31.952 394.712 32.64 393.864 33.136L393.816 32.464L391.464 32.944V28.304H393.752V27.264H391.464V25.568H393.24V24.544H389.048C389.928 23.584 390.584 22.56 391.064 21.696C391.928 22.496 392.888 23.616 393.368 24.336L394.168 23.44C393.592 22.64 392.408 21.456 391.448 20.624H390.376C389.848 21.888 388.824 23.504 387.384 24.72C387.592 24.864 387.944 25.232 388.12 25.472C388.344 25.264 388.568 25.056 388.776 24.848V25.568H390.424V27.264H387.928V28.304H390.424V33.136C389.432 33.344 388.52 33.504 387.784 33.632L388.024 34.736C389.576 34.384 391.592 33.968 393.544 33.536L394.04 34.256C395 33.648 396.184 32.88 397.288 32.144L396.952 31.248ZM388.296 29.36C388.6 30.32 388.84 31.552 388.872 32.384L389.752 32.16C389.704 31.344 389.448 30.112 389.112 29.152L388.296 29.36ZM392.824 32.096C393.064 31.36 393.368 30.224 393.624 29.248L392.696 29.008C392.568 29.856 392.264 31.12 392.04 31.888L392.824 32.096ZM394.152 28.8C394.76 29.456 395.416 30.352 395.704 30.944L396.568 30.352C396.28 29.776 395.592 28.912 394.984 28.304L394.152 28.8ZM396.12 24.304C396.232 23.808 396.344 23.264 396.456 22.736H399.816C399.768 23.2 399.688 23.744 399.608 24.304H396.12ZM398.568 27.6H402.28V26.592H400.392C400.648 25.072 400.904 23.232 401.048 21.84L400.216 21.744L400.04 21.808H396.648L396.856 20.72L395.72 20.608C395.432 22.24 394.984 24.464 394.616 25.792L395.736 25.904C395.784 25.696 395.848 25.472 395.912 25.232H399.48C399.416 25.696 399.336 26.16 399.272 26.592H393.816V27.6H397.448V34C397.448 34.176 397.384 34.224 397.192 34.224C397.016 34.224 396.456 34.24 395.832 34.208C395.976 34.496 396.136 34.928 396.168 35.216C397.112 35.216 397.704 35.216 398.072 35.04C398.472 34.864 398.568 34.56 398.568 34V30.8C399.288 32.4 400.312 33.648 401.752 34.352C401.912 34.064 402.248 33.632 402.472 33.44C400.424 32.576 399.16 30.528 398.568 28.048V27.6ZM400.408 30.864C400.92 30.32 401.576 29.536 402.12 28.768L401.16 28.272C400.808 28.928 400.136 29.856 399.64 30.416L400.408 30.864ZM404.232 34.72H417.832V33.648H404.232V34.72ZM414.184 29.68H407.736V28.352H414.184V29.68ZM414.184 31.84H407.736V30.512H414.184V31.84ZM406.568 27.504V32.688H415.4V27.504H406.568ZM418.056 23.696V22.64H411.544V20.624H410.376V22.64H403.96V23.696H409.08C407.72 25.2 405.576 26.544 403.624 27.216C403.864 27.44 404.216 27.888 404.408 28.16C406.568 27.296 408.936 25.648 410.376 23.776V27.024H411.544V23.76C413.016 25.584 415.368 27.216 417.576 28.032C417.752 27.744 418.104 27.28 418.36 27.072C416.344 26.448 414.2 25.136 412.808 23.696H418.056ZM424.84 21.168H420.456V22.128H424.84V21.168ZM425.304 23.264H419.672V24.24H425.304V23.264ZM424.888 27.536H420.376V28.496H424.888V27.536ZM423.88 30.656V33.344H421.368V30.656H423.88ZM424.904 29.68H420.36V35.04H421.368V34.304H424.904V29.68ZM430.056 26.912V28.416H427.416V26.912H430.056ZM427.416 30.928V29.312H430.056V30.928H427.416ZM433.928 23.168H427.928C428.232 22.432 428.504 21.664 428.728 20.88L427.528 20.592C426.984 22.624 426.056 24.64 424.888 25.952V25.424H420.376V26.368H424.888V26.176C425.176 26.384 425.576 26.704 425.768 26.88C425.992 26.624 426.2 26.336 426.408 26.032V32.8H427.416V31.872H431.08V25.968H426.456C426.808 25.44 427.144 24.864 427.448 24.24H432.792C432.664 30.88 432.488 33.36 432.04 33.872C431.88 34.08 431.704 34.128 431.4 34.128C431.032 34.128 430.12 34.112 429.096 34.048C429.304 34.336 429.448 34.832 429.48 35.152C430.36 35.2 431.304 35.232 431.848 35.168C432.392 35.12 432.744 34.992 433.064 34.528C433.656 33.776 433.768 31.296 433.928 23.792V23.168Z" fill="#1C1C1C"/>
<path d="M469.152 22.464C468.48 22.016 467.136 21.28 466.16 20.816L465.504 21.664C466.48 22.192 467.808 22.96 468.464 23.424L469.152 22.464ZM468.336 26.784C467.632 26.336 466.304 25.632 465.376 25.168L464.72 26.032C465.696 26.544 467.008 27.312 467.664 27.76L468.336 26.784ZM466.096 35.008C467.04 33.536 468.16 31.552 468.992 29.872L468.128 29.088C467.2 30.896 465.968 33.008 465.104 34.208L466.096 35.008ZM477.072 33.44H471.392V30.144H477.072V33.44ZM479.248 26.416V25.264H474.864V22.496C476.24 22.256 477.52 21.952 478.56 21.6L477.632 20.672C475.856 21.312 472.64 21.808 469.888 22.096C470 22.368 470.16 22.816 470.224 23.104C471.36 22.992 472.56 22.848 473.728 22.672V25.264H469.12V26.416H473.728V29.04H470.288V35.216H471.392V34.544H477.072V35.136H478.208V29.04H474.864V26.416H479.248ZM482.176 29.184V28.016H484.192V29.184H482.176ZM482.176 26.08H484.192V27.232H482.176V26.08ZM487.36 26.08V27.232H485.264V26.08H487.36ZM487.36 29.184H485.264V28.016H487.36V29.184ZM491.568 24.32C491.6 23.2 491.6 22.016 491.6 20.816H490.48C490.48 22.032 490.48 23.2 490.448 24.32H488.544V25.44H490.416C490.272 28.432 489.84 31.008 488.464 32.896V32.832C487.392 32.96 486.304 33.072 485.264 33.168V31.904H488.4V30.992H485.264V30.016H488.368V25.264H485.264V24.256H488.656V23.328H485.264V22.16C486.432 22.032 487.52 21.888 488.384 21.696L487.792 20.784C486.144 21.152 483.264 21.44 480.896 21.568C481.024 21.808 481.136 22.192 481.184 22.448C482.128 22.416 483.168 22.352 484.192 22.272V23.328H480.736V24.256H484.192V25.264H481.2V30.016H484.192V30.992H481.168V31.904H484.192V33.28C482.88 33.408 481.68 33.52 480.72 33.6L480.896 34.64C482.688 34.448 485.168 34.176 487.584 33.888C487.376 34.08 487.152 34.272 486.896 34.448C487.184 34.64 487.6 35.04 487.776 35.296C490.592 33.184 491.328 29.696 491.52 25.44H493.808C493.648 31.248 493.456 33.36 493.088 33.824C492.928 34.032 492.784 34.08 492.512 34.08C492.208 34.08 491.504 34.064 490.736 34C490.912 34.304 491.04 34.8 491.072 35.12C491.808 35.168 492.56 35.184 493.008 35.12C493.488 35.072 493.808 34.944 494.08 34.528C494.624 33.856 494.768 31.632 494.944 24.928C494.944 24.768 494.96 24.32 494.96 24.32H491.568ZM497.664 29.696C497.424 31.088 497.072 32.512 496.48 33.488C496.752 33.584 497.264 33.824 497.456 33.968C498.032 32.96 498.48 31.408 498.736 29.888L497.664 29.696ZM501.408 29.952C501.92 30.928 502.448 32.224 502.656 33.072L503.648 32.688C503.44 31.856 502.896 30.576 502.352 29.6L501.408 29.952ZM500.976 26.064C501.264 26.464 501.568 26.928 501.84 27.408C500.816 27.456 499.808 27.504 498.896 27.536C500.112 26.192 501.488 24.384 502.528 22.912L501.488 22.4C500.96 23.28 500.24 24.352 499.472 25.376C499.2 25.04 498.816 24.656 498.4 24.288C499.088 23.392 499.888 22.144 500.528 21.088L499.44 20.624C499.024 21.536 498.336 22.768 497.696 23.68C497.536 23.552 497.392 23.44 497.248 23.328L496.672 24.128C497.44 24.736 498.32 25.552 498.832 26.224C498.448 26.72 498.048 27.184 497.68 27.6L496.576 27.632L496.704 28.704C497.536 28.672 498.544 28.624 499.632 28.56V35.216H500.752V28.496L502.368 28.384C502.56 28.768 502.72 29.12 502.832 29.424L503.792 28.928C503.472 28.032 502.64 26.672 501.872 25.648L500.976 26.064ZM506.304 34.032C505.424 34.032 505.264 33.904 505.264 33.28V27.568H509.328V28.496H510.512V21.488H503.632V22.608H509.328V26.448H504.08V33.28C504.08 34.768 504.576 35.136 506.208 35.136H509.408C510.944 35.136 511.312 34.464 511.456 32.032C511.136 31.936 510.64 31.76 510.352 31.552C510.272 33.632 510.144 34.032 509.344 34.032H506.304ZM521.952 31.248C520.848 31.952 519.712 32.64 518.864 33.136L518.816 32.464L516.464 32.944V28.304H518.752V27.264H516.464V25.568H518.24V24.544H514.048C514.928 23.584 515.584 22.56 516.064 21.696C516.928 22.496 517.888 23.616 518.368 24.336L519.168 23.44C518.592 22.64 517.408 21.456 516.448 20.624H515.376C514.848 21.888 513.824 23.504 512.384 24.72C512.592 24.864 512.944 25.232 513.12 25.472C513.344 25.264 513.568 25.056 513.776 24.848V25.568H515.424V27.264H512.928V28.304H515.424V33.136C514.432 33.344 513.52 33.504 512.784 33.632L513.024 34.736C514.576 34.384 516.592 33.968 518.544 33.536L519.04 34.256C520 33.648 521.184 32.88 522.288 32.144L521.952 31.248ZM513.296 29.36C513.6 30.32 513.84 31.552 513.872 32.384L514.752 32.16C514.704 31.344 514.448 30.112 514.112 29.152L513.296 29.36ZM517.824 32.096C518.064 31.36 518.368 30.224 518.624 29.248L517.696 29.008C517.568 29.856 517.264 31.12 517.04 31.888L517.824 32.096ZM519.152 28.8C519.76 29.456 520.416 30.352 520.704 30.944L521.568 30.352C521.28 29.776 520.592 28.912 519.984 28.304L519.152 28.8ZM521.12 24.304C521.232 23.808 521.344 23.264 521.456 22.736H524.816C524.768 23.2 524.688 23.744 524.608 24.304H521.12ZM523.568 27.6H527.28V26.592H525.392C525.648 25.072 525.904 23.232 526.048 21.84L525.216 21.744L525.04 21.808H521.648L521.856 20.72L520.72 20.608C520.432 22.24 519.984 24.464 519.616 25.792L520.736 25.904C520.784 25.696 520.848 25.472 520.912 25.232H524.48C524.416 25.696 524.336 26.16 524.272 26.592H518.816V27.6H522.448V34C522.448 34.176 522.384 34.224 522.192 34.224C522.016 34.224 521.456 34.24 520.832 34.208C520.976 34.496 521.136 34.928 521.168 35.216C522.112 35.216 522.704 35.216 523.072 35.04C523.472 34.864 523.568 34.56 523.568 34V30.8C524.288 32.4 525.312 33.648 526.752 34.352C526.912 34.064 527.248 33.632 527.472 33.44C525.424 32.576 524.16 30.528 523.568 28.048V27.6ZM525.408 30.864C525.92 30.32 526.576 29.536 527.12 28.768L526.16 28.272C525.808 28.928 525.136 29.856 524.64 30.416L525.408 30.864ZM529.232 34.72H542.832V33.648H529.232V34.72ZM539.184 29.68H532.736V28.352H539.184V29.68ZM539.184 31.84H532.736V30.512H539.184V31.84ZM531.568 27.504V32.688H540.4V27.504H531.568ZM543.056 23.696V22.64H536.544V20.624H535.376V22.64H528.96V23.696H534.08C532.72 25.2 530.576 26.544 528.624 27.216C528.864 27.44 529.216 27.888 529.408 28.16C531.568 27.296 533.936 25.648 535.376 23.776V27.024H536.544V23.76C538.016 25.584 540.368 27.216 542.576 28.032C542.752 27.744 543.104 27.28 543.36 27.072C541.344 26.448 539.2 25.136 537.808 23.696H543.056ZM549.84 21.168H545.456V22.128H549.84V21.168ZM550.304 23.264H544.672V24.24H550.304V23.264ZM549.888 27.536H545.376V28.496H549.888V27.536ZM548.88 30.656V33.344H546.368V30.656H548.88ZM549.904 29.68H545.36V35.04H546.368V34.304H549.904V29.68ZM555.056 26.912V28.416H552.416V26.912H555.056ZM552.416 30.928V29.312H555.056V30.928H552.416ZM558.928 23.168H552.928C553.232 22.432 553.504 21.664 553.728 20.88L552.528 20.592C551.984 22.624 551.056 24.64 549.888 25.952V25.424H545.376V26.368H549.888V26.176C550.176 26.384 550.576 26.704 550.768 26.88C550.992 26.624 551.2 26.336 551.408 26.032V32.8H552.416V31.872H556.08V25.968H551.456C551.808 25.44 552.144 24.864 552.448 24.24H557.792C557.664 30.88 557.488 33.36 557.04 33.872C556.88 34.08 556.704 34.128 556.4 34.128C556.032 34.128 555.12 34.112 554.096 34.048C554.304 34.336 554.448 34.832 554.48 35.152C555.36 35.2 556.304 35.232 556.848 35.168C557.392 35.12 557.744 34.992 558.064 34.528C558.656 33.776 558.768 31.296 558.928 23.792V23.168Z" fill="#1C1C1C"/>
<rect x="199" y="50" width="376" height="4" rx="2" fill="#E1EFEF"/>
<rect x="199" y="50" width="125" height="4" rx="2" fill="#00A19B"/>
<path d="M173.693 47H172V40.4727L169.979 41.0996V39.7227L173.512 38.457H173.693V47ZM183.318 47H177.471V45.8398L180.23 42.8984C180.609 42.4844 180.889 42.123 181.068 41.8145C181.252 41.5059 181.344 41.2129 181.344 40.9355C181.344 40.5566 181.248 40.2598 181.057 40.0449C180.865 39.8262 180.592 39.7168 180.236 39.7168C179.854 39.7168 179.551 39.8496 179.328 40.1152C179.109 40.377 179 40.7227 179 41.1523H177.301C177.301 40.6328 177.424 40.1582 177.67 39.7285C177.92 39.2988 178.271 38.9629 178.725 38.7207C179.178 38.4746 179.691 38.3516 180.266 38.3516C181.145 38.3516 181.826 38.5625 182.311 38.9844C182.799 39.4062 183.043 40.002 183.043 40.7715C183.043 41.1934 182.934 41.623 182.715 42.0605C182.496 42.498 182.121 43.0078 181.59 43.5898L179.65 45.6348H183.318V47ZM191.139 43.8887C191.139 44.8652 190.916 45.6484 190.471 46.2383C190.029 46.8242 189.432 47.1172 188.678 47.1172C188.037 47.1172 187.52 46.8945 187.125 46.4492V49.4375H185.432V40.6602H187.002L187.061 41.2812C187.471 40.7891 188.006 40.543 188.666 40.543C189.447 40.543 190.055 40.832 190.488 41.4102C190.922 41.9883 191.139 42.7852 191.139 43.8008V43.8887ZM189.445 43.7656C189.445 43.1758 189.34 42.7207 189.129 42.4004C188.922 42.0801 188.619 41.9199 188.221 41.9199C187.689 41.9199 187.324 42.123 187.125 42.5293V45.125C187.332 45.543 187.701 45.752 188.232 45.752C189.041 45.752 189.445 45.0898 189.445 43.7656ZM195.514 42.5527L196.58 40.6602H198.391L196.586 43.7656L198.467 47H196.65L195.52 45.0078L194.395 47H192.572L194.453 43.7656L192.654 40.6602H194.471L195.514 42.5527Z" fill="#4D4D4D"/>
<path d="M175.428 73H169.58V71.8398L172.34 68.8984C172.719 68.4844 172.998 68.123 173.178 67.8145C173.361 67.5059 173.453 67.2129 173.453 66.9355C173.453 66.5566 173.357 66.2598 173.166 66.0449C172.975 65.8262 172.701 65.7168 172.346 65.7168C171.963 65.7168 171.66 65.8496 171.438 66.1152C171.219 66.377 171.109 66.7227 171.109 67.1523H169.41C169.41 66.6328 169.533 66.1582 169.779 65.7285C170.029 65.2988 170.381 64.9629 170.834 64.7207C171.287 64.4746 171.801 64.3516 172.375 64.3516C173.254 64.3516 173.936 64.5625 174.42 64.9844C174.908 65.4062 175.152 66.002 175.152 66.7715C175.152 67.1934 175.043 67.623 174.824 68.0605C174.605 68.498 174.23 69.0078 173.699 69.5898L171.76 71.6348H175.428V73ZM183.213 69.4727C183.213 70.6523 182.969 71.5547 182.48 72.1797C181.992 72.8047 181.277 73.1172 180.336 73.1172C179.406 73.1172 178.695 72.8105 178.203 72.1973C177.711 71.584 177.459 70.7051 177.447 69.5605V67.9902C177.447 66.7988 177.693 65.8945 178.186 65.2773C178.682 64.6602 179.395 64.3516 180.324 64.3516C181.254 64.3516 181.965 64.6582 182.457 65.2715C182.949 65.8809 183.201 66.7578 183.213 67.9023V69.4727ZM181.52 67.75C181.52 67.043 181.422 66.5293 181.227 66.209C181.035 65.8848 180.734 65.7227 180.324 65.7227C179.926 65.7227 179.631 65.877 179.439 66.1855C179.252 66.4902 179.152 66.9688 179.141 67.6211V69.6953C179.141 70.3906 179.234 70.9082 179.422 71.248C179.613 71.584 179.918 71.752 180.336 71.752C180.75 71.752 181.049 71.5898 181.232 71.2656C181.416 70.9414 181.512 70.4453 181.52 69.7773V67.75ZM191.139 69.8887C191.139 70.8652 190.916 71.6484 190.471 72.2383C190.029 72.8242 189.432 73.1172 188.678 73.1172C188.037 73.1172 187.52 72.8945 187.125 72.4492V75.4375H185.432V66.6602H187.002L187.061 67.2812C187.471 66.7891 188.006 66.543 188.666 66.543C189.447 66.543 190.055 66.832 190.488 67.4102C190.922 67.9883 191.139 68.7852 191.139 69.8008V69.8887ZM189.445 69.7656C189.445 69.1758 189.34 68.7207 189.129 68.4004C188.922 68.0801 188.619 67.9199 188.221 67.9199C187.689 67.9199 187.324 68.123 187.125 68.5293V71.125C187.332 71.543 187.701 71.752 188.232 71.752C189.041 71.752 189.445 71.0898 189.445 69.7656ZM195.514 68.5527L196.58 66.6602H198.391L196.586 69.7656L198.467 73H196.65L195.52 71.0078L194.395 73H192.572L194.453 69.7656L192.654 66.6602H194.471L195.514 68.5527Z" fill="#4D4D4D"/>
<path d="M593.59 53.7891H594.557V55.1543H593.59V57H591.896V55.1543H588.398L588.322 54.0879L591.879 48.4688H593.59V53.7891ZM590.01 53.7891H591.896V50.7773L591.785 50.9707L590.01 53.7891ZM602.248 53.8887C602.248 54.8652 602.025 55.6484 601.58 56.2383C601.139 56.8242 600.541 57.1172 599.787 57.1172C599.146 57.1172 598.629 56.8945 598.234 56.4492V59.4375H596.541V50.6602H598.111L598.17 51.2812C598.58 50.7891 599.115 50.543 599.775 50.543C600.557 50.543 601.164 50.832 601.598 51.4102C602.031 51.9883 602.248 52.7852 602.248 53.8008V53.8887ZM600.555 53.7656C600.555 53.1758 600.449 52.7207 600.238 52.4004C600.031 52.0801 599.729 51.9199 599.33 51.9199C598.799 51.9199 598.434 52.123 598.234 52.5293V55.125C598.441 55.543 598.811 55.752 599.342 55.752C600.15 55.752 600.555 55.0898 600.555 53.7656ZM606.623 52.5527L607.689 50.6602H609.5L607.695 53.7656L609.576 57H607.76L606.629 55.0078L605.504 57H603.682L605.562 53.7656L603.764 50.6602H605.58L606.623 52.5527Z" fill="#4D4D4D"/>
<path d="M208 38L205.113 43H210.887L208 38ZM208 50L210.887 45H205.113L208 50ZM207.5 42.5V45.5H208.5V42.5H207.5Z" fill="#E73525"/>
<path d="M208 59L205.113 64H210.887L208 59ZM208 79L210.887 74H205.113L208 79ZM207.5 63.5V74.5H208.5V63.5H207.5Z" fill="#E73525"/>
<path d="M579 46L576.113 51H581.887L579 46ZM579 58L581.887 53H576.113L579 58ZM578.5 50.5V53.5H579.5V50.5H578.5Z" fill="#E73525"/>
<rect y="80" width="780" height="228" rx="4" fill="#E1EFEF"/>
<path d="M386.148 183.86H373.692C373.368 181.88 373.152 179.756 373.044 177.488H364.296V179.864H370.776C370.848 181.268 370.992 182.6 371.172 183.86H358.068V208.736H360.732V186.488H370.092C368.868 192.14 365.916 196.028 361.092 198.368C361.668 198.872 362.496 199.88 362.892 200.492C367.68 198.044 370.632 194.048 372.144 188.54C373.692 193.94 376.464 197.972 381.18 200.312C381.612 199.592 382.476 198.548 383.052 197.972C378.336 195.956 375.636 191.996 374.268 186.488H383.448V205.244C383.448 205.82 383.304 206 382.656 206.036C381.936 206.072 379.704 206.072 377.364 206C377.76 206.72 378.156 207.944 378.264 208.7C381.324 208.7 383.376 208.7 384.6 208.268C385.788 207.8 386.148 206.936 386.148 205.244V183.86ZM395.688 181.628H420.204V185.66H422.94V179.18H409.26V175.868H406.56V179.18H393.096V185.66H395.688V181.628ZM411.096 184.868C414.408 186.884 418.44 189.944 420.384 191.996L422.328 190.196C420.312 188.144 416.172 185.228 412.932 183.284L411.096 184.868ZM401.988 183.32C399.972 185.948 396.588 188.468 393.348 190.088C393.96 190.592 394.86 191.636 395.256 192.176C398.532 190.268 402.168 187.28 404.544 184.148L401.988 183.32ZM400.512 196.748C403.644 194.48 406.344 191.996 408.036 189.764C409.98 192.104 412.932 194.588 416.1 196.748H400.512ZM400.728 205.136V199.16H415.236V205.136H400.728ZM406.56 187.28C403.716 191.348 397.812 196.136 391.764 198.872C392.304 199.484 392.988 200.456 393.276 201.104C394.932 200.276 396.588 199.34 398.172 198.332V208.772H400.728V207.548H415.236V208.628H417.9V197.936C419.628 199.016 421.356 199.988 422.976 200.78C423.408 200.024 424.056 199.052 424.668 198.368C419.16 196.136 413.04 191.888 409.224 187.28H406.56Z" fill="#1C1C1C"/>
</g>
</svg>
