<svg width="780" height="308" viewBox="0 0 780 308" fill="none" xmlns="http://www.w3.org/2000/svg">
<rect y="80" width="780" height="228" rx="4" fill="#F4F8FA"/>
<path d="M386.148 183.86H373.692C373.368 181.88 373.152 179.756 373.044 177.488H364.296V179.864H370.776C370.848 181.268 370.992 182.6 371.172 183.86H358.068V208.736H360.732V186.488H370.092C368.868 192.14 365.916 196.028 361.092 198.368C361.668 198.872 362.496 199.88 362.892 200.492C367.68 198.044 370.632 194.048 372.144 188.54C373.692 193.94 376.464 197.972 381.18 200.312C381.612 199.592 382.476 198.548 383.052 197.972C378.336 195.956 375.636 191.996 374.268 186.488H383.448V205.244C383.448 205.82 383.304 206 382.656 206.036C381.936 206.072 379.704 206.072 377.364 206C377.76 206.72 378.156 207.944 378.264 208.7C381.324 208.7 383.376 208.7 384.6 208.268C385.788 207.8 386.148 206.936 386.148 205.244V183.86ZM395.688 181.628H420.204V185.66H422.94V179.18H409.26V175.868H406.56V179.18H393.096V185.66H395.688V181.628ZM411.096 184.868C414.408 186.884 418.44 189.944 420.384 191.996L422.328 190.196C420.312 188.144 416.172 185.228 412.932 183.284L411.096 184.868ZM401.988 183.32C399.972 185.948 396.588 188.468 393.348 190.088C393.96 190.592 394.86 191.636 395.256 192.176C398.532 190.268 402.168 187.28 404.544 184.148L401.988 183.32ZM400.512 196.748C403.644 194.48 406.344 191.996 408.036 189.764C409.98 192.104 412.932 194.588 416.1 196.748H400.512ZM400.728 205.136V199.16H415.236V205.136H400.728ZM406.56 187.28C403.716 191.348 397.812 196.136 391.764 198.872C392.304 199.484 392.988 200.456 393.276 201.104C394.932 200.276 396.588 199.34 398.172 198.332V208.772H400.728V207.548H415.236V208.628H417.9V197.936C419.628 199.016 421.356 199.988 422.976 200.78C423.408 200.024 424.056 199.052 424.668 198.368C419.16 196.136 413.04 191.888 409.224 187.28H406.56Z" fill="#1C1C1C"/>
<path d="M254.693 21H253V14.4727L250.979 15.0996V13.7227L254.512 12.457H254.693V21ZM264.318 21H258.471V19.8398L261.23 16.8984C261.609 16.4844 261.889 16.123 262.068 15.8145C262.252 15.5059 262.344 15.2129 262.344 14.9355C262.344 14.5566 262.248 14.2598 262.057 14.0449C261.865 13.8262 261.592 13.7168 261.236 13.7168C260.854 13.7168 260.551 13.8496 260.328 14.1152C260.109 14.377 260 14.7227 260 15.1523H258.301C258.301 14.6328 258.424 14.1582 258.67 13.7285C258.92 13.2988 259.271 12.9629 259.725 12.7207C260.178 12.4746 260.691 12.3516 261.266 12.3516C262.145 12.3516 262.826 12.5625 263.311 12.9844C263.799 13.4062 264.043 14.002 264.043 14.7715C264.043 15.1934 263.934 15.623 263.715 16.0605C263.496 16.498 263.121 17.0078 262.59 17.5898L260.65 19.6348H264.318V21Z" fill="#4D4D4D"/>
<path d="M252 32L257 34.8868V29.1132L252 32ZM264 32L259 29.1132V34.8868L264 32ZM256.5 32.5H259.5V31.5L256.5 31.5V32.5Z" fill="#E73525"/>
<rect x="132" width="120" height="60" rx="4" fill="#00A19B"/>
<rect x="264.5" y="0.5" width="119" height="59" rx="3.5" stroke="#00A19B"/>
<rect x="396.5" y="0.5" width="119" height="59" rx="3.5" stroke="#00A19B"/>
<rect x="528.5" y="0.5" width="119" height="59" rx="3.5" stroke="#00A19B"/>
<path d="M177.128 24.152H171.496V25.758H177.128V31.918C174.774 32.82 172.42 33.744 170.814 34.25L171.584 35.9C173.168 35.24 175.148 34.404 177.128 33.546V38.474H178.778V19.004H177.128V24.152ZM185.246 36.582C184.3 36.582 184.102 36.362 184.102 35.218V27.98C186.412 26.682 188.92 25.208 190.746 23.756L189.536 22.348C188.216 23.602 186.148 25.054 184.102 26.286V19.026H182.452V35.196C182.452 37.528 183.024 38.188 185.07 38.188H188.59C190.724 38.188 191.164 36.758 191.362 32.776C190.9 32.666 190.196 32.336 189.8 32.006C189.646 35.636 189.492 36.582 188.48 36.582H185.246ZM212.878 33.106V31.676H203.352C203.506 31.038 203.616 30.378 203.682 29.652H212.658V28.156H203.77V26.33H210.832V24.9H203.77V23.118H211.8V21.644H206.96C207.576 20.962 208.324 20.038 208.94 19.07L207.268 18.564C206.806 19.378 205.992 20.61 205.376 21.358L206.19 21.644H199.634L200.338 21.314C200.008 20.5 199.216 19.356 198.424 18.564L197.016 19.136C197.676 19.862 198.314 20.852 198.666 21.644H194.222V23.118H202.142V24.9H195.3V26.33H202.142V28.156H193.342V29.652H201.988C201.9 30.378 201.79 31.06 201.636 31.676H193.188V33.106H201.086C200.03 35.196 197.83 36.516 192.902 37.242C193.21 37.572 193.606 38.254 193.738 38.672C199.414 37.748 201.812 35.966 202.912 33.106H203.022C204.584 36.428 207.488 38.1 212.196 38.694C212.394 38.254 212.834 37.55 213.208 37.22C208.962 36.802 206.168 35.548 204.716 33.106H212.878Z" fill="white"/>
<path d="M318.786 24.02H321.206C321.052 25.45 320.832 26.968 320.568 28.002L321.866 28.376C322.24 26.946 322.636 24.658 322.9 22.766L321.844 22.458L321.58 22.524H316.498C316.784 21.336 316.982 20.082 317.158 18.806L315.574 18.564C315.156 21.996 314.386 25.362 313 27.496C313.396 27.694 314.078 28.178 314.364 28.442C315.068 27.232 315.662 25.714 316.124 24.02H317.224V27.056C317.246 28.53 316.828 32.952 313.99 36.032V34.976H305.278V21.094H313.682V19.664H303.87V38.012H305.278V36.384H313.638C313.286 36.736 312.89 37.044 312.472 37.352C312.758 37.66 313.22 38.32 313.418 38.65C316.674 36.318 317.796 32.226 317.994 30.444C318.192 32.182 319.182 36.406 322.152 38.65C322.394 38.276 322.856 37.616 323.164 37.286C319.336 34.426 318.786 28.75 318.786 27.056V24.02ZM308.314 23.492H311.196V26.132H308.314V23.492ZM307.06 27.21H312.494V22.414H307.06V27.21ZM311.086 29.41H312.516V32.424H311.086V29.41ZM310.162 33.524H313.506V28.332H310.162V33.524ZM307.038 29.41H308.358V32.424H307.038V29.41ZM306.092 33.524H309.304V28.332H306.092V33.524ZM330.82 30.73C331.744 29.322 332.294 27.034 332.58 25.186L331.37 24.812C331.062 26.572 330.468 28.75 329.588 30.048L330.82 30.73ZM330.402 21.116C329.61 20.434 328.026 19.466 326.838 18.828L325.87 19.994C327.102 20.676 328.642 21.71 329.39 22.414L330.402 21.116ZM329.566 26.792C328.73 26.176 327.08 25.274 325.848 24.702L324.924 25.89C326.156 26.528 327.806 27.474 328.62 28.134L329.566 26.792ZM326.838 38.408C327.784 36.406 328.884 33.722 329.698 31.434L328.4 30.554C327.498 33.018 326.244 35.856 325.364 37.55L326.838 38.408ZM333.108 26.726C333.108 30.664 332.8 34.602 330.094 37.726C330.512 37.946 331.15 38.386 331.458 38.694C334.318 35.306 334.648 31.016 334.648 26.726V19.092H333.108V26.726ZM334.736 25.56C335.374 27.056 335.946 29.036 336.144 30.334L337.398 29.85C337.2 28.552 336.584 26.616 335.902 25.12L334.736 25.56ZM342.48 19.07V29.256C342.04 27.914 341.182 26.11 340.324 24.746L339.246 25.186V19.4H337.706V38.188H339.246V25.472C340.148 27.034 341.006 29.014 341.336 30.356L342.48 29.806V38.672H344.064V19.07H342.48Z" fill="#00A19B"/>
<path d="M438.356 30.774V26.286H443.284V21.49H446.584V26.264H451.556V30.774H446.584V36.23H443.306V30.774H438.356ZM448.146 36.23V32.182H451.556V32.93H453.184V24.834H448.146V21.49H454.284V19.994H435.804V21.49H441.7V24.856H436.794V33.062H438.356V32.182H441.722V36.23H435.21V37.704H454.812V36.23H448.146ZM464.47 33.766C466.032 35.086 467.902 36.956 468.782 38.188L470.234 37.044C469.332 35.834 467.396 34.052 465.834 32.798L464.47 33.766ZM476.68 26.066V24.416H467.44C467.66 22.304 467.682 20.302 467.704 18.608H465.966C465.944 20.28 465.966 22.304 465.724 24.416H457.408V26.066H465.482C464.69 30.422 462.6 34.866 456.88 37.33C457.342 37.66 457.848 38.254 458.09 38.672C463.854 36.054 466.142 31.412 467.066 26.836C468.738 32.314 471.576 36.582 476.042 38.716C476.306 38.254 476.856 37.572 477.252 37.22C472.896 35.35 470.014 31.17 468.518 26.066H476.68Z" fill="#00A19B"/>
<path d="M560.016 28.662H565.12V30.796H560.016V28.662ZM560.016 25.362H565.12V27.452H560.016V25.362ZM572.182 25.362V27.452H566.77V25.362H572.182ZM572.182 30.796H566.77V28.662H572.182V30.796ZM573.832 32.072V24.064H566.77V22.216H575.592V20.676H566.77V18.608H565.12V20.676H556.518V22.216H565.12V24.064H558.432V32.072H563.756C561.798 34.118 558.74 36.01 555.968 36.978C556.364 37.308 556.848 37.924 557.112 38.342C559.906 37.198 563.03 35.108 565.12 32.754V38.672H566.77V32.688C568.882 35.064 572.094 37.242 574.954 38.386C575.196 37.924 575.702 37.308 576.098 36.978C573.282 36.032 570.158 34.14 568.156 32.072H573.832ZM583.996 26.88C584.546 27.694 585.118 28.794 585.338 29.542L586.68 29.058C586.46 28.332 585.866 27.276 585.294 26.484L583.996 26.88ZM593.632 34.47V33.106H588.726V30.884H593.258V29.542H590.596C591.102 28.772 591.608 27.782 592.092 26.858L590.684 26.462C590.332 27.364 589.694 28.662 589.166 29.542H582.896V30.884H587.164V33.106H582.434V34.47H587.164V38.254H588.726V34.47H593.632ZM597.636 22.326V20.786H588.88V18.608H587.098V20.786H578.408V22.326H587.098V24.658H579.596V38.672H581.202V26.176H594.82V36.78C594.82 37.132 594.71 37.242 594.314 37.264C593.94 37.286 592.598 37.286 591.212 37.22C591.432 37.638 591.696 38.254 591.806 38.694C593.566 38.694 594.82 38.694 595.524 38.43C596.228 38.188 596.47 37.748 596.47 36.78V24.658H588.88V22.326H597.636ZM603.356 30.774V26.286H608.284V21.49H611.584V26.264H616.556V30.774H611.584V36.23H608.306V30.774H603.356ZM613.146 36.23V32.182H616.556V32.93H618.184V24.834H613.146V21.49H619.284V19.994H600.804V21.49H606.7V24.856H601.794V33.062H603.356V32.182H606.722V36.23H600.21V37.704H619.812V36.23H613.146Z" fill="#00A19B"/>
<rect x="191.313" y="49" width="16" height="16" transform="rotate(45 191.313 49)" fill="#00A19B"/>
<path d="M561.428 74H555.58V72.8398L558.34 69.8984C558.719 69.4844 558.998 69.123 559.178 68.8145C559.361 68.5059 559.453 68.2129 559.453 67.9355C559.453 67.5566 559.357 67.2598 559.166 67.0449C558.975 66.8262 558.701 66.7168 558.346 66.7168C557.963 66.7168 557.66 66.8496 557.438 67.1152C557.219 67.377 557.109 67.7227 557.109 68.1523H555.41C555.41 67.6328 555.533 67.1582 555.779 66.7285C556.029 66.2988 556.381 65.9629 556.834 65.7207C557.287 65.4746 557.801 65.3516 558.375 65.3516C559.254 65.3516 559.936 65.5625 560.42 65.9844C560.908 66.4062 561.152 67.002 561.152 67.7715C561.152 68.1934 561.043 68.623 560.824 69.0605C560.605 69.498 560.23 70.0078 559.699 70.5898L557.76 72.6348H561.428V74ZM569.213 70.4727C569.213 71.6523 568.969 72.5547 568.48 73.1797C567.992 73.8047 567.277 74.1172 566.336 74.1172C565.406 74.1172 564.695 73.8105 564.203 73.1973C563.711 72.584 563.459 71.7051 563.447 70.5605V68.9902C563.447 67.7988 563.693 66.8945 564.186 66.2773C564.682 65.6602 565.395 65.3516 566.324 65.3516C567.254 65.3516 567.965 65.6582 568.457 66.2715C568.949 66.8809 569.201 67.7578 569.213 68.9023V70.4727ZM567.52 68.75C567.52 68.043 567.422 67.5293 567.227 67.209C567.035 66.8848 566.734 66.7227 566.324 66.7227C565.926 66.7227 565.631 66.877 565.439 67.1855C565.252 67.4902 565.152 67.9688 565.141 68.6211V70.6953C565.141 71.3906 565.234 71.9082 565.422 72.248C565.613 72.584 565.918 72.752 566.336 72.752C566.75 72.752 567.049 72.5898 567.232 72.2656C567.416 71.9414 567.512 71.4453 567.52 70.7773V68.75ZM577.139 70.8887C577.139 71.8652 576.916 72.6484 576.471 73.2383C576.029 73.8242 575.432 74.1172 574.678 74.1172C574.037 74.1172 573.52 73.8945 573.125 73.4492V76.4375H571.432V67.6602H573.002L573.061 68.2812C573.471 67.7891 574.006 67.543 574.666 67.543C575.447 67.543 576.055 67.832 576.488 68.4102C576.922 68.9883 577.139 69.7852 577.139 70.8008V70.8887ZM575.445 70.7656C575.445 70.1758 575.34 69.7207 575.129 69.4004C574.922 69.0801 574.619 68.9199 574.221 68.9199C573.689 68.9199 573.324 69.123 573.125 69.5293V72.125C573.332 72.543 573.701 72.752 574.232 72.752C575.041 72.752 575.445 72.0898 575.445 70.7656ZM581.514 69.5527L582.58 67.6602H584.391L582.586 70.7656L584.467 74H582.65L581.52 72.0078L580.395 74H578.572L580.453 70.7656L578.654 67.6602H580.471L581.514 69.5527Z" fill="#4D4D4D"/>
<path d="M594 60L591.113 65H596.887L594 60ZM594 80L596.887 75H591.113L594 80ZM593.5 64.5V75.5H594.5V64.5H593.5Z" fill="#E73525"/>
</svg>
