<svg width="780" height="60" viewBox="0 0 780 60" fill="none" xmlns="http://www.w3.org/2000/svg">
<path d="M122.693 21H121V14.4727L118.979 15.0996V13.7227L122.512 12.457H122.693V21ZM132.318 21H126.471V19.8398L129.23 16.8984C129.609 16.4844 129.889 16.123 130.068 15.8145C130.252 15.5059 130.344 15.2129 130.344 14.9355C130.344 14.5566 130.248 14.2598 130.057 14.0449C129.865 13.8262 129.592 13.7168 129.236 13.7168C128.854 13.7168 128.551 13.8496 128.328 14.1152C128.109 14.377 128 14.7227 128 15.1523H126.301C126.301 14.6328 126.424 14.1582 126.67 13.7285C126.92 13.2988 127.271 12.9629 127.725 12.7207C128.178 12.4746 128.691 12.3516 129.266 12.3516C130.145 12.3516 130.826 12.5625 131.311 12.9844C131.799 13.4062 132.043 14.002 132.043 14.7715C132.043 15.1934 131.934 15.623 131.715 16.0605C131.496 16.498 131.121 17.0078 130.59 17.5898L128.65 19.6348H132.318V21Z" fill="#4D4D4D"/>
<path d="M120 32L125 34.8868V29.1132L120 32ZM132 32L127 29.1132V34.8868L132 32ZM124.5 32.5H127.5V31.5L124.5 31.5V32.5Z" fill="#E73525"/>
<rect width="120" height="60" rx="4" fill="#00A19B"/>
<rect x="132.5" y="0.5" width="119" height="59" rx="3.5" stroke="#00A19B"/>
<rect x="264.5" y="0.5" width="119" height="59" rx="3.5" stroke="#00A19B"/>
<rect x="396.5" y="0.5" width="119" height="59" rx="3.5" stroke="#00A19B"/>
<rect x="528.5" y="0.5" width="119" height="59" rx="3.5" stroke="#00A19B"/>
<rect x="660.5" y="0.5" width="119" height="59" rx="3.5" stroke="#00A19B"/>
<path d="M45.128 24.152H39.496V25.758H45.128V31.918C42.774 32.82 40.42 33.744 38.814 34.25L39.584 35.9C41.168 35.24 43.148 34.404 45.128 33.546V38.474H46.778V19.004H45.128V24.152ZM53.246 36.582C52.3 36.582 52.102 36.362 52.102 35.218V27.98C54.412 26.682 56.92 25.208 58.746 23.756L57.536 22.348C56.216 23.602 54.148 25.054 52.102 26.286V19.026H50.452V35.196C50.452 37.528 51.024 38.188 53.07 38.188H56.59C58.724 38.188 59.164 36.758 59.362 32.776C58.9 32.666 58.196 32.336 57.8 32.006C57.646 35.636 57.492 36.582 56.48 36.582H53.246ZM80.878 33.106V31.676H71.352C71.506 31.038 71.616 30.378 71.682 29.652H80.658V28.156H71.77V26.33H78.832V24.9H71.77V23.118H79.8V21.644H74.96C75.576 20.962 76.324 20.038 76.94 19.07L75.268 18.564C74.806 19.378 73.992 20.61 73.376 21.358L74.19 21.644H67.634L68.338 21.314C68.008 20.5 67.216 19.356 66.424 18.564L65.016 19.136C65.676 19.862 66.314 20.852 66.666 21.644H62.222V23.118H70.142V24.9H63.3V26.33H70.142V28.156H61.342V29.652H69.988C69.9 30.378 69.79 31.06 69.636 31.676H61.188V33.106H69.086C68.03 35.196 65.83 36.516 60.902 37.242C61.21 37.572 61.606 38.254 61.738 38.672C67.414 37.748 69.812 35.966 70.912 33.106H71.022C72.584 36.428 75.488 38.1 80.196 38.694C80.394 38.254 80.834 37.55 81.208 37.22C76.962 36.802 74.168 35.548 72.716 33.106H80.878Z" fill="white"/>
<path d="M186.786 24.02H189.206C189.052 25.45 188.832 26.968 188.568 28.002L189.866 28.376C190.24 26.946 190.636 24.658 190.9 22.766L189.844 22.458L189.58 22.524H184.498C184.784 21.336 184.982 20.082 185.158 18.806L183.574 18.564C183.156 21.996 182.386 25.362 181 27.496C181.396 27.694 182.078 28.178 182.364 28.442C183.068 27.232 183.662 25.714 184.124 24.02H185.224V27.056C185.246 28.53 184.828 32.952 181.99 36.032V34.976H173.278V21.094H181.682V19.664H171.87V38.012H173.278V36.384H181.638C181.286 36.736 180.89 37.044 180.472 37.352C180.758 37.66 181.22 38.32 181.418 38.65C184.674 36.318 185.796 32.226 185.994 30.444C186.192 32.182 187.182 36.406 190.152 38.65C190.394 38.276 190.856 37.616 191.164 37.286C187.336 34.426 186.786 28.75 186.786 27.056V24.02ZM176.314 23.492H179.196V26.132H176.314V23.492ZM175.06 27.21H180.494V22.414H175.06V27.21ZM179.086 29.41H180.516V32.424H179.086V29.41ZM178.162 33.524H181.506V28.332H178.162V33.524ZM175.038 29.41H176.358V32.424H175.038V29.41ZM174.092 33.524H177.304V28.332H174.092V33.524ZM198.82 30.73C199.744 29.322 200.294 27.034 200.58 25.186L199.37 24.812C199.062 26.572 198.468 28.75 197.588 30.048L198.82 30.73ZM198.402 21.116C197.61 20.434 196.026 19.466 194.838 18.828L193.87 19.994C195.102 20.676 196.642 21.71 197.39 22.414L198.402 21.116ZM197.566 26.792C196.73 26.176 195.08 25.274 193.848 24.702L192.924 25.89C194.156 26.528 195.806 27.474 196.62 28.134L197.566 26.792ZM194.838 38.408C195.784 36.406 196.884 33.722 197.698 31.434L196.4 30.554C195.498 33.018 194.244 35.856 193.364 37.55L194.838 38.408ZM201.108 26.726C201.108 30.664 200.8 34.602 198.094 37.726C198.512 37.946 199.15 38.386 199.458 38.694C202.318 35.306 202.648 31.016 202.648 26.726V19.092H201.108V26.726ZM202.736 25.56C203.374 27.056 203.946 29.036 204.144 30.334L205.398 29.85C205.2 28.552 204.584 26.616 203.902 25.12L202.736 25.56ZM210.48 19.07V29.256C210.04 27.914 209.182 26.11 208.324 24.746L207.246 25.186V19.4H205.706V38.188H207.246V25.472C208.148 27.034 209.006 29.014 209.336 30.356L210.48 29.806V38.672H212.064V19.07H210.48Z" fill="#00A19B"/>
<path d="M306.356 30.774V26.286H311.284V21.49H314.584V26.264H319.556V30.774H314.584V36.23H311.306V30.774H306.356ZM316.146 36.23V32.182H319.556V32.93H321.184V24.834H316.146V21.49H322.284V19.994H303.804V21.49H309.7V24.856H304.794V33.062H306.356V32.182H309.722V36.23H303.21V37.704H322.812V36.23H316.146ZM332.47 33.766C334.032 35.086 335.902 36.956 336.782 38.188L338.234 37.044C337.332 35.834 335.396 34.052 333.834 32.798L332.47 33.766ZM344.68 26.066V24.416H335.44C335.66 22.304 335.682 20.302 335.704 18.608H333.966C333.944 20.28 333.966 22.304 333.724 24.416H325.408V26.066H333.482C332.69 30.422 330.6 34.866 324.88 37.33C325.342 37.66 325.848 38.254 326.09 38.672C331.854 36.054 334.142 31.412 335.066 26.836C336.738 32.314 339.576 36.582 344.042 38.716C344.306 38.254 344.856 37.572 345.252 37.22C340.896 35.35 338.014 31.17 336.518 26.066H344.68Z" fill="#00A19B"/>
<path d="M428.016 28.662H433.12V30.796H428.016V28.662ZM428.016 25.362H433.12V27.452H428.016V25.362ZM440.182 25.362V27.452H434.77V25.362H440.182ZM440.182 30.796H434.77V28.662H440.182V30.796ZM441.832 32.072V24.064H434.77V22.216H443.592V20.676H434.77V18.608H433.12V20.676H424.518V22.216H433.12V24.064H426.432V32.072H431.756C429.798 34.118 426.74 36.01 423.968 36.978C424.364 37.308 424.848 37.924 425.112 38.342C427.906 37.198 431.03 35.108 433.12 32.754V38.672H434.77V32.688C436.882 35.064 440.094 37.242 442.954 38.386C443.196 37.924 443.702 37.308 444.098 36.978C441.282 36.032 438.158 34.14 436.156 32.072H441.832ZM451.996 26.88C452.546 27.694 453.118 28.794 453.338 29.542L454.68 29.058C454.46 28.332 453.866 27.276 453.294 26.484L451.996 26.88ZM461.632 34.47V33.106H456.726V30.884H461.258V29.542H458.596C459.102 28.772 459.608 27.782 460.092 26.858L458.684 26.462C458.332 27.364 457.694 28.662 457.166 29.542H450.896V30.884H455.164V33.106H450.434V34.47H455.164V38.254H456.726V34.47H461.632ZM465.636 22.326V20.786H456.88V18.608H455.098V20.786H446.408V22.326H455.098V24.658H447.596V38.672H449.202V26.176H462.82V36.78C462.82 37.132 462.71 37.242 462.314 37.264C461.94 37.286 460.598 37.286 459.212 37.22C459.432 37.638 459.696 38.254 459.806 38.694C461.566 38.694 462.82 38.694 463.524 38.43C464.228 38.188 464.47 37.748 464.47 36.78V24.658H456.88V22.326H465.636ZM471.356 30.774V26.286H476.284V21.49H479.584V26.264H484.556V30.774H479.584V36.23H476.306V30.774H471.356ZM481.146 36.23V32.182H484.556V32.93H486.184V24.834H481.146V21.49H487.284V19.994H468.804V21.49H474.7V24.856H469.794V33.062H471.356V32.182H474.722V36.23H468.21V37.704H487.812V36.23H481.146Z" fill="#00A19B"/>
<path d="M564.746 22.854H559.312V18.85H557.684V22.854H552.888V24.372H564.746V22.854ZM557.42 34.888C557.332 32.6 556.606 28.684 555.726 25.582L554.296 25.868C555.132 28.948 555.77 32.952 555.836 35.262L557.42 34.888ZM552.69 29.542L552.492 28.046L549.808 28.816V24.526H552.294V23.03H549.808V18.608H548.224V23.03H545.122V24.526H548.224V29.256C546.926 29.608 545.738 29.916 544.77 30.136L545.254 31.742L548.224 30.862V36.78C548.224 37.11 548.092 37.22 547.806 37.22C547.52 37.22 546.574 37.22 545.54 37.198C545.76 37.616 545.958 38.298 546.024 38.672C547.542 38.694 548.444 38.65 549.016 38.408C549.588 38.144 549.808 37.704 549.808 36.78V30.4L552.69 29.542ZM560.742 36.208C561.49 33.326 562.304 29.058 562.876 25.67L561.16 25.406C560.786 28.684 559.95 33.326 559.158 36.208H551.766V37.748H565.12V36.208H560.742ZM586.592 20.61H567.408V22.282H576.714V36.01C576.714 36.516 576.516 36.67 575.988 36.692C575.394 36.714 573.414 36.714 571.368 36.648C571.698 37.132 572.028 37.968 572.16 38.496C574.69 38.496 576.318 38.474 577.264 38.166C578.188 37.88 578.562 37.33 578.562 36.032V22.282H586.592V20.61ZM608.878 33.106V31.676H599.352C599.506 31.038 599.616 30.378 599.682 29.652H608.658V28.156H599.77V26.33H606.832V24.9H599.77V23.118H607.8V21.644H602.96C603.576 20.962 604.324 20.038 604.94 19.07L603.268 18.564C602.806 19.378 601.992 20.61 601.376 21.358L602.19 21.644H595.634L596.338 21.314C596.008 20.5 595.216 19.356 594.424 18.564L593.016 19.136C593.676 19.862 594.314 20.852 594.666 21.644H590.222V23.118H598.142V24.9H591.3V26.33H598.142V28.156H589.342V29.652H597.988C597.9 30.378 597.79 31.06 597.636 31.676H589.188V33.106H597.086C596.03 35.196 593.83 36.516 588.902 37.242C589.21 37.572 589.606 38.254 589.738 38.672C595.414 37.748 597.812 35.966 598.912 33.106H599.022C600.584 36.428 603.488 38.1 608.196 38.694C608.394 38.254 608.834 37.55 609.208 37.22C604.962 36.802 602.168 35.548 600.716 33.106H608.878ZM616.82 30.73C617.744 29.322 618.294 27.034 618.58 25.186L617.37 24.812C617.062 26.572 616.468 28.75 615.588 30.048L616.82 30.73ZM616.402 21.116C615.61 20.434 614.026 19.466 612.838 18.828L611.87 19.994C613.102 20.676 614.642 21.71 615.39 22.414L616.402 21.116ZM615.566 26.792C614.73 26.176 613.08 25.274 611.848 24.702L610.924 25.89C612.156 26.528 613.806 27.474 614.62 28.134L615.566 26.792ZM612.838 38.408C613.784 36.406 614.884 33.722 615.698 31.434L614.4 30.554C613.498 33.018 612.244 35.856 611.364 37.55L612.838 38.408ZM619.108 26.726C619.108 30.664 618.8 34.602 616.094 37.726C616.512 37.946 617.15 38.386 617.458 38.694C620.318 35.306 620.648 31.016 620.648 26.726V19.092H619.108V26.726ZM620.736 25.56C621.374 27.056 621.946 29.036 622.144 30.334L623.398 29.85C623.2 28.552 622.584 26.616 621.902 25.12L620.736 25.56ZM628.48 19.07V29.256C628.04 27.914 627.182 26.11 626.324 24.746L625.246 25.186V19.4H623.706V38.188H625.246V25.472C626.148 27.034 627.006 29.014 627.336 30.356L628.48 29.806V38.672H630.064V19.07H628.48Z" fill="#00A19B"/>
<path d="M678.75 32.226V35.042H673.404V32.226H678.75ZM680.246 36.318V30.95H671.952V37.66H673.404V36.318H680.246ZM673.58 24.482C673.382 23.844 672.986 22.92 672.546 22.172H679.41C679.102 22.92 678.64 23.844 678.266 24.482H673.58ZM685.46 22.172V20.676H676.748V18.608H675.098V20.676H666.584V22.172H670.786C671.16 22.854 671.578 23.778 671.82 24.482H667.508V38.65H669.048V25.912H672.986C672.766 27.958 671.974 28.97 669.202 29.542C669.488 29.806 669.862 30.356 669.994 30.686C673.206 29.916 674.196 28.552 674.46 25.912H677.078V28.112C677.078 29.476 677.452 29.828 678.992 29.828H681.258C682.424 29.828 682.82 29.388 682.974 27.628C682.556 27.54 681.962 27.342 681.72 27.122C681.654 28.42 681.566 28.574 681.082 28.574H679.168C678.618 28.574 678.53 28.53 678.53 28.09V25.912H683.128V36.648C683.128 37 683.018 37.11 682.644 37.11C682.248 37.132 680.928 37.154 679.498 37.088C679.74 37.506 679.982 38.254 680.048 38.672C681.852 38.672 683.062 38.65 683.788 38.408C684.492 38.144 684.712 37.616 684.712 36.648V24.482H680.07C680.466 23.822 680.906 23.008 681.324 22.172H685.46ZM702.4 25.252H693.666V21.094H702.4V25.252ZM704.05 19.532H692.082V26.814H704.05V19.532ZM695.052 30.708V35.922H690.454V30.708H695.052ZM688.892 38.694H690.454V37.506H695.052V38.496H696.658V29.124H688.892V38.694ZM700.64 35.922V30.708H705.634V35.922H700.64ZM699.056 29.124V38.694H700.64V37.506H705.634V38.54H707.24V29.124H699.056ZM717.206 32.446C716.194 34.096 714.566 35.724 712.938 36.78C713.312 37 713.994 37.462 714.28 37.748C715.864 36.56 717.602 34.734 718.746 32.886L717.206 32.446ZM717.14 27.98H726.226V30.004H717.14V27.98ZM717.14 24.746H726.226V26.748H717.14V24.746ZM727.898 31.302V23.448H721.848C722.09 22.788 722.332 22.018 722.552 21.292H729.68V19.818H711.948V26.11C711.948 29.564 711.772 34.36 709.836 37.792C710.254 37.946 710.936 38.364 711.244 38.628C713.268 35.042 713.554 29.762 713.554 26.132V21.292H720.638C720.528 21.952 720.33 22.766 720.132 23.448H715.534V31.302H720.858V36.89C720.858 37.154 720.77 37.264 720.44 37.264C720.11 37.286 718.966 37.286 717.69 37.242C717.888 37.66 718.13 38.254 718.196 38.672C719.89 38.672 720.946 38.672 721.606 38.43C722.266 38.21 722.442 37.77 722.442 36.912V31.302H727.898ZM724.334 33.15C725.984 34.47 727.898 36.362 728.734 37.66L730.054 36.758C729.152 35.46 727.216 33.634 725.588 32.358L724.334 33.15ZM740.218 29.806L739.998 28.354L737.446 29.146V24.658H739.69V23.074H737.446V18.608H735.928V23.074H734.234C734.388 22.106 734.542 21.094 734.652 20.104L733.222 19.862C732.958 22.546 732.54 25.318 731.704 27.188C732.056 27.32 732.672 27.716 732.958 27.914C733.354 27.012 733.662 25.89 733.926 24.658H735.928V29.564C734.388 30.048 732.98 30.422 731.858 30.73L732.298 32.292C733.376 31.962 734.63 31.566 735.928 31.17V38.694H737.446V30.686L740.218 29.806ZM743.276 22.26C743.65 21.182 743.98 20.06 744.244 18.894L742.748 18.586C742.022 21.908 740.702 25.076 738.898 27.034C739.228 27.254 739.888 27.716 740.152 27.98C741.098 26.858 741.934 25.406 742.66 23.8H744.552C743.54 27.32 741.582 30.994 739.25 32.82C739.712 33.062 740.24 33.436 740.548 33.766C742.946 31.676 744.97 27.562 745.96 23.8H747.764C746.62 29.322 744.244 34.734 740.636 37.33C741.12 37.572 741.692 37.968 742 38.32C745.652 35.416 748.072 29.564 749.172 23.8H750.228C749.788 32.512 749.304 35.768 748.6 36.538C748.358 36.824 748.138 36.912 747.786 36.912C747.346 36.912 746.466 36.89 745.476 36.802C745.762 37.242 745.916 37.924 745.938 38.408C746.906 38.474 747.852 38.496 748.446 38.408C749.106 38.342 749.546 38.144 749.964 37.572C750.844 36.472 751.328 33.062 751.812 23.096C751.834 22.898 751.834 22.26 751.834 22.26H743.276ZM768.642 22.832C767.938 22.018 766.42 20.896 765.188 20.148L764.352 21.248C765.606 22.062 767.102 23.25 767.806 24.086L768.642 22.832ZM767.696 28.09C766.926 27.298 765.298 26.308 764 25.626L763.23 26.77C764.55 27.474 766.112 28.596 766.882 29.41L767.696 28.09ZM761.338 19.906C761.008 21.38 760.392 23.558 759.886 24.856L760.942 25.208C761.536 23.976 762.218 21.908 762.746 20.258L761.338 19.906ZM756.762 24.812C756.608 23.492 756.102 21.512 755.464 19.994L754.276 20.28C754.848 21.82 755.354 23.844 755.464 25.164L756.762 24.812ZM759.16 27.474H762.746V25.934H759.16V18.674H757.642V25.934H754.122V27.474H757.202C756.432 29.938 755.046 32.776 753.77 34.316C754.034 34.712 754.43 35.438 754.606 35.9C755.706 34.426 756.828 31.984 757.642 29.63V38.672H759.16V29.652C759.952 30.884 760.986 32.578 761.382 33.392L762.46 32.116C761.976 31.368 759.776 28.464 759.16 27.782V27.474ZM774.164 31.984L773.922 30.488L771.326 30.95V18.608H769.786V31.236L762.702 32.49L762.966 34.008L769.786 32.776V38.672H771.326V32.49L774.164 31.984Z" fill="#00A19B"/>
</svg>
