<svg width="406" height="62" viewBox="0 0 406 62" fill="none" xmlns="http://www.w3.org/2000/svg">
<path d="M50.408 15.256C49.72 14.808 48.328 14.104 47.432 13.656L46.36 15.032C47.288 15.56 48.648 16.312 49.272 16.792L50.408 15.256ZM49.64 19.576C48.936 19.144 47.512 18.456 46.632 18.024L45.608 19.432C46.552 19.944 47.928 20.696 48.584 21.16L49.64 19.576ZM47.432 28.216C48.408 26.664 49.416 24.84 50.264 23.16L48.872 21.88C47.912 23.736 46.68 25.72 45.832 26.92L47.432 28.216ZM57.816 26.008H53.016V23.656H57.816V26.008ZM60.424 19.912V18.088H56.36V15.896C57.608 15.656 58.808 15.336 59.832 14.952L58.376 13.448C56.616 14.152 53.608 14.68 50.888 14.952C51.112 15.384 51.368 16.12 51.448 16.584C52.44 16.488 53.512 16.376 54.552 16.216V18.088H50.296V19.912H54.552V21.928H51.288V28.392H53.016V27.736H57.816V28.312H59.624V21.928H56.36V19.912H60.424ZM66.504 25.08H69.4V23.736H66.504V23.112H69.336V18.168H66.504V17.544H69.576V18.792H71.032C70.92 21.656 70.536 23.944 69.288 25.672C68.36 25.752 67.416 25.832 66.504 25.896V25.08ZM63.528 21.928V21.208H64.776V21.928H63.528ZM67.752 21.208V21.928H66.504V21.208H67.752ZM66.504 20.072V19.368H67.752V20.072H66.504ZM63.528 19.368H64.776V20.072H63.528V19.368ZM72.888 17.048C72.92 15.992 72.92 14.872 72.92 13.704H71.096C71.096 14.888 71.096 15.992 71.08 17.048H69.576V16.168H66.504V15.384C67.544 15.272 68.536 15.128 69.384 14.952L68.552 13.528C66.792 13.912 64.024 14.184 61.656 14.312C61.832 14.68 62.008 15.272 62.072 15.656C62.936 15.64 63.848 15.592 64.776 15.528V16.168H61.624V17.544H64.776V18.168H62.024V23.112H64.776V23.736H61.96V25.08H64.776V26.04C63.544 26.12 62.424 26.2 61.528 26.264L61.752 27.864C63.48 27.72 65.784 27.48 68.088 27.24C68.504 27.592 68.968 28.12 69.208 28.504C71.896 26.376 72.632 23.08 72.84 18.792H74.28C74.184 23.96 74.024 25.912 73.688 26.344C73.544 26.552 73.384 26.616 73.144 26.616C72.84 26.616 72.232 26.6 71.528 26.536C71.848 27.064 72.056 27.832 72.088 28.36C72.856 28.376 73.592 28.392 74.072 28.296C74.6 28.184 74.968 28.024 75.336 27.496C75.848 26.76 75.976 24.44 76.12 17.896C76.12 17.672 76.136 17.048 76.136 17.048H72.888ZM82.264 15.368V17.064H84.984C84.76 17.688 84.456 18.36 84.184 18.936C83.512 18.952 82.904 18.952 82.36 18.968L82.552 20.744C84.664 20.648 87.592 20.52 90.376 20.344C90.632 20.728 90.84 21.08 90.984 21.384L92.584 20.504C92.072 19.512 90.872 18.136 89.832 17.144L88.36 17.928C88.616 18.184 88.888 18.488 89.16 18.776C88.136 18.824 87.096 18.856 86.136 18.872C86.456 18.312 86.808 17.688 87.144 17.064H92.328V15.368H88.072V13.464H86.136V15.368H82.264ZM82.344 15.096C81.704 14.568 80.424 13.896 79.448 13.528L78.408 14.936C79.416 15.368 80.664 16.104 81.24 16.664L82.344 15.096ZM81.464 19.352C80.824 18.808 79.496 18.184 78.504 17.832L77.496 19.256C78.504 19.688 79.768 20.392 80.376 20.936L81.464 19.352ZM80.808 21.88C79.896 23.752 78.744 25.768 77.944 26.984L79.608 28.168C80.504 26.6 81.448 24.76 82.248 23.064L80.808 21.88ZM83.496 22.648C83.496 24.024 83.288 25.784 81.448 27.096C81.88 27.368 82.52 27.944 82.792 28.344C84.936 26.728 85.208 24.488 85.208 22.712V21.16H83.496V22.648ZM86.136 27.704H87.8V21.304H86.136V27.704ZM90.744 26.648C90.68 26.648 90.6 26.616 90.568 26.568C90.536 26.504 90.536 26.36 90.536 26.12V21.16H88.792V26.072C88.792 27.16 88.904 27.496 89.16 27.752C89.432 28.024 89.864 28.152 90.248 28.152H91.064C91.352 28.152 91.736 28.072 91.944 27.944C92.2 27.784 92.36 27.576 92.472 27.224C92.568 26.888 92.632 26.072 92.664 25.352C92.232 25.208 91.688 24.92 91.384 24.648C91.368 25.368 91.352 25.928 91.336 26.168C91.304 26.424 91.272 26.552 91.208 26.584C91.16 26.632 91.08 26.648 91 26.648H90.744ZM105.832 17.848H102.104V15.64H105.832V17.848ZM107.688 14.04H100.344V19.448H107.688V14.04ZM99.88 22.264C99.576 21.912 98.264 20.52 97.832 20.168V19.704H99.544V17.928H97.832V15.672C98.52 15.496 99.16 15.288 99.736 15.064L98.472 13.608C97.24 14.168 95.272 14.632 93.512 14.936C93.72 15.32 93.944 15.96 94.04 16.392C94.664 16.312 95.32 16.2 95.992 16.072V17.928H93.704V19.704H95.736C95.144 21.256 94.264 22.952 93.368 23.992C93.672 24.472 94.072 25.256 94.248 25.8C94.872 25 95.48 23.864 95.992 22.632V28.376H97.832V22.136C98.216 22.712 98.6 23.336 98.792 23.752L99.88 22.264ZM104.904 26.376V24.968H107.736V23.368H104.904V22.04H108.12V20.408H99.832V22.04H103.016V23.368H100.216V24.968H103.016V26.376H99.208V28.04H108.456V26.376H104.904Z" fill="#00A19B"/>
<path d="M158.508 16.906C157.92 16.514 156.744 15.87 155.89 15.464L155.316 16.206C156.17 16.668 157.332 17.34 157.906 17.746L158.508 16.906ZM157.794 20.686C157.178 20.294 156.016 19.678 155.204 19.272L154.63 20.028C155.484 20.476 156.632 21.148 157.206 21.54L157.794 20.686ZM155.834 27.882C156.66 26.594 157.64 24.858 158.368 23.388L157.612 22.702C156.8 24.284 155.722 26.132 154.966 27.182L155.834 27.882ZM165.438 26.51H160.468V23.626H165.438V26.51ZM167.342 20.364V19.356H163.506V16.934C164.71 16.724 165.83 16.458 166.74 16.15L165.928 15.338C164.374 15.898 161.56 16.332 159.152 16.584C159.25 16.822 159.39 17.214 159.446 17.466C160.44 17.368 161.49 17.242 162.512 17.088V19.356H158.48V20.364H162.512V22.66H159.502V28.064H160.468V27.476H165.438V27.994H166.432V22.66H163.506V20.364H167.342ZM169.904 22.786V21.764H171.668V22.786H169.904ZM169.904 20.07H171.668V21.078H169.904V20.07ZM174.44 20.07V21.078H172.606V20.07H174.44ZM174.44 22.786H172.606V21.764H174.44V22.786ZM178.122 18.53C178.15 17.55 178.15 16.514 178.15 15.464H177.17C177.17 16.528 177.17 17.55 177.142 18.53H175.476V19.51H177.114C176.988 22.128 176.61 24.382 175.406 26.034V25.978C174.468 26.09 173.516 26.188 172.606 26.272V25.166H175.35V24.368H172.606V23.514H175.322V19.356H172.606V18.474H175.574V17.662H172.606V16.64C173.628 16.528 174.58 16.402 175.336 16.234L174.818 15.436C173.376 15.758 170.856 16.01 168.784 16.122C168.896 16.332 168.994 16.668 169.036 16.892C169.862 16.864 170.772 16.808 171.668 16.738V17.662H168.644V18.474H171.668V19.356H169.05V23.514H171.668V24.368H169.022V25.166H171.668V26.37C170.52 26.482 169.47 26.58 168.63 26.65L168.784 27.56C170.352 27.392 172.522 27.154 174.636 26.902C174.454 27.07 174.258 27.238 174.034 27.392C174.286 27.56 174.65 27.91 174.804 28.134C177.268 26.286 177.912 23.234 178.08 19.51H180.082C179.942 24.592 179.774 26.44 179.452 26.846C179.312 27.028 179.186 27.07 178.948 27.07C178.682 27.07 178.066 27.056 177.394 27C177.548 27.266 177.66 27.7 177.688 27.98C178.332 28.022 178.99 28.036 179.382 27.98C179.802 27.938 180.082 27.826 180.32 27.462C180.796 26.874 180.922 24.928 181.076 19.062C181.076 18.922 181.09 18.53 181.09 18.53H178.122ZM183.456 23.234C183.246 24.452 182.938 25.698 182.42 26.552C182.658 26.636 183.106 26.846 183.274 26.972C183.778 26.09 184.17 24.732 184.394 23.402L183.456 23.234ZM186.732 23.458C187.18 24.312 187.642 25.446 187.824 26.188L188.692 25.852C188.51 25.124 188.034 24.004 187.558 23.15L186.732 23.458ZM186.354 20.056C186.606 20.406 186.872 20.812 187.11 21.232C186.214 21.274 185.332 21.316 184.534 21.344C185.598 20.168 186.802 18.586 187.712 17.298L186.802 16.85C186.34 17.62 185.71 18.558 185.038 19.454C184.8 19.16 184.464 18.824 184.1 18.502C184.702 17.718 185.402 16.626 185.962 15.702L185.01 15.296C184.646 16.094 184.044 17.172 183.484 17.97C183.344 17.858 183.218 17.76 183.092 17.662L182.588 18.362C183.26 18.894 184.03 19.608 184.478 20.196C184.142 20.63 183.792 21.036 183.47 21.4L182.504 21.428L182.616 22.366C183.344 22.338 184.226 22.296 185.178 22.24V28.064H186.158V22.184L187.572 22.086C187.74 22.422 187.88 22.73 187.978 22.996L188.818 22.562C188.538 21.778 187.81 20.588 187.138 19.692L186.354 20.056ZM191.016 27.028C190.246 27.028 190.106 26.916 190.106 26.37V21.372H193.662V22.184H194.698V16.052H188.678V17.032H193.662V20.392H189.07V26.37C189.07 27.672 189.504 27.994 190.932 27.994H193.732C195.076 27.994 195.398 27.406 195.524 25.278C195.244 25.194 194.81 25.04 194.558 24.858C194.488 26.678 194.376 27.028 193.676 27.028H191.016ZM204.708 24.592C203.742 25.208 202.748 25.81 202.006 26.244L201.964 25.656L199.906 26.076V22.016H201.908V21.106H199.906V19.622H201.46V18.726H197.792C198.562 17.886 199.136 16.99 199.556 16.234C200.312 16.934 201.152 17.914 201.572 18.544L202.272 17.76C201.768 17.06 200.732 16.024 199.892 15.296H198.954C198.492 16.402 197.596 17.816 196.336 18.88C196.518 19.006 196.826 19.328 196.98 19.538C197.176 19.356 197.372 19.174 197.554 18.992V19.622H198.996V21.106H196.812V22.016H198.996V26.244C198.128 26.426 197.33 26.566 196.686 26.678L196.896 27.644C198.254 27.336 200.018 26.972 201.726 26.594L202.16 27.224C203 26.692 204.036 26.02 205.002 25.376L204.708 24.592ZM197.134 22.94C197.4 23.78 197.61 24.858 197.638 25.586L198.408 25.39C198.366 24.676 198.142 23.598 197.848 22.758L197.134 22.94ZM201.096 25.334C201.306 24.69 201.572 23.696 201.796 22.842L200.984 22.632C200.872 23.374 200.606 24.48 200.41 25.152L201.096 25.334ZM202.258 22.45C202.79 23.024 203.364 23.808 203.616 24.326L204.372 23.808C204.12 23.304 203.518 22.548 202.986 22.016L202.258 22.45ZM203.98 18.516C204.078 18.082 204.176 17.606 204.274 17.144H207.214C207.172 17.55 207.102 18.026 207.032 18.516H203.98ZM206.122 21.4H209.37V20.518H207.718C207.942 19.188 208.166 17.578 208.292 16.36L207.564 16.276L207.41 16.332H204.442L204.624 15.38L203.63 15.282C203.378 16.71 202.986 18.656 202.664 19.818L203.644 19.916C203.686 19.734 203.742 19.538 203.798 19.328H206.92C206.864 19.734 206.794 20.14 206.738 20.518H201.964V21.4H205.142V27C205.142 27.154 205.086 27.196 204.918 27.196C204.764 27.196 204.274 27.21 203.728 27.182C203.854 27.434 203.994 27.812 204.022 28.064C204.848 28.064 205.366 28.064 205.688 27.91C206.038 27.756 206.122 27.49 206.122 27V24.2C206.752 25.6 207.648 26.692 208.908 27.308C209.048 27.056 209.342 26.678 209.538 26.51C207.746 25.754 206.64 23.962 206.122 21.792V21.4ZM207.732 24.256C208.18 23.78 208.754 23.094 209.23 22.422L208.39 21.988C208.082 22.562 207.494 23.374 207.06 23.864L207.732 24.256ZM211.078 27.63H222.978V26.692H211.078V27.63ZM219.786 23.22H214.144V22.058H219.786V23.22ZM219.786 25.11H214.144V23.948H219.786V25.11ZM213.122 21.316V25.852H220.85V21.316H213.122ZM223.174 17.984V17.06H217.476V15.296H216.454V17.06H210.84V17.984H215.32C214.13 19.3 212.254 20.476 210.546 21.064C210.756 21.26 211.064 21.652 211.232 21.89C213.122 21.134 215.194 19.692 216.454 18.054V20.896H217.476V18.04C218.764 19.636 220.822 21.064 222.754 21.778C222.908 21.526 223.216 21.12 223.44 20.938C221.676 20.392 219.8 19.244 218.582 17.984H223.174ZM229.11 15.772H225.274V16.612H229.11V15.772ZM229.516 17.606H224.588V18.46H229.516V17.606ZM229.152 21.344H225.204V22.184H229.152V21.344ZM228.27 24.074V26.426H226.072V24.074H228.27ZM229.166 23.22H225.19V27.91H226.072V27.266H229.166V23.22ZM233.674 20.798V22.114H231.364V20.798H233.674ZM231.364 24.312V22.898H233.674V24.312H231.364ZM237.062 17.522H231.812C232.078 16.878 232.316 16.206 232.512 15.52L231.462 15.268C230.986 17.046 230.174 18.81 229.152 19.958V19.496H225.204V20.322H229.152V20.154C229.404 20.336 229.754 20.616 229.922 20.77C230.118 20.546 230.3 20.294 230.482 20.028V25.95H231.364V25.138H234.57V19.972H230.524C230.832 19.51 231.126 19.006 231.392 18.46H236.068C235.956 24.27 235.802 26.44 235.41 26.888C235.27 27.07 235.116 27.112 234.85 27.112C234.528 27.112 233.73 27.098 232.834 27.042C233.016 27.294 233.142 27.728 233.17 28.008C233.94 28.05 234.766 28.078 235.242 28.022C235.718 27.98 236.026 27.868 236.306 27.462C236.824 26.804 236.922 24.634 237.062 18.068V17.522Z" fill="#1C1C1C"/>
<path d="M287.508 16.906C286.92 16.514 285.744 15.87 284.89 15.464L284.316 16.206C285.17 16.668 286.332 17.34 286.906 17.746L287.508 16.906ZM286.794 20.686C286.178 20.294 285.016 19.678 284.204 19.272L283.63 20.028C284.484 20.476 285.632 21.148 286.206 21.54L286.794 20.686ZM284.834 27.882C285.66 26.594 286.64 24.858 287.368 23.388L286.612 22.702C285.8 24.284 284.722 26.132 283.966 27.182L284.834 27.882ZM294.438 26.51H289.468V23.626H294.438V26.51ZM296.342 20.364V19.356H292.506V16.934C293.71 16.724 294.83 16.458 295.74 16.15L294.928 15.338C293.374 15.898 290.56 16.332 288.152 16.584C288.25 16.822 288.39 17.214 288.446 17.466C289.44 17.368 290.49 17.242 291.512 17.088V19.356H287.48V20.364H291.512V22.66H288.502V28.064H289.468V27.476H294.438V27.994H295.432V22.66H292.506V20.364H296.342ZM298.904 22.786V21.764H300.668V22.786H298.904ZM298.904 20.07H300.668V21.078H298.904V20.07ZM303.44 20.07V21.078H301.606V20.07H303.44ZM303.44 22.786H301.606V21.764H303.44V22.786ZM307.122 18.53C307.15 17.55 307.15 16.514 307.15 15.464H306.17C306.17 16.528 306.17 17.55 306.142 18.53H304.476V19.51H306.114C305.988 22.128 305.61 24.382 304.406 26.034V25.978C303.468 26.09 302.516 26.188 301.606 26.272V25.166H304.35V24.368H301.606V23.514H304.322V19.356H301.606V18.474H304.574V17.662H301.606V16.64C302.628 16.528 303.58 16.402 304.336 16.234L303.818 15.436C302.376 15.758 299.856 16.01 297.784 16.122C297.896 16.332 297.994 16.668 298.036 16.892C298.862 16.864 299.772 16.808 300.668 16.738V17.662H297.644V18.474H300.668V19.356H298.05V23.514H300.668V24.368H298.022V25.166H300.668V26.37C299.52 26.482 298.47 26.58 297.63 26.65L297.784 27.56C299.352 27.392 301.522 27.154 303.636 26.902C303.454 27.07 303.258 27.238 303.034 27.392C303.286 27.56 303.65 27.91 303.804 28.134C306.268 26.286 306.912 23.234 307.08 19.51H309.082C308.942 24.592 308.774 26.44 308.452 26.846C308.312 27.028 308.186 27.07 307.948 27.07C307.682 27.07 307.066 27.056 306.394 27C306.548 27.266 306.66 27.7 306.688 27.98C307.332 28.022 307.99 28.036 308.382 27.98C308.802 27.938 309.082 27.826 309.32 27.462C309.796 26.874 309.922 24.928 310.076 19.062C310.076 18.922 310.09 18.53 310.09 18.53H307.122ZM312.456 23.234C312.246 24.452 311.938 25.698 311.42 26.552C311.658 26.636 312.106 26.846 312.274 26.972C312.778 26.09 313.17 24.732 313.394 23.402L312.456 23.234ZM315.732 23.458C316.18 24.312 316.642 25.446 316.824 26.188L317.692 25.852C317.51 25.124 317.034 24.004 316.558 23.15L315.732 23.458ZM315.354 20.056C315.606 20.406 315.872 20.812 316.11 21.232C315.214 21.274 314.332 21.316 313.534 21.344C314.598 20.168 315.802 18.586 316.712 17.298L315.802 16.85C315.34 17.62 314.71 18.558 314.038 19.454C313.8 19.16 313.464 18.824 313.1 18.502C313.702 17.718 314.402 16.626 314.962 15.702L314.01 15.296C313.646 16.094 313.044 17.172 312.484 17.97C312.344 17.858 312.218 17.76 312.092 17.662L311.588 18.362C312.26 18.894 313.03 19.608 313.478 20.196C313.142 20.63 312.792 21.036 312.47 21.4L311.504 21.428L311.616 22.366C312.344 22.338 313.226 22.296 314.178 22.24V28.064H315.158V22.184L316.572 22.086C316.74 22.422 316.88 22.73 316.978 22.996L317.818 22.562C317.538 21.778 316.81 20.588 316.138 19.692L315.354 20.056ZM320.016 27.028C319.246 27.028 319.106 26.916 319.106 26.37V21.372H322.662V22.184H323.698V16.052H317.678V17.032H322.662V20.392H318.07V26.37C318.07 27.672 318.504 27.994 319.932 27.994H322.732C324.076 27.994 324.398 27.406 324.524 25.278C324.244 25.194 323.81 25.04 323.558 24.858C323.488 26.678 323.376 27.028 322.676 27.028H320.016ZM333.708 24.592C332.742 25.208 331.748 25.81 331.006 26.244L330.964 25.656L328.906 26.076V22.016H330.908V21.106H328.906V19.622H330.46V18.726H326.792C327.562 17.886 328.136 16.99 328.556 16.234C329.312 16.934 330.152 17.914 330.572 18.544L331.272 17.76C330.768 17.06 329.732 16.024 328.892 15.296H327.954C327.492 16.402 326.596 17.816 325.336 18.88C325.518 19.006 325.826 19.328 325.98 19.538C326.176 19.356 326.372 19.174 326.554 18.992V19.622H327.996V21.106H325.812V22.016H327.996V26.244C327.128 26.426 326.33 26.566 325.686 26.678L325.896 27.644C327.254 27.336 329.018 26.972 330.726 26.594L331.16 27.224C332 26.692 333.036 26.02 334.002 25.376L333.708 24.592ZM326.134 22.94C326.4 23.78 326.61 24.858 326.638 25.586L327.408 25.39C327.366 24.676 327.142 23.598 326.848 22.758L326.134 22.94ZM330.096 25.334C330.306 24.69 330.572 23.696 330.796 22.842L329.984 22.632C329.872 23.374 329.606 24.48 329.41 25.152L330.096 25.334ZM331.258 22.45C331.79 23.024 332.364 23.808 332.616 24.326L333.372 23.808C333.12 23.304 332.518 22.548 331.986 22.016L331.258 22.45ZM332.98 18.516C333.078 18.082 333.176 17.606 333.274 17.144H336.214C336.172 17.55 336.102 18.026 336.032 18.516H332.98ZM335.122 21.4H338.37V20.518H336.718C336.942 19.188 337.166 17.578 337.292 16.36L336.564 16.276L336.41 16.332H333.442L333.624 15.38L332.63 15.282C332.378 16.71 331.986 18.656 331.664 19.818L332.644 19.916C332.686 19.734 332.742 19.538 332.798 19.328H335.92C335.864 19.734 335.794 20.14 335.738 20.518H330.964V21.4H334.142V27C334.142 27.154 334.086 27.196 333.918 27.196C333.764 27.196 333.274 27.21 332.728 27.182C332.854 27.434 332.994 27.812 333.022 28.064C333.848 28.064 334.366 28.064 334.688 27.91C335.038 27.756 335.122 27.49 335.122 27V24.2C335.752 25.6 336.648 26.692 337.908 27.308C338.048 27.056 338.342 26.678 338.538 26.51C336.746 25.754 335.64 23.962 335.122 21.792V21.4ZM336.732 24.256C337.18 23.78 337.754 23.094 338.23 22.422L337.39 21.988C337.082 22.562 336.494 23.374 336.06 23.864L336.732 24.256ZM340.078 27.63H351.978V26.692H340.078V27.63ZM348.786 23.22H343.144V22.058H348.786V23.22ZM348.786 25.11H343.144V23.948H348.786V25.11ZM342.122 21.316V25.852H349.85V21.316H342.122ZM352.174 17.984V17.06H346.476V15.296H345.454V17.06H339.84V17.984H344.32C343.13 19.3 341.254 20.476 339.546 21.064C339.756 21.26 340.064 21.652 340.232 21.89C342.122 21.134 344.194 19.692 345.454 18.054V20.896H346.476V18.04C347.764 19.636 349.822 21.064 351.754 21.778C351.908 21.526 352.216 21.12 352.44 20.938C350.676 20.392 348.8 19.244 347.582 17.984H352.174ZM358.11 15.772H354.274V16.612H358.11V15.772ZM358.516 17.606H353.588V18.46H358.516V17.606ZM358.152 21.344H354.204V22.184H358.152V21.344ZM357.27 24.074V26.426H355.072V24.074H357.27ZM358.166 23.22H354.19V27.91H355.072V27.266H358.166V23.22ZM362.674 20.798V22.114H360.364V20.798H362.674ZM360.364 24.312V22.898H362.674V24.312H360.364ZM366.062 17.522H360.812C361.078 16.878 361.316 16.206 361.512 15.52L360.462 15.268C359.986 17.046 359.174 18.81 358.152 19.958V19.496H354.204V20.322H358.152V20.154C358.404 20.336 358.754 20.616 358.922 20.77C359.118 20.546 359.3 20.294 359.482 20.028V25.95H360.364V25.138H363.57V19.972H359.524C359.832 19.51 360.126 19.006 360.392 18.46H365.068C364.956 24.27 364.802 26.44 364.41 26.888C364.27 27.07 364.116 27.112 363.85 27.112C363.528 27.112 362.73 27.098 361.834 27.042C362.016 27.294 362.142 27.728 362.17 28.008C362.94 28.05 363.766 28.078 364.242 28.022C364.718 27.98 365.026 27.868 365.306 27.462C365.824 26.804 365.922 24.634 366.062 18.068V17.522Z" fill="#1C1C1C"/>
<rect x="30" y="43" width="376" height="4" rx="2" fill="#E1EFEF"/>
<rect x="30" y="43" width="94" height="4" rx="2" fill="#00A19B"/>
<path d="M4.69336 40H3V33.4727L0.978516 34.0996V32.7227L4.51172 31.457H4.69336V40ZM14.3184 40H8.4707V38.8398L11.2305 35.8984C11.6094 35.4844 11.8887 35.123 12.0684 34.8145C12.252 34.5059 12.3438 34.2129 12.3438 33.9355C12.3438 33.5566 12.248 33.2598 12.0566 33.0449C11.8652 32.8262 11.5918 32.7168 11.2363 32.7168C10.8535 32.7168 10.5508 32.8496 10.3281 33.1152C10.1094 33.377 10 33.7227 10 34.1523H8.30078C8.30078 33.6328 8.42383 33.1582 8.66992 32.7285C8.91992 32.2988 9.27148 31.9629 9.72461 31.7207C10.1777 31.4746 10.6914 31.3516 11.2656 31.3516C12.1445 31.3516 12.8262 31.5625 13.3105 31.9844C13.7988 32.4062 14.043 33.002 14.043 33.7715C14.043 34.1934 13.9336 34.623 13.7148 35.0605C13.4961 35.498 13.1211 36.0078 12.5898 36.5898L10.6504 38.6348H14.3184V40ZM22.1387 36.8887C22.1387 37.8652 21.916 38.6484 21.4707 39.2383C21.0293 39.8242 20.4316 40.1172 19.6777 40.1172C19.0371 40.1172 18.5195 39.8945 18.125 39.4492V42.4375H16.4316V33.6602H18.002L18.0605 34.2812C18.4707 33.7891 19.0059 33.543 19.666 33.543C20.4473 33.543 21.0547 33.832 21.4883 34.4102C21.9219 34.9883 22.1387 35.7852 22.1387 36.8008V36.8887ZM20.4453 36.7656C20.4453 36.1758 20.3398 35.7207 20.1289 35.4004C19.9219 35.0801 19.6191 34.9199 19.2207 34.9199C18.6895 34.9199 18.3242 35.123 18.125 35.5293V38.125C18.332 38.543 18.7012 38.752 19.2324 38.752C20.041 38.752 20.4453 38.0898 20.4453 36.7656ZM26.5137 35.5527L27.5801 33.6602H29.3906L27.5859 36.7656L29.4668 40H27.6504L26.5195 38.0078L25.3945 40H23.5723L25.4531 36.7656L23.6543 33.6602H25.4707L26.5137 35.5527Z" fill="#4D4D4D"/>
<path d="M39 31L36.1132 36H41.8868L39 31ZM39 43L41.8868 38H36.1132L39 43ZM38.5 35.5V38.5H39.5V35.5H38.5Z" fill="#E73525"/>
<rect x="175" width="231" height="61.63" fill="url(#paint0_linear_746_22)"/>
<defs>
<linearGradient id="paint0_linear_746_22" x1="406" y1="61.63" x2="290.5" y2="61.63" gradientUnits="userSpaceOnUse">
<stop offset="0.171875" stop-color="white"/>
<stop offset="1" stop-color="white" stop-opacity="0"/>
</linearGradient>
</defs>
</svg>
