<svg width="406" height="62" viewBox="0 0 406 62" fill="none" xmlns="http://www.w3.org/2000/svg">
<path d="M96.1406 16.7363C96.1406 17.1504 96.0371 17.5176 95.8301 17.8379C95.623 18.1582 95.3379 18.4141 94.9746 18.6055C95.3887 18.8047 95.7168 19.0801 95.959 19.4316C96.2012 19.7793 96.3223 20.1895 96.3223 20.6621C96.3223 21.4199 96.0645 22.0195 95.5488 22.4609C95.0332 22.8984 94.332 23.1172 93.4453 23.1172C92.5586 23.1172 91.8555 22.8965 91.3359 22.4551C90.8164 22.0137 90.5566 21.416 90.5566 20.6621C90.5566 20.1895 90.6777 19.7773 90.9199 19.4258C91.1621 19.0742 91.4883 18.8008 91.8984 18.6055C91.5352 18.4141 91.25 18.1582 91.043 17.8379C90.8398 17.5176 90.7383 17.1504 90.7383 16.7363C90.7383 16.0098 90.9805 15.4316 91.4648 15.002C91.9492 14.5684 92.6074 14.3516 93.4395 14.3516C94.2676 14.3516 94.9238 14.5664 95.4082 14.9961C95.8965 15.4219 96.1406 16.002 96.1406 16.7363ZM94.623 20.5391C94.623 20.168 94.5156 19.8711 94.3008 19.6484C94.0859 19.4258 93.7969 19.3145 93.4336 19.3145C93.0742 19.3145 92.7871 19.4258 92.5723 19.6484C92.3574 19.8672 92.25 20.1641 92.25 20.5391C92.25 20.9023 92.3555 21.1953 92.5664 21.418C92.7773 21.6406 93.0703 21.752 93.4453 21.752C93.8125 21.752 94.0996 21.6445 94.3066 21.4297C94.5176 21.2148 94.623 20.918 94.623 20.5391ZM94.4473 16.8184C94.4473 16.4863 94.3594 16.2207 94.1836 16.0215C94.0078 15.8184 93.7598 15.7168 93.4395 15.7168C93.123 15.7168 92.877 15.8145 92.7012 16.0098C92.5254 16.2051 92.4375 16.4746 92.4375 16.8184C92.4375 17.1582 92.5254 17.4316 92.7012 17.6387C92.877 17.8457 93.125 17.9492 93.4453 17.9492C93.7656 17.9492 94.0117 17.8457 94.1836 17.6387C94.3594 17.4316 94.4473 17.1582 94.4473 16.8184Z" fill="#4D4D4D"/>
<path d="M87 34L92 36.8868V31.1132L87 34ZM99 34L94 31.1132V36.8868L99 34ZM91.5 34.5H94.5V33.5H91.5V34.5Z" fill="#E73525"/>
<rect y="7" width="89" height="44" rx="4" fill="#00A19B"/>
<rect x="43.3135" y="39" width="16" height="16" transform="rotate(45 43.3135 39)" fill="#00A19B"/>
<rect x="97.5" y="7.5" width="87" height="43" rx="3.5" stroke="#00A19B"/>
<rect x="193.5" y="7.5" width="86" height="43" rx="3.5" stroke="#00A19B"/>
<rect x="288.5" y="7.5" width="87" height="43" rx="3.5" stroke="#00A19B"/>
<path d="M33.184 24.656H29.088V25.824H33.184V30.304C31.472 30.96 29.76 31.632 28.592 32L29.152 33.2C30.304 32.72 31.744 32.112 33.184 31.488V35.072H34.384V20.912H33.184V24.656ZM39.088 33.696C38.4 33.696 38.256 33.536 38.256 32.704V27.44C39.936 26.496 41.76 25.424 43.088 24.368L42.208 23.344C41.248 24.256 39.744 25.312 38.256 26.208V20.928H37.056V32.688C37.056 34.384 37.472 34.864 38.96 34.864H41.52C43.072 34.864 43.392 33.824 43.536 30.928C43.2 30.848 42.688 30.608 42.4 30.368C42.288 33.008 42.176 33.696 41.44 33.696H39.088ZM59.184 31.168V30.128H52.256C52.368 29.664 52.448 29.184 52.496 28.656H59.024V27.568H52.56V26.24H57.696V25.2H52.56V23.904H58.4V22.832H54.88C55.328 22.336 55.872 21.664 56.32 20.96L55.104 20.592C54.768 21.184 54.176 22.08 53.728 22.624L54.32 22.832H49.552L50.064 22.592C49.824 22 49.248 21.168 48.672 20.592L47.648 21.008C48.128 21.536 48.592 22.256 48.848 22.832H45.616V23.904H51.376V25.2H46.4V26.24H51.376V27.568H44.976V28.656H51.264C51.2 29.184 51.12 29.68 51.008 30.128H44.864V31.168H50.608C49.84 32.688 48.24 33.648 44.656 34.176C44.88 34.416 45.168 34.912 45.264 35.216C49.392 34.544 51.136 33.248 51.936 31.168H52.016C53.152 33.584 55.264 34.8 58.688 35.232C58.832 34.912 59.152 34.4 59.424 34.16C56.336 33.856 54.304 32.944 53.248 31.168H59.184Z" fill="white"/>
<path d="M136.208 24.56H137.968C137.856 25.6 137.696 26.704 137.504 27.456L138.448 27.728C138.72 26.688 139.008 25.024 139.2 23.648L138.432 23.424L138.24 23.472H134.544C134.752 22.608 134.896 21.696 135.024 20.768L133.872 20.592C133.568 23.088 133.008 25.536 132 27.088C132.288 27.232 132.784 27.584 132.992 27.776C133.504 26.896 133.936 25.792 134.272 24.56H135.072V26.768C135.088 27.84 134.784 31.056 132.72 33.296V32.528H126.384V22.432H132.496V21.392H125.36V34.736H126.384V33.552H132.464C132.208 33.808 131.92 34.032 131.616 34.256C131.824 34.48 132.16 34.96 132.304 35.2C134.672 33.504 135.488 30.528 135.632 29.232C135.776 30.496 136.496 33.568 138.656 35.2C138.832 34.928 139.168 34.448 139.392 34.208C136.608 32.128 136.208 28 136.208 26.768V24.56ZM128.592 24.176H130.688V26.096H128.592V24.176ZM127.68 26.88H131.632V23.392H127.68V26.88ZM130.608 28.48H131.648V30.672H130.608V28.48ZM129.936 31.472H132.368V27.696H129.936V31.472ZM127.664 28.48H128.624V30.672H127.664V28.48ZM126.976 31.472H129.312V27.696H126.976V31.472ZM144.96 29.44C145.632 28.416 146.032 26.752 146.24 25.408L145.36 25.136C145.136 26.416 144.704 28 144.064 28.944L144.96 29.44ZM144.656 22.448C144.08 21.952 142.928 21.248 142.064 20.784L141.36 21.632C142.256 22.128 143.376 22.88 143.92 23.392L144.656 22.448ZM144.048 26.576C143.44 26.128 142.24 25.472 141.344 25.056L140.672 25.92C141.568 26.384 142.768 27.072 143.36 27.552L144.048 26.576ZM142.064 35.024C142.752 33.568 143.552 31.616 144.144 29.952L143.2 29.312C142.544 31.104 141.632 33.168 140.992 34.4L142.064 35.024ZM146.624 26.528C146.624 29.392 146.4 32.256 144.432 34.528C144.736 34.688 145.2 35.008 145.424 35.232C147.504 32.768 147.744 29.648 147.744 26.528V20.976H146.624V26.528ZM147.808 25.68C148.272 26.768 148.688 28.208 148.832 29.152L149.744 28.8C149.6 27.856 149.152 26.448 148.656 25.36L147.808 25.68ZM153.44 20.96V28.368C153.12 27.392 152.496 26.08 151.872 25.088L151.088 25.408V21.2H149.968V34.864H151.088V25.616C151.744 26.752 152.368 28.192 152.608 29.168L153.44 28.768V35.216H154.592V20.96H153.44Z" fill="#00A19B"/>
<path d="M223.168 29.472V26.208H226.752V22.72H229.152V26.192H232.768V29.472H229.152V33.44H226.768V29.472H223.168ZM230.288 33.44V30.496H232.768V31.04H233.952V25.152H230.288V22.72H234.752V21.632H221.312V22.72H225.6V25.168H222.032V31.136H223.168V30.496H225.616V33.44H220.88V34.512H235.136V33.44H230.288ZM242.16 31.648C243.296 32.608 244.656 33.968 245.296 34.864L246.352 34.032C245.696 33.152 244.288 31.856 243.152 30.944L242.16 31.648ZM251.04 26.048V24.848H244.32C244.48 23.312 244.496 21.856 244.512 20.624H243.248C243.232 21.84 243.248 23.312 243.072 24.848H237.024V26.048H242.896C242.32 29.216 240.8 32.448 236.64 34.24C236.976 34.48 237.344 34.912 237.52 35.216C241.712 33.312 243.376 29.936 244.048 26.608C245.264 30.592 247.328 33.696 250.576 35.248C250.768 34.912 251.168 34.416 251.456 34.16C248.288 32.8 246.192 29.76 245.104 26.048H251.04Z" fill="#00A19B"/>
<path d="M312.648 27.936H316.36V29.488H312.648V27.936ZM312.648 25.536H316.36V27.056H312.648V25.536ZM321.496 25.536V27.056H317.56V25.536H321.496ZM321.496 29.488H317.56V27.936H321.496V29.488ZM322.696 30.416V24.592H317.56V23.248H323.976V22.128H317.56V20.624H316.36V22.128H310.104V23.248H316.36V24.592H311.496V30.416H315.368C313.944 31.904 311.72 33.28 309.704 33.984C309.992 34.224 310.344 34.672 310.536 34.976C312.568 34.144 314.84 32.624 316.36 30.912V35.216H317.56V30.864C319.096 32.592 321.432 34.176 323.512 35.008C323.688 34.672 324.056 34.224 324.344 33.984C322.296 33.296 320.024 31.92 318.568 30.416H322.696ZM330.088 26.64C330.488 27.232 330.904 28.032 331.064 28.576L332.04 28.224C331.88 27.696 331.448 26.928 331.032 26.352L330.088 26.64ZM337.096 32.16V31.168H333.528V29.552H336.824V28.576H334.888C335.256 28.016 335.624 27.296 335.976 26.624L334.952 26.336C334.696 26.992 334.232 27.936 333.848 28.576H329.288V29.552H332.392V31.168H328.952V32.16H332.392V34.912H333.528V32.16H337.096ZM340.008 23.328V22.208H333.64V20.624H332.344V22.208H326.024V23.328H332.344V25.024H326.888V35.216H328.056V26.128H337.96V33.84C337.96 34.096 337.88 34.176 337.592 34.192C337.32 34.208 336.344 34.208 335.336 34.16C335.496 34.464 335.688 34.912 335.768 35.232C337.048 35.232 337.96 35.232 338.472 35.04C338.984 34.864 339.16 34.544 339.16 33.84V25.024H333.64V23.328H340.008ZM344.168 29.472V26.208H347.752V22.72H350.152V26.192H353.768V29.472H350.152V33.44H347.768V29.472H344.168ZM351.288 33.44V30.496H353.768V31.04H354.952V25.152H351.288V22.72H355.752V21.632H342.312V22.72H346.6V25.168H343.032V31.136H344.168V30.496H346.616V33.44H341.88V34.512H356.136V33.44H351.288Z" fill="#00A19B"/>
<rect x="82" width="324" height="51" fill="url(#paint0_linear_746_8)"/>
<defs>
<linearGradient id="paint0_linear_746_8" x1="406" y1="51" x2="244" y2="51" gradientUnits="userSpaceOnUse">
<stop offset="0.171875" stop-color="white"/>
<stop offset="1" stop-color="white" stop-opacity="0"/>
</linearGradient>
</defs>
</svg>
