<svg xmlns="http://www.w3.org/2000/svg" width="804" height="196" viewBox="0 0 804 196">
  <g id="Group_3960" data-name="Group 3960" transform="translate(-73.5 -195)">
    <g id="Group_3951" data-name="Group 3951" transform="translate(-6776.5 67)">
      <rect id="Rectangle_1261" data-name="Rectangle 1261" width="802.5" height="45" transform="translate(6851 129)" fill="#00a19b"/>
      <rect id="Rectangle_1262" data-name="Rectangle 1262" width="803" height="195" transform="translate(6850.5 128.5)" fill="none" stroke="#d9d9d9" stroke-width="1"/>
      <path id="Path_77" data-name="Path 77" d="M282.868,532.312a15.289,15.289,0,0,1-5.382,6.768,7.779,7.779,0,0,1,1.134,1.026,18.545,18.545,0,0,0,5.652-7.4ZM280.4,538.7V540h3.672c-.414,3.042-1.4,5.886-5.634,7.29a5.307,5.307,0,0,1,.864,1.17c4.572-1.656,5.724-4.914,6.192-8.46h4.644c-.216,4.536-.468,6.336-.936,6.786-.162.2-.378.234-.756.234-.414,0-1.53-.018-2.7-.126a3.254,3.254,0,0,1,.45,1.332,25.778,25.778,0,0,0,2.826.036,1.805,1.805,0,0,0,1.386-.63c.612-.684.882-2.754,1.134-8.28.018-.18.036-.648.036-.648Zm7.416-5.922a23.805,23.805,0,0,0,5.58,7.164,6.883,6.883,0,0,1,1.1-1.188,19.046,19.046,0,0,1-5.418-6.48Zm23.8.252H302.83v1.26h8.784Zm-11.79-1.1a17.877,17.877,0,0,1-4.122,3.906,11.617,11.617,0,0,1,.792,1.062,22.111,22.111,0,0,0,4.608-4.464Zm.738,3.834a19.621,19.621,0,0,1-5.04,5.418,12.824,12.824,0,0,1,.936,1.116,21.169,21.169,0,0,0,2.034-1.872v7.992h1.332v-9.468a22.634,22.634,0,0,0,1.98-2.718Zm11.574,2.178h-10.08v1.278h6.012v7.416c0,.306-.108.378-.45.4s-1.53.018-2.808-.018a4.771,4.771,0,0,1,.432,1.3,13.6,13.6,0,0,0,3.384-.2c.594-.216.792-.63.792-1.458v-7.434h2.718Zm8.046,8.478V542h7.38v4.428Zm4.464-11.484a14.584,14.584,0,0,1-3.24,4.212,23.27,23.27,0,0,0-3.4-2.9,14.617,14.617,0,0,0,1.278-1.314Zm4.266,5.832H321.55a16.983,16.983,0,0,0,4.914-6.642l-.882-.468-.252.072h-5.076c.378-.522.72-1.044,1.026-1.548l-1.494-.306a15.157,15.157,0,0,1-6.048,5.85,4.567,4.567,0,0,1,.936,1.026,19.466,19.466,0,0,0,2.358-1.638,22.411,22.411,0,0,1,3.294,2.952,20.069,20.069,0,0,1-6.678,3.456,4.066,4.066,0,0,1,.792,1.17,22.6,22.6,0,0,0,4.428-2.016v5.688h1.314v-.72h7.38v.756h1.35Zm9.162.882c-.342-.432-1.818-1.98-2.322-2.43v-.882h2.2v-1.08c.306.162.684.36.864.486a13.817,13.817,0,0,0,1.71-3.618,45.927,45.927,0,0,0,6.5-.972l-1.008-.936a45.683,45.683,0,0,1-5.49.882l-1.008-.216a12.029,12.029,0,0,1-1.854,4.212h-1.908V534a14.486,14.486,0,0,0,2.214-.738l-1.008-.936a22.45,22.45,0,0,1-5.184,1.4,3.562,3.562,0,0,1,.4.99c.738-.108,1.548-.252,2.322-.414v2.79h-2.628v1.242h2.412a18.832,18.832,0,0,1-2.628,5.67,6.343,6.343,0,0,1,.7,1.224,20.7,20.7,0,0,0,2.142-4.59V548.4h1.26V540.52a20.243,20.243,0,0,1,1.53,2.142Zm7.2-7.506a16.091,16.091,0,0,1,1.818,3.456l1.152-.522a15.992,15.992,0,0,0-1.872-3.366Zm-1.4,2.538a9.124,9.124,0,0,0-.846-2.466l-1.116.288a8.978,8.978,0,0,1,.774,2.5Zm-.252,7.056v-1.728h2.538v1.728Zm-3.582-1.728h2.358v1.728h-2.358Zm2.358-2.7v1.692h-2.358v-1.692Zm3.762,0v1.692h-2.538v-1.692Zm2.232,4.428h-.99v-5.508h-3.78v-1.17h-1.224v1.17h-3.582v5.508h-1.278v1.116h1.278v3.492h1.224v-3.492h6.12v2.07c0,.216-.09.27-.324.288-.216,0-.99.018-1.836-.018a4.679,4.679,0,0,1,.468,1.17,6.578,6.578,0,0,0,2.3-.216c.486-.2.63-.576.63-1.224v-2.07h.99Z" transform="translate(6631 -388)" fill="#fff"/>
      <path id="Path_78" data-name="Path 78" d="M495.374,537.514h2.106v-1.278h-2.106V532.15h-1.26v4.086h-2.3v1.278h2.3v5.706c-.936.4-1.8.738-2.466.972l.522,1.332c1.584-.7,3.618-1.6,5.526-2.484l-.27-1.188c-.7.27-1.386.576-2.052.864Zm6.03,9.252c-1.17,0-1.4-.234-1.4-1.188V539.35l2.412-1.026v6.066h1.278v-6.606l2.5-1.062c0,2.862-.036,4.86-.126,5.292-.09.4-.27.468-.54.468-.2,0-.774,0-1.206-.018a3.888,3.888,0,0,1,.324,1.152,7.658,7.658,0,0,0,1.692-.126,1.219,1.219,0,0,0,.954-1.188,63.93,63.93,0,0,0,.18-6.732l.072-.252-.936-.36-.252.2-.288.252-2.376.99v-4.464h-1.278v5L500,537.946v-4.338h-1.278v4.9l-1.944.81.522,1.17,1.422-.594v5.67c0,1.926.612,2.412,2.646,2.412h4.41c1.89,0,2.3-.792,2.52-3.24a3.416,3.416,0,0,1-1.206-.522c-.126,2.07-.306,2.556-1.35,2.556Zm14.436-5.076-2.268.9v-5.076h2.34v-1.278h-2.34v-4.068h-1.26v4.068h-2.448v1.278h2.448v5.562c-.99.378-1.908.72-2.628.99l.486,1.3c1.674-.684,3.87-1.62,5.922-2.5Zm6.282,4.77v-7.038h3.87v-1.278h-3.87V532.06H520.79v14.4h-2.646v-10.6H516.83v10.6h-2.2v1.278h11.61V546.46Z" transform="translate(6631 -388)" fill="#fff"/>
      <path id="Path_79" data-name="Path 79" d="M504.284,588.014V592.3h-8.622v-4.284Zm-9.972,6.354h1.35v-.792h8.622v.756h1.422v-7.578H494.312ZM502.2,580.76c.774.648,1.584,1.4,2.34,2.178-2.79.126-5.616.252-8.082.342a47.446,47.446,0,0,0,2.916-4.9l-1.476-.5a37.962,37.962,0,0,1-2.988,5.472c-.99.036-1.908.072-2.7.09l.09,1.332c3.294-.144,8.478-.324,13.374-.594a15.513,15.513,0,0,1,1.278,1.728l1.152-.882A24.258,24.258,0,0,0,503.24,580Zm12.636,1.728h-4.608V583.8h4.608v5.04c-1.926.738-3.852,1.494-5.166,1.908l.63,1.35c1.3-.54,2.916-1.224,4.536-1.926v4.032h1.35v-15.93h-1.35Zm6.642,10.17c-.774,0-.936-.18-.936-1.116V585.62a43.412,43.412,0,0,0,5.436-3.456l-.99-1.152a27.631,27.631,0,0,1-4.446,3.222v-5.94h-1.35v13.23c0,1.908.468,2.448,2.142,2.448h2.88c1.746,0,2.106-1.17,2.268-4.428a3.685,3.685,0,0,1-1.278-.63c-.126,2.97-.252,3.744-1.08,3.744Zm22.59-10.926v-1.314h-7.416v-2.556h-1.4v2.556h-7.272v1.314h7.29v2.43h-5.454v7.992h1.332V585.44h4.122v8.982h1.368V585.44h4.392v5.022c0,.234-.09.306-.4.342-.324,0-1.4,0-2.61-.036a6.038,6.038,0,0,1,.468,1.314,10.73,10.73,0,0,0,3.15-.234c.594-.216.774-.612.774-1.386v-6.3H536.63v-2.43Zm10.584,5.49v-4.77h5.166v4.77Zm-6.534,0v-4.77h5.148v4.77Zm6.534-6.084v-3.2h-1.386v3.2H546.8v8.514h1.314v-1.116h5.148v5.832h1.386v-5.832h5.166v1.026h1.368v-8.424Zm18.486,11.142v-5.616h5.616V585.35h-5.616v-4.788h6.3v-1.3H564.692v1.3h7.074V592.28h-3.96v-8.424h-1.35v8.424h-2.448v1.314h16.02V592.28Zm25,0H584.042V579.914h13.626v-1.206h-14.94v15.66h1.314V593.5h14.094Zm-5.238-8.136h-4.122v-2.07H592.9Zm1.314-3.024h-6.678v4h6.678Zm-7.506,6.174H589.1v2.664h-2.394Zm-1.116,3.636h4.68v-4.608h-4.68Zm9.54-.972h-2.5v-2.664h2.5Zm1.188-3.636h-4.842v4.608h4.842Zm19.3-5.49a15.123,15.123,0,0,0-2.736-2.538l-.936.684a17.152,17.152,0,0,1,2.7,2.628Zm-7.308-1.8h-6.822v1.206h6.822Zm-2.214,8.856h3.1v-1.206h-3.1v-2.5h-1.3v7.776l-2.106.378v-6.8h-1.242v7.02l-1.62.252.324,1.3c2.556-.45,6.228-1.116,9.63-1.764l-.09-1.242c-1.206.216-2.412.45-3.6.666Zm9.864-4.338v-1.26H611.15c-.072-1.332-.108-2.754-.09-4.266h-1.332c0,1.476.054,2.9.126,4.266h-9.81v1.26h9.882c.432,6.228,1.674,10.836,4.356,10.854,1.332,0,1.782-.9,2.016-4a3.958,3.958,0,0,1-1.134-.7c-.09,2.376-.306,3.384-.756,3.384-1.638,0-2.79-3.888-3.186-9.54ZM630,581.318h-8.028v-1.584H630ZM630,584h-8.028v-1.62H630Zm1.422-5.382H620.6v6.5h10.818Zm-10.836,13.77v-1.836h10.836v1.836Zm10.836-4.7v1.728H620.582V587.69ZM619.2,586.5v7.92h1.386v-.864h10.836v.828h1.44V586.5ZM651.974,579h-4.518V580.2h4.518Zm-8.982,4.77h-2.754v1.188h6.75v-1.188h-2.736v-2.394h2.412V580.22h-2.412v-2.268h-1.26v2.268h-2.376v1.152h2.376Zm-4.176-5.8a12.559,12.559,0,0,1-3.2,3.6,6.845,6.845,0,0,1,.756.99,16.187,16.187,0,0,0,3.672-4.158Zm.54,3.582a15.4,15.4,0,0,1-4,5.13,9.075,9.075,0,0,1,.792,1.188,17.226,17.226,0,0,0,1.584-1.638V594.4h1.242V584.63a19.268,19.268,0,0,0,1.566-2.682Zm7.974,9.432-3.078.36V588.7h2.61v-1.17h-2.61v-2.214h-1.278v2.214h-2.628v1.17h2.628v2.79c-1.188.144-2.25.27-3.114.342l.144,1.242c1.962-.252,4.7-.576,7.326-.936Zm4.86-7.2h-4.9v1.224H649.2v7.722c0,.252-.072.306-.342.324-.252.018-1.116.018-2.106-.018a5.584,5.584,0,0,1,.4,1.332,7.758,7.758,0,0,0,2.7-.252c.522-.2.666-.612.666-1.368v-7.74h1.674Zm1.674,1.476v1.458h16.344V585.26Zm27.846-5.382h2.826v3.15c0,.99.108,1.3.36,1.512a1.491,1.491,0,0,0,.99.324h.918a1.779,1.779,0,0,0,.846-.18.94.94,0,0,0,.54-.594,11.182,11.182,0,0,0,.18-1.8,3.037,3.037,0,0,1-1.026-.5,13.041,13.041,0,0,1-.072,1.53.543.543,0,0,1-.2.4,1.051,1.051,0,0,1-.378.054h-.522a.457.457,0,0,1-.288-.072c-.09-.072-.108-.252-.108-.594v-4.41h-5.31v2.538a3.641,3.641,0,0,1-1.818,3.474,4.826,4.826,0,0,1,.9.918,4.792,4.792,0,0,0,2.16-4.356Zm-2.484,10.548-.072-1.242c-1.62.288-3.276.576-4.752.81v-2.736h4.284v-1.242H674.4v-2.2h4.14V582.6H674.4v-2.07a26.072,26.072,0,0,0,4.86-1.62l-1.152-.954a20.161,20.161,0,0,1-4.248,1.584l-.72-.252V590.21l-1.476.234.234,1.3,1.242-.216v2.826h1.26v-3.06Zm6.5-3.33a9.7,9.7,0,0,1-2.268,3.294,9.971,9.971,0,0,1-2.088-3.294Zm.864-1.278-.252.054h-6.894V587.1h1.62l-.882.234a12.171,12.171,0,0,0,2.286,3.87,12.674,12.674,0,0,1-4.41,2.034,4.736,4.736,0,0,1,.738,1.17,14.586,14.586,0,0,0,4.626-2.268,11.13,11.13,0,0,0,4.068,2.214,3.934,3.934,0,0,1,.882-1.152,10.648,10.648,0,0,1-3.942-1.944,11.543,11.543,0,0,0,3.006-5.094Zm11.737-4.7L693.025,593H691.32l5.283-11.461h-6.926V580.2h8.648Zm10.108,0L703.133,593h-1.705l5.282-11.461h-6.926V580.2h8.649Zm6.29,1.353h-2.7v-2.736h2.7Zm1.242-3.852h-5.13v4.968h5.13Zm-3.546,9c.126-.522.252-1.062.36-1.584h3.96v-1.188h-6.732v1.188h1.548c-.252,1.242-.612,2.664-.9,3.636l1.188.216c.09-.324.2-.72.306-1.134H714.6c-.216,2.862-.45,4.014-.792,4.338a.631.631,0,0,1-.576.18c-.288,0-.972,0-1.728-.072a3.029,3.029,0,0,1,.342,1.152,13.229,13.229,0,0,0,1.872.018,1.448,1.448,0,0,0,1.1-.468c.486-.54.756-2,1.044-5.742.018-.162.036-.54.036-.54Zm6.03-5.022h6.714c-.108.72-.252,1.458-.36,1.98l1.008.252c.234-.81.522-2.106.738-3.186l-.846-.216-.2.054h-3.474v-1.206h3.618v-1.08h-3.618v-1.26h-1.278v3.546h-3.528v4.59c0,2.3-.162,5.418-1.71,7.668a3.636,3.636,0,0,1,1.008.738c1.656-2.394,1.926-5.922,1.926-8.406Zm1.44,5.508c-.126,2.628-.5,4.374-2.466,5.364a3.082,3.082,0,0,1,.774.972c2.214-1.206,2.718-3.276,2.862-6.336Zm2.682-1.764c-.486,0-.558-.072-.558-.432v-.828l2.268-.234-.126-.936-2.142.216V582.7h-1.206v1.548l-1.962.2.126.936,1.836-.18v.72c0,1.134.324,1.4,1.62,1.4h1.962c.972,0,1.3-.342,1.4-1.728a4.059,4.059,0,0,1-1.026-.4c-.036,1.008-.126,1.134-.54,1.134Zm1.638,6.552a.882.882,0,0,1-.414-.09.349.349,0,0,1-.126-.306V588.1H722.5v4.374c0,.81.072,1.08.378,1.332a1.714,1.714,0,0,0,1.062.288h1.008a2.37,2.37,0,0,0,.954-.18,1.21,1.21,0,0,0,.576-.684,11.654,11.654,0,0,0,.18-2.052,3.264,3.264,0,0,1-.99-.54,13.468,13.468,0,0,1-.072,1.782.549.549,0,0,1-.252.378,1.2,1.2,0,0,1-.5.09Z" transform="translate(6631 -388)" fill="#1c1c1c"/>
      <line id="Line_70" data-name="Line 70" x2="802.5" transform="translate(6851 223.5)" fill="none" stroke="#d9d9d9" stroke-width="1"/>
      <line id="Line_71" data-name="Line 71" y2="195" transform="translate(7106.5 129)" fill="none" stroke="#d9d9d9" stroke-width="1"/>
      <path id="Path_80" data-name="Path 80" d="M881.3,539.926h1.3v-4.1h5.742v2.52h1.242V534.85h-6.984v-1.1h5.94v-1.044H875.466v1.044H881.3v1.1H874.44v3.492h1.206v-2.52H881.3Zm2.25-.468h4.284v-.846h-4.284Zm0-2.664v.828H887.4v-.828Zm-3.168,0h-3.8v.828h3.8Zm-4.14,2.664h4.14v-.846h-4.14Zm1.008,5.418v-1.224h4v1.224Zm4-3.366v1.242h-4V541.51Zm5.562,1.242h-4.284V541.51h4.284Zm-4.284,2.124v-1.224h4.284v1.224Zm1.35,2.268c-1.134,0-1.35-.108-1.35-.72v-.576h5.58v-5.31H875.97v6.246h1.278v-.936h4v.576c0,1.44.558,1.782,2.574,1.782h4.14c1.692,0,2.106-.54,2.3-2.718a3.677,3.677,0,0,1-1.17-.45c-.09,1.8-.27,2.106-1.224,2.106Zm13.914-14.58H892.71v1.08h5.076Zm-1.08,10.872v3.006h-2.97v-3.006Zm1.17-1.1h-5.31v6.012h1.17v-.81h4.14Zm-5.274-1.386h5.22V539.89H892.6Zm5.22-3.51H892.6V538.5h5.22Zm-6.066-1.386h6.66v-1.1h-6.66Zm14.382,10.206h-5.292v-3.6h5.292Zm2.16-7.83v-1.278h-4.212v-3.06a28.938,28.938,0,0,0,3.564-.774l-.972-1.08a46.9,46.9,0,0,1-7.7,1.278,4.3,4.3,0,0,1,.378,1.116c1.08-.09,2.232-.2,3.384-.342v2.862h-4.194v1.278h4.194v3.006h-3.15v6.93h1.26v-.9h5.292v.792h1.332v-6.822h-3.384v-3.006Z" transform="translate(6631 -388)" fill="#fff"/>
      <path id="Path_81" data-name="Path 81" d="M874.169,587.806a13.715,13.715,0,0,1,.527-3.815,11.173,11.173,0,0,1,1.591-3.322,6.744,6.744,0,0,1,2.189-2.109l.334,1.072a7.025,7.025,0,0,0-2.11,3.006,13.074,13.074,0,0,0-.9,4.526l-.009.747a13.1,13.1,0,0,0,1.239,5.889,7.034,7.034,0,0,0,1.776,2.338l-.334.993a6.96,6.96,0,0,1-2.233-2.18A12.214,12.214,0,0,1,874.169,587.806Zm14.071-.264a7.441,7.441,0,0,1-.975,4.245,4.057,4.057,0,0,1-6.082.035,7.076,7.076,0,0,1-1.02-4.06v-2.171a7.268,7.268,0,0,1,.976-4.193,4.122,4.122,0,0,1,6.1-.044,6.988,6.988,0,0,1,1,4.079Zm-1.626-2.224a5.929,5.929,0,0,0-.58-3.006,2,2,0,0,0-1.837-.949,1.97,1.97,0,0,0-1.819.941,5.819,5.819,0,0,0-.589,2.891v2.6a6.108,6.108,0,0,0,.6,3.067,2,2,0,0,0,1.828.985,1.955,1.955,0,0,0,1.784-.932,5.789,5.789,0,0,0,.615-2.936ZM898.708,593h-8.385v-1.169l4.43-4.922a10.4,10.4,0,0,0,1.353-1.81,3.03,3.03,0,0,0,.378-1.451,2.3,2.3,0,0,0-.606-1.643,2.119,2.119,0,0,0-1.617-.642,2.517,2.517,0,0,0-1.89.7,2.631,2.631,0,0,0-.668,1.916h-1.626a3.783,3.783,0,0,1,1.134-2.857,4.238,4.238,0,0,1,3.05-1.09,4.042,4.042,0,0,1,2.821.941,3.18,3.18,0,0,1,1.037,2.487q0,1.89-2.408,4.5l-3.428,3.718h6.425Zm5.643-5.106a13.52,13.52,0,0,1-.519,3.761,10.978,10.978,0,0,1-1.573,3.314,6.867,6.867,0,0,1-2.215,2.162l-.343-.993a7.039,7.039,0,0,0,2.171-3.217,13.908,13.908,0,0,0,.844-4.852v-.281a14.411,14.411,0,0,0-.387-3.428,11.468,11.468,0,0,0-1.081-2.847,6.5,6.5,0,0,0-1.547-1.96l.343-.993a6.82,6.82,0,0,1,2.206,2.144,10.981,10.981,0,0,1,1.573,3.314A13.784,13.784,0,0,1,904.351,587.894ZM915.073,593h-8.385v-1.169l4.43-4.922a10.416,10.416,0,0,0,1.354-1.81,3.03,3.03,0,0,0,.378-1.451,2.3,2.3,0,0,0-.607-1.643,2.119,2.119,0,0,0-1.617-.642,2.518,2.518,0,0,0-1.89.7,2.63,2.63,0,0,0-.668,1.916h-1.626a3.783,3.783,0,0,1,1.134-2.857,4.238,4.238,0,0,1,3.05-1.09,4.042,4.042,0,0,1,2.821.941,3.177,3.177,0,0,1,1.037,2.487q0,1.89-2.408,4.5l-3.428,3.718h6.425Zm4.087-7.189h1.222a2.683,2.683,0,0,0,1.81-.607,2.024,2.024,0,0,0,.66-1.591,1.985,1.985,0,0,0-2.242-2.25,2.334,2.334,0,0,0-1.687.607,2.1,2.1,0,0,0-.624,1.591h-1.626a3.258,3.258,0,0,1,1.107-2.523,4.056,4.056,0,0,1,2.83-1.011,4,4,0,0,1,2.839.958,3.461,3.461,0,0,1,1.029,2.663,2.8,2.8,0,0,1-.545,1.618,3.245,3.245,0,0,1-1.468,1.169,3.115,3.115,0,0,1,1.626,1.107,3.06,3.06,0,0,1,.58,1.89,3.491,3.491,0,0,1-1.125,2.733,4.213,4.213,0,0,1-2.927,1.011,4.336,4.336,0,0,1-2.935-.976,3.242,3.242,0,0,1-1.125-2.575h1.634a2.089,2.089,0,0,0,.66,1.617,2.507,2.507,0,0,0,1.766.607,2.458,2.458,0,0,0,1.8-.616,2.37,2.37,0,0,0,.624-1.766,2.152,2.152,0,0,0-.686-1.714,2.979,2.979,0,0,0-1.977-.615H919.16Zm15.5-2.268a2.951,2.951,0,0,1-.51,1.7,3.4,3.4,0,0,1-1.362,1.169,3.637,3.637,0,0,1,1.582,1.257,3.144,3.144,0,0,1,.589,1.872,3.337,3.337,0,0,1-1.125,2.645,4.919,4.919,0,0,1-5.906,0,3.377,3.377,0,0,1-1.108-2.645,3.273,3.273,0,0,1,.563-1.872,3.554,3.554,0,0,1,1.573-1.266,3.355,3.355,0,0,1-1.345-1.169,3.013,3.013,0,0,1-.492-1.7,3.307,3.307,0,0,1,1.037-2.566,4.395,4.395,0,0,1,5.458,0A3.293,3.293,0,0,1,934.664,583.543Zm-1.327,5.968a2.35,2.35,0,0,0-.686-1.749,2.428,2.428,0,0,0-4.2,1.749,2.28,2.28,0,0,0,.642,1.714,2.9,2.9,0,0,0,3.6,0A2.284,2.284,0,0,0,933.337,589.511Zm-2.443-8.148a2.1,2.1,0,0,0-1.556.6,2.469,2.469,0,0,0-.009,3.19,2.1,2.1,0,0,0,1.565.6,2.066,2.066,0,0,0,1.555-.6,2.4,2.4,0,0,0-.017-3.172A2.067,2.067,0,0,0,930.894,581.363Zm12.348,6.012a3.987,3.987,0,0,1-1.221.976,3.28,3.28,0,0,1-1.547.369,3.433,3.433,0,0,1-1.934-.545,3.559,3.559,0,0,1-1.266-1.529,5.277,5.277,0,0,1-.448-2.189,5.355,5.355,0,0,1,.484-2.311,3.616,3.616,0,0,1,1.388-1.574,3.951,3.951,0,0,1,2.092-.545,3.557,3.557,0,0,1,2.988,1.424,6.153,6.153,0,0,1,1.1,3.867v.475q0,3.735-1.477,5.458a5.68,5.68,0,0,1-4.456,1.758h-.316v-1.371h.343a3.871,3.871,0,0,0,4.271-4.263Zm-2.505,0a2.492,2.492,0,0,0,1.5-.5,2.943,2.943,0,0,0,1.011-1.239v-.651a4.473,4.473,0,0,0-.694-2.6,2.12,2.12,0,0,0-3.481-.176,3.376,3.376,0,0,0-.65,2.162,3.565,3.565,0,0,0,.624,2.162A2,2,0,0,0,940.737,587.375Zm9.932.853H946.38V586.9h4.289ZM957.437,593H955.8V582.163l-3.279,1.2v-1.476l4.659-1.749h.255Zm7.127-7.189h1.222a2.686,2.686,0,0,0,1.811-.607,2.027,2.027,0,0,0,.659-1.591,1.985,1.985,0,0,0-2.241-2.25,2.336,2.336,0,0,0-1.688.607,2.1,2.1,0,0,0-.624,1.591h-1.626a3.255,3.255,0,0,1,1.108-2.523,4.054,4.054,0,0,1,2.83-1.011,4.007,4.007,0,0,1,2.839.958,3.464,3.464,0,0,1,1.028,2.663,2.8,2.8,0,0,1-.545,1.618,3.245,3.245,0,0,1-1.468,1.169,3.115,3.115,0,0,1,1.626,1.107,3.06,3.06,0,0,1,.58,1.89,3.491,3.491,0,0,1-1.125,2.733,4.211,4.211,0,0,1-2.927,1.011,4.337,4.337,0,0,1-2.935-.976,3.242,3.242,0,0,1-1.125-2.575H963.6a2.088,2.088,0,0,0,.659,1.617,2.507,2.507,0,0,0,1.766.607,2.456,2.456,0,0,0,1.8-.616,2.37,2.37,0,0,0,.624-1.766,2.151,2.151,0,0,0-.685-1.714,2.982,2.982,0,0,0-1.978-.615h-1.222ZM977.651,593h-1.634V582.163l-3.279,1.2v-1.476l4.658-1.749h.255Zm7.128-7.189H986a2.686,2.686,0,0,0,1.811-.607,2.027,2.027,0,0,0,.659-1.591,1.985,1.985,0,0,0-2.242-2.25,2.334,2.334,0,0,0-1.687.607,2.1,2.1,0,0,0-.624,1.591h-1.626a3.258,3.258,0,0,1,1.107-2.523,4.057,4.057,0,0,1,2.83-1.011,4,4,0,0,1,2.839.958,3.461,3.461,0,0,1,1.029,2.663,2.8,2.8,0,0,1-.545,1.618,3.245,3.245,0,0,1-1.468,1.169,3.116,3.116,0,0,1,1.626,1.107,3.06,3.06,0,0,1,.58,1.89,3.491,3.491,0,0,1-1.125,2.733,4.213,4.213,0,0,1-2.927,1.011,4.338,4.338,0,0,1-2.935-.976,3.242,3.242,0,0,1-1.125-2.575h1.634a2.089,2.089,0,0,0,.66,1.617,2.507,2.507,0,0,0,1.766.607,2.458,2.458,0,0,0,1.8-.616,2.37,2.37,0,0,0,.624-1.766,2.151,2.151,0,0,0-.685-1.714,2.984,2.984,0,0,0-1.978-.615h-1.222Z" transform="translate(6631 -388)" fill="#1c1c1c"/>
      <path id="Path_82" data-name="Path 82" d="M286.088,638.542a7.432,7.432,0,0,1-.976,4.245,4.057,4.057,0,0,1-6.082.035,7.077,7.077,0,0,1-1.019-4.06v-2.171a7.276,7.276,0,0,1,.975-4.193,4.123,4.123,0,0,1,6.1-.044,7,7,0,0,1,1,4.079Zm-1.626-2.224a5.929,5.929,0,0,0-.58-3.006,2,2,0,0,0-1.837-.949,1.969,1.969,0,0,0-1.819.941,5.807,5.807,0,0,0-.589,2.891v2.6a6.12,6.12,0,0,0,.6,3.067,2.005,2.005,0,0,0,1.828.985,1.957,1.957,0,0,0,1.785-.932,5.809,5.809,0,0,0,.615-2.936Zm9.94,2.057a3.987,3.987,0,0,1-1.221.976,3.28,3.28,0,0,1-1.547.369,3.435,3.435,0,0,1-1.934-.545,3.549,3.549,0,0,1-1.265-1.529,5.261,5.261,0,0,1-.449-2.189,5.355,5.355,0,0,1,.484-2.311,3.615,3.615,0,0,1,1.388-1.574,3.951,3.951,0,0,1,2.092-.545,3.557,3.557,0,0,1,2.988,1.424,6.153,6.153,0,0,1,1.1,3.867v.475q0,3.735-1.476,5.458a5.683,5.683,0,0,1-4.457,1.758h-.316v-1.371h.343a3.87,3.87,0,0,0,4.271-4.263Zm-2.505,0a2.492,2.492,0,0,0,1.5-.5,2.943,2.943,0,0,0,1.011-1.239v-.651a4.473,4.473,0,0,0-.694-2.6,2.12,2.12,0,0,0-3.481-.176,3.376,3.376,0,0,0-.65,2.162,3.565,3.565,0,0,0,.624,2.162A2,2,0,0,0,291.9,638.375Zm14.142-3.832a2.951,2.951,0,0,1-.51,1.7,3.4,3.4,0,0,1-1.362,1.169,3.637,3.637,0,0,1,1.582,1.257,3.144,3.144,0,0,1,.589,1.872,3.337,3.337,0,0,1-1.125,2.645,4.919,4.919,0,0,1-5.906,0,3.377,3.377,0,0,1-1.108-2.645,3.273,3.273,0,0,1,.563-1.872,3.554,3.554,0,0,1,1.573-1.266,3.355,3.355,0,0,1-1.345-1.169,3.013,3.013,0,0,1-.492-1.7,3.307,3.307,0,0,1,1.037-2.566,4.395,4.395,0,0,1,5.458,0A3.293,3.293,0,0,1,306.039,634.543Zm-1.327,5.968a2.35,2.35,0,0,0-.686-1.749,2.428,2.428,0,0,0-4.2,1.749,2.28,2.28,0,0,0,.642,1.714,2.9,2.9,0,0,0,3.6,0A2.284,2.284,0,0,0,304.712,640.511Zm-2.443-8.148a2.1,2.1,0,0,0-1.556.6,2.468,2.468,0,0,0-.009,3.19,2.1,2.1,0,0,0,1.565.6,2.064,2.064,0,0,0,1.555-.6,2.4,2.4,0,0,0-.017-3.172A2.067,2.067,0,0,0,302.269,632.363Zm12.348,6.012a3.987,3.987,0,0,1-1.221.976,3.28,3.28,0,0,1-1.547.369,3.433,3.433,0,0,1-1.934-.545,3.558,3.558,0,0,1-1.266-1.529,5.277,5.277,0,0,1-.448-2.189,5.355,5.355,0,0,1,.484-2.311,3.616,3.616,0,0,1,1.388-1.574,3.951,3.951,0,0,1,2.092-.545,3.557,3.557,0,0,1,2.988,1.424,6.153,6.153,0,0,1,1.1,3.867v.475q0,3.735-1.477,5.458a5.68,5.68,0,0,1-4.456,1.758H310v-1.371h.343a3.871,3.871,0,0,0,4.271-4.263Zm-2.505,0a2.492,2.492,0,0,0,1.5-.5,2.943,2.943,0,0,0,1.011-1.239v-.651a4.473,4.473,0,0,0-.694-2.6,2.12,2.12,0,0,0-3.481-.176,3.376,3.376,0,0,0-.65,2.162,3.565,3.565,0,0,0,.624,2.162A2,2,0,0,0,312.112,638.375Zm23.463,4.8h-9.36v-4.536h9.36Zm3.348-9.684v-1.314H331.6v-3.24h-1.422v3.24h-7.254v1.314h7.254v3.87h-5.31V645.4h1.35v-.954h9.36v.882H337v-7.974h-5.4v-3.87Zm4.554,7.362h4.752v3.006c0,.252-.09.342-.45.36-.342.018-1.656.018-3.006-.018a6.11,6.11,0,0,1,.486,1.188,15.464,15.464,0,0,0,3.492-.18c.684-.162.9-.522.9-1.314V640.85h4.77v-1.116H343.477Zm-2.2.018h1.188V638.4h12.852v2.466h1.242V637.34H341.281Zm11.7-5.562h-8.154v-1.674h8.154Zm-9.486-2.628v3.6h10.89v-3.6Zm6.048-2.2v-1.6h-1.386v1.6h-7.11v1.152h15.732v-1.152Zm14.22-1.17a15.289,15.289,0,0,1-5.382,6.768,7.78,7.78,0,0,1,1.134,1.026,18.546,18.546,0,0,0,5.652-7.4ZM361.3,635.7V637h3.672c-.414,3.042-1.4,5.886-5.634,7.29a5.307,5.307,0,0,1,.864,1.17c4.572-1.656,5.724-4.914,6.192-8.46h4.644c-.216,4.536-.468,6.336-.936,6.786-.162.2-.378.234-.756.234-.414,0-1.53-.018-2.7-.126a3.254,3.254,0,0,1,.45,1.332,25.778,25.778,0,0,0,2.826.036,1.805,1.805,0,0,0,1.386-.63c.612-.684.882-2.754,1.134-8.28.018-.18.036-.648.036-.648Zm7.416-5.922a23.805,23.805,0,0,0,5.58,7.164,6.885,6.885,0,0,1,1.1-1.188,19.046,19.046,0,0,1-5.418-6.48Zm23.8.252h-8.784v1.26h8.784Zm-11.79-1.1a17.877,17.877,0,0,1-4.122,3.906,11.618,11.618,0,0,1,.792,1.062A22.112,22.112,0,0,0,382,629.438Zm.738,3.834a19.621,19.621,0,0,1-5.04,5.418,12.819,12.819,0,0,1,.936,1.116,21.166,21.166,0,0,0,2.034-1.872v7.992h1.332v-9.468a22.637,22.637,0,0,0,1.98-2.718Zm11.574,2.178h-10.08v1.278h6.012v7.416c0,.306-.108.378-.45.4s-1.53.018-2.808-.018a4.769,4.769,0,0,1,.432,1.3,13.6,13.6,0,0,0,3.384-.2c.594-.216.792-.63.792-1.458v-7.434h2.718Z" transform="translate(6631 -388)" fill="#1c1c1c"/>
      <path id="Path_83" data-name="Path 83" d="M504.284,639.014V643.3h-8.622v-4.284Zm-9.972,6.354h1.35v-.792h8.622v.756h1.422v-7.578H494.312ZM502.2,631.76c.774.648,1.584,1.4,2.34,2.178-2.79.126-5.616.252-8.082.342a47.446,47.446,0,0,0,2.916-4.9l-1.476-.5a37.962,37.962,0,0,1-2.988,5.472c-.99.036-1.908.072-2.7.09l.09,1.332c3.294-.144,8.478-.324,13.374-.594a15.513,15.513,0,0,1,1.278,1.728l1.152-.882A24.258,24.258,0,0,0,503.24,631Zm12.636,1.728h-4.608V634.8h4.608v5.04c-1.926.738-3.852,1.494-5.166,1.908l.63,1.35c1.3-.54,2.916-1.224,4.536-1.926v4.032h1.35v-15.93h-1.35Zm6.642,10.17c-.774,0-.936-.18-.936-1.116V636.62a43.412,43.412,0,0,0,5.436-3.456l-.99-1.152a27.631,27.631,0,0,1-4.446,3.222v-5.94h-1.35v13.23c0,1.908.468,2.448,2.142,2.448h2.88c1.746,0,2.106-1.17,2.268-4.428a3.685,3.685,0,0,1-1.278-.63c-.126,2.97-.252,3.744-1.08,3.744Zm22.59-10.926v-1.314h-7.416v-2.556h-1.4v2.556h-7.272v1.314h7.29v2.43h-5.454v7.992h1.332V636.44h4.122v8.982h1.368V636.44h4.392v5.022c0,.234-.09.306-.4.342-.324,0-1.4,0-2.61-.036a6.038,6.038,0,0,1,.468,1.314,10.73,10.73,0,0,0,3.15-.234c.594-.216.774-.612.774-1.386v-6.3H536.63v-2.43Zm10.584,5.49v-4.77h5.166v4.77Zm-6.534,0v-4.77h5.148v4.77Zm6.534-6.084v-3.2h-1.386v3.2H546.8v8.514h1.314v-1.116h5.148v5.832h1.386v-5.832h5.166v1.026h1.368v-8.424Zm18.486,11.142v-5.616h5.616V636.35h-5.616v-4.788h6.3v-1.3H564.692v1.3h7.074V643.28h-3.96v-8.424h-1.35v8.424h-2.448v1.314h16.02V643.28Zm25,0H584.042V630.914h13.626v-1.206h-14.94v15.66h1.314V644.5h14.094Zm-5.238-8.136h-4.122v-2.07H592.9Zm1.314-3.024h-6.678v4h6.678Zm-7.506,6.174H589.1v2.664h-2.394Zm-1.116,3.636h4.68v-4.608h-4.68Zm9.54-.972h-2.5v-2.664h2.5Zm1.188-3.636h-4.842v4.608h4.842Zm8.406-1.6a9.164,9.164,0,0,1,1.1,2.178l1.1-.4a8.38,8.38,0,0,0-1.134-2.106Zm7.884,6.21v-1.116h-4.014V639H612.3v-1.1h-2.178c.414-.63.828-1.44,1.224-2.2l-1.152-.324a19.2,19.2,0,0,1-1.242,2.52h-5.13V639h3.492v1.818h-3.87v1.116h3.87v3.1h1.278v-3.1Zm3.276-9.936v-1.26H608.72v-1.782h-1.458v1.782h-7.11v1.26h7.11V633.9h-6.138v11.466h1.314V635.144H613.58v8.676c0,.288-.09.378-.414.4-.306.018-1.4.018-2.538-.036a6.266,6.266,0,0,1,.486,1.206,10.776,10.776,0,0,0,3.042-.216c.576-.2.774-.558.774-1.35V633.9h-6.21v-1.908Zm14.112.324h-8.028v-1.584H630ZM630,635h-8.028v-1.62H630Zm1.422-5.382H620.6v6.5h10.818Zm-10.836,13.77v-1.836h10.836v1.836Zm10.836-4.7v1.728H620.582V638.69ZM619.2,637.5v7.92h1.386v-.864h10.836v.828h1.44V637.5Zm25.632,1.386a14.3,14.3,0,0,0,2.7-2.124,13.549,13.549,0,0,0,2.664,2.124Zm.432,4.626v-3.456h4.5v3.456Zm-2.646-5.742H640.4V635.18h2.07v-.54a7.387,7.387,0,0,1,.936.792,12.975,12.975,0,0,0,1.638-2.07,16.42,16.42,0,0,0,1.656,2.466,12.882,12.882,0,0,1-4.086,2.808Zm-4.77-6.912h3.384v3.15h-3.384Zm11.484,1.08a11.679,11.679,0,0,1-1.854,3.042,14.541,14.541,0,0,1-1.782-2.7l.18-.342Zm.81-1.224-.234.054H646.43c.2-.486.4-1.008.576-1.53l-1.278-.306a13.091,13.091,0,0,1-3.258,5.526v-4.77h-5.814v5.49h2.52v7.272l-1.386.324v-5.9h-1.134v6.138l-.918.2.252,1.3c1.89-.468,4.446-1.08,6.894-1.674l-.126-1.206c-.792.2-1.584.378-2.358.558V638.96h1.89a3.65,3.65,0,0,1,.648.9c.36-.162.72-.324,1.08-.522v6.012h1.242V644.7h4.5v.594h1.278v-5.94c.2.09.4.18.576.27a5.024,5.024,0,0,1,.828-1.1,12.043,12.043,0,0,1-4.1-2.646,13.689,13.689,0,0,0,2.628-4.788Zm5.454.81v1.422h12.834v-1.422Zm-1.512,10.6v1.458h15.858v-1.458Zm27.63-11.25h2.826v3.15c0,.99.108,1.3.36,1.512a1.491,1.491,0,0,0,.99.324h.918a1.779,1.779,0,0,0,.846-.18.94.94,0,0,0,.54-.594,11.182,11.182,0,0,0,.18-1.8,3.037,3.037,0,0,1-1.026-.5,13.041,13.041,0,0,1-.072,1.53.543.543,0,0,1-.2.4,1.051,1.051,0,0,1-.378.054h-.522a.457.457,0,0,1-.288-.072c-.09-.072-.108-.252-.108-.594v-4.41h-5.31v2.538a3.641,3.641,0,0,1-1.818,3.474,4.826,4.826,0,0,1,.9.918,4.792,4.792,0,0,0,2.16-4.356Zm-2.484,10.548-.072-1.242c-1.62.288-3.276.576-4.752.81v-2.736h4.284v-1.242H674.4v-2.2h4.14V633.6H674.4v-2.07a26.072,26.072,0,0,0,4.86-1.62l-1.152-.954a20.161,20.161,0,0,1-4.248,1.584l-.72-.252V641.21l-1.476.234.234,1.3,1.242-.216v2.826h1.26v-3.06Zm6.5-3.33a9.7,9.7,0,0,1-2.268,3.294,9.971,9.971,0,0,1-2.088-3.294Zm.864-1.278-.252.054h-6.894V638.1h1.62l-.882.234a12.171,12.171,0,0,0,2.286,3.87,12.674,12.674,0,0,1-4.41,2.034,4.736,4.736,0,0,1,.738,1.17,14.586,14.586,0,0,0,4.626-2.268,11.13,11.13,0,0,0,4.068,2.214,3.934,3.934,0,0,1,.882-1.152,10.648,10.648,0,0,1-3.942-1.944,11.543,11.543,0,0,0,3.006-5.094ZM698.448,644h-8.385v-1.169l4.43-4.922a10.416,10.416,0,0,0,1.354-1.81,3.03,3.03,0,0,0,.378-1.451,2.3,2.3,0,0,0-.607-1.643,2.119,2.119,0,0,0-1.617-.642,2.517,2.517,0,0,0-1.89.7,2.63,2.63,0,0,0-.668,1.916h-1.626a3.783,3.783,0,0,1,1.134-2.857,4.238,4.238,0,0,1,3.05-1.09,4.042,4.042,0,0,1,2.821.941,3.177,3.177,0,0,1,1.037,2.487q0,1.89-2.408,4.5l-3.428,3.718h6.425Zm10.108,0h-8.385v-1.169l4.43-4.922a10.4,10.4,0,0,0,1.353-1.81,3.03,3.03,0,0,0,.378-1.451,2.3,2.3,0,0,0-.606-1.643,2.123,2.123,0,0,0-1.618-.642,2.516,2.516,0,0,0-1.889.7,2.626,2.626,0,0,0-.668,1.916h-1.626a3.783,3.783,0,0,1,1.134-2.857,4.235,4.235,0,0,1,3.049-1.09,4.044,4.044,0,0,1,2.822.941,3.18,3.18,0,0,1,1.037,2.487q0,1.89-2.408,4.5l-3.428,3.718h6.425Zm9.747-5.458a7.432,7.432,0,0,1-.976,4.245,4.057,4.057,0,0,1-6.082.035,7.077,7.077,0,0,1-1.019-4.06v-2.171a7.277,7.277,0,0,1,.975-4.193,4.123,4.123,0,0,1,6.1-.044,7,7,0,0,1,1,4.079Zm-1.626-2.224a5.94,5.94,0,0,0-.58-3.006,2,2,0,0,0-1.837-.949,1.972,1.972,0,0,0-1.82.941,5.819,5.819,0,0,0-.588,2.891v2.6a6.121,6.121,0,0,0,.6,3.067,2.005,2.005,0,0,0,1.828.985,1.957,1.957,0,0,0,1.785-.932,5.81,5.81,0,0,0,.615-2.936Zm8.153-2.848h-2.7v-2.736h2.7Zm1.242-3.852h-5.13v4.968h5.13Zm-3.546,9c.126-.522.252-1.062.36-1.584h3.96v-1.188h-6.732v1.188h1.548c-.252,1.242-.612,2.664-.9,3.636l1.188.216c.09-.324.2-.72.306-1.134H724.7c-.216,2.862-.45,4.014-.792,4.338a.631.631,0,0,1-.576.18c-.288,0-.972,0-1.728-.072a3.029,3.029,0,0,1,.342,1.152,13.229,13.229,0,0,0,1.872.018,1.448,1.448,0,0,0,1.1-.468c.486-.54.756-2,1.044-5.742.018-.162.036-.54.036-.54Zm6.03-5.022h6.714c-.108.72-.252,1.458-.36,1.98l1.008.252c.234-.81.522-2.106.738-3.186l-.846-.216-.2.054h-3.474v-1.206h3.618v-1.08h-3.618v-1.26H730.86v3.546h-3.528v4.59c0,2.3-.162,5.418-1.71,7.668a3.636,3.636,0,0,1,1.008.738c1.656-2.394,1.926-5.922,1.926-8.406ZM730,639.1c-.126,2.628-.5,4.374-2.466,5.364a3.082,3.082,0,0,1,.774.972c2.214-1.206,2.718-3.276,2.862-6.336Zm2.682-1.764c-.486,0-.558-.072-.558-.432v-.828l2.268-.234-.126-.936-2.142.216V633.7h-1.206v1.548l-1.962.2.126.936,1.836-.18v.72c0,1.134.324,1.4,1.62,1.4H734.5c.972,0,1.3-.342,1.4-1.728a4.059,4.059,0,0,1-1.026-.4c-.036,1.008-.126,1.134-.54,1.134Zm1.638,6.552a.882.882,0,0,1-.414-.09.349.349,0,0,1-.126-.306V639.1h-1.17v4.374c0,.81.072,1.08.378,1.332a1.714,1.714,0,0,0,1.062.288h1.008a2.37,2.37,0,0,0,.954-.18,1.21,1.21,0,0,0,.576-.684,11.654,11.654,0,0,0,.18-2.052,3.264,3.264,0,0,1-.99-.54,13.482,13.482,0,0,1-.072,1.782.549.549,0,0,1-.252.378,1.2,1.2,0,0,1-.5.09Z" transform="translate(6631 -388)" fill="#1c1c1c"/>
      <line id="Line_72" data-name="Line 72" x2="802.5" transform="translate(6851 273.5)" fill="none" stroke="#d9d9d9" stroke-width="1"/>
      <path id="Path_84" data-name="Path 84" d="M874.169,638.806a13.715,13.715,0,0,1,.527-3.815,11.173,11.173,0,0,1,1.591-3.322,6.744,6.744,0,0,1,2.189-2.109l.334,1.072a7.025,7.025,0,0,0-2.11,3.006,13.074,13.074,0,0,0-.9,4.526l-.009.747a13.1,13.1,0,0,0,1.239,5.889,7.034,7.034,0,0,0,1.776,2.338l-.334.993a6.96,6.96,0,0,1-2.233-2.18A12.214,12.214,0,0,1,874.169,638.806Zm14.071-.264a7.441,7.441,0,0,1-.975,4.245,4.057,4.057,0,0,1-6.082.035,7.076,7.076,0,0,1-1.02-4.06v-2.171a7.268,7.268,0,0,1,.976-4.193,4.122,4.122,0,0,1,6.1-.044,6.988,6.988,0,0,1,1,4.079Zm-1.626-2.224a5.929,5.929,0,0,0-.58-3.006,2,2,0,0,0-1.837-.949,1.97,1.97,0,0,0-1.819.941,5.819,5.819,0,0,0-.589,2.891v2.6a6.108,6.108,0,0,0,.6,3.067,2,2,0,0,0,1.828.985,1.955,1.955,0,0,0,1.784-.932,5.789,5.789,0,0,0,.615-2.936ZM898.708,644h-8.385v-1.169l4.43-4.922a10.4,10.4,0,0,0,1.353-1.81,3.03,3.03,0,0,0,.378-1.451,2.3,2.3,0,0,0-.606-1.643,2.119,2.119,0,0,0-1.617-.642,2.517,2.517,0,0,0-1.89.7,2.631,2.631,0,0,0-.668,1.916h-1.626a3.783,3.783,0,0,1,1.134-2.857,4.238,4.238,0,0,1,3.05-1.09,4.042,4.042,0,0,1,2.821.941,3.18,3.18,0,0,1,1.037,2.487q0,1.89-2.408,4.5l-3.428,3.718h6.425Zm5.643-5.106a13.52,13.52,0,0,1-.519,3.761,10.978,10.978,0,0,1-1.573,3.314,6.867,6.867,0,0,1-2.215,2.162l-.343-.993a7.039,7.039,0,0,0,2.171-3.217,13.908,13.908,0,0,0,.844-4.852v-.281a14.411,14.411,0,0,0-.387-3.428,11.468,11.468,0,0,0-1.081-2.847,6.5,6.5,0,0,0-1.547-1.96l.343-.993a6.82,6.82,0,0,1,2.206,2.144,10.981,10.981,0,0,1,1.573,3.314A13.784,13.784,0,0,1,904.351,638.894ZM915.073,644h-8.385v-1.169l4.43-4.922a10.416,10.416,0,0,0,1.354-1.81,3.03,3.03,0,0,0,.378-1.451,2.3,2.3,0,0,0-.607-1.643,2.119,2.119,0,0,0-1.617-.642,2.518,2.518,0,0,0-1.89.7,2.63,2.63,0,0,0-.668,1.916h-1.626a3.783,3.783,0,0,1,1.134-2.857,4.238,4.238,0,0,1,3.05-1.09,4.042,4.042,0,0,1,2.821.941,3.177,3.177,0,0,1,1.037,2.487q0,1.89-2.408,4.5l-3.428,3.718h6.425Zm4.087-7.189h1.222a2.683,2.683,0,0,0,1.81-.607,2.024,2.024,0,0,0,.66-1.591,1.985,1.985,0,0,0-2.242-2.25,2.334,2.334,0,0,0-1.687.607,2.1,2.1,0,0,0-.624,1.591h-1.626a3.258,3.258,0,0,1,1.107-2.523,4.056,4.056,0,0,1,2.83-1.011,4,4,0,0,1,2.839.958,3.461,3.461,0,0,1,1.029,2.663,2.8,2.8,0,0,1-.545,1.618,3.245,3.245,0,0,1-1.468,1.169,3.115,3.115,0,0,1,1.626,1.107,3.06,3.06,0,0,1,.58,1.89,3.491,3.491,0,0,1-1.125,2.733,4.213,4.213,0,0,1-2.927,1.011,4.336,4.336,0,0,1-2.935-.976,3.242,3.242,0,0,1-1.125-2.575h1.634a2.089,2.089,0,0,0,.66,1.617,2.507,2.507,0,0,0,1.766.607,2.458,2.458,0,0,0,1.8-.616,2.37,2.37,0,0,0,.624-1.766,2.152,2.152,0,0,0-.686-1.714,2.979,2.979,0,0,0-1.977-.615H919.16Zm14.124-5.617v1.38h-.3a4.286,4.286,0,0,0-3.023,1.125,4.682,4.682,0,0,0-1.3,3.068,3.47,3.47,0,0,1,2.76-1.161,3.306,3.306,0,0,1,2.663,1.178,5.144,5.144,0,0,1-.079,6.205,3.7,3.7,0,0,1-2.883,1.187,3.656,3.656,0,0,1-2.979-1.406A5.61,5.61,0,0,1,927,639.131v-.624a8.425,8.425,0,0,1,1.5-5.4,5.546,5.546,0,0,1,4.491-1.916Zm-2.136,5.766a2.731,2.731,0,0,0-2.513,1.758v.6a4.194,4.194,0,0,0,.712,2.549,2.131,2.131,0,0,0,1.775.967,2.054,2.054,0,0,0,1.723-.809,3.852,3.852,0,0,0-.009-4.245A2.026,2.026,0,0,0,931.148,636.96Zm12.727,2.742h1.775v1.327h-1.775V644H942.24v-2.971h-5.827v-.958l5.731-8.868h1.731Zm-5.616,0h3.981v-6.275l-.193.351Zm12.41-.474H946.38V637.9h4.289ZM957.437,644H955.8V633.163l-3.279,1.2v-1.476l4.659-1.749h.255Zm7.127-7.189h1.222a2.686,2.686,0,0,0,1.811-.607,2.027,2.027,0,0,0,.659-1.591,1.985,1.985,0,0,0-2.241-2.25,2.336,2.336,0,0,0-1.688.607,2.1,2.1,0,0,0-.624,1.591h-1.626a3.255,3.255,0,0,1,1.108-2.523,4.054,4.054,0,0,1,2.83-1.011,4.007,4.007,0,0,1,2.839.958,3.464,3.464,0,0,1,1.028,2.663,2.8,2.8,0,0,1-.545,1.618,3.245,3.245,0,0,1-1.468,1.169,3.115,3.115,0,0,1,1.626,1.107,3.06,3.06,0,0,1,.58,1.89,3.491,3.491,0,0,1-1.125,2.733,4.211,4.211,0,0,1-2.927,1.011,4.337,4.337,0,0,1-2.935-.976,3.242,3.242,0,0,1-1.125-2.575H963.6a2.088,2.088,0,0,0,.659,1.617,2.507,2.507,0,0,0,1.766.607,2.456,2.456,0,0,0,1.8-.616,2.37,2.37,0,0,0,.624-1.766,2.151,2.151,0,0,0-.685-1.714,2.982,2.982,0,0,0-1.978-.615h-1.222ZM977.651,644h-1.634V633.163l-3.279,1.2v-1.476l4.658-1.749h.255Zm7.128-7.189H986a2.686,2.686,0,0,0,1.811-.607,2.027,2.027,0,0,0,.659-1.591,1.985,1.985,0,0,0-2.242-2.25,2.334,2.334,0,0,0-1.687.607,2.1,2.1,0,0,0-.624,1.591h-1.626a3.258,3.258,0,0,1,1.107-2.523,4.057,4.057,0,0,1,2.83-1.011,4,4,0,0,1,2.839.958,3.461,3.461,0,0,1,1.029,2.663,2.8,2.8,0,0,1-.545,1.618,3.245,3.245,0,0,1-1.468,1.169,3.116,3.116,0,0,1,1.626,1.107,3.06,3.06,0,0,1,.58,1.89,3.491,3.491,0,0,1-1.125,2.733,4.213,4.213,0,0,1-2.927,1.011,4.338,4.338,0,0,1-2.935-.976,3.242,3.242,0,0,1-1.125-2.575h1.634a2.089,2.089,0,0,0,.66,1.617,2.507,2.507,0,0,0,1.766.607,2.458,2.458,0,0,0,1.8-.616,2.37,2.37,0,0,0,.624-1.766,2.151,2.151,0,0,0-.685-1.714,2.984,2.984,0,0,0-1.978-.615h-1.222Z" transform="translate(6631 -388)" fill="#1c1c1c"/>
      <path id="Path_85" data-name="Path 85" d="M283.407,694h-1.635V683.163l-3.278,1.2v-1.476l4.658-1.749h.255Zm12.788-5.458a7.441,7.441,0,0,1-.975,4.245,4.057,4.057,0,0,1-6.082.035,7.076,7.076,0,0,1-1.02-4.06v-2.171a7.268,7.268,0,0,1,.976-4.193,4.122,4.122,0,0,1,6.1-.044,6.989,6.989,0,0,1,1,4.079Zm-1.626-2.224a5.929,5.929,0,0,0-.58-3.006,2,2,0,0,0-1.837-.949,1.97,1.97,0,0,0-1.819.941,5.818,5.818,0,0,0-.589,2.891v2.6a6.108,6.108,0,0,0,.6,3.067,2,2,0,0,0,1.828.985,1.955,1.955,0,0,0,1.784-.932,5.789,5.789,0,0,0,.615-2.936Zm4.456,1.266.651-6.381h6.556v1.5h-5.176l-.387,3.489a4.131,4.131,0,0,1,2.136-.553,3.522,3.522,0,0,1,2.777,1.16,4.508,4.508,0,0,1,1.028,3.12,4.377,4.377,0,0,1-1.072,3.12,3.885,3.885,0,0,1-2.979,1.134,4.046,4.046,0,0,1-2.769-.941,3.754,3.754,0,0,1-1.222-2.6h1.538a2.6,2.6,0,0,0,.783,1.661,2.445,2.445,0,0,0,1.67.554,2.181,2.181,0,0,0,1.775-.774,3.214,3.214,0,0,0,.65-2.136,2.937,2.937,0,0,0-.7-2.056,2.355,2.355,0,0,0-1.854-.782,2.684,2.684,0,0,0-1.67.465l-.431.352Zm15.742-6.39v1.38h-.3a4.287,4.287,0,0,0-3.024,1.125,4.681,4.681,0,0,0-1.3,3.068,3.467,3.467,0,0,1,2.759-1.161,3.305,3.305,0,0,1,2.663,1.178,5.144,5.144,0,0,1-.079,6.205,3.969,3.969,0,0,1-5.862-.219,5.611,5.611,0,0,1-1.143-3.639v-.624a8.425,8.425,0,0,1,1.5-5.4,5.546,5.546,0,0,1,4.492-1.916Zm-2.136,5.766a2.734,2.734,0,0,0-2.514,1.758v.6a4.194,4.194,0,0,0,.712,2.549,2.134,2.134,0,0,0,1.775.967,2.053,2.053,0,0,0,1.723-.809,3.852,3.852,0,0,0-.009-4.245A2.025,2.025,0,0,0,312.631,686.96Zm18.318-6.136h-3.276v-1.818h-1.3v1.818h-3.312v1.116h7.884Zm-2.07,4a26.577,26.577,0,0,0,1.044-2.556l-1.224-.288a14.914,14.914,0,0,1-.9,2.61Zm-2.916-.252a9.956,9.956,0,0,0-.774-2.556l-1.044.27a10.362,10.362,0,0,1,.7,2.592Zm4.554,7.218c-.414-.378-2.16-1.8-2.844-2.3v-.432h3.348v-1.134h-3.348v-1.89h3.492v-1.134h-8.352v1.134h3.564v1.89h-3.51v1.134h3.222a12.62,12.62,0,0,1-3.618,4.05,5.768,5.768,0,0,1,.9.972,14.463,14.463,0,0,0,3.006-3.456v4.716h1.3V690.76a27.806,27.806,0,0,1,2.052,2.016Zm8.586-6.822h-6.012v-3.2a29.751,29.751,0,0,0,5.778-1.62l-1.08-.99a24.337,24.337,0,0,1-5,1.548l-.972-.306v6.264c0,2.52-.252,5.634-2.538,7.866a3.379,3.379,0,0,1,.954.936c2.52-2.5,2.862-6.1,2.862-8.784v-.45h2.682v9.036h1.314v-9.036H339.1Zm10.512,8.55v-4.572h5.778v-1.3h-5.778v-3.924h6.444v-1.314h-6.444v-3.456h-1.368v3.456h-3.654a24.71,24.71,0,0,0,1.008-2.88l-1.35-.288a16.409,16.409,0,0,1-3.33,6.624,8.96,8.96,0,0,1,1.224.792,16.148,16.148,0,0,0,1.872-2.934h4.23v3.924H342.9v1.3h5.346v4.572h-7.29v1.3H356.9v-1.3Zm14.148-14.2a15.289,15.289,0,0,1-5.382,6.768,7.78,7.78,0,0,1,1.134,1.026,18.546,18.546,0,0,0,5.652-7.4ZM361.3,685.7V687h3.672c-.414,3.042-1.4,5.886-5.634,7.29a5.307,5.307,0,0,1,.864,1.17c4.572-1.656,5.724-4.914,6.192-8.46h4.644c-.216,4.536-.468,6.336-.936,6.786-.162.2-.378.234-.756.234-.414,0-1.53-.018-2.7-.126a3.254,3.254,0,0,1,.45,1.332,25.778,25.778,0,0,0,2.826.036,1.805,1.805,0,0,0,1.386-.63c.612-.684.882-2.754,1.134-8.28.018-.18.036-.648.036-.648Zm7.416-5.922a23.805,23.805,0,0,0,5.58,7.164,6.885,6.885,0,0,1,1.1-1.188,19.046,19.046,0,0,1-5.418-6.48Zm23.8.252h-8.784v1.26h8.784Zm-11.79-1.1a17.877,17.877,0,0,1-4.122,3.906,11.618,11.618,0,0,1,.792,1.062A22.112,22.112,0,0,0,382,679.438Zm.738,3.834a19.621,19.621,0,0,1-5.04,5.418,12.819,12.819,0,0,1,.936,1.116,21.166,21.166,0,0,0,2.034-1.872v7.992h1.332v-9.468a22.637,22.637,0,0,0,1.98-2.718Zm11.574,2.178h-10.08v1.278h6.012v7.416c0,.306-.108.378-.45.4s-1.53.018-2.808-.018a4.769,4.769,0,0,1,.432,1.3,13.6,13.6,0,0,0,3.384-.2c.594-.216.792-.63.792-1.458v-7.434h2.718Z" transform="translate(6631 -388)" fill="#1c1c1c"/>
      <path id="Path_86" data-name="Path 86" d="M504.284,689.014V693.3h-8.622v-4.284Zm-9.972,6.354h1.35v-.792h8.622v.756h1.422v-7.578H494.312ZM502.2,681.76c.774.648,1.584,1.4,2.34,2.178-2.79.126-5.616.252-8.082.342a47.446,47.446,0,0,0,2.916-4.9l-1.476-.5a37.962,37.962,0,0,1-2.988,5.472c-.99.036-1.908.072-2.7.09l.09,1.332c3.294-.144,8.478-.324,13.374-.594a15.513,15.513,0,0,1,1.278,1.728l1.152-.882A24.258,24.258,0,0,0,503.24,681Zm12.636,1.728h-4.608V684.8h4.608v5.04c-1.926.738-3.852,1.494-5.166,1.908l.63,1.35c1.3-.54,2.916-1.224,4.536-1.926v4.032h1.35v-15.93h-1.35Zm6.642,10.17c-.774,0-.936-.18-.936-1.116V686.62a43.412,43.412,0,0,0,5.436-3.456l-.99-1.152a27.631,27.631,0,0,1-4.446,3.222v-5.94h-1.35v13.23c0,1.908.468,2.448,2.142,2.448h2.88c1.746,0,2.106-1.17,2.268-4.428a3.685,3.685,0,0,1-1.278-.63c-.126,2.97-.252,3.744-1.08,3.744Zm22.59-10.926v-1.314h-7.416v-2.556h-1.4v2.556h-7.272v1.314h7.29v2.43h-5.454v7.992h1.332V686.44h4.122v8.982h1.368V686.44h4.392v5.022c0,.234-.09.306-.4.342-.324,0-1.4,0-2.61-.036a6.038,6.038,0,0,1,.468,1.314,10.73,10.73,0,0,0,3.15-.234c.594-.216.774-.612.774-1.386v-6.3H536.63v-2.43Zm10.584,5.49v-4.77h5.166v4.77Zm-6.534,0v-4.77h5.148v4.77Zm6.534-6.084v-3.2h-1.386v3.2H546.8v8.514h1.314v-1.116h5.148v5.832h1.386v-5.832h5.166v1.026h1.368v-8.424Zm18.486,11.142v-5.616h5.616V686.35h-5.616v-4.788h6.3v-1.3H564.692v1.3h7.074V693.28h-3.96v-8.424h-1.35v8.424h-2.448v1.314h16.02V693.28Zm25,0H584.042V680.914h13.626v-1.206h-14.94v15.66h1.314V694.5h14.094Zm-5.238-8.136h-4.122v-2.07H592.9Zm1.314-3.024h-6.678v4h6.678Zm-7.506,6.174H589.1v2.664h-2.394Zm-1.116,3.636h4.68v-4.608h-4.68Zm9.54-.972h-2.5v-2.664h2.5Zm1.188-3.636h-4.842v4.608h4.842ZM607.28,682.3v3.366h-4.572V682.3Zm5.958,0v3.366h-4.644V682.3Zm-10.53,4.572h4.572v1.53c-.234-.126-.468-.27-.684-.378l-.954.756a11.468,11.468,0,0,1,3.294,2.646l1.008-.846a9.945,9.945,0,0,0-2.25-1.908h.9v-1.8h4.644v.7h1.332v-6.5h-5.976v-2.124H607.28v2.124h-5.85V687.7h1.278Zm-1.836,7.686a7.321,7.321,0,0,0,2.466-4.518l-1.17-.342a6.478,6.478,0,0,1-2.394,4.122Zm6.03-.612c-.954,0-1.116-.108-1.116-.594V689.59h-1.314v3.762c0,1.4.468,1.8,2.322,1.8h3.438c1.566,0,1.962-.576,2.142-2.9a3.459,3.459,0,0,1-1.206-.522c-.09,1.926-.216,2.214-1.026,2.214Zm4.95-3.8a13.792,13.792,0,0,1,3.186,4.32l1.224-.63a13.727,13.727,0,0,0-3.312-4.266Zm13.752-6.192v-1.89h3.906a24.115,24.115,0,0,1-2.322,1.89Zm8.424,1.188v-1.188h-4.86a27.451,27.451,0,0,0,3.8-3.708l-1.134-.63a20.674,20.674,0,0,1-1.926,2.07v-.774h-4.3v-1.98H624.29v1.98h-4.77v1.152h4.77v1.89h-6.3v1.188h7.47c-.9.576-1.836,1.1-2.79,1.6h-1.134v.558a37.953,37.953,0,0,1-3.87,1.584,6.006,6.006,0,0,1,.882,1.062,39.856,39.856,0,0,0,4.662-2.106h5.85a16.168,16.168,0,0,1-2.394,1.35h-.774v1.044h-6.444v1.17h6.444v2.466c0,.234-.09.306-.378.324-.324,0-1.44.018-2.61-.018a4.858,4.858,0,0,1,.486,1.188,12.357,12.357,0,0,0,3.042-.2c.594-.18.774-.54.774-1.26v-2.5h6.732v-1.17h-6.732v-.216a21.381,21.381,0,0,0,4.41-2.646l-.864-.7-.288.072h-5.292c.828-.5,1.656-1.044,2.43-1.6Zm5.076,2.034h4.176v1.746H639.1Zm0-2.7h4.176v1.71H639.1Zm9.954,0v1.71H644.63v-1.71Zm0,4.446H644.63v-1.746h4.428Zm1.35,1.044v-6.552H644.63V681.9h7.218v-1.26H644.63v-1.692h-1.35v1.692h-7.038v1.26h7.038v1.512h-5.472v6.552h4.356a17.371,17.371,0,0,1-6.372,4.014,5.5,5.5,0,0,1,.936,1.116,18.853,18.853,0,0,0,6.552-4.572v4.842h1.35v-4.9a19.073,19.073,0,0,0,6.7,4.662,4.458,4.458,0,0,1,.936-1.152,17.4,17.4,0,0,1-6.5-4.014Zm12.42-1.08a14.3,14.3,0,0,0,2.7-2.124,13.549,13.549,0,0,0,2.664,2.124Zm.432,4.626v-3.456h4.5v3.456Zm-2.646-5.742H658.4V685.18h2.07v-.54a7.387,7.387,0,0,1,.936.792,12.975,12.975,0,0,0,1.638-2.07,16.42,16.42,0,0,0,1.656,2.466,12.882,12.882,0,0,1-4.086,2.808Zm-4.77-6.912h3.384v3.15h-3.384Zm11.484,1.08a11.679,11.679,0,0,1-1.854,3.042,14.541,14.541,0,0,1-1.782-2.7l.18-.342Zm.81-1.224-.234.054H664.43c.2-.486.4-1.008.576-1.53l-1.278-.306a13.091,13.091,0,0,1-3.258,5.526v-4.77h-5.814v5.49h2.52v7.272l-1.386.324v-5.9h-1.134v6.138l-.918.2.252,1.3c1.89-.468,4.446-1.08,6.894-1.674l-.126-1.206c-.792.2-1.584.378-2.358.558V688.96h1.89a3.65,3.65,0,0,1,.648.9c.36-.162.72-.324,1.08-.522v6.012h1.242V694.7h4.5v.594h1.278v-5.94c.2.09.4.18.576.27a5.024,5.024,0,0,1,.828-1.1,12.043,12.043,0,0,1-4.1-2.646,13.689,13.689,0,0,0,2.628-4.788Zm5.454.81v1.422h12.834v-1.422Zm-1.512,10.6v1.458h15.858v-1.458Zm27.63-11.25h2.826v3.15c0,.99.108,1.3.36,1.512a1.491,1.491,0,0,0,.99.324h.918a1.779,1.779,0,0,0,.846-.18.94.94,0,0,0,.54-.594,11.182,11.182,0,0,0,.18-1.8,3.037,3.037,0,0,1-1.026-.5,13.041,13.041,0,0,1-.072,1.53.543.543,0,0,1-.2.4,1.051,1.051,0,0,1-.378.054h-.522a.457.457,0,0,1-.288-.072c-.09-.072-.108-.252-.108-.594v-4.41h-5.31v2.538a3.641,3.641,0,0,1-1.818,3.474,4.826,4.826,0,0,1,.9.918,4.792,4.792,0,0,0,2.16-4.356Zm-2.484,10.548-.072-1.242c-1.62.288-3.276.576-4.752.81v-2.736h4.284v-1.242H692.4v-2.2h4.14V683.6H692.4v-2.07a26.072,26.072,0,0,0,4.86-1.62l-1.152-.954a20.161,20.161,0,0,1-4.248,1.584l-.72-.252V691.21l-1.476.234.234,1.3,1.242-.216v2.826h1.26v-3.06Zm6.5-3.33a9.7,9.7,0,0,1-2.268,3.294,9.971,9.971,0,0,1-2.088-3.294Zm.864-1.278-.252.054h-6.894V688.1h1.62l-.882.234a12.171,12.171,0,0,0,2.286,3.87,12.674,12.674,0,0,1-4.41,2.034,4.736,4.736,0,0,1,.738,1.17,14.586,14.586,0,0,0,4.626-2.268,11.13,11.13,0,0,0,4.068,2.214,3.934,3.934,0,0,1,.882-1.152,10.648,10.648,0,0,1-3.942-1.944,11.543,11.543,0,0,0,3.006-5.094Zm11.236-2.275a2.951,2.951,0,0,1-.51,1.7,3.406,3.406,0,0,1-1.362,1.169,3.637,3.637,0,0,1,1.582,1.257,3.144,3.144,0,0,1,.589,1.872A3.337,3.337,0,0,1,715,693.191a4.919,4.919,0,0,1-5.906,0,3.38,3.38,0,0,1-1.108-2.645,3.273,3.273,0,0,1,.563-1.872,3.554,3.554,0,0,1,1.573-1.266,3.361,3.361,0,0,1-1.345-1.169,3.013,3.013,0,0,1-.492-1.7,3.307,3.307,0,0,1,1.037-2.566,4.395,4.395,0,0,1,5.458,0A3.29,3.29,0,0,1,715.824,684.543Zm-1.327,5.968a2.35,2.35,0,0,0-.685-1.749,2.429,2.429,0,0,0-4.2,1.749,2.28,2.28,0,0,0,.642,1.714,2.9,2.9,0,0,0,3.595,0A2.284,2.284,0,0,0,714.5,690.511Zm-2.443-8.148a2.1,2.1,0,0,0-1.556.6,2.173,2.173,0,0,0-.589,1.608,2.2,2.2,0,0,0,.58,1.582,2.1,2.1,0,0,0,1.565.6,2.064,2.064,0,0,0,1.555-.6,2.4,2.4,0,0,0-.017-3.172A2.065,2.065,0,0,0,712.054,682.363Zm6.864,5.221.65-6.381h6.557v1.5h-5.177l-.386,3.489a4.125,4.125,0,0,1,2.135-.553,3.524,3.524,0,0,1,2.778,1.16,4.513,4.513,0,0,1,1.028,3.12,4.377,4.377,0,0,1-1.072,3.12,3.886,3.886,0,0,1-2.98,1.134,4.042,4.042,0,0,1-2.768-.941,3.754,3.754,0,0,1-1.222-2.6H720a2.6,2.6,0,0,0,.782,1.661,2.446,2.446,0,0,0,1.67.554,2.182,2.182,0,0,0,1.776-.774,3.22,3.22,0,0,0,.65-2.136,2.937,2.937,0,0,0-.7-2.056,2.356,2.356,0,0,0-1.855-.782,2.686,2.686,0,0,0-1.67.465l-.43.352Zm13.8-4.114h-2.7v-2.736h2.7Zm1.242-3.852h-5.13v4.968h5.13Zm-3.546,9c.126-.522.252-1.062.36-1.584h3.96v-1.188h-6.732v1.188h1.548c-.252,1.242-.612,2.664-.9,3.636l1.188.216c.09-.324.2-.72.306-1.134H732.6c-.216,2.862-.45,4.014-.792,4.338a.631.631,0,0,1-.576.18c-.288,0-.972,0-1.728-.072a3.029,3.029,0,0,1,.342,1.152,13.229,13.229,0,0,0,1.872.018,1.448,1.448,0,0,0,1.1-.468c.486-.54.756-2,1.044-5.742.018-.162.036-.54.036-.54Zm6.03-5.022h6.714c-.108.72-.252,1.458-.36,1.98l1.008.252c.234-.81.522-2.106.738-3.186l-.846-.216-.2.054h-3.474v-1.206h3.618v-1.08h-3.618v-1.26h-1.278v3.546h-3.528v4.59c0,2.3-.162,5.418-1.71,7.668a3.636,3.636,0,0,1,1.008.738c1.656-2.394,1.926-5.922,1.926-8.406Zm1.44,5.508c-.126,2.628-.5,4.374-2.466,5.364a3.082,3.082,0,0,1,.774.972c2.214-1.206,2.718-3.276,2.862-6.336Zm2.682-1.764c-.486,0-.558-.072-.558-.432v-.828l2.268-.234-.126-.936-2.142.216V683.7h-1.206v1.548l-1.962.2.126.936,1.836-.18v.72c0,1.134.324,1.4,1.62,1.4h1.962c.972,0,1.3-.342,1.4-1.728a4.059,4.059,0,0,1-1.026-.4c-.036,1.008-.126,1.134-.54,1.134Zm1.638,6.552a.882.882,0,0,1-.414-.09.349.349,0,0,1-.126-.306V689.1H740.5v4.374c0,.81.072,1.08.378,1.332a1.714,1.714,0,0,0,1.062.288h1.008a2.37,2.37,0,0,0,.954-.18,1.21,1.21,0,0,0,.576-.684,11.654,11.654,0,0,0,.18-2.052,3.264,3.264,0,0,1-.99-.54,13.468,13.468,0,0,1-.072,1.782.549.549,0,0,1-.252.378,1.2,1.2,0,0,1-.5.09Z" transform="translate(6631 -388)" fill="#1c1c1c"/>
      <path id="Path_87" data-name="Path 87" d="M874.169,688.806a13.715,13.715,0,0,1,.527-3.815,11.173,11.173,0,0,1,1.591-3.322,6.744,6.744,0,0,1,2.189-2.109l.334,1.072a7.025,7.025,0,0,0-2.11,3.006,13.074,13.074,0,0,0-.9,4.526l-.009.747a13.1,13.1,0,0,0,1.239,5.889,7.034,7.034,0,0,0,1.776,2.338l-.334.993a6.96,6.96,0,0,1-2.233-2.18A12.214,12.214,0,0,1,874.169,688.806Zm14.071-.264a7.441,7.441,0,0,1-.975,4.245,4.057,4.057,0,0,1-6.082.035,7.076,7.076,0,0,1-1.02-4.06v-2.171a7.268,7.268,0,0,1,.976-4.193,4.122,4.122,0,0,1,6.1-.044,6.988,6.988,0,0,1,1,4.079Zm-1.626-2.224a5.929,5.929,0,0,0-.58-3.006,2,2,0,0,0-1.837-.949,1.97,1.97,0,0,0-1.819.941,5.819,5.819,0,0,0-.589,2.891v2.6a6.108,6.108,0,0,0,.6,3.067,2,2,0,0,0,1.828.985,1.955,1.955,0,0,0,1.784-.932,5.789,5.789,0,0,0,.615-2.936ZM898.708,694h-8.385v-1.169l4.43-4.922a10.4,10.4,0,0,0,1.353-1.81,3.03,3.03,0,0,0,.378-1.451,2.3,2.3,0,0,0-.606-1.643,2.119,2.119,0,0,0-1.617-.642,2.517,2.517,0,0,0-1.89.7,2.631,2.631,0,0,0-.668,1.916h-1.626a3.783,3.783,0,0,1,1.134-2.857,4.238,4.238,0,0,1,3.05-1.09,4.042,4.042,0,0,1,2.821.941,3.18,3.18,0,0,1,1.037,2.487q0,1.89-2.408,4.5l-3.428,3.718h6.425Zm5.643-5.106a13.52,13.52,0,0,1-.519,3.761,10.978,10.978,0,0,1-1.573,3.314,6.867,6.867,0,0,1-2.215,2.162l-.343-.993a7.039,7.039,0,0,0,2.171-3.217,13.908,13.908,0,0,0,.844-4.852v-.281a14.411,14.411,0,0,0-.387-3.428,11.468,11.468,0,0,0-1.081-2.847,6.5,6.5,0,0,0-1.547-1.96l.343-.993a6.82,6.82,0,0,1,2.206,2.144,10.981,10.981,0,0,1,1.573,3.314A13.784,13.784,0,0,1,904.351,688.894ZM915.073,694h-8.385v-1.169l4.43-4.922a10.416,10.416,0,0,0,1.354-1.81,3.03,3.03,0,0,0,.378-1.451,2.3,2.3,0,0,0-.607-1.643,2.119,2.119,0,0,0-1.617-.642,2.518,2.518,0,0,0-1.89.7,2.63,2.63,0,0,0-.668,1.916h-1.626a3.783,3.783,0,0,1,1.134-2.857,4.238,4.238,0,0,1,3.05-1.09,4.042,4.042,0,0,1,2.821.941,3.177,3.177,0,0,1,1.037,2.487q0,1.89-2.408,4.5l-3.428,3.718h6.425Zm4.087-7.189h1.222a2.683,2.683,0,0,0,1.81-.607,2.024,2.024,0,0,0,.66-1.591,1.985,1.985,0,0,0-2.242-2.25,2.334,2.334,0,0,0-1.687.607,2.1,2.1,0,0,0-.624,1.591h-1.626a3.258,3.258,0,0,1,1.107-2.523,4.056,4.056,0,0,1,2.83-1.011,4,4,0,0,1,2.839.958,3.461,3.461,0,0,1,1.029,2.663,2.8,2.8,0,0,1-.545,1.618,3.245,3.245,0,0,1-1.468,1.169,3.115,3.115,0,0,1,1.626,1.107,3.06,3.06,0,0,1,.58,1.89,3.491,3.491,0,0,1-1.125,2.733,4.213,4.213,0,0,1-2.927,1.011,4.336,4.336,0,0,1-2.935-.976,3.242,3.242,0,0,1-1.125-2.575h1.634a2.089,2.089,0,0,0,.66,1.617,2.507,2.507,0,0,0,1.766.607,2.458,2.458,0,0,0,1.8-.616,2.37,2.37,0,0,0,.624-1.766,2.152,2.152,0,0,0-.686-1.714,2.979,2.979,0,0,0-1.977-.615H919.16ZM935.288,694H926.9v-1.169l4.43-4.922a10.471,10.471,0,0,0,1.354-1.81,3.04,3.04,0,0,0,.377-1.451,2.3,2.3,0,0,0-.606-1.643,2.119,2.119,0,0,0-1.617-.642,2.517,2.517,0,0,0-1.89.7,2.63,2.63,0,0,0-.668,1.916h-1.626a3.783,3.783,0,0,1,1.134-2.857,4.237,4.237,0,0,1,3.05-1.09,4.042,4.042,0,0,1,2.821.941,3.177,3.177,0,0,1,1.037,2.487q0,1.89-2.408,4.5l-3.428,3.718h6.425Zm9.984-11.883L939.973,694h-1.705l5.282-11.461h-6.926V681.2h8.648Zm5.4,7.111H946.38V687.9h4.289Zm9.185-4.685a2.951,2.951,0,0,1-.51,1.7,3.4,3.4,0,0,1-1.363,1.169,3.631,3.631,0,0,1,1.582,1.257,3.144,3.144,0,0,1,.589,1.872,3.337,3.337,0,0,1-1.125,2.645,4.919,4.919,0,0,1-5.906,0,3.38,3.38,0,0,1-1.107-2.645,3.272,3.272,0,0,1,.562-1.872,3.554,3.554,0,0,1,1.573-1.266,3.352,3.352,0,0,1-1.344-1.169,3.014,3.014,0,0,1-.493-1.7,3.3,3.3,0,0,1,1.038-2.566,4.395,4.395,0,0,1,5.458,0A3.293,3.293,0,0,1,959.854,684.543Zm-1.328,5.968a2.35,2.35,0,0,0-.685-1.749,2.428,2.428,0,0,0-4.2,1.749,2.284,2.284,0,0,0,.641,1.714,2.9,2.9,0,0,0,3.595,0A2.281,2.281,0,0,0,958.526,690.511Zm-2.443-8.148a2.1,2.1,0,0,0-1.556.6,2.467,2.467,0,0,0-.008,3.19,2.094,2.094,0,0,0,1.564.6,2.068,2.068,0,0,0,1.556-.6,2.4,2.4,0,0,0-.018-3.172A2.065,2.065,0,0,0,956.083,682.363Zm13.878,2.18a2.951,2.951,0,0,1-.51,1.7,3.4,3.4,0,0,1-1.362,1.169,3.637,3.637,0,0,1,1.582,1.257,3.151,3.151,0,0,1,.589,1.872,3.337,3.337,0,0,1-1.125,2.645,4.919,4.919,0,0,1-5.906,0,3.377,3.377,0,0,1-1.108-2.645,3.273,3.273,0,0,1,.563-1.872,3.548,3.548,0,0,1,1.573-1.266,3.348,3.348,0,0,1-1.345-1.169,3.013,3.013,0,0,1-.492-1.7,3.307,3.307,0,0,1,1.037-2.566,4.395,4.395,0,0,1,5.458,0A3.293,3.293,0,0,1,969.961,684.543Zm-1.327,5.968a2.35,2.35,0,0,0-.686-1.749,2.428,2.428,0,0,0-4.2,1.749,2.28,2.28,0,0,0,.642,1.714,2.9,2.9,0,0,0,3.594,0A2.281,2.281,0,0,0,968.634,690.511Zm-2.444-8.148a2.1,2.1,0,0,0-1.555.6,2.469,2.469,0,0,0-.009,3.19,2.1,2.1,0,0,0,1.564.6,2.066,2.066,0,0,0,1.556-.6,2.4,2.4,0,0,0-.017-3.172A2.068,2.068,0,0,0,966.19,682.363ZM977.651,694h-1.634V683.163l-3.279,1.2v-1.476l4.658-1.749h.255Zm7.128-7.189H986a2.686,2.686,0,0,0,1.811-.607,2.027,2.027,0,0,0,.659-1.591,1.985,1.985,0,0,0-2.242-2.25,2.334,2.334,0,0,0-1.687.607,2.1,2.1,0,0,0-.624,1.591h-1.626a3.258,3.258,0,0,1,1.107-2.523,4.057,4.057,0,0,1,2.83-1.011,4,4,0,0,1,2.839.958,3.461,3.461,0,0,1,1.029,2.663,2.8,2.8,0,0,1-.545,1.618,3.245,3.245,0,0,1-1.468,1.169,3.116,3.116,0,0,1,1.626,1.107,3.06,3.06,0,0,1,.58,1.89,3.491,3.491,0,0,1-1.125,2.733,4.213,4.213,0,0,1-2.927,1.011,4.338,4.338,0,0,1-2.935-.976,3.242,3.242,0,0,1-1.125-2.575h1.634a2.089,2.089,0,0,0,.66,1.617,2.507,2.507,0,0,0,1.766.607,2.458,2.458,0,0,0,1.8-.616,2.37,2.37,0,0,0,.624-1.766,2.151,2.151,0,0,0-.685-1.714,2.984,2.984,0,0,0-1.978-.615h-1.222Z" transform="translate(6631 -388)" fill="#1c1c1c"/>
      <line id="Line_73" data-name="Line 73" y2="195" transform="translate(7487.5 129)" fill="none" stroke="#d9d9d9" stroke-width="1"/>
      <path id="Path_88" data-name="Path 88" d="M286.088,587.542a7.432,7.432,0,0,1-.976,4.245,4.057,4.057,0,0,1-6.082.035,7.077,7.077,0,0,1-1.019-4.06v-2.171a7.276,7.276,0,0,1,.975-4.193,4.123,4.123,0,0,1,6.1-.044,7,7,0,0,1,1,4.079Zm-1.626-2.224a5.929,5.929,0,0,0-.58-3.006,2,2,0,0,0-1.837-.949,1.969,1.969,0,0,0-1.819.941,5.807,5.807,0,0,0-.589,2.891v2.6a6.12,6.12,0,0,0,.6,3.067,2.005,2.005,0,0,0,1.828.985,1.957,1.957,0,0,0,1.785-.932,5.809,5.809,0,0,0,.615-2.936Zm4.456,1.266.65-6.381h6.557v1.5h-5.177l-.386,3.489a4.125,4.125,0,0,1,2.135-.553,3.524,3.524,0,0,1,2.778,1.16,4.513,4.513,0,0,1,1.028,3.12,4.377,4.377,0,0,1-1.072,3.12,3.886,3.886,0,0,1-2.98,1.134,4.042,4.042,0,0,1-2.768-.941,3.754,3.754,0,0,1-1.222-2.6H290a2.6,2.6,0,0,0,.782,1.661,2.446,2.446,0,0,0,1.67.554,2.182,2.182,0,0,0,1.776-.774,3.22,3.22,0,0,0,.65-2.136,2.937,2.937,0,0,0-.7-2.056,2.356,2.356,0,0,0-1.855-.782,2.686,2.686,0,0,0-1.67.465l-.43.352Zm11.725-.773h1.221a2.686,2.686,0,0,0,1.811-.607,2.027,2.027,0,0,0,.659-1.591,1.985,1.985,0,0,0-2.241-2.25,2.336,2.336,0,0,0-1.688.607,2.1,2.1,0,0,0-.624,1.591h-1.626a3.255,3.255,0,0,1,1.108-2.523,4.054,4.054,0,0,1,2.83-1.011,4.007,4.007,0,0,1,2.839.958,3.464,3.464,0,0,1,1.028,2.663,2.8,2.8,0,0,1-.545,1.618,3.239,3.239,0,0,1-1.468,1.169,3.116,3.116,0,0,1,1.626,1.107,3.06,3.06,0,0,1,.58,1.89,3.491,3.491,0,0,1-1.125,2.733,4.211,4.211,0,0,1-2.926,1.011,4.338,4.338,0,0,1-2.936-.976,3.242,3.242,0,0,1-1.125-2.575h1.635a2.092,2.092,0,0,0,.659,1.617,2.508,2.508,0,0,0,1.767.607,2.455,2.455,0,0,0,1.8-.616,2.37,2.37,0,0,0,.624-1.766,2.151,2.151,0,0,0-.685-1.714,2.98,2.98,0,0,0-1.978-.615h-1.221ZM316.771,593h-8.385v-1.169l4.429-4.922a10.367,10.367,0,0,0,1.354-1.81,3.03,3.03,0,0,0,.378-1.451,2.292,2.292,0,0,0-.607-1.643,2.119,2.119,0,0,0-1.617-.642,2.516,2.516,0,0,0-1.889.7,2.626,2.626,0,0,0-.668,1.916H308.14a3.786,3.786,0,0,1,1.133-2.857,4.239,4.239,0,0,1,3.05-1.09,4.044,4.044,0,0,1,2.822.941,3.18,3.18,0,0,1,1.037,2.487q0,1.89-2.409,4.5l-3.427,3.718h6.425Zm11.028-4.194-1.746.648v-5.9h1.71v-1.242h-1.71V578.15h-1.242v4.158h-1.872v1.242h1.872V589.9c-.792.288-1.512.54-2.106.738l.432,1.314c1.4-.558,3.2-1.242,4.914-1.962Zm9.63-4.878a18.327,18.327,0,0,1-1.638,4.482,57.713,57.713,0,0,1-.576-6.48h3.762v-1.242h-1.314l.9-.612a10.578,10.578,0,0,0-2.142-2.016l-.9.576a13.142,13.142,0,0,1,2.07,2.052h-2.412c-.018-.882-.018-1.818-.018-2.754h-1.278q0,1.4.054,2.754h-5.418v5.562c0,2.322-.18,5.274-1.98,7.344a4.478,4.478,0,0,1,.99.846c1.926-2.232,2.232-5.652,2.232-8.172v-.792h2.268c-.054,3.222-.126,4.374-.324,4.644-.072.162-.216.18-.432.18-.234,0-.792,0-1.4-.054a3.032,3.032,0,0,1,.306,1.134,11.917,11.917,0,0,0,1.62,0,1.135,1.135,0,0,0,.918-.5c.342-.45.414-1.89.468-5.994.018-.162.018-.54.018-.54h-3.438V581.93h4.212a49.142,49.142,0,0,0,.864,8.064,12.038,12.038,0,0,1-3.546,3.4,5.027,5.027,0,0,1,.936.918,13.176,13.176,0,0,0,3.006-2.826c.558,1.692,1.314,2.7,2.322,2.7,1.17,0,1.548-.828,1.746-3.528a2.8,2.8,0,0,1-.99-.684c-.072,2.07-.252,2.952-.594,2.952-.612,0-1.134-1.008-1.566-2.736a20.432,20.432,0,0,0,2.52-6.066Zm12.114,3.294v-4.77h5.166v4.77Zm-6.534,0v-4.77h5.148v4.77Zm6.534-6.084v-3.2h-1.386v3.2H341.7v8.514h1.314v-1.116h5.148v5.832h1.386v-5.832h5.166v1.026h1.368v-8.424Zm14.22-2.826a15.289,15.289,0,0,1-5.382,6.768,7.78,7.78,0,0,1,1.134,1.026,18.546,18.546,0,0,0,5.652-7.4ZM361.3,584.7V586h3.672c-.414,3.042-1.4,5.886-5.634,7.29a5.307,5.307,0,0,1,.864,1.17c4.572-1.656,5.724-4.914,6.192-8.46h4.644c-.216,4.536-.468,6.336-.936,6.786-.162.2-.378.234-.756.234-.414,0-1.53-.018-2.7-.126a3.254,3.254,0,0,1,.45,1.332,25.778,25.778,0,0,0,2.826.036,1.805,1.805,0,0,0,1.386-.63c.612-.684.882-2.754,1.134-8.28.018-.18.036-.648.036-.648Zm7.416-5.922a23.805,23.805,0,0,0,5.58,7.164,6.885,6.885,0,0,1,1.1-1.188,19.046,19.046,0,0,1-5.418-6.48Zm23.8.252h-8.784v1.26h8.784Zm-11.79-1.1a17.877,17.877,0,0,1-4.122,3.906,11.618,11.618,0,0,1,.792,1.062A22.112,22.112,0,0,0,382,578.438Zm.738,3.834a19.621,19.621,0,0,1-5.04,5.418,12.819,12.819,0,0,1,.936,1.116,21.166,21.166,0,0,0,2.034-1.872v7.992h1.332v-9.468a22.637,22.637,0,0,0,1.98-2.718Zm11.574,2.178h-10.08v1.278h6.012v7.416c0,.306-.108.378-.45.4s-1.53.018-2.808-.018a4.769,4.769,0,0,1,.432,1.3,13.6,13.6,0,0,0,3.384-.2c.594-.216.792-.63.792-1.458v-7.434h2.718Z" transform="translate(6631 -388)" fill="#1c1c1c"/>
      <circle id="Ellipse_1" data-name="Ellipse 1" cx="11.5" cy="11.5" r="11.5" transform="translate(6868.5 186.5)" fill="#fff" stroke="#1c1c1c" stroke-width="1"/>
      <circle id="Ellipse_2" data-name="Ellipse 2" cx="11.5" cy="11.5" r="11.5" transform="translate(6868.5 237.5)" fill="#fff" stroke="#1c1c1c" stroke-width="1"/>
      <circle id="Ellipse_3" data-name="Ellipse 3" cx="11.5" cy="11.5" r="11.5" transform="translate(6868.5 286.5)" fill="#fff" stroke="#1c1c1c" stroke-width="1"/>
      <circle id="Ellipse_4" data-name="Ellipse 4" cx="12" cy="12" r="12" transform="translate(6868 186)" fill="#00a19b"/>
      <circle id="Ellipse_5" data-name="Ellipse 5" cx="4" cy="4" r="4" transform="translate(6876 194)" fill="#fff"/>
    </g>
  </g>
</svg>
