<svg width="92" height="72" viewBox="0 0 92 72" fill="none" xmlns="http://www.w3.org/2000/svg">
<path d="M1.584 48.616H14.384V50.104H1.584V48.616ZM2.368 53.304H13.68V54.76H2.368V53.304ZM0.864 58.344H15.2V59.816H0.864V58.344ZM7.168 49.848H8.832V59.112H7.168V49.848ZM5.776 46.376L7.024 45.512C7.36533 45.7467 7.728 46.0133 8.112 46.312C8.496 46.6107 8.85867 46.9093 9.2 47.208C9.552 47.5067 9.83467 47.784 10.048 48.04L8.704 49C8.512 48.7547 8.25067 48.4773 7.92 48.168C7.6 47.848 7.248 47.5333 6.864 47.224C6.49067 46.904 6.128 46.6213 5.776 46.376ZM18.912 49.208V50.232H21.68V49.208H18.912ZM18.912 47.192V48.2H21.68V47.192H18.912ZM17.568 46.152H23.088V51.288H17.568V46.152ZM16.72 52.36H23.936V53.496H16.72V52.36ZM23.84 46.232H31.184V47.336H23.84V46.232ZM19.808 52.712H21.104V58.952L19.808 58.2V52.712ZM20.48 55.032H23.648V56.168H20.48V55.032ZM26.976 46.504L28.368 46.792C28.1973 47.208 28.0267 47.6347 27.856 48.072C27.6853 48.5093 27.52 48.8827 27.36 49.192L26.256 48.904C26.3947 48.5627 26.528 48.168 26.656 47.72C26.7947 47.2613 26.9013 46.856 26.976 46.504ZM25.776 51.48V52.472H29.2V51.48H25.776ZM25.776 53.496V54.504H29.2V53.496H25.776ZM25.776 49.464V50.456H29.2V49.464H25.776ZM24.416 48.392H30.608V55.576H24.416V48.392ZM25.728 55.784L26.992 56.168C26.64 56.616 26.2027 57.0533 25.68 57.48C25.1573 57.9067 24.6453 58.2587 24.144 58.536C24.08 58.4507 23.984 58.3493 23.856 58.232C23.7387 58.1147 23.616 58.0027 23.488 57.896C23.3707 57.7787 23.2587 57.688 23.152 57.624C23.6427 57.4 24.1227 57.128 24.592 56.808C25.0613 56.4773 25.44 56.136 25.728 55.784ZM17.648 54.264H18.896C18.8747 55.064 18.816 55.8427 18.72 56.6C18.624 57.3573 18.4693 58.0667 18.256 58.728C18.0427 59.3787 17.744 59.9387 17.36 60.408C17.264 60.2587 17.1253 60.0827 16.944 59.88C16.7627 59.6773 16.592 59.5173 16.432 59.4C16.752 59.0267 16.9973 58.5627 17.168 58.008C17.3387 57.4533 17.456 56.856 17.52 56.216C17.584 55.5653 17.6267 54.9147 17.648 54.264ZM18.64 55.736C18.896 56.4187 19.232 56.9627 19.648 57.368C20.064 57.7733 20.5547 58.0827 21.12 58.296C21.6853 58.4987 22.3253 58.632 23.04 58.696C23.7547 58.76 24.544 58.792 25.408 58.792C25.5787 58.792 25.8613 58.792 26.256 58.792C26.6613 58.792 27.1147 58.792 27.616 58.792C28.128 58.7813 28.6453 58.776 29.168 58.776C29.6907 58.776 30.16 58.776 30.576 58.776C31.0027 58.7653 31.328 58.7547 31.552 58.744C31.4453 58.8933 31.3387 59.0907 31.232 59.336C31.136 59.592 31.072 59.816 31.04 60.008H29.872H25.408C24.4053 60.008 23.4987 59.96 22.688 59.864C21.8773 59.7787 21.1573 59.5973 20.528 59.32C19.8987 59.0533 19.3493 58.6587 18.88 58.136C18.4213 57.6027 18.0373 56.904 17.728 56.04L18.64 55.736ZM27.968 56.296L29.008 55.72C29.3173 55.912 29.6267 56.1307 29.936 56.376C30.2453 56.6213 30.5333 56.8667 30.8 57.112C31.0667 57.3467 31.2853 57.5653 31.456 57.768L30.368 58.44C30.1973 58.2267 29.9787 57.992 29.712 57.736C29.4453 57.48 29.1573 57.224 28.848 56.968C28.5493 56.712 28.256 56.488 27.968 56.296ZM32.976 48.184H47.072V49.64H32.976V48.184ZM38.112 51.944H44.384V53.416H38.112V51.944ZM43.984 51.944H45.568C45.568 51.944 45.5627 51.9867 45.552 52.072C45.552 52.1573 45.5467 52.2533 45.536 52.36C45.536 52.4667 45.5307 52.5573 45.52 52.632C45.4133 54.1147 45.3013 55.3253 45.184 56.264C45.0667 57.192 44.9333 57.912 44.784 58.424C44.6347 58.9253 44.4533 59.288 44.24 59.512C44.0267 59.7467 43.7973 59.9067 43.552 59.992C43.3173 60.0773 43.0347 60.136 42.704 60.168C42.4053 60.1893 42.0107 60.1947 41.52 60.184C41.0293 60.184 40.512 60.168 39.968 60.136C39.9573 59.912 39.904 59.656 39.808 59.368C39.712 59.0907 39.584 58.856 39.424 58.664C39.9893 58.7067 40.5227 58.7333 41.024 58.744C41.536 58.7547 41.9093 58.76 42.144 58.76C42.3147 58.76 42.4587 58.7493 42.576 58.728C42.6933 58.7067 42.8053 58.6533 42.912 58.568C43.072 58.4187 43.216 58.1093 43.344 57.64C43.4827 57.16 43.6 56.4773 43.696 55.592C43.8027 54.7067 43.8987 53.5707 43.984 52.184V51.944ZM37.232 49.08H38.912C38.8693 49.9227 38.8053 50.776 38.72 51.64C38.6347 52.4933 38.496 53.336 38.304 54.168C38.112 55 37.8347 55.8 37.472 56.568C37.1093 57.3253 36.624 58.0293 36.016 58.68C35.4187 59.3307 34.672 59.9013 33.776 60.392C33.6587 60.2 33.4933 59.9867 33.28 59.752C33.0667 59.5173 32.8587 59.3253 32.656 59.176C33.4987 58.7387 34.192 58.232 34.736 57.656C35.2907 57.0693 35.728 56.4347 36.048 55.752C36.368 55.0693 36.608 54.3547 36.768 53.608C36.928 52.8613 37.0347 52.1093 37.088 51.352C37.152 50.584 37.2 49.8267 37.232 49.08ZM38.88 45.912L40.352 45.336C40.5653 45.7093 40.784 46.1147 41.008 46.552C41.232 46.9893 41.4027 47.368 41.52 47.688L39.968 48.36C39.872 48.0293 39.7173 47.6347 39.504 47.176C39.2907 46.7173 39.0827 46.296 38.88 45.912ZM55.2 54.056H56.72V60.328H55.2V54.056ZM49.216 46.632H62.848V49.016H61.376V47.896H50.624V49.016H49.216V46.632ZM48.96 49.544H63.088V50.76H48.96V49.544ZM48.784 55.288H63.248V56.552H48.784V55.288ZM59.184 48.488L60.672 48.808C60.3307 49.8533 59.856 50.728 59.248 51.432C58.6507 52.1253 57.8987 52.6853 56.992 53.112C56.096 53.5387 55.0187 53.864 53.76 54.088C52.512 54.312 51.0667 54.472 49.424 54.568C49.36 54.344 49.28 54.12 49.184 53.896C49.0987 53.6613 49.0027 53.464 48.896 53.304C50.4427 53.2507 51.7973 53.1333 52.96 52.952C54.1227 52.7707 55.1147 52.504 55.936 52.152C56.768 51.7893 57.4453 51.3093 57.968 50.712C58.5013 50.1147 58.9067 49.3733 59.184 48.488ZM50.912 52.216L52.112 51.288C53.1253 51.4373 54.1387 51.608 55.152 51.8C56.176 51.992 57.1627 52.1947 58.112 52.408C59.0613 52.6213 59.9467 52.8453 60.768 53.08C61.6 53.304 62.336 53.5227 62.976 53.736L61.52 54.712C60.7413 54.424 59.7973 54.1307 58.688 53.832C57.5893 53.5333 56.3733 53.2453 55.04 52.968C53.7173 52.6907 52.3413 52.44 50.912 52.216ZM54.72 45.816L56.288 45.464C56.4587 45.7093 56.6293 45.9867 56.8 46.296C56.9813 46.5947 57.1253 46.8507 57.232 47.064L55.584 47.496C55.4987 47.272 55.3707 47 55.2 46.68C55.0293 46.36 54.8693 46.072 54.72 45.816ZM50.912 52.216C51.328 51.8427 51.7653 51.416 52.224 50.936C52.6827 50.4453 53.1253 49.9387 53.552 49.416C53.9787 48.8827 54.3413 48.3813 54.64 47.912L56.096 48.36C55.7653 48.8187 55.3867 49.288 54.96 49.768C54.544 50.248 54.1173 50.7013 53.68 51.128C53.2533 51.544 52.8533 51.9067 52.48 52.216H50.912ZM52.592 56.744L54.112 57.24C53.792 57.6027 53.408 57.9547 52.96 58.296C52.5227 58.6267 52.0587 58.9307 51.568 59.208C51.088 59.496 50.6187 59.7413 50.16 59.944C50.0533 59.848 49.9253 59.736 49.776 59.608C49.6267 59.48 49.472 59.352 49.312 59.224C49.152 59.1067 49.0133 59.0107 48.896 58.936C49.6 58.68 50.288 58.3653 50.96 57.992C51.6427 57.608 52.1867 57.192 52.592 56.744ZM57.76 57.496L58.816 56.536C59.296 56.7493 59.7973 57 60.32 57.288C60.8533 57.576 61.36 57.8693 61.84 58.168C62.3307 58.4667 62.7307 58.744 63.04 59L61.888 60.072C61.6 59.816 61.2213 59.5333 60.752 59.224C60.2827 58.9147 59.7867 58.6053 59.264 58.296C58.7413 57.9867 58.24 57.72 57.76 57.496Z" fill="black"/>
<path d="M68 28.7485L64 28.7485" stroke="#C92E34"/>
<path d="M64 30.4959L64 27" stroke="#C92E34"/>
<path d="M68 30.4959L68 27" stroke="#C92E34"/>
<path d="M68 30.4959L68 27" stroke="#C92E34"/>
<path d="M68 71.1377L68 30.1377" stroke="#C92E34" stroke-dasharray="1 1"/>
<path d="M64 71.1377L64 30.1377" stroke="#C92E34" stroke-dasharray="1 1"/>
<path d="M63.728 12.732H62.272V15H61.082V12.732H56.294V11.682L60.998 4.948H62.272V11.626H63.728V12.732ZM61.082 8.476C61.082 8.23333 61.082 8.014 61.082 7.818C61.0913 7.61267 61.1007 7.42133 61.11 7.244C61.1193 7.06667 61.124 6.89867 61.124 6.74C61.1333 6.572 61.1427 6.41333 61.152 6.264H61.096C61.0213 6.44133 60.928 6.63267 60.816 6.838C60.704 7.04333 60.5967 7.216 60.494 7.356L57.498 11.626H61.082V8.476ZM68.7717 7.356C69.6957 7.356 70.4377 7.678 70.9977 8.322C71.5671 8.966 71.8517 9.93667 71.8517 11.234C71.8517 12.0833 71.7211 12.802 71.4597 13.39C71.2077 13.9687 70.8484 14.4073 70.3817 14.706C69.9244 14.9953 69.3831 15.14 68.7577 15.14C68.3751 15.14 68.0344 15.0887 67.7357 14.986C67.4371 14.8833 67.1804 14.7527 66.9657 14.594C66.7604 14.426 66.5831 14.244 66.4337 14.048H66.3497C66.3684 14.2067 66.3871 14.4073 66.4057 14.65C66.4244 14.8927 66.4337 15.1027 66.4337 15.28V18.36H65.2017V7.496H66.2097L66.3777 8.518H66.4337C66.5831 8.30333 66.7604 8.10733 66.9657 7.93C67.1804 7.75267 67.4324 7.61267 67.7217 7.51C68.0204 7.40733 68.3704 7.356 68.7717 7.356ZM68.5477 8.392C68.0437 8.392 67.6377 8.49 67.3297 8.686C67.0217 8.87267 66.7977 9.15733 66.6577 9.54C66.5177 9.92267 66.4431 10.408 66.4337 10.996V11.234C66.4337 11.85 66.4991 12.3727 66.6297 12.802C66.7604 13.2313 66.9797 13.558 67.2877 13.782C67.6051 14.006 68.0344 14.118 68.5757 14.118C69.0331 14.118 69.4064 13.992 69.6957 13.74C69.9944 13.488 70.2137 13.1473 70.3537 12.718C70.5031 12.2793 70.5777 11.78 70.5777 11.22C70.5777 10.3613 70.4097 9.67533 70.0737 9.162C69.7471 8.64867 69.2384 8.392 68.5477 8.392ZM75.3196 11.164L72.7296 7.496H74.1296L76.0616 10.324L77.9796 7.496H79.3656L76.7756 11.164L79.5056 15H78.1056L76.0616 12.004L73.9896 15H72.6036L75.3196 11.164Z" fill="#C92E34"/>
<path fill-rule="evenodd" clip-rule="evenodd" d="M80 63.4C74.2562 63.4 69.6 58.7437 69.6 53C69.6 47.2562 74.2562 42.6 80 42.6C85.7438 42.6 90.4 47.2562 90.4 53C90.4 58.7437 85.7438 63.4 80 63.4ZM80 62.2654C85.1172 62.2654 89.2654 58.1172 89.2654 53C89.2654 47.8828 85.1172 43.7345 80 43.7345C74.8828 43.7345 70.7345 47.8828 70.7345 53C70.7345 58.1172 74.8828 62.2654 80 62.2654ZM80.843 46.9428C80.605 46.7008 80.3273 46.6 79.9901 46.6C79.6529 46.6 79.3752 46.7008 79.1372 46.9428C78.8992 47.1445 78.8 47.4269 78.8 47.7899C78.8 48.1328 78.8992 48.4151 79.1372 48.6571C79.3752 48.879 79.6529 49 79.9901 49C80.3273 49 80.605 48.879 80.843 48.6571C81.081 48.4151 81.2 48.1328 81.2 47.7899C81.2 47.4269 81.081 47.1445 80.843 46.9428ZM80.8 59.4V50.6H79.2V59.4H80.8Z" fill="#ACACAC"/>
<mask id="mask0_2636_1103" style="mask-type:luminance" maskUnits="userSpaceOnUse" x="69" y="42" width="22" height="22">
<path fill-rule="evenodd" clip-rule="evenodd" d="M80 63.4C74.2562 63.4 69.6 58.7437 69.6 53C69.6 47.2562 74.2562 42.6 80 42.6C85.7438 42.6 90.4 47.2562 90.4 53C90.4 58.7437 85.7438 63.4 80 63.4ZM80 62.2654C85.1172 62.2654 89.2654 58.1172 89.2654 53C89.2654 47.8828 85.1172 43.7345 80 43.7345C74.8828 43.7345 70.7345 47.8828 70.7345 53C70.7345 58.1172 74.8828 62.2654 80 62.2654ZM80.843 46.9428C80.605 46.7008 80.3273 46.6 79.9901 46.6C79.6529 46.6 79.3752 46.7008 79.1372 46.9428C78.8992 47.1445 78.8 47.4269 78.8 47.7899C78.8 48.1328 78.8992 48.4151 79.1372 48.6571C79.3752 48.879 79.6529 49 79.9901 49C80.3273 49 80.605 48.879 80.843 48.6571C81.081 48.4151 81.2 48.1328 81.2 47.7899C81.2 47.4269 81.081 47.1445 80.843 46.9428ZM80.8 59.4V50.6H79.2V59.4H80.8Z" fill="white"/>
</mask>
<g mask="url(#mask0_2636_1103)">
<path d="M92 41H68V65H92V41Z" fill="#ACACAC"/>
</g>
</svg>
