<svg width="95" height="68" viewBox="0 0 95 68" fill="none" xmlns="http://www.w3.org/2000/svg">
<rect width="95" height="68" rx="6" fill="#FF9900"/>
<path d="M15.8516 21.6953C15.612 21.513 15.2656 21.4219 14.8125 21.4219C14.2031 21.4219 13.7005 21.7135 13.3047 22.2969C12.9141 22.875 12.7188 23.6354 12.7188 24.5781V29H11.4141V20.3594H12.7188V22.1484H12.7578C12.9557 21.5339 13.2578 21.0573 13.6641 20.7188C14.0703 20.3802 14.5182 20.2109 15.0078 20.2109C15.3776 20.2109 15.6589 20.25 15.8516 20.3281V21.6953ZM24.2578 25H18.1328C18.1589 25.9948 18.4219 26.7578 18.9219 27.2891C19.4219 27.8203 20.1068 28.0859 20.9766 28.0859C21.9505 28.0859 22.849 27.7604 23.6719 27.1094V28.3594C22.9167 28.9219 21.9167 29.2031 20.6719 29.2031C19.4688 29.2031 18.5182 28.8099 17.8203 28.0234C17.1276 27.237 16.7812 26.1302 16.7812 24.7031C16.7812 23.3906 17.1562 22.3047 17.9062 21.4453C18.6615 20.5859 19.6042 20.1562 20.7344 20.1562C21.8438 20.1562 22.7083 20.5208 23.3281 21.25C23.9479 21.9792 24.2578 22.9948 24.2578 24.2969V25ZM22.9141 23.8516C22.9089 23.0391 22.7135 22.4089 22.3281 21.9609C21.9427 21.5078 21.4036 21.2812 20.7109 21.2812C20.0807 21.2812 19.526 21.5078 19.0469 21.9609C18.5729 22.4141 18.2734 23.0443 18.1484 23.8516H22.9141ZM33.6875 29H32.3906V27.5156H32.3594C31.7188 28.6406 30.724 29.2031 29.375 29.2031C28.2812 29.2031 27.4115 28.8151 26.7656 28.0391C26.1198 27.2578 25.7969 26.2057 25.7969 24.8828C25.7969 23.4661 26.1589 22.3255 26.8828 21.4609C27.6068 20.5911 28.5625 20.1562 29.75 20.1562C30.9375 20.1562 31.8073 20.6276 32.3594 21.5703H32.3906V16.2109H33.6875V29ZM32.3906 23.7969C32.3906 23.0885 32.1484 22.4896 31.6641 22C31.1849 21.5104 30.5964 21.2656 29.8984 21.2656C29.0339 21.2656 28.3542 21.5859 27.8594 22.2266C27.3698 22.862 27.125 23.724 27.125 24.8125C27.125 25.8073 27.3594 26.6042 27.8281 27.2031C28.3021 27.7969 28.9375 28.0938 29.7344 28.0938C30.5 28.0938 31.1328 27.8151 31.6328 27.2578C32.138 26.6953 32.3906 25.9792 32.3906 25.1094V23.7969ZM40.9297 24.6953H36.3281V23.6562H40.9297V24.6953ZM43.3984 27.2891C44.2214 27.8255 45.0599 28.0938 45.9141 28.0938C46.7682 28.0938 47.4635 27.849 48 27.3594C48.5365 26.8646 48.8047 26.2109 48.8047 25.3984C48.8047 24.5807 48.5365 23.9479 48 23.5C47.4635 23.0521 46.6901 22.8281 45.6797 22.8281C45.362 22.8281 44.7292 22.8594 43.7812 22.9219V16.8984H49.5781V18.0859H45.0234V21.7109C45.4766 21.6849 45.8203 21.6719 46.0547 21.6719C47.3255 21.6719 48.3203 21.9922 49.0391 22.6328C49.763 23.2682 50.125 24.1641 50.125 25.3203C50.125 26.5234 49.7344 27.4714 48.9531 28.1641C48.1719 28.8568 47.1458 29.2031 45.875 29.2031C44.7604 29.2031 43.9349 29.0365 43.3984 28.7031V27.2891ZM19.8281 44.3125L19.6406 45.1641H17.4062L16.8672 47.7266H19.2812L19.0625 48.5781H16.7031L15.9531 51.9531H14.9297L15.6641 48.5781H13.5469L12.8281 51.9531H11.8125L12.5312 48.5781H10.2812L10.4297 47.7266H12.7109L13.2266 45.1641H10.8516L11.0234 44.3125H13.3984L14.1172 40.8906H15.1328L14.4219 44.3125H16.5547L17.2891 40.8906H18.2812L17.5703 44.3125H19.8281ZM16.4062 45.1641H14.2578L13.6953 47.7266H15.8594L16.4062 45.1641ZM27.9062 42.1172H23.1484V46.3828H27.5547V47.6016H23.1484V53H21.8203V40.8984H27.9062V42.1172ZM38.4297 52.4844C37.5391 52.9635 36.4271 53.2031 35.0938 53.2031C33.3958 53.2031 32.026 52.6432 30.9844 51.5234C29.9479 50.4036 29.4297 48.9557 29.4297 47.1797C29.4297 45.3151 30 43.7682 31.1406 42.5391C32.2812 41.3099 33.763 40.6953 35.5859 40.6953C36.7318 40.6953 37.6797 40.862 38.4297 41.1953V42.6328C37.5599 42.1536 36.6016 41.9141 35.5547 41.9141C34.1172 41.9141 32.9688 42.3984 32.1094 43.3672C31.2552 44.3359 30.8281 45.5807 30.8281 47.1016C30.8281 48.5443 31.2292 49.7214 32.0312 50.6328C32.8333 51.5443 33.9089 52 35.2578 52C36.4766 52 37.5339 51.7292 38.4297 51.1875V52.4844ZM47.7891 41.2812L42.9609 53H41.6172L46.1641 42.0859H40.0312V40.8984H47.7891V41.2812ZM57.2734 49.75H55.7109V53H54.4141V49.75H48.6953V48.8906L54.1016 40.8984H55.7109V48.6719H57.2734V49.75ZM54.4141 48.6719V43.3438C54.4141 42.974 54.4245 42.5547 54.4453 42.0859H54.4141C54.3724 42.2005 54.2188 42.5104 53.9531 43.0156L50.1484 48.6719H54.4141ZM65.7188 42.2891C65.0833 41.9714 64.4245 41.8125 63.7422 41.8125C62.6328 41.8125 61.7578 42.2995 61.1172 43.2734C60.4766 44.2422 60.1589 45.5443 60.1641 47.1797H60.2031C60.7604 46.0234 61.6849 45.4453 62.9766 45.4453C64.0339 45.4453 64.8776 45.7891 65.5078 46.4766C66.138 47.1641 66.4531 48.0677 66.4531 49.1875C66.4531 50.3385 66.099 51.2969 65.3906 52.0625C64.6823 52.8229 63.7786 53.2031 62.6797 53.2031C61.4193 53.2031 60.4583 52.7109 59.7969 51.7266C59.1406 50.7422 58.8125 49.3958 58.8125 47.6875C58.8125 45.6406 59.2422 43.9635 60.1016 42.6562C60.9609 41.349 62.1667 40.6953 63.7188 40.6953C64.5625 40.6953 65.2292 40.8125 65.7188 41.0469V42.2891ZM60.2578 49.0391C60.2578 49.8932 60.4844 50.6172 60.9375 51.2109C61.3958 51.7995 61.9922 52.0938 62.7266 52.0938C63.4401 52.0938 64.0156 51.8333 64.4531 51.3125C64.8906 50.7917 65.1094 50.138 65.1094 49.3516C65.1094 48.4714 64.8958 47.7865 64.4688 47.2969C64.0417 46.8073 63.4557 46.5625 62.7109 46.5625C62.0286 46.5625 61.4479 46.8021 60.9688 47.2812C60.4948 47.7604 60.2578 48.3464 60.2578 49.0391ZM74.8438 42.1172H70.0859V46.3828H74.4922V47.6016H70.0859V53H68.7578V40.8984H74.8438V42.1172Z" fill="white"/>
</svg>
